<?xml version="1.0" encoding="UTF-8" ?>
<!DOCTYPE svg PUBLIC "-//W3C//DTD SVG 1.1//EN" "http://www.w3.org/Graphics/SVG/1.1/DTD/svg11.dtd">
<svg width="936pt" height="654pt" viewBox="0 0 936 654" version="1.1" xmlns="http://www.w3.org/2000/svg">
<g id="#ffffffff">
</g>
<g id="#ad9b73ff">
<path fill="#ad9b73" opacity="1.00" d=" M 439.54 45.60 C 445.33 44.17 451.56 43.70 457.27 45.82 C 462.43 47.73 467.95 49.24 472.20 52.90 C 463.20 49.34 453.98 44.62 443.98 45.93 C 439.64 46.56 434.51 48.27 432.64 52.61 C 431.37 58.56 435.44 63.81 437.99 68.83 C 437.34 69.82 436.69 70.81 436.03 71.79 C 422.47 76.70 410.41 85.02 399.39 94.17 C 397.84 95.50 396.32 96.87 394.85 98.28 C 379.05 113.15 368.38 132.78 362.65 153.58 C 356.24 176.76 353.35 200.99 354.82 225.02 C 356.66 240.28 359.96 255.76 367.76 269.18 C 370.59 274.22 374.69 278.40 377.41 283.49 C 377.61 283.87 377.99 284.62 378.19 285.00 C 364.88 272.13 358.00 254.15 354.78 236.24 C 352.39 224.63 352.96 212.73 353.13 200.95 C 355.36 174.03 360.26 146.57 373.85 122.84 C 378.60 114.28 384.69 106.51 391.75 99.75 C 401.05 90.08 412.01 82.13 423.83 75.83 C 427.76 73.17 432.75 72.03 436.25 68.87 C 434.52 64.24 430.97 60.18 431.11 54.95 C 430.75 50.04 435.43 46.97 439.54 45.60 Z" />
<path fill="#ad9b73" opacity="1.00" d=" M 475.59 54.84 C 478.14 55.76 480.47 57.26 483.09 58.00 C 487.08 58.36 490.97 56.96 494.96 57.02 C 503.64 56.94 512.32 57.04 521.00 56.98 C 530.42 56.58 539.60 59.00 548.88 60.19 C 564.36 63.41 579.63 68.60 593.18 76.85 C 599.49 80.39 602.93 87.78 610.11 89.94 C 613.64 91.01 616.61 93.47 618.10 96.87 C 614.34 93.30 609.68 90.98 604.95 88.99 C 600.30 84.61 595.98 79.73 590.30 76.64 C 573.51 67.18 554.61 61.87 535.56 59.53 C 523.45 57.63 511.16 58.30 498.96 58.33 C 493.62 58.26 488.40 59.76 483.07 59.59 C 480.07 59.58 478.08 57.06 476.04 55.24 L 475.59 54.84 Z" />
<path fill="#ad9b73" opacity="1.00" d=" M 516.81 467.70 C 523.65 467.43 530.30 465.64 537.12 465.21 C 534.11 466.56 531.09 467.89 527.99 469.03 C 519.85 471.25 511.59 472.99 503.28 474.41 C 494.98 476.03 486.32 477.35 479.07 482.01 C 476.88 483.23 474.66 484.69 472.08 484.80 C 470.23 484.14 471.62 482.41 472.19 481.30 C 473.61 479.19 476.06 478.16 478.31 477.20 C 486.46 474.06 494.93 471.74 503.55 470.28 C 507.98 469.49 512.29 468.01 516.81 467.70 Z" />
</g>
<g id="#815f1bff">
<path fill="#815f1b" opacity="1.00" d=" M 432.64 52.61 C 434.51 48.27 439.64 46.56 443.98 45.93 C 453.98 44.62 463.20 49.34 472.20 52.90 C 473.39 53.41 474.56 54.02 475.59 54.84 L 476.04 55.24 C 473.16 55.58 471.01 57.45 469.39 59.73 C 460.94 61.07 452.47 62.61 444.39 65.48 C 440.97 66.63 438.71 69.56 436.03 71.79 C 436.69 70.81 437.34 69.82 437.99 68.83 C 435.44 63.81 431.37 58.56 432.64 52.61 M 450.22 49.72 C 445.32 49.48 439.23 49.84 436.34 54.45 C 436.09 58.43 438.46 62.35 441.09 65.21 C 445.12 64.00 448.86 61.91 453.01 61.07 C 458.35 59.73 464.44 60.12 468.86 56.33 C 463.11 53.08 456.81 50.53 450.22 49.72 Z" />
</g>
<g id="#b18226ff">
<path fill="#b18226" opacity="1.00" d=" M 450.22 49.72 C 456.81 50.53 463.11 53.08 468.86 56.33 C 464.44 60.12 458.35 59.73 453.01 61.07 C 448.86 61.91 445.12 64.00 441.09 65.21 C 438.46 62.35 436.09 58.43 436.34 54.45 C 439.23 49.84 445.32 49.48 450.22 49.72 Z" />
</g>
<g id="#44341bff">
<path fill="#44341b" opacity="1.00" d=" M 469.39 59.73 C 471.01 57.45 473.16 55.58 476.04 55.24 C 478.08 57.06 480.07 59.58 483.07 59.59 C 488.40 59.76 493.62 58.26 498.96 58.33 C 511.16 58.30 523.45 57.63 535.56 59.53 C 554.61 61.87 573.51 67.18 590.30 76.64 C 595.98 79.73 600.30 84.61 604.95 88.99 C 600.84 90.83 596.31 90.09 591.96 90.35 C 587.94 90.56 583.86 93.69 583.87 97.96 C 583.52 104.31 583.91 110.68 583.98 117.04 C 584.04 121.37 585.22 126.55 589.58 128.50 C 596.01 131.01 603.12 128.94 609.27 126.52 C 614.46 124.61 617.98 119.85 623.29 118.15 C 625.76 124.44 630.04 129.76 633.41 135.57 C 652.05 165.52 667.22 197.71 677.34 231.54 C 680.76 243.11 685.01 254.46 687.01 266.40 C 691.87 284.68 695.48 303.30 698.01 322.05 C 699.22 340.78 699.99 359.90 695.60 378.32 C 693.72 387.30 692.18 396.35 690.51 405.37 C 689.29 412.43 686.27 419.13 686.07 426.37 C 691.11 423.84 695.09 419.75 699.88 416.84 C 711.45 409.95 724.99 407.42 738.25 406.34 C 755.48 405.03 772.77 405.91 790.04 405.65 C 805.91 404.90 820.38 397.64 835.00 392.15 C 844.10 388.95 853.25 385.33 862.96 384.59 C 873.93 383.87 885.43 384.49 895.36 389.68 C 902.59 393.28 909.14 398.48 913.89 405.05 C 918.98 412.04 920.59 420.78 921.95 429.13 C 923.33 437.23 919.98 444.97 917.49 452.48 C 913.60 456.29 910.15 460.66 905.47 463.57 C 897.92 468.38 888.89 470.40 880.01 470.42 C 855.13 471.28 830.73 465.42 806.03 463.63 C 794.46 462.70 783.11 460.10 771.61 458.66 C 766.97 457.05 762.15 456.07 757.32 455.26 C 744.62 452.77 732.06 449.63 719.61 446.07 C 715.04 444.97 710.26 442.85 705.54 444.44 C 699.73 446.28 693.51 447.59 687.46 446.19 C 684.05 445.25 681.83 442.26 679.38 439.92 C 674.66 444.02 671.22 449.44 666.02 453.00 C 657.39 459.19 646.41 460.90 636.01 460.68 C 633.06 460.83 629.78 460.35 627.16 462.00 C 625.49 467.32 626.02 474.24 620.61 477.54 C 609.31 484.64 595.85 487.61 582.72 488.98 C 562.02 491.69 541.05 490.79 520.36 493.57 C 508.92 494.72 497.54 496.97 486.00 496.56 C 479.55 496.60 473.22 495.25 466.96 493.83 C 467.42 491.43 466.94 488.99 467.46 486.61 C 464.25 485.17 461.12 483.45 457.66 482.67 C 450.44 481.15 442.93 482.38 436.12 485.01 C 425.99 488.29 415.82 492.77 404.94 492.17 C 399.78 491.98 393.99 490.72 390.84 486.24 C 387.53 481.88 389.30 475.55 393.15 472.15 C 400.83 465.00 411.77 462.37 422.03 462.58 C 430.34 462.71 437.80 467.17 446.07 467.54 C 452.84 467.89 459.60 466.93 466.31 466.10 C 473.63 465.24 480.31 461.94 486.97 459.02 C 493.55 455.99 500.19 452.51 505.09 447.04 C 508.66 443.27 508.20 437.50 507.00 432.85 C 503.71 422.87 495.32 415.82 486.99 409.98 C 480.89 405.31 473.86 401.86 468.30 396.49 C 467.54 395.70 466.80 394.90 466.07 394.10 C 485.95 387.08 504.26 376.53 523.08 367.16 C 528.63 366.38 534.54 366.44 539.54 363.55 C 543.77 361.12 548.45 359.68 552.89 357.70 C 555.93 356.43 553.27 352.72 552.89 350.55 C 559.52 346.97 565.41 342.17 570.89 337.04 C 573.41 336.41 576.27 336.14 578.24 334.25 C 581.01 331.66 583.24 328.56 585.81 325.78 C 589.91 321.13 594.75 316.68 596.53 310.54 C 598.52 303.81 599.64 296.14 596.28 289.64 C 593.97 285.26 589.86 280.80 584.46 281.24 C 577.59 280.85 571.84 285.01 566.23 288.34 C 561.89 290.79 561.43 296.52 557.53 299.47 C 552.25 303.69 549.67 310.10 546.92 316.06 C 545.17 318.88 543.33 321.65 541.10 324.11 C 533.35 332.42 525.32 340.76 515.19 346.17 C 508.48 350.44 500.80 352.56 493.54 355.62 C 483.23 360.87 471.65 362.63 460.96 366.92 C 456.05 368.87 451.38 371.36 446.62 373.64 C 445.85 372.57 445.10 371.49 444.28 370.48 C 443.51 369.72 442.74 368.98 441.97 368.25 C 440.07 360.60 432.66 356.57 429.19 349.83 C 426.52 344.72 422.08 340.54 420.64 334.83 C 419.52 330.80 417.51 327.07 414.91 323.81 C 413.28 321.77 411.59 319.78 409.87 317.82 C 411.61 306.73 414.18 295.77 415.61 284.63 C 415.70 282.42 416.32 279.56 414.16 278.10 C 410.74 275.26 407.02 272.51 402.69 271.27 C 400.56 270.66 398.84 272.51 397.06 273.36 C 396.85 272.15 396.64 270.95 396.43 269.75 C 395.41 264.20 389.30 261.91 385.79 258.07 C 384.20 256.79 382.35 255.89 380.61 254.83 C 379.49 264.88 380.96 274.94 381.47 284.97 C 380.11 284.47 378.76 283.98 377.41 283.49 C 374.69 278.40 370.59 274.22 367.76 269.18 C 359.96 255.76 356.66 240.28 354.82 225.02 C 353.35 200.99 356.24 176.76 362.65 153.58 C 368.38 132.78 379.05 113.15 394.85 98.28 C 399.04 101.23 404.14 102.36 409.20 101.55 C 408.67 100.22 408.54 98.65 407.60 97.53 C 405.07 95.98 402.15 95.20 399.39 94.17 C 410.41 85.02 422.47 76.70 436.03 71.79 C 438.71 69.56 440.97 66.63 444.39 65.48 C 452.47 62.61 460.94 61.07 469.39 59.73 M 500.61 111.13 C 499.36 111.33 498.10 111.50 496.85 111.64 C 494.04 113.09 490.47 114.45 489.72 117.92 C 490.59 120.83 493.93 119.74 495.97 118.95 C 503.02 116.20 510.85 114.52 518.31 116.58 C 520.15 118.12 521.74 119.97 523.13 121.94 C 525.81 127.97 527.49 134.73 532.12 139.67 C 535.01 135.18 532.67 129.94 531.62 125.27 C 530.92 122.11 529.34 119.20 526.81 117.14 C 524.50 113.91 521.11 111.70 517.81 109.60 C 512.32 106.56 505.47 107.20 500.61 111.13 M 389.66 110.59 C 386.16 114.04 381.31 117.74 381.84 123.23 C 386.39 122.55 390.41 120.20 394.48 118.21 C 399.58 115.93 394.02 107.07 389.66 110.59 M 402.28 123.22 C 399.23 126.25 395.82 129.03 391.74 130.51 C 388.75 131.57 385.70 132.69 383.45 135.01 C 388.53 136.40 394.51 136.35 398.79 132.89 C 402.78 130.64 405.68 126.93 408.10 123.13 C 409.17 121.57 409.35 118.39 407.01 118.00 C 404.81 119.07 403.54 121.24 402.28 123.22 M 490.09 136.19 C 489.74 140.30 491.85 144.19 494.73 146.99 C 498.72 148.64 502.61 150.91 506.98 151.36 C 510.59 150.83 514.51 148.01 514.41 144.02 C 514.15 140.00 511.42 136.80 509.17 133.67 C 506.11 131.65 502.66 130.00 498.93 129.87 C 495.03 129.64 490.81 132.17 490.09 136.19 M 475.19 141.68 C 474.59 150.01 477.24 158.32 481.69 165.30 C 484.98 170.67 491.08 173.68 497.14 174.61 C 502.76 174.99 508.02 172.53 513.41 171.32 C 517.16 170.51 520.77 168.93 523.40 166.04 C 520.34 165.15 517.15 164.49 513.95 164.86 C 507.17 165.57 500.01 165.95 493.52 163.51 C 486.45 159.74 482.81 152.17 479.72 145.16 C 479.07 143.08 477.04 142.32 475.19 141.68 M 508.42 175.32 C 508.29 176.53 508.17 177.75 508.05 178.97 C 511.93 180.16 516.01 180.13 519.90 178.97 C 519.80 177.69 519.81 176.41 519.91 175.13 C 516.08 174.79 512.23 174.82 508.42 175.32 M 361.51 196.86 C 361.24 199.14 360.65 201.51 361.28 203.78 C 363.49 209.05 369.80 212.80 375.34 210.05 C 372.83 207.57 370.16 205.27 367.46 203.01 C 368.22 200.65 368.99 198.29 369.77 195.94 C 371.24 194.38 372.79 192.89 374.45 191.52 C 378.50 190.46 383.08 188.69 387.03 191.06 C 393.42 194.46 394.52 202.45 394.93 208.96 C 395.83 219.69 390.60 229.92 392.11 240.65 C 392.54 243.41 392.70 246.40 394.23 248.83 C 395.62 250.72 399.93 250.73 399.75 247.79 C 400.09 241.74 398.75 235.69 399.58 229.63 C 400.13 220.95 400.25 210.49 407.93 204.74 C 410.19 204.58 412.44 204.44 414.70 204.28 C 414.85 205.82 415.00 207.36 415.11 208.90 C 418.05 210.57 421.33 211.80 423.81 214.15 C 425.22 216.50 425.53 219.31 426.36 221.90 C 428.11 221.91 429.84 222.26 431.59 222.33 C 431.88 223.94 432.18 225.56 432.51 227.18 C 435.07 226.58 437.49 225.47 439.25 223.46 C 441.02 219.76 443.42 215.81 442.42 211.54 C 441.28 204.53 435.72 199.40 429.71 196.23 C 422.64 192.48 416.10 187.34 408.12 185.68 C 402.94 184.48 397.89 182.55 392.55 182.18 C 387.43 181.81 382.28 181.60 377.18 182.14 C 369.34 182.56 363.00 189.47 361.51 196.86 M 371.67 201.19 C 376.83 201.52 382.14 200.83 387.08 202.75 C 387.58 201.44 389.09 200.16 388.23 198.69 C 386.87 195.65 383.47 193.66 380.14 194.30 C 376.26 194.86 373.72 198.17 371.67 201.19 M 384.98 250.88 C 387.50 255.59 392.00 258.62 395.98 262.00 C 399.65 265.09 403.55 268.02 408.04 269.84 C 412.26 271.49 416.85 273.74 421.44 272.00 C 420.22 269.82 418.62 267.68 415.99 267.23 C 409.56 265.65 403.91 262.15 398.39 258.62 C 394.05 255.82 390.25 251.89 384.98 250.88 M 532.90 295.96 C 526.29 302.33 520.20 309.46 512.16 314.14 C 499.50 321.31 485.40 325.86 470.99 327.76 C 462.23 329.15 453.32 327.12 445.16 323.97 C 439.68 321.86 434.03 320.10 428.90 317.18 C 426.94 316.16 425.07 314.90 422.94 314.28 C 421.45 313.09 419.88 312.02 418.33 310.93 C 417.50 311.74 416.67 312.55 415.85 313.37 C 417.09 315.00 418.42 316.55 419.87 318.00 C 429.69 325.31 440.48 332.12 452.76 334.12 C 471.14 336.54 490.21 333.26 506.56 324.47 C 512.63 321.12 518.80 317.71 523.71 312.71 C 528.86 307.55 534.06 302.25 537.84 295.97 C 540.44 294.02 544.99 289.81 541.99 286.72 C 537.78 288.35 535.02 292.16 532.90 295.96 M 633.50 418.16 C 633.92 422.70 630.24 426.07 629.13 430.24 C 626.66 437.75 624.06 446.46 627.95 453.95 C 631.48 449.20 630.08 443.17 630.47 437.70 C 630.53 434.68 632.15 432.06 633.61 429.53 C 636.24 425.10 638.12 420.13 638.61 414.99 C 638.98 413.07 637.05 411.03 635.11 411.80 C 632.72 412.94 633.81 416.06 633.50 418.16 M 571.07 427.06 C 570.74 428.66 570.39 430.25 570.06 431.84 C 568.76 435.67 567.07 439.37 566.31 443.36 C 563.36 447.63 560.59 452.17 556.31 455.26 C 550.58 457.65 545.06 460.59 539.05 462.23 C 531.75 464.54 524.02 465.09 516.81 467.70 C 512.29 468.01 507.98 469.49 503.55 470.28 C 494.93 471.74 486.46 474.06 478.31 477.20 C 476.06 478.16 473.61 479.19 472.19 481.30 C 471.62 482.41 470.23 484.14 472.08 484.80 C 474.66 484.69 476.88 483.23 479.07 482.01 C 480.89 481.49 482.72 480.97 484.53 480.38 C 495.29 476.59 506.71 475.39 517.79 472.87 C 522.00 471.92 526.61 471.65 530.10 468.80 C 535.66 468.48 540.89 466.45 546.20 464.91 C 550.63 463.41 555.54 462.41 558.86 458.84 C 561.43 456.80 563.84 454.50 565.84 451.90 C 569.34 448.77 571.33 444.38 572.68 439.97 C 574.60 435.96 574.93 431.48 575.07 427.11 C 573.73 427.07 572.40 427.05 571.07 427.06 Z" />
<path fill="#44341b" opacity="1.00" d=" M 205.88 282.92 C 210.75 282.09 215.67 280.85 220.63 281.26 C 222.45 282.29 222.98 284.53 223.68 286.36 C 225.87 293.58 227.44 300.97 228.92 308.37 C 230.49 316.09 230.62 324.00 231.58 331.80 C 232.93 342.48 232.26 353.26 232.40 364.00 C 232.51 371.67 231.47 379.30 231.45 386.98 C 231.45 403.00 230.84 419.06 232.47 435.03 C 232.81 450.46 238.25 465.86 248.40 477.57 C 257.93 488.36 270.68 495.42 282.24 503.74 C 297.07 513.61 310.91 524.93 323.77 537.24 C 325.82 538.91 326.56 541.46 326.58 544.02 C 321.18 543.04 315.92 541.35 310.98 538.97 C 292.44 530.62 274.36 521.28 256.61 511.40 C 251.21 508.50 246.18 504.95 240.66 502.30 C 238.46 501.26 235.23 500.14 233.54 502.63 C 232.50 506.05 233.89 509.57 235.10 512.76 C 239.94 524.36 245.57 535.62 250.90 547.01 C 252.90 551.23 253.95 555.82 254.33 560.47 C 246.46 560.38 241.00 554.21 235.24 549.74 C 225.46 541.97 216.07 533.19 204.38 528.37 C 200.88 526.74 195.47 526.95 194.22 531.37 C 191.93 540.96 199.62 548.92 200.74 558.05 C 200.74 560.03 201.13 563.04 198.83 563.90 C 195.82 565.16 192.40 564.46 189.41 563.48 C 181.86 560.80 176.06 554.34 173.02 547.06 C 170.41 540.66 171.39 533.66 171.49 526.95 C 171.64 521.87 169.42 517.16 167.34 512.66 C 163.88 505.29 159.07 498.42 152.70 493.27 C 149.54 490.76 145.32 488.68 141.24 490.00 C 136.25 491.69 133.25 496.36 130.42 500.49 C 124.25 510.00 117.13 519.11 108.12 526.10 C 105.61 528.16 102.34 528.70 99.22 529.12 C 97.37 517.69 105.38 508.32 108.13 497.82 C 108.49 495.75 109.08 492.15 106.31 491.61 C 101.99 490.51 97.99 493.37 94.30 495.21 C 86.06 499.84 78.02 504.82 70.20 510.13 C 64.86 513.54 59.92 517.89 53.62 519.41 C 54.94 512.24 61.08 506.62 60.83 499.11 C 60.96 495.66 57.37 493.29 54.17 493.93 C 47.37 494.82 41.19 498.09 35.14 501.13 C 29.11 504.09 23.59 508.53 16.72 509.32 C 18.37 506.23 20.50 503.43 23.04 501.04 C 32.53 491.85 41.97 482.62 51.49 473.47 C 65.88 459.77 72.38 439.76 74.12 420.40 C 75.03 407.97 75.67 395.47 75.10 383.00 C 74.52 373.10 74.67 363.17 74.51 353.25 C 74.35 333.78 74.92 313.72 82.38 295.43 C 84.51 290.40 86.98 284.61 92.35 282.33 C 98.15 280.56 104.29 282.11 110.15 282.76 C 119.50 285.02 128.67 288.09 138.12 289.92 C 145.81 290.45 154.20 292.96 161.47 289.39 C 161.99 289.43 163.02 289.52 163.53 289.56 C 169.67 291.30 175.79 288.57 181.98 289.00 C 190.10 287.75 197.94 285.00 205.88 282.92 Z" />
</g>
<g id="#7b5b1cff">
<path fill="#7b5b1c" opacity="1.00" d=" M 604.95 88.99 C 609.68 90.98 614.34 93.30 618.10 96.87 C 620.97 103.64 623.79 110.64 623.29 118.15 C 617.98 119.85 614.46 124.61 609.27 126.52 C 603.12 128.94 596.01 131.01 589.58 128.50 C 585.22 126.55 584.04 121.37 583.98 117.04 C 583.91 110.68 583.52 104.31 583.87 97.96 C 583.86 93.69 587.94 90.56 591.96 90.35 C 596.31 90.09 600.84 90.83 604.95 88.99 M 587.79 93.79 C 585.44 94.81 585.84 97.85 585.76 99.94 C 586.17 105.70 585.91 111.53 586.91 117.24 C 586.72 119.57 586.77 121.91 586.72 124.24 L 587.55 124.43 C 588.82 125.87 589.87 127.95 592.02 128.10 C 597.21 128.98 602.64 127.88 607.11 125.11 C 611.89 123.50 616.53 120.45 618.96 115.92 C 621.08 111.98 618.45 107.77 616.97 104.12 C 615.42 101.07 613.80 97.26 610.27 96.16 C 603.89 91.30 595.08 91.14 587.79 93.79 Z" />
</g>
<g id="#a88333ff">
<path fill="#a88333" opacity="1.00" d=" M 587.79 93.79 C 595.08 91.14 603.89 91.30 610.27 96.16 C 603.26 95.77 596.24 96.37 589.33 97.53 C 588.02 104.03 587.54 110.65 586.91 117.24 C 585.91 111.53 586.17 105.70 585.76 99.94 C 585.84 97.85 585.44 94.81 587.79 93.79 Z" />
</g>
<g id="#5f4f30ff">
<path fill="#5f4f30" opacity="1.00" d=" M 394.85 98.28 C 396.32 96.87 397.84 95.50 399.39 94.17 C 402.15 95.20 405.07 95.98 407.60 97.53 C 408.54 98.65 408.67 100.22 409.20 101.55 C 404.14 102.36 399.04 101.23 394.85 98.28 Z" />
</g>
<g id="#b4801dff">
<path fill="#b4801d" opacity="1.00" d=" M 589.33 97.53 C 596.24 96.37 603.26 95.77 610.27 96.16 C 613.80 97.26 615.42 101.07 616.97 104.12 C 618.45 107.77 621.08 111.98 618.96 115.92 C 616.53 120.45 611.89 123.50 607.11 125.11 C 600.63 126.25 593.92 126.18 587.55 124.43 L 586.72 124.24 C 586.77 121.91 586.72 119.57 586.91 117.24 C 587.54 110.65 588.02 104.03 589.33 97.53 Z" />
</g>
<g id="#867656ff">
<path fill="#867656" opacity="1.00" d=" M 618.10 96.87 C 620.92 100.06 622.76 103.98 623.86 108.07 C 625.17 112.08 622.87 116.64 625.65 120.29 C 634.43 134.61 643.63 148.71 651.22 163.72 C 656.66 174.74 662.54 185.59 666.76 197.16 C 674.06 214.07 679.28 231.78 684.43 249.44 C 687.77 262.22 691.87 274.84 693.99 287.91 C 701.26 318.89 703.95 351.61 696.72 382.87 C 694.54 395.94 691.60 408.87 688.53 421.75 C 691.06 420.72 693.39 419.29 695.58 417.67 C 705.20 410.93 716.68 407.60 728.09 405.42 C 745.97 403.30 764.03 404.40 782.01 404.21 C 788.45 404.56 794.87 403.82 801.13 402.28 C 819.73 398.32 836.23 387.95 854.82 383.95 C 869.09 380.48 884.83 381.98 897.65 389.37 C 909.85 395.57 919.55 407.21 922.15 420.79 C 924.15 426.90 924.28 433.43 923.57 439.77 C 922.43 444.03 921.40 448.76 918.08 451.90 L 917.49 452.48 C 919.98 444.97 923.33 437.23 921.95 429.13 C 920.59 420.78 918.98 412.04 913.89 405.05 C 909.14 398.48 902.59 393.28 895.36 389.68 C 885.43 384.49 873.93 383.87 862.96 384.59 C 853.25 385.33 844.10 388.95 835.00 392.15 C 820.38 397.64 805.91 404.90 790.04 405.65 C 772.77 405.91 755.48 405.03 738.25 406.34 C 724.99 407.42 711.45 409.95 699.88 416.84 C 695.09 419.75 691.11 423.84 686.07 426.37 C 686.27 419.13 689.29 412.43 690.51 405.37 C 692.18 396.35 693.72 387.30 695.60 378.32 C 699.99 359.90 699.22 340.78 698.01 322.05 C 695.48 303.30 691.87 284.68 687.01 266.40 C 685.01 254.46 680.76 243.11 677.34 231.54 C 667.22 197.71 652.05 165.52 633.41 135.57 C 630.04 129.76 625.76 124.44 623.29 118.15 C 623.79 110.64 620.97 103.64 618.10 96.87 Z" />
</g>
<g id="#b68419ff">
<path fill="#b68419" opacity="1.00" d=" M 500.61 111.13 C 505.47 107.20 512.32 106.56 517.81 109.60 C 517.45 110.34 516.74 111.82 516.38 112.56 C 512.90 112.96 509.43 113.39 505.98 113.99 L 505.17 114.15 C 503.64 113.15 502.12 112.14 500.61 111.13 Z" />
</g>
<g id="#836d40ff">
<path fill="#836d40" opacity="1.00" d=" M 389.66 110.59 C 394.02 107.07 399.58 115.93 394.48 118.21 C 390.41 120.20 386.39 122.55 381.84 123.23 C 381.31 117.74 386.16 114.04 389.66 110.59 M 388.94 111.68 C 389.17 112.91 389.47 114.13 389.82 115.34 C 390.72 117.06 393.01 116.39 394.59 116.81 C 394.57 115.32 394.57 113.84 394.58 112.36 C 392.71 112.07 390.82 111.89 388.94 111.68 Z" />
</g>
<g id="#a3833cff">
<path fill="#a3833c" opacity="1.00" d=" M 517.81 109.60 C 521.11 111.70 524.50 113.91 526.81 117.14 C 528.97 121.95 530.35 127.09 530.74 132.35 C 527.85 129.14 525.58 125.47 523.13 121.94 C 521.74 119.97 520.15 118.12 518.31 116.58 C 514.85 113.78 510.26 113.13 505.98 113.99 C 509.43 113.39 512.90 112.96 516.38 112.56 C 516.74 111.82 517.45 110.34 517.81 109.60 Z" />
</g>
<g id="#8a713eff">
<path fill="#8a713e" opacity="1.00" d=" M 496.85 111.64 C 498.10 111.50 499.36 111.33 500.61 111.13 C 502.12 112.14 503.64 113.15 505.17 114.15 C 501.48 115.46 497.70 116.52 493.81 116.97 C 494.81 115.19 495.83 113.41 496.85 111.64 Z" />
</g>
<g id="#e7d5aeff">
<path fill="#e7d5ae" opacity="1.00" d=" M 388.94 111.68 C 390.82 111.89 392.71 112.07 394.58 112.36 C 394.57 113.84 394.57 115.32 394.59 116.81 C 393.01 116.39 390.72 117.06 389.82 115.34 C 389.47 114.13 389.17 112.91 388.94 111.68 Z" />
</g>
<g id="#644c24ff">
<path fill="#644c24" opacity="1.00" d=" M 489.72 117.92 C 490.47 114.45 494.04 113.09 496.85 111.64 C 495.83 113.41 494.81 115.19 493.81 116.97 C 497.70 116.52 501.48 115.46 505.17 114.15 L 505.98 113.99 C 510.26 113.13 514.85 113.78 518.31 116.58 C 510.85 114.52 503.02 116.20 495.97 118.95 C 493.93 119.74 490.59 120.83 489.72 117.92 Z" />
</g>
<g id="#6a572eff">
<path fill="#6a572e" opacity="1.00" d=" M 526.81 117.14 C 529.34 119.20 530.92 122.11 531.62 125.27 C 532.67 129.94 535.01 135.18 532.12 139.67 C 527.49 134.73 525.81 127.97 523.13 121.94 C 525.58 125.47 527.85 129.14 530.74 132.35 C 530.35 127.09 528.97 121.95 526.81 117.14 Z" />
</g>
<g id="#5f4e31ff">
<path fill="#5f4e31" opacity="1.00" d=" M 402.28 123.22 C 403.54 121.24 404.81 119.07 407.01 118.00 C 409.35 118.39 409.17 121.57 408.10 123.13 C 405.68 126.93 402.78 130.64 398.79 132.89 C 401.25 129.79 403.51 126.53 405.88 123.36 C 404.68 123.31 403.47 123.26 402.28 123.22 Z" />
</g>
<g id="#8b744bff">
<path fill="#8b744b" opacity="1.00" d=" M 402.28 123.22 C 403.47 123.26 404.68 123.31 405.88 123.36 C 403.51 126.53 401.25 129.79 398.79 132.89 C 394.51 136.35 388.53 136.40 383.45 135.01 C 385.70 132.69 388.75 131.57 391.74 130.51 C 395.82 129.03 399.23 126.25 402.28 123.22 Z" />
</g>
<g id="#9b7433ff">
<path fill="#9b7433" opacity="1.00" d=" M 587.55 124.43 C 593.92 126.18 600.63 126.25 607.11 125.11 C 602.64 127.88 597.21 128.98 592.02 128.10 C 589.87 127.95 588.82 125.87 587.55 124.43 Z" />
</g>
<g id="#7f6539ff">
<path fill="#7f6539" opacity="1.00" d=" M 490.09 136.19 C 490.81 132.17 495.03 129.64 498.93 129.87 C 502.66 130.00 506.11 131.65 509.17 133.67 C 506.94 133.32 504.73 132.95 502.51 132.56 C 503.08 135.19 504.30 137.87 503.82 140.59 C 502.26 143.54 498.24 143.03 495.45 143.79 C 495.20 144.86 494.96 145.92 494.73 146.99 C 491.85 144.19 489.74 140.30 490.09 136.19 Z" />
</g>
<g id="#b09e79ff">
<path fill="#b09e79" opacity="1.00" d=" M 502.51 132.56 C 504.73 132.95 506.94 133.32 509.17 133.67 C 511.42 136.80 514.15 140.00 514.41 144.02 C 514.51 148.01 510.59 150.83 506.98 151.36 C 502.61 150.91 498.72 148.64 494.73 146.99 C 494.96 145.92 495.20 144.86 495.45 143.79 C 498.24 143.03 502.26 143.54 503.82 140.59 C 504.30 137.87 503.08 135.19 502.51 132.56 M 505.59 134.75 C 505.36 137.08 505.90 139.66 504.80 141.81 C 502.71 144.00 499.60 144.73 496.93 145.97 C 500.33 147.74 504.00 149.67 507.96 149.17 C 510.70 148.91 513.01 146.25 512.48 143.47 C 512.19 139.42 509.43 135.97 505.59 134.75 Z" />
</g>
<g id="#faedcbff">
<path fill="#faedcb" opacity="1.00" d=" M 505.59 134.75 C 509.43 135.97 512.19 139.42 512.48 143.47 C 513.01 146.25 510.70 148.91 507.96 149.17 C 504.00 149.67 500.33 147.74 496.93 145.97 C 499.60 144.73 502.71 144.00 504.80 141.81 C 505.90 139.66 505.36 137.08 505.59 134.75 Z" />
<path fill="#faedcb" opacity="1.00" d=" M 401.91 273.95 C 405.80 276.02 409.89 277.87 413.35 280.65 C 413.72 285.03 412.08 289.29 411.45 293.58 C 409.83 301.66 409.18 309.92 407.01 317.89 C 404.47 316.14 401.46 314.25 400.87 310.96 C 400.24 305.98 401.34 300.99 401.31 296.00 C 401.59 288.65 400.84 281.25 401.91 273.95 Z" />
</g>
<g id="#745c2dff">
<path fill="#745c2d" opacity="1.00" d=" M 475.19 141.68 C 477.04 142.32 479.07 143.08 479.72 145.16 C 482.81 152.17 486.45 159.74 493.52 163.51 C 500.01 165.95 507.17 165.57 513.95 164.86 C 517.15 164.49 520.34 165.15 523.40 166.04 C 520.77 168.93 517.16 170.51 513.41 171.32 C 508.02 172.53 502.76 174.99 497.14 174.61 C 491.08 173.68 484.98 170.67 481.69 165.30 C 477.24 158.32 474.59 150.01 475.19 141.68 M 477.19 148.25 C 478.63 154.56 479.63 161.72 484.75 166.24 C 487.81 168.91 491.16 171.54 495.16 172.59 C 501.46 173.92 507.70 171.56 513.63 169.67 C 513.67 169.11 513.76 167.98 513.80 167.41 C 507.08 167.13 500.10 167.54 493.67 165.29 C 486.83 161.91 482.99 154.93 479.46 148.52 C 478.89 148.45 477.76 148.32 477.19 148.25 Z" />
</g>
<g id="#a88434ff">
<path fill="#a88434" opacity="1.00" d=" M 477.19 148.25 C 477.76 148.32 478.89 148.45 479.46 148.52 C 482.99 154.93 486.83 161.91 493.67 165.29 C 500.10 167.54 507.08 167.13 513.80 167.41 C 513.76 167.98 513.67 169.11 513.63 169.67 C 507.70 171.56 501.46 173.92 495.16 172.59 C 491.16 171.54 487.81 168.91 484.75 166.24 C 479.63 161.72 478.63 154.56 477.19 148.25 Z" />
</g>
<g id="#462f38ff">
<path fill="#462f38" opacity="1.00" d=" M 508.42 175.32 C 512.23 174.82 516.08 174.79 519.91 175.13 C 519.81 176.41 519.80 177.69 519.90 178.97 C 516.01 180.13 511.93 180.16 508.05 178.97 C 508.17 177.75 508.29 176.53 508.42 175.32 Z" />
</g>
<g id="#795c25ff">
<path fill="#795c25" opacity="1.00" d=" M 361.51 196.86 C 363.00 189.47 369.34 182.56 377.18 182.14 C 382.28 181.60 387.43 181.81 392.55 182.18 C 397.89 182.55 402.94 184.48 408.12 185.68 C 416.10 187.34 422.64 192.48 429.71 196.23 C 435.72 199.40 441.28 204.53 442.42 211.54 C 443.42 215.81 441.02 219.76 439.25 223.46 C 437.86 223.53 436.47 223.61 435.09 223.69 C 434.70 223.25 433.92 222.38 433.53 221.94 C 434.50 220.65 435.47 219.36 436.39 218.03 C 436.38 218.88 436.36 220.56 436.35 221.40 C 438.37 219.69 441.30 218.06 441.19 215.01 C 441.10 209.09 437.87 203.36 433.05 199.98 C 430.21 197.94 427.02 196.51 423.95 194.87 C 418.04 191.45 411.94 188.16 405.22 186.67 C 396.06 184.22 386.44 182.90 376.98 183.91 C 368.86 184.70 363.23 192.59 362.90 200.37 C 363.67 200.60 365.20 201.06 365.97 201.30 C 365.74 201.91 365.27 203.15 365.04 203.76 C 364.21 203.70 363.39 203.64 362.57 203.58 C 362.18 201.35 361.78 199.11 361.51 196.86 Z" />
</g>
<g id="#a78437ff">
<path fill="#a78437" opacity="1.00" d=" M 376.98 183.91 C 386.44 182.90 396.06 184.22 405.22 186.67 C 398.67 187.55 392.07 186.96 385.52 187.45 C 381.64 188.16 377.61 189.01 374.45 191.52 C 372.79 192.89 371.24 194.38 369.77 195.94 C 368.28 197.56 366.98 199.35 365.97 201.30 C 365.20 201.06 363.67 200.60 362.90 200.37 C 363.23 192.59 368.86 184.70 376.98 183.91 Z" />
</g>
<g id="#b38023ff">
<path fill="#b38023" opacity="1.00" d=" M 385.52 187.45 C 392.07 186.96 398.67 187.55 405.22 186.67 C 411.94 188.16 418.04 191.45 423.95 194.87 C 420.25 197.22 415.98 198.30 411.94 199.90 C 409.30 201.56 406.71 203.34 404.38 205.43 C 401.22 208.27 400.09 212.56 398.89 216.47 C 398.24 214.82 397.51 213.20 396.87 211.55 C 396.43 205.62 396.29 199.24 392.85 194.14 C 390.95 191.38 388.13 189.47 385.52 187.45 Z" />
</g>
<g id="#8c7549ff">
<path fill="#8c7549" opacity="1.00" d=" M 303.67 187.29 C 304.95 187.25 306.24 187.23 307.54 187.20 C 312.66 199.64 317.74 212.42 318.72 225.97 C 318.67 232.39 319.52 239.09 317.13 245.23 C 315.61 249.77 312.97 253.78 310.67 257.94 C 312.53 261.36 314.58 264.82 315.09 268.75 C 316.56 278.55 318.97 288.16 321.08 297.83 C 322.52 302.61 327.60 304.97 332.11 306.01 C 341.84 308.16 352.08 309.88 360.49 315.59 C 364.19 318.49 367.30 322.07 370.65 325.36 C 376.76 331.31 381.28 338.72 387.74 344.33 C 389.06 345.78 391.15 345.30 392.88 345.18 C 401.84 343.82 410.10 339.90 418.25 336.15 C 419.77 335.64 419.61 333.48 418.75 332.46 C 416.75 329.51 414.79 326.53 412.88 323.53 C 411.06 323.99 409.23 324.44 407.41 324.90 C 407.03 324.40 406.25 323.40 405.87 322.91 C 408.90 322.66 412.08 322.46 414.91 323.81 C 417.51 327.07 419.52 330.80 420.64 334.83 C 422.08 340.54 426.52 344.72 429.19 349.83 C 432.66 356.57 440.07 360.60 441.97 368.25 L 441.26 367.59 C 439.07 365.20 437.33 362.45 435.50 359.79 C 435.29 359.52 434.87 358.98 434.66 358.71 C 428.58 360.51 421.58 360.88 416.56 365.10 C 417.22 367.00 418.45 368.64 419.87 370.06 C 413.98 366.84 408.78 362.53 403.19 358.85 C 398.23 355.60 394.36 351.06 389.80 347.33 C 378.32 339.18 371.67 326.06 360.49 317.57 C 352.51 311.70 342.49 310.23 333.09 308.04 C 328.14 306.80 322.42 304.90 320.24 299.82 C 318.04 294.37 317.40 288.47 316.06 282.79 C 314.05 274.34 314.00 264.90 308.15 257.91 C 306.41 258.50 304.66 259.03 302.90 259.53 C 304.47 266.75 310.68 271.83 312.02 279.12 C 313.70 286.96 315.08 294.87 316.51 302.76 C 317.12 305.36 317.61 308.34 319.77 310.16 C 324.22 312.09 329.32 310.61 333.88 312.11 C 334.80 313.75 335.43 315.54 336.07 317.31 C 336.86 317.61 337.66 317.90 338.47 318.18 L 339.38 318.45 C 335.88 320.72 331.70 321.75 328.44 324.41 C 323.24 327.90 317.93 332.94 311.12 331.77 C 299.24 329.79 291.01 319.91 284.27 310.74 C 281.64 307.47 282.71 302.47 279.37 299.65 C 271.39 292.27 265.00 283.06 261.34 272.79 C 259.45 267.28 256.64 261.80 257.24 255.79 C 261.30 257.03 264.49 259.89 268.08 262.01 C 272.14 264.49 275.91 267.41 279.55 270.48 C 285.96 276.36 292.77 282.35 296.35 290.48 C 298.65 297.75 297.12 305.45 297.91 312.90 C 298.65 317.55 303.90 318.48 307.69 319.45 C 316.31 321.09 325.51 320.30 333.68 317.03 C 333.26 315.61 333.28 313.83 331.82 313.02 C 328.05 312.52 324.20 313.19 320.45 312.51 C 317.87 310.75 315.61 308.15 315.21 304.95 C 314.22 299.33 313.40 293.68 312.01 288.14 C 310.68 282.84 310.91 276.98 307.78 272.28 C 305.12 268.19 302.52 264.06 300.30 259.71 C 292.05 247.37 285.72 232.55 287.60 217.43 C 289.97 206.06 297.88 197.04 303.67 187.29 M 302.90 192.19 C 304.68 193.01 306.46 193.84 308.25 194.65 C 307.52 192.28 306.68 189.95 305.75 187.66 C 304.71 189.11 303.77 190.64 302.90 192.19 M 298.90 202.94 C 295.96 208.22 292.06 213.33 291.61 219.58 C 290.60 227.61 293.28 235.46 296.17 242.82 C 298.67 248.02 300.71 253.64 304.86 257.80 C 308.89 253.77 311.21 248.49 313.21 243.26 C 315.17 238.40 314.54 233.05 314.60 227.94 C 314.73 219.00 311.37 210.59 308.67 202.23 C 307.77 199.36 306.42 196.67 304.93 194.08 C 302.51 196.74 300.62 199.80 298.90 202.94 M 259.33 258.36 C 257.44 259.14 258.67 261.36 259.44 262.56 C 260.71 264.49 263.25 263.06 265.11 263.13 C 263.38 261.41 262.06 258.44 259.33 258.36 M 263.22 264.80 C 265.08 274.44 271.01 282.50 276.55 290.35 C 281.29 296.27 286.73 301.59 292.37 306.64 C 294.65 300.52 292.93 293.62 290.03 288.00 C 285.02 279.51 276.59 273.94 269.04 267.91 C 267.34 266.48 265.28 265.58 263.22 264.80 M 283.11 302.37 C 284.14 309.79 289.42 315.41 294.45 320.52 C 299.27 325.12 305.04 329.64 312.02 329.77 C 318.54 330.54 324.40 326.23 328.37 321.47 C 319.11 321.17 308.56 324.50 300.38 318.70 C 297.22 316.86 296.24 313.21 295.16 309.99 C 290.34 308.61 288.20 302.82 283.11 302.37 M 403.79 346.93 C 400.85 347.99 397.22 347.72 394.87 349.97 C 397.80 353.14 401.50 355.46 404.87 358.13 C 407.10 359.74 409.27 361.64 411.98 362.40 C 418.04 359.32 424.58 357.54 431.11 355.75 C 427.93 350.45 424.18 345.51 421.32 340.02 C 415.31 341.90 409.99 345.55 403.79 346.93 Z" />
</g>
<g id="#635026ff">
<path fill="#635026" opacity="1.00" d=" M 302.90 192.19 C 303.77 190.64 304.71 189.11 305.75 187.66 C 306.68 189.95 307.52 192.28 308.25 194.65 C 306.46 193.84 304.68 193.01 302.90 192.19 Z" />
</g>
<g id="#77581dff">
<path fill="#77581d" opacity="1.00" d=" M 374.45 191.52 C 377.61 189.01 381.64 188.16 385.52 187.45 C 388.13 189.47 390.95 191.38 392.85 194.14 C 396.29 199.24 396.43 205.62 396.87 211.55 C 395.80 218.85 394.65 226.14 393.62 233.44 C 393.12 237.68 392.89 242.25 394.82 246.19 C 395.43 247.66 397.16 248.03 398.57 247.62 C 399.24 241.94 397.25 236.37 397.56 230.69 C 397.79 225.93 398.58 221.23 398.89 216.47 C 400.09 212.56 401.22 208.27 404.38 205.43 C 406.71 203.34 409.30 201.56 411.94 199.90 C 418.23 199.39 425.22 199.31 430.16 203.88 C 425.96 202.43 421.61 200.74 417.09 201.01 C 413.76 201.41 410.73 202.99 407.93 204.74 C 400.25 210.49 400.13 220.95 399.58 229.63 C 398.75 235.69 400.09 241.74 399.75 247.79 C 399.93 250.73 395.62 250.72 394.23 248.83 C 392.70 246.40 392.54 243.41 392.11 240.65 C 390.60 229.92 395.83 219.69 394.93 208.96 C 394.52 202.45 393.42 194.46 387.03 191.06 C 383.08 188.69 378.50 190.46 374.45 191.52 Z" />
</g>
<g id="#7a654cff">
<path fill="#7a654c" opacity="1.00" d=" M 371.67 201.19 C 373.72 198.17 376.26 194.86 380.14 194.30 C 383.47 193.66 386.87 195.65 388.23 198.69 C 389.09 200.16 387.58 201.44 387.08 202.75 C 382.14 200.83 376.83 201.52 371.67 201.19 M 376.82 198.33 C 380.17 199.51 383.61 200.45 387.15 200.86 C 386.41 198.28 384.85 195.47 381.80 195.38 C 379.47 194.70 378.04 196.74 376.82 198.33 Z" />
</g>
<g id="#ecd097ff">
<path fill="#ecd097" opacity="1.00" d=" M 298.90 202.94 C 300.62 199.80 302.51 196.74 304.93 194.08 C 306.42 196.67 307.77 199.36 308.67 202.23 C 311.37 210.59 314.73 219.00 314.60 227.94 C 314.54 233.05 315.17 238.40 313.21 243.26 C 311.21 248.49 308.89 253.77 304.86 257.80 C 300.71 253.64 298.67 248.02 296.17 242.82 C 293.28 235.46 290.60 227.61 291.61 219.58 C 292.06 213.33 295.96 208.22 298.90 202.94 M 301.57 206.47 C 298.77 210.74 298.15 216.00 297.93 220.99 C 297.75 225.76 297.06 230.66 298.50 235.31 C 300.13 240.56 301.04 246.37 304.93 250.53 C 309.49 243.59 310.73 235.15 310.89 227.00 C 310.97 222.16 308.43 217.77 308.18 212.97 C 308.12 210.76 308.28 208.57 308.51 206.38 C 306.30 206.09 303.33 204.31 301.57 206.47 Z" />
</g>
<g id="#baa987ff">
<path fill="#baa987" opacity="1.00" d=" M 376.82 198.33 C 378.04 196.74 379.47 194.70 381.80 195.38 C 384.85 195.47 386.41 198.28 387.15 200.86 C 383.61 200.45 380.17 199.51 376.82 198.33 Z" />
<path fill="#baa987" opacity="1.00" d=" M 905.47 463.57 C 910.15 460.66 913.60 456.29 917.49 452.48 L 918.08 451.90 C 913.64 462.10 902.79 467.71 892.60 470.58 C 884.76 471.34 876.88 472.53 868.99 471.93 C 860.92 470.90 852.74 471.10 844.76 469.33 C 832.43 468.61 820.35 465.74 808.02 465.06 C 801.39 465.20 794.96 463.50 788.45 462.57 C 782.43 461.59 776.23 461.14 770.50 458.90 L 771.61 458.66 C 783.11 460.10 794.46 462.70 806.03 463.63 C 830.73 465.42 855.13 471.28 880.01 470.42 C 888.89 470.40 897.92 468.38 905.47 463.57 Z" />
</g>
<g id="#a5853fff">
<path fill="#a5853f" opacity="1.00" d=" M 423.95 194.87 C 427.02 196.51 430.21 197.94 433.05 199.98 C 437.87 203.36 441.10 209.09 441.19 215.01 C 441.30 218.06 438.37 219.69 436.35 221.40 C 436.36 220.56 436.38 218.88 436.39 218.03 C 437.55 212.46 434.89 206.91 430.16 203.88 C 425.22 199.31 418.23 199.39 411.94 199.90 C 415.98 198.30 420.25 197.22 423.95 194.87 Z" />
</g>
<g id="#605032ff">
<path fill="#605032" opacity="1.00" d=" M 365.97 201.30 C 366.98 199.35 368.28 197.56 369.77 195.94 C 368.99 198.29 368.22 200.65 367.46 203.01 C 370.16 205.27 372.83 207.57 375.34 210.05 C 369.80 212.80 363.49 209.05 361.28 203.78 C 360.65 201.51 361.24 199.14 361.51 196.86 C 361.78 199.11 362.18 201.35 362.57 203.58 C 363.39 203.64 364.21 203.70 365.04 203.76 C 365.27 203.15 365.74 201.91 365.97 201.30 Z" />
</g>
<g id="#50350aff">
<path fill="#50350a" opacity="1.00" d=" M 407.93 204.74 C 410.73 202.99 413.76 201.41 417.09 201.01 C 421.61 200.74 425.96 202.43 430.16 203.88 C 434.89 206.91 437.55 212.46 436.39 218.03 C 435.47 219.36 434.50 220.65 433.53 221.94 C 433.92 222.38 434.70 223.25 435.09 223.69 C 436.47 223.61 437.86 223.53 439.25 223.46 C 437.49 225.47 435.07 226.58 432.51 227.18 C 432.18 225.56 431.88 223.94 431.59 222.33 C 429.84 222.26 428.11 221.91 426.36 221.90 C 428.31 220.66 431.26 219.72 431.18 216.91 C 431.47 210.33 425.17 205.26 419.13 204.34 C 416.58 204.09 416.19 207.28 415.11 208.90 C 415.00 207.36 414.85 205.82 414.70 204.28 C 412.44 204.44 410.19 204.58 407.93 204.74 Z" />
</g>
<g id="#867049ff">
<path fill="#867049" opacity="1.00" d=" M 415.11 208.90 C 416.19 207.28 416.58 204.09 419.13 204.34 C 425.17 205.26 431.47 210.33 431.18 216.91 C 431.26 219.72 428.31 220.66 426.36 221.90 C 425.53 219.31 425.22 216.50 423.81 214.15 C 421.33 211.80 418.05 210.57 415.11 208.90 M 418.26 205.88 C 418.25 206.61 418.21 208.06 418.20 208.79 C 420.44 210.15 422.92 211.28 424.69 213.27 C 425.90 214.92 426.53 216.91 427.34 218.78 C 427.93 218.69 429.13 218.52 429.72 218.44 C 429.49 215.92 429.70 213.09 427.97 211.02 C 425.68 207.93 421.99 206.36 418.26 205.88 Z" />
</g>
<g id="#f1cc88ff">
<path fill="#f1cc88" opacity="1.00" d=" M 301.57 206.47 C 303.33 204.31 306.30 206.09 308.51 206.38 C 308.28 208.57 308.12 210.76 308.18 212.97 C 308.43 217.77 310.97 222.16 310.89 227.00 C 310.73 235.15 309.49 243.59 304.93 250.53 C 301.04 246.37 300.13 240.56 298.50 235.31 C 297.06 230.66 297.75 225.76 297.93 220.99 C 298.15 216.00 298.77 210.74 301.57 206.47 Z" />
</g>
<g id="#dac293ff">
<path fill="#dac293" opacity="1.00" d=" M 418.26 205.88 C 421.99 206.36 425.68 207.93 427.97 211.02 C 429.70 213.09 429.49 215.92 429.72 218.44 C 429.13 218.52 427.93 218.69 427.34 218.78 C 426.53 216.91 425.90 214.92 424.69 213.27 C 422.92 211.28 420.44 210.15 418.20 208.79 C 418.21 208.06 418.25 206.61 418.26 205.88 Z" />
</g>
<g id="#947836ff">
<path fill="#947836" opacity="1.00" d=" M 393.62 233.44 C 394.65 226.14 395.80 218.85 396.87 211.55 C 397.51 213.20 398.24 214.82 398.89 216.47 C 398.58 221.23 397.79 225.93 397.56 230.69 C 397.25 236.37 399.24 241.94 398.57 247.62 C 397.16 248.03 395.43 247.66 394.82 246.19 C 392.89 242.25 393.12 237.68 393.62 233.44 Z" />
</g>
<g id="#7b5c1eff">
<path fill="#7b5c1e" opacity="1.00" d=" M 150.03 215.49 C 154.09 214.09 156.85 218.10 159.80 220.11 C 170.35 229.64 181.94 237.90 192.51 247.40 C 202.57 255.47 213.05 263.13 222.26 272.18 C 219.28 274.08 215.89 276.10 212.21 275.20 C 211.40 275.10 209.80 274.92 208.99 274.82 C 210.86 273.57 212.74 272.34 214.63 271.13 C 214.36 270.92 213.83 270.50 213.56 270.29 C 209.35 266.52 205.14 262.75 200.56 259.44 C 193.46 254.23 187.12 248.06 179.92 242.98 C 170.98 234.82 161.79 226.85 151.85 219.93 C 150.86 220.79 149.86 221.64 148.88 222.52 C 146.21 224.99 143.98 227.86 141.76 230.72 C 141.14 231.45 140.54 232.19 139.94 232.94 C 135.20 237.91 131.11 243.44 126.65 248.65 C 121.11 254.11 115.81 259.80 110.16 265.16 C 108.18 267.32 105.55 269.61 105.61 272.80 C 107.40 274.71 110.00 275.50 112.35 276.50 C 107.70 278.03 103.20 275.45 98.82 274.21 C 101.30 270.86 103.66 267.43 106.06 264.02 C 120.47 247.62 135.33 231.63 150.03 215.49 Z" />
</g>
<g id="#b47f1cff">
<path fill="#b47f1c" opacity="1.00" d=" M 148.88 222.52 C 149.86 221.64 150.86 220.79 151.85 219.93 C 161.79 226.85 170.98 234.82 179.92 242.98 C 182.26 246.61 185.15 249.83 188.56 252.48 C 191.47 254.73 192.42 258.50 194.81 261.17 C 198.36 263.46 202.48 264.65 206.24 266.54 C 204.10 269.42 202.01 272.35 200.12 275.40 C 194.78 277.25 189.80 280.14 184.18 281.13 C 178.43 282.16 172.84 283.84 167.16 285.18 C 156.78 287.25 146.43 284.32 136.33 282.20 C 138.54 271.79 138.54 260.99 141.85 250.81 C 144.27 241.27 147.96 232.17 151.85 223.16 C 151.11 223.00 149.62 222.68 148.88 222.52 Z" />
</g>
<g id="#cba75bff">
<path fill="#cba75b" opacity="1.00" d=" M 141.76 230.72 C 143.98 227.86 146.21 224.99 148.88 222.52 C 149.62 222.68 151.11 223.00 151.85 223.16 C 147.96 232.17 144.27 241.27 141.85 250.81 C 138.54 260.99 138.54 271.79 136.33 282.20 C 128.22 282.79 120.84 278.94 113.24 276.80 C 114.60 270.18 119.02 264.89 122.05 259.01 C 123.87 255.69 125.14 252.11 126.65 248.65 C 131.11 243.44 135.20 237.91 139.94 232.94 C 137.09 239.15 132.27 244.10 128.98 250.05 C 125.79 255.56 123.20 261.40 119.76 266.77 C 118.09 269.45 116.21 272.05 115.04 275.00 C 120.50 279.40 127.95 280.00 134.61 281.35 C 136.16 270.35 137.28 259.22 140.52 248.55 C 142.62 240.94 145.78 233.68 148.19 226.18 C 146.02 227.65 143.82 229.09 141.76 230.72 Z" />
</g>
<g id="#f2cf8dff">
<path fill="#f2cf8d" opacity="1.00" d=" M 141.76 230.72 C 143.82 229.09 146.02 227.65 148.19 226.18 C 145.78 233.68 142.62 240.94 140.52 248.55 C 137.28 259.22 136.16 270.35 134.61 281.35 C 127.95 280.00 120.50 279.40 115.04 275.00 C 116.21 272.05 118.09 269.45 119.76 266.77 C 123.20 261.40 125.79 255.56 128.98 250.05 C 132.27 244.10 137.09 239.15 139.94 232.94 C 140.54 232.19 141.14 231.45 141.76 230.72 Z" />
</g>
<g id="#ae842eff">
<path fill="#ae842e" opacity="1.00" d=" M 179.92 242.98 C 187.12 248.06 193.46 254.23 200.56 259.44 C 205.14 262.75 209.35 266.52 213.56 270.29 C 209.29 272.52 204.79 274.22 200.12 275.40 C 202.01 272.35 204.10 269.42 206.24 266.54 C 202.48 264.65 198.36 263.46 194.81 261.17 C 192.42 258.50 191.47 254.73 188.56 252.48 C 185.15 249.83 182.26 246.61 179.92 242.98 Z" />
</g>
<g id="#b28126ff">
<path fill="#b28126" opacity="1.00" d=" M 110.16 265.16 C 115.81 259.80 121.11 254.11 126.65 248.65 C 125.14 252.11 123.87 255.69 122.05 259.01 C 119.02 264.89 114.60 270.18 113.24 276.80 C 113.02 276.73 112.57 276.58 112.35 276.50 C 110.00 275.50 107.40 274.71 105.61 272.80 C 105.55 269.61 108.18 267.32 110.16 265.16 Z" />
</g>
<g id="#75613aff">
<path fill="#75613a" opacity="1.00" d=" M 384.98 250.88 C 390.25 251.89 394.05 255.82 398.39 258.62 C 403.91 262.15 409.56 265.65 415.99 267.23 C 418.62 267.68 420.22 269.82 421.44 272.00 C 416.85 273.74 412.26 271.49 408.04 269.84 C 403.55 268.02 399.65 265.09 395.98 262.00 C 392.00 258.62 387.50 255.59 384.98 250.88 Z" />
</g>
<g id="#827252ff">
<path fill="#827252" opacity="1.00" d=" M 380.61 254.83 C 382.35 255.89 384.20 256.79 385.79 258.07 C 384.41 258.05 383.04 258.02 381.67 257.99 C 381.47 270.37 383.33 282.67 383.99 295.01 C 384.12 300.92 389.40 304.69 394.61 306.12 C 394.44 307.18 394.14 308.25 394.20 309.35 C 395.00 311.08 396.88 311.94 398.27 313.15 C 398.43 311.72 398.59 310.29 398.75 308.86 C 400.00 313.66 403.23 317.69 407.79 319.73 C 410.39 311.31 411.10 302.50 412.85 293.90 C 413.92 288.61 415.23 283.09 413.56 277.77 L 414.16 278.10 C 416.32 279.56 415.70 282.42 415.61 284.63 C 414.18 295.77 411.61 306.73 409.87 317.82 C 411.59 319.78 413.28 321.77 414.91 323.81 C 412.08 322.46 408.90 322.66 405.87 322.91 C 402.77 320.47 399.54 318.09 397.13 314.93 C 392.92 309.38 386.27 306.47 381.50 301.54 C 379.75 296.12 381.48 289.93 378.19 285.00 C 377.99 284.62 377.61 283.87 377.41 283.49 C 378.76 283.98 380.11 284.47 381.47 284.97 C 380.96 274.94 379.49 264.88 380.61 254.83 Z" />
</g>
<g id="#635127ff">
<path fill="#635127" opacity="1.00" d=" M 259.33 258.36 C 262.06 258.44 263.38 261.41 265.11 263.13 C 263.25 263.06 260.71 264.49 259.44 262.56 C 258.67 261.36 257.44 259.14 259.33 258.36 Z" />
</g>
<g id="#3f2f0eff">
<path fill="#3f2f0e" opacity="1.00" d=" M 302.90 259.53 C 304.66 259.03 306.41 258.50 308.15 257.91 C 314.00 264.90 314.05 274.34 316.06 282.79 C 317.40 288.47 318.04 294.37 320.24 299.82 C 322.42 304.90 328.14 306.80 333.09 308.04 C 342.49 310.23 352.51 311.70 360.49 317.57 C 371.67 326.06 378.32 339.18 389.80 347.33 C 394.36 351.06 398.23 355.60 403.19 358.85 C 408.78 362.53 413.98 366.84 419.87 370.06 C 425.53 372.50 430.90 375.66 435.18 380.16 C 437.65 382.36 439.56 385.09 440.93 388.09 C 443.29 393.31 447.74 397.09 451.17 401.57 C 457.60 406.42 465.64 409.98 469.32 417.63 C 470.37 420.09 472.05 423.79 469.60 425.90 C 467.44 426.85 465.11 425.90 463.38 424.56 C 459.81 421.85 456.80 418.50 453.82 415.19 C 448.55 409.30 445.29 401.92 439.85 396.15 C 432.40 388.11 423.71 381.16 414.16 375.76 C 407.94 372.25 400.76 370.96 394.51 367.56 C 389.95 364.16 386.53 359.49 382.46 355.56 C 377.43 350.47 373.89 344.18 369.30 338.72 C 363.38 331.38 359.24 321.77 350.10 317.78 C 346.41 315.77 342.14 316.59 338.47 318.18 C 337.66 317.90 336.86 317.61 336.07 317.31 C 335.43 315.54 334.80 313.75 333.88 312.11 C 329.32 310.61 324.22 312.09 319.77 310.16 C 317.61 308.34 317.12 305.36 316.51 302.76 C 315.08 294.87 313.70 286.96 312.02 279.12 C 310.68 271.83 304.47 266.75 302.90 259.53 Z" />
</g>
<g id="#ac9c7cff">
<path fill="#ac9c7c" opacity="1.00" d=" M 381.67 257.99 C 383.04 258.02 384.41 258.05 385.79 258.07 C 389.30 261.91 395.41 264.20 396.43 269.75 C 394.20 281.78 396.88 294.14 394.61 306.12 C 389.40 304.69 384.12 300.92 383.99 295.01 C 383.33 282.67 381.47 270.37 381.67 257.99 M 382.72 259.31 C 383.72 271.42 384.37 283.55 385.36 295.66 C 385.54 299.92 389.48 302.37 392.43 304.79 C 393.83 299.97 393.22 294.93 393.37 290.00 C 393.48 283.98 393.55 277.97 393.53 271.95 C 393.39 270.19 393.68 268.12 392.29 266.77 C 389.60 263.71 386.25 261.29 382.72 259.31 Z" />
</g>
<g id="#fbefcdff">
<path fill="#fbefcd" opacity="1.00" d=" M 382.72 259.31 C 386.25 261.29 389.60 263.71 392.29 266.77 C 393.68 268.12 393.39 270.19 393.53 271.95 C 393.55 277.97 393.48 283.98 393.37 290.00 C 393.22 294.93 393.83 299.97 392.43 304.79 C 389.48 302.37 385.54 299.92 385.36 295.66 C 384.37 283.55 383.72 271.42 382.72 259.31 Z" />
</g>
<g id="#8d7045ff">
<path fill="#8d7045" opacity="1.00" d=" M 96.82 274.69 C 99.10 270.53 102.67 267.26 106.06 264.02 C 103.66 267.43 101.30 270.86 98.82 274.21 C 103.20 275.45 107.70 278.03 112.35 276.50 C 112.57 276.58 113.02 276.73 113.24 276.80 C 120.84 278.94 128.22 282.79 136.33 282.20 C 135.61 283.53 134.89 284.85 134.18 286.19 C 129.08 286.27 124.68 283.39 119.89 282.10 C 112.33 279.20 104.00 278.58 96.82 274.69 Z" />
</g>
<g id="#f1d196ff">
<path fill="#f1d196" opacity="1.00" d=" M 263.22 264.80 C 265.28 265.58 267.34 266.48 269.04 267.91 C 276.59 273.94 285.02 279.51 290.03 288.00 C 292.93 293.62 294.65 300.52 292.37 306.64 C 286.73 301.59 281.29 296.27 276.55 290.35 C 271.01 282.50 265.08 274.44 263.22 264.80 Z" />
</g>
<g id="#8e6a28ff">
<path fill="#8e6a28" opacity="1.00" d=" M 213.56 270.29 C 213.83 270.50 214.36 270.92 214.63 271.13 C 212.74 272.34 210.86 273.57 208.99 274.82 C 209.80 274.92 211.40 275.10 212.21 275.20 C 196.76 282.21 180.42 287.51 163.53 289.56 C 163.02 289.52 161.99 289.43 161.47 289.39 C 152.20 289.24 143.07 287.48 133.84 286.81 L 134.18 286.19 C 134.89 284.85 135.61 283.53 136.33 282.20 C 146.43 284.32 156.78 287.25 167.16 285.18 C 172.84 283.84 178.43 282.16 184.18 281.13 C 189.80 280.14 194.78 277.25 200.12 275.40 C 204.79 274.22 209.29 272.52 213.56 270.29 Z" />
</g>
<g id="#52411fff">
<path fill="#52411f" opacity="1.00" d=" M 394.61 306.12 C 396.88 294.14 394.20 281.78 396.43 269.75 C 396.64 270.95 396.85 272.15 397.06 273.36 C 398.84 272.51 400.56 270.66 402.69 271.27 C 407.02 272.51 410.74 275.26 414.16 278.10 L 413.56 277.77 C 409.06 275.66 404.58 273.22 399.56 272.69 C 398.97 284.74 399.89 296.83 398.75 308.86 C 398.59 310.29 398.43 311.72 398.27 313.15 C 396.88 311.94 395.00 311.08 394.20 309.35 C 394.14 308.25 394.44 307.18 394.61 306.12 Z" />
</g>
<g id="#ad9c79ff">
<path fill="#ad9c79" opacity="1.00" d=" M 399.56 272.69 C 404.58 273.22 409.06 275.66 413.56 277.77 C 415.23 283.09 413.92 288.61 412.85 293.90 C 411.10 302.50 410.39 311.31 407.79 319.73 C 403.23 317.69 400.00 313.66 398.75 308.86 C 399.89 296.83 398.97 284.74 399.56 272.69 M 401.91 273.95 C 400.84 281.25 401.59 288.65 401.31 296.00 C 401.34 300.99 400.24 305.98 400.87 310.96 C 401.46 314.25 404.47 316.14 407.01 317.89 C 409.18 309.92 409.83 301.66 411.45 293.58 C 412.08 289.29 413.72 285.03 413.35 280.65 C 409.89 277.87 405.80 276.02 401.91 273.95 Z" />
</g>
<g id="#8a7a5aff">
<path fill="#8a7a5a" opacity="1.00" d=" M 83.82 288.74 C 86.78 283.69 91.83 279.22 97.99 279.22 C 102.25 279.43 106.26 281.13 110.15 282.76 C 104.29 282.11 98.15 280.56 92.35 282.33 C 86.98 284.61 84.51 290.40 82.38 295.43 C 74.92 313.72 74.35 333.78 74.51 353.25 C 74.67 363.17 74.52 373.10 75.10 383.00 C 75.67 395.47 75.03 407.97 74.12 420.40 C 72.38 439.76 65.88 459.77 51.49 473.47 C 41.97 482.62 32.53 491.85 23.04 501.04 C 20.50 503.43 18.37 506.23 16.72 509.32 C 23.59 508.53 29.11 504.09 35.14 501.13 C 41.19 498.09 47.37 494.82 54.17 493.93 C 57.37 493.29 60.96 495.66 60.83 499.11 C 61.08 506.62 54.94 512.24 53.62 519.41 C 59.92 517.89 64.86 513.54 70.20 510.13 C 78.02 504.82 86.06 499.84 94.30 495.21 C 97.99 493.37 101.99 490.51 106.31 491.61 C 109.08 492.15 108.49 495.75 108.13 497.82 C 105.38 508.32 97.37 517.69 99.22 529.12 C 102.34 528.70 105.61 528.16 108.12 526.10 C 117.13 519.11 124.25 510.00 130.42 500.49 C 133.25 496.36 136.25 491.69 141.24 490.00 C 145.32 488.68 149.54 490.76 152.70 493.27 C 159.07 498.42 163.88 505.29 167.34 512.66 C 169.42 517.16 171.64 521.87 171.49 526.95 C 171.39 533.66 170.41 540.66 173.02 547.06 C 176.06 554.34 181.86 560.80 189.41 563.48 C 192.40 564.46 195.82 565.16 198.83 563.90 C 201.13 563.04 200.74 560.03 200.74 558.05 C 199.62 548.92 191.93 540.96 194.22 531.37 C 195.47 526.95 200.88 526.74 204.38 528.37 C 216.07 533.19 225.46 541.97 235.24 549.74 C 241.00 554.21 246.46 560.38 254.33 560.47 C 253.95 555.82 252.90 551.23 250.90 547.01 C 245.57 535.62 239.94 524.36 235.10 512.76 C 233.89 509.57 232.50 506.05 233.54 502.63 C 235.23 500.14 238.46 501.26 240.66 502.30 C 246.18 504.95 251.21 508.50 256.61 511.40 C 274.36 521.28 292.44 530.62 310.98 538.97 C 315.92 541.35 321.18 543.04 326.58 544.02 C 326.56 541.46 325.82 538.91 323.77 537.24 C 310.91 524.93 297.07 513.61 282.24 503.74 C 270.68 495.42 257.93 488.36 248.40 477.57 C 238.25 465.86 232.81 450.46 232.47 435.03 C 230.84 419.06 231.45 403.00 231.45 386.98 C 231.47 379.30 232.51 371.67 232.40 364.00 C 232.26 353.26 232.93 342.48 231.58 331.80 C 230.62 324.00 230.49 316.09 228.92 308.37 C 227.44 300.97 225.87 293.58 223.68 286.36 C 222.98 284.53 222.45 282.29 220.63 281.26 C 215.67 280.85 210.75 282.09 205.88 282.92 C 210.83 280.44 216.33 279.18 221.86 279.05 C 222.65 280.26 223.50 281.45 224.13 282.76 C 230.50 298.71 232.20 315.98 233.77 332.94 C 234.03 357.77 233.93 382.62 233.42 407.44 C 234.07 426.56 232.74 446.79 241.49 464.44 C 247.07 476.87 258.03 485.59 269.11 492.93 C 279.74 500.66 291.11 507.35 301.23 515.78 C 309.96 522.64 318.43 529.87 326.15 537.87 C 327.83 539.43 328.49 541.66 329.21 543.77 C 327.84 544.40 326.51 545.17 325.04 545.54 C 316.37 543.43 308.23 539.66 300.30 535.66 C 279.59 526.30 259.94 514.82 240.10 503.82 C 238.01 502.09 234.20 502.74 234.73 506.04 C 236.26 513.12 239.81 519.59 242.69 526.19 C 246.47 535.26 251.92 543.59 254.89 553.00 C 255.72 555.91 256.96 559.96 253.56 561.72 C 249.55 562.67 246.30 559.71 243.13 557.80 C 229.19 548.03 217.60 534.04 200.79 529.03 C 197.85 528.02 195.40 531.30 195.21 533.92 C 195.60 541.68 199.62 548.53 202.24 555.67 C 203.34 558.46 202.59 561.63 201.14 564.14 C 199.14 565.59 196.62 566.57 194.14 566.56 C 182.68 564.48 173.32 554.87 170.28 543.81 C 167.61 535.46 170.85 526.51 167.90 518.20 C 164.51 509.13 159.45 500.29 151.67 494.29 C 147.76 491.26 141.70 490.41 137.68 493.66 C 133.78 496.93 131.63 501.68 128.69 505.74 C 121.99 515.17 114.36 524.42 104.10 530.11 C 101.76 531.72 98.02 530.45 97.44 527.61 C 95.86 521.77 99.17 516.37 101.23 511.15 C 102.93 506.29 105.42 501.73 106.97 496.82 C 107.57 495.25 106.80 492.78 104.87 492.83 C 102.18 492.81 99.78 494.30 97.35 495.29 C 83.60 502.45 70.99 511.56 57.92 519.86 C 56.18 521.01 54.00 520.75 52.02 520.96 C 51.87 512.70 60.13 506.64 59.15 498.15 C 58.79 495.22 55.25 495.52 53.08 495.82 C 42.30 498.13 32.87 504.06 23.30 509.24 C 20.96 510.44 17.23 512.18 15.26 509.58 C 15.12 508.40 15.43 507.20 16.33 506.39 C 19.39 503.10 22.20 499.56 25.65 496.65 C 34.81 488.16 43.46 479.13 52.42 470.43 C 57.45 465.82 60.64 459.68 63.80 453.74 C 67.63 446.62 68.87 438.54 70.81 430.79 C 73.25 414.31 73.49 397.63 73.16 381.01 C 73.52 371.64 71.86 362.37 72.29 353.00 C 71.83 344.02 72.96 335.10 73.41 326.14 C 74.75 313.23 77.44 300.18 83.82 288.74 Z" />
</g>
<g id="#4c3509ff">
<path fill="#4c3509" opacity="1.00" d=" M 584.46 281.24 C 589.86 280.80 593.97 285.26 596.28 289.64 C 599.64 296.14 598.52 303.81 596.53 310.54 C 594.75 316.68 589.91 321.13 585.81 325.78 C 583.24 328.56 581.01 331.66 578.24 334.25 C 576.27 336.14 573.41 336.41 570.89 337.04 C 580.67 326.80 592.89 316.72 594.70 301.71 C 596.45 293.45 588.89 284.39 580.26 286.04 C 572.61 287.93 566.05 293.31 561.87 299.90 C 561.66 300.18 561.24 300.75 561.03 301.03 C 556.39 306.10 551.87 311.29 546.92 316.06 C 549.67 310.10 552.25 303.69 557.53 299.47 C 561.43 296.52 561.89 290.79 566.23 288.34 C 571.84 285.01 577.59 280.85 584.46 281.24 Z" />
</g>
<g id="#7e5e22ff">
<path fill="#7e5e22" opacity="1.00" d=" M 561.87 299.90 C 566.05 293.31 572.61 287.93 580.26 286.04 C 588.89 284.39 596.45 293.45 594.70 301.71 C 592.89 316.72 580.67 326.80 570.89 337.04 C 565.41 342.17 559.52 346.97 552.89 350.55 C 550.89 351.41 548.83 352.12 546.82 352.95 C 549.52 350.93 552.14 348.78 555.02 347.02 C 563.18 342.26 569.97 335.46 576.03 328.28 C 583.85 323.12 588.94 314.81 592.08 306.15 C 593.94 300.95 593.74 294.49 589.60 290.41 C 585.96 286.51 579.80 287.06 575.54 289.56 C 570.60 292.47 566.43 296.47 561.87 299.90 Z" />
</g>
<g id="#695132ff">
<path fill="#695132" opacity="1.00" d=" M 532.90 295.96 C 535.02 292.16 537.78 288.35 541.99 286.72 C 544.99 289.81 540.44 294.02 537.84 295.97 C 538.18 294.62 538.48 293.26 538.78 291.90 C 536.78 293.19 534.79 294.50 532.90 295.96 Z" />
</g>
<g id="#a88234ff">
<path fill="#a88234" opacity="1.00" d=" M 575.54 289.56 C 579.80 287.06 585.96 286.51 589.60 290.41 C 593.74 294.49 593.94 300.95 592.08 306.15 C 588.94 314.81 583.85 323.12 576.03 328.28 C 578.00 321.74 584.51 318.21 587.03 311.97 C 589.38 306.82 591.23 300.20 587.99 295.04 C 584.62 292.31 579.39 290.75 575.49 293.36 C 569.74 296.82 565.24 302.00 561.56 307.55 C 558.32 312.55 553.36 316.02 549.61 320.58 C 547.76 322.89 545.27 324.49 542.74 325.95 C 545.69 320.70 549.28 315.83 553.61 311.63 C 556.76 308.61 559.12 304.93 561.03 301.03 C 561.24 300.75 561.66 300.18 561.87 299.90 C 566.43 296.47 570.60 292.47 575.54 289.56 Z" />
</g>
<g id="#b4811cff">
<path fill="#b4811c" opacity="1.00" d=" M 575.49 293.36 C 579.39 290.75 584.62 292.31 587.99 295.04 C 591.23 300.20 589.38 306.82 587.03 311.97 C 584.51 318.21 578.00 321.74 576.03 328.28 C 569.97 335.46 563.18 342.26 555.02 347.02 C 550.99 347.75 546.35 347.25 543.02 350.07 C 538.12 354.35 531.53 356.54 527.83 362.16 C 512.03 371.34 495.31 378.81 478.97 386.96 C 470.58 390.45 462.04 393.95 453.11 395.74 C 450.76 394.72 447.65 393.95 446.78 391.20 C 444.62 385.20 447.53 378.18 452.75 374.78 C 456.28 372.76 460.51 372.68 464.23 371.13 C 465.99 370.26 467.00 368.44 468.23 366.99 C 477.79 363.93 487.40 360.85 496.50 356.57 C 501.47 354.38 506.85 353.21 511.67 350.64 C 517.00 347.81 522.06 344.47 526.89 340.84 C 532.72 336.48 537.20 330.65 542.74 325.95 C 545.27 324.49 547.76 322.89 549.61 320.58 C 553.36 316.02 558.32 312.55 561.56 307.55 C 565.24 302.00 569.74 296.82 575.49 293.36 Z" />
</g>
<g id="#a28d6bff">
<path fill="#a28d6b" opacity="1.00" d=" M 532.90 295.96 C 534.79 294.50 536.78 293.19 538.78 291.90 C 538.48 293.26 538.18 294.62 537.84 295.97 C 534.06 302.25 528.86 307.55 523.71 312.71 C 518.80 317.71 512.63 321.12 506.56 324.47 C 490.21 333.26 471.14 336.54 452.76 334.12 C 440.48 332.12 429.69 325.31 419.87 318.00 C 419.71 316.70 419.55 315.41 419.39 314.12 C 420.57 314.15 421.75 314.21 422.94 314.28 C 425.07 314.90 426.94 316.16 428.90 317.18 C 434.03 320.10 439.68 321.86 445.16 323.97 C 453.32 327.12 462.23 329.15 470.99 327.76 C 485.40 325.86 499.50 321.31 512.16 314.14 C 520.20 309.46 526.29 302.33 532.90 295.96 M 521.79 308.78 C 516.25 314.01 509.48 317.68 502.56 320.73 C 491.54 325.25 480.00 329.05 468.00 329.51 C 455.29 330.17 443.11 325.57 431.83 320.22 C 429.01 318.80 425.98 317.84 422.90 317.18 C 425.28 319.77 427.95 322.13 431.04 323.86 C 440.01 328.85 449.79 332.82 460.15 333.46 C 476.35 334.45 492.30 329.62 506.76 322.67 C 516.25 317.49 526.36 311.17 530.91 300.93 C 527.53 303.14 524.69 306.01 521.79 308.78 Z" />
</g>
<g id="#e6d097ff">
<path fill="#e6d097" opacity="1.00" d=" M 521.79 308.78 C 524.69 306.01 527.53 303.14 530.91 300.93 C 526.36 311.17 516.25 317.49 506.76 322.67 C 492.30 329.62 476.35 334.45 460.15 333.46 C 449.79 332.82 440.01 328.85 431.04 323.86 C 427.95 322.13 425.28 319.77 422.90 317.18 C 425.98 317.84 429.01 318.80 431.83 320.22 C 443.11 325.57 455.29 330.17 468.00 329.51 C 480.00 329.05 491.54 325.25 502.56 320.73 C 509.48 317.68 516.25 314.01 521.79 308.78 Z" />
</g>
<g id="#79571bff">
<path fill="#79571b" opacity="1.00" d=" M 546.92 316.06 C 551.87 311.29 556.39 306.10 561.03 301.03 C 559.12 304.93 556.76 308.61 553.61 311.63 C 549.28 315.83 545.69 320.70 542.74 325.95 C 537.20 330.65 532.72 336.48 526.89 340.84 C 522.06 344.47 517.00 347.81 511.67 350.64 C 506.85 353.21 501.47 354.38 496.50 356.57 C 487.40 360.85 477.79 363.93 468.23 366.99 C 458.56 369.19 447.93 372.70 442.75 381.89 C 440.10 385.49 442.95 389.84 445.24 392.79 C 447.03 395.30 450.25 395.75 453.11 395.74 C 462.04 393.95 470.58 390.45 478.97 386.96 C 495.31 378.81 512.03 371.34 527.83 362.16 C 532.93 359.74 538.03 357.35 543.22 355.14 C 537.25 360.31 529.78 363.13 523.08 367.16 C 504.26 376.53 485.95 387.08 466.07 394.10 C 466.80 394.90 467.54 395.70 468.30 396.49 C 462.47 396.60 456.63 396.98 450.91 398.17 C 450.99 399.30 451.08 400.43 451.17 401.57 C 447.74 397.09 443.29 393.31 440.93 388.09 C 439.56 385.09 437.65 382.36 435.18 380.16 C 436.73 380.46 438.71 381.58 439.99 380.09 C 442.77 377.68 443.70 373.96 444.28 370.48 C 445.10 371.49 445.85 372.57 446.62 373.64 C 451.38 371.36 456.05 368.87 460.96 366.92 C 471.65 362.63 483.23 360.87 493.54 355.62 C 500.80 352.56 508.48 350.44 515.19 346.17 C 525.32 340.76 533.35 332.42 541.10 324.11 C 543.33 321.65 545.17 318.88 546.92 316.06 Z" />
</g>
<g id="#3b2b0bff">
<path fill="#3b2b0b" opacity="1.00" d=" M 283.11 302.37 C 288.20 302.82 290.34 308.61 295.16 309.99 C 296.24 313.21 297.22 316.86 300.38 318.70 C 308.56 324.50 319.11 321.17 328.37 321.47 C 324.40 326.23 318.54 330.54 312.02 329.77 C 305.04 329.64 299.27 325.12 294.45 320.52 C 289.42 315.41 284.14 309.79 283.11 302.37 Z" />
</g>
<g id="#645132ff">
<path fill="#645132" opacity="1.00" d=" M 418.33 310.93 C 419.88 312.02 421.45 313.09 422.94 314.28 C 421.75 314.21 420.57 314.15 419.39 314.12 C 419.55 315.41 419.71 316.70 419.87 318.00 C 418.42 316.55 417.09 315.00 415.85 313.37 C 416.67 312.55 417.50 311.74 418.33 310.93 Z" />
</g>
<g id="#867654ff">
<path fill="#867654" opacity="1.00" d=" M 338.47 318.18 C 342.14 316.59 346.41 315.77 350.10 317.78 C 359.24 321.77 363.38 331.38 369.30 338.72 C 373.89 344.18 377.43 350.47 382.46 355.56 C 386.53 359.49 389.95 364.16 394.51 367.56 C 400.76 370.96 407.94 372.25 414.16 375.76 C 423.71 381.16 432.40 388.11 439.85 396.15 C 445.29 401.92 448.55 409.30 453.82 415.19 C 456.80 418.50 459.81 421.85 463.38 424.56 C 465.11 425.90 467.44 426.85 469.60 425.90 C 472.05 423.79 470.37 420.09 469.32 417.63 C 465.64 409.98 457.60 406.42 451.17 401.57 C 451.08 400.43 450.99 399.30 450.91 398.17 C 456.63 396.98 462.47 396.60 468.30 396.49 C 473.86 401.86 480.89 405.31 486.99 409.98 C 495.32 415.82 503.71 422.87 507.00 432.85 C 508.20 437.50 508.66 443.27 505.09 447.04 C 500.19 452.51 493.55 455.99 486.97 459.02 C 480.31 461.94 473.63 465.24 466.31 466.10 C 459.60 466.93 452.84 467.89 446.07 467.54 C 437.80 467.17 430.34 462.71 422.03 462.58 C 411.77 462.37 400.83 465.00 393.15 472.15 C 389.30 475.55 387.53 481.88 390.84 486.24 C 393.99 490.72 399.78 491.98 404.94 492.17 C 415.82 492.77 425.99 488.29 436.12 485.01 C 442.93 482.38 450.44 481.15 457.66 482.67 C 461.12 483.45 464.25 485.17 467.46 486.61 C 466.94 488.99 467.42 491.43 466.96 493.83 C 473.22 495.25 479.55 496.60 486.00 496.56 C 497.54 496.97 508.92 494.72 520.36 493.57 C 541.05 490.79 562.02 491.69 582.72 488.98 C 595.85 487.61 609.31 484.64 620.61 477.54 C 626.02 474.24 625.49 467.32 627.16 462.00 C 629.78 460.35 633.06 460.83 636.01 460.68 C 646.41 460.90 657.39 459.19 666.02 453.00 C 671.22 449.44 674.66 444.02 679.38 439.92 C 681.83 442.26 684.05 445.25 687.46 446.19 C 693.51 447.59 699.73 446.28 705.54 444.44 C 710.26 442.85 715.04 444.97 719.61 446.07 C 732.06 449.63 744.62 452.77 757.32 455.26 C 762.15 456.07 766.97 457.05 771.61 458.66 C 768.72 458.91 765.84 458.63 763.06 457.86 C 744.89 454.31 726.94 449.73 708.99 445.23 C 701.71 447.53 694.03 448.81 686.41 447.47 C 683.44 446.63 681.52 444.02 678.99 442.45 C 675.05 445.68 672.79 450.59 668.33 453.27 C 658.34 461.00 645.28 463.08 632.96 462.67 C 631.28 462.84 628.76 462.06 628.27 464.33 C 627.34 469.22 626.97 475.29 622.36 478.29 C 609.45 486.75 593.93 489.73 578.86 491.58 C 570.22 491.88 561.63 493.00 552.97 492.92 C 546.29 493.82 539.53 493.61 532.85 494.53 C 512.56 495.23 492.18 501.51 471.92 496.98 C 469.29 496.10 466.10 495.96 464.24 493.64 C 464.17 491.67 464.69 489.76 465.07 487.86 C 459.67 484.12 452.75 482.78 446.34 484.22 C 436.64 486.41 427.28 489.84 417.74 492.59 C 409.95 494.39 401.18 495.01 393.94 491.03 C 390.37 488.14 386.36 484.13 387.21 479.11 C 387.82 474.65 391.47 471.43 394.85 468.82 C 404.34 461.50 417.00 459.93 428.58 461.57 C 433.15 462.39 437.36 464.66 442.00 465.15 C 454.64 465.80 467.68 465.30 479.59 460.60 C 487.98 456.33 498.02 453.76 503.77 445.72 C 506.94 441.59 506.88 435.89 504.77 431.31 C 500.44 420.90 490.68 414.42 481.88 408.08 C 476.19 404.52 470.96 400.28 465.23 396.80 C 461.60 398.94 457.36 398.90 453.29 398.97 C 453.58 402.45 456.99 403.80 459.51 405.52 C 465.42 409.13 470.47 414.63 472.68 421.27 C 473.53 423.98 471.71 426.28 469.56 427.68 C 467.21 428.35 464.68 427.70 462.91 426.06 C 457.78 421.55 452.69 416.86 448.90 411.14 C 446.24 407.15 443.70 403.07 440.72 399.32 C 434.85 392.12 427.37 386.52 419.98 380.99 C 414.77 376.90 408.33 374.96 402.23 372.62 C 394.76 369.29 385.89 371.42 378.64 367.33 C 374.82 365.07 370.26 362.91 368.48 358.56 C 367.22 353.92 372.01 351.06 374.61 348.05 C 370.15 341.98 365.26 336.22 361.12 329.91 C 358.04 325.00 353.86 320.71 348.40 318.52 C 345.54 317.00 342.37 318.78 339.38 318.45 L 338.47 318.18 M 372.69 355.16 C 374.88 361.89 382.50 365.42 389.17 365.68 C 385.95 361.12 382.09 356.95 377.85 353.34 C 376.05 353.68 374.38 354.50 372.69 355.16 Z" />
</g>
<g id="#eed096ff">
<path fill="#eed096" opacity="1.00" d=" M 403.79 346.93 C 409.99 345.55 415.31 341.90 421.32 340.02 C 424.18 345.51 427.93 350.45 431.11 355.75 C 424.58 357.54 418.04 359.32 411.98 362.40 C 409.27 361.64 407.10 359.74 404.87 358.13 C 401.50 355.46 397.80 353.14 394.87 349.97 C 397.22 347.72 400.85 347.99 403.79 346.93 Z" />
</g>
<g id="#a78135ff">
<path fill="#a78135" opacity="1.00" d=" M 543.02 350.07 C 546.35 347.25 550.99 347.75 555.02 347.02 C 552.14 348.78 549.52 350.93 546.82 352.95 C 545.62 353.67 544.41 354.40 543.22 355.14 C 538.03 357.35 532.93 359.74 527.83 362.16 C 531.53 356.54 538.12 354.35 543.02 350.07 Z" />
</g>
<g id="#4c340aff">
<path fill="#4c340a" opacity="1.00" d=" M 546.82 352.95 C 548.83 352.12 550.89 351.41 552.89 350.55 C 553.27 352.72 555.93 356.43 552.89 357.70 C 548.45 359.68 543.77 361.12 539.54 363.55 C 534.54 366.44 528.63 366.38 523.08 367.16 C 529.78 363.13 537.25 360.31 543.22 355.14 C 544.41 354.40 545.62 353.67 546.82 352.95 Z" />
</g>
<g id="#edd9aeff">
<path fill="#edd9ae" opacity="1.00" d=" M 372.69 355.16 C 374.38 354.50 376.05 353.68 377.85 353.34 C 382.09 356.95 385.95 361.12 389.17 365.68 C 382.50 365.42 374.88 361.89 372.69 355.16 Z" />
</g>
<g id="#ad9b78ff">
<path fill="#ad9b78" opacity="1.00" d=" M 416.56 365.10 C 421.58 360.88 428.58 360.51 434.66 358.71 C 434.87 358.98 435.29 359.52 435.50 359.79 C 429.22 361.45 422.62 362.50 416.93 365.82 C 424.02 370.66 432.12 374.10 438.11 380.44 C 439.84 377.96 441.56 375.49 443.32 373.04 C 442.63 371.22 441.95 369.40 441.26 367.59 L 441.97 368.25 C 442.74 368.98 443.51 369.72 444.28 370.48 C 443.70 373.96 442.77 377.68 439.99 380.09 C 438.71 381.58 436.73 380.46 435.18 380.16 C 430.90 375.66 425.53 372.50 419.87 370.06 C 418.45 368.64 417.22 367.00 416.56 365.10 Z" />
</g>
<g id="#a78434ff">
<path fill="#a78434" opacity="1.00" d=" M 442.75 381.89 C 447.93 372.70 458.56 369.19 468.23 366.99 C 467.00 368.44 465.99 370.26 464.23 371.13 C 460.51 372.68 456.28 372.76 452.75 374.78 C 447.53 378.18 444.62 385.20 446.78 391.20 C 447.65 393.95 450.76 394.72 453.11 395.74 C 450.25 395.75 447.03 395.30 445.24 392.79 C 442.95 389.84 440.10 385.49 442.75 381.89 Z" />
</g>
<g id="#786848ff">
<path fill="#786848" opacity="1.00" d=" M 633.50 418.16 C 633.81 416.06 632.72 412.94 635.11 411.80 C 637.05 411.03 638.98 413.07 638.61 414.99 C 638.12 420.13 636.24 425.10 633.61 429.53 C 632.15 432.06 630.53 434.68 630.47 437.70 C 630.08 443.17 631.48 449.20 627.95 453.95 C 624.06 446.46 626.66 437.75 629.13 430.24 C 630.24 426.07 633.92 422.70 633.50 418.16 Z" />
</g>
<g id="#625331ff">
<path fill="#625331" opacity="1.00" d=" M 571.07 427.06 C 572.40 427.05 573.73 427.07 575.07 427.11 C 574.93 431.48 574.60 435.96 572.68 439.97 C 572.90 437.10 572.87 434.22 572.94 431.36 C 571.97 431.51 571.01 431.68 570.06 431.84 C 570.39 430.25 570.74 428.66 571.07 427.06 Z" />
</g>
<g id="#978767ff">
<path fill="#978767" opacity="1.00" d=" M 570.06 431.84 C 571.01 431.68 571.97 431.51 572.94 431.36 C 572.87 434.22 572.90 437.10 572.68 439.97 C 571.33 444.38 569.34 448.77 565.84 451.90 C 568.22 447.99 569.53 443.56 570.11 439.05 C 568.81 440.45 567.51 441.87 566.31 443.36 C 567.07 439.37 568.76 435.67 570.06 431.84 Z" />
</g>
<g id="#d0be94ff">
<path fill="#d0be94" opacity="1.00" d=" M 566.31 443.36 C 567.51 441.87 568.81 440.45 570.11 439.05 C 569.53 443.56 568.22 447.99 565.84 451.90 C 563.84 454.50 561.43 456.80 558.86 458.84 C 555.40 460.48 551.65 461.36 547.89 461.92 C 550.64 459.64 553.51 457.50 556.31 455.26 C 560.59 452.17 563.36 447.63 566.31 443.36 Z" />
</g>
<g id="#998969ff">
<path fill="#998969" opacity="1.00" d=" M 539.05 462.23 C 545.06 460.59 550.58 457.65 556.31 455.26 C 553.51 457.50 550.64 459.64 547.89 461.92 C 551.65 461.36 555.40 460.48 558.86 458.84 C 555.54 462.41 550.63 463.41 546.20 464.91 C 540.89 466.45 535.66 468.48 530.10 468.80 C 529.57 468.85 528.52 468.97 527.99 469.03 C 531.09 467.89 534.11 466.56 537.12 465.21 C 530.30 465.64 523.65 467.43 516.81 467.70 C 524.02 465.09 531.75 464.54 539.05 462.23 Z" />
</g>
<g id="#76633cff">
<path fill="#76633c" opacity="1.00" d=" M 503.28 474.41 C 511.59 472.99 519.85 471.25 527.99 469.03 C 528.52 468.97 529.57 468.85 530.10 468.80 C 526.61 471.65 522.00 471.92 517.79 472.87 C 506.71 475.39 495.29 476.59 484.53 480.38 C 482.72 480.97 480.89 481.49 479.07 482.01 C 486.32 477.35 494.98 476.03 503.28 474.41 Z" />
</g>
</svg>
