<?xml version="1.0" encoding="UTF-8" ?>
<!DOCTYPE svg PUBLIC "-//W3C//DTD SVG 1.1//EN" "http://www.w3.org/Graphics/SVG/1.1/DTD/svg11.dtd">
<svg width="501pt" height="380pt" viewBox="0 0 501 380" version="1.1" xmlns="http://www.w3.org/2000/svg">
<g id="#fdfef7ff">
</g>
<g id="#d2e0baff">
<path fill="#d2e0ba" opacity="1.00" d=" M 196.28 18.89 C 197.20 20.93 198.07 23.01 198.65 25.18 C 201.70 38.10 204.36 51.10 207.40 64.02 C 207.84 68.09 209.00 72.07 211.59 75.32 C 213.42 77.39 211.81 80.03 211.01 82.16 C 210.86 81.27 210.56 79.47 210.41 78.58 C 208.31 82.16 207.15 86.16 206.19 90.17 C 204.57 74.41 201.00 58.96 198.73 43.29 C 197.41 35.22 195.86 27.11 196.28 18.89 Z" />
<path fill="#d2e0ba" opacity="1.00" d=" M 244.77 28.47 C 244.99 26.70 246.43 25.71 247.81 24.83 C 248.96 34.53 244.86 43.73 243.46 53.17 C 240.55 73.53 235.74 93.64 234.70 114.24 C 234.01 112.99 233.27 111.79 232.52 110.59 C 231.65 119.02 232.17 127.49 232.68 135.92 C 232.34 135.79 231.64 135.52 231.29 135.39 C 231.41 140.70 230.87 146.04 229.07 151.06 C 227.97 150.43 226.87 149.81 225.77 149.19 C 227.22 153.05 228.86 156.84 230.70 160.54 C 228.37 166.18 227.97 172.32 227.46 178.32 C 227.21 181.04 227.61 183.75 228.30 186.37 C 226.40 189.65 224.83 193.11 223.26 196.55 C 222.89 196.57 222.15 196.60 221.78 196.62 C 220.76 193.94 219.71 191.28 218.57 188.66 C 217.77 196.47 219.73 204.90 215.67 212.08 C 214.69 210.64 213.71 209.19 212.75 207.74 C 214.16 197.94 215.19 188.06 217.30 178.37 C 218.96 170.18 221.78 162.11 221.54 153.65 C 218.85 157.04 217.73 161.27 216.84 165.42 C 216.04 157.76 217.47 150.21 218.83 142.71 C 219.29 146.04 219.82 149.36 220.44 152.66 C 220.94 152.67 221.95 152.68 222.46 152.69 C 224.81 142.48 224.70 131.92 226.78 121.67 C 227.80 116.58 228.24 111.39 229.13 106.28 C 231.36 94.45 232.19 82.33 235.70 70.77 C 237.12 63.55 239.79 56.61 240.53 49.27 C 241.40 42.24 243.01 35.32 244.77 28.47 Z" />
<path fill="#d2e0ba" opacity="1.00" d=" M 121.29 25.79 C 124.85 31.54 123.23 38.55 123.88 44.93 C 125.15 61.86 125.58 78.86 127.56 95.73 C 128.08 109.79 130.89 123.61 132.27 137.59 C 134.81 147.71 135.72 158.08 136.76 168.44 C 137.91 168.36 139.06 168.29 140.22 168.22 C 140.11 170.62 139.95 173.02 139.72 175.41 C 139.41 174.73 138.79 173.36 138.49 172.68 C 137.48 176.59 136.60 180.53 135.67 184.46 C 133.04 181.01 130.95 177.11 130.07 172.83 C 129.05 167.41 127.64 162.08 126.67 156.65 C 127.90 151.12 126.50 145.57 126.18 140.03 C 125.24 126.53 123.33 113.12 122.41 99.62 C 121.52 82.10 121.42 64.54 120.41 47.03 C 120.41 39.95 119.64 32.75 121.29 25.79 Z" />
<path fill="#d2e0ba" opacity="1.00" d=" M 220.93 55.92 C 221.69 53.00 221.60 49.18 224.76 47.69 C 224.57 54.29 222.69 60.67 222.14 67.23 C 221.61 73.57 219.79 79.70 218.96 86.00 C 217.65 95.29 215.41 104.47 215.18 113.88 C 216.14 113.34 217.10 112.81 218.07 112.28 C 216.75 117.89 215.13 123.43 214.04 129.09 C 212.54 136.51 211.97 144.09 210.32 151.48 C 209.03 157.11 208.67 162.98 206.35 168.34 C 204.97 160.70 203.67 153.06 202.16 145.45 C 205.66 140.08 204.97 133.41 206.36 127.40 C 207.48 120.24 210.32 112.29 206.20 105.54 C 207.52 98.29 209.44 91.16 210.78 83.91 C 211.31 85.16 211.85 86.41 212.40 87.66 C 213.88 85.41 214.72 82.84 215.12 80.19 C 216.50 71.97 219.52 64.14 220.93 55.92 Z" />
<path fill="#d2e0ba" opacity="1.00" d=" M 183.19 79.61 C 184.15 83.10 185.22 86.57 186.01 90.11 C 188.65 102.03 192.12 113.83 193.10 126.05 C 191.27 130.80 189.12 135.41 187.17 140.11 C 186.44 134.43 186.05 128.72 185.87 123.00 C 185.59 113.38 184.50 103.81 183.58 94.23 C 183.15 89.37 182.24 84.46 183.19 79.61 Z" />
<path fill="#d2e0ba" opacity="1.00" d=" M 160.35 80.97 C 161.29 84.33 162.78 87.48 164.48 90.52 C 166.99 98.10 166.93 106.20 168.16 114.02 C 171.64 136.23 172.28 158.73 174.07 181.10 C 173.21 186.62 171.46 191.96 169.72 197.26 C 168.17 193.80 166.95 190.20 166.11 186.49 C 167.13 184.49 167.30 182.24 167.08 180.04 C 166.52 172.79 167.27 165.39 165.43 158.27 C 163.51 150.79 159.52 144.06 157.38 136.66 C 159.67 138.72 161.63 141.09 163.52 143.52 C 165.55 138.54 163.98 133.15 164.02 127.98 C 163.48 112.25 159.81 96.73 160.35 80.97 Z" />
<path fill="#d2e0ba" opacity="1.00" d=" M 247.17 82.21 C 247.56 82.22 248.32 82.25 248.71 82.26 C 250.89 89.74 249.04 97.99 252.67 105.10 C 253.39 99.66 253.36 94.17 253.43 88.70 C 253.98 98.97 255.41 109.16 256.42 119.39 C 255.92 119.50 254.93 119.73 254.44 119.84 C 254.47 126.32 254.03 132.83 254.84 139.28 C 255.55 144.94 256.55 150.56 257.67 156.15 C 257.85 151.35 258.13 146.55 258.17 141.75 C 258.44 144.75 258.93 147.72 259.24 150.72 C 259.73 156.03 258.91 161.48 256.35 166.20 C 253.14 172.02 251.26 178.75 246.31 183.43 C 245.97 182.26 245.63 181.09 245.28 179.93 C 244.48 176.27 243.96 172.56 243.16 168.91 C 243.84 169.74 244.55 170.56 245.26 171.37 C 247.63 163.80 247.65 155.81 248.88 148.04 C 249.78 142.43 249.34 136.74 248.72 131.13 C 247.59 120.80 248.45 110.34 246.77 100.05 C 246.16 101.36 245.55 102.67 245.00 104.00 C 245.07 103.40 245.21 102.18 245.28 101.58 C 244.69 101.65 243.50 101.80 242.90 101.88 C 243.77 95.25 244.27 88.33 247.17 82.21 Z" />
<path fill="#d2e0ba" opacity="1.00" d=" M 312.09 121.28 C 312.68 108.93 315.74 96.92 317.90 84.79 C 317.92 88.64 318.25 92.56 319.77 96.14 C 322.40 102.55 323.86 109.34 326.11 115.89 C 329.06 124.79 330.27 134.13 332.90 143.12 C 334.03 141.79 335.15 140.47 336.27 139.13 C 333.53 146.07 329.92 152.68 328.18 159.98 C 327.35 149.49 324.90 139.21 323.24 128.84 C 321.93 118.97 318.85 109.46 316.61 99.78 C 314.19 106.74 314.01 114.20 312.09 121.28 Z" />
<path fill="#d2e0ba" opacity="1.00" d=" M 350.32 121.39 C 353.12 113.88 354.03 105.49 358.72 98.80 C 358.69 101.58 358.58 104.38 358.08 107.13 C 354.72 124.59 348.57 141.47 346.62 159.20 C 345.89 156.21 344.64 153.38 343.13 150.71 C 342.82 154.91 343.71 159.04 345.07 162.99 C 346.18 166.51 346.83 170.15 347.37 173.80 C 346.72 172.47 346.00 171.17 345.30 169.88 C 343.08 175.58 342.55 181.72 341.98 187.76 C 341.28 193.78 342.10 200.89 347.76 204.35 C 348.72 198.84 349.17 193.25 349.39 187.66 C 350.60 192.49 350.49 197.52 349.11 202.31 C 347.29 209.86 345.98 217.53 345.31 225.27 C 344.71 225.29 343.50 225.34 342.89 225.36 C 341.58 219.95 341.97 214.37 343.61 209.09 C 341.06 207.60 338.73 205.79 336.56 203.81 C 336.30 206.84 335.98 209.87 335.65 212.90 C 332.97 210.59 330.24 208.31 327.87 205.67 C 328.78 205.55 329.69 205.44 330.60 205.33 C 332.58 197.52 333.76 188.72 329.16 181.55 C 331.19 173.09 333.00 164.56 335.15 156.13 C 335.52 159.91 336.18 163.66 337.29 167.29 C 340.17 161.61 340.42 155.10 341.90 149.00 C 343.60 139.50 346.82 130.36 350.32 121.39 Z" />
<path fill="#d2e0ba" opacity="1.00" d=" M 378.86 111.90 C 380.17 118.97 377.59 126.01 377.06 133.04 C 376.22 143.68 374.41 154.21 373.76 164.86 C 373.36 171.78 371.77 178.63 372.29 185.59 C 372.97 185.80 374.34 186.21 375.02 186.42 C 373.83 188.80 371.60 190.18 368.97 190.27 C 367.89 194.48 366.30 198.53 364.18 202.32 C 364.29 198.87 364.44 195.41 364.89 191.98 C 365.95 184.66 364.36 177.33 363.87 170.03 C 363.66 166.35 362.91 162.65 360.86 159.53 C 359.75 167.81 359.64 176.27 357.10 184.31 C 357.35 175.41 358.83 166.62 359.49 157.75 C 360.03 150.46 361.86 143.32 362.18 136.01 C 362.37 131.30 362.88 126.60 363.95 122.00 C 363.97 123.55 363.99 125.11 364.01 126.67 C 365.06 125.75 366.11 124.83 367.17 123.92 C 366.42 133.36 362.62 142.62 364.27 152.17 C 365.05 156.34 365.46 160.76 367.82 164.42 C 370.81 157.66 371.03 150.18 372.02 142.97 C 373.45 132.46 375.56 121.99 378.86 111.90 Z" />
<path fill="#d2e0ba" opacity="1.00" d=" M 424.30 120.28 C 424.82 118.81 426.04 117.79 427.08 116.69 C 426.94 125.31 423.81 133.48 421.93 141.81 C 419.65 152.86 416.27 163.71 415.42 175.02 C 412.01 189.44 411.49 204.31 408.91 218.87 C 410.47 218.35 412.04 217.82 413.61 217.32 C 413.43 218.92 413.02 220.50 412.21 221.91 C 412.16 221.35 412.05 220.22 411.99 219.65 C 405.45 224.33 401.23 231.35 397.06 238.05 C 396.88 231.89 398.86 226.00 399.88 219.99 C 402.17 205.95 405.51 192.11 408.04 178.12 C 410.66 166.07 412.55 153.76 417.00 142.21 C 419.16 134.81 421.61 127.50 424.30 120.28 Z" />
<path fill="#d2e0ba" opacity="1.00" d=" M 260.94 123.79 C 261.74 127.56 262.50 131.34 263.42 135.08 C 264.23 131.11 264.99 127.13 266.08 123.22 C 267.62 123.89 268.29 125.38 268.27 127.00 C 268.70 133.09 268.13 139.20 268.06 145.30 C 268.96 145.42 269.86 145.54 270.77 145.66 C 270.59 147.05 270.42 148.44 270.24 149.84 C 271.67 148.38 273.11 146.93 274.57 145.51 C 274.98 147.84 275.52 150.15 276.06 152.45 C 271.70 157.44 271.01 164.23 269.47 170.40 C 268.98 173.28 267.96 176.35 268.94 179.23 C 270.90 183.51 274.07 187.39 278.45 189.34 C 279.66 184.25 280.41 179.02 280.16 173.78 C 281.12 180.49 282.00 187.22 282.56 193.99 C 283.01 199.14 280.99 204.01 279.88 208.94 C 279.06 212.74 278.59 216.61 277.98 220.45 C 275.56 217.97 273.54 215.15 271.79 212.17 C 272.81 212.76 273.86 213.32 274.90 213.89 C 275.73 208.82 277.13 203.66 276.27 198.50 C 275.05 192.67 272.08 187.35 268.44 182.70 C 268.20 185.52 267.98 188.34 267.96 191.18 C 266.00 179.57 265.57 167.74 266.53 156.01 C 267.34 145.91 267.95 135.70 266.82 125.60 C 265.10 130.76 264.77 136.28 262.79 141.37 C 261.46 135.60 261.37 129.67 260.94 123.79 Z" />
<path fill="#d2e0ba" opacity="1.00" d=" M 291.35 127.76 C 294.82 135.66 296.05 144.34 298.01 152.70 C 298.71 153.06 299.42 153.42 300.13 153.78 C 298.24 162.53 297.12 171.39 296.26 180.30 C 296.51 162.65 292.27 145.32 291.35 127.76 Z" />
<path fill="#d2e0ba" opacity="1.00" d=" M 74.16 132.88 C 78.23 137.49 80.29 143.39 83.25 148.70 C 87.98 158.62 92.59 168.64 96.06 179.08 C 98.24 185.53 102.95 191.28 102.64 198.40 C 99.77 195.41 96.67 192.64 93.57 189.89 C 93.13 185.98 91.83 182.26 90.50 178.58 C 88.25 172.41 86.80 165.95 83.98 159.99 C 82.34 156.55 80.83 153.04 79.64 149.41 C 77.81 143.90 74.92 138.71 74.16 132.88 Z" />
<path fill="#d2e0ba" opacity="1.00" d=" M 119.95 138.52 C 122.49 139.44 123.62 141.91 122.78 144.45 C 122.50 146.35 122.17 148.25 121.94 150.16 C 120.38 146.48 119.74 142.50 119.95 138.52 Z" />
<path fill="#d2e0ba" opacity="1.00" d=" M 140.84 160.98 C 142.63 161.38 144.46 161.69 146.18 162.35 C 151.99 170.24 152.51 180.22 152.74 189.64 C 154.14 200.58 152.80 211.57 153.54 222.55 C 152.20 222.64 150.86 222.73 149.53 222.83 C 147.86 218.35 146.37 213.81 145.03 209.22 C 145.56 209.30 146.62 209.47 147.15 209.56 C 147.95 198.68 151.18 186.39 144.36 176.71 C 145.14 172.81 145.50 168.85 145.78 164.89 C 144.94 166.93 144.12 168.98 143.41 171.08 C 142.70 167.67 141.83 164.31 140.84 160.98 Z" />
<path fill="#d2e0ba" opacity="1.00" d=" M 389.84 176.74 C 390.40 176.81 391.54 176.96 392.11 177.03 C 388.80 195.63 385.35 214.22 381.86 232.80 C 380.77 236.60 378.81 240.08 376.59 243.33 C 376.05 240.15 375.54 236.95 375.32 233.73 C 375.29 227.18 373.76 220.71 374.15 214.16 C 374.97 207.12 378.71 200.91 381.62 194.58 C 384.17 188.83 388.34 183.79 389.63 177.53 L 389.84 176.74 Z" />
<path fill="#d2e0ba" opacity="1.00" d=" M 237.41 195.11 C 237.45 190.56 236.08 185.68 238.53 181.50 C 239.87 188.04 241.67 194.50 242.90 201.07 C 243.61 204.73 240.11 207.21 237.87 209.50 C 237.29 204.72 237.40 199.91 237.41 195.11 Z" />
<path fill="#d2e0ba" opacity="1.00" d=" M 192.70 190.53 C 196.65 193.44 198.24 198.30 200.67 202.37 C 202.64 205.11 199.95 207.98 198.86 210.47 C 194.82 204.58 194.03 197.36 192.70 190.53 Z" />
<path fill="#d2e0ba" opacity="1.00" d=" M 259.61 201.72 C 260.14 201.56 261.20 201.22 261.73 201.06 C 261.31 210.77 260.65 220.48 260.01 230.19 C 253.72 221.69 257.16 210.92 259.61 201.72 Z" />
<path fill="#d2e0ba" opacity="1.00" d=" M 101.04 202.64 C 104.33 207.02 107.15 211.75 109.17 216.85 C 109.80 226.52 111.38 236.11 111.95 245.78 C 110.24 244.17 108.65 242.40 107.75 240.20 C 108.88 241.02 110.01 241.85 111.13 242.69 C 109.01 233.74 106.10 225.01 103.91 216.08 C 102.97 211.61 99.75 207.37 101.04 202.64 Z" />
<path fill="#d2e0ba" opacity="1.00" d=" M 66.91 216.95 C 74.69 217.48 81.16 222.24 88.14 225.18 C 89.05 230.51 89.94 235.86 90.15 241.28 C 86.79 238.67 83.93 235.53 81.19 232.30 C 81.53 231.84 82.21 230.93 82.55 230.47 C 77.66 225.60 72.36 221.18 66.91 216.95 Z" />
<path fill="#d2e0ba" opacity="1.00" d=" M 426.26 217.19 C 427.48 217.07 428.70 216.96 429.93 216.85 C 423.86 228.67 417.57 240.38 412.26 252.57 C 409.86 252.83 407.47 253.12 405.08 253.43 L 405.14 252.45 C 406.14 251.92 407.15 251.42 408.19 250.96 C 410.09 246.63 411.64 242.12 414.07 238.04 C 418.23 231.14 421.42 223.67 426.26 217.19 Z" />
<path fill="#d2e0ba" opacity="1.00" d=" M 241.00 357.17 C 249.00 357.16 256.98 356.33 264.99 356.35 C 321.34 356.46 377.69 356.25 434.04 356.39 C 445.88 356.99 457.67 358.70 469.56 358.04 L 470.49 358.05 C 457.82 361.20 444.82 357.32 432.02 357.30 C 404.34 357.30 376.66 357.37 348.98 357.34 C 333.65 357.18 318.32 358.30 302.99 357.73 C 288.00 357.84 272.97 356.46 258.02 358.04 C 247.68 358.77 237.31 357.62 226.95 358.16 C 208.65 359.36 190.30 358.38 171.99 358.93 C 169.86 359.01 167.75 358.70 165.68 358.22 C 180.94 356.86 196.27 358.25 211.55 357.42 C 221.36 356.84 231.18 357.35 241.00 357.17 Z" />
</g>
<g id="#677c60ff">
<path fill="#677c60" opacity="1.00" d=" M 322.93 43.79 C 323.37 41.90 324.40 40.25 325.59 38.75 C 325.65 44.47 324.42 50.08 323.54 55.70 C 321.80 65.43 320.18 75.18 317.90 84.79 C 315.74 96.92 312.68 108.93 312.09 121.28 C 311.70 123.17 311.26 125.05 310.92 126.94 C 309.56 134.51 308.24 142.34 309.82 149.99 C 311.38 157.56 312.55 165.21 313.92 172.82 C 314.77 178.77 315.61 184.75 317.56 190.46 C 320.23 188.29 322.88 186.11 325.52 183.90 C 323.74 190.40 322.02 196.92 320.57 203.50 C 319.53 208.15 320.60 212.87 321.54 217.43 C 322.91 223.75 323.40 230.29 325.73 236.37 C 327.90 241.91 329.09 247.79 331.64 253.19 C 333.77 244.40 332.06 235.29 333.30 226.39 C 339.23 235.22 337.39 246.25 339.46 256.16 C 341.00 252.11 341.72 247.83 342.24 243.54 C 342.99 237.41 344.79 231.44 345.31 225.27 C 345.98 217.53 347.29 209.86 349.11 202.31 C 350.49 197.52 350.60 192.49 349.39 187.66 C 348.66 183.05 348.14 178.41 347.37 173.80 C 346.83 170.15 346.18 166.51 345.07 162.99 C 345.60 162.63 346.65 161.90 347.17 161.54 C 348.04 166.37 349.31 171.14 351.29 175.63 C 354.40 168.01 354.12 159.56 355.75 151.58 C 358.01 140.62 360.09 129.63 362.81 118.77 C 363.18 117.33 363.90 116.01 364.61 114.71 C 364.63 117.16 364.49 119.61 363.95 122.00 C 362.88 126.60 362.37 131.30 362.18 136.01 C 361.86 143.32 360.03 150.46 359.49 157.75 C 358.83 166.62 357.35 175.41 357.10 184.31 C 355.55 193.85 355.84 203.54 356.96 213.11 C 357.37 216.84 359.06 220.26 361.65 222.97 C 364.80 217.49 368.31 211.79 368.60 205.30 C 368.78 200.40 368.68 195.47 369.58 190.63 C 370.62 194.15 371.49 197.72 372.39 201.27 C 374.74 199.03 376.84 196.51 378.29 193.59 C 381.30 187.74 385.34 182.49 389.63 177.53 C 388.34 183.79 384.17 188.83 381.62 194.58 C 378.71 200.91 374.97 207.12 374.15 214.16 C 373.76 220.71 375.29 227.18 375.32 233.73 C 375.38 238.93 374.34 244.62 377.48 249.20 C 379.81 243.99 380.76 238.35 381.86 232.80 C 385.35 214.22 388.80 195.63 392.11 177.03 C 395.28 164.31 396.52 151.23 398.35 138.28 C 400.78 117.46 402.65 96.57 404.75 75.72 C 407.34 80.72 406.01 86.61 406.27 92.01 C 405.30 105.54 405.91 119.13 404.75 132.65 C 404.21 138.50 404.11 144.36 404.19 150.23 C 403.47 155.51 404.29 160.91 403.04 166.13 C 401.97 170.69 401.11 175.29 400.59 179.95 C 396.82 197.75 394.16 215.78 392.43 233.88 C 392.15 236.27 391.50 238.58 390.97 240.92 C 389.19 245.73 391.37 250.48 394.35 254.23 C 396.66 250.74 398.56 246.99 400.52 243.30 C 402.00 246.26 402.46 249.56 403.33 252.73 C 405.93 254.60 409.64 254.22 412.26 252.57 C 417.57 240.38 423.86 228.67 429.93 216.85 C 436.64 204.06 442.41 190.69 450.99 178.97 C 454.66 174.16 456.22 167.91 460.87 163.84 C 460.30 166.68 459.40 169.46 458.05 172.03 C 453.20 181.51 448.57 191.10 443.56 200.51 C 438.64 211.53 434.08 222.73 428.61 233.51 C 425.57 240.43 422.42 247.38 420.64 254.76 C 424.24 256.82 427.79 258.97 431.27 261.24 C 436.14 257.73 440.73 253.70 446.35 251.38 C 452.14 248.94 458.02 246.59 464.17 245.21 C 461.56 249.39 456.49 250.79 452.87 253.87 C 445.41 258.82 438.96 265.31 434.13 272.83 C 431.90 280.13 429.68 288.12 432.17 295.66 C 434.19 303.94 439.64 310.67 445.00 317.05 C 447.92 320.43 451.01 323.67 454.30 326.70 C 460.05 331.94 464.91 338.08 470.83 343.14 C 473.76 345.73 477.30 348.69 477.27 352.96 C 476.84 356.71 472.54 357.38 469.56 358.04 C 457.67 358.70 445.88 356.99 434.04 356.39 C 377.69 356.25 321.34 356.46 264.99 356.35 C 256.98 356.33 249.00 357.16 241.00 357.17 C 231.18 357.35 221.36 356.84 211.55 357.42 C 196.27 358.25 180.94 356.86 165.68 358.22 C 152.72 358.79 139.74 358.02 126.78 358.59 C 116.19 359.07 105.60 358.56 95.01 358.72 C 81.27 359.69 67.48 359.50 53.72 359.13 C 53.62 354.75 54.19 350.41 55.00 346.13 C 57.53 331.89 56.55 317.19 60.30 303.15 C 61.58 297.64 64.57 292.64 65.19 286.97 C 65.61 285.53 65.25 283.56 66.69 282.63 C 70.20 280.18 74.60 278.67 77.01 274.91 C 79.03 271.88 77.99 268.13 77.58 264.81 C 76.49 258.56 76.39 252.04 73.86 246.13 C 72.47 242.47 69.99 239.00 70.24 234.91 L 70.62 235.24 C 72.92 237.31 74.78 239.81 76.62 242.29 C 80.53 247.70 85.30 252.50 88.48 258.43 C 90.39 262.06 92.63 265.55 95.65 268.36 C 96.04 262.62 95.28 256.88 93.61 251.38 C 90.35 239.37 90.08 226.80 87.24 214.71 C 86.40 211.12 85.10 207.65 84.30 204.05 C 82.49 195.35 81.01 186.53 78.06 178.13 C 74.93 167.00 69.90 156.37 68.33 144.84 C 72.22 148.32 73.50 153.60 75.89 158.06 C 80.72 169.71 86.44 181.09 89.46 193.41 C 91.47 201.61 93.89 209.71 95.87 217.92 C 97.76 227.16 99.83 236.37 102.33 245.47 C 104.48 252.84 107.18 260.21 111.90 266.36 C 113.07 259.35 112.71 252.21 113.02 245.14 C 114.29 247.16 115.57 249.17 116.88 251.17 C 116.61 239.39 114.15 227.56 109.17 216.85 C 107.15 211.75 104.33 207.02 101.04 202.64 C 98.43 198.47 94.94 194.71 93.57 189.89 C 96.67 192.64 99.77 195.41 102.64 198.40 C 106.13 202.89 109.94 207.20 112.91 212.06 C 114.66 215.27 116.43 218.49 118.35 221.61 C 121.65 226.85 123.50 232.85 126.97 238.00 C 129.35 230.64 132.32 222.93 131.09 215.08 C 128.44 199.68 128.41 183.78 123.98 168.74 C 125.43 162.43 122.26 156.41 121.94 150.16 C 122.17 148.25 122.50 146.35 122.78 144.45 C 124.08 148.51 125.50 152.55 126.67 156.65 C 127.64 162.08 129.05 167.41 130.07 172.83 C 132.15 181.39 131.49 190.52 134.79 198.76 C 137.32 191.24 138.82 183.41 141.84 176.04 C 142.37 174.38 142.85 172.72 143.41 171.08 C 144.12 168.98 144.94 166.93 145.78 164.89 C 145.50 168.85 145.14 172.81 144.36 176.71 C 143.65 179.82 142.73 182.88 141.97 185.98 C 140.72 190.48 140.01 195.10 139.52 199.74 C 138.82 206.12 137.00 212.48 137.83 218.95 C 138.76 226.44 140.45 233.82 141.77 241.25 C 142.26 242.51 141.94 244.78 143.81 244.80 C 146.32 241.22 149.74 236.70 147.86 232.12 C 146.92 229.32 145.78 226.59 144.78 223.82 C 147.53 225.26 150.12 227.10 153.09 228.09 C 154.20 228.60 155.24 227.74 156.13 227.17 C 158.65 225.30 160.87 222.95 162.32 220.16 C 163.70 217.38 162.77 214.21 162.35 211.31 C 161.11 205.25 161.01 198.98 159.18 193.03 C 157.34 185.80 154.09 178.90 153.43 171.41 C 153.27 166.09 152.11 160.87 150.08 155.95 C 147.78 148.89 144.72 141.80 144.63 134.27 C 145.42 135.39 146.16 136.54 146.86 137.72 C 149.87 143.36 152.27 149.28 154.86 155.11 C 159.72 165.14 163.65 175.61 166.11 186.49 C 166.95 190.20 168.17 193.80 169.72 197.26 C 171.46 191.96 173.21 186.62 174.07 181.10 C 174.69 177.19 174.21 173.19 174.85 169.29 C 175.71 166.76 177.50 164.71 178.76 162.39 C 181.93 155.12 184.02 147.40 187.17 140.11 C 189.12 135.41 191.27 130.80 193.10 126.05 C 194.35 123.11 196.01 120.38 197.81 117.76 C 196.67 130.93 190.21 142.80 187.66 155.66 C 186.13 161.75 184.93 167.92 183.61 174.07 C 182.83 177.28 181.96 180.47 181.41 183.73 C 181.05 185.77 180.73 187.82 180.53 189.88 C 179.59 197.01 178.83 204.19 177.28 211.22 C 176.42 215.41 174.21 219.56 175.16 223.94 C 176.02 228.08 177.83 231.94 179.45 235.83 C 184.01 231.27 187.23 225.68 189.87 219.85 C 190.88 217.19 193.69 216.36 196.16 215.68 C 195.38 220.04 194.19 224.31 192.67 228.47 C 191.59 231.59 190.22 235.06 191.76 238.28 C 194.00 243.61 195.34 249.25 195.83 255.00 C 203.44 234.11 204.57 211.67 209.90 190.21 C 210.67 186.56 211.07 182.83 212.06 179.23 C 213.32 174.51 215.91 170.24 216.84 165.42 C 217.73 161.27 218.85 157.04 221.54 153.65 C 221.78 162.11 218.96 170.18 217.30 178.37 C 215.19 188.06 214.16 197.94 212.75 207.74 C 211.75 214.02 210.24 220.31 210.62 226.72 C 210.92 232.22 210.79 237.74 210.32 243.23 C 211.85 242.98 213.82 243.42 214.87 241.98 C 217.75 238.56 219.12 234.20 221.45 230.42 C 223.78 226.34 227.27 222.72 228.07 217.91 C 228.94 212.48 228.61 206.89 229.98 201.52 C 231.43 205.30 232.49 209.20 233.45 213.13 C 234.93 211.93 236.43 210.75 237.87 209.50 C 240.11 207.21 243.61 204.73 242.90 201.07 C 241.67 194.50 239.87 188.04 238.53 181.50 C 237.43 176.12 235.47 170.97 233.25 165.97 C 232.47 164.13 231.58 162.34 230.70 160.54 C 228.86 156.84 227.22 153.05 225.77 149.19 C 226.87 149.81 227.97 150.43 229.07 151.06 C 230.34 153.89 231.85 156.59 233.35 159.30 C 236.89 166.42 241.06 173.20 245.28 179.93 C 245.63 181.09 245.97 182.26 246.31 183.43 C 247.64 188.81 248.87 194.33 252.02 199.00 C 256.15 192.20 255.68 183.96 257.58 176.46 C 259.57 168.04 260.61 159.33 259.24 150.72 C 258.93 147.72 258.44 144.75 258.17 141.75 C 257.77 134.28 257.26 126.82 256.42 119.39 C 255.41 109.16 253.98 98.97 253.43 88.70 C 253.29 85.76 253.25 82.82 253.22 79.89 C 253.75 81.36 254.27 82.84 254.75 84.34 C 256.26 89.35 256.33 94.64 257.21 99.77 C 258.53 107.76 260.21 115.72 260.94 123.79 C 261.37 129.67 261.46 135.60 262.79 141.37 C 264.77 136.28 265.10 130.76 266.82 125.60 C 267.95 135.70 267.34 145.91 266.53 156.01 C 265.57 167.74 266.00 179.57 267.96 191.18 C 268.60 197.12 269.01 203.10 269.95 209.02 C 271.07 214.88 270.02 222.16 275.01 226.47 C 277.81 226.08 277.30 222.53 277.98 220.45 C 278.59 216.61 279.06 212.74 279.88 208.94 C 280.39 208.78 281.39 208.46 281.90 208.30 C 281.71 215.40 280.87 222.65 282.85 229.60 C 284.95 228.21 287.56 226.98 288.31 224.35 C 290.67 217.44 291.26 210.09 292.95 203.01 C 294.48 195.50 295.12 187.86 296.26 180.30 C 297.12 171.39 298.24 162.53 300.13 153.78 C 301.01 148.09 302.06 142.22 300.55 136.54 C 298.27 126.99 296.14 117.40 294.17 107.78 C 292.80 101.12 290.83 94.54 290.43 87.72 C 293.77 90.38 294.02 94.89 295.35 98.64 C 297.88 106.42 301.17 113.92 303.67 121.72 C 304.05 121.59 304.81 121.32 305.19 121.19 C 306.77 111.34 307.96 101.38 310.67 91.74 C 312.29 85.92 313.04 79.88 314.93 74.12 C 317.78 64.06 320.20 53.88 322.93 43.79 M 305.06 172.35 C 304.86 174.73 304.74 177.11 304.66 179.50 C 304.86 187.11 301.81 195.10 305.17 202.36 C 307.03 201.45 309.59 200.40 309.41 197.89 C 309.17 192.94 308.80 187.96 308.05 183.07 C 307.77 179.52 309.22 174.03 305.06 172.35 M 259.61 201.72 C 257.16 210.92 253.72 221.69 260.01 230.19 C 260.65 220.48 261.31 210.77 261.73 201.06 C 261.20 201.22 260.14 201.56 259.61 201.72 M 308.69 205.60 C 306.53 209.96 303.15 213.51 300.51 217.55 C 297.96 221.85 302.08 226.12 304.27 229.59 C 306.60 224.87 307.81 219.72 309.79 214.87 C 311.16 211.76 311.18 208.34 311.01 205.02 C 310.43 205.16 309.27 205.45 308.69 205.60 M 235.80 217.85 C 233.88 220.73 235.34 224.24 235.59 227.38 C 236.63 233.43 235.67 239.69 237.17 245.68 C 237.49 245.63 238.14 245.53 238.46 245.48 C 242.88 237.00 244.20 227.46 246.02 218.19 C 246.63 214.35 245.46 210.54 244.48 206.87 C 240.63 209.67 238.19 213.84 235.80 217.85 M 157.19 235.03 C 157.23 236.59 157.58 239.33 159.74 238.86 C 161.94 234.93 162.48 230.37 162.83 225.96 C 160.43 228.58 157.71 231.36 157.19 235.03 M 264.39 274.56 C 260.20 275.58 255.92 277.85 253.74 281.71 C 251.92 285.38 255.00 289.31 258.40 290.58 C 264.31 292.83 270.77 292.59 276.99 292.47 C 281.71 292.17 286.85 291.69 290.71 288.67 C 292.93 286.99 293.78 282.57 290.66 281.37 C 285.46 279.03 279.35 279.57 274.39 276.55 C 271.42 274.68 267.90 273.50 264.39 274.56 M 329.48 276.52 C 326.51 277.66 323.62 279.08 320.49 279.73 C 316.00 280.78 311.30 280.73 306.86 282.01 C 304.75 282.51 303.13 284.65 303.81 286.85 C 305.16 289.87 308.45 291.35 311.46 292.22 C 318.17 293.86 325.14 293.42 331.98 293.48 C 338.05 293.38 344.58 293.25 349.91 289.95 C 351.74 288.70 354.12 286.69 353.12 284.20 C 351.27 280.28 347.04 278.23 343.14 276.90 C 338.74 275.71 333.85 274.70 329.48 276.52 Z" />
<path fill="#677c60" opacity="1.00" d=" M 266.28 280.08 C 270.45 279.24 274.79 279.37 279.01 279.75 C 281.63 279.94 285.08 281.84 284.37 284.94 C 283.82 288.39 280.01 289.74 276.97 290.07 C 272.10 290.63 265.94 290.31 263.11 285.63 C 261.47 283.32 263.90 280.47 266.28 280.08 Z" />
<path fill="#677c60" opacity="1.00" d=" M 317.31 281.18 C 321.75 279.95 326.46 280.79 331.01 280.58 C 334.35 280.78 338.77 280.13 340.89 283.38 C 342.24 285.32 340.43 287.75 338.67 288.73 C 333.43 291.59 327.09 291.98 321.32 290.78 C 318.87 290.20 316.14 289.46 314.60 287.31 C 312.69 285.03 315.20 282.18 317.31 281.18 Z" />
</g>
<g id="#99af8aff">
<path fill="#99af8a" opacity="1.00" d=" M 180.42 57.78 C 183.20 61.57 183.71 66.36 185.29 70.67 C 188.54 80.10 190.67 89.85 193.53 99.39 C 195.31 105.25 195.93 111.38 197.69 117.24 C 198.89 115.38 199.75 113.32 200.22 111.16 C 201.87 104.07 204.39 97.22 206.19 90.17 C 207.15 86.16 208.31 82.16 210.41 78.58 C 210.56 79.47 210.86 81.27 211.01 82.16 C 210.95 82.60 210.84 83.47 210.78 83.91 C 209.44 91.16 207.52 98.29 206.20 105.54 C 204.68 112.88 203.10 120.21 201.60 127.55 C 200.37 133.48 201.04 139.56 202.16 145.45 C 203.67 153.06 204.97 160.70 206.35 168.34 C 208.67 162.98 209.03 157.11 210.32 151.48 C 211.97 144.09 212.54 136.51 214.04 129.09 C 215.13 123.43 216.75 117.89 218.07 112.28 C 220.39 101.83 223.75 91.64 226.42 81.28 C 228.13 75.53 229.41 69.57 232.30 64.27 C 233.71 71.41 230.46 78.42 229.62 85.46 C 225.16 104.37 221.62 123.48 218.83 142.71 C 217.47 150.21 216.04 157.76 216.84 165.42 C 215.91 170.24 213.32 174.51 212.06 179.23 C 211.07 182.83 210.67 186.56 209.90 190.21 C 204.57 211.67 203.44 234.11 195.83 255.00 C 195.34 249.25 194.00 243.61 191.76 238.28 C 190.22 235.06 191.59 231.59 192.67 228.47 C 194.19 224.31 195.38 220.04 196.16 215.68 C 193.69 216.36 190.88 217.19 189.87 219.85 C 187.23 225.68 184.01 231.27 179.45 235.83 C 177.83 231.94 176.02 228.08 175.16 223.94 C 174.21 219.56 176.42 215.41 177.28 211.22 C 178.83 204.19 179.59 197.01 180.53 189.88 C 181.06 193.01 181.92 196.07 182.81 199.12 C 185.31 194.10 185.25 188.07 181.41 183.73 C 181.96 180.47 182.83 177.28 183.61 174.07 C 184.89 174.16 186.19 174.26 187.48 174.36 C 188.47 168.13 189.17 161.87 189.85 155.61 C 189.30 155.62 188.21 155.65 187.66 155.66 C 190.21 142.80 196.67 130.93 197.81 117.76 C 196.01 120.38 194.35 123.11 193.10 126.05 C 192.12 113.83 188.65 102.03 186.01 90.11 C 185.22 86.57 184.15 83.10 183.19 79.61 C 181.86 72.40 180.73 65.10 180.42 57.78 M 195.42 169.23 C 194.89 173.70 194.07 178.21 194.51 182.73 C 194.77 185.38 196.83 187.31 198.38 189.30 C 200.79 182.77 197.68 175.88 197.47 169.22 C 196.95 169.22 195.93 169.23 195.42 169.23 M 192.70 190.53 C 194.03 197.36 194.82 204.58 198.86 210.47 C 199.95 207.98 202.64 205.11 200.67 202.37 C 198.24 198.30 196.65 193.44 192.70 190.53 Z" />
<path fill="#99af8a" opacity="1.00" d=" M 106.37 65.07 C 106.85 65.26 107.81 65.65 108.29 65.84 C 110.22 86.18 111.23 106.62 114.01 126.87 C 114.84 134.49 116.43 141.99 117.23 149.61 C 117.64 153.59 118.24 157.59 119.74 161.33 C 121.45 165.26 120.39 169.66 121.39 173.75 C 123.86 185.99 125.90 198.32 127.41 210.72 C 127.88 214.35 128.02 218.25 130.24 221.33 C 130.56 219.25 130.83 217.16 131.09 215.08 C 132.32 222.93 129.35 230.64 126.97 238.00 C 123.50 232.85 121.65 226.85 118.35 221.61 C 116.43 218.49 114.66 215.27 112.91 212.06 C 114.94 214.49 116.97 216.94 119.10 219.29 C 118.51 202.30 115.14 185.58 113.33 168.71 C 111.96 159.21 110.86 149.67 109.92 140.11 C 108.47 129.46 107.40 118.74 107.31 107.98 C 105.76 93.72 106.59 79.37 106.37 65.07 Z" />
<path fill="#99af8a" opacity="1.00" d=" M 251.26 72.19 C 251.76 72.33 252.77 72.61 253.27 72.75 C 254.09 76.56 254.67 80.43 254.75 84.34 C 254.27 82.84 253.75 81.36 253.22 79.89 C 253.25 82.82 253.29 85.76 253.43 88.70 L 252.57 88.75 C 252.20 83.22 251.66 77.71 251.26 72.19 Z" />
<path fill="#99af8a" opacity="1.00" d=" M 164.48 90.52 C 167.40 91.17 167.22 94.63 167.86 96.93 C 170.26 111.62 173.79 126.11 175.31 140.94 C 176.34 148.10 175.93 155.59 178.76 162.39 C 177.50 164.71 175.71 166.76 174.85 169.29 C 174.21 173.19 174.69 177.19 174.07 181.10 C 172.28 158.73 171.64 136.23 168.16 114.02 C 166.93 106.20 166.99 98.10 164.48 90.52 Z" />
<path fill="#99af8a" opacity="1.00" d=" M 144.28 100.88 C 147.45 111.02 148.72 121.61 150.99 131.95 C 153.02 139.55 152.55 147.56 154.86 155.11 C 152.27 149.28 149.87 143.36 146.86 137.72 C 148.82 133.13 147.26 128.23 146.65 123.54 C 145.66 116.01 144.13 108.51 144.28 100.88 Z" />
<path fill="#99af8a" opacity="1.00" d=" M 242.90 101.88 C 243.50 101.80 244.69 101.65 245.28 101.58 C 245.21 102.18 245.07 103.40 245.00 104.00 C 243.41 116.72 241.86 129.44 241.06 142.24 C 239.90 151.17 240.96 160.22 243.16 168.91 C 243.96 172.56 244.48 176.27 245.28 179.93 C 241.06 173.20 236.89 166.42 233.35 159.30 C 233.83 151.50 233.03 143.71 232.68 135.92 C 232.17 127.49 231.65 119.02 232.52 110.59 C 233.27 111.79 234.01 112.99 234.70 114.24 C 236.10 119.72 235.93 125.50 237.47 130.98 C 238.61 127.36 239.21 123.62 239.68 119.87 C 240.45 113.82 242.01 107.91 242.90 101.88 Z" />
<path fill="#99af8a" opacity="1.00" d=" M 336.27 139.13 C 338.64 133.16 340.76 126.90 344.89 121.86 C 344.56 124.37 344.12 126.88 343.41 129.31 C 340.75 138.28 338.32 147.32 335.15 156.13 C 333.00 164.56 331.19 173.09 329.16 181.55 C 327.90 189.46 325.35 197.75 327.87 205.67 C 330.24 208.31 332.97 210.59 335.65 212.90 C 335.98 209.87 336.30 206.84 336.56 203.81 C 338.73 205.79 341.06 207.60 343.61 209.09 C 341.97 214.37 341.58 219.95 342.89 225.36 C 343.50 225.34 344.71 225.29 345.31 225.27 C 344.79 231.44 342.99 237.41 342.24 243.54 C 341.72 247.83 341.00 252.11 339.46 256.16 C 337.39 246.25 339.23 235.22 333.30 226.39 C 332.06 235.29 333.77 244.40 331.64 253.19 C 329.09 247.79 327.90 241.91 325.73 236.37 C 323.40 230.29 322.91 223.75 321.54 217.43 C 320.60 212.87 319.53 208.15 320.57 203.50 C 322.02 196.92 323.74 190.40 325.52 183.90 C 322.88 186.11 320.23 188.29 317.56 190.46 C 315.61 184.75 314.77 178.77 313.92 172.82 C 312.55 165.21 311.38 157.56 309.82 149.99 C 308.24 142.34 309.56 134.51 310.92 126.94 C 309.45 135.82 313.38 144.16 315.34 152.61 C 317.91 161.73 319.10 171.22 322.46 180.11 C 324.60 173.47 326.30 166.70 328.18 159.98 C 329.92 152.68 333.53 146.07 336.27 139.13 Z" />
<path fill="#99af8a" opacity="1.00" d=" M 404.19 150.23 C 407.93 143.99 409.31 136.55 413.95 130.82 C 413.62 138.95 410.42 146.52 408.24 154.25 C 406.42 160.75 403.84 167.05 402.65 173.72 C 402.26 175.88 401.56 177.98 400.59 179.95 C 401.11 175.29 401.97 170.69 403.04 166.13 C 404.29 160.91 403.47 155.51 404.19 150.23 Z" />
<path fill="#99af8a" opacity="1.00" d=" M 274.12 141.30 C 274.74 141.29 275.97 141.25 276.59 141.24 C 277.09 145.12 277.80 148.99 279.01 152.72 C 282.61 164.12 283.92 176.05 286.21 187.74 C 287.58 194.32 287.87 201.12 290.02 207.53 C 291.02 206.04 291.99 204.53 292.95 203.01 C 291.26 210.09 290.67 217.44 288.31 224.35 C 287.56 226.98 284.95 228.21 282.85 229.60 C 280.87 222.65 281.71 215.40 281.90 208.30 C 281.39 208.46 280.39 208.78 279.88 208.94 C 280.99 204.01 283.01 199.14 282.56 193.99 C 282.00 187.22 281.12 180.49 280.16 173.78 C 279.09 166.62 277.78 159.48 276.06 152.45 C 275.52 150.15 274.98 147.84 274.57 145.51 C 274.35 144.11 274.24 142.71 274.12 141.30 Z" />
<path fill="#99af8a" opacity="1.00" d=" M 56.19 145.79 C 59.75 148.72 61.62 153.02 64.10 156.79 C 67.26 161.73 70.67 166.54 73.24 171.83 C 74.37 174.27 76.25 176.19 78.06 178.13 C 81.01 186.53 82.49 195.35 84.30 204.05 C 80.53 199.57 78.98 193.82 76.45 188.65 C 72.72 179.85 68.85 171.10 64.33 162.66 C 61.61 157.04 58.34 151.68 56.19 145.79 Z" />
<path fill="#99af8a" opacity="1.00" d=" M 259.24 150.72 C 260.61 159.33 259.57 168.04 257.58 176.46 C 255.68 183.96 256.15 192.20 252.02 199.00 C 248.87 194.33 247.64 188.81 246.31 183.43 C 251.26 178.75 253.14 172.02 256.35 166.20 C 258.91 161.48 259.73 156.03 259.24 150.72 Z" />
<path fill="#99af8a" opacity="1.00" d=" M 343.13 150.71 C 344.64 153.38 345.89 156.21 346.62 159.20 C 346.76 159.78 347.04 160.96 347.17 161.54 C 346.65 161.90 345.60 162.63 345.07 162.99 C 343.71 159.04 342.82 154.91 343.13 150.71 Z" />
<path fill="#99af8a" opacity="1.00" d=" M 141.99 152.70 C 145.36 156.07 147.85 160.16 150.70 163.95 C 150.52 161.28 150.30 158.62 150.08 155.95 C 152.11 160.87 153.27 166.09 153.43 171.41 C 154.09 178.90 157.34 185.80 159.18 193.03 C 161.01 198.98 161.11 205.25 162.35 211.31 C 162.77 214.21 163.70 217.38 162.32 220.16 C 160.87 222.95 158.65 225.30 156.13 227.17 C 155.24 227.74 154.20 228.60 153.09 228.09 C 150.12 227.10 147.53 225.26 144.78 223.82 C 145.78 226.59 146.92 229.32 147.86 232.12 C 149.74 236.70 146.32 241.22 143.81 244.80 C 141.94 244.78 142.26 242.51 141.77 241.25 C 140.45 233.82 138.76 226.44 137.83 218.95 C 137.00 212.48 138.82 206.12 139.52 199.74 C 140.01 195.10 140.72 190.48 141.97 185.98 C 140.12 193.91 142.28 201.81 145.03 209.22 C 146.37 213.81 147.86 218.35 149.53 222.83 C 150.86 222.73 152.20 222.64 153.54 222.55 C 152.80 211.57 154.14 200.58 152.74 189.64 C 152.51 180.22 151.99 170.24 146.18 162.35 C 144.34 159.34 143.05 156.05 141.99 152.70 Z" />
<path fill="#99af8a" opacity="1.00" d=" M 233.25 165.97 C 235.47 170.97 237.43 176.12 238.53 181.50 C 236.08 185.68 237.45 190.56 237.41 195.11 C 237.40 199.91 237.29 204.72 237.87 209.50 C 236.43 210.75 234.93 211.93 233.45 213.13 C 232.49 209.20 231.43 205.30 229.98 201.52 C 228.61 206.89 228.94 212.48 228.07 217.91 C 227.27 222.72 223.78 226.34 221.45 230.42 C 219.12 234.20 217.75 238.56 214.87 241.98 C 213.82 243.42 211.85 242.98 210.32 243.23 C 210.79 237.74 210.92 232.22 210.62 226.72 C 210.24 220.31 211.75 214.02 212.75 207.74 C 213.71 209.19 214.69 210.64 215.67 212.08 C 219.73 204.90 217.77 196.47 218.57 188.66 C 219.71 191.28 220.76 193.94 221.78 196.62 C 222.15 196.60 222.89 196.57 223.26 196.55 C 224.83 193.11 226.40 189.65 228.30 186.37 C 232.68 180.52 233.38 173.04 233.25 165.97 Z" />
<path fill="#99af8a" opacity="1.00" d=" M 130.07 172.83 C 130.95 177.11 133.04 181.01 135.67 184.46 C 136.60 180.53 137.48 176.59 138.49 172.68 C 138.79 173.36 139.41 174.73 139.72 175.41 C 139.95 175.93 140.41 176.98 140.64 177.51 C 141.04 177.01 141.44 176.52 141.84 176.04 C 138.82 183.41 137.32 191.24 134.79 198.76 C 131.49 190.52 132.15 181.39 130.07 172.83 Z" />
<path fill="#99af8a" opacity="1.00" d=" M 305.06 172.35 C 309.22 174.03 307.77 179.52 308.05 183.07 C 307.71 181.93 307.34 180.80 306.98 179.68 C 306.40 179.63 305.24 179.55 304.66 179.50 C 304.74 177.11 304.86 174.73 305.06 172.35 Z" />
<path fill="#99af8a" opacity="1.00" d=" M 375.02 186.42 C 377.49 182.40 380.21 178.12 384.88 176.41 C 382.72 182.42 378.67 187.48 376.04 193.27 C 376.60 193.35 377.73 193.51 378.29 193.59 C 376.84 196.51 374.74 199.03 372.39 201.27 C 371.49 197.72 370.62 194.15 369.58 190.63 C 368.68 195.47 368.78 200.40 368.60 205.30 C 368.31 211.79 364.80 217.49 361.65 222.97 C 359.06 220.26 357.37 216.84 356.96 213.11 C 357.87 213.69 358.79 214.26 359.71 214.85 C 361.44 210.76 362.95 206.59 364.18 202.32 C 366.30 198.53 367.89 194.48 368.97 190.27 C 371.60 190.18 373.83 188.80 375.02 186.42 Z" />
<path fill="#99af8a" opacity="1.00" d=" M 308.69 205.60 C 309.27 205.45 310.43 205.16 311.01 205.02 C 311.18 208.34 311.16 211.76 309.79 214.87 C 307.81 219.72 306.60 224.87 304.27 229.59 C 302.08 226.12 297.96 221.85 300.51 217.55 C 303.15 213.51 306.53 209.96 308.69 205.60 Z" />
<path fill="#99af8a" opacity="1.00" d=" M 235.80 217.85 C 238.19 213.84 240.63 209.67 244.48 206.87 C 245.46 210.54 246.63 214.35 246.02 218.19 C 244.20 227.46 242.88 237.00 238.46 245.48 C 238.14 245.53 237.49 245.63 237.17 245.68 C 235.67 239.69 236.63 233.43 235.59 227.38 C 235.34 224.24 233.88 220.73 235.80 217.85 Z" />
<path fill="#99af8a" opacity="1.00" d=" M 269.95 209.02 C 270.52 210.09 271.14 211.14 271.79 212.17 C 273.54 215.15 275.56 217.97 277.98 220.45 C 277.30 222.53 277.81 226.08 275.01 226.47 C 270.02 222.16 271.07 214.88 269.95 209.02 Z" />
<path fill="#99af8a" opacity="1.00" d=" M 87.24 214.71 C 90.08 226.80 90.35 239.37 93.61 251.38 C 95.28 256.88 96.04 262.62 95.65 268.36 C 92.63 265.55 90.39 262.06 88.48 258.43 C 85.30 252.50 80.53 247.70 76.62 242.29 C 74.78 239.81 72.92 237.31 70.62 235.24 C 70.01 234.63 69.18 234.33 68.44 233.93 C 68.95 233.24 69.46 232.55 69.98 231.86 C 65.15 226.49 58.29 223.79 52.89 219.13 C 58.72 219.93 64.18 222.26 69.55 224.56 C 73.78 226.52 78.08 228.74 81.19 232.30 C 83.93 235.53 86.79 238.67 90.15 241.28 C 89.94 235.86 89.05 230.51 88.14 225.18 C 87.58 221.72 87.38 218.21 87.24 214.71 Z" />
<path fill="#99af8a" opacity="1.00" d=" M 109.17 216.85 C 114.15 227.56 116.61 239.39 116.88 251.17 C 115.57 249.17 114.29 247.16 113.02 245.14 C 112.71 252.21 113.07 259.35 111.90 266.36 C 107.18 260.21 104.48 252.84 102.33 245.47 C 99.83 236.37 97.76 227.16 95.87 217.92 C 99.06 222.07 100.86 227.05 103.57 231.50 C 105.26 234.25 106.52 237.22 107.75 240.20 C 108.65 242.40 110.24 244.17 111.95 245.78 C 111.38 236.11 109.80 226.52 109.17 216.85 Z" />
<path fill="#99af8a" opacity="1.00" d=" M 397.06 238.05 C 401.23 231.35 405.45 224.33 411.99 219.65 C 412.05 220.22 412.16 221.35 412.21 221.91 C 410.85 225.87 408.66 229.52 407.59 233.59 C 405.94 239.73 405.05 246.08 405.14 252.45 L 405.08 253.43 C 407.47 253.12 409.86 252.83 412.26 252.57 C 409.64 254.22 405.93 254.60 403.33 252.73 C 402.46 249.56 402.00 246.26 400.52 243.30 C 398.56 246.99 396.66 250.74 394.35 254.23 C 391.37 250.48 389.19 245.73 390.97 240.92 C 391.20 242.69 391.44 244.46 391.70 246.23 C 393.98 243.85 395.52 240.93 397.06 238.05 Z" />
<path fill="#99af8a" opacity="1.00" d=" M 157.19 235.03 C 157.71 231.36 160.43 228.58 162.83 225.96 C 162.48 230.37 161.94 234.93 159.74 238.86 C 157.58 239.33 157.23 236.59 157.19 235.03 Z" />
<path fill="#99af8a" opacity="1.00" d=" M 376.59 243.33 C 378.81 240.08 380.77 236.60 381.86 232.80 C 380.76 238.35 379.81 243.99 377.48 249.20 C 374.34 244.62 375.38 238.93 375.32 233.73 C 375.54 236.95 376.05 240.15 376.59 243.33 Z" />
</g>
</svg>
