<?xml version="1.0" encoding="UTF-8" ?>
<!DOCTYPE svg PUBLIC "-//W3C//DTD SVG 1.1//EN" "http://www.w3.org/Graphics/SVG/1.1/DTD/svg11.dtd">
<svg width="581pt" height="288pt" viewBox="0 0 581 288" version="1.1" xmlns="http://www.w3.org/2000/svg">
<g id="#fdfef1ff">
</g>
<g id="#52612eff">
<path fill="#52612e" opacity="1.00" d=" M 81.97 29.25 C 97.98 26.85 114.14 30.89 130.16 28.65 C 142.64 28.47 155.25 28.11 167.53 30.66 C 175.48 32.24 182.75 36.64 191.01 36.66 C 201.70 36.78 212.39 36.86 223.06 36.39 C 245.06 34.50 266.98 31.82 288.95 29.70 C 299.29 29.21 309.65 29.31 319.99 29.28 C 330.85 29.12 341.55 31.62 351.87 34.77 C 371.64 41.69 389.76 52.45 407.39 63.59 C 416.41 69.50 425.46 75.38 434.21 81.69 C 437.42 84.16 440.22 87.19 442.24 90.71 C 445.10 95.18 445.36 100.95 449.11 104.91 C 457.09 114.15 461.05 125.97 468.34 135.66 C 473.97 143.22 482.84 147.49 491.64 150.20 C 501.88 152.73 512.58 153.54 522.40 157.63 C 527.50 159.41 531.79 162.75 536.05 165.95 C 546.43 174.00 558.17 179.99 568.85 187.60 C 567.28 190.62 564.83 193.05 562.84 195.79 C 558.83 193.72 555.35 190.80 551.45 188.54 C 541.85 183.08 532.66 176.87 524.03 169.98 C 518.72 166.54 512.40 165.08 506.29 163.75 C 500.76 162.42 495.24 164.27 489.76 164.94 C 475.22 166.86 460.57 167.79 446.00 169.42 C 436.96 169.76 428.08 172.04 419.00 171.61 C 410.96 172.08 403.03 170.59 395.01 170.61 C 375.97 170.04 357.04 167.48 337.97 167.59 C 326.48 166.82 315.80 162.12 304.96 158.65 C 300.69 157.22 296.16 157.23 291.71 157.27 C 287.40 165.51 289.39 175.09 287.51 183.88 C 286.67 188.49 285.10 193.26 281.57 196.53 C 278.53 199.66 273.36 200.24 271.38 204.45 C 267.64 211.57 265.86 219.49 262.97 226.95 C 260.67 234.01 256.53 241.26 249.36 244.23 C 234.33 249.17 218.40 250.20 202.95 253.30 C 193.50 254.06 184.30 256.45 175.14 258.76 C 166.23 260.89 157.02 260.04 148.02 261.29 C 136.70 261.15 125.32 261.90 114.05 260.54 C 104.35 260.75 94.73 259.49 85.04 259.29 C 74.19 257.74 63.14 257.17 52.55 254.15 C 45.55 252.07 40.26 246.44 36.65 240.31 C 33.12 232.57 31.35 223.76 33.15 215.34 C 36.14 199.76 46.62 186.65 58.84 177.04 C 65.86 171.33 73.96 167.23 81.53 162.35 C 91.85 155.61 98.79 144.90 103.48 133.72 C 105.83 128.51 108.59 122.63 114.33 120.48 C 120.39 118.10 126.79 116.71 133.06 114.98 C 142.93 112.81 154.01 110.48 163.39 115.60 C 172.04 120.17 181.46 125.23 191.60 123.32 C 194.65 122.22 197.82 120.50 199.34 117.49 C 200.04 114.56 199.92 110.84 197.20 108.96 C 190.44 104.33 182.44 102.02 174.69 99.63 C 162.54 96.48 150.31 93.53 138.46 89.37 C 129.43 85.51 120.59 81.23 111.46 77.63 C 92.65 67.75 73.58 58.15 56.13 45.91 C 53.75 44.39 51.51 42.39 48.73 41.68 C 40.26 41.98 31.47 43.53 23.14 41.84 C 22.13 38.78 23.76 35.43 23.69 32.23 C 43.18 33.00 62.52 29.57 81.97 29.25 M 278.68 41.09 C 266.46 42.37 254.24 43.70 242.05 45.25 C 223.63 46.13 205.11 48.95 186.68 46.63 C 179.40 45.85 172.72 42.73 165.70 40.95 C 156.47 38.61 146.88 39.58 137.47 39.20 C 137.42 39.76 137.34 40.88 137.29 41.44 C 150.19 46.34 162.54 52.69 175.70 56.91 C 190.93 59.50 206.75 57.78 221.71 62.19 C 226.05 63.68 230.91 65.51 233.23 69.78 C 237.53 77.78 238.71 87.02 242.71 95.13 C 244.66 99.28 248.92 101.85 253.43 102.20 C 264.11 103.40 273.06 109.89 283.24 112.76 C 287.01 113.87 290.98 113.35 294.85 113.55 C 303.30 114.09 311.61 116.20 319.38 119.54 C 329.99 123.93 341.66 127.09 353.16 124.78 C 365.42 124.08 377.74 124.77 390.02 124.41 C 392.77 124.24 395.59 123.96 398.16 122.89 C 405.68 119.10 412.75 114.51 419.74 109.82 C 424.71 106.36 430.41 104.05 435.13 100.22 C 432.83 94.50 428.47 89.83 423.22 86.69 C 416.47 82.55 410.15 77.76 403.48 73.49 C 385.87 62.44 367.95 51.44 348.25 44.50 C 338.75 41.73 328.97 39.18 319.00 39.40 C 305.54 39.45 292.04 39.21 278.68 41.09 M 140.62 125.52 C 136.34 128.92 132.43 133.11 130.47 138.30 C 128.82 142.55 129.88 147.67 133.05 150.94 C 136.86 155.09 141.46 158.39 145.67 162.11 C 143.48 166.49 140.23 170.34 138.74 175.05 C 139.08 182.01 142.53 188.32 144.32 194.96 C 142.31 201.09 136.88 205.09 132.71 209.71 C 127.39 214.77 122.01 220.28 119.64 227.41 C 118.41 232.01 120.45 236.59 120.43 241.21 C 118.25 241.82 115.97 242.87 113.68 242.14 C 109.43 241.15 106.15 237.80 101.80 237.11 C 94.61 235.86 87.29 235.36 80.00 235.68 C 72.31 235.23 64.59 235.95 57.13 237.84 C 55.56 238.18 54.36 239.29 53.40 240.53 C 63.49 238.56 73.80 239.50 84.00 239.31 C 89.19 239.36 94.41 238.98 99.56 239.65 C 104.54 241.30 108.97 244.54 114.29 245.12 C 120.48 245.73 126.74 244.95 132.93 245.64 C 141.05 247.05 149.98 246.68 157.41 242.89 C 157.38 242.38 157.31 241.35 157.27 240.84 C 153.76 240.36 149.18 240.43 147.65 236.47 C 146.82 230.89 148.60 224.43 153.22 220.91 C 154.31 229.33 159.57 236.63 159.92 245.18 C 163.71 247.54 170.80 249.48 172.92 244.11 C 170.77 243.09 167.78 242.80 166.81 240.28 C 164.96 236.20 162.86 232.25 160.71 228.32 C 159.04 225.76 159.74 222.65 159.94 219.81 C 162.68 223.47 165.80 226.84 168.34 230.66 C 170.24 233.45 170.84 236.82 172.08 239.90 C 173.66 243.38 178.31 245.93 181.79 243.43 C 179.76 238.45 175.49 234.55 174.61 229.11 C 173.70 224.07 171.58 219.41 169.78 214.66 C 168.99 211.22 168.33 206.24 172.26 204.47 C 178.26 201.64 185.20 201.67 191.21 198.74 C 190.85 198.29 190.13 197.40 189.77 196.95 C 185.75 195.27 181.47 194.16 177.73 191.84 C 186.09 190.25 194.91 193.52 203.06 190.35 C 205.82 189.56 208.61 187.60 211.57 188.60 C 215.74 190.00 219.99 191.39 224.44 191.46 C 224.36 189.76 225.05 187.69 223.63 186.37 C 220.53 182.31 214.77 182.89 210.86 180.03 C 205.13 176.14 199.35 172.30 193.83 168.11 C 189.25 164.74 188.61 158.32 184.26 154.76 C 179.96 153.18 175.68 155.58 171.37 155.75 C 170.64 147.63 175.17 140.10 174.48 131.97 C 174.09 128.87 171.00 126.73 168.03 126.62 C 162.48 126.91 157.72 129.99 152.98 132.54 C 150.90 131.55 150.27 128.30 148.53 126.58 C 146.99 123.80 142.93 123.65 140.62 125.52 Z" />
<path fill="#52612e" opacity="1.00" d=" M 176.85 162.60 C 179.03 162.47 181.23 162.45 183.42 162.52 C 183.48 164.94 183.50 167.36 183.51 169.79 C 179.88 170.54 177.25 168.02 175.50 165.17 C 175.83 164.53 176.51 163.24 176.85 162.60 Z" />
<path fill="#52612e" opacity="1.00" d=" M 138.36 228.39 C 138.84 228.34 139.81 228.25 140.29 228.20 C 140.49 232.39 141.48 236.48 142.06 240.63 C 139.21 240.50 135.57 240.09 134.47 236.94 C 134.82 233.76 136.72 231.04 138.36 228.39 Z" />
</g>
</svg>
