<?xml version="1.0" encoding="UTF-8" ?>
<!DOCTYPE svg PUBLIC "-//W3C//DTD SVG 1.1//EN" "http://www.w3.org/Graphics/SVG/1.1/DTD/svg11.dtd">
<svg width="444pt" height="398pt" viewBox="0 0 444 398" version="1.1" xmlns="http://www.w3.org/2000/svg">
<g id="#f1f3e3ff">
</g>
<g id="#545e2aff">
<path fill="#545e2a" opacity="1.00" d=" M 371.39 8.33 C 377.51 7.23 383.79 7.33 389.99 7.59 C 396.97 7.86 404.17 10.85 408.26 16.70 C 410.89 20.59 410.52 25.51 410.45 29.98 C 410.11 42.11 407.06 53.92 405.69 65.94 C 404.65 74.76 407.03 83.42 409.16 91.88 C 411.73 101.90 412.52 112.56 410.26 122.71 C 408.50 128.52 403.41 134.19 397.01 134.40 C 389.29 133.65 383.39 126.98 381.18 119.89 C 377.64 108.36 379.80 96.09 377.56 84.36 C 376.56 78.62 375.13 72.46 370.66 68.36 C 365.60 63.65 361.05 58.39 357.44 52.49 C 352.52 45.13 348.49 36.90 347.56 28.00 C 347.05 23.11 349.40 18.19 353.43 15.42 C 358.74 11.68 365.06 9.57 371.39 8.33 M 360.66 22.65 C 358.34 23.79 356.99 26.36 357.67 28.92 C 359.34 37.41 364.55 44.62 369.45 51.55 C 374.03 58.33 381.62 62.88 384.40 70.87 C 389.04 83.00 389.64 96.24 389.40 109.09 C 389.23 115.31 392.45 121.37 397.81 124.57 C 399.87 119.99 401.71 115.11 401.49 110.00 C 401.12 101.57 398.58 93.45 396.84 85.24 C 395.43 78.60 395.34 71.77 395.60 65.02 C 395.86 56.48 398.80 48.31 399.45 39.82 C 399.79 34.58 400.10 29.32 399.76 24.07 C 399.61 20.29 395.30 18.77 392.22 17.92 C 381.58 16.09 370.20 17.43 360.66 22.65 Z" />
<path fill="#545e2a" opacity="1.00" d=" M 246.08 24.03 C 252.78 17.44 263.55 14.58 272.29 18.64 C 283.38 23.53 291.86 34.72 292.33 47.00 C 293.69 62.17 287.75 76.93 289.51 92.09 C 296.75 91.42 302.26 85.88 306.00 80.07 C 308.65 75.85 311.06 70.89 315.93 68.85 C 323.16 65.78 331.78 67.39 338.17 71.72 C 344.98 76.07 351.50 82.49 352.33 90.96 C 352.98 99.61 347.98 107.33 342.78 113.78 C 338.72 118.71 334.30 123.33 329.88 127.93 C 326.00 131.87 324.02 137.22 320.19 141.21 C 314.85 146.92 307.49 150.43 302.64 156.63 C 299.74 161.20 300.61 166.96 300.98 172.07 C 302.10 182.01 303.02 192.00 302.58 202.01 C 302.33 208.93 297.66 215.49 291.35 218.22 C 285.75 220.63 279.65 218.12 274.59 215.54 C 267.74 211.67 260.72 207.41 256.08 200.87 C 250.41 192.51 247.75 182.13 248.73 172.06 C 249.42 165.18 250.38 158.20 253.19 151.82 C 256.38 144.01 261.43 136.62 261.78 127.95 C 262.20 122.85 259.16 117.59 254.35 115.71 C 248.24 112.92 241.41 113.73 234.95 114.28 C 230.21 114.74 225.60 112.95 221.83 110.19 C 215.61 105.78 209.14 100.39 207.31 92.61 C 205.49 86.25 207.35 79.64 209.73 73.70 C 213.52 63.34 220.22 54.44 226.85 45.76 C 232.94 38.25 239.14 30.79 246.08 24.03 M 259.43 27.55 C 256.69 28.49 254.56 30.54 252.49 32.47 C 246.20 38.54 240.39 45.10 234.90 51.91 C 226.93 62.84 218.75 74.41 216.56 88.07 C 216.66 93.28 221.32 96.90 224.94 100.06 C 231.36 105.47 240.25 103.71 247.96 104.15 C 261.14 103.99 274.18 116.36 272.06 129.96 C 270.62 144.19 260.20 155.46 258.59 169.63 C 258.23 174.35 258.81 179.09 259.40 183.77 C 260.33 190.71 265.18 196.28 270.23 200.76 C 274.59 204.42 279.43 208.02 285.16 209.07 C 289.41 210.16 292.08 205.37 292.60 201.82 C 293.71 191.09 291.17 180.45 289.97 169.84 C 289.41 164.87 289.40 159.53 291.96 155.06 C 297.90 144.23 310.09 139.02 316.85 128.86 C 321.07 122.54 326.01 116.74 331.31 111.31 C 336.55 105.82 342.54 99.27 341.95 91.13 C 340.28 86.31 336.14 82.74 332.08 79.87 C 328.32 77.59 322.64 75.31 318.97 78.92 C 315.56 82.96 313.96 88.34 309.83 91.84 C 305.71 95.42 301.59 99.30 296.52 101.47 C 292.58 102.47 287.82 103.04 284.22 100.79 C 279.15 95.96 276.95 88.32 278.45 81.48 C 279.59 76.00 280.31 70.45 280.69 64.87 C 281.12 58.84 283.03 52.87 282.29 46.79 C 281.50 39.76 276.98 33.71 271.61 29.37 C 268.26 26.57 263.46 26.23 259.43 27.55 Z" />
<path fill="#545e2a" opacity="1.00" d=" M 135.41 49.47 C 140.43 38.20 152.62 30.54 165.01 31.55 C 174.11 31.75 182.69 39.71 182.67 48.99 C 182.86 54.40 183.22 60.31 180.07 65.03 C 175.07 72.97 166.75 79.34 165.41 89.15 C 165.02 94.98 164.48 101.11 166.35 106.74 C 168.57 112.90 175.45 114.95 179.27 119.80 C 185.13 127.02 187.60 136.84 186.06 145.99 C 184.98 153.59 179.53 160.34 172.59 163.43 C 160.64 167.69 149.03 157.60 137.00 161.00 C 131.89 162.71 127.73 167.46 127.28 172.92 C 126.28 180.34 126.65 188.50 121.76 194.73 C 115.10 203.32 112.70 214.37 105.81 222.80 C 101.48 228.13 95.10 232.31 88.04 232.26 C 79.31 232.21 69.81 228.82 65.05 221.10 C 62.25 214.79 63.80 207.59 65.22 201.12 C 66.86 194.93 67.97 188.23 72.14 183.13 C 78.39 175.45 89.05 173.03 95.08 165.14 C 97.74 158.23 92.77 151.51 88.68 146.34 C 80.69 136.41 66.77 134.10 58.96 124.02 C 54.75 119.00 52.10 112.91 50.12 106.72 C 47.73 99.03 46.49 90.66 48.71 82.77 C 51.01 74.69 54.05 66.24 60.62 60.61 C 65.41 56.23 72.44 54.32 78.73 56.20 C 83.74 57.53 87.73 61.10 91.10 64.88 C 95.71 70.07 99.40 76.26 100.84 83.12 C 102.17 88.51 102.30 94.53 105.86 99.09 C 110.37 104.84 114.71 111.23 121.59 114.36 C 127.71 102.01 132.11 88.57 132.63 74.71 C 133.16 66.28 131.28 57.28 135.41 49.47 Z" />
<path fill="#545e2a" opacity="1.00" d=" M 360.33 135.88 C 365.74 134.99 371.79 135.19 376.31 138.68 C 379.70 141.11 380.55 145.64 383.53 148.38 C 389.39 149.61 395.62 148.58 401.32 150.63 C 405.82 152.45 410.26 155.99 411.19 161.00 C 411.95 167.07 409.71 172.91 407.88 178.58 C 406.08 183.99 405.17 189.92 401.52 194.49 C 396.18 201.23 388.34 205.27 382.39 211.36 C 379.43 214.06 380.09 218.40 380.10 222.00 C 380.28 230.60 384.29 238.50 385.15 247.00 C 386.35 260.00 385.71 273.50 380.69 285.70 C 378.17 291.63 373.65 296.98 367.66 299.57 C 360.55 301.80 351.93 297.67 349.50 290.51 C 347.07 283.34 348.38 275.62 347.15 268.27 C 346.61 265.60 345.76 262.18 342.70 261.46 C 334.02 259.06 323.75 260.79 316.39 254.64 C 311.18 250.39 312.27 242.93 312.48 236.99 C 313.29 228.66 320.55 223.27 326.86 218.80 C 329.17 216.91 332.09 215.00 332.64 211.83 C 333.80 203.50 331.91 195.20 330.90 186.96 C 329.62 173.68 330.11 159.24 337.85 147.82 C 343.29 140.94 351.69 136.85 360.33 135.88 Z" />
<path fill="#545e2a" opacity="1.00" d=" M 183.09 181.04 C 188.42 176.42 196.13 175.26 202.79 177.22 C 208.74 179.39 212.63 184.79 216.67 189.38 C 223.24 197.06 225.38 207.30 226.44 217.08 C 227.42 226.33 229.97 235.30 232.40 244.25 C 234.50 252.30 236.51 261.25 243.18 266.86 C 247.79 270.86 254.27 269.62 259.86 269.69 C 259.96 262.20 257.52 255.07 255.44 247.98 C 257.27 247.50 259.11 247.02 260.94 246.53 C 262.29 250.53 263.60 254.55 264.99 258.54 C 267.11 253.95 269.05 249.27 271.77 245.00 C 273.23 246.02 274.68 247.03 276.14 248.04 C 274.01 253.04 271.94 258.07 270.16 263.21 C 273.74 260.59 277.17 257.77 280.68 255.07 C 282.01 256.13 283.34 257.20 284.68 258.26 C 281.43 262.75 277.02 266.14 272.59 269.37 C 280.73 271.74 289.95 271.83 296.96 277.07 C 304.06 283.51 304.82 294.03 304.26 303.01 C 303.81 310.58 299.16 319.17 290.98 320.25 C 284.56 321.20 279.10 316.82 272.94 316.15 C 268.20 315.71 264.42 319.20 261.35 322.33 C 255.14 328.68 251.78 337.21 245.45 343.45 C 239.94 349.02 233.76 353.97 226.97 357.90 C 220.38 361.53 212.82 364.62 205.17 363.00 C 197.71 361.60 192.38 355.24 189.57 348.55 C 187.39 343.77 186.87 338.36 184.22 333.79 C 182.32 330.63 178.10 331.33 174.99 331.46 C 164.49 332.77 154.56 337.13 143.94 337.73 C 137.71 338.06 131.19 338.04 125.35 335.57 C 120.11 333.13 118.60 326.47 120.06 321.27 C 122.40 312.05 124.62 302.28 130.79 294.75 C 134.72 289.76 141.11 288.09 146.33 284.88 C 140.92 283.74 135.41 283.26 129.95 282.46 C 128.61 282.06 126.77 282.21 125.94 280.88 C 125.64 279.46 125.41 278.03 125.25 276.60 C 131.28 276.43 137.23 277.51 143.24 277.87 C 139.99 274.54 136.20 271.72 133.40 267.99 C 134.42 266.66 135.63 265.48 137.00 264.52 C 142.35 267.64 146.42 272.47 151.45 276.06 C 151.53 272.19 151.64 268.33 151.81 264.47 C 153.67 264.77 155.79 264.42 157.46 265.44 C 157.94 269.88 157.41 274.36 157.69 278.82 C 162.11 276.41 166.58 273.06 167.99 267.98 C 169.79 261.84 167.34 255.63 165.34 249.87 C 162.05 240.14 157.33 230.52 157.53 220.00 C 157.24 211.30 160.48 202.71 165.97 196.02 C 170.82 190.12 177.33 185.96 183.09 181.04 M 188.29 190.25 C 182.20 195.46 175.08 199.89 171.08 207.07 C 167.68 212.45 167.88 219.07 168.16 225.18 C 168.43 231.56 171.74 237.20 174.01 243.02 C 178.29 252.28 180.24 263.19 177.09 273.08 C 172.06 283.85 161.05 290.09 150.56 294.61 C 145.97 296.66 140.65 298.30 137.81 302.79 C 133.16 310.05 130.88 318.63 130.18 327.16 C 136.19 327.73 142.29 327.97 148.29 327.14 C 157.06 326.08 165.15 321.87 174.04 321.46 C 179.48 321.27 186.06 320.47 190.15 324.91 C 197.28 331.78 196.02 343.15 202.71 350.30 C 205.00 352.92 208.72 353.89 212.07 353.10 C 220.79 351.60 227.38 345.21 234.21 340.11 C 241.01 335.07 244.28 326.99 249.50 320.57 C 254.48 314.13 260.66 307.51 269.08 306.12 C 275.71 304.74 281.82 308.44 288.14 309.68 C 290.81 310.50 292.85 307.91 293.32 305.57 C 294.17 300.03 294.27 294.11 292.30 288.79 C 290.39 283.46 284.22 282.00 279.31 280.88 C 269.61 279.50 259.77 280.73 250.02 280.04 C 244.85 279.66 239.71 277.76 235.92 274.15 C 228.96 268.10 225.47 259.17 223.42 250.40 C 221.68 242.53 218.84 234.91 217.79 226.89 C 216.89 220.27 215.62 213.71 214.35 207.16 C 213.15 200.90 209.12 195.69 204.76 191.24 C 202.69 189.26 200.50 187.17 197.69 186.33 C 194.06 185.56 190.97 188.21 188.29 190.25 Z" />
<path fill="#545e2a" opacity="1.00" d=" M 178.77 218.54 C 184.46 216.20 193.29 217.31 195.30 224.05 C 194.93 227.51 192.22 230.05 190.20 232.67 C 185.62 230.83 180.59 229.49 176.90 226.04 C 174.29 223.92 175.72 219.43 178.77 218.54 M 182.45 222.11 C 182.55 222.63 182.73 223.68 182.82 224.21 C 185.01 225.27 187.18 226.37 189.35 227.46 C 188.11 224.45 185.82 222.31 182.45 222.11 Z" />
<path fill="#545e2a" opacity="1.00" d=" M 202.11 221.27 C 205.37 219.25 210.46 218.76 213.08 222.05 C 214.95 224.23 215.00 227.82 212.77 229.78 C 208.19 234.41 201.05 233.39 195.15 233.26 C 196.47 228.85 198.00 223.89 202.11 221.27 M 201.01 229.78 C 203.37 229.01 205.71 228.19 208.05 227.37 C 207.34 226.36 206.66 225.33 205.90 224.37 C 203.88 225.78 202.45 227.81 201.01 229.78 Z" />
<path fill="#545e2a" opacity="1.00" d=" M 35.36 228.25 C 41.71 226.34 49.42 226.78 54.49 231.46 C 64.21 239.87 68.23 252.81 70.62 265.01 C 77.35 263.60 84.06 261.67 90.98 261.61 C 96.42 261.65 102.55 264.60 104.22 270.12 C 105.76 276.94 103.98 284.24 100.06 289.95 C 94.42 298.29 87.66 305.78 80.99 313.30 C 89.57 324.23 99.93 333.62 108.27 344.74 C 110.92 348.32 113.57 352.36 113.49 357.00 C 113.40 364.03 108.48 370.37 102.15 373.11 C 91.16 378.15 78.08 376.87 67.38 371.72 C 59.36 368.17 52.06 363.23 45.26 357.74 C 41.22 354.23 37.62 349.54 37.32 344.01 C 36.89 338.92 36.75 333.74 35.13 328.85 C 30.00 312.91 23.09 297.60 18.46 281.50 C 14.41 270.21 12.09 257.03 17.87 245.92 C 21.99 238.71 27.28 231.24 35.36 228.25 M 40.15 237.64 C 34.65 239.33 30.57 243.88 27.97 248.84 C 25.83 252.90 23.55 257.36 24.38 262.10 C 28.26 286.01 39.60 307.74 46.04 330.93 C 47.50 335.59 46.62 340.59 47.87 345.27 C 49.49 348.16 52.31 350.10 54.74 352.26 C 61.02 357.69 68.38 361.77 75.99 365.02 C 81.92 366.67 88.31 366.14 94.32 365.16 C 98.00 364.17 103.19 361.81 102.67 357.23 C 102.03 351.14 96.89 347.15 93.15 342.82 C 86.86 335.49 79.13 329.36 73.92 321.14 C 71.46 317.02 69.73 311.27 73.09 307.13 C 79.78 298.51 88.31 291.15 93.26 281.27 C 94.85 278.44 94.57 275.15 94.25 272.06 C 88.75 271.79 82.94 271.24 77.78 273.61 C 73.17 275.44 69.79 279.27 65.39 281.45 C 62.91 282.96 60.26 280.74 58.96 278.70 C 58.63 273.60 60.72 268.53 59.50 263.44 C 57.83 255.57 55.71 247.10 49.68 241.36 C 47.12 239.13 43.77 236.50 40.15 237.64 Z" />
<path fill="#545e2a" opacity="1.00" d=" M 408.45 297.43 C 414.22 295.99 420.93 294.23 426.36 297.66 C 430.38 300.16 429.98 305.73 428.96 309.73 C 425.82 319.72 417.55 327.50 415.98 338.11 C 420.93 339.92 426.18 342.26 428.96 347.03 C 431.79 351.35 430.17 357.26 426.71 360.73 C 421.81 365.55 414.77 367.70 407.99 367.58 C 395.10 367.96 382.05 364.47 369.30 367.56 C 362.97 368.94 359.13 374.67 353.69 377.69 C 344.70 382.74 335.28 387.60 324.95 389.08 C 317.66 390.21 309.85 386.15 306.71 379.44 C 302.14 368.98 301.74 357.26 302.71 346.04 C 303.26 339.16 306.92 332.43 312.84 328.76 C 318.05 325.72 324.35 327.42 329.98 326.03 C 341.28 323.15 351.99 318.45 363.00 314.68 C 368.83 312.48 374.34 309.52 380.24 307.46 C 389.65 304.14 398.92 300.42 408.45 297.43 M 379.95 318.99 C 362.76 324.60 346.59 333.57 328.60 336.56 C 324.23 337.54 318.01 335.64 315.50 340.44 C 310.17 349.02 311.66 359.80 313.82 369.14 C 314.86 373.00 316.36 378.27 321.08 378.78 C 330.58 379.81 339.22 374.65 347.12 370.07 C 353.05 366.79 357.50 361.06 364.18 359.14 C 372.89 356.50 382.13 356.03 391.14 357.04 C 397.53 357.30 403.90 358.55 410.29 358.10 C 414.54 357.86 417.87 355.01 420.64 352.06 C 416.95 349.75 412.85 348.13 409.26 345.66 C 405.67 343.13 405.41 338.16 406.23 334.23 C 408.34 323.96 415.71 315.96 419.34 306.30 C 405.46 307.66 392.64 313.62 379.95 318.99 Z" />
</g>
<g id="#948f78ff">
<path fill="#948f78" opacity="1.00" d=" M 259.43 27.55 C 263.46 26.23 268.26 26.57 271.61 29.37 C 276.98 33.71 281.50 39.76 282.29 46.79 C 283.03 52.87 281.12 58.84 280.69 64.87 C 280.31 70.45 279.59 76.00 278.45 81.48 C 276.95 88.32 279.15 95.96 284.22 100.79 C 287.82 103.04 292.58 102.47 296.52 101.47 C 301.59 99.30 305.71 95.42 309.83 91.84 C 313.96 88.34 315.56 82.96 318.97 78.92 C 322.64 75.31 328.32 77.59 332.08 79.87 C 336.14 82.74 340.28 86.31 341.95 91.13 C 342.54 99.27 336.55 105.82 331.31 111.31 C 326.01 116.74 321.07 122.54 316.85 128.86 C 310.09 139.02 297.90 144.23 291.96 155.06 C 289.40 159.53 289.41 164.87 289.97 169.84 C 291.17 180.45 293.71 191.09 292.60 201.82 C 292.08 205.37 289.41 210.16 285.16 209.07 C 279.43 208.02 274.59 204.42 270.23 200.76 C 265.18 196.28 260.33 190.71 259.40 183.77 C 258.81 179.09 258.23 174.35 258.59 169.63 C 260.20 155.46 270.62 144.19 272.06 129.96 C 274.18 116.36 261.14 103.99 247.96 104.15 C 240.25 103.71 231.36 105.47 224.94 100.06 C 221.32 96.90 216.66 93.28 216.56 88.07 C 218.75 74.41 226.93 62.84 234.90 51.91 C 240.39 45.10 246.20 38.54 252.49 32.47 C 254.56 30.54 256.69 28.49 259.43 27.55 Z" />
<path fill="#948f78" opacity="1.00" d=" M 40.15 237.64 C 43.77 236.50 47.12 239.13 49.68 241.36 C 55.71 247.10 57.83 255.57 59.50 263.44 C 60.72 268.53 58.63 273.60 58.96 278.70 C 60.26 280.74 62.91 282.96 65.39 281.45 C 69.79 279.27 73.17 275.44 77.78 273.61 C 82.94 271.24 88.75 271.79 94.25 272.06 C 94.57 275.15 94.85 278.44 93.26 281.27 C 88.31 291.15 79.78 298.51 73.09 307.13 C 69.73 311.27 71.46 317.02 73.92 321.14 C 79.13 329.36 86.86 335.49 93.15 342.82 C 96.89 347.15 102.03 351.14 102.67 357.23 C 103.19 361.81 98.00 364.17 94.32 365.16 C 88.31 366.14 81.92 366.67 75.99 365.02 C 68.38 361.77 61.02 357.69 54.74 352.26 C 52.31 350.10 49.49 348.16 47.87 345.27 C 46.62 340.59 47.50 335.59 46.04 330.93 C 39.60 307.74 28.26 286.01 24.38 262.10 C 23.55 257.36 25.83 252.90 27.97 248.84 C 30.57 243.88 34.65 239.33 40.15 237.64 Z" />
<path fill="#948f78" opacity="1.00" d=" M 379.95 318.99 C 392.64 313.62 405.46 307.66 419.34 306.30 C 415.71 315.96 408.34 323.96 406.23 334.23 C 405.41 338.16 405.67 343.13 409.26 345.66 C 412.85 348.13 416.95 349.75 420.64 352.06 C 417.87 355.01 414.54 357.86 410.29 358.10 C 403.90 358.55 397.53 357.30 391.14 357.04 C 382.13 356.03 372.89 356.50 364.18 359.14 C 357.50 361.06 353.05 366.79 347.12 370.07 C 339.22 374.65 330.58 379.81 321.08 378.78 C 316.36 378.27 314.86 373.00 313.82 369.14 C 311.66 359.80 310.17 349.02 315.50 340.44 C 318.01 335.64 324.23 337.54 328.60 336.56 C 346.59 333.57 362.76 324.60 379.95 318.99 Z" />
</g>
</svg>
