<?xml version="1.0" encoding="UTF-8" ?>
<!DOCTYPE svg PUBLIC "-//W3C//DTD SVG 1.1//EN" "http://www.w3.org/Graphics/SVG/1.1/DTD/svg11.dtd">
<svg width="564pt" height="377pt" viewBox="0 0 564 377" version="1.1" xmlns="http://www.w3.org/2000/svg">
<g id="#f4f7e4ff">
</g>
<g id="#60662bff">
<path fill="#60662b" opacity="1.00" d=" M 222.12 25.97 C 227.43 25.43 232.55 23.85 237.83 23.13 C 238.67 25.30 239.42 27.52 240.01 29.78 C 232.92 32.73 225.05 32.46 217.60 33.86 C 209.64 34.82 201.61 37.18 195.32 42.33 C 190.95 46.55 191.09 53.07 189.48 58.54 C 185.93 71.12 180.67 83.29 178.76 96.30 C 189.89 93.09 201.32 89.86 213.03 90.57 C 218.18 90.64 222.51 93.75 226.78 96.25 C 231.15 99.09 236.05 101.44 239.32 105.64 C 241.19 107.92 242.26 110.70 243.30 113.43 C 248.83 112.11 253.66 108.90 258.99 106.97 C 269.03 102.07 279.84 97.92 287.90 89.90 C 289.99 87.66 292.43 85.21 292.58 81.96 C 292.89 75.56 292.35 69.15 292.89 62.76 C 295.30 62.68 297.71 62.66 300.12 62.73 C 300.12 72.32 301.87 82.94 296.52 91.53 C 290.43 100.51 280.32 105.51 270.66 109.76 C 259.83 115.29 248.23 119.34 237.98 125.98 C 233.46 128.81 231.07 133.76 227.74 137.73 C 220.14 147.09 211.95 156.62 200.85 161.90 C 194.04 165.24 186.27 163.30 179.22 161.91 C 180.64 165.71 180.78 169.78 180.21 173.76 C 189.12 182.96 200.28 189.60 209.24 198.76 C 215.25 204.12 219.23 211.34 222.12 218.77 C 226.77 231.66 225.27 245.56 225.40 258.99 C 225.68 266.71 224.35 274.36 223.97 282.06 C 221.71 291.25 222.49 300.75 221.83 310.11 C 219.70 309.52 217.18 309.03 216.10 306.84 C 214.28 303.18 214.68 298.92 214.81 294.97 C 215.89 281.63 218.94 268.45 218.55 255.01 C 218.39 248.22 218.99 241.37 218.13 234.61 C 216.65 227.48 215.05 220.19 211.18 213.91 C 208.24 208.41 203.89 203.81 199.04 199.94 C 190.85 193.12 182.68 186.25 174.20 179.81 C 173.67 181.34 172.15 182.95 173.29 184.58 C 177.04 191.30 183.40 195.95 189.14 200.86 C 199.09 209.97 204.51 223.59 204.41 237.00 C 204.40 241.33 204.36 245.66 204.41 250.00 C 204.69 258.91 201.82 267.47 199.88 276.07 C 196.86 286.55 193.27 297.32 195.00 308.38 C 191.87 308.50 187.40 307.89 187.12 303.94 C 186.01 296.01 188.78 288.20 190.58 280.57 C 192.79 270.77 196.93 261.24 196.75 251.03 C 196.55 243.06 197.39 234.97 195.74 227.10 C 194.78 221.87 191.66 217.45 189.07 212.92 C 185.22 206.00 178.24 201.83 172.26 196.96 C 175.35 206.11 178.50 215.24 181.30 224.48 C 185.68 239.81 183.92 256.34 178.03 271.02 C 174.33 280.05 169.48 288.74 167.56 298.40 C 167.54 301.82 170.20 305.15 168.48 308.57 C 166.00 310.13 162.50 308.25 161.05 306.01 C 159.16 301.56 159.95 296.48 161.07 291.92 C 163.98 282.12 169.30 273.25 172.63 263.60 C 174.72 256.94 175.56 249.97 176.13 243.04 C 176.38 234.42 173.07 226.30 171.01 218.07 C 168.68 208.90 165.94 199.46 160.33 191.72 C 155.96 190.57 151.17 192.00 146.78 192.80 C 147.91 202.82 149.40 212.89 148.56 222.99 C 148.07 227.02 146.58 230.84 145.20 234.63 C 142.84 234.31 140.48 233.96 138.13 233.61 C 138.55 227.47 142.10 221.73 140.87 215.50 C 140.03 209.17 140.02 202.67 138.10 196.53 C 136.52 196.63 135.73 197.44 135.74 198.99 C 135.18 211.14 136.77 223.60 133.29 235.45 C 132.72 236.92 131.43 237.92 130.39 239.05 C 128.72 236.66 126.93 234.36 124.96 232.23 C 123.84 234.94 123.61 238.47 120.90 240.18 C 118.47 240.09 116.59 238.21 114.59 237.03 C 118.52 230.37 116.52 221.60 111.81 215.90 C 110.00 220.73 108.60 225.81 108.90 231.02 C 109.10 245.90 116.55 260.59 112.25 275.46 C 108.19 286.59 99.32 296.31 87.81 299.83 C 80.86 301.73 73.80 299.19 67.29 296.88 C 55.45 292.68 45.03 283.70 40.27 271.95 C 37.16 262.65 41.81 253.39 46.68 245.67 C 51.16 238.72 59.20 235.09 66.97 233.16 C 73.26 231.62 79.23 228.46 83.55 223.55 C 88.34 218.78 91.06 212.47 95.23 207.22 C 99.52 201.55 104.89 196.69 108.45 190.49 C 112.05 184.03 110.93 176.04 114.66 169.65 C 119.96 161.66 128.73 157.07 137.18 153.12 C 143.42 150.01 150.59 149.62 157.45 149.91 C 152.11 143.29 144.11 138.72 140.55 130.72 C 140.04 126.94 139.71 122.51 142.48 119.48 C 149.60 110.40 160.34 105.51 170.28 100.23 C 171.68 89.57 174.22 79.08 177.98 69.01 C 179.90 62.42 182.93 56.16 184.10 49.37 C 184.71 45.96 185.64 42.53 187.68 39.67 C 190.33 35.55 194.82 33.19 199.16 31.22 C 206.39 27.97 214.32 26.90 222.12 25.97 M 190.12 105.07 C 192.73 108.91 198.20 108.33 202.03 106.98 C 203.85 106.28 207.21 103.09 203.89 102.01 C 199.22 101.40 193.37 100.90 190.12 105.07 M 207.40 116.68 C 206.35 121.00 211.45 123.12 214.99 122.90 C 218.40 123.16 221.47 121.49 223.66 118.97 C 219.75 114.08 212.73 115.81 207.40 116.68 M 119.30 208.26 C 119.37 212.23 121.19 215.88 122.50 219.56 C 123.88 223.03 124.48 226.72 125.36 230.33 C 127.33 227.63 127.25 224.17 127.38 220.98 C 127.48 214.94 128.01 208.90 127.76 202.84 C 124.62 204.01 121.26 205.38 119.30 208.26 Z" />
<path fill="#60662b" opacity="1.00" d=" M 347.21 72.08 C 352.45 73.16 357.64 74.60 363.01 74.95 C 373.13 75.98 383.81 78.47 391.60 85.43 C 395.31 88.62 396.78 93.48 397.65 98.13 C 400.17 110.05 404.64 121.45 407.50 133.28 C 408.78 138.26 408.94 143.41 409.72 148.47 C 412.43 151.64 416.84 152.60 420.31 154.74 C 427.11 158.87 434.33 163.82 437.32 171.53 C 439.03 176.83 436.64 182.20 432.99 186.04 C 428.83 191.75 423.00 195.81 418.06 200.76 C 434.15 196.46 452.24 203.82 461.38 217.58 C 464.68 223.94 463.60 231.62 466.93 237.98 C 471.06 245.92 477.71 252.14 482.36 259.76 C 486.40 265.26 489.08 272.22 495.31 275.71 C 501.11 279.49 508.02 280.73 514.28 283.48 C 523.05 286.96 531.02 293.10 535.52 301.52 C 539.88 310.08 542.12 319.53 543.28 329.03 C 543.68 333.80 541.14 338.64 536.84 340.81 C 528.86 344.96 519.99 347.06 511.15 348.41 C 502.18 349.91 492.80 349.71 484.11 346.88 C 471.31 342.34 462.51 329.42 461.70 316.05 C 461.19 301.17 467.81 286.96 466.52 272.06 C 466.39 269.24 465.01 266.60 462.73 264.93 C 461.56 268.35 460.18 271.72 459.39 275.26 C 458.58 278.41 460.11 281.43 461.30 284.26 C 459.35 285.92 457.19 287.30 454.92 288.46 C 453.49 286.16 452.23 283.77 451.04 281.34 C 449.17 283.28 447.22 285.15 445.07 286.77 C 444.19 285.08 443.13 283.44 442.70 281.56 C 441.01 269.33 441.94 256.96 441.41 244.66 C 440.80 244.54 439.58 244.30 438.97 244.18 C 437.87 250.74 437.72 257.41 436.94 264.01 C 436.16 269.81 438.57 275.32 439.38 280.97 C 436.99 281.76 434.57 282.46 432.12 283.04 C 428.49 275.56 429.37 267.04 429.34 259.00 C 429.30 252.91 430.60 246.93 431.00 240.87 C 427.07 239.93 423.04 239.47 419.00 239.64 C 414.70 247.15 411.52 255.29 409.75 263.77 C 407.91 272.82 404.27 281.62 404.51 290.99 C 404.57 298.75 406.01 306.46 408.17 313.90 C 411.29 322.86 415.39 331.49 418.20 340.57 C 419.01 344.94 419.90 349.80 418.03 354.02 C 416.71 356.85 413.54 357.56 410.69 357.42 C 410.58 354.48 410.87 351.55 411.35 348.66 C 412.14 344.33 410.26 340.18 408.71 336.26 C 403.26 323.36 398.24 310.05 396.72 296.04 C 395.65 282.90 400.01 270.29 403.00 257.70 C 404.18 253.75 406.54 250.17 406.84 245.97 C 399.48 251.94 392.49 258.94 388.84 267.87 C 386.09 273.45 385.52 279.71 385.38 285.85 C 382.49 305.06 391.18 323.29 393.66 342.03 C 394.05 346.38 395.00 351.40 392.24 355.20 C 390.89 357.18 388.25 356.77 386.19 357.09 C 386.77 350.83 387.15 344.41 385.44 338.27 C 381.65 324.44 377.67 310.45 377.53 295.99 C 377.56 288.97 377.24 281.87 378.62 274.94 C 379.87 267.29 383.40 260.19 387.97 253.99 C 392.70 247.76 399.14 243.11 404.14 237.13 C 406.08 234.71 408.30 230.97 405.22 228.50 C 397.61 235.46 389.74 242.14 382.22 249.22 C 370.07 259.66 364.56 276.29 365.32 292.01 C 365.57 301.52 364.91 311.05 365.66 320.55 C 366.69 328.68 367.33 336.85 368.23 345.00 C 368.54 348.81 367.91 352.76 366.32 356.25 C 365.37 358.08 363.10 358.05 361.35 358.41 C 361.25 352.30 360.69 346.22 360.53 340.12 C 359.71 330.06 357.57 320.12 357.40 310.02 C 357.63 297.55 356.58 284.87 359.67 272.65 C 361.51 266.82 363.50 260.94 366.67 255.67 C 373.47 245.33 383.37 237.69 392.47 229.52 C 395.18 227.05 399.09 225.30 400.46 221.76 C 400.04 217.94 399.51 214.07 400.73 210.33 C 396.91 211.08 393.15 212.28 389.25 212.50 C 384.31 212.35 379.61 210.23 375.73 207.26 C 367.39 200.98 360.78 192.78 354.59 184.46 C 352.31 181.42 350.63 177.83 347.54 175.49 C 340.09 169.77 331.23 166.40 323.04 161.94 C 311.91 156.42 299.58 151.29 292.39 140.58 C 287.67 131.88 288.48 121.45 288.92 111.89 C 291.31 111.88 293.69 111.90 296.08 111.95 C 297.45 120.38 293.91 130.05 299.60 137.38 C 305.25 144.73 313.85 149.01 321.97 153.05 C 328.64 156.15 334.97 159.99 341.87 162.58 C 343.05 159.40 344.10 156.02 346.55 153.56 C 351.54 148.35 357.65 144.34 363.95 140.89 C 368.22 138.44 373.35 139.37 378.04 139.30 C 386.14 139.46 393.64 142.76 401.43 144.52 C 400.60 136.84 399.31 129.10 396.20 121.97 C 393.70 114.12 391.36 106.19 389.94 98.06 C 388.82 91.74 382.84 87.68 377.17 85.67 C 366.91 82.26 355.86 82.37 345.59 78.93 C 345.89 76.60 346.45 74.31 347.21 72.08 M 377.42 151.97 C 378.88 157.60 386.25 157.31 390.70 155.83 C 390.71 154.62 390.73 153.41 390.75 152.21 C 386.62 150.67 381.27 149.17 377.42 151.97 M 359.76 167.78 C 363.39 171.33 369.48 173.05 373.86 169.84 C 375.34 168.86 376.52 165.40 373.88 165.20 C 369.19 164.50 363.16 163.69 359.76 167.78 M 449.32 250.95 C 449.14 259.71 449.11 268.54 450.25 277.25 C 452.23 271.49 454.46 265.81 456.18 259.97 C 457.73 255.33 452.89 252.47 449.32 250.95 Z" />
</g>
</svg>
