<?xml version="1.0" encoding="UTF-8" ?>
<!DOCTYPE svg PUBLIC "-//W3C//DTD SVG 1.1//EN" "http://www.w3.org/Graphics/SVG/1.1/DTD/svg11.dtd">
<svg width="788pt" height="633pt" viewBox="0 0 788 633" version="1.1" xmlns="http://www.w3.org/2000/svg">
<g id="#a0997cff">
<path fill="#a0997c" opacity="1.00" d=" M 0.00 0.00 L 0.26 0.00 C 0.19 0.06 0.06 0.19 0.00 0.26 L 0.00 0.00 Z" />
<path fill="#a0997c" opacity="1.00" d=" M 301.61 149.64 C 308.81 146.36 317.38 143.52 325.07 146.96 C 336.56 153.29 343.74 167.40 340.56 180.39 C 337.91 191.67 337.75 203.37 334.85 214.61 C 333.32 225.74 330.96 237.15 324.55 246.61 C 321.54 250.86 318.07 254.77 314.77 258.79 C 311.27 263.12 305.82 265.04 301.81 268.80 C 298.45 271.91 294.14 273.59 289.86 275.00 C 283.18 277.01 276.66 279.47 270.45 282.66 C 269.39 290.95 271.46 299.21 273.84 307.09 C 276.12 313.43 278.79 319.76 282.77 325.24 C 286.04 329.43 290.74 332.27 295.56 334.37 C 302.89 337.35 311.04 335.55 318.27 333.17 C 322.41 331.68 327.01 329.19 328.44 324.74 C 328.47 318.02 325.14 311.78 324.94 305.08 C 325.18 301.67 328.13 299.48 330.97 298.14 C 334.97 304.60 331.20 312.04 331.88 318.98 C 331.70 320.60 332.40 321.35 333.98 321.23 C 338.15 316.78 339.52 310.57 342.36 305.31 C 344.18 301.20 347.23 297.79 350.95 295.31 C 352.30 297.13 355.32 298.93 353.82 301.54 C 350.56 306.54 345.56 310.08 341.41 314.29 C 342.35 315.92 342.76 318.38 344.94 318.79 C 352.25 316.59 357.20 310.38 363.52 306.48 C 365.78 305.24 368.88 303.97 371.25 305.68 C 372.41 306.55 373.54 308.24 372.88 309.72 C 371.20 313.82 367.67 317.18 363.38 318.40 C 354.42 320.98 345.66 324.71 338.08 330.21 C 342.31 333.36 347.78 333.40 352.81 333.80 C 362.74 334.13 372.86 332.84 382.59 335.44 C 385.60 336.29 387.47 338.98 389.55 341.11 C 388.08 346.15 382.67 349.04 377.66 347.47 C 366.20 344.04 355.21 339.00 343.45 336.61 C 340.49 335.72 338.39 338.38 336.34 340.00 C 338.06 341.51 339.76 343.10 341.80 344.20 C 347.32 347.33 354.24 346.20 359.52 349.95 C 359.01 351.77 358.50 353.58 357.96 355.40 C 349.59 355.24 343.97 348.17 336.37 345.80 C 332.42 344.60 328.06 343.71 324.06 345.19 C 316.92 347.99 309.22 348.75 301.86 350.76 C 293.76 351.62 284.02 352.57 277.76 346.23 C 271.85 339.68 272.31 329.43 265.53 323.43 C 262.39 320.39 256.39 321.79 255.20 326.10 C 253.35 332.52 253.78 339.37 251.99 345.82 C 249.94 355.38 243.74 363.26 237.36 370.37 C 234.00 374.11 228.65 374.75 224.71 377.67 C 219.65 381.27 213.99 384.12 209.70 388.71 C 204.39 394.41 197.75 399.33 194.93 406.88 C 192.08 414.28 189.32 423.08 193.41 430.57 C 197.21 439.16 206.36 443.43 214.82 446.07 C 224.66 448.17 235.18 450.36 244.99 446.96 C 249.38 445.44 254.99 444.96 257.58 440.58 C 259.90 436.18 261.24 430.98 260.02 426.06 C 258.76 419.88 257.45 413.40 259.37 407.20 C 263.90 406.83 269.21 408.76 270.57 413.52 C 272.38 420.09 267.55 425.88 266.27 432.06 C 265.93 433.84 267.76 434.95 268.65 436.25 C 279.10 431.44 283.93 420.48 291.77 412.77 C 294.34 410.45 297.99 407.93 301.57 409.22 C 303.69 411.17 305.10 414.03 305.16 416.93 C 303.95 422.37 299.32 426.34 294.41 428.51 C 288.07 431.60 280.32 434.02 277.18 440.97 C 291.59 448.83 307.83 438.68 322.91 442.93 C 326.63 443.52 329.16 446.48 331.56 449.11 C 330.13 452.17 328.10 456.00 324.03 455.32 C 309.46 454.08 295.82 447.87 281.28 446.23 C 281.39 449.03 280.57 452.77 283.49 454.46 C 294.62 461.47 306.73 467.02 319.43 470.49 C 324.17 471.77 329.27 471.94 333.69 474.26 C 337.20 476.07 339.79 479.15 342.36 482.07 C 340.30 484.98 338.08 488.90 333.98 488.79 C 328.43 488.80 322.82 489.17 317.30 488.53 C 309.54 485.85 302.60 480.98 297.07 474.93 C 291.50 468.82 285.67 462.96 279.56 457.40 C 277.71 455.79 275.59 454.07 273.00 454.13 C 270.33 453.97 268.55 456.22 266.71 457.78 C 270.69 463.35 275.51 468.33 278.56 474.54 C 283.36 482.01 286.44 490.82 285.77 499.79 C 285.21 504.82 281.54 509.12 277.02 511.18 C 273.21 513.52 268.80 509.61 268.07 505.86 C 266.44 498.17 270.87 491.19 273.10 484.13 C 274.84 479.44 271.75 474.67 268.22 471.78 C 264.08 467.98 258.51 466.65 253.32 464.96 C 248.76 463.55 244.36 461.11 239.45 461.38 C 230.08 461.51 220.68 460.70 211.34 461.53 C 203.15 463.78 196.12 469.47 191.56 476.58 C 190.07 478.95 191.04 481.86 191.66 484.35 C 194.62 493.29 198.06 502.38 204.42 509.51 C 209.38 516.10 216.79 520.04 223.49 524.57 C 233.26 530.37 243.16 536.09 253.74 540.29 C 263.64 544.77 273.90 548.74 284.70 550.33 C 305.15 554.41 326.85 553.75 346.53 546.50 C 361.12 540.54 376.76 538.11 392.15 535.16 C 407.30 533.91 422.62 533.07 437.72 535.23 C 444.27 536.88 451.16 536.90 457.49 539.42 C 472.57 543.51 487.00 550.17 499.76 559.20 C 510.18 566.15 520.99 572.55 531.17 579.86 C 542.40 589.62 553.94 599.04 565.01 609.00 C 569.33 612.74 573.70 616.53 576.99 621.25 C 568.94 619.08 562.56 613.45 555.31 609.62 C 539.17 600.97 524.57 589.58 507.78 582.13 C 499.80 577.40 491.07 574.25 482.64 570.48 C 472.43 566.36 461.74 563.68 451.09 560.95 C 436.05 557.77 420.62 555.56 405.23 557.16 C 399.73 557.93 394.62 560.30 389.15 561.24 C 377.09 563.36 365.71 568.09 353.81 570.86 C 335.09 575.46 316.42 581.35 297.03 582.10 C 285.96 581.66 274.84 582.86 263.81 581.48 C 242.67 578.00 222.19 569.85 205.00 556.98 C 197.89 551.85 190.80 546.62 184.51 540.50 C 177.68 534.26 172.26 526.71 166.66 519.39 C 161.35 511.74 156.28 503.91 150.10 496.92 C 145.68 491.35 139.94 487.09 134.92 482.11 C 126.78 474.42 117.54 468.07 108.31 461.79 C 101.58 457.45 96.94 450.65 93.43 443.60 C 90.10 436.79 88.12 428.97 82.36 423.67 C 80.97 422.54 79.36 420.52 77.36 421.45 C 68.01 424.91 60.65 431.89 52.83 437.83 C 49.34 440.31 45.52 443.03 41.07 443.11 C 36.79 442.50 32.73 439.23 31.82 434.91 C 31.80 430.75 35.31 427.19 39.15 426.06 C 47.81 424.00 57.28 427.31 65.60 423.66 C 67.94 420.36 67.68 415.87 67.88 411.97 C 68.42 406.08 63.18 402.03 58.55 399.55 C 51.54 396.26 43.94 394.55 36.50 392.56 C 29.53 390.69 21.75 389.87 16.18 384.82 C 13.53 382.36 10.64 379.66 9.78 376.02 C 10.26 373.31 11.99 370.20 15.05 369.99 C 22.09 369.33 28.33 373.49 34.18 376.83 C 44.00 383.43 54.25 389.31 63.94 396.09 C 64.36 395.09 64.78 394.09 65.19 393.09 C 60.60 386.65 53.88 382.20 49.05 375.97 C 46.71 372.91 43.73 369.97 42.96 366.07 C 43.48 363.02 46.50 361.71 48.90 360.37 C 55.40 366.09 58.51 374.35 62.00 382.02 C 64.26 387.13 68.82 390.99 74.35 392.05 C 74.67 389.35 74.99 386.53 73.95 383.95 C 71.24 376.69 66.09 370.06 65.81 362.09 C 66.35 356.67 74.07 356.46 77.04 359.97 C 81.33 363.74 80.24 369.93 80.25 375.01 C 80.24 380.77 78.25 386.65 79.79 392.34 C 81.61 394.34 84.35 392.21 86.06 391.04 C 94.42 383.65 96.66 372.00 103.52 363.48 C 104.95 361.69 106.98 360.55 108.88 359.34 C 110.16 360.67 111.55 361.93 112.59 363.48 C 114.11 366.82 113.09 370.94 110.64 373.56 C 105.68 378.91 98.39 382.05 94.72 388.57 C 92.09 395.67 90.25 403.48 91.99 411.03 C 94.09 421.87 98.03 432.57 104.46 441.62 C 107.20 445.16 110.47 449.07 115.19 449.69 C 120.70 450.53 127.47 449.90 130.83 444.84 C 134.06 438.79 134.77 431.78 135.06 425.04 C 135.58 414.91 137.04 404.84 139.97 395.12 C 141.76 386.61 146.28 379.06 150.67 371.66 C 156.69 361.29 164.37 352.06 171.34 342.33 C 179.71 331.12 190.76 322.40 200.82 312.80 C 202.47 311.33 203.50 309.35 204.28 307.31 C 200.28 306.44 195.90 305.56 191.96 307.09 C 189.06 308.93 186.36 311.07 183.20 312.45 C 179.38 314.18 176.17 317.34 171.94 318.06 C 165.12 318.30 159.42 312.95 157.06 306.91 C 156.05 303.36 156.35 299.63 156.00 295.99 C 155.36 289.07 157.54 282.07 155.68 275.23 C 153.90 266.31 146.58 260.17 142.62 252.33 C 141.01 249.53 141.98 246.33 144.08 244.11 C 149.39 248.31 150.69 255.21 154.02 260.77 C 155.31 259.61 157.15 258.78 157.78 257.05 C 155.28 248.02 147.77 241.83 142.61 234.36 C 139.88 230.49 136.68 226.22 137.15 221.21 C 137.51 218.18 141.81 216.56 143.74 219.25 C 151.00 227.14 151.24 238.89 157.72 247.29 C 159.23 249.45 163.63 249.69 164.11 246.57 C 165.00 235.32 158.19 225.52 155.97 214.85 C 154.53 210.99 160.15 206.15 163.21 209.69 C 166.15 213.03 166.64 217.81 166.27 222.09 C 165.69 228.66 166.95 235.18 167.45 241.72 C 167.53 244.24 168.66 246.53 169.84 248.70 C 175.85 243.04 178.24 234.89 181.46 227.53 C 184.60 219.97 187.08 210.89 194.69 206.57 C 196.83 204.99 199.46 206.33 200.89 208.19 C 203.41 210.70 201.24 214.36 199.97 216.95 C 193.42 227.83 184.11 236.83 178.19 248.12 C 176.53 251.47 176.57 255.74 179.63 258.27 C 185.50 253.55 192.86 248.71 200.76 250.57 C 197.23 255.13 192.42 258.40 187.94 261.94 C 182.91 265.77 176.67 268.90 174.30 275.19 C 172.12 280.76 168.19 286.97 170.97 293.03 C 172.57 296.89 177.44 295.99 180.75 295.62 C 188.90 293.98 197.11 292.15 204.67 288.57 C 210.29 285.98 216.79 286.79 222.42 284.34 C 226.67 281.83 227.25 276.40 227.98 271.99 C 228.71 265.41 232.48 259.54 232.65 252.88 C 232.37 248.92 230.20 245.44 229.14 241.67 C 226.86 235.04 227.71 227.86 229.08 221.13 C 231.37 210.96 235.09 200.88 241.65 192.66 C 245.93 186.96 251.93 182.94 256.74 177.75 C 264.13 169.72 274.18 165.09 283.10 159.08 C 288.83 155.12 295.44 152.80 301.61 149.64 Z" />
<path fill="#a0997c" opacity="1.00" d=" M 382.80 281.87 C 385.62 277.78 390.30 275.85 395.01 274.92 C 391.26 277.77 386.93 279.66 382.80 281.87 Z" />
</g>
<g id="#ffffffff">
</g>
<g id="#656b36ff">
<path fill="#656b36" opacity="1.00" d=" M 435.37 24.72 C 446.20 23.29 457.02 21.16 468.00 21.42 C 488.17 21.11 508.53 22.74 527.98 28.33 C 533.35 29.95 539.01 31.18 543.70 34.41 C 531.66 30.63 519.67 26.36 507.09 24.80 C 481.19 21.23 454.64 21.65 429.00 26.87 C 403.67 31.56 378.84 40.11 357.01 53.96 C 339.51 65.70 323.31 79.39 305.19 90.20 C 310.39 85.26 316.85 81.96 322.41 77.47 C 334.85 69.00 346.51 59.43 359.20 51.32 C 382.47 37.42 408.68 28.96 435.37 24.72 Z" />
<path fill="#656b36" opacity="1.00" d=" M 446.58 47.59 C 463.92 44.91 481.42 47.83 498.57 50.51 C 510.18 53.12 521.85 56.64 532.01 62.99 C 527.22 61.76 522.83 59.49 518.33 57.53 C 508.15 53.57 497.47 50.73 486.53 50.02 C 472.22 47.23 457.35 46.36 443.01 49.40 C 428.26 49.94 413.80 53.57 400.04 58.78 C 386.04 63.25 372.95 70.00 359.92 76.68 C 347.74 82.91 336.38 90.52 324.69 97.59 C 320.28 100.44 315.67 103.07 310.65 104.69 C 316.46 100.68 322.73 97.41 328.71 93.67 C 357.14 75.45 387.52 59.37 420.53 51.34 C 429.05 49.08 437.93 49.10 446.58 47.59 Z" />
<path fill="#656b36" opacity="1.00" d=" M 277.40 120.37 C 286.71 116.46 295.55 111.51 304.94 107.77 C 302.47 109.74 299.80 111.46 296.92 112.76 C 288.15 116.71 279.54 121.04 270.50 124.35 C 260.41 128.01 250.53 132.20 240.55 136.13 C 220.60 142.83 200.77 150.06 180.26 154.90 C 174.53 156.10 168.83 158.77 162.86 157.78 C 164.14 155.99 165.92 154.68 167.97 153.89 C 166.89 154.96 165.88 156.09 164.86 157.21 C 170.53 156.40 176.13 155.11 181.64 153.56 C 214.37 145.00 246.07 133.03 277.40 120.37 Z" />
<path fill="#656b36" opacity="1.00" d=" M 584.39 110.64 C 588.01 116.51 591.18 122.65 594.05 128.92 C 597.58 136.61 598.47 145.14 599.55 153.43 C 600.20 159.59 600.05 166.65 595.49 171.39 C 597.44 166.39 599.52 161.12 598.64 155.64 C 597.41 147.74 597.27 139.54 594.12 132.07 C 591.45 124.66 586.75 118.17 584.39 110.64 Z" />
<path fill="#656b36" opacity="1.00" d=" M 644.96 173.43 C 645.12 172.88 645.43 171.78 645.59 171.23 C 647.86 179.21 652.86 185.91 656.83 193.08 C 662.31 202.72 668.74 211.77 675.22 220.75 C 679.91 227.07 681.40 235.31 687.03 241.00 C 691.70 245.79 696.04 252.03 703.10 253.26 C 710.44 254.06 717.66 250.56 725.01 252.14 C 731.34 252.64 736.21 257.51 739.18 262.76 C 740.52 264.74 738.53 267.87 736.20 267.33 C 726.78 266.04 718.46 260.63 708.99 259.57 C 706.95 259.29 705.03 260.18 703.14 260.75 C 704.32 266.99 708.83 271.61 711.93 276.93 C 715.00 282.69 721.89 284.19 727.36 286.80 C 739.08 291.03 751.52 293.94 761.96 301.05 C 764.02 302.58 766.21 304.20 767.36 306.57 C 768.57 310.50 765.52 315.42 761.10 314.87 C 753.04 316.08 746.11 311.33 739.65 307.28 C 734.15 303.94 730.32 298.56 724.91 295.12 C 720.11 291.98 715.53 288.20 709.95 286.55 C 709.65 286.90 709.03 287.60 708.72 287.95 C 711.70 298.33 721.23 305.24 724.34 315.55 C 725.70 318.99 722.68 323.06 719.00 322.69 C 714.68 323.02 711.93 318.93 710.88 315.26 C 708.88 308.17 708.71 300.67 706.53 293.62 C 706.01 292.22 704.93 291.14 703.97 290.06 C 701.46 297.88 704.05 306.95 698.98 314.00 C 697.75 316.28 692.80 316.93 692.41 313.78 C 691.52 305.27 691.58 296.69 691.46 288.14 C 689.47 287.53 687.38 285.73 685.28 286.84 C 682.58 289.36 681.06 292.86 678.36 295.38 C 676.42 295.80 674.42 295.58 672.47 295.55 C 671.39 289.16 675.95 284.13 679.38 279.33 C 682.71 275.38 684.09 270.14 684.19 265.06 C 683.58 259.34 681.58 253.87 679.62 248.51 C 676.75 240.71 671.17 234.42 665.93 228.14 C 663.89 225.79 661.87 223.40 659.50 221.38 C 657.29 220.07 654.86 219.23 652.44 218.43 C 654.29 217.73 656.13 217.00 657.97 216.25 C 659.44 213.04 661.06 209.90 662.81 206.83 C 659.70 206.37 656.61 205.77 653.56 205.03 C 652.57 200.61 650.53 196.57 648.34 192.65 C 646.51 189.41 646.81 185.55 645.69 182.10 C 644.78 181.41 643.74 180.95 642.75 180.43 C 643.50 178.10 644.25 175.77 644.96 173.43 Z" />
<path fill="#656b36" opacity="1.00" d=" M 581.61 209.65 C 582.44 211.84 583.71 214.28 582.81 216.66 C 581.92 219.21 580.48 221.52 579.18 223.87 C 580.40 225.89 581.86 227.84 582.57 230.12 C 582.42 231.60 581.48 232.85 580.87 234.17 C 578.86 232.34 576.87 230.50 574.89 228.67 C 573.77 230.11 572.67 231.55 571.57 233.00 C 573.78 234.09 575.95 235.25 578.16 236.36 C 575.68 239.20 571.79 237.99 568.61 237.49 C 564.69 242.42 559.17 246.25 552.97 247.52 C 549.45 247.13 546.55 244.79 543.50 243.19 C 543.09 244.45 542.64 245.70 542.39 247.00 C 543.33 248.67 544.77 249.97 546.07 251.35 C 542.72 253.57 539.62 256.27 535.89 257.85 C 533.32 257.31 531.36 255.38 529.26 253.96 C 525.80 256.77 522.81 260.10 520.26 263.75 C 521.41 265.74 522.56 267.74 523.71 269.74 C 517.15 271.27 514.05 277.49 510.56 282.56 C 508.10 282.16 505.65 281.78 503.20 281.39 C 502.88 281.77 502.23 282.52 501.90 282.90 C 503.23 285.41 504.56 287.91 505.90 290.42 C 500.68 293.51 494.47 292.13 488.73 292.46 C 488.07 293.83 487.41 295.19 486.73 296.55 C 481.59 298.30 477.78 303.11 472.03 303.06 C 472.02 299.45 472.98 295.94 474.91 292.89 C 478.46 293.47 482.38 294.75 485.78 292.93 C 490.36 290.61 493.59 286.46 496.55 282.40 C 504.57 271.32 512.41 259.86 522.81 250.84 C 529.15 246.97 535.54 242.65 543.02 241.36 C 542.61 241.16 541.78 240.78 541.37 240.59 C 552.16 237.55 562.34 232.64 572.04 227.09 C 575.65 224.77 579.06 221.88 581.29 218.16 C 582.81 215.55 581.75 212.46 581.61 209.65 Z" />
<path fill="#656b36" opacity="1.00" d=" M 462.11 289.02 C 463.20 293.29 464.70 297.44 466.66 301.39 C 468.85 305.65 467.81 310.59 468.74 315.14 C 469.95 320.82 467.59 326.32 466.92 331.89 C 466.39 334.14 466.49 336.95 464.49 338.49 C 461.60 340.61 458.09 341.56 454.83 342.95 C 449.43 345.05 444.57 348.36 439.04 350.15 C 434.52 351.72 429.65 352.20 425.29 354.25 C 420.94 356.36 418.01 360.36 414.27 363.28 C 411.42 365.58 408.01 367.03 405.13 369.27 C 403.27 370.68 403.01 373.17 402.30 375.23 C 401.05 381.68 394.62 385.07 392.22 391.01 C 390.01 391.31 387.80 391.64 385.59 391.92 C 385.36 392.25 384.91 392.92 384.69 393.26 C 385.34 395.10 386.00 396.93 386.66 398.77 C 384.53 400.04 382.39 401.30 380.27 402.59 C 380.44 409.85 377.78 416.64 375.98 423.54 C 375.07 432.47 377.00 441.41 378.81 450.12 C 373.04 441.67 372.98 430.91 374.32 421.14 C 375.35 410.30 378.19 399.64 382.87 389.81 C 386.07 383.01 391.18 377.40 395.48 371.31 C 398.67 367.62 401.78 363.81 405.34 360.46 C 417.52 350.39 431.73 341.70 447.78 340.04 C 453.88 338.95 462.42 338.55 464.60 331.45 C 468.98 317.47 464.09 302.97 462.11 289.02 Z" />
</g>
<g id="#5f6524ff">
<path fill="#5f6524" opacity="1.00" d=" M 429.00 26.87 C 454.64 21.65 481.19 21.23 507.09 24.80 C 519.67 26.36 531.66 30.63 543.70 34.41 C 551.65 37.71 559.35 41.63 566.30 46.74 C 575.05 51.61 582.73 58.15 589.31 65.67 C 598.74 74.92 607.96 84.51 615.40 95.47 C 619.27 102.22 624.27 108.33 627.30 115.55 C 632.54 127.58 635.25 140.52 638.40 153.21 C 640.23 160.06 642.83 166.67 644.96 173.43 C 644.25 175.77 643.50 178.10 642.75 180.43 C 643.74 180.95 644.78 181.41 645.69 182.10 C 646.81 185.55 646.51 189.41 648.34 192.65 C 650.53 196.57 652.57 200.61 653.56 205.03 C 656.61 205.77 659.70 206.37 662.81 206.83 C 661.06 209.90 659.44 213.04 657.97 216.25 C 656.13 217.00 654.29 217.73 652.44 218.43 C 654.86 219.23 657.29 220.07 659.50 221.38 C 654.88 220.36 650.06 217.62 645.31 219.05 C 636.38 224.47 634.24 235.70 632.81 245.25 C 630.34 255.46 629.05 266.33 623.22 275.34 C 619.65 281.66 613.26 285.54 607.10 288.95 C 586.93 299.37 563.60 301.62 543.67 312.60 C 538.79 315.61 534.66 319.69 530.79 323.88 C 528.97 325.43 528.65 328.82 531.04 329.99 C 533.66 332.11 537.11 330.90 540.06 330.38 C 547.17 328.81 554.66 325.76 561.93 328.18 C 568.44 330.74 570.56 338.59 569.53 344.94 C 567.70 354.97 562.05 363.92 560.55 374.03 C 559.85 382.29 563.81 389.93 565.17 397.91 C 565.34 400.32 564.33 402.94 562.40 404.45 C 560.58 405.05 558.26 404.47 557.79 402.40 C 557.04 397.30 558.07 392.01 556.33 387.04 C 554.67 387.48 552.73 387.52 551.60 389.01 C 551.98 394.64 553.76 400.08 555.48 405.43 C 558.03 412.80 561.98 420.38 560.29 428.42 C 558.82 431.11 554.04 433.16 552.05 429.99 C 550.43 428.06 550.48 425.42 550.41 423.06 C 550.28 414.84 550.77 406.47 548.78 398.43 C 548.27 396.11 546.78 393.79 544.15 393.84 C 542.84 394.78 541.91 396.16 541.46 397.70 C 538.80 406.90 539.90 416.56 539.54 426.00 C 539.57 429.67 536.76 434.38 532.57 433.61 C 531.00 432.66 531.34 430.65 531.14 429.11 C 531.10 424.57 530.80 419.80 532.70 415.56 C 535.41 409.33 538.51 402.92 538.58 396.00 C 538.91 394.18 537.22 391.79 535.33 393.11 C 531.42 396.27 530.13 401.34 527.35 405.33 C 525.61 405.67 523.83 405.66 522.08 405.76 C 522.08 396.81 532.52 392.57 532.77 383.73 C 529.23 384.92 525.60 385.92 521.84 385.98 C 522.30 383.62 522.65 381.11 524.24 379.20 C 528.62 373.62 534.13 369.02 539.85 364.86 C 545.53 360.92 550.01 354.98 551.58 348.19 C 538.62 342.49 523.93 342.54 510.23 345.05 C 506.32 345.87 504.59 349.87 502.70 352.94 C 498.56 360.45 494.05 368.85 495.99 377.72 C 497.98 389.94 495.74 403.72 486.61 412.70 C 478.75 420.12 472.19 428.92 463.41 435.34 C 458.37 439.02 453.22 442.66 447.53 445.26 C 436.78 449.58 425.93 453.70 414.70 456.59 C 409.00 458.00 403.38 460.74 397.39 460.24 C 389.09 458.63 379.66 455.67 375.71 447.45 C 372.33 439.82 371.33 431.09 373.00 422.91 C 374.01 407.55 378.31 392.03 387.54 379.51 C 389.73 376.37 392.34 373.52 395.48 371.31 C 391.18 377.40 386.07 383.01 382.87 389.81 C 378.19 399.64 375.35 410.30 374.32 421.14 C 372.98 430.91 373.04 441.67 378.81 450.12 C 377.00 441.41 375.07 432.47 375.98 423.54 C 377.78 416.64 380.44 409.85 380.27 402.59 C 382.39 401.30 384.53 400.04 386.66 398.77 C 386.00 396.93 385.34 395.10 384.69 393.26 C 384.91 392.92 385.36 392.25 385.59 391.92 C 387.80 391.64 390.01 391.31 392.22 391.01 C 394.62 385.07 401.05 381.68 402.30 375.23 C 403.01 373.17 403.27 370.68 405.13 369.27 C 408.01 367.03 411.42 365.58 414.27 363.28 C 418.01 360.36 420.94 356.36 425.29 354.25 C 429.65 352.20 434.52 351.72 439.04 350.15 C 444.57 348.36 449.43 345.05 454.83 342.95 C 458.09 341.56 461.60 340.61 464.49 338.49 C 466.49 336.95 466.39 334.14 466.92 331.89 C 467.59 326.32 469.95 320.82 468.74 315.14 C 467.81 310.59 468.85 305.65 466.66 301.39 C 464.70 297.44 463.20 293.29 462.11 289.02 C 464.09 302.97 468.98 317.47 464.60 331.45 C 462.42 338.55 453.88 338.95 447.78 340.04 C 431.73 341.70 417.52 350.39 405.34 360.46 C 408.25 356.38 412.09 353.07 416.33 350.43 C 424.04 345.58 432.41 341.64 441.28 339.48 C 447.35 338.01 453.96 338.64 459.67 335.79 C 463.55 333.75 463.80 328.79 464.38 324.96 C 464.89 314.56 463.93 304.05 461.48 293.92 C 460.22 287.51 458.51 280.85 454.31 275.69 C 450.61 272.72 445.82 271.32 441.22 270.43 C 434.51 269.86 427.76 270.45 421.05 270.65 C 417.60 275.27 415.09 280.48 412.52 285.62 C 410.81 285.53 409.10 285.43 407.39 285.33 C 407.98 279.86 410.71 274.81 410.53 269.23 C 402.68 270.59 397.78 277.32 392.92 282.95 C 390.27 286.18 386.01 286.92 382.06 286.84 C 382.25 285.17 382.39 283.50 382.80 281.87 C 386.93 279.66 391.26 277.77 395.01 274.92 C 397.22 273.39 400.65 269.51 397.02 267.61 C 388.13 268.01 380.13 273.76 371.01 272.59 C 368.67 272.97 366.91 271.15 366.49 268.99 C 366.85 266.89 368.56 265.29 370.55 264.68 C 375.54 262.64 380.85 264.76 386.00 264.52 C 392.16 264.27 399.14 265.50 404.45 261.62 C 405.95 260.46 408.36 258.53 406.62 256.54 C 401.90 250.74 394.25 248.89 387.64 246.10 C 379.57 242.38 369.43 241.88 363.68 234.28 C 361.80 229.67 367.41 225.81 371.55 227.58 C 380.27 231.72 386.54 239.49 394.76 244.43 C 399.95 247.55 404.80 252.85 411.47 251.42 C 411.22 249.03 411.79 246.13 409.74 244.38 C 405.82 240.43 400.63 238.07 396.58 234.27 C 395.06 233.19 395.58 231.15 395.32 229.57 C 397.28 229.58 399.36 229.12 401.27 229.77 C 405.49 232.29 407.02 237.34 410.33 240.75 C 414.06 244.65 418.52 248.41 424.03 249.30 C 434.45 251.19 445.41 249.84 455.47 253.72 C 460.98 255.86 467.43 257.90 470.39 263.49 C 473.66 269.14 471.93 275.85 472.38 282.02 C 472.21 285.87 473.47 290.26 477.19 292.08 C 480.33 293.03 484.05 292.88 486.76 290.84 C 490.26 288.31 493.13 285.03 496.55 282.40 C 493.59 286.46 490.36 290.61 485.78 292.93 C 482.38 294.75 478.46 293.47 474.91 292.89 C 472.98 295.94 472.02 299.45 472.03 303.06 C 477.78 303.11 481.59 298.30 486.73 296.55 C 487.41 295.19 488.07 293.83 488.73 292.46 C 494.47 292.13 500.68 293.51 505.90 290.42 C 504.56 287.91 503.23 285.41 501.90 282.90 C 502.23 282.52 502.88 281.77 503.20 281.39 C 505.65 281.78 508.10 282.16 510.56 282.56 C 514.05 277.49 517.15 271.27 523.71 269.74 C 522.56 267.74 521.41 265.74 520.26 263.75 C 522.81 260.10 525.80 256.77 529.26 253.96 C 531.36 255.38 533.32 257.31 535.89 257.85 C 539.62 256.27 542.72 253.57 546.07 251.35 C 544.77 249.97 543.33 248.67 542.39 247.00 C 542.64 245.70 543.09 244.45 543.50 243.19 C 546.55 244.79 549.45 247.13 552.97 247.52 C 559.17 246.25 564.69 242.42 568.61 237.49 C 571.79 237.99 575.68 239.20 578.16 236.36 C 575.95 235.25 573.78 234.09 571.57 233.00 C 572.67 231.55 573.77 230.11 574.89 228.67 C 576.87 230.50 578.86 232.34 580.87 234.17 C 581.48 232.85 582.42 231.60 582.57 230.12 C 581.86 227.84 580.40 225.89 579.18 223.87 C 580.48 221.52 581.92 219.21 582.81 216.66 C 583.71 214.28 582.44 211.84 581.61 209.65 C 578.75 206.95 575.17 204.31 571.04 204.49 C 566.69 204.60 562.39 205.38 558.07 205.84 C 551.31 206.37 546.89 212.36 540.49 213.98 C 534.50 215.47 529.98 219.88 524.47 222.39 C 519.71 224.90 514.35 226.56 510.34 230.29 C 504.40 235.40 509.25 245.18 503.28 250.23 C 500.62 252.61 494.45 251.77 495.46 247.27 C 497.79 242.32 502.51 238.55 503.36 232.88 C 504.31 229.92 501.06 226.74 498.13 227.68 C 492.00 228.89 489.15 235.00 484.41 238.38 C 481.37 240.63 478.68 243.38 475.38 245.26 C 472.90 246.53 470.58 244.79 468.90 243.09 C 472.43 235.94 482.81 237.36 485.92 229.95 C 483.96 229.13 481.92 227.68 479.71 228.52 C 470.86 230.76 463.61 236.65 455.31 240.19 C 450.83 242.62 445.51 243.42 440.53 242.36 C 438.38 241.40 437.91 238.68 438.58 236.63 C 440.32 234.03 443.30 232.38 446.34 231.80 C 456.44 230.42 466.86 230.86 476.69 227.84 C 479.51 226.82 482.42 224.91 483.45 221.97 C 484.04 217.88 480.88 213.79 476.87 213.00 C 464.73 209.69 452.10 208.39 440.03 204.77 C 435.08 202.96 429.55 201.31 426.25 196.90 C 423.73 193.51 420.37 190.21 420.29 185.71 C 424.47 185.31 428.82 184.92 432.86 186.40 C 442.10 189.69 451.40 193.08 459.80 198.24 C 464.58 201.26 469.81 203.45 474.69 206.29 C 480.24 209.62 487.23 209.15 493.24 207.47 C 497.56 206.35 500.20 202.56 502.46 199.01 C 497.84 191.32 488.75 188.49 483.01 181.92 C 480.64 179.62 481.09 176.06 481.30 173.08 C 481.77 168.78 485.49 163.62 490.38 165.63 C 495.94 169.31 496.86 176.54 500.03 181.96 C 503.16 187.28 505.56 193.83 511.53 196.60 C 518.59 199.88 526.58 198.29 534.02 197.67 C 541.35 197.33 548.63 195.94 555.58 193.61 C 562.55 191.18 567.09 185.10 572.10 180.07 C 578.72 174.60 587.89 174.75 595.49 171.39 C 600.05 166.65 600.20 159.59 599.55 153.43 C 598.47 145.14 597.58 136.61 594.05 128.92 C 591.18 122.65 588.01 116.51 584.39 110.64 C 581.33 104.91 576.59 100.44 572.41 95.57 C 565.56 88.06 558.22 80.95 550.00 74.96 C 544.25 70.60 537.97 67.02 532.01 62.99 C 521.85 56.64 510.18 53.12 498.57 50.51 C 481.42 47.83 463.92 44.91 446.58 47.59 C 437.93 49.10 429.05 49.08 420.53 51.34 C 387.52 59.37 357.14 75.45 328.71 93.67 C 322.73 97.41 316.46 100.68 310.65 104.69 C 308.83 105.86 306.92 106.90 304.94 107.77 C 295.55 111.51 286.71 116.46 277.40 120.37 C 246.07 133.03 214.37 145.00 181.64 153.56 C 176.13 155.11 170.53 156.40 164.86 157.21 C 165.88 156.09 166.89 154.96 167.97 153.89 C 175.83 150.38 184.24 148.26 192.39 145.51 C 197.26 143.86 201.91 141.65 206.80 140.07 C 218.68 136.77 229.58 130.85 240.85 125.97 C 245.44 124.00 249.88 121.72 254.29 119.37 C 258.95 116.86 263.97 115.08 268.62 112.53 C 273.04 110.14 277.07 107.12 281.34 104.49 C 285.77 101.78 290.57 99.74 294.95 96.95 C 298.40 94.76 301.66 92.28 305.19 90.20 C 323.31 79.39 339.51 65.70 357.01 53.96 C 378.84 40.11 403.67 31.56 429.00 26.87 Z" />
</g>
</svg>
