<?xml version="1.0" encoding="UTF-8" ?>
<!DOCTYPE svg PUBLIC "-//W3C//DTD SVG 1.1//EN" "http://www.w3.org/Graphics/SVG/1.1/DTD/svg11.dtd">
<svg width="618pt" height="426pt" viewBox="0 0 618 426" version="1.1" xmlns="http://www.w3.org/2000/svg">
<g id="#ffffffff">
</g>
<g id="#9db490ff">
<path fill="#9db490" opacity="1.00" d=" M 241.48 29.98 C 241.10 28.80 242.05 27.71 242.26 26.58 C 245.76 32.65 244.95 39.81 244.82 46.50 L 244.63 45.73 C 244.26 40.37 243.72 34.94 241.48 29.98 Z" />
</g>
<g id="#657f5bff">
<path fill="#657f5b" opacity="1.00" d=" M 240.49 33.95 C 239.61 32.52 240.92 31.23 241.48 29.98 C 243.72 34.94 244.26 40.37 244.63 45.73 C 243.44 41.74 242.02 37.82 240.49 33.95 Z" />
</g>
<g id="#0f430dff">
<path fill="#0f430d" opacity="1.00" d=" M 239.50 40.29 C 238.46 38.24 239.66 35.86 240.49 33.95 C 242.02 37.82 243.44 41.74 244.63 45.73 L 244.82 46.50 C 245.07 47.89 245.70 49.23 245.65 50.66 C 243.02 58.27 245.01 66.28 245.30 74.07 C 245.87 86.21 247.44 98.27 248.34 110.38 C 241.97 109.21 235.43 109.30 229.04 110.26 C 229.04 100.43 229.57 90.57 230.92 80.83 C 232.40 75.55 233.91 70.26 234.89 64.85 C 235.96 58.83 238.45 52.83 237.35 46.63 C 237.18 45.38 237.04 44.12 236.94 42.86 L 237.84 43.17 C 240.11 44.59 241.01 41.73 239.50 40.29 Z" />
<path fill="#0f430d" opacity="1.00" d=" M 302.95 59.57 C 303.67 59.78 305.10 60.19 305.82 60.40 C 305.96 61.03 306.22 62.30 306.35 62.93 L 305.95 63.70 C 301.51 71.57 299.66 80.50 297.04 89.06 C 294.76 96.82 291.57 104.42 291.06 112.58 C 290.12 119.24 284.77 124.08 283.33 130.60 C 282.14 130.53 280.96 130.46 279.78 130.39 C 279.24 129.58 278.69 128.79 278.11 128.02 C 277.36 127.12 276.57 126.27 275.73 125.46 C 273.68 123.84 271.49 122.40 269.34 120.91 C 269.73 119.13 270.10 117.34 270.55 115.57 C 274.11 111.60 276.65 106.88 279.34 102.32 C 284.78 93.12 290.34 83.98 295.80 74.79 C 297.90 71.31 299.65 67.64 301.13 63.86 C 301.74 62.43 302.37 61.01 302.95 59.57 Z" />
<path fill="#0f430d" opacity="1.00" d=" M 184.53 165.53 C 187.19 163.89 189.91 162.10 193.05 161.56 C 197.14 161.04 200.89 163.93 202.76 167.38 C 205.26 171.79 204.83 177.05 204.49 181.91 C 202.40 186.85 198.77 192.90 192.46 191.93 C 188.38 192.26 186.19 188.42 184.86 185.18 C 182.02 178.92 182.25 171.92 184.53 165.53 Z" />
<path fill="#0f430d" opacity="1.00" d=" M 235.55 174.55 C 237.52 171.23 241.67 170.42 245.23 170.64 C 251.01 171.79 254.34 177.63 255.26 183.02 C 256.21 188.55 253.58 193.92 250.10 198.04 C 248.38 199.90 245.85 201.40 243.23 200.83 C 238.14 200.01 235.07 195.29 232.87 191.07 C 229.94 185.67 232.44 179.26 235.55 174.55 Z" />
</g>
<g id="#6c8060ff">
<path fill="#6c8060" opacity="1.00" d=" M 239.50 40.29 C 241.01 41.73 240.11 44.59 237.84 43.17 C 237.56 41.72 238.12 40.76 239.50 40.29 Z" />
</g>
<g id="#769269ff">
<path fill="#769269" opacity="1.00" d=" M 237.35 46.63 C 238.45 52.83 235.96 58.83 234.89 64.85 C 233.91 70.26 232.40 75.55 230.92 80.83 C 226.70 76.70 223.85 71.29 218.88 67.91 C 217.01 70.58 214.96 73.50 215.55 76.96 C 216.59 87.46 217.21 98.10 220.02 108.33 C 220.01 109.70 219.97 111.09 219.67 112.44 C 216.51 115.02 212.45 116.06 208.88 117.93 C 199.52 122.32 192.26 130.11 186.59 138.59 C 183.79 142.54 184.26 147.57 184.36 152.15 C 185.96 151.22 187.56 150.29 189.10 149.26 L 189.81 148.81 C 188.06 150.89 186.36 153.02 184.74 155.20 C 181.88 149.81 181.72 142.60 185.66 137.66 C 189.78 132.20 193.49 126.17 199.21 122.22 C 205.05 118.04 211.36 114.27 218.44 112.66 C 218.67 107.95 216.21 103.71 216.10 99.05 C 215.62 91.34 213.93 83.75 213.40 76.05 C 213.60 72.54 214.91 67.93 218.97 67.30 C 223.78 67.81 226.11 72.41 229.00 75.64 C 229.41 75.48 230.23 75.18 230.63 75.03 C 233.43 68.48 233.65 61.25 235.51 54.44 C 236.16 51.84 236.83 49.26 237.35 46.63 Z" />
</g>
<g id="#547349ff">
<path fill="#547349" opacity="1.00" d=" M 245.30 74.07 C 245.01 66.28 243.02 58.27 245.65 50.66 C 245.73 55.37 245.67 60.10 246.14 64.80 C 246.03 80.17 248.93 95.35 249.07 110.71 L 248.34 110.38 C 247.44 98.27 245.87 86.21 245.30 74.07 Z" />
</g>
<g id="#7a8a6fff">
<path fill="#7a8a6f" opacity="1.00" d=" M 302.95 59.57 C 304.72 56.79 306.65 54.11 308.80 51.62 C 309.01 55.56 307.77 59.32 306.35 62.93 C 306.22 62.30 305.96 61.03 305.82 60.40 C 305.10 60.19 303.67 59.78 302.95 59.57 Z" />
</g>
<g id="#749564ff">
<path fill="#749564" opacity="1.00" d=" M 438.27 57.51 C 449.16 56.57 460.04 54.99 471.00 55.26 C 477.18 55.37 483.62 54.88 489.43 57.43 L 488.47 57.50 C 476.98 58.16 465.47 57.08 453.98 57.62 C 448.22 57.86 442.68 59.55 436.99 60.32 C 432.52 60.93 428.00 61.26 423.59 62.28 C 417.81 63.55 412.31 65.75 406.62 67.31 C 401.14 68.84 395.53 70.02 390.35 72.45 C 373.48 80.82 355.86 87.59 339.04 96.06 C 332.36 99.33 326.29 103.64 320.05 107.63 C 318.67 102.86 319.23 97.80 318.05 93.03 C 316.68 89.75 312.78 90.89 310.67 92.69 C 303.22 98.43 300.04 108.58 291.06 112.58 C 291.57 104.42 294.76 96.82 297.04 89.06 C 299.66 80.50 301.51 71.57 305.95 63.70 C 304.83 70.19 301.89 76.17 300.48 82.58 C 298.50 91.13 294.32 99.12 293.52 107.92 C 298.02 107.13 299.97 102.72 302.46 99.44 C 305.29 95.09 309.08 90.91 314.15 89.28 C 317.65 89.04 319.65 92.49 320.53 95.40 C 321.09 98.13 320.82 100.94 320.96 103.70 C 325.17 102.98 328.39 100.06 332.07 98.14 C 351.02 88.36 370.72 80.14 390.01 71.04 C 405.47 64.59 421.82 60.54 438.27 57.51 Z" />
</g>
<g id="#568849ff">
<path fill="#568849" opacity="1.00" d=" M 489.43 57.43 C 491.51 57.28 493.61 57.22 495.68 57.51 C 505.98 59.16 516.38 61.25 525.80 65.89 L 526.46 66.27 C 524.80 66.81 523.16 67.35 521.51 67.89 C 525.41 70.38 529.73 72.56 532.59 76.32 C 535.31 80.18 535.43 85.10 535.68 89.64 C 529.40 86.02 528.87 77.93 523.75 73.27 C 521.25 70.90 518.20 69.24 515.23 67.54 C 517.05 67.01 518.87 66.46 520.70 65.91 C 510.31 61.77 499.07 60.87 488.47 57.50 L 489.43 57.43 Z" />
</g>
<g id="#316719ff">
<path fill="#316719" opacity="1.00" d=" M 436.99 60.32 C 442.68 59.55 448.22 57.86 453.98 57.62 C 465.47 57.08 476.98 58.16 488.47 57.50 C 499.07 60.87 510.31 61.77 520.70 65.91 C 518.87 66.46 517.05 67.01 515.23 67.54 C 518.20 69.24 521.25 70.90 523.75 73.27 C 528.87 77.93 529.40 86.02 535.68 89.64 C 535.43 85.10 535.31 80.18 532.59 76.32 C 529.73 72.56 525.41 70.38 521.51 67.89 C 523.16 67.35 524.80 66.81 526.46 66.27 C 533.16 70.58 540.73 73.29 547.46 77.55 C 553.54 81.32 559.19 85.75 564.60 90.43 C 573.90 98.53 580.66 109.57 583.45 121.60 C 585.33 129.92 586.56 138.47 586.10 147.01 C 585.23 158.23 587.72 169.29 588.68 180.41 C 590.18 196.25 589.74 212.29 587.15 227.99 C 586.55 231.66 585.16 235.13 583.62 238.49 C 581.87 225.36 582.89 212.08 582.88 198.89 C 582.93 196.10 581.57 193.61 580.36 191.20 C 576.90 197.12 575.62 203.93 573.22 210.29 C 561.12 240.14 545.36 268.35 533.23 298.19 C 531.33 302.96 528.22 307.07 525.15 311.13 C 513.36 327.06 505.26 345.88 490.48 359.48 C 482.33 366.45 472.05 371.87 461.08 371.73 C 452.03 371.70 442.79 372.56 433.97 370.02 C 435.24 367.13 436.53 364.07 439.14 362.12 C 452.84 351.48 467.88 342.52 480.52 330.53 C 490.79 321.01 497.16 308.19 502.45 295.43 C 509.22 277.29 512.05 257.58 509.46 238.32 C 508.08 238.52 506.70 238.73 505.32 238.95 C 506.51 236.14 508.80 233.34 507.92 230.11 C 506.94 225.63 505.56 221.22 503.75 217.01 C 502.00 212.94 498.91 209.22 498.92 204.59 C 498.49 201.04 499.94 195.98 495.76 194.28 C 491.37 185.43 486.38 176.89 482.14 167.97 C 479.45 162.27 478.18 156.04 477.21 149.85 C 476.04 142.52 477.32 135.09 478.96 127.94 C 480.03 123.16 482.56 118.93 484.33 114.42 C 485.63 111.25 485.36 107.77 485.14 104.44 C 478.06 109.46 474.27 117.44 469.50 124.42 C 466.44 129.25 462.57 133.91 461.66 139.75 C 460.66 146.30 461.26 153.02 462.49 159.50 C 464.10 167.70 469.60 174.29 474.79 180.54 C 474.80 181.34 474.80 182.15 474.82 182.96 C 472.75 183.18 470.68 183.41 468.62 183.65 C 467.16 177.83 460.75 176.33 455.70 175.13 C 441.44 171.96 425.90 172.21 412.46 178.40 C 403.91 182.27 394.47 184.26 386.64 189.63 C 381.85 192.92 377.26 196.52 372.85 200.31 C 373.22 195.09 374.97 190.10 377.80 185.71 C 382.43 178.36 386.22 170.49 389.08 162.28 C 390.49 157.61 391.02 152.00 388.31 147.70 C 385.10 144.16 380.87 141.76 377.09 138.89 C 373.93 136.38 369.83 136.00 365.97 135.70 C 365.23 143.12 365.77 150.58 366.28 158.00 C 367.21 170.40 366.26 182.90 364.11 195.13 C 363.40 199.20 363.57 203.36 363.90 207.47 C 364.98 207.41 366.06 207.37 367.14 207.32 C 357.80 219.91 350.81 234.14 345.95 249.02 C 340.87 263.04 339.41 278.23 332.70 291.68 C 318.32 320.43 294.13 342.38 270.59 363.57 C 263.80 369.63 257.46 377.63 247.81 378.82 C 241.78 380.20 235.52 378.34 230.85 374.41 C 231.01 371.99 230.86 369.39 232.33 367.31 C 234.59 364.29 237.94 362.40 240.98 360.27 C 263.39 346.36 284.20 328.58 297.45 305.46 C 300.58 299.83 303.58 294.09 305.97 288.11 C 306.85 286.25 305.54 284.45 304.87 282.77 C 308.60 279.55 311.77 275.45 312.51 270.45 C 314.10 263.34 313.21 255.99 312.19 248.87 C 311.17 241.36 307.22 234.76 304.91 227.64 C 304.03 227.46 303.16 227.30 302.28 227.13 C 300.68 219.82 298.21 212.23 292.37 207.16 C 290.56 211.35 289.33 215.87 286.59 219.59 C 283.36 223.85 278.36 226.11 274.07 229.10 C 269.94 231.87 266.53 235.54 263.24 239.24 C 254.85 248.48 246.99 258.33 237.19 266.17 C 229.19 272.91 219.56 277.39 209.70 280.70 C 205.16 282.28 200.29 282.31 195.56 281.76 C 196.58 279.51 197.00 276.75 199.13 275.21 C 202.55 272.77 206.55 271.30 210.14 269.13 C 216.68 265.27 222.90 260.38 226.83 253.77 C 228.61 250.71 230.12 246.92 228.65 243.43 C 225.92 236.86 218.66 231.97 211.43 233.45 C 196.74 235.77 187.56 249.63 173.43 253.34 C 165.71 255.32 157.80 253.08 149.99 253.56 C 144.21 253.54 138.04 254.91 132.59 252.44 C 127.88 250.20 130.83 244.10 132.65 240.73 C 132.02 243.33 131.58 245.97 131.12 248.60 C 137.34 248.97 143.95 250.65 149.89 247.92 C 155.85 245.29 162.87 244.50 167.63 239.66 C 174.81 232.48 182.64 225.96 189.25 218.23 C 198.66 206.90 214.57 204.24 224.30 193.27 C 228.47 188.13 228.15 181.08 230.03 175.02 C 232.55 166.44 235.73 157.39 233.45 148.39 C 233.10 145.95 230.05 144.10 228.01 145.96 C 224.70 148.54 223.69 152.91 222.67 156.76 C 220.83 163.97 221.54 171.73 218.63 178.67 C 215.85 183.63 210.59 186.41 206.62 190.31 C 199.98 196.73 191.69 200.96 184.01 205.93 C 177.05 210.42 169.12 212.98 161.86 216.86 C 169.10 210.79 175.77 204.00 181.55 196.52 C 184.14 193.37 186.47 189.35 184.86 185.18 C 186.19 188.42 188.38 192.26 192.46 191.93 C 198.77 192.90 202.40 186.85 204.49 181.91 C 204.39 184.06 204.40 186.23 204.41 188.39 C 212.72 181.63 217.96 170.75 216.83 159.95 C 216.48 153.22 213.16 146.39 207.30 142.81 C 203.57 140.42 198.74 141.20 194.99 143.11 C 192.36 144.41 190.87 147.06 189.10 149.26 C 187.56 150.29 185.96 151.22 184.36 152.15 C 184.26 147.57 183.79 142.54 186.59 138.59 C 192.26 130.11 199.52 122.32 208.88 117.93 C 212.45 116.06 216.51 115.02 219.67 112.44 C 219.97 111.09 220.01 109.70 220.02 108.33 C 222.41 110.79 225.88 110.82 229.04 110.26 C 235.43 109.30 241.97 109.21 248.34 110.38 L 249.07 110.71 C 252.51 112.26 256.01 113.64 259.47 115.14 C 259.93 117.53 260.44 119.99 261.87 122.01 C 265.49 126.80 267.34 132.55 268.37 138.40 C 269.70 135.35 271.01 132.28 272.69 129.40 C 273.55 130.58 274.41 131.77 275.28 132.95 C 277.11 139.74 274.28 146.42 272.83 152.96 C 276.72 148.37 279.34 142.94 282.29 137.75 C 282.57 137.57 283.13 137.20 283.41 137.02 C 284.00 139.27 284.64 141.52 285.31 143.76 C 286.89 142.81 288.61 142.09 290.10 141.00 C 290.75 139.22 291.07 137.36 291.59 135.55 C 290.68 135.38 288.86 135.04 287.96 134.87 C 294.86 132.36 301.47 128.94 306.95 123.97 C 312.52 119.64 317.99 114.64 320.05 107.63 C 326.29 103.64 332.36 99.33 339.04 96.06 C 355.86 87.59 373.48 80.82 390.35 72.45 C 395.53 70.02 401.14 68.84 406.62 67.31 C 412.31 65.75 417.81 63.55 423.59 62.28 C 428.00 61.26 432.52 60.93 436.99 60.32 M 482.93 61.03 C 486.32 63.33 489.97 65.25 493.11 67.89 C 497.55 71.58 499.21 77.91 504.71 80.44 C 504.30 76.44 503.93 72.04 501.13 68.89 C 496.49 63.92 489.85 60.62 482.93 61.03 M 443.63 62.49 C 447.27 64.51 451.11 66.14 454.70 68.24 C 460.02 71.38 462.70 77.25 467.22 81.27 C 468.75 74.85 464.30 69.23 459.80 65.25 C 455.06 62.15 449.06 62.45 443.63 62.49 M 415.58 69.78 C 418.73 71.02 421.97 71.93 425.19 72.96 C 431.17 75.76 433.19 83.42 439.73 85.41 C 438.92 81.18 438.11 76.38 434.50 73.55 C 429.17 69.60 422.05 66.84 415.58 69.78 M 391.93 77.18 C 395.37 77.73 399.04 77.96 402.05 79.89 C 408.08 83.58 412.47 89.33 418.35 93.24 C 418.93 86.25 413.53 79.99 407.11 77.97 C 402.26 75.99 396.96 76.25 391.93 77.18 M 541.79 78.93 C 544.37 84.31 549.12 88.61 550.29 94.64 C 551.19 99.21 551.44 103.91 552.62 108.44 C 556.42 104.54 556.70 98.54 555.25 93.56 C 552.70 87.34 548.51 81.07 541.79 78.93 M 370.77 87.32 C 375.17 88.96 379.66 90.60 383.32 93.64 C 385.28 95.37 387.85 95.97 390.37 96.34 C 389.68 94.31 389.84 91.53 387.69 90.37 C 382.64 87.28 376.51 87.11 370.77 87.32 M 288.05 143.63 C 291.08 152.52 295.09 161.17 296.49 170.54 C 297.38 177.00 297.85 183.52 297.96 190.04 C 298.07 194.80 296.73 199.41 296.06 204.09 C 295.48 209.14 298.68 213.55 301.52 217.40 C 301.47 213.11 300.55 208.55 302.45 204.51 C 304.51 199.77 307.19 195.15 307.68 189.90 C 308.25 183.59 307.49 177.25 306.95 170.96 C 306.33 161.45 300.56 153.34 294.82 146.14 C 293.29 143.83 290.52 143.75 288.05 143.63 M 239.91 169.30 C 241.69 169.73 243.47 170.15 245.23 170.64 C 241.67 170.42 237.52 171.23 235.55 174.55 C 232.44 179.26 229.94 185.67 232.87 191.07 C 235.07 195.29 238.14 200.01 243.23 200.83 C 245.85 201.40 248.38 199.90 250.10 198.04 C 250.15 199.28 250.20 200.52 250.25 201.77 C 255.09 201.64 259.98 201.49 264.72 200.40 C 269.71 199.23 273.77 195.83 277.29 192.27 C 283.64 185.95 284.86 174.79 279.35 167.58 C 273.75 159.87 263.87 154.83 254.28 156.55 C 247.72 158.09 242.57 163.24 239.91 169.30 Z" />
</g>
<g id="#558842ff">
<path fill="#558842" opacity="1.00" d=" M 482.93 61.03 C 489.85 60.62 496.49 63.92 501.13 68.89 C 503.93 72.04 504.30 76.44 504.71 80.44 C 499.21 77.91 497.55 71.58 493.11 67.89 C 489.97 65.25 486.32 63.33 482.93 61.03 Z" />
</g>
<g id="#548748ff">
<path fill="#548748" opacity="1.00" d=" M 443.63 62.49 C 449.06 62.45 455.06 62.15 459.80 65.25 C 464.30 69.23 468.75 74.85 467.22 81.27 C 462.70 77.25 460.02 71.38 454.70 68.24 C 451.11 66.14 447.27 64.51 443.63 62.49 Z" />
</g>
<g id="#728d68ff">
<path fill="#728d68" opacity="1.00" d=" M 295.52 72.49 C 297.29 69.55 298.77 66.39 301.13 63.86 C 299.65 67.64 297.90 71.31 295.80 74.79 C 290.34 83.98 284.78 93.12 279.34 102.32 C 276.65 106.88 274.11 111.60 270.55 115.57 L 269.80 116.23 C 277.83 101.34 287.16 87.19 295.52 72.49 Z" />
</g>
<g id="#7aa770ff">
<path fill="#7aa770" opacity="1.00" d=" M 246.14 64.80 C 247.99 79.10 248.84 93.51 250.09 107.87 C 250.14 110.23 252.80 110.82 254.56 111.52 C 259.38 113.00 263.81 115.44 268.41 117.47 C 266.63 119.94 267.42 123.09 267.58 125.89 C 265.66 124.62 263.71 123.39 261.87 122.01 C 260.44 119.99 259.93 117.53 259.47 115.14 C 256.01 113.64 252.51 112.26 249.07 110.71 C 248.93 95.35 246.03 80.17 246.14 64.80 Z" />
</g>
<g id="#749963ff">
<path fill="#749963" opacity="1.00" d=" M 525.80 65.89 C 529.74 66.52 533.25 68.40 536.72 70.26 C 546.17 74.16 554.41 80.35 562.35 86.68 C 570.72 93.07 577.35 101.58 581.65 111.17 C 583.65 117.07 585.92 122.93 586.74 129.16 C 588.77 138.99 587.20 149.05 587.91 158.97 C 588.93 167.97 590.90 176.89 590.83 185.98 C 590.94 195.64 590.99 205.30 590.68 214.96 C 589.97 221.78 588.53 228.51 587.08 235.21 C 586.47 238.40 584.95 241.35 582.61 243.62 C 582.18 240.43 581.96 237.21 582.01 234.00 C 582.29 224.31 582.12 214.62 582.14 204.93 C 581.92 201.68 581.25 198.48 580.37 195.34 C 579.53 197.33 578.71 199.33 577.97 201.36 C 571.81 220.05 562.70 237.56 554.25 255.29 C 548.11 268.83 541.34 282.08 535.82 295.90 C 534.31 299.30 533.16 302.92 530.88 305.92 C 520.12 318.90 512.73 334.23 502.77 347.78 C 495.94 357.23 487.26 365.83 476.26 370.17 C 466.42 374.49 455.46 373.98 444.97 373.72 C 440.40 373.60 435.87 372.34 431.98 369.93 C 432.83 367.38 433.58 364.58 435.96 363.00 C 452.46 349.86 471.16 339.22 485.31 323.34 C 490.43 317.05 494.16 309.80 497.59 302.50 C 503.41 290.86 506.33 278.00 508.07 265.18 C 508.95 257.21 509.36 249.03 507.59 241.14 C 506.26 243.27 504.97 245.45 504.22 247.86 C 502.56 255.38 500.31 262.83 496.61 269.62 C 492.29 280.24 485.31 289.42 478.53 298.55 C 474.29 305.49 470.39 312.66 467.02 320.07 C 462.59 328.56 458.89 338.00 451.07 344.03 C 456.29 336.71 461.21 329.14 464.99 320.96 C 469.35 311.64 473.77 302.23 480.06 294.02 C 488.35 283.39 495.14 271.52 499.66 258.80 C 502.23 252.38 502.82 245.38 505.32 238.95 C 506.70 238.73 508.08 238.52 509.46 238.32 C 512.05 257.58 509.22 277.29 502.45 295.43 C 497.16 308.19 490.79 321.01 480.52 330.53 C 467.88 342.52 452.84 351.48 439.14 362.12 C 436.53 364.07 435.24 367.13 433.97 370.02 C 442.79 372.56 452.03 371.70 461.08 371.73 C 472.05 371.87 482.33 366.45 490.48 359.48 C 505.26 345.88 513.36 327.06 525.15 311.13 C 528.22 307.07 531.33 302.96 533.23 298.19 C 545.36 268.35 561.12 240.14 573.22 210.29 C 575.62 203.93 576.90 197.12 580.36 191.20 C 581.57 193.61 582.93 196.10 582.88 198.89 C 582.89 212.08 581.87 225.36 583.62 238.49 C 585.16 235.13 586.55 231.66 587.15 227.99 C 589.74 212.29 590.18 196.25 588.68 180.41 C 587.72 169.29 585.23 158.23 586.10 147.01 C 586.56 138.47 585.33 129.92 583.45 121.60 C 580.66 109.57 573.90 98.53 564.60 90.43 C 559.19 85.75 553.54 81.32 547.46 77.55 C 540.73 73.29 533.16 70.58 526.46 66.27 L 525.80 65.89 Z" />
</g>
<g id="#5a8b4bff">
<path fill="#5a8b4b" opacity="1.00" d=" M 415.58 69.78 C 422.05 66.84 429.17 69.60 434.50 73.55 C 438.11 76.38 438.92 81.18 439.73 85.41 C 433.19 83.42 431.17 75.76 425.19 72.96 C 421.97 71.93 418.73 71.02 415.58 69.78 Z" />
</g>
<g id="#1c4c0eff">
<path fill="#1c4c0e" opacity="1.00" d=" M 215.55 76.96 C 214.96 73.50 217.01 70.58 218.88 67.91 C 223.85 71.29 226.70 76.70 230.92 80.83 C 229.57 90.57 229.04 100.43 229.04 110.26 C 225.88 110.82 222.41 110.79 220.02 108.33 C 217.21 98.10 216.59 87.46 215.55 76.96 Z" />
<path fill="#1c4c0e" opacity="1.00" d=" M 310.67 92.69 C 312.78 90.89 316.68 89.75 318.05 93.03 C 319.23 97.80 318.67 102.86 320.05 107.63 C 317.99 114.64 312.52 119.64 306.95 123.97 C 301.47 128.94 294.86 132.36 287.96 134.87 C 286.41 135.53 284.89 136.24 283.41 137.02 C 283.13 137.20 282.57 137.57 282.29 137.75 C 281.47 135.29 280.72 132.81 279.78 130.39 C 280.96 130.46 282.14 130.53 283.33 130.60 C 284.77 124.08 290.12 119.24 291.06 112.58 C 300.04 108.58 303.22 98.43 310.67 92.69 Z" />
<path fill="#1c4c0e" opacity="1.00" d=" M 228.01 145.96 C 230.05 144.10 233.10 145.95 233.45 148.39 C 235.73 157.39 232.55 166.44 230.03 175.02 C 228.15 181.08 228.47 188.13 224.30 193.27 C 214.57 204.24 198.66 206.90 189.25 218.23 C 182.64 225.96 174.81 232.48 167.63 239.66 C 162.87 244.50 155.85 245.29 149.89 247.92 C 143.95 250.65 137.34 248.97 131.12 248.60 C 131.58 245.97 132.02 243.33 132.65 240.73 C 140.30 230.55 152.03 224.65 161.86 216.86 C 169.12 212.98 177.05 210.42 184.01 205.93 C 191.69 200.96 199.98 196.73 206.62 190.31 C 210.59 186.41 215.85 183.63 218.63 178.67 C 221.54 171.73 220.83 163.97 222.67 156.76 C 223.69 152.91 224.70 148.54 228.01 145.96 Z" />
<path fill="#1c4c0e" opacity="1.00" d=" M 302.28 227.13 C 303.16 227.30 304.03 227.46 304.91 227.64 C 307.22 234.76 311.17 241.36 312.19 248.87 C 313.21 255.99 314.10 263.34 312.51 270.45 C 311.77 275.45 308.60 279.55 304.87 282.77 C 300.79 286.38 297.19 290.48 293.21 294.19 C 283.54 302.82 273.20 310.85 265.02 321.00 C 255.05 333.42 245.63 346.29 235.09 358.24 C 231.89 361.50 228.66 364.74 225.39 367.94 C 221.93 371.07 218.17 374.88 213.09 374.61 C 205.15 374.43 197.00 376.17 189.28 373.57 C 190.46 371.36 191.63 369.13 192.96 367.00 C 193.22 366.77 193.74 366.32 194.00 366.10 C 202.86 360.43 211.00 353.75 219.25 347.26 C 228.40 340.00 234.87 330.17 242.32 321.31 C 260.55 299.56 276.76 276.04 289.93 250.87 C 294.39 243.13 297.00 234.41 302.28 227.13 Z" />
<path fill="#1c4c0e" opacity="1.00" d=" M 26.67 345.67 C 32.28 338.09 41.76 334.09 51.00 333.74 C 59.30 333.60 66.60 338.37 72.46 343.80 C 72.40 345.40 72.34 347.00 72.28 348.60 C 66.32 344.70 59.14 342.41 51.99 343.77 C 40.33 345.18 32.42 354.71 22.56 360.02 C 22.69 361.74 22.81 363.47 22.95 365.21 C 21.25 364.98 19.56 364.69 17.87 364.43 C 17.63 357.06 22.65 351.30 26.67 345.67 Z" />
</g>
<g id="#578947ff">
<path fill="#578947" opacity="1.00" d=" M 391.93 77.18 C 396.96 76.25 402.26 75.99 407.11 77.97 C 413.53 79.99 418.93 86.25 418.35 93.24 C 412.47 89.33 408.08 83.58 402.05 79.89 C 399.04 77.96 395.37 77.73 391.93 77.18 Z" />
</g>
<g id="#558844ff">
<path fill="#558844" opacity="1.00" d=" M 541.79 78.93 C 548.51 81.07 552.70 87.34 555.25 93.56 C 556.70 98.54 556.42 104.54 552.62 108.44 C 551.44 103.91 551.19 99.21 550.29 94.64 C 549.12 88.61 544.37 84.31 541.79 78.93 Z" />
</g>
<g id="#4d7e40ff">
<path fill="#4d7e40" opacity="1.00" d=" M 370.77 87.32 C 376.51 87.11 382.64 87.28 387.69 90.37 C 389.84 91.53 389.68 94.31 390.37 96.34 C 387.85 95.97 385.28 95.37 383.32 93.64 C 379.66 90.60 375.17 88.96 370.77 87.32 Z" />
</g>
<g id="#124a26ff">
<path fill="#124a26" opacity="1.00" d=" M 469.50 124.42 C 474.27 117.44 478.06 109.46 485.14 104.44 C 485.36 107.77 485.63 111.25 484.33 114.42 C 482.56 118.93 480.03 123.16 478.96 127.94 C 477.32 135.09 476.04 142.52 477.21 149.85 C 478.18 156.04 479.45 162.27 482.14 167.97 C 486.38 176.89 491.37 185.43 495.76 194.28 C 491.98 195.52 488.00 194.51 484.97 192.03 C 480.76 188.99 478.09 184.44 474.79 180.54 C 469.60 174.29 464.10 167.70 462.49 159.50 C 461.26 153.02 460.66 146.30 461.66 139.75 C 462.57 133.91 466.44 129.25 469.50 124.42 Z" />
<path fill="#124a26" opacity="1.00" d=" M 365.97 135.70 C 369.83 136.00 373.93 136.38 377.09 138.89 C 380.87 141.76 385.10 144.16 388.31 147.70 C 391.02 152.00 390.49 157.61 389.08 162.28 C 386.22 170.49 382.43 178.36 377.80 185.71 C 374.97 190.10 373.22 195.09 372.85 200.31 C 370.77 202.50 368.94 204.90 367.14 207.32 C 366.06 207.37 364.98 207.41 363.90 207.47 C 363.57 203.36 363.40 199.20 364.11 195.13 C 366.26 182.90 367.21 170.40 366.28 158.00 C 365.77 150.58 365.23 143.12 365.97 135.70 Z" />
</g>
<g id="#4c7e3cff">
<path fill="#4c7e3c" opacity="1.00" d=" M 268.41 117.47 C 268.76 117.16 269.45 116.54 269.80 116.23 L 270.55 115.57 C 270.10 117.34 269.73 119.13 269.34 120.91 C 271.49 122.40 273.68 123.84 275.73 125.46 C 274.68 126.75 273.64 128.04 272.69 129.40 C 271.01 132.28 269.70 135.35 268.37 138.40 C 267.34 132.55 265.49 126.80 261.87 122.01 C 263.71 123.39 265.66 124.62 267.58 125.89 C 267.42 123.09 266.63 119.94 268.41 117.47 Z" />
</g>
<g id="#80ac74ff">
<path fill="#80ac74" opacity="1.00" d=" M 272.69 129.40 C 273.64 128.04 274.68 126.75 275.73 125.46 C 276.57 126.27 277.36 127.12 278.11 128.02 C 278.89 131.01 279.15 134.09 279.27 137.17 C 277.90 135.80 276.52 134.44 275.28 132.95 C 274.41 131.77 273.55 130.58 272.69 129.40 Z" />
</g>
<g id="#548141ff">
<path fill="#548141" opacity="1.00" d=" M 278.11 128.02 C 278.69 128.79 279.24 129.58 279.78 130.39 C 280.72 132.81 281.47 135.29 282.29 137.75 C 279.34 142.94 276.72 148.37 272.83 152.96 C 274.28 146.42 277.11 139.74 275.28 132.95 C 276.52 134.44 277.90 135.80 279.27 137.17 C 279.15 134.09 278.89 131.01 278.11 128.02 Z" />
</g>
<g id="#669154ff">
<path fill="#669154" opacity="1.00" d=" M 283.41 137.02 C 284.89 136.24 286.41 135.53 287.96 134.87 C 288.86 135.04 290.68 135.38 291.59 135.55 C 291.07 137.36 290.75 139.22 290.10 141.00 C 288.61 142.09 286.89 142.81 285.31 143.76 C 284.64 141.52 284.00 139.27 283.41 137.02 M 285.56 142.18 C 286.79 141.42 287.99 140.59 289.14 139.71 C 289.43 137.96 289.60 135.82 287.13 136.79 C 284.36 137.19 285.26 140.31 285.56 142.18 Z" />
</g>
<g id="#a0c392ff">
<path fill="#a0c392" opacity="1.00" d=" M 285.56 142.18 C 285.26 140.31 284.36 137.19 287.13 136.79 C 289.60 135.82 289.43 137.96 289.14 139.71 C 287.99 140.59 286.79 141.42 285.56 142.18 Z" />
</g>
<g id="#62925aff">
<path fill="#62925a" opacity="1.00" d=" M 194.99 143.11 C 198.74 141.20 203.57 140.42 207.30 142.81 C 213.16 146.39 216.48 153.22 216.83 159.95 C 217.96 170.75 212.72 181.63 204.41 188.39 C 204.40 186.23 204.39 184.06 204.49 181.91 C 204.83 177.05 205.26 171.79 202.76 167.38 C 200.89 163.93 197.14 161.04 193.05 161.56 C 189.91 162.10 187.19 163.89 184.53 165.53 C 184.07 165.85 183.16 166.48 182.70 166.80 C 184.88 163.74 187.22 159.98 191.29 159.41 C 196.44 158.45 201.70 161.15 204.50 165.46 C 207.65 169.99 207.43 175.73 208.11 180.98 C 215.56 172.90 217.16 160.05 211.61 150.52 C 209.68 146.94 206.31 143.55 201.99 143.52 C 197.41 143.66 193.54 146.46 189.81 148.81 L 189.10 149.26 C 190.87 147.06 192.36 144.41 194.99 143.11 Z" />
</g>
<g id="#1c4d0fff">
<path fill="#1c4d0f" opacity="1.00" d=" M 288.05 143.63 C 290.52 143.75 293.29 143.83 294.82 146.14 C 300.56 153.34 306.33 161.45 306.95 170.96 C 307.49 177.25 308.25 183.59 307.68 189.90 C 307.19 195.15 304.51 199.77 302.45 204.51 C 300.55 208.55 301.47 213.11 301.52 217.40 C 298.68 213.55 295.48 209.14 296.06 204.09 C 296.73 199.41 298.07 194.80 297.96 190.04 C 297.85 183.52 297.38 177.00 296.49 170.54 C 295.09 161.17 291.08 152.52 288.05 143.63 Z" />
</g>
<g id="#9fc6a1ff">
<path fill="#9fc6a1" opacity="1.00" d=" M 189.81 148.81 C 193.54 146.46 197.41 143.66 201.99 143.52 C 206.31 143.55 209.68 146.94 211.61 150.52 C 217.16 160.05 215.56 172.90 208.11 180.98 C 207.43 175.73 207.65 169.99 204.50 165.46 C 201.70 161.15 196.44 158.45 191.29 159.41 C 187.22 159.98 184.88 163.74 182.70 166.80 C 182.15 167.59 181.63 168.40 181.15 169.23 C 181.10 164.35 182.23 159.42 184.74 155.20 C 186.36 153.02 188.06 150.89 189.81 148.81 Z" />
</g>
<g id="#65915bff">
<path fill="#65915b" opacity="1.00" d=" M 239.91 169.30 C 242.57 163.24 247.72 158.09 254.28 156.55 C 263.87 154.83 273.75 159.87 279.35 167.58 C 284.86 174.79 283.64 185.95 277.29 192.27 C 273.77 195.83 269.71 199.23 264.72 200.40 C 259.98 201.49 255.09 201.64 250.25 201.77 C 250.20 200.52 250.15 199.28 250.10 198.04 C 253.58 193.92 256.21 188.55 255.26 183.02 C 254.34 177.63 251.01 171.79 245.23 170.64 C 243.47 170.15 241.69 169.73 239.91 169.30 M 242.74 167.40 C 246.33 169.02 250.33 170.02 253.38 172.62 C 256.59 176.54 258.02 181.84 257.54 186.87 C 257.18 190.87 255.28 194.50 253.61 198.09 C 253.99 198.56 254.75 199.51 255.13 199.99 C 261.50 198.83 268.29 197.61 273.40 193.34 C 276.61 190.32 278.75 186.29 280.23 182.19 C 282.15 176.57 279.37 170.59 275.44 166.58 C 270.60 161.76 263.94 158.25 256.98 158.53 C 251.21 159.29 246.53 163.24 242.74 167.40 Z" />
</g>
<g id="#9ec49fff">
<path fill="#9ec49f" opacity="1.00" d=" M 242.74 167.40 C 246.53 163.24 251.21 159.29 256.98 158.53 C 263.94 158.25 270.60 161.76 275.44 166.58 C 279.37 170.59 282.15 176.57 280.23 182.19 C 278.75 186.29 276.61 190.32 273.40 193.34 C 268.29 197.61 261.50 198.83 255.13 199.99 C 254.75 199.51 253.99 198.56 253.61 198.09 C 255.28 194.50 257.18 190.87 257.54 186.87 C 258.02 181.84 256.59 176.54 253.38 172.62 C 250.33 170.02 246.33 169.02 242.74 167.40 Z" />
</g>
<g id="#769c64ff">
<path fill="#769c64" opacity="1.00" d=" M 182.70 166.80 C 183.16 166.48 184.07 165.85 184.53 165.53 C 182.25 171.92 182.02 178.92 184.86 185.18 C 186.47 189.35 184.14 193.37 181.55 196.52 C 175.77 204.00 169.10 210.79 161.86 216.86 C 152.03 224.65 140.30 230.55 132.65 240.73 C 130.83 244.10 127.88 250.20 132.59 252.44 C 138.04 254.91 144.21 253.54 149.99 253.56 C 157.80 253.08 165.71 255.32 173.43 253.34 C 187.56 249.63 196.74 235.77 211.43 233.45 C 218.66 231.97 225.92 236.86 228.65 243.43 C 230.12 246.92 228.61 250.71 226.83 253.77 C 222.90 260.38 216.68 265.27 210.14 269.13 C 206.55 271.30 202.55 272.77 199.13 275.21 C 197.00 276.75 196.58 279.51 195.56 281.76 C 200.29 282.31 205.16 282.28 209.70 280.70 C 219.56 277.39 229.19 272.91 237.19 266.17 C 246.99 258.33 254.85 248.48 263.24 239.24 C 266.53 235.54 269.94 231.87 274.07 229.10 C 278.36 226.11 283.36 223.85 286.59 219.59 C 289.33 215.87 290.56 211.35 292.37 207.16 C 298.21 212.23 300.68 219.82 302.28 227.13 C 297.00 234.41 294.39 243.13 289.93 250.87 C 276.76 276.04 260.55 299.56 242.32 321.31 C 234.87 330.17 228.40 340.00 219.25 347.26 C 211.00 353.75 202.86 360.43 194.00 366.10 C 197.16 361.47 202.36 359.11 206.42 355.45 C 211.20 351.55 216.42 348.20 220.90 343.94 C 228.37 337.30 234.08 329.05 240.43 321.41 C 244.05 317.34 246.95 312.69 250.71 308.73 C 260.74 295.85 270.05 282.40 278.42 268.38 C 284.31 258.12 290.55 248.00 295.11 237.05 C 296.74 233.30 299.12 229.85 300.27 225.90 C 300.38 221.54 297.36 217.90 295.85 213.96 C 295.21 212.63 294.54 211.31 293.88 210.00 C 293.38 210.93 292.87 211.87 292.37 212.81 C 289.98 217.33 287.25 221.94 282.97 224.91 C 278.50 228.12 273.43 230.56 269.63 234.62 C 263.96 239.98 259.21 246.18 253.76 251.74 C 247.56 259.52 239.93 266.02 232.06 272.04 C 222.41 277.97 211.63 282.18 200.53 284.39 C 198.24 284.97 194.82 283.64 195.04 280.90 C 194.48 277.02 197.60 273.49 201.05 272.19 C 208.58 269.30 215.17 264.46 221.12 259.10 C 224.41 255.53 227.81 251.14 227.39 245.99 C 227.67 241.36 223.35 238.21 219.74 236.19 C 213.53 232.99 206.63 236.07 200.92 238.88 C 191.45 244.42 183.25 252.76 172.21 255.14 C 165.82 256.81 159.31 254.68 152.85 255.24 C 145.68 254.75 138.12 256.62 131.30 253.63 C 129.06 252.84 127.88 250.39 128.21 248.12 C 129.03 241.36 134.03 236.22 138.89 231.91 C 148.60 223.10 160.62 217.22 169.84 207.84 C 174.99 202.20 180.25 196.47 184.09 189.84 C 183.90 186.03 181.68 182.67 181.21 178.90 C 180.87 175.69 180.87 172.44 181.15 169.23 C 181.63 168.40 182.15 167.59 182.70 166.80 Z" />
</g>
<g id="#758e69ff">
<path fill="#758e69" opacity="1.00" d=" M 412.46 178.40 C 425.90 172.21 441.44 171.96 455.70 175.13 C 460.75 176.33 467.16 177.83 468.62 183.65 C 470.23 190.56 473.33 196.91 476.37 203.26 C 480.22 214.03 480.77 225.71 480.59 237.05 C 480.35 250.63 473.94 262.97 467.61 274.63 C 455.52 296.58 437.20 314.15 418.88 330.89 C 414.24 334.98 409.48 339.01 405.84 344.07 C 408.97 346.49 412.28 348.93 416.25 349.73 C 422.65 351.04 429.27 351.97 435.81 351.17 C 441.04 350.52 445.73 347.88 450.10 345.08 C 444.57 351.92 435.13 354.70 426.62 353.32 C 419.76 352.50 412.62 351.21 406.88 347.11 C 404.29 344.94 404.95 341.33 407.38 339.34 C 426.47 322.52 445.57 305.20 460.24 284.23 C 463.14 279.14 466.32 274.21 469.04 269.03 C 472.98 260.02 477.43 250.94 478.23 241.00 C 478.80 230.48 478.32 219.89 476.50 209.50 C 475.12 202.93 471.29 197.26 469.11 190.97 C 467.91 187.96 467.59 184.67 466.34 181.69 C 465.09 180.16 463.30 179.21 461.55 178.40 C 455.19 176.46 448.57 175.60 441.99 174.88 C 434.69 174.18 427.46 175.80 420.36 177.24 C 414.48 178.46 409.25 181.54 403.65 183.58 C 399.14 185.39 394.36 186.63 390.20 189.18 C 376.60 197.65 365.09 209.73 358.19 224.27 C 350.92 237.79 345.95 252.40 342.20 267.25 C 338.19 290.31 324.78 310.36 309.52 327.57 C 302.91 335.59 294.99 342.33 287.66 349.67 C 281.81 355.83 275.05 361.00 269.07 367.03 C 263.45 371.46 258.83 377.62 251.63 379.57 C 244.44 382.31 236.13 380.80 230.19 375.96 C 230.36 375.57 230.68 374.80 230.85 374.41 C 235.52 378.34 241.78 380.20 247.81 378.82 C 257.46 377.63 263.80 369.63 270.59 363.57 C 294.13 342.38 318.32 320.43 332.70 291.68 C 339.41 278.23 340.87 263.04 345.95 249.02 C 350.81 234.14 357.80 219.91 367.14 207.32 C 368.94 204.90 370.77 202.50 372.85 200.31 C 377.26 196.52 381.85 192.92 386.64 189.63 C 394.47 184.26 403.91 182.27 412.46 178.40 Z" />
</g>
<g id="#1e4f10ff">
<path fill="#1e4f10" opacity="1.00" d=" M 474.79 180.54 C 478.09 184.44 480.76 188.99 484.97 192.03 C 488.00 194.51 491.98 195.52 495.76 194.28 C 499.94 195.98 498.49 201.04 498.92 204.59 C 498.91 209.22 502.00 212.94 503.75 217.01 C 505.56 221.22 506.94 225.63 507.92 230.11 C 508.80 233.34 506.51 236.14 505.32 238.95 C 502.82 245.38 502.23 252.38 499.66 258.80 C 495.14 271.52 488.35 283.39 480.06 294.02 C 473.77 302.23 469.35 311.64 464.99 320.96 C 461.21 329.14 456.29 336.71 451.07 344.03 C 450.82 344.29 450.34 344.81 450.10 345.08 C 445.73 347.88 441.04 350.52 435.81 351.17 C 429.27 351.97 422.65 351.04 416.25 349.73 C 412.28 348.93 408.97 346.49 405.84 344.07 C 409.48 339.01 414.24 334.98 418.88 330.89 C 437.20 314.15 455.52 296.58 467.61 274.63 C 473.94 262.97 480.35 250.63 480.59 237.05 C 480.77 225.71 480.22 214.03 476.37 203.26 C 473.33 196.91 470.23 190.56 468.62 183.65 C 470.68 183.41 472.75 183.18 474.82 182.96 C 474.80 182.15 474.80 181.34 474.79 180.54 Z" />
</g>
<g id="#c0d8b3ff">
<path fill="#c0d8b3" opacity="1.00" d=" M 577.97 201.36 C 578.71 199.33 579.53 197.33 580.37 195.34 C 581.25 198.48 581.92 201.68 582.14 204.93 C 580.76 203.72 579.38 202.52 577.97 201.36 Z" />
</g>
<g id="#a9c89bff">
<path fill="#a9c89b" opacity="1.00" d=" M 292.37 212.81 C 292.87 211.87 293.38 210.93 293.88 210.00 C 294.54 211.31 295.21 212.63 295.85 213.96 C 294.69 213.57 293.53 213.17 292.37 212.81 Z" />
</g>
<g id="#b4cda7ff">
<path fill="#b4cda7" opacity="1.00" d=" M 504.22 247.86 C 504.97 245.45 506.26 243.27 507.59 241.14 C 509.36 249.03 508.95 257.21 508.07 265.18 C 508.15 259.06 507.99 252.94 507.95 246.82 C 506.70 247.15 505.46 247.50 504.22 247.86 Z" />
</g>
<g id="#7aa367ff">
<path fill="#7aa367" opacity="1.00" d=" M 293.21 294.19 C 297.19 290.48 300.79 286.38 304.87 282.77 C 305.54 284.45 306.85 286.25 305.97 288.11 C 303.58 294.09 300.58 299.83 297.45 305.46 C 284.20 328.58 263.39 346.36 240.98 360.27 C 241.83 359.05 242.79 357.90 244.00 357.03 C 252.87 350.25 262.38 344.26 270.43 336.47 C 275.39 332.76 278.90 327.60 283.25 323.26 C 291.78 312.79 299.86 301.42 303.59 288.27 C 298.08 289.45 295.34 294.88 291.09 298.03 C 282.74 304.63 274.94 311.89 267.76 319.74 C 259.57 329.63 251.95 339.97 244.03 350.07 C 241.35 353.06 238.87 356.56 235.09 358.24 C 245.63 346.29 255.05 333.42 265.02 321.00 C 273.20 310.85 283.54 302.82 293.21 294.19 Z" />
</g>
<g id="#78926cff">
<path fill="#78926c" opacity="1.00" d=" M 67.14 308.14 C 67.60 305.75 70.28 304.30 72.57 305.28 C 74.59 306.67 75.93 308.81 76.87 311.04 C 80.11 319.73 81.64 329.04 80.78 338.31 C 80.21 330.49 79.36 322.57 76.95 315.07 C 75.57 311.52 73.99 307.11 69.79 306.18 C 68.18 309.59 70.81 312.81 72.23 315.76 C 74.28 319.25 75.44 323.25 75.26 327.32 C 74.04 323.74 73.30 319.95 71.38 316.64 C 69.91 313.85 67.69 311.32 67.14 308.14 Z" />
</g>
<g id="#1d4d0fff">
<path fill="#1d4d0f" opacity="1.00" d=" M 72.23 315.76 C 70.81 312.81 68.18 309.59 69.79 306.18 C 73.99 307.11 75.57 311.52 76.95 315.07 C 79.36 322.57 80.21 330.49 80.78 338.31 C 80.82 339.03 80.90 340.45 80.94 341.16 C 80.06 341.96 79.17 342.76 78.28 343.56 C 77.60 341.62 76.92 339.69 76.26 337.75 C 74.83 334.45 75.47 330.81 75.26 327.32 C 75.44 323.25 74.28 319.25 72.23 315.76 Z" />
</g>
<g id="#839976ff">
<path fill="#839976" opacity="1.00" d=" M 91.91 313.76 C 92.48 310.36 94.79 307.66 98.06 306.57 C 100.04 312.12 97.60 317.81 96.07 323.14 C 96.60 318.53 97.18 313.92 97.48 309.29 C 95.57 310.71 93.67 312.16 91.91 313.76 Z" />
</g>
<g id="#1d4c0fff">
<path fill="#1d4c0f" opacity="1.00" d=" M 91.91 313.76 C 93.67 312.16 95.57 310.71 97.48 309.29 C 97.18 313.92 96.60 318.53 96.07 323.14 C 94.59 328.73 92.10 333.97 90.01 339.34 C 88.87 339.50 87.73 339.67 86.58 339.84 C 86.69 339.14 86.90 337.74 87.00 337.04 C 88.07 332.82 89.98 328.83 90.68 324.51 C 91.42 320.96 90.86 317.25 91.91 313.76 Z" />
</g>
<g id="#719162ff">
<path fill="#719162" opacity="1.00" d=" M 39.57 334.62 C 47.15 331.23 56.38 331.16 63.64 335.41 C 67.11 337.45 71.20 339.50 72.67 343.53 L 73.03 344.35 L 72.46 343.80 C 66.60 338.37 59.30 333.60 51.00 333.74 C 41.76 334.09 32.28 338.09 26.67 345.67 C 22.65 351.30 17.63 357.06 17.87 364.43 C 19.56 364.69 21.25 364.98 22.95 365.21 C 28.18 366.09 33.34 364.75 38.43 363.70 C 46.52 362.07 54.61 364.42 62.71 364.64 C 66.32 364.77 69.94 364.91 73.56 365.05 C 75.37 363.22 77.14 361.31 79.31 359.88 C 78.39 361.23 77.54 362.64 76.49 363.90 C 75.48 365.05 74.39 366.12 73.31 367.20 C 72.73 367.08 71.57 366.85 70.99 366.74 C 68.92 366.45 66.83 366.40 64.75 366.47 C 62.81 366.53 60.87 366.67 58.92 366.70 C 57.95 366.52 56.99 366.29 56.05 366.02 C 47.36 362.84 38.36 365.82 29.77 367.68 C 29.46 367.71 28.84 367.75 28.53 367.77 C 25.66 367.34 22.82 366.74 19.99 366.07 C 17.66 365.77 16.55 363.47 15.13 361.89 C 18.27 355.64 21.81 349.56 25.97 343.94 C 29.32 339.38 34.29 336.44 39.57 334.62 Z" />
</g>
<g id="#7d9170ff">
<path fill="#7d9170" opacity="1.00" d=" M 83.71 344.18 C 84.76 341.78 85.83 339.39 87.00 337.04 C 86.90 337.74 86.69 339.14 86.58 339.84 C 87.73 339.67 88.87 339.50 90.01 339.34 C 88.50 342.03 87.10 344.77 85.83 347.58 C 85.13 346.45 84.42 345.31 83.71 344.18 Z" />
</g>
<g id="#8dae7eff">
<path fill="#8dae7e" opacity="1.00" d=" M 76.26 337.75 C 76.92 339.69 77.60 341.62 78.28 343.56 C 79.17 342.76 80.06 341.96 80.94 341.16 C 80.96 341.87 81.01 343.28 81.04 343.99 C 81.10 345.70 81.16 347.41 81.23 349.13 C 78.56 348.41 75.90 347.45 73.68 345.75 C 73.52 345.40 73.19 344.70 73.03 344.35 L 72.67 343.53 C 73.57 343.36 75.35 343.03 76.25 342.87 C 76.26 341.16 76.27 339.45 76.26 337.75 Z" />
</g>
<g id="#306619ff">
<path fill="#306619" opacity="1.00" d=" M 22.56 360.02 C 32.42 354.71 40.33 345.18 51.99 343.77 C 59.14 342.41 66.32 344.70 72.28 348.60 C 72.34 347.00 72.40 345.40 72.46 343.80 L 73.03 344.35 C 73.19 344.70 73.52 345.40 73.68 345.75 C 74.30 347.20 74.87 348.67 75.45 350.15 C 77.78 350.62 80.13 351.01 82.37 351.83 C 82.97 354.20 82.91 356.67 82.97 359.10 C 81.74 359.31 80.52 359.57 79.31 359.88 C 77.14 361.31 75.37 363.22 73.56 365.05 C 69.94 364.91 66.32 364.77 62.71 364.64 C 54.61 364.42 46.52 362.07 38.43 363.70 C 33.34 364.75 28.18 366.09 22.95 365.21 C 22.81 363.47 22.69 361.74 22.56 360.02 Z" />
</g>
<g id="#b6cda9ff">
<path fill="#b6cda9" opacity="1.00" d=" M 81.04 343.99 C 81.71 344.04 83.05 344.14 83.71 344.18 C 84.42 345.31 85.13 346.45 85.83 347.58 C 85.00 348.81 84.18 350.05 83.37 351.30 C 82.67 350.55 81.95 349.84 81.23 349.13 C 81.16 347.41 81.10 345.70 81.04 343.99 Z" />
</g>
<g id="#719161ff">
<path fill="#719161" opacity="1.00" d=" M 73.68 345.75 C 75.90 347.45 78.56 348.41 81.23 349.13 C 81.95 349.84 82.67 350.55 83.37 351.30 C 85.24 353.75 84.37 356.68 82.97 359.10 C 82.91 356.67 82.97 354.20 82.37 351.83 C 80.13 351.01 77.78 350.62 75.45 350.15 C 74.87 348.67 74.30 347.20 73.68 345.75 Z" />
</g>
<g id="#9eb78fff">
<path fill="#9eb78f" opacity="1.00" d=" M 29.77 367.68 C 38.36 365.82 47.36 362.84 56.05 366.02 C 54.60 366.04 53.15 366.07 51.70 366.10 C 52.05 367.76 52.42 369.42 52.83 371.07 C 52.39 371.10 51.52 371.17 51.09 371.20 C 49.82 371.10 48.54 370.97 47.26 371.02 C 44.87 373.02 42.78 375.49 39.65 376.40 C 40.30 371.70 45.33 369.98 46.74 365.72 C 44.07 365.93 40.94 365.71 39.13 368.10 C 36.36 370.93 34.95 376.98 29.85 375.54 C 31.06 373.18 32.32 370.84 33.53 368.47 C 32.59 368.28 30.71 367.88 29.77 367.68 Z" />
</g>
<g id="#a8bd9bff">
<path fill="#a8bd9b" opacity="1.00" d=" M 73.31 367.20 C 74.39 366.12 75.48 365.05 76.49 363.90 C 77.07 365.19 77.66 366.49 78.24 367.78 C 82.78 368.80 87.30 370.07 91.49 372.12 C 90.40 372.57 89.31 373.03 88.22 373.50 C 82.97 372.11 77.82 370.30 73.31 367.20 Z" />
</g>
<g id="#90a285ff">
<path fill="#90a285" opacity="1.00" d=" M 19.99 366.07 C 22.82 366.74 25.66 367.34 28.53 367.77 C 26.24 371.47 23.69 375.29 19.71 377.35 C 18.05 373.37 22.95 371.64 23.47 368.16 C 22.35 367.40 21.15 366.76 19.99 366.07 Z" />
</g>
<g id="#8ea082ff">
<path fill="#8ea082" opacity="1.00" d=" M 58.92 366.70 C 60.87 366.67 62.81 366.53 64.75 366.47 C 65.76 367.45 66.78 368.43 67.84 369.36 C 66.97 370.21 66.09 371.07 65.22 371.93 C 62.96 370.38 60.90 368.57 58.92 366.70 Z" />
</g>
<g id="#aec6a0ff">
<path fill="#aec6a0" opacity="1.00" d=" M 64.75 366.47 C 66.83 366.40 68.92 366.45 70.99 366.74 C 70.51 368.09 70.06 369.46 69.61 370.83 C 69.17 370.46 68.29 369.73 67.84 369.36 C 66.78 368.43 65.76 367.45 64.75 366.47 Z" />
</g>
<g id="#829d73ff">
<path fill="#829d73" opacity="1.00" d=" M 188.19 373.62 C 187.64 370.47 191.03 368.83 192.96 367.00 C 191.63 369.13 190.46 371.36 189.28 373.57 C 197.00 376.17 205.15 374.43 213.09 374.61 C 218.17 374.88 221.93 371.07 225.39 367.94 C 226.16 368.35 226.92 368.76 227.70 369.17 C 222.49 370.10 220.23 376.32 214.78 376.55 C 209.18 376.94 203.56 376.77 197.95 376.88 C 194.53 376.79 190.37 376.70 188.19 373.62 Z" />
</g>
<g id="#526547ff">
<path fill="#526547" opacity="1.00" d=" M 65.22 371.93 C 66.09 371.07 66.97 370.21 67.84 369.36 C 68.29 369.73 69.17 370.46 69.61 370.83 C 72.79 373.26 76.49 375.54 77.13 379.86 C 71.99 379.25 68.97 374.94 65.22 371.93 Z" />
</g>
<g id="#718167ff">
<path fill="#718167" opacity="1.00" d=" M 51.09 371.20 C 51.52 371.17 52.39 371.10 52.83 371.07 C 54.50 373.84 56.29 376.88 55.23 380.23 C 53.86 379.15 52.19 378.29 51.40 376.66 C 51.09 374.86 51.15 373.02 51.09 371.20 Z" />
</g>
<g id="#6f7f65ff">
<path fill="#6f7f65" opacity="1.00" d=" M 88.22 373.50 C 89.31 373.03 90.40 372.57 91.49 372.12 C 91.82 371.99 92.46 371.72 92.78 371.59 C 92.74 373.57 92.69 375.55 92.61 377.54 C 91.10 376.23 89.64 374.88 88.22 373.50 Z" />
</g>
</svg>
