<?xml version="1.0" encoding="UTF-8" ?>
<!DOCTYPE svg PUBLIC "-//W3C//DTD SVG 1.1//EN" "http://www.w3.org/Graphics/SVG/1.1/DTD/svg11.dtd">
<svg width="520pt" height="420pt" viewBox="0 0 520 420" version="1.1" xmlns="http://www.w3.org/2000/svg">
<g id="#fcfef3ff">
</g>
<g id="#61765aff">
<path fill="#61765a" opacity="1.00" d=" M 439.24 29.42 C 442.32 27.72 446.10 28.12 449.00 30.01 C 441.03 40.96 429.78 48.88 419.81 57.87 C 404.09 72.00 387.17 84.93 373.14 100.84 C 384.83 89.94 397.93 80.58 409.04 69.03 C 412.71 65.25 416.22 61.09 421.18 58.94 C 421.49 59.71 422.10 61.26 422.41 62.03 C 418.86 73.60 410.86 83.04 402.52 91.51 C 391.86 101.55 380.43 110.74 369.74 120.74 C 365.61 124.96 361.63 129.40 358.59 134.49 C 355.51 139.73 352.42 144.98 348.85 149.90 C 341.81 158.07 334.60 166.15 328.44 175.01 C 334.16 177.49 340.17 179.30 345.60 182.41 C 357.45 189.13 367.76 198.13 377.90 207.14 C 389.64 219.44 400.74 232.45 410.15 246.66 C 414.66 254.47 419.16 262.34 422.43 270.77 C 432.05 292.51 440.91 314.72 446.33 337.92 C 449.21 348.83 452.18 359.72 454.47 370.78 C 455.80 377.41 459.74 383.39 459.85 390.27 C 456.81 386.47 455.74 381.58 453.61 377.28 C 447.30 364.19 439.66 351.75 431.15 339.98 C 427.08 334.02 423.28 327.86 418.76 322.22 C 413.93 315.76 408.34 309.92 403.38 303.56 C 388.73 287.51 373.16 271.79 354.26 260.76 C 346.57 256.29 338.02 252.83 329.02 252.64 C 324.40 252.72 319.73 254.13 316.34 257.39 C 309.73 262.87 308.24 272.15 301.88 277.85 C 296.94 282.24 291.91 286.58 287.43 291.44 C 283.62 295.47 282.56 301.41 283.64 306.72 C 284.50 309.21 286.01 311.41 286.94 313.88 C 284.28 313.26 281.98 311.77 279.83 310.15 C 279.27 311.38 278.71 312.62 278.14 313.85 C 276.95 311.75 275.71 309.68 274.49 307.60 C 273.43 307.47 272.38 307.35 271.33 307.25 C 271.27 303.79 270.78 299.96 272.98 297.00 C 277.66 290.36 286.28 287.45 290.00 279.99 C 292.85 274.36 296.13 268.96 299.90 263.90 C 296.97 260.50 292.99 258.27 289.70 255.26 C 287.97 253.87 286.10 251.52 283.62 252.66 C 277.09 259.00 272.42 267.09 265.59 273.13 C 265.54 265.26 265.20 257.18 262.15 249.81 C 260.88 246.23 258.15 242.97 254.43 241.84 C 249.07 240.38 243.47 240.22 237.95 240.35 C 236.98 238.64 235.60 236.99 235.56 234.93 C 235.07 228.28 235.96 221.62 235.41 214.98 C 234.12 205.11 231.16 195.38 226.11 186.75 C 223.42 182.17 219.71 178.31 216.94 173.78 C 222.03 170.69 227.50 168.32 232.78 165.60 C 239.50 162.71 245.36 158.29 251.43 154.28 C 256.77 151.19 261.76 147.52 267.09 144.39 C 276.37 147.45 281.94 155.96 287.25 163.55 C 288.22 168.63 287.14 173.87 287.99 178.97 C 288.27 180.11 288.14 181.85 289.79 181.75 C 296.42 171.96 304.25 162.90 313.46 155.44 C 317.41 151.82 321.96 148.71 325.12 144.31 C 327.64 139.20 327.60 133.36 327.49 127.80 C 322.39 124.18 315.85 125.33 309.99 125.35 C 299.66 126.47 289.59 129.61 280.47 134.59 C 273.05 139.08 265.36 143.17 258.70 148.79 C 250.65 154.28 242.62 159.99 233.55 163.70 C 221.29 169.87 208.10 173.84 194.80 177.06 C 193.91 177.16 192.12 177.34 191.23 177.44 C 195.66 172.44 202.45 170.50 207.29 165.94 C 199.23 159.11 189.77 154.14 180.23 149.68 C 175.13 147.25 169.58 145.97 164.44 143.64 C 156.70 139.31 147.84 137.91 139.40 135.53 C 113.38 128.38 86.68 124.14 60.36 118.31 C 49.25 116.35 38.31 113.54 27.18 111.67 C 26.84 111.39 26.17 110.82 25.83 110.54 C 33.22 110.30 40.61 110.31 48.00 110.13 C 54.98 109.53 62.03 109.38 68.99 110.23 C 84.03 110.38 99.00 111.89 114.01 112.72 C 121.94 113.48 129.79 114.93 137.74 115.58 C 143.61 116.11 149.25 117.94 155.05 118.84 C 175.32 121.59 194.63 128.81 214.84 131.80 C 225.05 134.26 235.65 134.22 245.91 136.37 C 255.68 129.68 264.74 121.98 274.76 115.65 C 280.00 111.38 286.22 108.60 291.72 104.71 C 299.29 99.64 307.60 95.65 316.34 93.05 C 324.69 90.18 333.00 87.20 341.22 84.00 C 345.38 81.98 349.78 80.56 354.15 79.07 C 357.36 77.95 360.57 76.84 363.78 75.70 C 361.33 79.67 359.78 84.20 356.85 87.86 C 352.28 91.76 346.16 93.30 341.56 97.18 C 341.01 100.07 340.51 103.10 337.94 105.01 C 336.11 106.25 334.03 107.07 331.93 107.73 C 330.57 108.08 329.21 108.43 327.85 108.77 C 330.75 113.55 337.57 109.76 340.98 113.69 C 342.52 115.36 345.00 114.78 347.02 114.91 C 349.50 114.69 353.13 115.19 354.11 112.20 C 356.22 105.37 352.30 97.30 357.08 91.14 C 363.88 82.60 373.71 76.68 379.26 67.09 C 381.65 64.63 385.10 63.62 388.00 61.91 C 399.47 55.30 410.64 48.15 421.42 40.48 C 427.12 36.43 433.03 32.65 439.24 29.42 Z" />
<path fill="#61765a" opacity="1.00" d=" M 237.51 241.01 C 241.19 243.29 245.23 241.94 249.12 241.16 C 250.33 242.71 253.61 243.97 252.17 246.36 C 249.07 252.94 244.62 260.17 247.18 267.68 C 248.40 272.86 252.59 276.33 255.54 280.48 C 256.89 285.49 252.99 289.62 249.91 293.01 C 248.96 292.70 248.01 292.39 247.07 292.10 C 245.05 294.07 242.81 295.78 240.40 297.24 C 240.51 295.98 240.66 294.72 240.81 293.46 C 239.72 293.54 238.64 293.62 237.56 293.69 C 240.29 289.38 244.05 285.30 244.59 280.02 C 244.89 272.97 240.41 266.91 239.67 260.02 C 239.00 253.66 236.59 247.49 237.51 241.01 Z" />
</g>
<g id="#9cb08cff">
<path fill="#9cb08c" opacity="1.00" d=" M 365.27 73.27 C 369.77 70.89 374.11 67.85 379.26 67.09 C 373.71 76.68 363.88 82.60 357.08 91.14 C 352.30 97.30 356.22 105.37 354.11 112.20 C 353.13 115.19 349.50 114.69 347.02 114.91 C 345.00 114.78 342.52 115.36 340.98 113.69 C 337.57 109.76 330.75 113.55 327.85 108.77 C 329.21 108.43 330.57 108.08 331.93 107.73 C 331.34 108.53 330.76 109.33 330.18 110.13 C 335.72 110.63 341.55 111.63 346.94 109.79 C 351.56 108.34 350.07 100.82 346.00 99.60 C 342.94 100.77 340.64 103.23 337.94 105.01 C 340.51 103.10 341.01 100.07 341.56 97.18 C 346.16 93.30 352.28 91.76 356.85 87.86 C 359.78 84.20 361.33 79.67 363.78 75.70 C 360.57 76.84 357.36 77.95 354.15 79.07 C 357.49 76.46 361.65 75.38 365.27 73.27 Z" />
<path fill="#9cb08c" opacity="1.00" d=" M 27.18 111.67 C 38.31 113.54 49.25 116.35 60.36 118.31 C 86.68 124.14 113.38 128.38 139.40 135.53 C 147.84 137.91 156.70 139.31 164.44 143.64 C 160.08 143.07 156.01 141.33 151.81 140.12 C 128.50 133.43 104.79 128.24 80.94 123.92 C 74.09 121.68 66.74 122.14 59.91 119.86 C 55.03 118.46 49.92 118.13 45.02 116.79 C 40.69 115.64 36.36 114.45 31.92 113.81 C 30.24 113.41 27.97 113.58 27.18 111.67 Z" />
</g>
</svg>
