<?xml version="1.0" encoding="UTF-8" ?>
<!DOCTYPE svg PUBLIC "-//W3C//DTD SVG 1.1//EN" "http://www.w3.org/Graphics/SVG/1.1/DTD/svg11.dtd">
<svg width="552pt" height="368pt" viewBox="0 0 552 368" version="1.1" xmlns="http://www.w3.org/2000/svg">
<g id="#f0f4e1ff">
</g>
<g id="#83866aff">
<path fill="#83866a" opacity="1.00" d=" M 159.56 25.48 C 162.73 25.80 166.16 25.32 169.08 26.83 C 171.05 38.16 167.59 49.60 167.59 60.98 C 167.41 64.11 168.11 67.51 166.42 70.35 C 166.21 67.05 166.11 63.73 166.50 60.45 C 167.98 49.70 167.13 38.79 168.85 28.06 C 166.06 27.72 163.26 27.40 160.47 27.10 C 160.41 32.07 160.36 37.05 160.17 42.02 C 159.88 50.02 158.34 57.93 158.29 65.95 C 158.22 81.10 157.43 96.29 158.65 111.42 C 159.22 119.43 162.20 126.98 163.45 134.87 C 156.66 119.57 156.39 102.51 156.60 86.07 C 156.71 71.89 157.40 57.72 158.47 43.58 C 158.76 37.54 159.73 31.54 159.56 25.48 Z" />
<path fill="#83866a" opacity="1.00" d=" M 43.26 34.18 C 46.53 33.53 49.94 32.93 53.21 33.92 C 50.66 35.33 47.64 36.31 45.80 38.69 C 44.90 42.38 45.29 46.25 45.29 50.01 C 43.66 44.90 43.38 39.51 43.26 34.18 Z" />
<path fill="#83866a" opacity="1.00" d=" M 101.74 83.76 C 104.06 74.16 104.71 64.20 107.74 54.76 C 107.80 61.91 105.55 68.75 104.47 75.74 C 101.64 88.44 99.20 101.22 96.74 113.99 C 96.08 117.39 95.18 120.74 93.99 124.00 C 95.23 110.34 99.46 97.24 101.74 83.76 Z" />
<path fill="#83866a" opacity="1.00" d=" M 165.17 139.87 C 168.50 146.77 169.50 154.43 170.99 161.87 C 172.11 167.42 171.70 173.12 170.78 178.67 C 169.52 186.10 171.54 193.50 171.74 200.93 C 171.96 209.78 174.51 218.34 174.97 227.17 C 172.54 219.81 171.75 212.04 170.67 204.40 C 168.75 191.70 168.98 178.80 169.50 166.00 C 169.89 157.05 166.64 148.58 165.17 139.87 Z" />
<path fill="#83866a" opacity="1.00" d=" M 100.21 167.80 C 102.79 173.44 101.74 179.90 101.44 185.89 C 100.06 192.57 98.20 199.17 97.74 206.01 C 96.84 215.67 98.05 225.32 98.88 234.92 C 99.73 241.69 99.44 248.55 100.53 255.29 C 101.79 262.47 101.49 269.79 102.46 277.00 C 103.43 284.30 103.43 291.67 104.20 298.99 C 104.56 303.23 103.75 307.44 103.32 311.65 C 110.24 311.80 117.19 311.65 124.06 310.69 C 132.50 310.29 140.97 310.55 149.42 310.59 C 149.50 308.27 149.64 305.95 149.85 303.65 C 150.48 306.41 151.04 309.19 151.51 311.99 C 141.90 312.45 132.24 311.64 122.68 313.00 C 115.91 313.99 109.03 313.88 102.27 312.93 C 103.23 305.64 103.50 298.26 102.81 290.93 C 100.79 268.30 98.73 245.68 97.05 223.01 C 96.14 213.65 96.85 204.22 98.24 194.95 C 99.00 189.92 101.07 185.14 101.31 180.03 C 101.47 175.92 100.92 171.83 100.21 167.80 Z" />
<path fill="#83866a" opacity="1.00" d=" M 455.97 222.88 C 458.87 212.13 461.54 201.24 465.87 190.95 C 462.88 203.07 458.52 214.83 455.77 227.03 C 454.99 231.37 452.78 236.01 454.86 240.30 C 454.00 242.81 452.77 245.16 451.35 247.40 C 451.84 239.06 454.21 231.00 455.97 222.88 Z" />
<path fill="#83866a" opacity="1.00" d=" M 59.39 198.66 C 62.20 206.49 61.65 214.93 60.36 223.00 C 58.08 237.51 56.45 252.12 55.05 266.75 C 54.84 270.00 53.56 273.05 51.44 275.51 C 47.42 280.18 47.84 286.78 45.26 292.15 C 42.19 298.66 40.46 305.69 39.89 312.85 C 38.40 313.14 36.90 313.42 35.41 313.70 C 35.40 316.77 35.37 319.84 35.30 322.91 C 44.52 323.61 53.77 323.21 63.01 323.31 C 88.34 323.38 113.67 322.97 139.01 323.28 C 152.66 323.62 166.27 321.79 179.93 322.44 C 203.95 322.37 227.99 322.84 252.01 322.02 C 288.36 321.85 324.72 322.16 361.07 321.74 C 355.92 318.91 350.85 315.93 345.52 313.47 C 340.05 310.89 333.85 311.67 328.00 311.67 C 307.33 311.87 286.67 311.64 266.01 311.80 C 260.11 311.89 254.13 312.08 248.33 310.76 C 251.10 309.47 254.05 308.69 257.05 308.14 C 255.58 308.88 254.15 309.70 252.73 310.52 C 281.24 310.69 309.77 310.72 338.28 310.40 C 332.70 307.21 326.41 305.74 320.37 303.70 C 316.83 302.64 313.08 301.03 309.36 302.20 C 304.01 303.76 298.69 305.66 293.07 305.94 C 284.06 306.99 275.02 305.25 266.02 306.04 C 272.94 304.76 280.00 305.22 287.00 305.35 C 295.18 305.69 302.78 302.21 310.72 300.84 C 316.93 299.78 322.03 295.90 326.86 292.10 C 326.67 292.63 326.30 293.68 326.11 294.21 C 331.92 296.22 338.09 296.95 343.87 299.09 C 350.34 301.48 357.04 303.46 362.96 307.09 C 365.69 308.76 368.61 310.46 371.94 310.29 C 391.62 310.14 411.30 310.41 430.98 310.15 C 431.20 309.68 431.65 308.73 431.87 308.25 C 432.22 309.10 432.58 309.94 432.94 310.79 C 424.64 311.43 416.31 311.32 408.00 311.21 C 395.04 311.21 382.08 311.35 369.13 311.17 C 373.04 314.84 376.96 318.51 380.62 322.44 C 383.18 325.19 384.79 328.63 386.48 331.95 C 385.83 332.38 384.53 333.24 383.88 333.67 C 378.01 331.31 372.73 327.81 367.16 324.86 C 363.17 322.49 358.40 323.37 354.01 323.25 C 319.34 323.30 284.67 323.28 250.00 323.32 C 232.34 323.94 214.66 323.63 197.00 323.68 C 178.33 323.77 159.67 323.81 141.00 323.60 C 131.64 323.18 122.36 324.75 113.00 324.41 C 86.84 324.33 60.67 324.44 34.51 324.38 C 34.20 320.39 34.19 316.39 34.24 312.40 C 35.72 312.13 37.21 311.86 38.70 311.60 C 39.35 306.31 40.09 300.96 42.31 296.07 C 44.74 290.65 46.57 284.98 47.60 279.12 C 47.99 275.19 53.27 274.04 53.19 269.98 C 54.72 253.60 57.04 237.31 59.37 221.04 C 60.06 213.59 59.78 206.11 59.39 198.66 Z" />
<path fill="#83866a" opacity="1.00" d=" M 69.00 199.76 C 71.17 205.13 70.52 211.04 70.30 216.68 C 69.13 228.17 66.87 239.52 65.56 250.98 C 64.96 255.04 66.30 259.66 63.59 263.15 C 63.88 248.31 67.49 233.77 68.91 219.03 C 69.27 212.61 69.07 206.18 69.00 199.76 Z" />
<path fill="#83866a" opacity="1.00" d=" M 220.04 265.01 C 226.85 263.63 233.89 263.19 240.80 264.16 C 247.35 265.06 254.37 263.47 260.49 266.61 C 266.81 269.66 272.98 273.05 279.58 275.52 C 282.86 276.65 286.17 278.76 289.77 277.99 C 297.56 276.58 305.42 275.49 313.25 274.34 C 302.83 278.26 291.43 278.15 280.53 279.82 C 272.86 281.46 265.85 285.11 258.40 287.45 C 251.24 290.06 243.84 291.88 236.35 293.26 C 229.65 294.44 223.07 297.00 216.18 296.53 C 233.30 292.25 251.07 290.08 267.33 282.84 C 258.01 276.87 246.45 274.95 235.63 276.98 C 231.90 277.87 228.47 279.62 224.98 281.14 C 220.08 283.33 215.04 285.31 210.63 288.42 C 207.55 283.21 200.61 281.26 198.93 275.11 C 205.59 271.06 212.38 266.89 220.04 265.01 Z" />
<path fill="#83866a" opacity="1.00" d=" M 451.86 310.60 C 452.07 309.96 452.51 308.67 452.73 308.03 C 453.05 308.56 453.69 309.61 454.01 310.14 C 461.02 310.12 468.03 310.38 475.04 310.10 C 486.00 309.09 497.02 309.62 508.00 309.45 C 517.11 309.64 526.25 309.11 535.34 309.72 C 536.08 313.59 535.95 317.57 536.48 321.47 C 517.90 321.74 499.31 321.70 480.72 321.64 C 498.87 320.96 517.04 321.63 535.20 321.16 C 535.16 317.85 535.14 314.54 535.13 311.23 C 513.43 311.53 491.72 311.57 470.02 311.56 C 463.96 311.57 457.75 312.43 451.86 310.60 Z" />
<path fill="#83866a" opacity="1.00" d=" M 187.25 310.24 C 195.24 308.51 203.97 314.32 211.32 309.32 C 211.46 310.10 211.60 310.88 211.74 311.67 C 209.29 312.58 206.79 313.99 204.09 313.50 C 201.04 313.05 198.08 312.06 195.01 311.71 C 183.84 310.23 172.96 316.38 161.82 313.62 C 170.40 313.49 178.89 312.11 187.25 310.24 Z" />
</g>
<g id="#4e6131ff">
<path fill="#4e6131" opacity="1.00" d=" M 160.47 27.10 C 163.26 27.40 166.06 27.72 168.85 28.06 C 167.13 38.79 167.98 49.70 166.50 60.45 C 166.11 63.73 166.21 67.05 166.42 70.35 C 166.96 85.97 165.26 101.76 168.12 117.23 C 172.23 132.37 178.16 147.20 179.35 162.99 C 179.55 175.33 178.41 187.75 180.16 200.03 C 181.34 212.81 184.35 225.31 186.80 237.88 C 189.38 250.73 195.00 262.66 198.93 275.11 C 200.61 281.26 207.55 283.21 210.63 288.42 C 212.55 291.08 214.35 293.81 216.18 296.53 C 223.07 297.00 229.65 294.44 236.35 293.26 C 243.84 291.88 251.24 290.06 258.40 287.45 C 265.85 285.11 272.86 281.46 280.53 279.82 C 291.43 278.15 302.83 278.26 313.25 274.34 C 322.00 269.15 327.19 260.09 332.80 251.95 C 336.71 246.36 339.39 239.99 343.70 234.66 C 346.64 231.19 353.43 231.54 355.17 236.10 C 356.48 239.80 354.61 243.52 353.48 247.00 C 350.90 253.77 349.64 260.98 346.65 267.61 C 342.33 277.31 335.24 285.65 326.86 292.10 C 322.03 295.90 316.93 299.78 310.72 300.84 C 302.78 302.21 295.18 305.69 287.00 305.35 C 280.00 305.22 272.94 304.76 266.02 306.04 C 263.00 306.61 260.04 307.46 257.05 308.14 C 254.05 308.69 251.10 309.47 248.33 310.76 C 254.13 312.08 260.11 311.89 266.01 311.80 C 286.67 311.64 307.33 311.87 328.00 311.67 C 333.85 311.67 340.05 310.89 345.52 313.47 C 350.85 315.93 355.92 318.91 361.07 321.74 C 324.72 322.16 288.36 321.85 252.01 322.02 C 227.99 322.84 203.95 322.37 179.93 322.44 C 166.27 321.79 152.66 323.62 139.01 323.28 C 113.67 322.97 88.34 323.38 63.01 323.31 C 53.77 323.21 44.52 323.61 35.30 322.91 C 35.37 319.84 35.40 316.77 35.41 313.70 C 36.90 313.42 38.40 313.14 39.89 312.85 C 40.46 305.69 42.19 298.66 45.26 292.15 C 47.84 286.78 47.42 280.18 51.44 275.51 C 53.56 273.05 54.84 270.00 55.05 266.75 C 56.45 252.12 58.08 237.51 60.36 223.00 C 61.65 214.93 62.20 206.49 59.39 198.66 C 56.99 189.77 52.82 181.31 52.00 172.04 C 51.21 164.06 51.05 155.95 52.39 148.02 C 54.10 115.16 48.08 82.64 45.29 50.01 C 45.29 46.25 44.90 42.38 45.80 38.69 C 47.64 36.31 50.66 35.33 53.21 33.92 C 53.01 43.05 55.13 51.99 55.88 61.05 C 57.16 74.39 58.97 87.67 60.00 101.03 C 60.54 108.34 61.89 115.59 61.64 122.95 C 62.41 129.61 62.63 136.31 62.31 143.00 C 61.14 153.30 60.88 163.72 61.74 174.06 C 63.22 182.87 68.01 190.82 69.00 199.76 C 69.07 206.18 69.27 212.61 68.91 219.03 C 67.49 233.77 63.88 248.31 63.59 263.15 C 63.56 264.92 63.50 266.69 63.46 268.47 C 68.23 268.44 73.02 268.14 77.77 268.55 C 82.56 269.30 87.12 271.02 91.79 272.27 C 91.30 256.47 89.13 240.80 88.32 225.02 C 87.13 216.73 87.30 208.30 88.47 200.02 C 88.79 191.83 92.82 184.18 92.33 175.94 C 90.78 165.63 85.43 156.47 82.37 146.60 C 81.18 142.86 81.23 138.80 81.93 134.97 C 88.88 102.79 95.08 70.45 101.60 38.18 C 104.66 38.56 107.67 39.20 110.69 39.76 C 109.73 44.76 109.37 49.90 107.74 54.76 C 104.71 64.20 104.06 74.16 101.74 83.76 C 99.46 97.24 95.23 110.34 93.99 124.00 C 93.43 129.40 91.12 134.53 91.24 140.02 C 91.12 144.95 93.68 149.34 95.14 153.91 C 96.67 158.60 98.64 163.13 100.21 167.80 C 100.92 171.83 101.47 175.92 101.31 180.03 C 101.07 185.14 99.00 189.92 98.24 194.95 C 96.85 204.22 96.14 213.65 97.05 223.01 C 98.73 245.68 100.79 268.30 102.81 290.93 C 103.50 298.26 103.23 305.64 102.27 312.93 C 109.03 313.88 115.91 313.99 122.68 313.00 C 132.24 311.64 141.90 312.45 151.51 311.99 C 151.04 309.19 150.48 306.41 149.85 303.65 C 148.97 299.47 149.22 295.17 149.31 290.93 C 149.25 287.47 151.84 284.88 153.24 281.93 C 153.54 279.96 153.30 277.95 153.06 275.99 C 152.23 271.05 152.68 266.01 152.24 261.03 C 151.39 254.38 151.29 247.66 151.52 240.97 C 151.26 242.33 151.01 243.70 150.75 245.07 C 149.99 229.32 146.00 213.23 136.71 200.26 C 133.20 195.74 128.63 191.78 126.73 186.21 C 125.31 177.88 127.81 169.60 130.26 161.71 C 132.05 156.22 131.75 150.41 131.41 144.74 C 127.87 111.80 124.27 78.88 120.48 45.99 C 123.20 45.08 126.06 44.38 128.95 44.59 C 130.82 47.33 130.35 50.75 130.68 53.88 C 134.21 78.14 135.96 102.62 139.23 126.92 C 139.50 135.66 141.02 144.29 141.39 153.03 C 140.94 162.63 136.47 171.50 135.61 181.04 C 135.34 183.32 136.69 185.32 138.04 187.02 C 141.83 191.59 145.73 196.14 148.70 201.30 C 157.46 216.69 159.76 234.70 161.40 252.04 C 161.25 261.82 162.73 271.51 162.60 281.28 C 166.38 281.76 170.21 282.74 174.04 281.96 C 179.55 281.06 185.07 280.21 190.67 280.35 C 186.59 268.62 181.92 257.06 178.82 245.02 C 177.71 239.03 175.62 233.24 174.97 227.17 C 174.51 218.34 171.96 209.78 171.74 200.93 C 171.54 193.50 169.52 186.10 170.78 178.67 C 171.70 173.12 172.11 167.42 170.99 161.87 C 169.50 154.43 168.50 146.77 165.17 139.87 C 164.48 138.25 163.81 136.60 163.45 134.87 C 162.20 126.98 159.22 119.43 158.65 111.42 C 157.43 96.29 158.22 81.10 158.29 65.95 C 158.34 57.93 159.88 50.02 160.17 42.02 C 160.36 37.05 160.41 32.07 160.47 27.10 M 57.64 281.51 C 56.25 291.27 50.29 299.74 49.26 309.53 C 57.78 308.49 66.49 306.39 75.04 308.34 C 79.13 309.00 82.95 310.69 86.99 311.50 C 88.77 311.64 91.11 312.26 92.32 310.50 C 94.57 307.25 94.59 302.98 94.17 299.18 C 93.42 294.08 93.46 288.63 91.00 283.97 C 88.40 281.91 85.09 281.05 81.91 280.35 C 73.89 278.87 65.45 279.02 57.64 281.51 M 177.86 290.91 C 171.44 292.24 164.84 291.27 158.38 292.15 C 158.23 299.39 159.22 306.88 161.82 313.62 C 172.96 316.38 183.84 310.23 195.01 311.71 C 198.08 312.06 201.04 313.05 204.09 313.50 C 206.79 313.99 209.29 312.58 211.74 311.67 C 211.60 310.88 211.46 310.10 211.32 309.32 C 210.06 305.91 208.75 302.42 206.28 299.67 C 203.60 296.72 201.57 293.09 198.26 290.78 C 191.67 288.62 184.56 289.94 177.86 290.91 Z" />
<path fill="#4e6131" opacity="1.00" d=" M 342.66 85.99 C 342.47 83.01 343.50 79.56 346.16 77.88 C 349.54 76.89 353.53 77.27 356.03 79.99 C 362.62 86.85 368.11 94.67 373.49 102.49 C 384.19 118.48 394.43 134.92 402.25 152.53 C 409.09 172.15 415.97 191.77 422.41 211.54 C 428.52 227.71 432.84 244.49 437.32 261.17 C 439.27 249.56 440.19 237.80 442.43 226.24 C 445.31 209.06 448.65 191.91 453.37 175.13 C 456.57 163.84 462.73 153.74 469.00 143.94 C 476.32 133.77 483.38 123.18 492.94 114.93 C 494.30 113.54 496.26 113.38 498.09 113.10 C 499.48 117.16 497.26 121.02 495.56 124.59 C 489.80 135.55 483.78 146.39 479.03 157.84 C 474.23 168.71 470.02 179.82 465.87 190.95 C 461.54 201.24 458.87 212.13 455.97 222.88 C 454.21 231.00 451.84 239.06 451.35 247.40 C 452.77 245.16 454.00 242.81 454.86 240.30 C 456.35 235.68 458.87 231.50 461.14 227.24 C 467.28 215.23 473.81 203.11 483.54 193.58 C 492.20 185.78 501.37 178.47 511.42 172.54 C 515.56 170.44 520.00 167.41 524.89 168.69 C 527.50 170.10 529.31 173.10 529.38 176.06 C 527.97 181.66 523.38 185.56 519.53 189.55 C 509.82 198.90 501.04 209.18 493.17 220.12 C 481.10 236.74 469.71 254.16 462.43 273.47 C 458.23 284.70 456.15 296.57 452.73 308.03 C 452.51 308.67 452.07 309.96 451.86 310.60 C 457.75 312.43 463.96 311.57 470.02 311.56 C 491.72 311.57 513.43 311.53 535.13 311.23 C 535.14 314.54 535.16 317.85 535.20 321.16 C 517.04 321.63 498.87 320.96 480.72 321.64 C 464.84 322.81 448.90 322.16 432.99 322.35 C 415.53 322.39 398.07 322.24 380.62 322.44 C 376.96 318.51 373.04 314.84 369.13 311.17 C 382.08 311.35 395.04 311.21 408.00 311.21 C 416.31 311.32 424.64 311.43 432.94 310.79 C 432.58 309.94 432.22 309.10 431.87 308.25 C 429.07 299.99 425.93 291.83 423.46 283.46 C 415.66 258.97 406.68 234.88 397.69 210.82 C 388.31 187.21 379.38 163.26 366.55 141.24 C 359.67 131.25 354.90 120.06 350.09 108.98 C 347.21 101.47 343.95 93.99 342.66 85.99 Z" />
</g>
</svg>
