<?xml version="1.0" encoding="UTF-8" ?>
<!DOCTYPE svg PUBLIC "-//W3C//DTD SVG 1.1//EN" "http://www.w3.org/Graphics/SVG/1.1/DTD/svg11.dtd">
<svg width="812pt" height="620pt" viewBox="0 0 812 620" version="1.1" xmlns="http://www.w3.org/2000/svg">
<g id="#bfd7a9ff">
<path fill="#bfd7a9" opacity="1.00" d=" M 0.00 0.00 L 0.26 0.00 C 0.19 0.06 0.06 0.19 0.00 0.26 L 0.00 0.00 Z" />
<path fill="#bfd7a9" opacity="1.00" d=" M 160.34 111.36 C 162.17 110.32 163.52 112.32 164.40 113.66 C 165.65 115.49 165.65 117.76 165.90 119.88 C 165.35 119.30 164.24 118.16 163.69 117.59 C 163.61 117.52 163.47 117.37 163.39 117.30 C 161.90 116.22 160.37 113.67 158.31 115.00 C 155.41 116.16 154.95 119.49 154.22 122.13 C 153.69 121.03 153.14 119.95 152.57 118.88 C 153.37 114.96 156.52 112.22 160.34 111.36 Z" />
</g>
<g id="#ffffffff">
<path fill="#ffffff" opacity="1.00" d=" M 218.06 237.01 C 224.61 232.09 233.30 231.79 241.18 231.50 C 240.73 235.51 237.35 238.04 234.79 240.78 C 232.18 243.57 228.26 244.81 226.02 247.97 C 223.64 251.29 221.35 254.81 217.91 257.16 C 216.80 257.89 215.79 258.75 214.83 259.66 C 213.86 260.03 213.17 260.68 212.77 261.63 C 212.37 261.98 211.58 262.67 211.19 263.02 C 209.63 266.07 205.80 266.56 202.88 267.60 C 205.11 256.33 210.10 245.39 218.06 237.01 Z" />
</g>
<g id="#6b8466ff">
<path fill="#6b8466" opacity="1.00" d=" M 392.23 30.16 C 399.78 30.71 407.26 32.17 414.74 33.34 C 425.50 36.20 436.67 36.61 447.69 37.60 C 451.72 39.33 456.21 40.57 459.58 43.45 L 460.20 44.01 C 456.08 42.96 452.22 41.16 448.14 40.01 C 442.89 38.85 437.78 41.24 432.93 42.92 C 430.22 44.08 427.30 42.99 424.50 43.28 C 421.72 43.73 419.06 44.98 416.20 44.84 C 412.67 44.73 409.21 43.98 405.80 43.13 C 408.36 43.25 410.93 43.04 413.48 42.78 C 409.56 38.91 404.04 37.61 398.98 35.92 C 396.59 35.30 394.43 34.09 392.39 32.74 C 392.35 32.10 392.27 30.81 392.23 30.16 Z" />
</g>
<g id="#688466ff">
<path fill="#688466" opacity="1.00" d=" M 203.84 44.85 C 215.03 37.49 229.02 34.59 242.21 36.94 C 247.88 38.59 252.74 42.11 257.74 45.12 C 262.75 48.08 267.81 50.97 272.70 54.15 C 281.56 60.39 292.24 63.08 302.47 66.13 C 311.79 67.81 321.69 68.00 330.70 64.71 C 341.56 60.91 352.62 57.42 364.10 56.17 C 371.93 55.41 379.70 53.84 387.60 54.08 C 394.93 53.82 402.30 54.81 409.60 53.69 C 414.66 53.62 419.52 55.27 424.53 55.71 C 433.82 55.93 442.91 58.11 452.13 59.04 C 456.95 59.06 461.35 61.31 466.09 61.90 C 472.97 62.75 479.06 66.28 485.59 68.34 C 490.42 69.92 495.57 72.13 498.11 76.84 C 500.25 80.76 502.37 85.67 500.19 90.05 C 497.65 95.34 493.24 99.43 490.62 104.69 C 491.42 105.50 492.22 106.33 493.02 107.17 C 489.47 106.75 485.86 105.81 482.29 106.45 C 478.56 107.53 475.44 109.96 472.12 111.86 C 468.12 107.96 462.57 106.78 457.76 104.27 C 454.89 102.79 451.72 102.17 448.64 101.31 C 444.47 100.16 441.02 96.88 436.54 96.82 C 433.30 96.66 430.07 96.16 427.06 94.93 C 421.46 92.67 415.35 92.72 409.43 92.30 C 404.45 91.97 399.72 90.18 394.78 89.56 C 390.81 88.95 386.78 88.87 382.80 88.36 C 379.84 87.98 377.12 86.46 374.12 86.35 C 365.32 86.41 356.61 84.95 347.89 84.03 C 342.25 83.65 336.59 83.70 330.94 83.55 C 325.64 83.52 320.46 81.72 315.14 82.52 C 307.75 83.43 300.35 81.94 292.95 82.54 C 285.42 83.06 277.87 83.29 270.36 84.10 C 260.49 85.50 250.98 89.03 240.98 89.52 C 235.96 89.95 231.37 92.68 226.28 92.54 C 224.38 92.54 222.49 92.37 220.60 92.32 C 225.68 84.90 232.70 79.27 238.95 72.92 C 239.58 72.25 240.28 71.66 241.05 71.16 C 244.39 69.61 247.96 67.97 249.51 64.36 C 252.89 66.29 256.33 68.18 259.38 70.63 C 262.56 73.19 264.03 77.17 266.77 80.10 C 268.20 80.80 269.58 79.50 270.86 79.01 C 275.04 76.55 279.49 74.60 284.11 73.13 C 283.24 71.65 282.54 69.95 281.03 69.00 C 276.25 65.72 271.22 62.75 265.84 60.57 C 265.64 59.65 265.45 58.73 265.27 57.81 C 258.81 57.56 252.65 55.37 247.60 51.32 C 244.28 49.46 240.66 48.19 237.13 46.80 C 231.96 44.73 226.45 46.67 221.41 48.12 C 214.60 49.89 207.84 52.23 201.75 55.80 C 197.53 58.79 193.39 62.36 187.99 62.84 C 190.67 55.07 196.77 48.84 203.84 44.85 M 247.90 84.85 C 248.61 84.84 250.02 84.81 250.72 84.79 C 251.13 82.43 251.50 80.06 251.76 77.69 C 248.74 78.83 248.19 82.01 247.90 84.85 Z" />
</g>
<g id="#a8c7abff">
<path fill="#a8c7ab" opacity="1.00" d=" M 398.98 35.92 C 404.04 37.61 409.56 38.91 413.48 42.78 C 410.93 43.04 408.36 43.25 405.80 43.13 C 400.72 41.71 395.58 39.64 390.20 40.70 C 395.85 46.23 403.94 48.16 409.60 53.69 C 402.30 54.81 394.93 53.82 387.60 54.08 C 379.70 53.84 371.93 55.41 364.10 56.17 C 352.62 57.42 341.56 60.91 330.70 64.71 C 321.69 68.00 311.79 67.81 302.47 66.13 C 292.24 63.08 281.56 60.39 272.70 54.15 C 279.55 56.50 285.96 60.08 292.97 62.03 C 296.26 62.88 299.39 64.21 302.63 65.24 C 313.71 67.84 325.18 65.50 335.67 61.62 C 340.72 59.32 346.31 58.71 351.45 56.67 C 356.88 55.14 362.61 55.36 368.12 54.18 C 377.98 52.50 388.03 52.58 398.00 52.91 C 400.26 52.77 403.27 53.49 404.65 51.14 C 399.85 48.34 394.85 45.86 390.26 42.73 C 388.73 42.02 388.98 40.25 388.71 38.88 C 394.61 38.89 400.32 40.58 406.18 40.99 C 404.39 38.54 401.65 37.19 398.98 35.92 Z" />
</g>
<g id="#476439ff">
<path fill="#476439" opacity="1.00" d=" M 432.93 42.92 C 437.78 41.24 442.89 38.85 448.14 40.01 C 452.22 41.16 456.08 42.96 460.20 44.01 C 464.73 45.59 469.43 46.56 474.00 47.99 C 479.98 49.89 486.29 50.25 492.40 51.59 C 510.18 55.66 528.62 54.52 546.57 57.43 C 551.00 58.10 555.46 58.57 559.95 58.64 C 574.66 58.76 589.36 59.67 604.02 60.88 C 620.53 63.52 637.54 64.57 653.21 70.90 C 659.86 73.53 665.93 77.37 671.99 81.13 C 673.43 82.66 674.59 84.43 675.65 86.24 C 680.29 94.31 682.21 103.73 682.12 112.98 C 676.91 111.86 671.71 110.48 666.35 110.36 C 660.71 110.20 655.06 110.24 649.45 109.61 C 644.20 109.18 638.99 107.86 633.70 108.37 C 622.60 109.56 611.38 108.13 600.28 109.45 C 595.30 110.28 590.26 108.97 585.26 109.73 C 572.83 110.35 560.36 110.54 547.98 111.95 C 537.29 113.21 526.57 114.14 515.83 114.77 C 508.37 115.67 500.79 115.26 493.37 116.64 C 493.82 115.66 494.28 114.68 494.71 113.69 C 496.07 111.24 495.00 108.84 493.02 107.17 C 492.22 106.33 491.42 105.50 490.62 104.69 C 493.24 99.43 497.65 95.34 500.19 90.05 C 502.37 85.67 500.25 80.76 498.11 76.84 C 495.57 72.13 490.42 69.92 485.59 68.34 C 479.06 66.28 472.97 62.75 466.09 61.90 C 461.35 61.31 456.95 59.06 452.13 59.04 C 442.91 58.11 433.82 55.93 424.53 55.71 C 419.52 55.27 414.66 53.62 409.60 53.69 C 403.94 48.16 395.85 46.23 390.20 40.70 C 395.58 39.64 400.72 41.71 405.80 43.13 C 409.21 43.98 412.67 44.73 416.20 44.84 C 419.06 44.98 421.72 43.73 424.50 43.28 C 427.30 42.99 430.22 44.08 432.93 42.92 Z" />
</g>
<g id="#97aa8bff">
<path fill="#97aa8b" opacity="1.00" d=" M 459.58 43.45 C 470.28 44.33 480.21 49.33 490.97 49.91 C 496.20 50.19 501.28 51.54 506.40 52.52 C 523.18 54.84 540.20 54.54 557.00 56.55 C 563.86 56.61 570.73 56.69 577.53 57.74 C 586.89 58.42 596.25 59.09 605.62 59.60 C 613.45 60.29 621.16 61.85 628.88 63.28 C 643.24 64.85 657.23 69.85 669.39 77.67 C 670.71 78.42 671.30 79.86 671.99 81.13 C 665.93 77.37 659.86 73.53 653.21 70.90 C 637.54 64.57 620.53 63.52 604.02 60.88 C 589.36 59.67 574.66 58.76 559.95 58.64 C 555.46 58.57 551.00 58.10 546.57 57.43 C 528.62 54.52 510.18 55.66 492.40 51.59 C 486.29 50.25 479.98 49.89 474.00 47.99 C 469.43 46.56 464.73 45.59 460.20 44.01 L 459.58 43.45 Z" />
</g>
<g id="#4b673bff">
<path fill="#4b673b" opacity="1.00" d=" M 247.60 51.32 C 252.65 55.37 258.81 57.56 265.27 57.81 C 265.45 58.73 265.64 59.65 265.84 60.57 C 271.22 62.75 276.25 65.72 281.03 69.00 C 282.54 69.95 283.24 71.65 284.11 73.13 C 279.49 74.60 275.04 76.55 270.86 79.01 C 269.58 79.50 268.20 80.80 266.77 80.10 C 264.03 77.17 262.56 73.19 259.38 70.63 C 256.33 68.18 252.89 66.29 249.51 64.36 C 247.21 63.10 244.63 62.26 241.99 62.69 C 233.95 63.68 226.07 66.19 219.00 70.14 C 217.99 70.67 216.98 71.20 215.93 71.63 C 211.66 73.08 207.25 74.71 204.19 78.21 C 202.57 80.05 200.77 81.80 198.17 81.92 C 198.36 79.82 198.65 77.64 200.00 75.93 C 204.06 70.08 209.28 64.82 215.74 61.68 C 218.76 60.13 221.41 57.73 224.85 57.10 C 229.95 56.07 234.76 53.66 240.02 53.51 C 242.67 53.23 246.02 54.08 247.60 51.32 Z" />
</g>
<g id="#9bb991ff">
<path fill="#9bb991" opacity="1.00" d=" M 219.00 70.14 C 226.07 66.19 233.95 63.68 241.99 62.69 C 244.63 62.26 247.21 63.10 249.51 64.36 C 247.96 67.97 244.39 69.61 241.05 71.16 C 242.44 69.73 243.93 68.42 245.50 67.19 C 246.57 66.33 247.64 65.48 248.72 64.61 C 245.18 63.24 241.41 63.61 237.88 64.74 C 231.32 65.73 225.57 69.40 219.00 70.14 Z" />
</g>
<g id="#9aab8dff">
<path fill="#9aab8d" opacity="1.00" d=" M 106.75 65.66 C 109.90 64.98 113.13 64.00 116.37 64.70 C 122.91 65.96 129.63 67.17 135.46 70.59 C 138.50 72.47 142.08 72.88 145.58 72.68 C 154.57 72.37 163.41 75.28 171.10 79.82 C 175.89 82.65 180.92 85.29 184.84 89.34 C 184.42 89.18 183.60 88.86 183.19 88.70 C 176.52 84.63 170.26 79.64 162.74 77.19 C 156.65 75.32 150.34 74.06 143.95 73.81 C 140.69 73.73 137.47 72.97 134.59 71.41 C 125.19 66.42 114.03 65.64 103.67 67.47 C 94.21 68.83 85.56 73.10 77.02 77.14 C 81.34 72.93 87.17 71.04 92.62 68.80 C 97.13 66.96 102.05 66.74 106.75 65.66 Z" />
</g>
<g id="#d2e1bbff">
<path fill="#d2e1bb" opacity="1.00" d=" M 237.88 64.74 C 241.41 63.61 245.18 63.24 248.72 64.61 C 247.64 65.48 246.57 66.33 245.50 67.19 C 245.10 66.59 244.31 65.38 243.91 64.77 C 241.89 64.77 239.88 64.76 237.88 64.74 Z" />
</g>
<g id="#4d693aff">
<path fill="#4d693a" opacity="1.00" d=" M 103.67 67.47 C 114.03 65.64 125.19 66.42 134.59 71.41 C 137.47 72.97 140.69 73.73 143.95 73.81 C 150.34 74.06 156.65 75.32 162.74 77.19 C 170.26 79.64 176.52 84.63 183.19 88.70 C 189.91 93.73 197.83 97.95 202.31 105.31 C 194.47 105.98 186.66 106.80 178.89 108.01 C 175.00 103.61 172.43 97.80 167.10 94.88 C 163.31 92.66 158.84 90.93 154.42 92.10 C 150.54 92.71 147.26 95.38 143.38 95.79 C 141.83 94.68 140.54 93.26 139.21 91.92 C 137.93 90.56 136.23 88.66 134.18 89.82 C 129.28 92.06 123.84 92.19 118.58 92.85 C 118.83 93.53 119.08 94.22 119.33 94.90 C 103.14 98.73 90.13 109.73 75.08 116.15 C 72.27 115.29 74.62 112.97 75.40 111.40 C 78.65 106.75 81.63 101.80 85.83 97.94 C 95.80 91.08 105.47 83.29 117.33 79.93 C 117.44 78.76 117.55 77.60 117.66 76.44 C 109.69 75.93 101.82 77.90 94.35 80.54 C 89.03 82.59 83.41 84.29 78.91 87.95 C 75.78 90.35 71.78 91.17 68.64 93.57 C 65.03 95.83 61.52 98.99 56.99 98.86 C 57.24 95.53 60.07 93.47 61.93 91.01 C 66.11 85.58 70.99 80.50 77.02 77.14 C 85.56 73.10 94.21 68.83 103.67 67.47 Z" />
</g>
<g id="#94b289ff">
<path fill="#94b289" opacity="1.00" d=" M 204.19 78.21 C 207.25 74.71 211.66 73.08 215.93 71.63 C 212.80 74.96 208.16 76.18 204.19 78.21 Z" />
</g>
<g id="#bec9a8ff">
<path fill="#bec9a8" opacity="1.00" d=" M 225.43 84.42 C 229.58 80.21 233.61 75.66 238.95 72.92 C 232.70 79.27 225.68 84.90 220.60 92.32 L 219.88 92.39 C 221.17 89.38 223.13 86.73 225.43 84.42 Z" />
</g>
<g id="#bdd39aff">
<path fill="#bdd39a" opacity="1.00" d=" M 94.35 80.54 C 101.82 77.90 109.69 75.93 117.66 76.44 C 117.55 77.60 117.44 78.76 117.33 79.93 C 105.47 83.29 95.80 91.08 85.83 97.94 C 87.31 95.41 89.64 93.60 92.13 92.13 C 96.50 89.58 100.25 86.02 104.93 83.98 C 107.35 82.73 110.62 82.15 111.46 79.13 C 99.71 77.30 89.60 84.54 78.91 87.95 C 83.41 84.29 89.03 82.59 94.35 80.54 Z" />
</g>
<g id="#8cab85ff">
<path fill="#8cab85" opacity="1.00" d=" M 247.90 84.85 C 248.19 82.01 248.74 78.83 251.76 77.69 C 251.50 80.06 251.13 82.43 250.72 84.79 C 250.02 84.81 248.61 84.84 247.90 84.85 Z" />
</g>
<g id="#83a880ff">
<path fill="#83a880" opacity="1.00" d=" M 315.14 82.52 C 320.46 81.72 325.64 83.52 330.94 83.55 C 336.59 83.70 342.25 83.65 347.89 84.03 C 356.61 84.95 365.32 86.41 374.12 86.35 C 377.12 86.46 379.84 87.98 382.80 88.36 C 386.78 88.87 390.81 88.95 394.78 89.56 C 399.72 90.18 404.45 91.97 409.43 92.30 C 415.35 92.72 421.46 92.67 427.06 94.93 C 430.07 96.16 433.30 96.66 436.54 96.82 C 441.02 96.88 444.47 100.16 448.64 101.31 C 451.72 102.17 454.89 102.79 457.76 104.27 C 462.57 106.78 468.12 107.96 472.12 111.86 C 475.44 109.96 478.56 107.53 482.29 106.45 C 485.86 105.81 489.47 106.75 493.02 107.17 C 495.00 108.84 496.07 111.24 494.71 113.69 C 490.46 114.80 486.10 115.38 481.84 116.44 C 476.65 118.66 471.85 121.65 466.76 124.06 C 466.08 122.83 465.40 121.59 464.74 120.36 C 465.74 118.66 466.76 116.97 467.86 115.33 C 463.86 116.87 459.57 118.50 455.23 117.44 C 444.59 114.56 433.52 113.91 422.66 112.24 C 417.72 111.42 412.87 110.18 407.96 109.24 C 401.70 108.05 395.21 108.39 389.07 106.55 C 386.98 105.92 384.79 105.72 382.61 105.70 C 385.75 110.49 391.33 112.40 396.20 114.89 C 399.81 116.77 403.83 117.53 407.75 118.46 C 411.73 119.40 415.33 121.40 418.84 123.44 C 415.60 125.68 411.63 124.85 407.97 124.71 C 402.86 124.38 397.75 124.87 392.66 125.29 C 390.62 125.44 388.61 125.85 386.61 126.28 C 388.14 127.38 389.65 128.65 391.58 128.94 C 399.24 130.25 406.73 133.41 414.62 132.50 C 419.82 133.60 425.12 134.15 430.41 134.65 C 430.52 139.73 425.58 142.34 422.35 145.39 C 419.73 147.34 417.82 150.01 416.62 153.03 C 424.03 153.23 431.33 151.37 438.73 151.95 C 442.79 152.37 446.50 149.84 450.55 150.44 C 454.37 150.86 458.39 150.37 462.00 151.95 C 457.34 152.90 452.56 152.67 447.85 153.04 C 442.38 153.44 436.94 154.29 431.45 154.31 C 418.09 153.93 404.72 155.30 391.58 157.60 C 382.90 158.81 373.81 158.92 365.78 162.86 C 362.37 164.70 358.39 163.75 354.78 164.77 C 347.60 166.85 340.70 169.80 333.55 171.97 C 327.81 173.90 322.36 170.30 316.95 168.87 C 307.96 166.31 299.97 158.93 290.07 161.03 C 295.82 158.57 302.94 159.24 307.72 154.71 C 309.33 151.97 308.28 148.54 308.24 145.53 C 304.06 143.60 299.61 140.38 294.79 141.86 C 290.70 143.07 286.45 143.92 282.55 145.67 C 278.80 148.36 276.08 152.22 272.53 155.17 C 272.57 156.30 272.62 157.44 272.67 158.58 C 271.45 157.95 270.23 157.33 269.01 156.71 C 271.07 154.57 273.29 152.60 275.48 150.60 C 273.52 149.62 271.56 147.69 269.21 148.48 C 264.44 149.88 259.93 152.06 255.11 153.31 C 255.75 154.19 256.39 155.07 257.07 155.92 C 247.92 150.20 238.70 144.39 228.57 140.55 C 221.79 138.43 215.28 134.99 208.04 134.85 C 194.23 133.90 180.79 138.08 168.21 143.35 C 157.85 145.99 146.84 146.49 137.22 151.62 C 128.95 155.10 121.19 159.65 113.83 164.77 C 115.15 162.10 116.70 158.87 114.20 156.37 C 113.08 158.24 111.97 160.13 110.82 161.98 C 109.90 159.47 109.91 156.77 109.65 154.14 C 107.34 153.99 105.53 155.67 103.63 156.72 C 102.14 155.89 100.64 155.06 99.15 154.23 C 98.18 155.27 97.20 156.30 96.23 157.34 C 94.24 156.09 92.23 154.85 90.22 153.62 C 93.89 150.72 92.31 145.92 91.67 142.02 C 93.09 142.91 94.51 143.80 95.93 144.68 C 96.71 144.11 97.49 143.53 98.27 142.95 C 97.16 140.90 96.04 138.86 94.89 136.83 C 101.70 128.06 109.43 119.87 118.69 113.65 C 123.68 110.07 128.27 105.96 133.14 102.22 C 135.37 100.54 138.08 99.64 140.24 97.88 C 140.21 95.85 139.68 93.88 139.21 91.92 C 140.54 93.26 141.83 94.68 143.38 95.79 C 147.26 95.38 150.54 92.71 154.42 92.10 C 158.84 90.93 163.31 92.66 167.10 94.88 C 172.43 97.80 175.00 103.61 178.89 108.01 C 186.66 106.80 194.47 105.98 202.31 105.31 C 197.83 97.95 189.91 93.73 183.19 88.70 C 183.60 88.86 184.42 89.18 184.84 89.34 C 187.71 90.26 190.09 92.43 193.14 92.82 C 196.44 93.26 199.78 93.36 203.05 93.99 C 208.23 94.60 214.39 96.46 218.97 93.11 C 219.19 92.93 219.65 92.57 219.88 92.39 L 220.60 92.32 C 222.49 92.37 224.38 92.54 226.28 92.54 C 231.37 92.68 235.96 89.95 240.98 89.52 C 250.98 89.03 260.49 85.50 270.36 84.10 C 277.87 83.29 285.42 83.06 292.95 82.54 C 300.35 81.94 307.75 83.43 315.14 82.52 M 160.34 111.36 C 156.52 112.22 153.37 114.96 152.57 118.88 C 153.14 119.95 153.69 121.03 154.22 122.13 C 157.95 124.59 163.01 122.85 165.90 119.88 C 165.65 117.76 165.65 115.49 164.40 113.66 C 163.52 112.32 162.17 110.32 160.34 111.36 Z" />
<path fill="#83a880" opacity="1.00" d=" M 163.39 117.30 C 163.47 117.37 163.61 117.52 163.69 117.59 C 163.61 117.52 163.47 117.37 163.39 117.30 Z" />
</g>
<g id="#6a856aff">
<path fill="#6a856a" opacity="1.00" d=" M 675.65 86.24 C 677.39 87.89 679.21 89.65 679.88 92.05 C 682.16 98.96 683.25 106.23 683.52 113.49 C 687.26 113.71 691.21 113.60 694.65 115.31 C 698.69 117.61 703.18 118.85 707.77 119.52 C 714.27 123.63 721.77 127.44 725.26 134.70 C 728.72 141.95 727.73 150.21 728.99 157.93 C 729.47 160.88 729.41 163.87 729.37 166.85 C 729.81 176.67 730.20 186.57 731.90 196.27 C 732.01 197.45 732.07 198.63 732.05 199.82 C 731.96 205.12 732.07 210.43 731.36 215.69 C 725.91 213.31 720.15 211.57 715.09 208.36 C 715.63 205.91 716.11 203.43 716.35 200.92 C 717.42 192.41 712.55 184.07 705.59 179.45 C 700.55 176.16 695.32 172.85 689.34 171.64 C 685.02 170.80 681.02 168.96 677.23 166.79 C 675.37 165.81 673.62 164.52 671.54 164.08 C 668.97 163.75 666.40 164.23 663.84 164.32 C 658.25 163.00 652.54 162.27 647.07 160.47 C 636.20 158.67 625.18 157.92 614.21 156.94 C 607.21 153.55 599.27 155.03 591.79 154.24 C 579.50 153.13 567.15 152.47 554.80 152.78 C 542.61 152.15 530.39 152.31 518.19 151.75 C 504.23 152.24 490.27 150.69 476.33 151.38 C 477.92 146.88 480.43 142.76 483.88 139.45 C 486.26 140.82 488.90 141.65 491.60 142.15 C 491.68 141.59 491.85 140.47 491.94 139.91 C 491.18 139.69 490.42 139.47 489.67 139.26 C 489.74 138.36 489.81 137.46 489.89 136.56 C 488.91 135.65 487.93 134.73 486.96 133.82 C 489.69 130.87 491.53 127.24 491.84 123.19 C 490.79 123.20 489.74 123.20 488.70 123.22 C 488.54 124.29 488.38 125.38 488.23 126.46 C 487.40 126.55 486.58 126.66 485.76 126.76 C 485.26 129.22 485.22 132.02 483.54 134.04 C 481.04 135.53 478.17 136.39 476.00 138.41 C 474.09 137.30 471.75 136.46 470.62 134.45 C 469.79 133.08 471.08 131.88 471.96 130.96 C 474.07 128.96 477.24 129.68 479.88 129.53 C 479.85 128.84 479.79 127.47 479.76 126.78 C 476.57 127.34 473.47 128.29 470.60 129.77 C 470.09 128.89 469.58 128.01 469.08 127.13 C 472.61 123.36 477.74 122.59 482.48 121.34 C 484.41 121.16 484.46 118.97 485.15 117.60 C 484.32 117.31 482.67 116.73 481.84 116.44 C 486.10 115.38 490.46 114.80 494.71 113.69 C 494.28 114.68 493.82 115.66 493.37 116.64 C 500.79 115.26 508.37 115.67 515.83 114.77 C 526.57 114.14 537.29 113.21 547.98 111.95 C 560.36 110.54 572.83 110.35 585.26 109.73 C 590.26 108.97 595.30 110.28 600.28 109.45 C 611.38 108.13 622.60 109.56 633.70 108.37 C 638.99 107.86 644.20 109.18 649.45 109.61 C 655.06 110.24 660.71 110.20 666.35 110.36 C 671.71 110.48 676.91 111.86 682.12 112.98 C 682.21 103.73 680.29 94.31 675.65 86.24 Z" />
</g>
<g id="#b5c8a6ff">
<path fill="#b5c8a6" opacity="1.00" d=" M 203.05 93.99 C 208.35 93.55 213.66 93.28 218.97 93.11 C 214.39 96.46 208.23 94.60 203.05 93.99 Z" />
</g>
<g id="#648361ff">
<path fill="#648361" opacity="1.00" d=" M 382.61 105.70 C 384.79 105.72 386.98 105.92 389.07 106.55 C 395.21 108.39 401.70 108.05 407.96 109.24 C 412.87 110.18 417.72 111.42 422.66 112.24 C 433.52 113.91 444.59 114.56 455.23 117.44 C 459.57 118.50 463.86 116.87 467.86 115.33 C 466.76 116.97 465.74 118.66 464.74 120.36 C 465.40 121.59 466.08 122.83 466.76 124.06 C 471.85 121.65 476.65 118.66 481.84 116.44 C 482.67 116.73 484.32 117.31 485.15 117.60 C 484.46 118.97 484.41 121.16 482.48 121.34 C 477.74 122.59 472.61 123.36 469.08 127.13 C 469.58 128.01 470.09 128.89 470.60 129.77 C 473.47 128.29 476.57 127.34 479.76 126.78 C 479.79 127.47 479.85 128.84 479.88 129.53 C 477.24 129.68 474.07 128.96 471.96 130.96 C 471.08 131.88 469.79 133.08 470.62 134.45 C 471.75 136.46 474.09 137.30 476.00 138.41 C 478.17 136.39 481.04 135.53 483.54 134.04 C 485.22 132.02 485.26 129.22 485.76 126.76 C 486.58 126.66 487.40 126.55 488.23 126.46 C 488.38 125.38 488.54 124.29 488.70 123.22 C 489.74 123.20 490.79 123.20 491.84 123.19 C 491.53 127.24 489.69 130.87 486.96 133.82 C 487.93 134.73 488.91 135.65 489.89 136.56 C 489.81 137.46 489.74 138.36 489.67 139.26 C 490.42 139.47 491.18 139.69 491.94 139.91 C 491.85 140.47 491.68 141.59 491.60 142.15 C 488.90 141.65 486.26 140.82 483.88 139.45 C 480.43 142.76 477.92 146.88 476.33 151.38 C 471.89 152.33 467.30 152.19 463.19 150.09 C 464.27 147.64 465.19 144.50 468.16 143.77 C 471.08 142.85 472.48 146.26 474.20 147.92 C 474.02 144.67 473.86 141.15 471.20 138.88 C 467.83 141.11 463.94 143.06 461.81 146.65 C 461.46 148.40 461.84 150.19 462.00 151.95 C 458.39 150.37 454.37 150.86 450.55 150.44 C 446.50 149.84 442.79 152.37 438.73 151.95 C 431.33 151.37 424.03 153.23 416.62 153.03 C 417.82 150.01 419.73 147.34 422.35 145.39 C 425.58 142.34 430.52 139.73 430.41 134.65 C 436.74 135.00 442.99 137.03 449.35 136.24 C 451.89 136.05 453.82 134.27 455.61 132.64 C 458.43 129.99 461.36 127.45 464.14 124.74 C 461.67 124.00 459.09 123.86 456.56 124.28 C 456.44 122.75 456.33 121.23 456.24 119.71 C 452.58 123.15 447.38 123.50 442.72 124.57 C 438.98 125.42 435.12 125.26 431.38 124.51 C 427.17 123.50 423.15 125.75 418.96 125.66 C 410.19 125.60 401.42 125.85 392.66 125.29 C 397.75 124.87 402.86 124.38 407.97 124.71 C 411.63 124.85 415.60 125.68 418.84 123.44 C 415.33 121.40 411.73 119.40 407.75 118.46 C 403.83 117.53 399.81 116.77 396.20 114.89 C 391.33 112.40 385.75 110.49 382.61 105.70 Z" />
</g>
<g id="#587b4eff">
<path fill="#587b4e" opacity="1.00" d=" M 158.31 115.00 C 160.37 113.67 161.90 116.22 163.39 117.30 C 163.47 117.37 163.61 117.52 163.69 117.59 C 164.24 118.16 165.35 119.30 165.90 119.88 C 163.01 122.85 157.95 124.59 154.22 122.13 C 154.95 119.49 155.41 116.16 158.31 115.00 Z" />
</g>
<g id="#b2c0aaff">
<path fill="#b2c0aa" opacity="1.00" d=" M 694.65 115.31 C 699.11 116.25 703.98 116.74 707.77 119.52 C 703.18 118.85 698.69 117.61 694.65 115.31 Z" />
</g>
<g id="#466338ff">
<path fill="#466338" opacity="1.00" d=" M 442.72 124.57 C 447.38 123.50 452.58 123.15 456.24 119.71 C 456.33 121.23 456.44 122.75 456.56 124.28 C 459.09 123.86 461.67 124.00 464.14 124.74 C 461.36 127.45 458.43 129.99 455.61 132.64 C 453.82 134.27 451.89 136.05 449.35 136.24 C 442.99 137.03 436.74 135.00 430.41 134.65 C 425.12 134.15 419.82 133.60 414.62 132.50 C 407.21 130.06 399.36 129.07 391.58 128.94 C 389.65 128.65 388.14 127.38 386.61 126.28 C 388.61 125.85 390.62 125.44 392.66 125.29 C 401.42 125.85 410.19 125.60 418.96 125.66 C 423.15 125.75 427.17 123.50 431.38 124.51 C 435.12 125.26 438.98 125.42 442.72 124.57 Z" />
</g>
<g id="#638754ff">
<path fill="#638754" opacity="1.00" d=" M 391.58 128.94 C 399.36 129.07 407.21 130.06 414.62 132.50 C 406.73 133.41 399.24 130.25 391.58 128.94 Z" />
</g>
<g id="#486739ff">
<path fill="#486739" opacity="1.00" d=" M 168.21 143.35 C 180.79 138.08 194.23 133.90 208.04 134.85 C 215.28 134.99 221.79 138.43 228.57 140.55 C 238.70 144.39 247.92 150.20 257.07 155.92 C 258.30 156.71 259.56 157.46 260.82 158.22 C 261.68 159.14 262.49 160.09 263.32 161.03 C 259.81 163.25 256.40 165.61 252.96 167.94 C 251.92 168.58 250.88 169.24 249.84 169.89 C 246.19 171.80 242.24 173.27 238.09 173.52 C 237.53 171.92 236.89 170.33 236.00 168.88 C 231.81 161.60 225.42 155.51 217.46 152.58 C 210.83 150.25 203.53 148.35 196.53 150.07 C 197.70 152.51 200.03 153.81 202.58 154.40 C 210.37 156.56 217.44 160.55 224.57 164.26 C 226.65 165.25 228.19 166.97 229.57 168.77 C 226.17 172.00 222.36 174.77 218.36 177.21 C 214.77 178.83 211.62 181.20 208.90 184.03 C 208.41 184.31 207.43 184.86 206.95 185.14 C 204.99 182.73 202.97 180.37 201.14 177.87 C 198.71 173.84 196.08 169.63 191.86 167.26 C 186.32 164.14 180.29 162.04 174.36 159.81 C 177.76 157.76 181.40 155.73 183.52 152.23 C 181.14 152.80 178.81 153.60 176.66 154.78 C 172.29 157.27 167.19 158.07 162.94 160.81 C 156.67 163.34 150.53 166.21 145.01 170.16 C 144.56 170.42 143.68 170.94 143.24 171.20 C 139.49 173.13 135.86 175.31 132.12 177.28 C 132.39 175.33 133.19 173.54 134.34 171.94 C 135.48 170.23 136.16 168.27 136.73 166.31 C 130.61 169.32 124.36 172.07 118.41 175.42 C 111.19 179.81 103.81 183.96 96.22 187.68 C 99.59 178.50 106.67 171.20 113.83 164.77 C 121.19 159.65 128.95 155.10 137.22 151.62 C 142.69 151.03 147.73 148.75 152.97 147.25 C 153.17 147.68 153.57 148.55 153.77 148.99 C 151.26 151.66 148.81 154.40 146.78 157.46 C 148.30 157.37 149.89 157.22 151.09 156.17 C 156.80 151.90 162.36 147.42 168.21 143.35 Z" />
</g>
<g id="#8bae87ff">
<path fill="#8bae87" opacity="1.00" d=" M 79.28 158.27 C 84.13 150.89 88.25 142.82 94.89 136.83 C 96.04 138.86 97.16 140.90 98.27 142.95 C 97.49 143.53 96.71 144.11 95.93 144.68 C 94.51 143.80 93.09 142.91 91.67 142.02 C 92.31 145.92 93.89 150.72 90.22 153.62 C 92.23 154.85 94.24 156.09 96.23 157.34 C 97.20 156.30 98.18 155.27 99.15 154.23 C 100.64 155.06 102.14 155.89 103.63 156.72 C 105.53 155.67 107.34 153.99 109.65 154.14 C 109.91 156.77 109.90 159.47 110.82 161.98 C 111.97 160.13 113.08 158.24 114.20 156.37 C 116.70 158.87 115.15 162.10 113.83 164.77 C 106.67 171.20 99.59 178.50 96.22 187.68 C 103.81 183.96 111.19 179.81 118.41 175.42 C 124.36 172.07 130.61 169.32 136.73 166.31 C 136.16 168.27 135.48 170.23 134.34 171.94 C 133.95 171.41 133.17 170.34 132.79 169.80 C 129.99 171.16 127.10 172.59 125.10 175.06 C 119.98 182.71 111.84 187.49 104.03 191.97 C 95.21 195.90 85.17 199.74 75.53 196.36 C 73.07 194.57 71.14 192.04 69.82 189.31 C 68.62 185.71 69.46 181.80 70.38 178.22 C 72.37 171.19 75.32 164.42 79.28 158.27 Z" />
</g>
<g id="#bed6b5ff">
<path fill="#bed6b5" opacity="1.00" d=" M 461.81 146.65 C 463.94 143.06 467.83 141.11 471.20 138.88 C 473.86 141.15 474.02 144.67 474.20 147.92 C 472.48 146.26 471.08 142.85 468.16 143.77 C 465.19 144.50 464.27 147.64 463.19 150.09 C 467.30 152.19 471.89 152.33 476.33 151.38 C 490.27 150.69 504.23 152.24 518.19 151.75 C 530.39 152.31 542.61 152.15 554.80 152.78 C 563.18 154.19 571.71 153.55 580.12 154.59 C 587.62 155.54 595.23 155.01 602.70 156.28 C 606.50 156.92 610.36 156.98 614.21 156.94 C 625.18 157.92 636.20 158.67 647.07 160.47 C 652.54 162.27 658.25 163.00 663.84 164.32 C 667.95 166.57 672.61 167.00 677.23 166.79 C 681.02 168.96 685.02 170.80 689.34 171.64 C 695.32 172.85 700.55 176.16 705.59 179.45 C 712.55 184.07 717.42 192.41 716.35 200.92 C 714.78 204.41 714.23 209.91 709.78 210.79 C 704.89 209.91 699.97 209.51 695.03 210.19 C 685.09 209.94 675.21 211.02 665.30 211.57 C 661.40 211.84 657.58 212.73 653.80 213.69 C 647.24 215.42 640.31 214.99 633.79 216.94 C 628.69 218.45 623.47 219.50 618.17 219.90 C 610.21 220.60 602.91 224.61 594.89 224.90 C 588.65 225.33 582.57 226.82 576.62 228.64 C 569.08 228.96 561.68 230.48 554.18 231.22 C 547.61 232.62 540.97 233.95 534.22 233.59 C 526.58 233.63 519.12 235.53 511.54 236.19 C 511.11 235.52 510.68 234.85 510.25 234.19 C 508.81 232.14 507.28 230.03 505.08 228.77 C 503.15 227.75 501.17 226.53 498.95 226.41 C 494.10 226.75 489.56 228.90 485.72 231.80 C 483.49 233.21 481.21 234.57 479.07 236.12 C 472.66 235.15 466.14 235.13 459.74 234.12 C 456.72 233.65 453.68 233.46 450.63 233.43 C 450.44 230.86 450.24 228.29 449.74 225.77 C 449.29 225.30 448.39 224.37 447.95 223.91 C 444.22 219.71 438.43 221.43 433.82 222.88 C 430.11 223.87 428.42 227.67 426.17 230.41 C 419.09 226.27 410.68 226.14 403.28 222.87 C 398.26 220.92 392.82 220.34 387.89 218.15 C 382.23 215.63 376.54 213.10 371.30 209.76 C 377.80 202.05 390.65 205.46 396.63 197.01 C 395.87 194.94 395.15 192.85 394.29 190.82 C 392.58 188.68 390.36 186.68 387.49 186.49 C 382.96 185.48 378.82 187.96 374.98 189.98 C 368.65 192.94 362.79 196.90 357.71 201.71 C 355.26 203.87 352.89 206.12 350.65 208.49 C 345.33 204.56 338.60 202.66 334.01 197.79 C 334.79 196.91 335.55 196.01 336.28 195.10 C 337.19 193.98 338.11 192.88 339.03 191.78 C 338.00 189.44 337.46 186.22 334.58 185.47 C 329.42 183.83 322.48 183.00 318.75 187.84 C 318.43 188.12 317.80 188.69 317.48 188.98 C 310.82 188.47 305.08 184.67 298.69 183.09 C 291.07 180.50 282.93 180.31 274.96 180.62 C 267.25 180.71 260.08 184.53 252.29 183.94 C 250.96 181.74 249.63 179.53 248.14 177.44 C 246.29 176.53 244.39 175.72 242.51 174.87 C 244.95 173.20 247.37 171.51 249.84 169.89 C 250.88 169.24 251.92 168.58 252.96 167.94 C 255.44 166.73 258.03 165.77 260.61 164.81 C 261.90 168.36 262.33 172.96 265.90 175.06 C 269.59 176.46 273.64 175.63 277.48 175.51 C 280.37 169.75 283.94 163.79 290.07 161.03 C 299.97 158.93 307.96 166.31 316.95 168.87 C 322.36 170.30 327.81 173.90 333.55 171.97 C 340.70 169.80 347.60 166.85 354.78 164.77 C 358.39 163.75 362.37 164.70 365.78 162.86 C 373.81 158.92 382.90 158.81 391.58 157.60 C 404.72 155.30 418.09 153.93 431.45 154.31 C 436.94 154.29 442.38 153.44 447.85 153.04 C 452.56 152.67 457.34 152.90 462.00 151.95 C 461.84 150.19 461.46 148.40 461.81 146.65 Z" />
</g>
<g id="#6a8766ff">
<path fill="#6a8766" opacity="1.00" d=" M 294.79 141.86 C 299.61 140.38 304.06 143.60 308.24 145.53 C 308.28 148.54 309.33 151.97 307.72 154.71 C 302.94 159.24 295.82 158.57 290.07 161.03 C 283.94 163.79 280.37 169.75 277.48 175.51 C 273.64 175.63 269.59 176.46 265.90 175.06 C 262.33 172.96 261.90 168.36 260.61 164.81 C 258.03 165.77 255.44 166.73 252.96 167.94 C 256.40 165.61 259.81 163.25 263.32 161.03 C 262.49 160.09 261.68 159.14 260.82 158.22 C 262.46 158.92 264.13 159.54 265.79 160.17 C 266.85 159.01 267.92 157.84 269.01 156.71 C 270.23 157.33 271.45 157.95 272.67 158.58 C 272.62 157.44 272.57 156.30 272.53 155.17 C 276.08 152.22 278.80 148.36 282.55 145.67 C 286.45 143.92 290.70 143.07 294.79 141.86 Z" />
</g>
<g id="#5f7c4dff">
<path fill="#5f7c4d" opacity="1.00" d=" M 137.22 151.62 C 146.84 146.49 157.85 145.99 168.21 143.35 C 162.36 147.42 156.80 151.90 151.09 156.17 C 149.89 157.22 148.30 157.37 146.78 157.46 C 148.81 154.40 151.26 151.66 153.77 148.99 C 153.57 148.55 153.17 147.68 152.97 147.25 C 147.73 148.75 142.69 151.03 137.22 151.62 Z" />
</g>
<g id="#bad1b0ff">
<path fill="#bad1b0" opacity="1.00" d=" M 255.11 153.31 C 259.93 152.06 264.44 149.88 269.21 148.48 C 271.56 147.69 273.52 149.62 275.48 150.60 C 273.29 152.60 271.07 154.57 269.01 156.71 C 267.92 157.84 266.85 159.01 265.79 160.17 C 264.13 159.54 262.46 158.92 260.82 158.22 C 259.56 157.46 258.30 156.71 257.07 155.92 C 256.39 155.07 255.75 154.19 255.11 153.31 Z" />
</g>
<g id="#82a87bff">
<path fill="#82a87b" opacity="1.00" d=" M 196.53 150.07 C 203.53 148.35 210.83 150.25 217.46 152.58 C 225.42 155.51 231.81 161.60 236.00 168.88 C 234.80 167.94 233.56 167.06 232.32 166.19 C 231.40 167.05 230.49 167.92 229.57 168.77 C 228.19 166.97 226.65 165.25 224.57 164.26 C 217.44 160.55 210.37 156.56 202.58 154.40 C 200.03 153.81 197.70 152.51 196.53 150.07 Z" />
</g>
<g id="#6b8d58ff">
<path fill="#6b8d58" opacity="1.00" d=" M 176.66 154.78 C 178.81 153.60 181.14 152.80 183.52 152.23 C 181.40 155.73 177.76 157.76 174.36 159.81 C 170.56 160.20 166.75 160.48 162.94 160.81 C 167.19 158.07 172.29 157.27 176.66 154.78 Z" />
</g>
<g id="#93b08fff">
<path fill="#93b08f" opacity="1.00" d=" M 554.80 152.78 C 567.15 152.47 579.50 153.13 591.79 154.24 C 599.27 155.03 607.21 153.55 614.21 156.94 C 610.36 156.98 606.50 156.92 602.70 156.28 C 595.23 155.01 587.62 155.54 580.12 154.59 C 571.71 153.55 563.18 154.19 554.80 152.78 Z" />
</g>
<g id="#90b281ff">
<path fill="#90b281" opacity="1.00" d=" M 162.94 160.81 C 166.75 160.48 170.56 160.20 174.36 159.81 C 180.29 162.04 186.32 164.14 191.86 167.26 C 196.08 169.63 198.71 173.84 201.14 177.87 C 196.95 174.73 194.44 169.56 189.42 167.55 C 180.97 164.38 171.93 162.97 162.93 162.97 C 156.18 163.13 151.54 169.18 145.01 170.16 C 150.53 166.21 156.67 163.34 162.94 160.81 Z" />
</g>
<g id="#8ead8eff">
<path fill="#8ead8e" opacity="1.00" d=" M 663.84 164.32 C 666.40 164.23 668.97 163.75 671.54 164.08 C 673.62 164.52 675.37 165.81 677.23 166.79 C 672.61 167.00 667.95 166.57 663.84 164.32 Z" />
</g>
<g id="#bed7b1ff">
<path fill="#bed7b1" opacity="1.00" d=" M 229.57 168.77 C 230.49 167.92 231.40 167.05 232.32 166.19 C 233.56 167.06 234.80 167.94 236.00 168.88 C 236.89 170.33 237.53 171.92 238.09 173.52 C 238.30 174.29 238.50 175.07 238.69 175.85 C 234.44 178.79 230.23 181.82 226.60 185.53 C 223.95 188.37 220.21 189.71 216.52 190.61 C 209.90 192.22 203.41 194.33 196.81 196.02 C 198.97 193.13 202.08 191.12 204.23 188.23 C 206.18 184.50 201.73 181.46 201.14 177.87 C 202.97 180.37 204.99 182.73 206.95 185.14 C 207.43 184.86 208.41 184.31 208.90 184.03 C 212.51 182.45 215.66 180.06 218.36 177.21 C 222.36 174.77 226.17 172.00 229.57 168.77 Z" />
</g>
<g id="#a6c3abff">
<path fill="#a6c3ab" opacity="1.00" d=" M 729.37 166.85 C 731.46 172.01 730.71 177.69 731.51 183.10 C 731.66 187.47 733.28 191.96 731.90 196.27 C 730.20 186.57 729.81 176.67 729.37 166.85 Z" />
</g>
<g id="#c0d9b6ff">
<path fill="#c0d9b6" opacity="1.00" d=" M 125.10 175.06 C 127.10 172.59 129.99 171.16 132.79 169.80 C 133.17 170.34 133.95 171.41 134.34 171.94 C 133.19 173.54 132.39 175.33 132.12 177.28 C 135.86 175.31 139.49 173.13 143.24 171.20 C 140.47 175.04 135.79 176.59 131.80 178.78 C 131.43 176.82 131.06 174.85 130.69 172.89 C 128.83 173.61 126.96 174.34 125.10 175.06 Z" />
<path fill="#c0d9b6" opacity="1.00" d=" M 240.67 209.53 C 244.47 207.93 248.65 207.80 252.71 208.04 C 260.45 209.28 268.18 211.21 275.15 214.89 C 283.52 219.81 289.23 227.89 295.23 235.29 C 290.80 238.03 286.32 240.68 282.11 243.73 C 282.00 243.16 281.77 242.01 281.65 241.44 C 277.54 240.30 273.29 239.30 269.00 239.93 C 260.60 240.78 251.61 239.83 243.90 243.90 C 240.61 245.46 236.67 245.54 233.71 247.79 C 225.08 255.98 215.19 262.75 205.11 269.04 C 203.45 270.24 201.34 270.10 199.40 270.22 C 199.42 271.10 199.45 271.98 199.49 272.87 C 193.23 275.73 187.14 279.32 180.28 280.51 C 172.92 281.36 165.03 282.05 158.08 278.96 C 155.47 274.79 154.69 269.53 154.61 264.66 C 155.72 254.10 161.49 244.88 166.19 235.61 C 165.45 235.29 163.96 234.65 163.22 234.33 L 162.60 234.03 C 172.97 229.13 182.57 222.19 193.89 219.60 C 191.02 225.99 185.17 230.81 183.91 237.94 C 186.99 236.86 190.00 235.55 192.78 233.82 C 207.96 224.32 223.87 215.83 240.67 209.53 M 218.06 237.01 C 210.10 245.39 205.11 256.33 202.88 267.60 C 205.80 266.56 209.63 266.07 211.19 263.02 L 212.07 263.25 L 212.88 262.54 L 212.77 261.63 C 214.49 262.10 215.17 261.44 214.83 259.66 C 216.24 261.14 219.27 258.83 217.91 257.16 C 221.35 254.81 223.64 251.29 226.02 247.97 C 228.26 244.81 232.18 243.57 234.79 240.78 C 237.35 238.04 240.73 235.51 241.18 231.50 C 233.30 231.79 224.61 232.09 218.06 237.01 Z" />
<path fill="#c0d9b6" opacity="1.00" d=" M 527.13 364.05 C 528.77 363.35 530.37 362.53 531.98 361.73 C 533.11 362.44 534.24 363.15 535.38 363.87 C 528.91 366.66 523.32 371.38 516.38 373.09 C 513.70 373.77 511.15 374.83 508.64 375.95 C 503.76 377.43 498.74 375.02 493.83 374.63 C 498.02 371.74 502.99 370.42 508.00 369.86 C 514.68 369.12 520.99 366.66 527.13 364.05 Z" />
</g>
<g id="#708d5dff">
<path fill="#708d5d" opacity="1.00" d=" M 238.09 173.52 C 242.24 173.27 246.19 171.80 249.84 169.89 C 247.37 171.51 244.95 173.20 242.51 174.87 C 244.39 175.72 246.29 176.53 248.14 177.44 C 246.29 177.58 244.43 177.77 242.67 178.35 C 238.11 180.29 233.80 182.81 230.17 186.20 C 230.81 186.99 231.46 187.78 232.11 188.57 C 230.38 193.90 224.99 196.00 220.45 198.40 C 220.61 197.17 220.78 195.95 220.94 194.73 C 217.43 192.81 213.87 195.43 210.40 196.09 C 199.85 198.55 189.68 202.67 180.51 208.46 C 169.29 214.77 159.04 223.14 151.87 233.93 C 152.15 234.43 152.72 235.43 153.00 235.93 C 156.13 234.09 159.32 232.34 162.58 230.72 C 162.07 231.55 161.56 232.38 161.05 233.22 C 161.44 233.42 162.21 233.82 162.60 234.03 L 163.22 234.33 C 155.94 236.85 150.63 243.22 143.08 244.99 C 143.31 243.59 143.24 242.09 143.88 240.79 C 149.28 232.16 155.44 223.91 162.82 216.86 C 170.31 210.80 177.98 204.70 186.93 200.95 C 190.31 199.48 193.31 197.21 196.81 196.02 C 203.41 194.33 209.90 192.22 216.52 190.61 C 220.21 189.71 223.95 188.37 226.60 185.53 C 230.23 181.82 234.44 178.79 238.69 175.85 C 238.50 175.07 238.30 174.29 238.09 173.52 Z" />
</g>
<g id="#80a277ff">
<path fill="#80a277" opacity="1.00" d=" M 208.90 184.03 C 211.62 181.20 214.77 178.83 218.36 177.21 C 215.66 180.06 212.51 182.45 208.90 184.03 Z" />
</g>
<g id="#678462ff">
<path fill="#678462" opacity="1.00" d=" M 242.67 178.35 C 244.43 177.77 246.29 177.58 248.14 177.44 C 249.63 179.53 250.96 181.74 252.29 183.94 C 260.08 184.53 267.25 180.71 274.96 180.62 C 282.93 180.31 291.07 180.50 298.69 183.09 C 305.08 184.67 310.82 188.47 317.48 188.98 C 315.66 189.72 313.77 190.28 311.90 190.87 C 317.75 194.78 324.08 198.11 330.91 199.89 C 332.12 199.50 333.06 198.59 334.01 197.79 C 338.60 202.66 345.33 204.56 350.65 208.49 C 352.89 206.12 355.26 203.87 357.71 201.71 C 355.23 204.78 353.06 208.09 350.79 211.32 C 353.24 213.08 355.97 214.51 358.15 216.63 C 358.75 218.09 359.05 219.66 359.43 221.19 C 358.57 222.07 357.79 223.01 357.00 223.95 C 363.40 225.83 370.24 226.53 376.12 229.89 C 379.31 231.47 382.32 233.98 386.05 233.96 C 389.80 233.98 393.55 234.03 397.26 234.61 C 392.83 235.01 388.38 235.09 383.95 234.78 C 379.60 234.27 376.01 237.35 371.83 237.93 C 373.33 236.70 374.73 235.36 376.14 234.03 C 373.08 232.49 369.90 231.23 366.63 230.24 C 361.82 228.81 357.16 226.55 352.06 226.38 C 347.36 226.16 342.65 226.26 337.95 226.32 C 331.11 226.34 324.65 228.88 318.05 230.34 C 320.64 229.03 323.27 227.80 325.90 226.58 C 324.75 224.02 323.49 221.48 321.65 219.34 C 317.05 214.12 313.55 207.29 306.46 205.07 C 306.34 205.76 306.10 207.12 305.98 207.80 C 299.66 205.30 293.56 201.82 286.70 201.11 C 288.78 204.64 292.84 205.82 296.22 207.68 C 299.64 209.49 303.03 211.35 306.53 213.02 C 306.82 211.59 307.11 210.16 307.40 208.73 C 307.64 208.96 308.13 209.41 308.37 209.64 C 307.98 212.43 307.56 215.32 308.62 218.04 C 298.52 213.17 289.16 206.89 279.02 202.12 C 272.85 198.84 266.15 202.57 259.67 202.07 C 259.08 202.12 257.91 202.22 257.33 202.27 C 256.10 203.80 257.40 205.83 257.53 207.55 C 255.92 207.73 254.32 207.92 252.71 208.04 C 248.65 207.80 244.47 207.93 240.67 209.53 C 223.87 215.83 207.96 224.32 192.78 233.82 C 190.00 235.55 186.99 236.86 183.91 237.94 C 185.17 230.81 191.02 225.99 193.89 219.60 C 182.57 222.19 172.97 229.13 162.60 234.03 C 162.21 233.82 161.44 233.42 161.05 233.22 C 161.56 232.38 162.07 231.55 162.58 230.72 C 174.42 224.58 185.82 217.16 198.77 213.52 C 196.47 216.22 195.31 219.60 194.83 223.07 C 198.53 220.03 201.25 216.03 204.80 212.83 C 214.32 204.79 225.58 199.27 236.40 193.24 C 239.74 191.41 243.64 191.51 247.33 191.26 C 247.57 189.85 247.82 188.45 248.04 187.04 C 248.18 185.65 248.52 184.21 248.12 182.84 C 246.65 180.96 244.54 179.75 242.67 178.35 Z" />
</g>
<g id="#dcf0d1ff">
<path fill="#dcf0d1" opacity="1.00" d=" M 230.17 186.20 C 233.80 182.81 238.11 180.29 242.67 178.35 C 244.54 179.75 246.65 180.96 248.12 182.84 C 248.52 184.21 248.18 185.65 248.04 187.04 C 245.82 185.49 243.67 183.05 240.69 183.37 C 237.06 183.26 233.91 185.55 232.11 188.57 C 231.46 187.78 230.81 186.99 230.17 186.20 Z" />
</g>
<g id="#577444ff">
<path fill="#577444" opacity="1.00" d=" M 240.69 183.37 C 243.67 183.05 245.82 185.49 248.04 187.04 C 247.82 188.45 247.57 189.85 247.33 191.26 C 243.64 191.51 239.74 191.41 236.40 193.24 C 225.58 199.27 214.32 204.79 204.80 212.83 C 201.25 216.03 198.53 220.03 194.83 223.07 C 195.31 219.60 196.47 216.22 198.77 213.52 C 205.49 207.79 212.63 202.54 220.45 198.40 C 224.99 196.00 230.38 193.90 232.11 188.57 C 233.91 185.55 237.06 183.26 240.69 183.37 Z" />
</g>
<g id="#85a27cff">
<path fill="#85a27c" opacity="1.00" d=" M 318.75 187.84 C 322.48 183.00 329.42 183.83 334.58 185.47 C 337.46 186.22 338.00 189.44 339.03 191.78 C 338.11 192.88 337.19 193.98 336.28 195.10 C 336.71 192.64 337.88 189.32 335.57 187.46 C 330.49 184.16 323.85 185.06 318.75 187.84 Z" />
</g>
<g id="#49673aff">
<path fill="#49673a" opacity="1.00" d=" M 318.75 187.84 C 323.85 185.06 330.49 184.16 335.57 187.46 C 337.88 189.32 336.71 192.64 336.28 195.10 C 335.55 196.01 334.79 196.91 334.01 197.79 C 333.06 198.59 332.12 199.50 330.91 199.89 C 324.08 198.11 317.75 194.78 311.90 190.87 C 313.77 190.28 315.66 189.72 317.48 188.98 C 317.80 188.69 318.43 188.12 318.75 187.84 Z" />
</g>
<g id="#809b7bff">
<path fill="#809b7b" opacity="1.00" d=" M 374.98 189.98 C 378.82 187.96 382.96 185.48 387.49 186.49 C 390.36 186.68 392.58 188.68 394.29 190.82 C 391.20 189.80 388.21 188.29 384.93 188.00 C 381.53 188.09 378.24 189.09 374.98 189.98 Z" />
</g>
<g id="#486438ff">
<path fill="#486438" opacity="1.00" d=" M 374.98 189.98 C 378.24 189.09 381.53 188.09 384.93 188.00 C 388.21 188.29 391.20 189.80 394.29 190.82 C 395.15 192.85 395.87 194.94 396.63 197.01 C 392.46 199.46 388.13 201.77 383.28 202.47 C 377.42 203.40 371.54 206.25 368.72 211.74 C 366.67 215.82 363.41 218.99 359.43 221.19 C 359.05 219.66 358.75 218.09 358.15 216.63 C 355.97 214.51 353.24 213.08 350.79 211.32 C 353.06 208.09 355.23 204.78 357.71 201.71 C 362.79 196.90 368.65 192.94 374.98 189.98 Z" />
</g>
<g id="#87ab83ff">
<path fill="#87ab83" opacity="1.00" d=" M 210.40 196.09 C 213.87 195.43 217.43 192.81 220.94 194.73 C 220.78 195.95 220.61 197.17 220.45 198.40 C 212.63 202.54 205.49 207.79 198.77 213.52 C 185.82 217.16 174.42 224.58 162.58 230.72 C 159.32 232.34 156.13 234.09 153.00 235.93 C 152.72 235.43 152.15 234.43 151.87 233.93 C 159.04 223.14 169.29 214.77 180.51 208.46 C 189.68 202.67 199.85 198.55 210.40 196.09 Z" />
</g>
<g id="#85aa82ff">
<path fill="#85aa82" opacity="1.00" d=" M 383.28 202.47 C 388.13 201.77 392.46 199.46 396.63 197.01 C 390.65 205.46 377.80 202.05 371.30 209.76 C 376.54 213.10 382.23 215.63 387.89 218.15 C 392.82 220.34 398.26 220.92 403.28 222.87 C 410.68 226.14 419.09 226.27 426.17 230.41 C 428.42 227.67 430.11 223.87 433.82 222.88 C 438.43 221.43 444.22 219.71 447.95 223.91 C 442.58 223.11 436.22 221.82 431.66 225.64 C 427.40 229.63 425.57 235.38 422.73 240.34 C 417.47 239.21 413.01 235.58 407.54 235.31 C 404.12 235.00 400.68 234.85 397.26 234.61 C 393.55 234.03 389.80 233.98 386.05 233.96 C 382.32 233.98 379.31 231.47 376.12 229.89 C 370.24 226.53 363.40 225.83 357.00 223.95 C 357.79 223.01 358.57 222.07 359.43 221.19 C 363.41 218.99 366.67 215.82 368.72 211.74 C 371.54 206.25 377.42 203.40 383.28 202.47 Z" />
</g>
<g id="#84ab7eff">
<path fill="#84ab7e" opacity="1.00" d=" M 259.67 202.07 C 266.15 202.57 272.85 198.84 279.02 202.12 C 289.16 206.89 298.52 213.17 308.62 218.04 C 312.85 219.92 317.03 222.00 320.59 225.01 C 319.07 225.99 317.55 226.98 315.96 227.83 C 309.93 228.49 304.61 231.46 299.00 233.45 C 296.67 232.36 295.47 229.89 293.92 227.97 C 290.46 222.87 285.58 219.03 281.11 214.88 C 274.94 209.16 265.95 208.88 259.07 204.34 C 259.22 203.77 259.52 202.64 259.67 202.07 Z" />
</g>
<g id="#85a884ff">
<path fill="#85a884" opacity="1.00" d=" M 732.05 199.82 C 733.76 207.14 732.24 214.67 732.49 222.09 C 732.29 228.67 733.78 235.15 733.81 241.73 C 733.80 245.25 732.80 249.08 734.66 252.33 C 735.36 252.97 736.10 253.59 736.86 254.19 C 733.43 253.07 729.86 252.45 726.41 251.38 C 714.90 247.23 702.11 248.03 690.51 251.37 C 676.66 254.02 663.76 259.89 650.50 264.47 C 643.79 267.77 636.35 268.83 629.31 271.18 C 624.54 271.70 619.61 271.86 615.21 274.03 C 610.45 276.02 605.19 275.96 600.17 276.77 C 594.27 277.67 588.30 277.73 582.35 277.47 C 575.23 277.40 568.34 275.36 561.26 274.94 C 552.66 274.01 544.80 269.27 535.96 270.18 L 535.14 270.09 C 529.38 266.66 522.95 264.26 516.25 263.60 C 508.91 261.21 501.34 259.24 494.63 255.30 C 492.13 254.11 489.28 251.67 486.43 253.16 C 482.97 256.13 481.31 260.82 477.40 263.32 C 473.50 265.09 469.12 263.61 465.63 261.59 C 465.83 261.12 466.23 260.17 466.43 259.70 C 470.02 260.57 474.50 262.67 477.65 259.64 C 481.97 255.35 484.30 248.99 489.99 246.15 C 495.52 243.73 501.93 243.47 507.01 239.97 C 508.91 238.64 509.35 236.18 510.25 234.19 C 510.68 234.85 511.11 235.52 511.54 236.19 C 519.12 235.53 526.58 233.63 534.22 233.59 C 540.97 233.95 547.61 232.62 554.18 231.22 C 561.68 230.48 569.08 228.96 576.62 228.64 C 582.57 226.82 588.65 225.33 594.89 224.90 C 602.91 224.61 610.21 220.60 618.17 219.90 C 623.47 219.50 628.69 218.45 633.79 216.94 C 640.31 214.99 647.24 215.42 653.80 213.69 C 657.58 212.73 661.40 211.84 665.30 211.57 C 675.21 211.02 685.09 209.94 695.03 210.19 C 699.97 209.51 704.89 209.91 709.78 210.79 C 714.23 209.91 714.78 204.41 716.35 200.92 C 716.11 203.43 715.63 205.91 715.09 208.36 C 720.15 211.57 725.91 213.31 731.36 215.69 C 732.07 210.43 731.96 205.12 732.05 199.82 Z" />
</g>
<g id="#b6d3a7ff">
<path fill="#b6d3a7" opacity="1.00" d=" M 286.70 201.11 C 293.56 201.82 299.66 205.30 305.98 207.80 C 306.33 208.03 307.05 208.50 307.40 208.73 C 307.11 210.16 306.82 211.59 306.53 213.02 C 303.03 211.35 299.64 209.49 296.22 207.68 C 292.84 205.82 288.78 204.64 286.70 201.11 Z" />
</g>
<g id="#658353ff">
<path fill="#658353" opacity="1.00" d=" M 257.33 202.27 C 257.91 202.22 259.08 202.12 259.67 202.07 C 259.52 202.64 259.22 203.77 259.07 204.34 C 265.95 208.88 274.94 209.16 281.11 214.88 C 285.58 219.03 290.46 222.87 293.92 227.97 C 295.47 229.89 296.67 232.36 299.00 233.45 C 304.61 231.46 309.93 228.49 315.96 227.83 C 316.65 228.66 317.35 229.50 318.05 230.34 C 310.13 233.06 302.06 235.54 294.74 239.71 C 287.71 243.01 281.52 247.70 275.31 252.30 C 266.07 258.42 259.55 267.71 253.97 277.10 C 264.15 272.66 273.06 265.87 282.97 260.91 C 288.02 258.31 292.94 255.41 298.27 253.40 C 308.00 249.73 317.46 245.17 327.63 242.78 C 335.35 241.28 343.29 241.05 351.11 241.85 C 355.96 242.38 360.43 240.07 365.08 239.17 C 362.19 240.64 359.34 242.48 356.00 242.62 C 353.20 243.14 349.90 242.49 347.64 244.57 C 345.72 246.04 343.82 247.57 341.59 248.55 C 341.66 247.35 341.73 246.16 341.81 244.97 C 336.39 245.46 330.90 245.57 325.58 246.80 C 312.70 250.70 300.12 255.71 288.33 262.25 C 278.63 267.04 269.36 272.64 259.68 277.50 C 256.66 278.99 253.86 280.88 250.97 282.59 C 250.04 283.11 249.10 283.60 248.14 284.06 C 248.30 280.61 249.67 277.40 251.68 274.63 C 256.11 268.47 259.97 261.81 265.70 256.71 C 270.50 251.59 276.24 247.53 282.11 243.73 C 286.32 240.68 290.80 238.03 295.23 235.29 C 289.23 227.89 283.52 219.81 275.15 214.89 C 268.18 211.21 260.45 209.28 252.71 208.04 C 254.32 207.92 255.92 207.73 257.53 207.55 C 257.40 205.83 256.10 203.80 257.33 202.27 Z" />
</g>
<g id="#4a683aff">
<path fill="#4a683a" opacity="1.00" d=" M 306.46 205.07 C 313.55 207.29 317.05 214.12 321.65 219.34 C 323.49 221.48 324.75 224.02 325.90 226.58 C 323.27 227.80 320.64 229.03 318.05 230.34 C 317.35 229.50 316.65 228.66 315.96 227.83 C 317.55 226.98 319.07 225.99 320.59 225.01 C 317.03 222.00 312.85 219.92 308.62 218.04 C 307.56 215.32 307.98 212.43 308.37 209.64 C 308.13 209.41 307.64 208.96 307.40 208.73 C 307.05 208.50 306.33 208.03 305.98 207.80 C 306.10 207.12 306.34 205.76 306.46 205.07 Z" />
</g>
<g id="#456237ff">
<path fill="#456237" opacity="1.00" d=" M 431.66 225.64 C 436.22 221.82 442.58 223.11 447.95 223.91 C 448.39 224.37 449.29 225.30 449.74 225.77 C 449.47 227.70 449.57 229.80 448.55 231.53 C 445.09 236.90 439.08 240.62 437.09 246.91 C 439.43 251.05 444.42 252.46 448.29 254.79 C 452.11 257.65 456.04 253.73 459.83 252.82 C 462.77 254.86 462.41 259.55 465.63 261.59 C 469.12 263.61 473.50 265.09 477.40 263.32 C 481.31 260.82 482.97 256.13 486.43 253.16 C 489.28 251.67 492.13 254.11 494.63 255.30 C 501.34 259.24 508.91 261.21 516.25 263.60 C 522.11 266.73 528.39 269.79 535.14 270.09 L 535.96 270.18 C 540.42 271.11 544.66 272.87 549.09 273.93 C 553.07 274.89 557.19 274.73 561.26 274.94 C 568.34 275.36 575.23 277.40 582.35 277.47 C 588.30 277.73 594.27 277.67 600.17 276.77 C 605.19 275.96 610.45 276.02 615.21 274.03 C 615.73 274.11 616.77 274.27 617.29 274.36 C 617.43 276.04 617.57 277.71 617.72 279.40 C 620.74 275.62 624.48 272.33 629.31 271.18 C 636.35 268.83 643.79 267.77 650.50 264.47 C 663.76 259.89 676.66 254.02 690.51 251.37 C 702.11 248.03 714.90 247.23 726.41 251.38 C 729.86 252.45 733.43 253.07 736.86 254.19 C 737.86 254.44 738.61 255.01 739.12 255.91 C 743.58 266.67 745.53 278.26 747.57 289.67 C 751.43 311.67 751.93 334.02 753.44 356.25 C 753.56 371.43 753.51 386.62 753.53 401.80 C 753.27 408.77 753.67 415.79 752.58 422.72 C 745.16 422.27 737.74 421.31 730.56 419.37 C 725.74 417.87 720.88 420.24 716.02 420.14 C 705.02 420.20 694.14 421.95 683.16 422.37 C 683.67 420.65 684.19 418.93 684.73 417.22 C 683.63 415.45 682.53 413.68 681.44 411.92 C 682.30 410.07 683.16 408.22 684.03 406.37 C 681.06 407.20 678.09 408.02 675.14 408.91 C 674.06 411.82 672.30 414.76 668.90 415.17 C 666.16 416.41 663.89 413.48 663.01 411.24 C 662.72 409.03 663.15 406.81 663.34 404.61 C 660.52 408.67 659.47 413.67 656.45 417.60 C 653.79 413.96 651.96 409.79 649.05 406.35 C 650.95 399.71 653.35 393.02 653.14 386.02 C 653.10 377.25 650.12 368.79 650.23 360.02 C 650.23 354.59 651.48 349.24 653.14 344.10 C 657.57 335.92 659.37 326.56 660.13 317.37 C 655.70 319.35 653.06 323.56 650.16 327.23 C 643.50 335.32 641.45 346.21 642.35 356.45 C 643.28 367.76 644.12 379.09 645.30 390.37 C 645.19 394.00 644.46 397.57 643.25 400.99 C 641.07 405.24 640.23 409.97 639.62 414.66 C 635.53 414.32 631.41 413.24 627.30 413.80 C 623.77 415.54 620.84 418.33 617.26 420.02 C 616.07 419.00 614.88 417.99 613.70 416.98 C 613.24 418.65 612.77 420.32 612.33 422.00 C 609.48 420.79 606.79 419.25 604.36 417.34 C 603.39 418.14 602.45 418.96 601.45 419.70 C 599.50 418.45 598.42 416.29 597.13 414.45 C 595.11 416.84 592.78 418.93 590.25 420.75 C 590.27 419.44 590.29 418.12 590.33 416.81 C 586.53 418.85 582.92 421.53 578.65 422.46 C 576.36 422.98 574.47 421.31 572.60 420.33 C 574.32 418.44 576.08 416.58 577.88 414.76 C 577.83 413.98 577.73 412.42 577.68 411.65 C 576.24 412.91 574.85 414.24 573.55 415.65 C 571.09 414.33 568.50 413.30 565.85 412.42 C 566.44 415.16 566.69 418.05 565.25 420.59 C 563.99 419.09 562.76 417.57 561.54 416.05 C 563.51 412.39 565.00 408.38 564.55 404.15 C 561.58 406.13 558.68 408.22 555.74 410.26 C 554.62 408.81 553.41 407.43 552.20 406.06 C 549.16 402.40 545.68 399.17 542.03 396.14 C 538.09 392.09 533.30 389.05 528.11 386.86 C 524.89 385.18 521.89 382.99 518.39 381.91 C 515.18 381.04 511.82 380.96 508.53 380.71 C 508.57 379.12 508.60 377.53 508.64 375.95 C 511.15 374.83 513.70 373.77 516.38 373.09 C 523.32 371.38 528.91 366.66 535.38 363.87 C 539.95 361.99 544.61 360.30 548.90 357.80 C 556.58 353.36 564.91 350.15 572.50 345.54 C 582.22 340.24 592.62 336.12 601.79 329.85 C 609.29 324.15 618.27 320.95 626.16 315.87 C 627.30 315.15 628.44 314.43 629.59 313.71 C 629.65 313.08 629.79 311.84 629.85 311.22 C 617.55 311.36 605.13 314.73 595.33 322.38 C 586.76 328.06 577.89 333.32 569.94 339.89 C 566.54 341.74 563.35 343.95 560.30 346.33 C 556.40 349.43 550.73 349.63 547.71 353.93 C 542.79 357.16 537.19 359.07 531.98 361.73 C 530.37 362.53 528.77 363.35 527.13 364.05 C 517.96 365.64 509.21 369.06 499.94 370.14 C 490.77 371.90 481.49 372.85 472.17 373.23 C 467.20 373.15 462.24 373.86 457.69 375.94 C 448.71 376.21 439.88 378.74 431.94 382.89 C 426.16 385.62 420.42 388.59 415.71 393.01 C 415.13 392.95 413.96 392.84 413.38 392.79 C 414.78 389.27 415.88 385.65 417.07 382.06 C 419.36 379.25 422.68 376.27 421.87 372.23 C 420.47 365.65 414.29 361.33 408.12 359.67 C 410.03 362.54 412.42 365.15 413.80 368.35 C 414.36 370.54 413.50 372.78 412.96 374.90 C 408.46 380.41 405.26 386.79 402.36 393.25 C 399.33 400.08 397.20 407.28 394.11 414.09 C 393.53 415.11 392.62 415.90 391.61 416.48 C 384.46 420.25 377.21 423.86 370.26 428.01 C 367.24 429.33 363.91 429.69 360.75 430.59 C 355.25 431.89 349.31 433.54 343.81 431.36 C 340.19 430.04 336.16 430.03 332.72 428.26 C 329.19 424.79 326.40 420.11 326.47 415.03 C 326.40 409.09 326.29 403.07 327.53 397.24 C 328.22 393.78 330.09 390.61 330.27 387.04 C 330.59 379.94 331.07 372.72 333.15 365.88 C 335.56 359.20 337.08 352.11 341.02 346.09 C 345.11 339.70 349.22 333.33 353.28 326.93 C 358.13 318.81 365.33 312.55 371.81 305.78 C 381.57 295.52 394.09 288.59 404.99 279.70 C 408.04 277.46 411.35 275.60 414.40 273.35 C 417.86 271.21 421.29 268.99 424.31 266.25 C 417.98 262.61 411.47 259.25 404.88 256.10 C 398.60 253.11 391.66 254.86 385.04 254.90 C 382.31 254.94 379.56 255.13 376.96 256.01 C 367.48 259.49 357.78 262.43 348.44 266.25 C 343.68 268.05 342.87 273.49 341.23 277.66 C 340.11 277.68 339.00 277.72 337.89 277.80 C 338.15 277.43 338.68 276.68 338.94 276.31 C 340.39 274.49 340.94 272.22 341.23 269.96 C 336.44 271.03 332.18 273.53 328.17 276.26 C 326.58 277.25 325.11 278.42 323.67 279.61 C 321.96 281.10 320.08 282.48 317.82 282.98 L 317.05 283.20 C 311.23 285.03 305.74 288.37 301.46 292.72 C 300.05 293.65 298.56 294.45 297.04 295.18 C 298.40 287.44 304.15 281.62 308.28 275.23 C 312.02 269.44 317.01 264.58 322.76 260.78 C 328.96 256.59 334.63 251.49 341.59 248.55 C 343.82 247.57 345.72 246.04 347.64 244.57 C 349.90 242.49 353.20 243.14 356.00 242.62 C 359.34 242.48 362.19 240.64 365.08 239.17 C 367.30 238.62 369.59 238.40 371.83 237.93 C 376.01 237.35 379.60 234.27 383.95 234.78 C 388.38 235.09 392.83 235.01 397.26 234.61 C 400.68 234.85 404.12 235.00 407.54 235.31 C 413.01 235.58 417.47 239.21 422.73 240.34 C 425.57 235.38 427.40 229.63 431.66 225.64 M 458.78 270.85 C 454.09 272.47 449.10 272.97 444.41 274.60 C 437.18 277.05 429.57 278.90 423.09 283.09 C 418.12 285.91 413.70 290.02 411.30 295.28 C 407.85 302.02 406.78 309.60 404.59 316.77 C 403.38 321.29 401.56 325.61 400.21 330.08 C 397.87 333.57 395.69 337.49 396.34 341.86 C 398.38 342.01 399.76 340.67 400.90 339.16 C 404.99 334.26 411.21 331.32 414.11 325.43 C 411.48 326.08 408.82 326.58 406.14 326.93 C 407.72 316.15 411.07 305.64 416.11 295.98 C 419.12 290.87 423.37 286.58 428.24 283.22 C 434.15 280.77 440.33 278.93 446.56 277.44 C 452.84 276.74 458.66 274.20 464.71 272.54 C 466.54 272.45 466.52 270.45 467.04 269.14 C 464.22 269.32 461.44 269.90 458.78 270.85 M 429.07 291.11 C 425.02 294.62 421.74 300.14 423.88 305.58 C 425.42 306.25 426.98 307.76 428.76 306.88 C 431.27 305.91 433.92 305.42 436.62 305.71 C 437.43 304.65 438.25 303.59 439.08 302.54 C 440.51 302.80 441.96 302.97 443.42 303.09 C 444.67 300.53 446.15 297.93 446.31 295.01 C 446.45 291.45 445.87 287.05 442.07 285.60 C 437.22 285.87 432.82 288.15 429.07 291.11 Z" />
</g>
<g id="#bfd7b2ff">
<path fill="#bfd7b2" opacity="1.00" d=" M 318.05 230.34 C 324.65 228.88 331.11 226.34 337.95 226.32 C 342.65 226.26 347.36 226.16 352.06 226.38 C 357.16 226.55 361.82 228.81 366.63 230.24 C 369.90 231.23 373.08 232.49 376.14 234.03 C 374.73 235.36 373.33 236.70 371.83 237.93 C 369.59 238.40 367.30 238.62 365.08 239.17 C 360.43 240.07 355.96 242.38 351.11 241.85 C 343.29 241.05 335.35 241.28 327.63 242.78 C 317.46 245.17 308.00 249.73 298.27 253.40 C 292.94 255.41 288.02 258.31 282.97 260.91 C 273.06 265.87 264.15 272.66 253.97 277.10 C 259.55 267.71 266.07 258.42 275.31 252.30 C 281.52 247.70 287.71 243.01 294.74 239.71 C 302.06 235.54 310.13 233.06 318.05 230.34 Z" />
</g>
<g id="#86a981ff">
<path fill="#86a981" opacity="1.00" d=" M 449.74 225.77 C 450.24 228.29 450.44 230.86 450.63 233.43 C 453.68 233.46 456.72 233.65 459.74 234.12 C 466.14 235.13 472.66 235.15 479.07 236.12 C 474.67 240.66 468.95 244.14 465.86 249.78 C 463.96 252.95 465.11 256.57 466.43 259.70 C 466.23 260.17 465.83 261.12 465.63 261.59 C 462.41 259.55 462.77 254.86 459.83 252.82 C 456.04 253.73 452.11 257.65 448.29 254.79 C 444.42 252.46 439.43 251.05 437.09 246.91 C 439.08 240.62 445.09 236.90 448.55 231.53 C 449.57 229.80 449.47 227.70 449.74 225.77 Z" />
<path fill="#86a981" opacity="1.00" d=" M 325.58 246.80 C 330.90 245.57 336.39 245.46 341.81 244.97 C 341.73 246.16 341.66 247.35 341.59 248.55 C 334.63 251.49 328.96 256.59 322.76 260.78 C 317.01 264.58 312.02 269.44 308.28 275.23 C 304.15 281.62 298.40 287.44 297.04 295.18 C 298.56 294.45 300.05 293.65 301.46 292.72 C 307.50 291.03 312.23 286.98 317.05 283.20 L 317.82 282.98 C 323.97 284.35 330.71 285.40 336.65 282.62 C 338.89 281.80 340.27 279.73 341.23 277.66 C 342.87 273.49 343.68 268.05 348.44 266.25 C 357.78 262.43 367.48 259.49 376.96 256.01 C 380.97 255.57 385.95 254.63 388.95 258.08 C 395.35 264.43 400.19 272.12 404.99 279.70 C 394.09 288.59 381.57 295.52 371.81 305.78 C 365.33 312.55 358.13 318.81 353.28 326.93 C 348.81 325.53 344.14 325.97 339.98 328.10 C 328.70 331.30 316.43 333.57 307.15 341.24 C 306.41 340.47 305.67 339.71 304.94 338.95 C 307.03 335.50 308.23 331.62 310.10 328.06 C 311.74 324.87 314.41 322.41 316.77 319.76 C 320.17 317.05 324.55 316.33 328.71 315.58 C 328.63 315.05 328.47 314.01 328.39 313.48 C 323.14 313.19 317.79 313.68 312.93 315.81 C 309.86 317.23 307.07 319.27 304.90 321.88 C 300.79 326.74 297.07 332.16 295.50 338.42 C 294.47 342.68 292.77 346.72 290.86 350.65 C 290.19 352.62 289.81 354.67 289.37 356.71 C 287.34 360.73 282.56 362.48 278.99 364.96 C 270.98 370.32 262.13 374.36 252.93 377.13 C 246.59 377.99 240.33 379.40 233.99 380.20 C 227.17 379.68 219.79 376.84 216.63 370.32 C 214.49 364.59 214.09 358.21 215.38 352.24 C 216.69 345.81 218.46 339.36 221.77 333.65 C 224.82 328.36 227.29 322.76 230.68 317.67 C 235.45 310.45 239.63 302.82 244.98 295.99 C 248.03 291.69 251.60 287.78 254.34 283.27 C 253.50 283.10 251.81 282.76 250.97 282.59 C 253.86 280.88 256.66 278.99 259.68 277.50 C 269.36 272.64 278.63 267.04 288.33 262.25 C 300.12 255.71 312.70 250.70 325.58 246.80 Z" />
</g>
<g id="#839b77ff">
<path fill="#839b77" opacity="1.00" d=" M 485.72 231.80 C 489.56 228.90 494.10 226.75 498.95 226.41 C 501.17 226.53 503.15 227.75 505.08 228.77 C 498.44 227.35 491.79 229.11 485.72 231.80 Z" />
</g>
<g id="#486338ff">
<path fill="#486338" opacity="1.00" d=" M 485.72 231.80 C 491.79 229.11 498.44 227.35 505.08 228.77 C 507.28 230.03 508.81 232.14 510.25 234.19 C 509.35 236.18 508.91 238.64 507.01 239.97 C 501.93 243.47 495.52 243.73 489.99 246.15 C 484.30 248.99 481.97 255.35 477.65 259.64 C 474.50 262.67 470.02 260.57 466.43 259.70 C 465.11 256.57 463.96 252.95 465.86 249.78 C 468.95 244.14 474.67 240.66 479.07 236.12 C 481.21 234.57 483.49 233.21 485.72 231.80 Z" />
</g>
<g id="#adccb7ff">
<path fill="#adccb7" opacity="1.00" d=" M 733.81 241.73 C 735.32 245.07 734.99 248.78 734.66 252.33 C 732.80 249.08 733.80 245.25 733.81 241.73 Z" />
</g>
<g id="#5a7c47ff">
<path fill="#5a7c47" opacity="1.00" d=" M 385.04 254.90 C 391.66 254.86 398.60 253.11 404.88 256.10 C 400.25 255.36 395.56 255.30 390.89 255.33 C 392.90 258.22 395.13 260.94 397.53 263.51 C 401.16 267.37 403.79 271.99 406.88 276.27 C 409.37 275.27 411.90 274.35 414.40 273.35 C 411.35 275.60 408.04 277.46 404.99 279.70 C 400.19 272.12 395.35 264.43 388.95 258.08 C 385.95 254.63 380.97 255.57 376.96 256.01 C 379.56 255.13 382.31 254.94 385.04 254.90 Z" />
</g>
<g id="#bed6b3ff">
<path fill="#bed6b3" opacity="1.00" d=" M 390.89 255.33 C 395.56 255.30 400.25 255.36 404.88 256.10 C 411.47 259.25 417.98 262.61 424.31 266.25 C 421.29 268.99 417.86 271.21 414.40 273.35 C 411.90 274.35 409.37 275.27 406.88 276.27 C 403.79 271.99 401.16 267.37 397.53 263.51 C 395.13 260.94 392.90 258.22 390.89 255.33 Z" />
</g>
<g id="#96ae94ff">
<path fill="#96ae94" opacity="1.00" d=" M 739.12 255.91 C 739.62 256.15 740.63 256.62 741.13 256.85 C 745.55 270.19 747.74 284.07 750.08 297.87 C 751.01 307.25 752.67 316.58 752.75 326.03 C 753.01 331.37 753.93 336.66 753.86 342.03 C 753.78 346.76 754.89 351.63 753.44 356.25 C 751.93 334.02 751.43 311.67 747.57 289.67 C 745.53 278.26 743.58 266.67 739.12 255.91 Z" />
</g>
<g id="#d5e2ccff">
<path fill="#d5e2cc" opacity="1.00" d=" M 214.83 259.66 C 215.79 258.75 216.80 257.89 217.91 257.16 C 219.27 258.83 216.24 261.14 214.83 259.66 Z" />
<path fill="#d5e2cc" opacity="1.00" d=" M 212.77 261.63 C 213.17 260.68 213.86 260.03 214.83 259.66 C 215.17 261.44 214.49 262.10 212.77 261.63 Z" />
<path fill="#d5e2cc" opacity="1.00" d=" M 211.19 263.02 C 211.58 262.67 212.37 261.98 212.77 261.63 L 212.88 262.54 L 212.07 263.25 L 211.19 263.02 Z" />
</g>
<g id="#658461ff">
<path fill="#658461" opacity="1.00" d=" M 516.25 263.60 C 522.95 264.26 529.38 266.66 535.14 270.09 C 528.39 269.79 522.11 266.73 516.25 263.60 Z" />
</g>
<g id="#8daa79ff">
<path fill="#8daa79" opacity="1.00" d=" M 458.78 270.85 C 461.44 269.90 464.22 269.32 467.04 269.14 C 466.52 270.45 466.54 272.45 464.71 272.54 C 458.66 274.20 452.84 276.74 446.56 277.44 C 440.33 278.93 434.15 280.77 428.24 283.22 C 427.86 282.92 427.11 282.32 426.73 282.02 C 425.51 282.36 424.29 282.70 423.09 283.09 C 429.57 278.90 437.18 277.05 444.41 274.60 C 449.10 272.97 454.09 272.47 458.78 270.85 Z" />
</g>
<g id="#8fa67bff">
<path fill="#8fa67b" opacity="1.00" d=" M 328.17 276.26 C 332.18 273.53 336.44 271.03 341.23 269.96 C 340.94 272.22 340.39 274.49 338.94 276.31 C 339.24 274.73 339.46 273.14 339.69 271.56 C 335.92 273.29 332.08 274.86 328.17 276.26 Z" />
</g>
<g id="#678561ff">
<path fill="#678561" opacity="1.00" d=" M 535.96 270.18 C 544.80 269.27 552.66 274.01 561.26 274.94 C 557.19 274.73 553.07 274.89 549.09 273.93 C 544.66 272.87 540.42 271.11 535.96 270.18 Z" />
</g>
<g id="#718862ff">
<path fill="#718862" opacity="1.00" d=" M 615.21 274.03 C 619.61 271.86 624.54 271.70 629.31 271.18 C 624.48 272.33 620.74 275.62 617.72 279.40 C 617.57 277.71 617.43 276.04 617.29 274.36 C 616.77 274.27 615.73 274.11 615.21 274.03 Z" />
</g>
<g id="#f4fbf2ff">
<path fill="#f4fbf2" opacity="1.00" d=" M 328.17 276.26 C 332.08 274.86 335.92 273.29 339.69 271.56 C 339.46 273.14 339.24 274.73 338.94 276.31 C 338.68 276.68 338.15 277.43 337.89 277.80 C 333.42 279.45 328.22 282.71 323.67 279.61 C 325.11 278.42 326.58 277.25 328.17 276.26 Z" />
</g>
<g id="#6b8769ff">
<path fill="#6b8769" opacity="1.00" d=" M 323.67 279.61 C 328.22 282.71 333.42 279.45 337.89 277.80 C 339.00 277.72 340.11 277.68 341.23 277.66 C 340.27 279.73 338.89 281.80 336.65 282.62 C 330.71 285.40 323.97 284.35 317.82 282.98 C 320.08 282.48 321.96 281.10 323.67 279.61 Z" />
</g>
<g id="#bdd6aeff">
<path fill="#bdd6ae" opacity="1.00" d=" M 423.09 283.09 C 424.29 282.70 425.51 282.36 426.73 282.02 C 427.11 282.32 427.86 282.92 428.24 283.22 C 423.37 286.58 419.12 290.87 416.11 295.98 C 411.07 305.64 407.72 316.15 406.14 326.93 C 408.82 326.58 411.48 326.08 414.11 325.43 C 411.21 331.32 404.99 334.26 400.90 339.16 C 400.26 339.05 398.99 338.84 398.35 338.74 C 398.91 335.84 399.46 332.93 400.21 330.08 C 401.56 325.61 403.38 321.29 404.59 316.77 C 406.78 309.60 407.85 302.02 411.30 295.28 C 413.70 290.02 418.12 285.91 423.09 283.09 Z" />
</g>
<g id="#62865dff">
<path fill="#62865d" opacity="1.00" d=" M 301.46 292.72 C 305.74 288.37 311.23 285.03 317.05 283.20 C 312.23 286.98 307.50 291.03 301.46 292.72 Z" />
</g>
<g id="#eaf8e4ff">
<path fill="#eaf8e4" opacity="1.00" d=" M 429.07 291.11 C 432.82 288.15 437.22 285.87 442.07 285.60 C 443.23 288.05 444.68 290.42 445.24 293.10 C 445.25 295.13 444.54 297.06 444.08 299.02 C 443.36 297.36 442.66 295.70 441.86 294.09 C 440.83 291.93 437.98 290.82 435.78 291.82 C 433.09 292.82 430.55 294.46 428.79 296.76 C 427.28 299.03 426.92 301.82 426.27 304.41 C 425.67 304.71 424.48 305.29 423.88 305.58 C 421.74 300.14 425.02 294.62 429.07 291.11 Z" />
</g>
<g id="#94aa7fff">
<path fill="#94aa7f" opacity="1.00" d=" M 442.07 285.60 C 445.87 287.05 446.45 291.45 446.31 295.01 C 446.15 297.93 444.67 300.53 443.42 303.09 C 442.64 300.14 442.22 297.11 441.86 294.09 C 442.66 295.70 443.36 297.36 444.08 299.02 C 444.54 297.06 445.25 295.13 445.24 293.10 C 444.68 290.42 443.23 288.05 442.07 285.60 Z" />
</g>
<g id="#627d59ff">
<path fill="#627d59" opacity="1.00" d=" M 435.78 291.82 C 437.98 290.82 440.83 291.93 441.86 294.09 C 442.22 297.11 442.64 300.14 443.42 303.09 C 441.96 302.97 440.51 302.80 439.08 302.54 C 438.25 303.59 437.43 304.65 436.62 305.71 C 433.92 305.42 431.27 305.91 428.76 306.88 C 426.98 307.76 425.42 306.25 423.88 305.58 C 424.48 305.29 425.67 304.71 426.27 304.41 C 426.92 301.82 427.28 299.03 428.79 296.76 C 430.55 294.46 433.09 292.82 435.78 291.82 Z" />
</g>
<g id="#809b73ff">
<path fill="#809b73" opacity="1.00" d=" M 595.33 322.38 C 605.13 314.73 617.55 311.36 629.85 311.22 C 629.79 311.84 629.65 313.08 629.59 313.71 C 628.44 314.43 627.30 315.15 626.16 315.87 C 626.01 315.13 625.72 313.65 625.58 312.91 C 618.72 313.19 611.73 314.40 605.68 317.77 C 602.36 319.59 598.85 320.99 595.33 322.38 Z" />
</g>
<g id="#c3dbaeff">
<path fill="#c3dbae" opacity="1.00" d=" M 312.93 315.81 C 317.79 313.68 323.14 313.19 328.39 313.48 C 328.47 314.01 328.63 315.05 328.71 315.58 C 324.55 316.33 320.17 317.05 316.77 319.76 C 317.22 318.90 317.65 318.03 318.08 317.15 C 316.36 316.70 314.64 316.25 312.93 315.81 Z" />
</g>
<g id="#bdd5b3ff">
<path fill="#bdd5b3" opacity="1.00" d=" M 605.68 317.77 C 611.73 314.40 618.72 313.19 625.58 312.91 C 625.72 313.65 626.01 315.13 626.16 315.87 C 618.27 320.95 609.29 324.15 601.79 329.85 C 592.62 336.12 582.22 340.24 572.50 345.54 C 564.91 350.15 556.58 353.36 548.90 357.80 C 544.61 360.30 539.95 361.99 535.38 363.87 C 534.24 363.15 533.11 362.44 531.98 361.73 C 537.19 359.07 542.79 357.16 547.71 353.93 C 556.31 351.40 563.52 345.97 569.94 339.89 C 577.89 333.32 586.76 328.06 595.33 322.38 C 598.85 320.99 602.36 319.59 605.68 317.77 Z" />
</g>
<g id="#f1fae9ff">
<path fill="#f1fae9" opacity="1.00" d=" M 304.90 321.88 C 307.07 319.27 309.86 317.23 312.93 315.81 C 314.64 316.25 316.36 316.70 318.08 317.15 C 317.65 318.03 317.22 318.90 316.77 319.76 C 314.41 322.41 311.74 324.87 310.10 328.06 C 308.23 331.62 307.03 335.50 304.94 338.95 C 300.41 343.00 296.77 348.52 290.86 350.65 C 292.77 346.72 294.47 342.68 295.50 338.42 C 297.07 332.16 300.79 326.74 304.90 321.88 Z" />
</g>
<g id="#bed6b2ff">
<path fill="#bed6b2" opacity="1.00" d=" M 650.16 327.23 C 653.06 323.56 655.70 319.35 660.13 317.37 C 659.37 326.56 657.57 335.92 653.14 344.10 C 651.57 346.96 649.76 349.83 649.48 353.16 C 648.81 360.80 649.01 368.61 650.91 376.08 C 652.36 382.20 652.92 388.74 650.88 394.80 C 649.09 400.18 647.29 405.57 646.08 411.12 C 644.73 415.26 643.15 419.30 641.39 423.28 C 639.52 427.37 638.66 432.09 635.32 435.34 C 635.34 428.08 639.29 421.76 640.95 414.87 C 642.16 410.32 642.58 405.63 643.25 400.99 C 644.46 397.57 645.19 394.00 645.30 390.37 C 646.55 381.60 644.49 372.90 644.28 364.14 C 644.03 358.10 643.13 352.05 643.95 346.01 C 644.52 339.35 647.32 333.18 650.16 327.23 Z" />
</g>
<g id="#b5c49bff">
<path fill="#b5c49b" opacity="1.00" d=" M 339.98 328.10 C 344.14 325.97 348.81 325.53 353.28 326.93 C 349.22 333.33 345.11 339.70 341.02 346.09 C 342.37 338.86 348.60 333.85 351.27 327.13 C 347.53 327.66 343.77 328.34 339.98 328.10 Z" />
</g>
<g id="#7b9a7cff">
<path fill="#7b9a7c" opacity="1.00" d=" M 642.35 356.45 C 641.45 346.21 643.50 335.32 650.16 327.23 C 647.32 333.18 644.52 339.35 643.95 346.01 C 643.13 352.05 644.03 358.10 644.28 364.14 C 644.49 372.90 646.55 381.60 645.30 390.37 C 644.12 379.09 643.28 367.76 642.35 356.45 Z" />
</g>
<g id="#6e906bff">
<path fill="#6e906b" opacity="1.00" d=" M 396.34 341.86 C 395.69 337.49 397.87 333.57 400.21 330.08 C 399.46 332.93 398.91 335.84 398.35 338.74 C 398.99 338.84 400.26 339.05 400.90 339.16 C 399.76 340.67 398.38 342.01 396.34 341.86 Z" />
</g>
<g id="#9fbc95ff">
<path fill="#9fbc95" opacity="1.00" d=" M 290.86 350.65 C 296.77 348.52 300.41 343.00 304.94 338.95 C 305.67 339.71 306.41 340.47 307.15 341.24 C 303.82 343.85 300.51 346.52 297.66 349.67 C 295.22 352.36 292.68 355.08 289.37 356.71 C 289.81 354.67 290.19 352.62 290.86 350.65 Z" />
</g>
<g id="#849f77ff">
<path fill="#849f77" opacity="1.00" d=" M 560.30 346.33 C 563.35 343.95 566.54 341.74 569.94 339.89 C 563.52 345.97 556.31 351.40 547.71 353.93 C 550.73 349.63 556.40 349.43 560.30 346.33 Z" />
</g>
<g id="#889f71ff">
<path fill="#889f71" opacity="1.00" d=" M 649.48 353.16 C 649.76 349.83 651.57 346.96 653.14 344.10 C 651.48 349.24 650.23 354.59 650.23 360.02 C 650.12 368.79 653.10 377.25 653.14 386.02 C 653.35 393.02 650.95 399.71 649.05 406.35 C 648.09 407.96 647.03 409.51 646.08 411.12 C 647.29 405.57 649.09 400.18 650.88 394.80 C 652.92 388.74 652.36 382.20 650.91 376.08 C 649.01 368.61 648.81 360.80 649.48 353.16 Z" />
</g>
<g id="#8ea57cff">
<path fill="#8ea57c" opacity="1.00" d=" M 408.12 359.67 C 414.29 361.33 420.47 365.65 421.87 372.23 C 422.68 376.27 419.36 379.25 417.07 382.06 C 418.57 379.26 420.35 376.41 420.66 373.17 C 420.69 369.08 417.34 366.25 414.60 363.69 C 414.84 367.48 415.84 371.80 412.96 374.90 C 413.50 372.78 414.36 370.54 413.80 368.35 C 412.42 365.15 410.03 362.54 408.12 359.67 Z" />
</g>
<g id="#f5fcecff">
<path fill="#f5fcec" opacity="1.00" d=" M 414.60 363.69 C 417.34 366.25 420.69 369.08 420.66 373.17 C 420.35 376.41 418.57 379.26 417.07 382.06 C 414.92 385.10 413.28 388.46 412.05 391.97 C 410.02 397.85 404.84 401.79 399.98 405.29 C 400.56 401.24 401.25 397.19 402.36 393.25 C 405.26 386.79 408.46 380.41 412.96 374.90 C 415.84 371.80 414.84 367.48 414.60 363.69 Z" />
</g>
<g id="#89ab85ff">
<path fill="#89ab85" opacity="1.00" d=" M 499.94 370.14 C 509.21 369.06 517.96 365.64 527.13 364.05 C 520.99 366.66 514.68 369.12 508.00 369.86 C 502.99 370.42 498.02 371.74 493.83 374.63 C 498.74 375.02 503.76 377.43 508.64 375.95 C 508.60 377.53 508.57 379.12 508.53 380.71 C 511.82 380.96 515.18 381.04 518.39 381.91 C 521.89 382.99 524.89 385.18 528.11 386.86 C 523.38 386.77 519.85 382.26 515.15 382.82 C 512.69 384.98 510.51 388.17 511.25 391.60 C 512.67 401.69 511.09 411.89 511.77 422.03 C 512.56 430.22 512.51 438.50 514.28 446.58 C 515.16 456.86 518.23 466.75 520.08 476.86 C 520.71 481.87 521.58 486.89 523.71 491.52 C 524.36 492.98 524.46 494.60 524.31 496.18 C 523.87 501.35 523.56 506.61 521.74 511.52 C 516.36 511.62 510.93 512.08 505.59 511.29 C 503.21 510.87 500.56 509.88 499.44 507.59 C 498.97 504.01 499.57 500.40 499.86 496.84 C 501.96 488.23 498.35 479.86 496.37 471.61 C 493.86 464.74 492.44 457.48 489.17 450.90 C 486.88 445.99 485.50 440.71 483.16 435.82 C 481.48 432.33 479.76 428.86 478.13 425.35 C 472.95 414.79 466.95 404.63 461.95 393.98 C 460.28 388.58 456.70 384.22 452.95 380.12 C 452.23 379.25 451.53 378.37 450.85 377.48 C 444.39 378.72 438.42 381.69 431.94 382.89 C 439.88 378.74 448.71 376.21 457.69 375.94 C 460.02 376.11 462.38 376.65 464.73 376.29 C 467.36 375.69 469.70 374.28 472.17 373.23 C 481.49 372.85 490.77 371.90 499.94 370.14 Z" />
</g>
<g id="#67895bff">
<path fill="#67895b" opacity="1.00" d=" M 457.69 375.94 C 462.24 373.86 467.20 373.15 472.17 373.23 C 469.70 374.28 467.36 375.69 464.73 376.29 C 462.38 376.65 460.02 376.11 457.69 375.94 Z" />
</g>
<g id="#b6d7adff">
<path fill="#b6d7ad" opacity="1.00" d=" M 452.95 380.12 C 456.70 384.22 460.28 388.58 461.95 393.98 C 461.21 394.03 459.73 394.12 458.99 394.17 C 457.82 391.00 456.11 387.95 453.07 386.24 C 452.98 384.20 452.94 382.16 452.95 380.12 Z" />
</g>
<g id="#6c8a60ff">
<path fill="#6c8a60" opacity="1.00" d=" M 412.05 391.97 C 413.28 388.46 414.92 385.10 417.07 382.06 C 415.88 385.65 414.78 389.27 413.38 392.79 C 413.96 392.84 415.13 392.95 415.71 393.01 C 409.61 401.00 402.98 409.06 394.11 414.09 C 397.20 407.28 399.33 400.08 402.36 393.25 C 401.25 397.19 400.56 401.24 399.98 405.29 C 404.84 401.79 410.02 397.85 412.05 391.97 Z" />
</g>
<g id="#8bad87ff">
<path fill="#8bad87" opacity="1.00" d=" M 453.07 386.24 C 456.11 387.95 457.82 391.00 458.99 394.17 C 461.46 400.99 465.30 407.19 468.17 413.84 C 470.32 418.81 474.15 422.98 475.66 428.22 C 475.94 433.55 474.46 438.83 474.68 444.19 C 474.66 444.54 474.63 445.24 474.61 445.59 C 473.85 451.14 474.47 456.77 476.07 462.12 C 478.27 469.44 480.18 476.86 482.74 484.07 C 484.47 489.35 486.47 494.87 485.63 500.52 C 485.35 502.94 482.96 504.21 481.39 505.79 C 482.71 507.77 485.23 509.73 484.48 512.40 C 483.56 514.64 481.18 516.28 478.77 516.46 C 471.98 517.04 465.16 517.04 458.37 517.37 C 455.82 517.54 453.50 516.41 451.34 515.21 C 451.98 512.10 452.63 508.97 453.88 506.04 C 454.85 505.21 455.89 504.47 456.93 503.71 C 456.35 500.06 455.89 496.30 456.82 492.67 C 459.14 482.57 456.70 472.30 456.78 462.12 C 456.82 456.84 455.47 451.71 455.22 446.47 C 455.69 442.58 456.15 438.65 455.70 434.74 C 454.51 423.47 457.81 412.05 455.25 400.89 C 454.14 396.07 453.05 391.21 453.07 386.24 M 466.83 501.90 C 469.79 504.75 473.77 506.01 477.83 505.97 C 477.78 505.33 477.68 504.03 477.63 503.39 C 474.14 502.29 470.51 500.93 466.83 501.90 Z" />
</g>
<g id="#9db07eff">
<path fill="#9db07e" opacity="1.00" d=" M 528.11 386.86 C 533.30 389.05 538.09 392.09 542.03 396.14 C 537.06 393.61 532.22 390.64 528.11 386.86 Z" />
</g>
<g id="#daefdbff">
<path fill="#daefdb" opacity="1.00" d=" M 458.99 394.17 C 459.73 394.12 461.21 394.03 461.95 393.98 C 466.95 404.63 472.95 414.79 478.13 425.35 C 475.83 431.42 477.17 438.17 474.68 444.19 C 474.46 438.83 475.94 433.55 475.66 428.22 C 474.15 422.98 470.32 418.81 468.17 413.84 C 465.30 407.19 461.46 400.99 458.99 394.17 Z" />
</g>
<g id="#c7d3acff">
<path fill="#c7d3ac" opacity="1.00" d=" M 455.25 400.89 C 457.81 412.05 454.51 423.47 455.70 434.74 C 456.15 438.65 455.69 442.58 455.22 446.47 C 453.54 442.86 454.66 438.81 454.34 434.98 C 453.94 428.30 455.35 421.66 454.72 414.99 C 454.31 410.28 454.80 405.57 455.25 400.89 Z" />
</g>
<g id="#4a663bff">
<path fill="#4a663b" opacity="1.00" d=" M 639.62 414.66 C 640.23 409.97 641.07 405.24 643.25 400.99 C 642.58 405.63 642.16 410.32 640.95 414.87 C 639.29 421.76 635.34 428.08 635.32 435.34 C 638.66 432.09 639.52 427.37 641.39 423.28 C 643.15 419.30 644.73 415.26 646.08 411.12 C 647.03 409.51 648.09 407.96 649.05 406.35 C 651.96 409.79 653.79 413.96 656.45 417.60 C 659.47 413.67 660.52 408.67 663.34 404.61 C 663.15 406.81 662.72 409.03 663.01 411.24 C 663.89 413.48 666.16 416.41 668.90 415.17 C 672.30 414.76 674.06 411.82 675.14 408.91 C 678.09 408.02 681.06 407.20 684.03 406.37 C 683.16 408.22 682.30 410.07 681.44 411.92 C 682.53 413.68 683.63 415.45 684.73 417.22 C 684.19 418.93 683.67 420.65 683.16 422.37 C 672.24 426.01 660.39 427.87 651.06 435.12 C 646.29 437.83 643.07 442.39 638.86 445.70 C 636.71 446.03 634.56 446.26 632.41 446.51 C 632.41 449.04 632.41 451.58 632.42 454.12 C 630.76 454.55 629.11 455.00 627.46 455.44 C 626.51 453.37 625.35 451.40 624.03 449.55 C 623.51 452.49 623.12 455.69 624.53 458.47 C 626.05 461.10 628.21 463.27 630.18 465.57 C 627.61 466.27 625.04 466.96 622.46 467.63 C 621.98 468.70 621.51 469.78 621.05 470.86 C 622.74 470.33 624.43 469.81 626.12 469.29 C 627.73 472.28 629.16 475.36 630.38 478.53 C 628.58 476.98 626.81 475.40 625.04 473.83 C 623.90 474.54 622.76 475.27 621.64 476.00 C 622.97 479.00 625.54 480.82 628.82 481.02 C 626.49 485.67 625.02 490.81 621.76 494.93 C 620.94 496.09 619.82 497.20 619.87 498.73 C 622.18 500.26 624.78 501.26 627.36 502.26 C 626.72 503.48 626.09 504.71 625.47 505.94 C 628.03 509.31 629.25 513.39 629.74 517.55 C 628.53 517.26 627.33 516.98 626.13 516.69 C 624.87 518.40 623.61 520.12 622.36 521.83 C 620.35 520.16 618.33 518.51 616.29 516.90 C 614.73 518.49 613.18 520.09 611.67 521.72 C 610.89 517.97 609.79 514.29 609.03 510.53 C 611.23 510.82 613.44 511.14 615.64 511.47 C 615.33 508.28 614.89 505.11 614.26 501.97 C 611.42 501.16 608.73 499.88 606.44 498.01 C 608.90 497.14 611.41 496.39 613.92 495.67 C 612.84 493.89 611.84 492.06 610.57 490.42 C 608.95 488.35 606.37 487.36 604.65 485.43 C 604.29 483.63 606.05 482.17 606.78 480.65 C 606.12 479.95 605.46 479.25 604.82 478.56 C 602.49 481.57 601.08 485.12 599.84 488.68 C 595.69 480.31 591.92 471.75 587.79 463.37 C 586.48 460.48 585.06 457.64 583.33 454.99 C 581.68 452.55 579.84 450.26 578.09 447.91 C 572.20 439.59 567.49 430.53 562.16 421.85 C 560.15 418.57 558.47 415.11 556.66 411.72 C 556.43 411.36 555.97 410.63 555.74 410.26 C 558.68 408.22 561.58 406.13 564.55 404.15 C 565.00 408.38 563.51 412.39 561.54 416.05 C 562.76 417.57 563.99 419.09 565.25 420.59 C 566.69 418.05 566.44 415.16 565.85 412.42 C 568.50 413.30 571.09 414.33 573.55 415.65 C 574.85 414.24 576.24 412.91 577.68 411.65 C 577.73 412.42 577.83 413.98 577.88 414.76 C 576.08 416.58 574.32 418.44 572.60 420.33 C 574.47 421.31 576.36 422.98 578.65 422.46 C 582.92 421.53 586.53 418.85 590.33 416.81 C 590.29 418.12 590.27 419.44 590.25 420.75 C 592.78 418.93 595.11 416.84 597.13 414.45 C 598.42 416.29 599.50 418.45 601.45 419.70 C 602.45 418.96 603.39 418.14 604.36 417.34 C 606.79 419.25 609.48 420.79 612.33 422.00 C 612.77 420.32 613.24 418.65 613.70 416.98 C 614.88 417.99 616.07 419.00 617.26 420.02 C 620.84 418.33 623.77 415.54 627.30 413.80 C 631.41 413.24 635.53 414.32 639.62 414.66 Z" />
</g>
<g id="#bcc7a3ff">
<path fill="#bcc7a3" opacity="1.00" d=" M 753.53 401.80 C 755.41 408.88 754.20 416.44 753.65 423.66 C 746.90 423.65 740.18 422.95 733.54 421.75 C 728.92 421.43 724.28 421.54 719.66 421.50 C 715.22 421.37 711.92 424.76 707.85 425.90 C 688.53 429.84 673.31 443.67 654.95 450.09 C 657.31 447.15 660.98 445.98 664.12 444.11 C 673.64 438.51 683.03 432.61 693.10 428.01 C 697.71 425.82 703.01 425.15 707.16 421.98 C 700.75 421.50 694.39 422.56 688.02 423.02 C 683.04 423.38 678.49 425.61 673.61 426.45 C 665.56 427.78 658.65 432.43 651.06 435.12 C 660.39 427.87 672.24 426.01 683.16 422.37 C 694.14 421.95 705.02 420.20 716.02 420.14 C 720.88 420.24 725.74 417.87 730.56 419.37 C 737.74 421.31 745.16 422.27 752.58 422.72 C 753.67 415.79 753.27 408.77 753.53 401.80 Z" />
</g>
<g id="#4d683dff">
<path fill="#4d683d" opacity="1.00" d=" M 552.20 406.06 C 553.41 407.43 554.62 408.81 555.74 410.26 C 555.97 410.63 556.43 411.36 556.66 411.72 C 556.21 412.12 555.32 412.91 554.87 413.30 C 557.17 428.10 569.36 438.15 576.74 450.39 C 578.29 453.35 580.33 456.00 582.77 458.28 C 582.91 457.45 583.19 455.81 583.33 454.99 C 585.06 457.64 586.48 460.48 587.79 463.37 C 584.77 467.22 584.82 472.25 584.02 476.85 C 583.27 481.28 582.54 485.70 582.03 490.16 C 580.84 497.72 579.94 505.31 578.50 512.83 C 577.32 518.84 577.79 525.01 576.87 531.06 C 575.88 538.09 579.54 544.92 578.17 551.95 C 577.63 555.90 575.45 559.30 573.93 562.90 C 572.73 566.25 571.67 569.75 571.65 573.34 C 571.99 575.37 573.25 577.10 573.90 579.05 C 572.71 583.21 568.55 586.07 564.34 586.48 C 558.57 587.06 552.76 586.89 546.97 587.18 C 544.10 587.06 540.70 587.56 538.37 585.51 C 537.58 583.40 537.68 581.10 537.61 578.89 C 538.82 575.41 542.36 574.09 545.14 572.17 C 549.18 564.11 549.97 554.90 550.50 546.01 C 550.31 531.32 548.10 516.72 548.59 502.01 C 548.70 485.01 548.04 467.98 549.38 451.02 C 549.19 440.24 549.80 429.42 551.87 418.82 C 552.69 414.62 552.47 410.31 552.20 406.06 Z" />
</g>
<g id="#ecf6e0ff">
<path fill="#ecf6e0" opacity="1.00" d=" M 554.87 413.30 C 555.32 412.91 556.21 412.12 556.66 411.72 C 558.47 415.11 560.15 418.57 562.16 421.85 C 567.49 430.53 572.20 439.59 578.09 447.91 C 577.75 448.53 577.08 449.77 576.74 450.39 C 569.36 438.15 557.17 428.10 554.87 413.30 Z" />
</g>
<g id="#b2d2bcff">
<path fill="#b2d2bc" opacity="1.00" d=" M 474.61 445.59 C 476.45 450.89 475.77 456.61 476.07 462.12 C 474.47 456.77 473.85 451.14 474.61 445.59 Z" />
</g>
<g id="#516a41ff">
<path fill="#516a41" opacity="1.00" d=" M 632.41 446.51 C 634.56 446.26 636.71 446.03 638.86 445.70 C 635.21 453.33 631.30 461.31 631.54 470.00 C 631.72 483.29 630.96 496.65 632.94 509.85 C 633.56 521.72 636.62 533.26 639.38 544.77 C 640.15 548.28 641.16 551.90 640.52 555.52 C 639.96 558.89 638.91 562.19 638.71 565.62 C 638.44 569.64 639.25 573.67 638.78 577.68 C 638.51 577.93 637.97 578.42 637.70 578.67 C 633.68 578.55 629.66 578.05 625.63 578.32 C 625.50 579.03 625.24 580.47 625.11 581.19 C 629.05 581.58 632.99 581.16 636.92 580.92 C 639.06 580.56 641.00 582.88 640.32 584.93 C 639.52 587.33 637.87 589.33 636.29 591.25 C 633.24 594.00 628.76 593.26 624.99 593.45 C 617.35 593.15 609.65 594.06 602.07 592.78 C 601.68 590.24 601.03 587.60 601.78 585.07 C 603.13 582.15 606.05 580.50 608.18 578.22 C 609.96 574.69 610.27 570.70 611.00 566.88 C 611.98 561.31 613.80 555.80 613.50 550.08 C 612.94 543.03 613.66 535.80 611.09 529.06 C 608.79 515.24 604.44 501.88 599.84 488.68 C 601.08 485.12 602.49 481.57 604.82 478.56 C 605.46 479.25 606.12 479.95 606.78 480.65 C 606.05 482.17 604.29 483.63 604.65 485.43 C 606.37 487.36 608.95 488.35 610.57 490.42 C 611.84 492.06 612.84 493.89 613.92 495.67 C 611.41 496.39 608.90 497.14 606.44 498.01 C 608.73 499.88 611.42 501.16 614.26 501.97 C 614.89 505.11 615.33 508.28 615.64 511.47 C 613.44 511.14 611.23 510.82 609.03 510.53 C 609.79 514.29 610.89 517.97 611.67 521.72 C 613.18 520.09 614.73 518.49 616.29 516.90 C 618.33 518.51 620.35 520.16 622.36 521.83 C 623.61 520.12 624.87 518.40 626.13 516.69 C 627.33 516.98 628.53 517.26 629.74 517.55 C 629.25 513.39 628.03 509.31 625.47 505.94 C 626.09 504.71 626.72 503.48 627.36 502.26 C 624.78 501.26 622.18 500.26 619.87 498.73 C 619.82 497.20 620.94 496.09 621.76 494.93 C 625.02 490.81 626.49 485.67 628.82 481.02 C 625.54 480.82 622.97 479.00 621.64 476.00 C 622.76 475.27 623.90 474.54 625.04 473.83 C 626.81 475.40 628.58 476.98 630.38 478.53 C 629.16 475.36 627.73 472.28 626.12 469.29 C 624.43 469.81 622.74 470.33 621.05 470.86 C 621.51 469.78 621.98 468.70 622.46 467.63 C 625.04 466.96 627.61 466.27 630.18 465.57 C 628.21 463.27 626.05 461.10 624.53 458.47 C 623.12 455.69 623.51 452.49 624.03 449.55 C 625.35 451.40 626.51 453.37 627.46 455.44 C 629.11 455.00 630.76 454.55 632.42 454.12 C 632.41 451.58 632.41 449.04 632.41 446.51 Z" />
</g>
<g id="#84a376ff">
<path fill="#84a376" opacity="1.00" d=" M 578.09 447.91 C 579.84 450.26 581.68 452.55 583.33 454.99 C 583.19 455.81 582.91 457.45 582.77 458.28 C 580.33 456.00 578.29 453.35 576.74 450.39 C 577.08 449.77 577.75 448.53 578.09 447.91 Z" />
</g>
<g id="#a2b388ff">
<path fill="#a2b388" opacity="1.00" d=" M 584.02 476.85 C 584.82 472.25 584.77 467.22 587.79 463.37 C 591.92 471.75 595.69 480.31 599.84 488.68 C 604.44 501.88 608.79 515.24 611.09 529.06 C 613.66 535.80 612.94 543.03 613.50 550.08 C 613.80 555.80 611.98 561.31 611.00 566.88 C 610.27 570.70 609.96 574.69 608.18 578.22 C 607.97 571.23 610.21 564.57 611.66 557.82 C 613.12 551.19 612.13 544.40 611.25 537.77 C 608.54 519.57 604.17 501.49 596.50 484.70 C 593.58 478.52 591.63 471.71 587.06 466.47 C 584.66 474.22 585.16 482.63 582.03 490.16 C 582.54 485.70 583.27 481.28 584.02 476.85 Z" />
</g>
<g id="#b2cdb3ff">
<path fill="#b2cdb3" opacity="1.00" d=" M 520.08 476.86 C 522.48 481.36 523.83 486.40 523.71 491.52 C 521.58 486.89 520.71 481.87 520.08 476.86 Z" />
</g>
<g id="#afcaabff">
<path fill="#afcaab" opacity="1.00" d=" M 497.79 511.74 C 498.29 506.76 497.66 501.49 499.86 496.84 C 499.57 500.40 498.97 504.01 499.44 507.59 C 500.56 509.88 503.21 510.87 505.59 511.29 C 510.93 512.08 516.36 511.62 521.74 511.52 C 523.50 514.34 526.05 517.72 524.16 521.09 C 523.97 519.16 523.66 517.25 523.42 515.35 C 517.00 514.03 510.39 515.50 504.01 513.98 C 500.41 513.10 496.69 513.38 493.09 514.02 C 494.66 513.27 496.22 512.50 497.79 511.74 Z" />
</g>
<g id="#e3f2d2ff">
<path fill="#e3f2d2" opacity="1.00" d=" M 466.83 501.90 C 470.51 500.93 474.14 502.29 477.63 503.39 C 477.68 504.03 477.78 505.33 477.83 505.97 C 473.77 506.01 469.79 504.75 466.83 501.90 Z" />
</g>
<g id="#c5d8b3ff">
<path fill="#c5d8b3" opacity="1.00" d=" M 450.34 510.15 C 450.62 508.18 452.40 507.09 453.88 506.04 C 452.63 508.97 451.98 512.10 451.34 515.21 C 450.97 513.53 450.52 511.86 450.34 510.15 Z" />
</g>
<g id="#b8d09eff">
<path fill="#b8d09e" opacity="1.00" d=" M 632.94 509.85 C 635.12 514.37 634.67 519.51 635.78 524.30 C 637.05 530.29 638.08 536.34 639.74 542.24 C 640.75 546.66 642.18 551.19 641.54 555.77 C 639.66 565.31 638.09 575.66 641.89 584.92 C 641.08 587.79 638.55 589.56 636.29 591.25 C 637.87 589.33 639.52 587.33 640.32 584.93 C 641.00 582.88 639.06 580.56 636.92 580.92 C 632.99 581.16 629.05 581.58 625.11 581.19 C 625.24 580.47 625.50 579.03 625.63 578.32 C 629.66 578.05 633.68 578.55 637.70 578.67 C 637.97 578.42 638.51 577.93 638.78 577.68 C 639.25 573.67 638.44 569.64 638.71 565.62 C 638.91 562.19 639.96 558.89 640.52 555.52 C 641.16 551.90 640.15 548.28 639.38 544.77 C 636.62 533.26 633.56 521.72 632.94 509.85 Z" />
</g>
<g id="#8eaf8cff">
<path fill="#8eaf8c" opacity="1.00" d=" M 493.09 514.02 C 496.69 513.38 500.41 513.10 504.01 513.98 C 510.39 515.50 517.00 514.03 523.42 515.35 C 523.66 517.25 523.97 519.16 524.16 521.09 C 522.67 524.21 518.70 524.82 515.72 525.82 C 507.89 526.78 499.18 526.33 492.67 521.37 C 490.31 519.56 491.60 516.52 492.11 514.17 L 493.09 514.02 Z" />
</g>
<g id="#9db28cff">
<path fill="#9db28c" opacity="1.00" d=" M 571.65 573.34 C 571.67 569.75 572.73 566.25 573.93 562.90 C 573.71 566.58 573.35 570.25 572.78 573.89 C 573.79 575.33 574.81 576.77 575.84 578.21 C 573.49 583.20 569.09 588.40 563.02 587.93 C 555.42 587.80 547.76 588.68 540.20 587.72 C 535.96 587.04 535.34 581.88 537.61 578.89 C 537.68 581.10 537.58 583.40 538.37 585.51 C 540.70 587.56 544.10 587.06 546.97 587.18 C 552.76 586.89 558.57 587.06 564.34 586.48 C 568.55 586.07 572.71 583.21 573.90 579.05 C 573.25 577.10 571.99 575.37 571.65 573.34 Z" />
</g>
</svg>
