<?xml version="1.0" encoding="UTF-8" ?>
<!DOCTYPE svg PUBLIC "-//W3C//DTD SVG 1.1//EN" "http://www.w3.org/Graphics/SVG/1.1/DTD/svg11.dtd">
<svg width="591pt" height="356pt" viewBox="0 0 591 356" version="1.1" xmlns="http://www.w3.org/2000/svg">
<g id="#fdfef1ff">
</g>
<g id="#5f6c35ff">
<path fill="#5f6c35" opacity="1.00" d=" M 352.63 46.70 C 419.92 46.48 487.21 46.61 554.51 46.54 C 555.95 55.30 555.03 64.19 555.30 73.01 C 555.48 76.64 555.04 80.52 552.45 83.29 C 530.58 110.78 508.30 137.92 486.33 165.32 C 455.11 203.14 424.32 241.30 392.85 278.92 C 388.59 284.08 383.57 288.64 379.91 294.27 C 435.27 294.51 490.64 294.31 546.00 294.36 C 550.31 294.35 554.63 294.21 558.93 294.56 C 559.64 305.31 559.34 316.11 558.52 326.84 L 557.95 327.52 C 483.76 327.74 409.56 327.78 335.37 327.62 C 335.58 316.09 335.21 304.55 335.61 293.03 C 338.30 289.01 341.62 285.43 344.57 281.59 C 352.04 273.63 358.05 264.44 365.38 256.36 C 379.65 238.05 394.90 220.53 409.30 202.32 C 427.97 179.29 446.39 156.05 465.06 133.03 C 478.24 116.60 491.27 100.02 505.58 84.56 C 506.78 83.28 507.92 81.94 509.03 80.57 C 457.37 80.36 405.70 80.58 354.05 80.46 C 351.96 80.78 352.53 78.22 352.42 76.99 C 352.53 66.89 352.32 56.79 352.63 46.70 Z" />
<path fill="#5f6c35" opacity="1.00" d=" M 200.87 98.79 C 237.35 98.33 273.86 98.66 310.36 98.64 C 310.45 104.71 310.74 110.80 310.30 116.86 C 308.21 120.99 304.63 124.12 301.86 127.79 C 277.16 158.42 251.83 188.54 226.97 219.04 C 223.65 223.40 219.73 227.24 216.08 231.31 C 248.28 232.03 280.52 231.10 312.73 231.75 C 312.69 237.67 312.79 243.60 312.69 249.52 C 272.56 249.57 232.44 249.58 192.32 249.50 C 192.21 244.32 192.37 239.13 192.04 233.96 C 191.73 232.05 192.69 230.30 193.77 228.81 C 217.32 199.44 241.40 170.49 265.06 141.19 C 271.19 132.83 278.35 125.32 284.93 117.33 C 266.65 116.27 248.28 116.69 230.01 117.03 C 220.30 116.33 210.57 116.96 200.85 116.65 C 200.58 110.70 200.61 104.74 200.87 98.79 Z" />
<path fill="#5f6c35" opacity="1.00" d=" M 99.78 169.27 C 106.87 169.62 113.91 168.39 121.01 168.68 C 137.06 168.90 153.12 168.42 169.17 168.89 C 169.01 173.42 171.15 178.99 167.55 182.62 C 150.82 202.86 134.44 223.41 117.39 243.39 C 114.94 246.23 112.15 248.85 110.53 252.30 C 130.40 252.73 150.29 252.43 170.17 252.43 C 170.67 256.10 170.59 259.80 170.45 263.49 C 145.21 263.64 119.97 263.45 94.74 263.60 C 92.53 259.08 92.51 252.98 96.17 249.18 C 99.49 245.51 102.71 241.75 105.66 237.77 C 115.67 225.76 125.45 213.55 135.46 201.54 C 141.12 194.43 146.65 187.20 152.95 180.63 C 135.13 180.42 117.32 180.58 99.51 180.52 C 99.37 176.77 99.39 173.01 99.78 169.27 Z" />
<path fill="#5f6c35" opacity="1.00" d=" M 23.80 228.45 C 40.08 228.38 56.35 228.32 72.63 228.42 C 72.39 231.92 73.69 236.13 70.91 238.91 C 57.61 254.82 44.38 270.78 31.08 286.69 C 45.18 286.71 59.30 286.40 73.37 287.28 C 73.61 289.77 73.59 292.27 73.35 294.77 C 55.55 294.52 37.73 294.78 19.93 294.65 C 19.68 290.96 18.94 286.77 21.83 283.87 C 32.16 271.50 42.16 258.85 52.38 246.38 C 55.05 243.25 57.99 240.30 60.00 236.67 C 47.95 236.50 35.88 236.97 23.83 236.52 C 23.64 233.83 23.61 231.14 23.80 228.45 Z" />
</g>
</svg>
