<?xml version="1.0" encoding="UTF-8" ?>
<!DOCTYPE svg PUBLIC "-//W3C//DTD SVG 1.1//EN" "http://www.w3.org/Graphics/SVG/1.1/DTD/svg11.dtd">
<svg width="526pt" height="367pt" viewBox="0 0 526 367" version="1.1" xmlns="http://www.w3.org/2000/svg">
<g id="#fcfeecff">
</g>
<g id="#495825ff">
<path fill="#495825" opacity="1.00" d=" M 27.24 25.30 C 32.85 20.94 40.49 20.58 47.16 22.13 C 55.98 24.35 63.03 30.39 70.03 35.87 C 75.67 40.23 80.52 45.52 86.15 49.91 C 94.50 56.48 102.42 63.60 109.71 71.33 C 120.55 81.13 130.84 91.83 143.61 99.20 C 148.06 101.81 153.31 102.86 157.43 106.06 C 162.01 106.02 166.15 108.15 170.37 109.68 C 184.24 114.75 197.94 120.27 211.68 125.69 C 222.31 128.84 231.66 134.97 241.83 139.22 C 249.62 142.85 257.46 146.49 265.70 149.03 C 286.24 155.28 301.74 171.17 320.91 180.20 C 332.08 185.78 344.64 187.43 356.23 191.88 C 363.80 194.79 371.61 197.25 378.64 201.37 C 384.94 205.15 391.82 207.90 398.98 209.54 C 410.46 211.84 422.08 213.58 433.81 213.69 C 441.35 214.85 448.97 215.68 456.40 217.53 C 463.15 219.14 470.17 218.21 476.99 219.43 C 485.68 219.25 495.50 217.42 501.34 210.34 C 506.34 204.07 507.01 195.70 507.33 188.00 C 506.34 180.05 505.93 171.99 503.93 164.20 C 503.29 161.42 502.67 158.63 502.26 155.80 C 504.89 159.05 505.77 163.22 507.15 167.08 C 511.26 179.68 514.39 193.23 511.61 206.46 C 510.10 216.42 504.09 225.16 496.53 231.58 C 487.87 237.97 477.23 240.95 466.82 243.12 C 451.57 245.18 436.28 241.96 421.00 242.54 C 401.64 243.34 382.19 245.50 363.57 251.09 C 357.86 252.84 351.84 252.55 345.96 252.72 C 340.88 252.55 336.00 254.42 331.47 256.53 C 329.04 257.70 328.89 260.69 328.51 263.02 C 327.29 272.50 326.35 282.64 330.30 291.65 C 334.78 303.41 346.63 311.31 348.56 324.22 C 348.68 328.42 349.55 333.16 347.03 336.87 C 345.39 339.56 342.00 340.40 339.05 340.42 C 334.02 340.38 328.91 340.90 323.95 339.77 C 324.79 333.15 332.38 329.12 331.66 322.10 C 330.58 316.60 327.21 311.65 322.85 308.17 C 315.23 301.87 306.82 296.43 300.42 288.78 C 302.46 295.37 300.35 302.41 302.25 309.05 C 303.46 316.28 306.91 323.73 305.06 331.06 C 300.47 332.37 295.30 330.49 290.58 331.99 C 286.20 332.71 281.12 336.21 277.06 332.84 C 275.19 331.73 275.54 329.40 275.40 327.57 C 278.36 324.83 281.95 322.75 284.52 319.60 C 286.16 317.88 285.43 315.28 285.50 313.14 C 283.94 300.19 277.69 288.34 270.13 277.90 C 268.42 275.67 266.95 273.12 264.58 271.52 C 259.33 271.31 254.09 270.88 248.91 269.92 C 243.20 277.30 240.71 286.83 240.52 296.03 C 241.22 303.93 250.78 306.07 253.06 313.13 C 254.45 317.20 251.90 321.33 249.41 324.40 C 246.06 327.95 241.55 331.62 236.31 330.45 C 234.65 330.50 234.19 328.75 233.72 327.52 C 233.02 324.19 235.21 320.64 233.34 317.52 C 231.09 311.81 226.48 307.52 223.83 302.05 C 219.96 291.64 221.60 280.36 223.00 269.65 C 223.69 265.72 224.90 261.89 225.61 257.96 C 224.04 255.27 221.47 253.28 218.96 251.52 C 216.73 250.86 215.36 253.35 214.68 255.06 C 213.94 262.19 214.67 269.39 214.12 276.53 C 213.59 282.74 210.16 288.12 208.85 294.12 C 207.23 305.42 209.76 316.74 209.44 328.06 C 209.49 332.45 207.64 337.33 203.44 339.27 C 197.87 341.06 191.95 339.65 186.23 340.33 C 185.15 335.54 189.39 331.88 190.64 327.55 C 194.43 318.13 193.44 307.85 193.50 297.94 C 193.45 295.27 193.16 292.61 192.70 289.99 C 191.48 282.67 193.21 275.20 191.75 267.91 C 190.06 245.32 178.07 225.34 173.38 203.45 C 169.83 188.97 162.54 175.48 152.66 164.34 C 149.04 159.59 145.14 155.05 141.45 150.35 C 138.39 145.87 135.49 141.23 131.61 137.39 C 120.31 124.51 111.95 109.33 100.40 96.66 C 96.86 92.21 93.00 88.01 88.58 84.44 C 81.34 78.72 74.57 72.45 67.72 66.28 C 62.37 61.22 56.72 56.16 49.74 53.49 C 45.04 51.71 39.16 51.81 35.40 55.55 C 31.46 58.29 30.35 63.29 26.94 66.51 C 26.46 62.90 27.37 58.96 25.43 55.67 C 25.36 60.60 25.76 66.31 22.34 70.29 C 19.63 70.87 16.10 71.28 14.13 68.86 C 10.12 63.86 10.24 57.05 10.78 51.00 C 11.69 45.47 12.92 39.74 16.12 35.05 C 19.40 31.36 23.43 28.41 27.24 25.30 M 21.85 47.90 C 25.65 48.32 28.05 44.69 28.45 41.33 C 24.80 40.39 20.86 44.64 21.85 47.90 Z" />
</g>
</svg>
