<?xml version="1.0" encoding="UTF-8" ?>
<!DOCTYPE svg PUBLIC "-//W3C//DTD SVG 1.1//EN" "http://www.w3.org/Graphics/SVG/1.1/DTD/svg11.dtd">
<svg width="573pt" height="412pt" viewBox="0 0 573 412" version="1.1" xmlns="http://www.w3.org/2000/svg">
<g id="#fdfef6ff">
<path fill="#fdfef6" opacity="1.00" d=" M 105.79 21.73 C 106.55 17.77 110.34 15.36 114.04 14.56 C 119.83 16.40 122.58 22.36 126.43 26.57 C 129.05 29.81 132.66 32.13 136.65 33.32 C 147.52 36.76 158.90 38.07 170.09 40.06 C 184.53 41.85 200.30 38.96 213.51 46.46 C 222.33 51.56 224.86 62.41 224.74 71.91 C 216.18 71.09 207.85 68.80 199.32 67.79 C 184.78 65.05 170.01 63.93 155.43 61.49 C 150.22 60.37 144.79 59.55 140.04 57.00 C 134.93 54.10 135.86 46.20 130.34 43.77 C 123.92 41.34 116.75 42.70 110.58 45.23 C 110.00 45.08 108.85 44.78 108.28 44.62 C 106.61 37.15 104.43 29.43 105.79 21.73 Z" />
<path fill="#fdfef6" opacity="1.00" d=" M 99.18 162.17 C 104.53 152.46 103.90 139.91 112.18 131.74 C 114.22 131.76 116.20 132.31 118.16 132.83 C 127.66 135.57 136.99 138.95 146.63 141.20 C 156.75 143.21 164.56 150.71 174.42 153.46 C 186.31 156.98 198.41 160.31 210.78 161.53 C 211.93 162.04 213.04 162.63 214.10 163.32 C 215.25 167.11 212.01 170.18 209.50 172.51 C 203.16 177.64 195.46 182.20 187.00 181.74 C 178.22 181.96 170.38 177.14 161.73 176.47 C 155.63 176.03 149.50 175.34 143.70 173.33 C 136.36 171.04 128.85 167.53 120.98 168.88 C 114.92 170.00 112.24 176.65 106.53 178.53 C 101.29 180.21 95.23 182.69 89.89 180.14 C 87.35 179.31 88.44 176.21 89.27 174.45 C 92.02 169.93 96.73 166.94 99.18 162.17 Z" />
</g>
<g id="#6e7f67ff">
<path fill="#6e7f67" opacity="1.00" d=" M 103.20 21.05 C 104.16 14.96 110.95 10.56 116.86 11.96 C 121.88 14.47 124.54 19.80 128.07 23.92 C 132.77 30.05 140.83 31.69 148.00 33.00 C 159.27 34.91 170.50 37.81 182.02 37.60 C 192.35 37.68 203.11 37.98 212.67 42.33 C 218.04 44.62 221.98 49.34 224.39 54.54 C 227.20 60.35 227.48 66.95 227.51 73.28 C 230.34 73.91 233.25 74.60 235.55 76.48 C 235.09 76.54 234.16 76.65 233.69 76.71 C 220.95 72.88 207.77 70.75 194.62 68.88 C 196.19 68.54 197.75 68.13 199.32 67.79 C 207.85 68.80 216.18 71.09 224.74 71.91 C 224.86 62.41 222.33 51.56 213.51 46.46 C 200.30 38.96 184.53 41.85 170.09 40.06 C 158.90 38.07 147.52 36.76 136.65 33.32 C 132.66 32.13 129.05 29.81 126.43 26.57 C 122.58 22.36 119.83 16.40 114.04 14.56 C 110.34 15.36 106.55 17.77 105.79 21.73 C 104.43 29.43 106.61 37.15 108.28 44.62 C 108.85 44.78 110.00 45.08 110.58 45.23 C 111.28 45.41 112.68 45.77 113.38 45.95 C 106.88 48.56 100.19 50.78 93.27 51.96 C 91.71 51.75 90.15 51.47 88.59 51.26 C 94.15 49.93 99.95 49.33 105.17 46.87 C 105.92 45.44 105.04 43.84 104.91 42.37 C 103.49 35.39 101.78 28.16 103.20 21.05 Z" />
<path fill="#6e7f67" opacity="1.00" d=" M 293.22 86.30 C 296.08 86.26 298.97 86.02 301.81 86.53 C 304.43 87.22 306.59 88.97 308.87 90.37 C 309.09 92.29 309.29 94.22 309.46 96.15 C 313.90 97.19 318.30 98.42 322.81 99.14 C 320.78 99.43 318.77 99.86 316.75 100.17 C 306.41 99.07 295.92 97.95 286.27 93.78 C 285.86 93.37 285.04 92.53 284.63 92.11 C 286.57 92.43 288.53 92.68 290.49 92.97 C 290.98 93.04 291.97 93.18 292.47 93.26 C 292.70 90.94 292.96 88.62 293.22 86.30 Z" />
<path fill="#6e7f67" opacity="1.00" d=" M 503.99 150.99 C 505.97 147.70 510.23 148.04 513.52 148.43 C 517.25 151.45 517.11 157.48 513.55 160.58 C 511.63 163.21 508.13 162.49 505.32 162.70 C 502.32 159.60 501.11 154.58 503.99 150.99 Z" />
<path fill="#6e7f67" opacity="1.00" d=" M 262.90 159.59 C 264.29 159.44 265.67 159.23 267.06 159.09 C 279.87 164.06 293.27 167.62 307.06 168.15 C 307.19 168.56 307.45 169.38 307.58 169.79 C 307.19 170.10 306.41 170.74 306.02 171.06 C 290.86 171.60 276.25 166.34 262.90 159.59 Z" />
<path fill="#6e7f67" opacity="1.00" d=" M 91.33 167.32 C 93.65 165.13 95.50 162.50 97.17 159.79 C 97.84 160.59 98.51 161.38 99.18 162.17 C 96.73 166.94 92.02 169.93 89.27 174.45 C 88.44 176.21 87.35 179.31 89.89 180.14 C 95.23 182.69 101.29 180.21 106.53 178.53 C 112.24 176.65 114.92 170.00 120.98 168.88 C 128.85 167.53 136.36 171.04 143.70 173.33 C 149.50 175.34 155.63 176.03 161.73 176.47 C 170.38 177.14 178.22 181.96 187.00 181.74 C 195.46 182.20 203.16 177.64 209.50 172.51 C 212.01 170.18 215.25 167.11 214.10 163.32 C 213.04 162.63 211.93 162.04 210.78 161.53 C 212.28 161.35 213.78 161.10 215.29 160.92 C 218.48 161.38 221.65 161.97 224.80 162.65 C 226.63 163.09 228.45 163.62 230.28 164.08 C 225.98 164.74 221.73 163.60 217.46 163.24 C 216.81 167.07 215.89 171.15 212.77 173.77 C 205.65 179.94 196.74 185.21 187.00 184.72 C 180.13 185.15 173.77 182.32 167.27 180.64 C 160.20 178.60 152.66 179.49 145.61 177.28 C 137.82 175.47 130.40 170.49 122.13 171.90 C 117.49 172.57 115.02 176.90 111.47 179.41 C 106.54 182.47 100.72 183.77 94.98 184.19 C 92.04 184.35 88.55 183.89 86.74 181.26 C 85.13 179.55 85.78 177.04 86.14 174.98 C 86.48 171.69 89.22 169.56 91.33 167.32 Z" />
<path fill="#6e7f67" opacity="1.00" d=" M 269.30 168.41 C 271.64 165.68 275.63 166.43 278.66 167.33 C 282.83 168.73 287.03 170.13 291.02 172.00 C 291.51 173.16 291.76 174.39 292.08 175.61 C 286.75 178.01 280.61 177.62 275.20 175.69 C 272.38 174.32 268.91 171.99 269.30 168.41 Z" />
<path fill="#6e7f67" opacity="1.00" d=" M 473.40 167.50 C 475.91 166.61 477.83 169.02 479.42 170.58 C 481.04 171.96 481.19 174.31 480.31 176.16 C 477.33 179.41 472.63 180.36 468.41 179.58 C 467.07 178.75 466.16 177.37 465.54 175.97 C 465.45 171.66 469.67 168.65 473.40 167.50 Z" />
<path fill="#6e7f67" opacity="1.00" d=" M 507.40 178.23 C 510.92 176.22 515.32 178.97 517.11 182.16 C 518.43 185.50 515.86 188.55 514.37 191.35 C 513.28 193.86 509.67 193.97 508.11 191.87 C 504.37 188.58 502.02 181.15 507.40 178.23 Z" />
<path fill="#6e7f67" opacity="1.00" d=" M 543.37 201.36 C 547.20 199.20 550.09 203.01 552.46 205.51 C 554.23 207.28 555.46 210.30 553.53 212.44 C 550.42 215.94 545.48 217.15 540.96 217.27 C 537.36 217.49 534.22 214.39 533.57 211.02 C 534.11 205.97 538.80 202.62 543.37 201.36 Z" />
<path fill="#6e7f67" opacity="1.00" d=" M 510.87 211.13 C 508.84 208.34 511.77 204.62 515.02 205.29 C 519.95 204.41 525.90 207.93 525.77 213.31 C 520.84 213.44 514.92 214.66 510.87 211.13 Z" />
<path fill="#6e7f67" opacity="1.00" d=" M 482.37 221.21 C 486.42 219.06 491.59 221.31 493.75 225.11 C 495.57 228.39 494.98 233.47 491.19 235.06 C 487.16 236.59 481.50 235.87 479.29 231.73 C 477.52 228.11 478.63 223.15 482.37 221.21 Z" />
<path fill="#6e7f67" opacity="1.00" d=" M 512.45 227.52 C 514.65 227.00 517.32 227.24 518.59 229.38 C 521.02 233.33 520.81 238.41 519.93 242.78 C 519.35 245.18 516.34 246.17 514.36 244.79 C 510.20 242.79 509.12 237.87 507.87 233.86 C 506.98 230.85 509.53 227.96 512.45 227.52 Z" />
<path fill="#6e7f67" opacity="1.00" d=" M 536.36 235.26 C 537.77 234.58 539.38 234.31 540.89 234.88 C 545.87 236.29 551.33 238.11 554.48 242.51 C 555.94 244.45 555.13 247.12 553.81 248.87 C 550.13 252.45 544.57 251.61 539.95 251.13 C 537.20 250.56 533.78 250.71 531.96 248.17 C 530.33 243.66 530.75 236.75 536.36 235.26 Z" />
<path fill="#6e7f67" opacity="1.00" d=" M 414.86 255.86 C 421.12 241.37 439.69 233.67 454.28 239.81 C 461.13 242.79 464.80 250.24 465.56 257.35 C 465.95 263.97 465.65 270.89 462.84 277.00 C 459.66 283.45 453.75 287.82 447.91 291.69 C 453.90 291.65 459.98 291.92 465.70 293.86 C 472.32 296.01 479.19 297.95 484.94 302.05 C 489.85 305.56 495.19 308.87 498.61 313.99 C 500.37 316.62 502.15 319.25 504.20 321.67 C 508.47 326.90 510.65 333.47 512.34 339.92 C 515.74 351.92 512.96 365.46 505.10 375.15 C 497.14 384.31 486.11 390.54 474.46 393.67 C 468.71 395.28 463.06 397.69 456.99 397.65 C 441.62 398.46 426.01 392.73 414.76 382.25 C 409.90 377.38 404.80 372.54 401.55 366.39 C 397.74 360.11 395.14 353.16 393.76 345.95 C 392.97 342.40 392.04 338.73 392.75 335.08 C 393.73 329.66 394.47 324.04 397.07 319.10 C 402.21 309.75 410.69 302.28 420.90 298.97 C 424.84 297.36 428.83 295.83 432.96 294.78 C 424.70 294.55 416.32 289.06 414.16 280.84 C 411.80 272.75 411.53 263.72 414.86 255.86 Z" />
<path fill="#6e7f67" opacity="1.00" d=" M 479.37 245.31 C 482.45 244.69 485.97 245.49 488.10 247.91 C 492.64 252.15 491.42 261.55 484.96 263.20 C 480.00 264.14 474.32 260.88 473.18 255.81 C 471.48 251.40 474.66 245.94 479.37 245.31 Z" />
<path fill="#6e7f67" opacity="1.00" d=" M 511.07 270.89 C 504.85 269.90 505.59 259.60 511.15 258.00 C 517.17 256.13 522.65 260.55 527.53 263.47 C 527.54 265.20 527.55 266.94 527.56 268.67 C 523.03 272.74 516.57 271.85 511.07 270.89 Z" />
<path fill="#6e7f67" opacity="1.00" d=" M 528.42 272.33 C 531.02 270.91 534.18 271.21 537.03 271.48 C 543.56 272.80 548.09 278.57 550.40 284.48 C 551.00 287.72 551.67 292.21 548.14 294.03 C 540.94 296.08 532.82 293.71 527.32 288.70 C 524.61 286.23 522.67 282.74 522.60 279.03 C 523.38 276.07 525.88 273.86 528.42 272.33 Z" />
<path fill="#6e7f67" opacity="1.00" d=" M 524.48 307.81 C 529.31 306.05 535.05 306.63 539.11 309.91 C 543.17 313.72 542.90 319.81 542.49 324.91 C 541.45 332.20 534.77 337.37 527.95 338.99 C 522.19 340.78 515.05 337.57 513.26 331.66 C 511.76 327.14 512.12 322.18 513.36 317.66 C 514.79 312.52 519.64 309.31 524.48 307.81 Z" />
</g>
<g id="#84947cff">
<path fill="#84947c" opacity="1.00" d=" M 110.58 45.23 C 116.75 42.70 123.92 41.34 130.34 43.77 C 135.86 46.20 134.93 54.10 140.04 57.00 C 144.79 59.55 150.22 60.37 155.43 61.49 C 170.01 63.93 184.78 65.05 199.32 67.79 C 197.75 68.13 196.19 68.54 194.62 68.88 C 186.65 68.65 178.90 66.58 170.98 65.86 C 162.59 65.11 154.24 63.76 146.05 61.79 C 142.11 60.78 137.72 59.30 135.66 55.48 C 133.52 52.28 132.75 47.91 129.36 45.72 C 124.25 43.59 118.61 45.13 113.38 45.95 C 112.68 45.77 111.28 45.41 110.58 45.23 Z" />
<path fill="#84947c" opacity="1.00" d=" M 69.00 52.72 C 75.53 52.20 82.03 50.91 88.59 51.26 C 90.15 51.47 91.71 51.75 93.27 51.96 C 87.97 53.13 82.56 53.69 77.16 54.07 C 65.62 54.93 53.91 56.98 43.57 62.39 C 38.09 65.06 32.17 68.51 29.82 74.46 C 28.02 82.11 32.11 89.51 36.71 95.33 C 41.58 101.68 46.06 108.58 52.64 113.34 C 59.73 118.43 67.44 122.56 74.84 127.16 C 80.93 130.93 85.60 136.48 91.36 140.67 C 94.55 142.86 98.98 144.98 102.71 142.83 C 105.32 140.12 106.20 136.27 108.25 133.17 C 109.43 131.27 111.27 129.05 113.80 129.62 C 124.71 131.46 134.74 136.61 145.63 138.59 C 158.15 140.90 167.64 150.85 180.29 152.82 C 178.67 150.60 173.99 147.32 177.77 144.87 C 181.41 143.68 185.74 143.92 189.02 146.01 C 191.25 147.30 191.35 150.11 191.94 152.33 C 189.12 152.46 186.31 152.57 183.50 152.77 C 187.18 154.72 191.17 156.05 195.27 156.76 C 201.99 157.93 208.62 159.49 215.29 160.92 C 213.78 161.10 212.28 161.35 210.78 161.53 C 198.41 160.31 186.31 156.98 174.42 153.46 C 164.56 150.71 156.75 143.21 146.63 141.20 C 136.99 138.95 127.66 135.57 118.16 132.83 C 116.20 132.31 114.22 131.76 112.18 131.74 C 103.90 139.91 104.53 152.46 99.18 162.17 C 98.51 161.38 97.84 160.59 97.17 159.79 C 98.72 155.39 100.32 150.97 101.00 146.32 C 97.34 145.58 93.53 144.78 90.47 142.50 C 85.24 138.79 81.02 133.83 75.64 130.30 C 64.17 122.68 50.55 117.22 42.28 105.68 C 36.02 97.76 28.18 89.73 27.77 79.01 C 26.92 73.61 30.40 68.67 34.35 65.38 C 44.53 58.18 56.62 53.94 69.00 52.72 Z" />
<path fill="#84947c" opacity="1.00" d=" M 235.55 76.48 C 237.82 76.09 239.88 77.46 241.94 78.20 C 251.89 82.84 261.96 87.92 272.98 89.34 C 280.01 90.34 286.31 86.40 293.08 85.44 C 297.89 85.12 302.93 84.89 307.50 86.67 C 314.04 89.16 320.18 92.51 326.48 95.53 C 339.44 101.59 354.08 100.82 368.00 101.97 C 382.17 103.48 396.50 103.39 410.58 105.74 C 416.15 107.16 422.29 108.28 426.53 112.47 C 429.49 115.24 432.26 118.40 436.04 120.07 C 440.69 117.10 442.13 110.59 447.39 108.36 C 451.09 106.78 454.70 111.73 452.95 115.01 C 451.87 117.68 450.39 120.16 449.00 122.67 C 454.77 121.83 461.02 119.85 466.67 122.24 C 469.39 123.69 468.30 127.84 465.65 128.75 C 460.41 130.52 454.17 129.19 449.65 132.98 C 451.40 135.72 453.45 138.24 455.60 140.67 C 457.13 139.85 458.54 138.25 460.43 138.51 C 462.48 138.85 464.14 140.24 465.90 141.26 C 465.00 144.08 464.95 147.74 462.65 149.74 C 458.48 150.48 456.70 146.18 455.25 143.15 C 453.52 143.56 451.83 144.29 450.04 144.23 C 444.13 142.75 439.72 138.23 434.29 135.76 C 431.46 134.42 428.35 135.59 425.68 136.72 C 416.78 140.58 407.92 144.57 399.53 149.47 C 393.36 153.07 386.41 154.89 379.89 157.68 C 383.99 158.49 388.16 158.89 392.26 159.68 C 395.70 160.32 399.32 161.07 402.76 159.96 C 406.49 158.85 410.22 157.75 414.07 157.12 C 417.43 156.80 419.41 153.82 421.69 151.71 C 425.11 148.44 428.44 144.91 432.59 142.55 C 435.57 140.80 440.14 140.62 442.17 143.89 C 443.31 146.87 442.75 150.41 440.95 153.02 C 435.53 160.79 428.83 167.90 420.36 172.35 C 409.11 178.15 396.77 182.28 384.03 182.59 C 375.02 182.68 366.00 182.68 357.01 183.32 C 343.89 183.64 332.76 175.91 320.62 172.31 C 317.30 171.01 313.90 172.56 310.84 173.80 C 304.39 176.53 299.06 181.77 292.02 183.07 C 283.14 183.86 273.68 182.08 266.61 176.35 C 260.62 171.91 257.88 164.76 254.76 158.27 C 253.74 155.64 250.85 154.09 248.09 154.80 C 241.50 156.54 236.50 161.58 230.28 164.08 C 228.45 163.62 226.63 163.09 224.80 162.65 C 228.54 162.65 232.22 161.51 235.17 159.18 C 239.95 155.77 245.55 151.57 251.78 153.11 C 256.97 154.82 262.00 157.00 267.06 159.09 C 265.67 159.23 264.29 159.44 262.90 159.59 C 261.08 158.99 259.24 158.40 257.41 157.83 C 260.04 166.32 265.24 174.88 273.93 178.14 C 280.25 180.49 287.47 182.72 294.07 180.16 C 299.84 177.83 305.19 174.56 310.23 170.94 C 308.82 170.98 307.42 171.02 306.02 171.06 C 306.41 170.74 307.19 170.10 307.58 169.79 C 307.45 169.38 307.19 168.56 307.06 168.15 C 315.85 168.62 324.60 170.61 332.52 174.52 C 340.43 178.45 349.01 181.60 357.99 181.29 C 367.31 180.82 376.65 180.70 385.98 180.24 C 397.68 179.64 409.09 176.00 419.42 170.56 C 425.85 167.27 430.99 162.05 435.73 156.70 C 438.16 153.84 440.47 150.67 441.35 146.96 C 440.72 144.57 438.13 142.40 435.62 143.57 C 430.39 145.54 426.59 149.88 422.81 153.79 C 415.40 162.30 404.26 167.57 392.95 167.57 C 383.88 167.76 374.81 167.64 365.75 167.44 C 358.43 167.29 350.97 167.99 343.81 166.15 C 336.34 164.19 329.03 160.78 323.64 155.12 C 327.08 156.33 330.23 158.79 333.92 159.04 C 344.07 156.30 354.67 158.05 365.00 158.48 C 371.90 158.87 378.26 155.80 384.62 153.62 C 391.49 151.27 397.89 147.83 404.22 144.31 C 410.65 140.64 417.70 138.29 424.26 134.88 C 413.17 132.53 402.94 138.29 392.85 141.88 C 386.32 144.16 380.33 147.88 373.55 149.46 C 364.05 151.59 354.08 152.94 344.48 150.59 C 335.90 149.45 327.87 145.31 321.63 139.40 C 316.28 132.92 321.31 121.88 329.68 121.53 C 337.23 121.46 344.64 123.79 351.67 126.40 C 357.12 128.82 363.07 129.81 369.01 129.88 C 381.75 130.03 394.31 132.64 407.06 132.63 C 420.64 133.87 434.38 132.98 447.66 129.86 C 454.15 128.11 461.31 128.60 467.23 125.04 C 464.73 123.81 462.05 122.44 459.17 122.98 C 450.37 124.02 441.47 128.35 432.60 125.25 C 434.16 124.79 435.74 124.34 437.32 123.90 C 430.10 119.82 425.34 112.03 417.10 109.77 C 403.58 105.88 389.40 105.74 375.48 104.62 C 368.46 104.07 361.43 103.80 354.41 103.37 C 347.22 102.98 340.12 100.97 332.90 101.76 C 327.44 102.42 322.04 101.41 316.75 100.17 C 318.77 99.86 320.78 99.43 322.81 99.14 C 325.22 99.32 327.62 99.52 330.03 99.71 C 322.91 96.75 316.34 92.47 308.87 90.37 C 306.59 88.97 304.43 87.22 301.81 86.53 C 298.97 86.02 296.08 86.26 293.22 86.30 C 292.96 88.62 292.70 90.94 292.47 93.26 C 291.97 93.18 290.98 93.04 290.49 92.97 C 290.67 91.49 290.84 90.00 291.02 88.51 C 288.18 89.15 285.35 89.85 282.54 90.60 C 283.06 90.98 284.10 91.73 284.63 92.11 C 285.04 92.53 285.86 93.37 286.27 93.78 C 279.26 90.28 271.23 92.34 263.98 89.87 C 253.40 86.68 243.72 81.24 233.69 76.71 C 234.16 76.65 235.09 76.54 235.55 76.48 M 447.46 110.44 C 443.42 113.44 441.03 118.05 438.24 122.13 C 439.61 122.86 440.92 124.83 442.65 123.84 C 446.69 122.17 450.08 118.72 451.42 114.54 C 452.37 112.23 449.96 108.72 447.46 110.44 M 326.49 124.63 C 321.39 127.00 319.23 135.17 324.14 138.85 C 327.88 141.58 331.79 144.22 336.07 146.06 C 344.08 148.63 352.55 150.54 361.02 149.47 C 369.48 148.51 378.00 146.60 385.56 142.55 C 391.35 139.92 397.46 138.06 403.25 135.41 C 399.26 134.80 395.24 134.42 391.28 133.66 C 379.08 130.97 366.22 133.63 354.22 129.80 C 345.47 126.34 336.03 122.76 326.49 124.63 M 437.48 134.06 C 441.83 137.99 446.94 142.35 453.19 142.03 C 451.48 138.72 449.57 135.42 446.88 132.80 C 443.70 132.67 440.57 133.42 437.48 134.06 Z" />
<path fill="#84947c" opacity="1.00" d=" M 259.40 113.40 C 262.10 107.21 265.89 101.51 270.84 96.90 C 267.38 105.33 262.23 113.07 259.83 121.93 C 257.33 129.87 256.93 138.28 254.60 146.25 C 254.18 135.20 254.11 123.44 259.40 113.40 Z" />
<path fill="#84947c" opacity="1.00" d=" M 274.96 96.89 C 275.44 97.29 275.92 97.69 276.42 98.08 C 275.32 105.22 272.15 113.52 276.95 120.01 C 281.44 124.07 287.24 126.48 293.03 128.08 C 287.58 129.58 282.32 124.56 277.06 127.12 C 272.87 128.91 269.34 132.03 266.80 135.79 C 263.26 140.51 262.02 146.50 258.48 151.22 C 259.22 145.64 261.71 140.57 263.37 135.24 C 265.92 126.96 269.14 118.90 271.59 110.58 C 272.99 106.09 274.92 101.67 274.96 96.89 Z" />
<path fill="#84947c" opacity="1.00" d=" M 337.77 112.25 C 355.82 113.44 373.97 111.92 391.98 113.86 C 399.81 114.54 407.93 114.61 415.29 117.71 C 419.58 119.85 423.20 123.10 427.36 125.48 C 408.58 126.31 389.78 125.31 371.02 124.69 C 363.42 124.66 356.20 122.00 349.00 119.90 C 344.54 118.61 340.63 115.90 337.77 112.25 Z" />
<path fill="#84947c" opacity="1.00" d=" M 94.30 122.61 C 91.99 120.28 94.20 115.95 97.45 116.53 C 102.13 116.81 108.99 118.66 108.88 124.49 C 104.01 125.88 98.60 125.34 94.30 122.61 Z" />
<path fill="#84947c" opacity="1.00" d=" M 114.85 123.95 C 118.65 121.68 123.55 121.69 127.49 123.59 C 129.42 125.01 130.46 127.28 131.80 129.21 C 127.90 131.85 122.88 130.79 118.81 129.14 C 116.59 128.28 115.91 125.83 114.85 123.95 Z" />
<path fill="#84947c" opacity="1.00" d=" M 136.01 132.48 C 135.84 127.60 141.57 126.69 145.29 127.70 C 147.20 128.31 149.04 129.26 150.51 130.63 C 151.96 131.98 151.21 134.10 151.19 135.81 C 145.89 136.13 140.62 135.19 136.01 132.48 Z" />
<path fill="#84947c" opacity="1.00" d=" M 157.25 136.12 C 159.99 134.72 163.36 135.24 165.48 137.50 C 168.30 139.77 170.72 142.56 172.26 145.86 C 166.88 146.04 161.34 144.34 157.33 140.67 C 156.17 139.51 155.39 137.04 157.25 136.12 Z" />
<path fill="#84947c" opacity="1.00" d=" M 206.32 148.54 C 209.27 148.60 211.99 150.12 214.46 151.60 C 216.23 152.39 216.04 155.81 213.97 156.06 C 210.01 157.12 205.52 157.05 201.74 155.37 C 200.08 154.81 199.33 152.85 199.87 151.26 C 201.55 149.57 204.01 148.82 206.32 148.54 Z" />
<path fill="#84947c" opacity="1.00" d=" M 484.87 162.04 C 480.81 158.82 484.58 150.58 489.90 152.29 C 494.70 152.58 495.09 158.19 494.81 161.88 C 491.65 163.09 487.95 163.92 484.87 162.04 Z" />
<path fill="#84947c" opacity="1.00" d=" M 460.36 155.58 C 463.88 155.45 467.49 156.71 470.35 158.74 C 471.82 161.97 468.15 164.67 465.20 164.56 C 462.70 164.49 460.06 164.27 457.85 163.03 C 456.34 160.37 457.34 156.61 460.36 155.58 Z" />
<path fill="#84947c" opacity="1.00" d=" M 516.42 163.40 C 521.66 162.45 527.67 163.89 531.10 168.18 C 531.95 170.60 529.80 172.62 528.78 174.62 C 524.18 174.05 518.26 176.13 514.77 172.23 C 512.12 169.83 513.59 164.98 516.42 163.40 Z" />
<path fill="#84947c" opacity="1.00" d=" M 488.44 172.64 C 491.05 171.11 494.54 171.20 497.01 173.01 C 501.67 175.96 498.94 185.12 493.00 183.80 C 487.19 184.83 482.08 175.42 488.44 172.64 Z" />
<path fill="#84947c" opacity="1.00" d=" M 533.47 180.48 C 536.28 179.58 538.49 181.90 540.30 183.68 C 541.89 185.35 543.49 187.48 543.29 189.91 C 541.80 194.60 536.26 195.79 532.00 196.45 C 528.12 197.27 523.40 195.20 522.68 191.02 C 522.92 185.35 528.45 181.71 533.47 180.48 Z" />
<path fill="#84947c" opacity="1.00" d=" M 489.78 199.82 C 491.26 194.94 498.57 192.80 502.00 196.95 C 504.03 200.86 502.77 206.59 498.56 208.57 C 496.03 210.05 493.12 208.80 490.48 208.41 C 489.76 205.64 488.72 202.66 489.78 199.82 Z" />
<path fill="#84947c" opacity="1.00" d=" M 339.36 251.27 C 348.51 248.25 358.33 246.79 367.90 248.38 C 388.41 252.48 406.37 267.14 414.72 286.29 C 416.35 290.23 417.39 294.37 418.63 298.45 C 419.19 298.58 420.33 298.84 420.90 298.97 C 410.69 302.28 402.21 309.75 397.07 319.10 C 394.47 324.04 393.73 329.66 392.75 335.08 C 392.04 338.73 392.97 342.40 393.76 345.95 C 383.61 349.01 373.56 353.12 362.86 353.68 C 350.41 353.70 337.78 349.86 328.06 341.94 C 315.32 331.71 305.86 316.93 303.61 300.60 C 302.24 288.95 303.87 276.02 311.96 266.96 C 318.75 258.52 328.93 253.54 339.36 251.27 Z" />
<path fill="#84947c" opacity="1.00" d=" M 469.03 282.03 C 474.55 276.78 483.15 275.07 490.33 277.55 C 498.96 280.33 506.41 286.79 510.19 295.07 C 513.21 300.78 517.37 308.01 513.54 314.30 C 511.87 317.81 507.83 318.70 504.44 319.64 C 504.38 320.15 504.26 321.16 504.20 321.67 C 502.15 319.25 500.37 316.62 498.61 313.99 C 495.19 308.87 489.85 305.56 484.94 302.05 C 479.19 297.95 472.32 296.01 465.70 293.86 C 465.22 289.69 465.76 285.01 469.03 282.03 Z" />
</g>
<g id="#cdddbaff">
<path fill="#cdddba" opacity="1.00" d=" M 113.38 45.95 C 118.61 45.13 124.25 43.59 129.36 45.72 C 132.75 47.91 133.52 52.28 135.66 55.48 C 137.72 59.30 142.11 60.78 146.05 61.79 C 154.24 63.76 162.59 65.11 170.98 65.86 C 178.90 66.58 186.65 68.65 194.62 68.88 C 207.77 70.75 220.95 72.88 233.69 76.71 C 243.72 81.24 253.40 86.68 263.98 89.87 C 271.23 92.34 279.26 90.28 286.27 93.78 C 295.92 97.95 306.41 99.07 316.75 100.17 C 322.04 101.41 327.44 102.42 332.90 101.76 C 340.12 100.97 347.22 102.98 354.41 103.37 C 361.43 103.80 368.46 104.07 375.48 104.62 C 389.40 105.74 403.58 105.88 417.10 109.77 C 425.34 112.03 430.10 119.82 437.32 123.90 C 435.74 124.34 434.16 124.79 432.60 125.25 C 441.47 128.35 450.37 124.02 459.17 122.98 C 462.05 122.44 464.73 123.81 467.23 125.04 C 461.31 128.60 454.15 128.11 447.66 129.86 C 434.38 132.98 420.64 133.87 407.06 132.63 C 394.31 132.64 381.75 130.03 369.01 129.88 C 363.07 129.81 357.12 128.82 351.67 126.40 C 344.64 123.79 337.23 121.46 329.68 121.53 C 321.31 121.88 316.28 132.92 321.63 139.40 C 327.87 145.31 335.90 149.45 344.48 150.59 C 354.08 152.94 364.05 151.59 373.55 149.46 C 380.33 147.88 386.32 144.16 392.85 141.88 C 402.94 138.29 413.17 132.53 424.26 134.88 C 417.70 138.29 410.65 140.64 404.22 144.31 C 397.89 147.83 391.49 151.27 384.62 153.62 C 378.26 155.80 371.90 158.87 365.00 158.48 C 354.67 158.05 344.07 156.30 333.92 159.04 C 330.23 158.79 327.08 156.33 323.64 155.12 C 329.03 160.78 336.34 164.19 343.81 166.15 C 350.97 167.99 358.43 167.29 365.75 167.44 C 374.81 167.64 383.88 167.76 392.95 167.57 C 404.26 167.57 415.40 162.30 422.81 153.79 C 426.59 149.88 430.39 145.54 435.62 143.57 C 438.13 142.40 440.72 144.57 441.35 146.96 C 440.47 150.67 438.16 153.84 435.73 156.70 C 430.99 162.05 425.85 167.27 419.42 170.56 C 409.09 176.00 397.68 179.64 385.98 180.24 C 376.65 180.70 367.31 180.82 357.99 181.29 C 349.01 181.60 340.43 178.45 332.52 174.52 C 324.60 170.61 315.85 168.62 307.06 168.15 C 293.27 167.62 279.87 164.06 267.06 159.09 C 262.00 157.00 256.97 154.82 251.78 153.11 C 245.55 151.57 239.95 155.77 235.17 159.18 C 232.22 161.51 228.54 162.65 224.80 162.65 C 221.65 161.97 218.48 161.38 215.29 160.92 C 208.62 159.49 201.99 157.93 195.27 156.76 C 191.17 156.05 187.18 154.72 183.50 152.77 C 186.31 152.57 189.12 152.46 191.94 152.33 C 191.35 150.11 191.25 147.30 189.02 146.01 C 185.74 143.92 181.41 143.68 177.77 144.87 C 173.99 147.32 178.67 150.60 180.29 152.82 C 167.64 150.85 158.15 140.90 145.63 138.59 C 134.74 136.61 124.71 131.46 113.80 129.62 C 111.27 129.05 109.43 131.27 108.25 133.17 C 106.20 136.27 105.32 140.12 102.71 142.83 C 98.98 144.98 94.55 142.86 91.36 140.67 C 85.60 136.48 80.93 130.93 74.84 127.16 C 67.44 122.56 59.73 118.43 52.64 113.34 C 46.06 108.58 41.58 101.68 36.71 95.33 C 32.11 89.51 28.02 82.11 29.82 74.46 C 32.17 68.51 38.09 65.06 43.57 62.39 C 53.91 56.98 65.62 54.93 77.16 54.07 C 82.56 53.69 87.97 53.13 93.27 51.96 C 100.19 50.78 106.88 48.56 113.38 45.95 M 90.44 59.57 C 85.27 61.28 83.52 68.88 87.40 72.64 C 92.60 76.26 100.10 71.18 99.34 65.02 C 99.78 60.32 94.15 58.56 90.44 59.57 M 69.60 63.61 C 64.54 65.16 65.34 73.89 70.63 74.49 C 74.05 75.92 76.99 73.45 78.86 70.83 C 78.02 68.83 77.34 66.72 76.10 64.91 C 74.53 63.15 71.73 62.65 69.60 63.61 M 43.45 67.46 C 41.61 68.14 40.18 70.45 40.73 72.43 C 41.07 75.57 44.93 75.69 47.40 75.72 C 50.17 75.72 54.80 74.34 53.56 70.72 C 51.79 67.30 46.87 66.92 43.45 67.46 M 140.19 72.57 C 133.79 72.32 128.88 80.70 133.15 85.88 C 136.28 88.73 141.54 89.07 145.24 87.24 C 150.87 82.94 146.27 73.75 140.19 72.57 M 100.36 74.37 C 96.65 75.45 94.87 81.23 98.17 83.81 C 101.05 85.65 104.61 86.13 107.96 86.19 C 111.15 86.38 114.31 84.20 114.93 81.01 C 112.25 75.91 106.05 72.76 100.36 74.37 M 35.60 81.62 C 34.41 85.95 37.54 90.25 42.01 90.57 C 43.91 87.67 45.76 83.90 43.36 80.69 C 41.81 77.32 36.34 78.08 35.60 81.62 M 57.41 78.58 C 54.51 79.62 51.74 81.36 49.85 83.82 C 48.69 86.05 48.55 89.67 51.35 90.74 C 55.56 92.41 60.60 90.78 63.49 87.40 C 65.00 83.61 61.06 78.89 57.41 78.58 M 69.14 85.29 C 69.21 87.60 68.91 90.03 69.76 92.23 C 72.09 95.27 76.39 94.97 79.79 95.69 C 81.60 92.52 84.58 87.22 80.42 84.62 C 77.00 81.69 72.61 83.58 69.14 85.29 M 199.38 84.46 C 196.78 85.41 195.18 87.99 194.47 90.54 C 192.93 95.28 198.52 100.75 203.18 98.19 C 208.06 96.72 209.47 90.67 207.73 86.37 C 206.20 83.31 202.14 83.42 199.38 84.46 M 160.44 85.53 C 157.63 86.50 154.79 87.99 152.96 90.40 C 151.60 93.21 151.09 96.49 151.46 99.58 C 152.62 102.82 156.25 105.56 159.79 104.59 C 162.32 104.15 164.87 103.44 167.04 102.02 C 170.44 99.45 171.24 94.73 170.38 90.78 C 169.46 86.57 164.33 84.48 160.44 85.53 M 91.49 89.49 C 89.94 90.18 88.25 91.19 87.60 92.83 C 86.95 96.26 87.66 100.22 90.46 102.56 C 92.23 104.51 96.16 105.41 97.56 102.59 C 99.34 99.61 101.03 95.85 99.78 92.37 C 97.68 90.30 94.48 88.64 91.49 89.49 M 241.59 96.65 C 239.16 99.07 240.77 103.21 243.71 104.35 C 248.89 107.24 255.08 103.33 257.83 98.82 C 259.32 96.86 257.96 94.49 257.58 92.41 C 252.01 90.43 245.55 92.43 241.59 96.65 M 114.41 92.51 C 111.62 93.56 108.90 95.12 106.96 97.41 C 105.12 100.27 105.77 104.48 108.36 106.67 C 110.44 108.18 113.18 107.84 115.59 107.66 C 119.32 107.15 123.89 106.48 125.73 102.68 C 127.01 100.89 126.61 98.46 125.18 96.88 C 122.63 93.80 118.63 90.37 114.41 92.51 M 179.38 94.37 C 176.19 95.66 174.19 99.74 175.77 102.95 C 176.65 105.31 179.45 105.75 181.56 106.44 C 184.45 107.09 187.72 108.16 190.54 106.67 C 193.74 105.74 193.47 101.19 191.84 98.98 C 188.36 96.30 183.85 93.99 179.38 94.37 M 58.63 95.87 C 56.82 97.78 54.10 99.56 54.30 102.53 C 54.32 105.48 54.65 109.70 58.18 110.43 C 61.33 110.52 64.75 109.25 66.73 106.73 C 68.39 103.73 68.32 99.58 66.24 96.81 C 63.89 95.71 61.17 96.04 58.63 95.87 M 216.30 97.52 C 211.34 98.36 208.50 104.65 210.97 108.97 C 213.29 114.06 221.17 114.72 224.70 110.66 C 228.29 105.04 223.07 96.34 216.30 97.52 M 259.40 113.40 C 254.11 123.44 254.18 135.20 254.60 146.25 C 256.93 138.28 257.33 129.87 259.83 121.93 C 262.23 113.07 267.38 105.33 270.84 96.90 C 265.89 101.51 262.10 107.21 259.40 113.40 M 274.96 96.89 C 274.92 101.67 272.99 106.09 271.59 110.58 C 269.14 118.90 265.92 126.96 263.37 135.24 C 261.71 140.57 259.22 145.64 258.48 151.22 C 262.02 146.50 263.26 140.51 266.80 135.79 C 269.34 132.03 272.87 128.91 277.06 127.12 C 282.32 124.56 287.58 129.58 293.03 128.08 C 287.24 126.48 281.44 124.07 276.95 120.01 C 272.15 113.52 275.32 105.22 276.42 98.08 C 275.92 97.69 275.44 97.29 274.96 96.89 M 140.28 99.44 C 135.90 99.36 131.72 102.62 131.60 107.17 C 131.87 113.57 139.46 118.00 145.33 116.32 C 150.52 113.61 151.71 104.86 146.68 101.38 C 144.79 100.16 142.55 99.37 140.28 99.44 M 73.55 109.59 C 71.85 112.37 72.52 115.79 72.48 118.88 C 75.63 120.13 79.53 122.17 82.59 119.57 C 86.87 117.02 86.99 110.60 84.01 107.05 C 80.62 104.90 75.91 106.65 73.55 109.59 M 168.43 108.50 C 166.12 109.29 163.76 111.45 164.40 114.13 C 164.92 117.85 166.28 122.44 170.28 123.67 C 172.37 124.30 173.80 122.32 174.94 120.92 C 176.30 119.00 177.71 116.74 177.45 114.28 C 176.96 110.20 172.29 107.43 168.43 108.50 M 337.77 112.25 C 340.63 115.90 344.54 118.61 349.00 119.90 C 356.20 122.00 363.42 124.66 371.02 124.69 C 389.78 125.31 408.58 126.31 427.36 125.48 C 423.20 123.10 419.58 119.85 415.29 117.71 C 407.93 114.61 399.81 114.54 391.98 113.86 C 373.97 111.92 355.82 113.44 337.77 112.25 M 193.19 113.68 C 189.16 114.43 185.46 116.77 182.78 119.84 C 179.72 123.61 184.10 129.31 188.42 129.34 C 192.80 129.46 197.99 129.54 201.35 126.28 C 203.71 124.02 201.92 120.67 200.61 118.37 C 199.18 115.65 196.52 113.09 193.19 113.68 M 234.20 113.71 C 230.28 114.37 228.76 118.66 228.26 122.11 C 227.84 125.17 228.07 129.16 231.16 130.80 C 236.33 133.09 243.75 131.66 246.05 126.00 C 246.99 122.81 247.65 119.16 246.60 115.93 C 243.48 112.55 238.33 112.91 234.20 113.71 M 94.30 122.61 C 98.60 125.34 104.01 125.88 108.88 124.49 C 108.99 118.66 102.13 116.81 97.45 116.53 C 94.20 115.95 91.99 120.28 94.30 122.61 M 114.85 123.95 C 115.91 125.83 116.59 128.28 118.81 129.14 C 122.88 130.79 127.90 131.85 131.80 129.21 C 130.46 127.28 129.42 125.01 127.49 123.59 C 123.55 121.69 118.65 121.68 114.85 123.95 M 214.40 124.37 C 210.42 124.55 206.97 127.98 207.04 132.01 C 207.27 137.05 212.02 141.32 216.98 141.55 C 222.35 141.85 226.21 135.89 225.36 130.97 C 223.90 126.59 218.91 123.81 214.40 124.37 M 136.01 132.48 C 140.62 135.19 145.89 136.13 151.19 135.81 C 151.21 134.10 151.96 131.98 150.51 130.63 C 149.04 129.26 147.20 128.31 145.29 127.70 C 141.57 126.69 135.84 127.60 136.01 132.48 M 157.25 136.12 C 155.39 137.04 156.17 139.51 157.33 140.67 C 161.34 144.34 166.88 146.04 172.26 145.86 C 170.72 142.56 168.30 139.77 165.48 137.50 C 163.36 135.24 159.99 134.72 157.25 136.12 M 235.39 140.38 C 232.25 140.76 228.55 142.27 227.61 145.59 C 226.75 148.49 226.87 152.54 229.95 154.07 C 233.81 155.93 238.87 153.59 240.78 149.98 C 241.76 146.19 240.45 139.71 235.39 140.38 M 206.32 148.54 C 204.01 148.82 201.55 149.57 199.87 151.26 C 199.33 152.85 200.08 154.81 201.74 155.37 C 205.52 157.05 210.01 157.12 213.97 156.06 C 216.04 155.81 216.23 152.39 214.46 151.60 C 211.99 150.12 209.27 148.60 206.32 148.54 Z" />
<path fill="#cdddba" opacity="1.00" d=" M 282.54 90.60 C 285.35 89.85 288.18 89.15 291.02 88.51 C 290.84 90.00 290.67 91.49 290.49 92.97 C 288.53 92.68 286.57 92.43 284.63 92.11 C 284.10 91.73 283.06 90.98 282.54 90.60 Z" />
<path fill="#cdddba" opacity="1.00" d=" M 308.87 90.37 C 316.34 92.47 322.91 96.75 330.03 99.71 C 327.62 99.52 325.22 99.32 322.81 99.14 C 318.30 98.42 313.90 97.19 309.46 96.15 C 309.29 94.22 309.09 92.29 308.87 90.37 Z" />
<path fill="#cdddba" opacity="1.00" d=" M 447.46 110.44 C 449.96 108.72 452.37 112.23 451.42 114.54 C 450.08 118.72 446.69 122.17 442.65 123.84 C 440.92 124.83 439.61 122.86 438.24 122.13 C 441.03 118.05 443.42 113.44 447.46 110.44 Z" />
<path fill="#cdddba" opacity="1.00" d=" M 437.48 134.06 C 440.57 133.42 443.70 132.67 446.88 132.80 C 449.57 135.42 451.48 138.72 453.19 142.03 C 446.94 142.35 441.83 137.99 437.48 134.06 Z" />
<path fill="#cdddba" opacity="1.00" d=" M 257.41 157.83 C 259.24 158.40 261.08 158.99 262.90 159.59 C 276.25 166.34 290.86 171.60 306.02 171.06 C 307.42 171.02 308.82 170.98 310.23 170.94 C 305.19 174.56 299.84 177.83 294.07 180.16 C 287.47 182.72 280.25 180.49 273.93 178.14 C 265.24 174.88 260.04 166.32 257.41 157.83 M 269.30 168.41 C 268.91 171.99 272.38 174.32 275.20 175.69 C 280.61 177.62 286.75 178.01 292.08 175.61 C 291.76 174.39 291.51 173.16 291.02 172.00 C 287.03 170.13 282.83 168.73 278.66 167.33 C 275.63 166.43 271.64 165.68 269.30 168.41 Z" />
</g>
<g id="#9eb291ff">
<path fill="#9eb291" opacity="1.00" d=" M 90.44 59.57 C 94.15 58.56 99.78 60.32 99.34 65.02 C 100.10 71.18 92.60 76.26 87.40 72.64 C 83.52 68.88 85.27 61.28 90.44 59.57 Z" />
<path fill="#9eb291" opacity="1.00" d=" M 69.60 63.61 C 71.73 62.65 74.53 63.15 76.10 64.91 C 77.34 66.72 78.02 68.83 78.86 70.83 C 76.99 73.45 74.05 75.92 70.63 74.49 C 65.34 73.89 64.54 65.16 69.60 63.61 Z" />
<path fill="#9eb291" opacity="1.00" d=" M 43.45 67.46 C 46.87 66.92 51.79 67.30 53.56 70.72 C 54.80 74.34 50.17 75.72 47.40 75.72 C 44.93 75.69 41.07 75.57 40.73 72.43 C 40.18 70.45 41.61 68.14 43.45 67.46 Z" />
<path fill="#9eb291" opacity="1.00" d=" M 140.19 72.57 C 146.27 73.75 150.87 82.94 145.24 87.24 C 141.54 89.07 136.28 88.73 133.15 85.88 C 128.88 80.70 133.79 72.32 140.19 72.57 Z" />
<path fill="#9eb291" opacity="1.00" d=" M 100.36 74.37 C 106.05 72.76 112.25 75.91 114.93 81.01 C 114.31 84.20 111.15 86.38 107.96 86.19 C 104.61 86.13 101.05 85.65 98.17 83.81 C 94.87 81.23 96.65 75.45 100.36 74.37 Z" />
<path fill="#9eb291" opacity="1.00" d=" M 35.60 81.62 C 36.34 78.08 41.81 77.32 43.36 80.69 C 45.76 83.90 43.91 87.67 42.01 90.57 C 37.54 90.25 34.41 85.95 35.60 81.62 Z" />
<path fill="#9eb291" opacity="1.00" d=" M 57.41 78.58 C 61.06 78.89 65.00 83.61 63.49 87.40 C 60.60 90.78 55.56 92.41 51.35 90.74 C 48.55 89.67 48.69 86.05 49.85 83.82 C 51.74 81.36 54.51 79.62 57.41 78.58 Z" />
<path fill="#9eb291" opacity="1.00" d=" M 69.14 85.29 C 72.61 83.58 77.00 81.69 80.42 84.62 C 84.58 87.22 81.60 92.52 79.79 95.69 C 76.39 94.97 72.09 95.27 69.76 92.23 C 68.91 90.03 69.21 87.60 69.14 85.29 Z" />
<path fill="#9eb291" opacity="1.00" d=" M 199.38 84.46 C 202.14 83.42 206.20 83.31 207.73 86.37 C 209.47 90.67 208.06 96.72 203.18 98.19 C 198.52 100.75 192.93 95.28 194.47 90.54 C 195.18 87.99 196.78 85.41 199.38 84.46 Z" />
<path fill="#9eb291" opacity="1.00" d=" M 160.44 85.53 C 164.33 84.48 169.46 86.57 170.38 90.78 C 171.24 94.73 170.44 99.45 167.04 102.02 C 164.87 103.44 162.32 104.15 159.79 104.59 C 156.25 105.56 152.62 102.82 151.46 99.58 C 151.09 96.49 151.60 93.21 152.96 90.40 C 154.79 87.99 157.63 86.50 160.44 85.53 Z" />
<path fill="#9eb291" opacity="1.00" d=" M 91.49 89.49 C 94.48 88.64 97.68 90.30 99.78 92.37 C 101.03 95.85 99.34 99.61 97.56 102.59 C 96.16 105.41 92.23 104.51 90.46 102.56 C 87.66 100.22 86.95 96.26 87.60 92.83 C 88.25 91.19 89.94 90.18 91.49 89.49 Z" />
<path fill="#9eb291" opacity="1.00" d=" M 241.59 96.65 C 245.55 92.43 252.01 90.43 257.58 92.41 C 257.96 94.49 259.32 96.86 257.83 98.82 C 255.08 103.33 248.89 107.24 243.71 104.35 C 240.77 103.21 239.16 99.07 241.59 96.65 Z" />
<path fill="#9eb291" opacity="1.00" d=" M 114.41 92.51 C 118.63 90.37 122.63 93.80 125.18 96.88 C 126.61 98.46 127.01 100.89 125.73 102.68 C 123.89 106.48 119.32 107.15 115.59 107.66 C 113.18 107.84 110.44 108.18 108.36 106.67 C 105.77 104.48 105.12 100.27 106.96 97.41 C 108.90 95.12 111.62 93.56 114.41 92.51 Z" />
<path fill="#9eb291" opacity="1.00" d=" M 179.38 94.37 C 183.85 93.99 188.36 96.30 191.84 98.98 C 193.47 101.19 193.74 105.74 190.54 106.67 C 187.72 108.16 184.45 107.09 181.56 106.44 C 179.45 105.75 176.65 105.31 175.77 102.95 C 174.19 99.74 176.19 95.66 179.38 94.37 Z" />
<path fill="#9eb291" opacity="1.00" d=" M 58.63 95.87 C 61.17 96.04 63.89 95.71 66.24 96.81 C 68.32 99.58 68.39 103.73 66.73 106.73 C 64.75 109.25 61.33 110.52 58.18 110.43 C 54.65 109.70 54.32 105.48 54.30 102.53 C 54.10 99.56 56.82 97.78 58.63 95.87 Z" />
<path fill="#9eb291" opacity="1.00" d=" M 216.30 97.52 C 223.07 96.34 228.29 105.04 224.70 110.66 C 221.17 114.72 213.29 114.06 210.97 108.97 C 208.50 104.65 211.34 98.36 216.30 97.52 Z" />
<path fill="#9eb291" opacity="1.00" d=" M 140.28 99.44 C 142.55 99.37 144.79 100.16 146.68 101.38 C 151.71 104.86 150.52 113.61 145.33 116.32 C 139.46 118.00 131.87 113.57 131.60 107.17 C 131.72 102.62 135.90 99.36 140.28 99.44 Z" />
<path fill="#9eb291" opacity="1.00" d=" M 73.55 109.59 C 75.91 106.65 80.62 104.90 84.01 107.05 C 86.99 110.60 86.87 117.02 82.59 119.57 C 79.53 122.17 75.63 120.13 72.48 118.88 C 72.52 115.79 71.85 112.37 73.55 109.59 Z" />
<path fill="#9eb291" opacity="1.00" d=" M 168.43 108.50 C 172.29 107.43 176.96 110.20 177.45 114.28 C 177.71 116.74 176.30 119.00 174.94 120.92 C 173.80 122.32 172.37 124.30 170.28 123.67 C 166.28 122.44 164.92 117.85 164.40 114.13 C 163.76 111.45 166.12 109.29 168.43 108.50 Z" />
<path fill="#9eb291" opacity="1.00" d=" M 193.19 113.68 C 196.52 113.09 199.18 115.65 200.61 118.37 C 201.92 120.67 203.71 124.02 201.35 126.28 C 197.99 129.54 192.80 129.46 188.42 129.34 C 184.10 129.31 179.72 123.61 182.78 119.84 C 185.46 116.77 189.16 114.43 193.19 113.68 Z" />
<path fill="#9eb291" opacity="1.00" d=" M 234.20 113.71 C 238.33 112.91 243.48 112.55 246.60 115.93 C 247.65 119.16 246.99 122.81 246.05 126.00 C 243.75 131.66 236.33 133.09 231.16 130.80 C 228.07 129.16 227.84 125.17 228.26 122.11 C 228.76 118.66 230.28 114.37 234.20 113.71 Z" />
<path fill="#9eb291" opacity="1.00" d=" M 214.40 124.37 C 218.91 123.81 223.90 126.59 225.36 130.97 C 226.21 135.89 222.35 141.85 216.98 141.55 C 212.02 141.32 207.27 137.05 207.04 132.01 C 206.97 127.98 210.42 124.55 214.40 124.37 Z" />
<path fill="#9eb291" opacity="1.00" d=" M 235.39 140.38 C 240.45 139.71 241.76 146.19 240.78 149.98 C 238.87 153.59 233.81 155.93 229.95 154.07 C 226.87 152.54 226.75 148.49 227.61 145.59 C 228.55 142.27 232.25 140.76 235.39 140.38 Z" />
</g>
</svg>
