<?xml version="1.0" encoding="UTF-8" ?>
<!DOCTYPE svg PUBLIC "-//W3C//DTD SVG 1.1//EN" "http://www.w3.org/Graphics/SVG/1.1/DTD/svg11.dtd">
<svg width="520pt" height="380pt" viewBox="0 0 520 380" version="1.1" xmlns="http://www.w3.org/2000/svg">
<g id="#fcfef4ff">
</g>
<g id="#c0d1abff">
<path fill="#c0d1ab" opacity="1.00" d=" M 232.04 32.12 C 235.96 30.60 237.58 25.33 242.13 25.12 C 244.78 24.73 247.45 25.74 249.35 27.61 C 252.90 30.68 253.47 35.60 254.65 39.87 C 259.22 38.02 261.99 33.55 266.35 31.33 C 272.73 27.56 281.29 29.50 286.15 34.86 C 289.42 37.93 291.46 42.85 296.21 43.89 C 308.84 46.82 321.33 39.29 333.92 42.17 C 338.66 43.10 341.24 47.42 344.14 50.82 C 345.20 52.45 347.33 52.00 348.99 52.29 C 353.71 52.67 358.89 53.47 362.44 56.90 C 360.19 60.09 357.16 62.62 354.91 65.80 C 353.16 68.17 353.41 71.24 353.31 74.02 C 357.02 72.03 359.90 68.84 363.54 66.74 C 368.10 65.11 374.09 65.72 377.12 69.91 C 380.65 74.58 379.14 80.81 379.50 86.24 C 383.17 86.78 387.23 87.20 389.93 90.05 C 397.18 96.57 399.12 106.72 399.83 116.00 C 400.59 122.38 400.75 129.66 405.28 134.68 C 409.56 137.12 415.20 139.78 419.91 136.98 C 423.26 135.33 427.57 134.17 431.00 136.10 C 440.38 145.12 444.22 158.23 445.72 170.81 C 447.43 186.02 448.17 202.03 442.61 216.58 C 439.69 224.27 434.50 231.68 426.61 234.81 C 424.67 235.94 421.75 234.85 421.26 232.61 C 420.22 229.64 420.17 225.78 417.03 224.10 C 411.02 221.22 403.80 226.13 402.44 232.22 C 402.14 235.61 403.69 238.81 404.15 242.13 C 404.71 244.10 402.78 245.97 400.92 246.13 C 397.11 246.51 393.30 245.84 389.50 245.69 C 393.75 250.11 400.73 252.50 402.25 259.04 C 402.86 265.33 402.65 271.70 402.38 278.00 C 402.00 284.83 397.25 290.19 393.15 295.24 C 390.23 299.28 384.48 296.37 380.62 298.55 C 377.88 300.20 375.55 302.52 372.54 303.71 C 364.00 306.78 354.23 305.95 346.39 301.36 C 346.25 308.14 347.67 316.21 342.59 321.62 C 337.76 327.16 329.73 327.39 322.94 327.10 C 315.48 326.84 309.10 321.53 306.22 314.85 C 302.45 306.12 304.20 296.45 303.27 287.27 C 303.12 284.72 301.53 282.66 299.95 280.80 C 298.99 283.10 298.26 285.54 298.48 288.06 C 298.99 303.12 303.60 317.89 302.31 333.04 C 301.65 339.38 301.56 345.79 300.55 352.09 C 299.62 357.57 297.05 363.54 291.54 365.75 C 287.39 367.80 282.84 364.37 281.20 360.60 C 278.79 356.02 279.22 350.62 280.82 345.86 C 283.89 336.71 281.19 326.69 276.31 318.71 C 272.47 312.64 268.38 306.74 263.92 301.12 C 261.92 298.95 261.70 295.01 264.39 293.29 C 268.03 292.14 272.08 293.08 275.62 291.52 C 278.20 290.47 278.16 287.30 278.87 285.02 C 273.94 286.58 270.76 292.84 265.06 291.36 C 254.73 288.66 246.82 280.22 241.88 271.08 C 235.50 257.72 234.33 242.58 234.55 227.98 C 234.51 225.74 234.58 222.98 232.54 221.52 C 228.87 219.09 223.28 218.62 220.09 222.10 C 213.55 228.31 205.20 232.11 196.76 235.00 C 190.47 237.80 183.55 238.40 176.95 240.12 C 170.25 241.81 163.25 241.69 156.58 243.46 C 150.76 245.04 144.71 245.38 138.85 246.75 C 132.67 248.17 126.28 248.62 119.96 248.12 C 113.70 247.53 107.24 247.34 101.37 244.85 C 93.88 241.76 85.90 238.79 80.30 232.66 C 77.16 229.33 73.40 226.13 72.22 221.51 C 70.62 216.69 73.51 212.09 74.81 207.57 C 69.46 206.14 63.55 205.43 59.10 201.88 C 55.43 197.74 53.53 191.73 55.03 186.30 C 56.05 181.69 59.53 178.30 62.45 174.81 C 60.83 168.56 59.17 161.85 61.40 155.53 C 62.66 152.79 65.14 150.91 67.18 148.77 C 66.45 146.28 65.33 143.75 65.61 141.11 C 66.35 137.54 70.21 136.52 73.05 135.13 C 73.81 132.44 74.16 129.32 76.43 127.40 C 78.70 125.45 81.81 125.06 84.59 124.23 C 84.71 118.49 82.33 110.91 87.81 106.88 C 91.61 105.39 95.89 106.19 99.90 105.95 C 102.80 99.82 100.94 92.41 104.60 86.56 C 106.44 83.89 109.17 80.85 112.77 81.38 C 117.68 81.63 121.24 85.41 125.10 87.97 C 127.72 85.45 129.27 82.16 131.02 79.04 C 132.49 76.18 135.46 74.71 138.11 73.17 C 138.84 69.62 138.73 65.30 141.83 62.84 C 144.62 61.20 148.21 61.79 150.99 60.08 C 153.51 58.53 156.20 57.26 158.63 55.59 C 160.24 53.83 161.10 51.46 162.91 49.87 C 166.60 47.21 171.64 47.25 175.55 49.43 C 179.27 51.11 181.28 54.83 183.42 58.08 C 187.28 53.08 188.28 45.46 194.37 42.50 C 202.22 40.34 207.74 47.52 212.31 52.65 C 214.67 46.97 216.95 40.87 221.83 36.85 C 224.71 34.29 228.57 33.53 232.04 32.12 M 237.92 39.33 C 235.67 38.55 233.42 37.60 231.02 37.45 C 227.44 38.09 224.69 40.87 222.74 43.78 C 219.17 49.12 216.77 55.13 213.40 60.59 C 212.58 60.53 211.75 60.48 210.93 60.43 C 209.20 56.59 207.80 52.32 204.44 49.54 C 202.62 47.92 200.25 47.18 198.02 46.31 C 195.36 48.02 192.91 50.21 191.82 53.27 C 190.03 58.00 187.95 62.67 184.58 66.51 C 184.15 66.50 183.30 66.49 182.87 66.49 C 181.14 62.34 179.56 57.95 176.40 54.63 C 174.01 51.84 169.64 52.09 166.59 53.52 C 163.23 56.17 162.72 60.78 162.35 64.75 C 160.87 63.52 159.34 62.35 157.79 61.22 C 156.28 63.50 155.05 65.97 154.11 68.55 C 151.85 67.39 149.63 65.88 147.06 65.57 C 144.44 66.37 143.45 69.48 143.61 71.95 C 144.04 76.68 145.35 81.27 145.75 86.00 C 143.58 83.42 142.30 77.84 138.16 78.70 C 134.29 83.01 132.61 89.30 127.37 92.33 C 123.24 93.80 120.34 89.62 117.29 87.62 C 115.58 85.93 113.06 86.55 110.91 86.44 C 106.00 93.17 108.32 102.25 104.14 109.30 C 103.27 110.82 101.69 113.36 99.65 112.09 C 96.60 110.73 92.28 108.53 89.96 112.30 C 88.61 117.16 90.23 122.31 89.07 127.19 C 88.24 129.90 84.89 129.16 82.72 129.49 C 80.89 129.34 79.77 131.02 78.44 131.98 C 79.96 135.51 81.56 139.00 83.18 142.48 C 80.44 141.49 77.68 140.55 74.93 139.57 C 73.31 140.67 71.70 141.80 70.12 142.96 C 73.27 148.22 78.15 152.05 82.31 156.46 C 79.11 154.82 75.80 152.68 72.08 152.83 C 69.44 153.79 66.49 155.62 66.38 158.76 C 64.80 165.08 67.09 171.47 70.41 176.81 C 66.91 179.48 62.78 181.77 60.64 185.79 C 58.41 189.80 59.55 195.10 62.67 198.31 C 67.79 202.15 74.61 202.14 80.21 204.97 C 81.12 205.90 81.86 207.35 81.33 208.65 C 79.90 212.37 76.67 215.66 76.94 219.86 C 78.42 224.02 81.42 227.50 84.75 230.33 C 91.84 236.02 100.02 240.71 109.08 242.24 C 113.02 242.84 116.96 243.45 120.94 243.66 C 131.32 244.52 141.66 242.37 151.70 239.96 C 160.33 236.75 169.76 238.12 178.50 235.37 C 183.90 233.51 189.69 233.43 195.16 231.91 C 200.20 229.95 205.06 227.51 209.84 224.97 C 214.79 222.32 218.32 217.62 223.37 215.16 C 228.70 213.02 234.16 216.60 238.29 219.69 C 240.96 223.34 240.10 228.29 239.79 232.53 C 239.11 241.74 241.72 250.73 243.41 259.70 C 244.55 266.15 248.16 271.77 251.82 277.07 C 255.68 282.82 262.40 285.69 268.82 287.56 C 271.69 284.41 275.37 281.41 279.88 281.49 C 282.76 282.00 285.25 285.03 284.05 287.99 C 282.10 294.01 275.84 298.20 269.59 298.46 C 273.82 307.79 281.96 314.84 285.17 324.67 C 288.05 332.04 288.69 340.48 285.87 347.97 C 284.10 353.15 285.11 359.12 289.23 362.91 C 291.90 360.97 294.38 358.65 295.77 355.59 C 298.25 351.12 297.44 345.85 298.32 340.99 C 301.03 326.72 297.69 312.34 296.08 298.15 C 294.94 290.62 294.84 282.85 296.44 275.37 C 298.72 275.61 301.44 275.10 303.27 276.81 C 304.78 278.18 306.04 279.89 306.71 281.84 C 309.76 292.26 308.28 303.50 312.03 313.77 C 313.05 316.56 314.65 319.51 317.62 320.59 C 324.13 323.05 331.77 323.28 338.13 320.23 C 342.56 318.01 343.49 312.46 343.23 307.98 C 342.47 301.27 340.83 294.68 339.27 288.12 C 343.89 293.77 349.62 298.95 356.93 300.64 C 363.82 302.57 372.09 301.52 377.04 295.96 C 380.22 291.41 381.41 285.09 379.29 279.87 C 376.77 276.62 373.52 273.69 373.03 269.34 C 380.34 271.40 388.83 275.30 390.95 283.27 C 388.03 286.36 384.37 289.31 384.46 294.02 C 390.74 292.87 395.38 287.43 398.03 281.93 C 400.74 276.53 398.22 270.57 399.19 264.90 C 399.83 261.10 397.79 257.41 395.15 254.84 C 391.15 251.68 385.73 252.56 381.00 252.52 C 382.18 251.46 383.39 250.43 384.46 249.26 C 386.11 247.70 385.50 245.24 385.62 243.22 C 377.65 240.80 370.68 236.01 364.90 230.09 C 355.12 222.22 347.00 212.57 338.16 203.71 C 337.02 202.40 335.19 201.97 333.58 202.62 C 327.46 204.95 323.34 210.46 317.58 213.41 C 313.96 215.21 310.23 216.75 306.52 218.36 C 302.50 220.26 298.40 217.25 294.73 215.78 C 294.54 209.90 294.01 203.46 297.43 198.30 C 301.56 191.08 309.60 187.24 317.51 185.81 C 325.70 184.41 334.38 186.98 340.63 192.41 C 344.43 195.65 346.51 200.50 350.63 203.42 C 354.28 206.03 358.14 208.45 361.05 211.93 C 365.63 217.36 370.18 222.84 374.28 228.65 C 378.80 235.40 387.05 237.69 393.89 241.29 C 395.87 242.63 397.93 241.42 399.68 240.34 C 398.88 237.33 397.87 234.06 399.10 231.01 C 401.14 223.67 408.82 219.38 416.00 218.72 C 421.39 219.92 426.27 224.75 425.72 230.61 C 427.53 229.89 429.48 229.29 430.94 227.92 C 436.19 223.12 439.57 216.52 441.01 209.59 C 442.71 201.41 444.98 193.10 443.79 184.68 C 443.60 171.95 440.62 159.30 435.37 147.73 C 433.45 144.44 431.53 139.71 427.09 139.61 C 423.38 140.93 420.64 144.00 417.02 145.50 C 412.79 142.80 408.14 140.81 403.88 138.19 C 398.49 132.69 396.93 124.71 396.58 117.27 C 395.48 108.70 394.54 98.47 386.89 93.02 C 383.70 90.32 379.80 92.75 376.46 93.75 C 374.00 87.75 377.97 81.34 375.97 75.29 C 375.07 72.28 371.96 70.54 368.96 70.48 C 362.59 69.31 360.78 77.95 354.97 78.62 C 351.44 78.79 350.74 74.39 350.46 71.72 C 349.60 66.54 353.61 62.53 354.79 57.78 C 352.29 57.27 349.53 56.73 347.16 58.00 C 344.44 59.53 343.03 62.47 341.52 65.07 C 341.90 59.68 342.45 53.04 337.58 49.37 C 332.91 44.73 326.00 46.53 320.22 47.22 C 310.95 48.78 300.74 51.59 291.90 46.87 C 287.28 44.99 285.67 39.88 282.34 36.60 C 280.00 34.74 276.95 33.75 273.99 33.65 C 268.03 34.89 263.98 39.75 259.37 43.29 C 256.52 45.55 252.93 46.43 249.39 46.88 C 249.87 42.94 251.49 38.81 250.17 34.89 C 248.81 32.23 246.30 29.37 243.07 29.46 C 239.23 31.17 238.89 35.77 237.92 39.33 M 303.89 195.85 C 299.08 199.95 297.17 206.61 298.14 212.74 C 303.50 214.67 309.37 212.70 314.08 209.98 C 320.88 205.09 327.17 198.11 336.03 197.44 C 339.94 198.55 342.13 202.45 344.80 205.25 C 351.34 212.62 358.45 219.47 365.88 225.95 C 362.54 220.19 357.74 215.55 353.03 210.94 C 349.60 207.61 345.02 205.61 342.19 201.66 C 337.32 195.79 331.11 189.66 323.05 189.19 C 316.05 188.16 309.10 191.38 303.89 195.85 Z" />
<path fill="#c0d1ab" opacity="1.00" d=" M 262.16 55.16 C 265.11 52.22 269.31 50.67 273.44 51.62 C 278.63 52.14 281.72 57.07 283.28 61.55 C 285.09 69.62 280.59 77.18 279.69 85.05 C 284.88 82.48 290.19 80.04 294.96 76.73 C 294.08 73.58 291.92 71.10 289.87 68.66 C 291.96 63.20 291.15 57.45 290.09 51.88 C 293.84 53.23 297.86 54.53 300.73 57.43 C 301.99 60.17 300.42 63.31 300.26 66.17 C 303.97 64.21 306.08 60.59 308.53 57.37 C 309.75 55.35 312.81 56.58 313.20 58.65 C 313.86 62.64 313.73 66.74 314.49 70.73 C 320.47 71.34 323.34 65.11 325.27 60.50 C 326.44 58.06 327.08 53.51 330.83 54.73 C 334.50 55.60 333.50 59.97 332.76 62.64 C 329.87 71.69 324.41 79.60 319.97 87.91 C 316.70 93.77 313.68 100.05 308.43 104.43 C 306.41 106.23 303.44 107.21 300.83 106.19 C 298.21 104.29 296.53 101.42 294.41 99.02 C 292.03 103.13 290.39 108.93 285.15 110.15 C 278.78 111.89 271.92 114.44 265.43 111.74 C 261.52 110.44 259.29 106.79 256.89 103.72 C 254.22 107.38 252.90 114.35 247.18 113.82 C 243.37 113.72 242.34 109.45 240.84 106.72 C 239.12 109.66 238.20 113.62 234.89 115.20 C 231.39 114.49 228.75 111.32 225.09 111.26 C 220.89 111.81 217.91 116.49 213.37 115.54 C 209.77 114.21 207.53 109.43 203.18 110.31 C 200.38 111.12 198.43 113.53 196.02 115.05 C 193.02 117.42 188.99 115.64 185.61 116.63 C 182.51 118.55 179.92 121.39 176.35 122.49 C 172.75 123.83 168.90 122.80 165.19 123.13 C 162.81 124.29 160.97 126.27 158.88 127.85 C 155.10 130.89 150.51 132.67 146.61 135.54 C 142.90 138.17 139.99 141.86 135.90 143.96 C 133.57 145.40 130.44 146.42 129.52 149.29 C 127.02 156.46 130.01 164.34 127.52 171.48 C 126.40 174.48 122.71 173.30 120.27 173.46 C 117.51 172.95 115.11 174.45 112.78 175.67 C 113.84 173.70 115.13 171.86 116.11 169.85 C 116.86 165.24 114.53 160.49 115.97 155.95 C 117.33 153.47 120.03 152.14 121.64 149.85 C 121.76 146.91 118.58 145.01 115.92 145.07 C 109.69 145.13 103.72 147.96 99.35 152.33 C 95.45 156.75 85.83 154.74 86.26 147.98 C 91.43 144.83 99.44 146.72 102.76 140.79 C 105.46 134.04 101.86 126.76 103.02 119.78 C 104.12 120.39 105.34 121.00 105.75 122.30 C 108.19 127.52 110.50 133.77 116.09 136.34 C 119.69 136.11 122.77 133.70 126.41 133.60 C 129.15 133.30 132.77 133.81 134.21 130.80 C 135.71 125.89 131.49 121.78 131.27 117.02 C 130.98 109.55 131.84 101.86 135.08 95.04 C 135.80 93.30 137.35 92.20 138.86 91.21 C 145.33 100.98 141.69 113.61 146.94 123.82 C 152.86 120.26 151.57 112.79 151.24 106.99 C 150.52 99.35 152.23 91.24 156.99 85.11 C 158.22 86.58 159.65 88.03 160.05 89.99 C 161.75 97.12 162.20 104.48 162.68 111.77 C 164.03 111.58 165.59 111.73 166.58 110.60 C 169.57 107.89 172.29 104.86 174.70 101.62 C 177.20 98.22 177.61 93.67 180.44 90.48 C 183.75 87.45 188.57 86.73 192.90 87.28 C 195.37 87.38 197.70 89.59 197.64 92.12 C 197.70 95.58 196.15 98.78 195.10 102.00 C 200.90 101.70 206.21 99.20 211.84 98.06 C 215.96 97.05 220.86 99.63 224.30 96.26 C 229.62 91.15 229.59 82.85 234.40 77.39 C 235.73 75.62 238.24 76.42 239.98 77.02 C 245.17 78.94 245.15 85.59 249.11 88.85 C 250.83 90.24 253.29 92.32 255.54 90.81 C 258.75 89.28 261.72 85.36 260.30 81.71 C 258.42 76.13 254.73 71.02 254.56 64.97 C 254.41 60.26 259.24 58.02 262.16 55.16 Z" />
<path fill="#c0d1ab" opacity="1.00" d=" M 333.97 78.87 C 336.81 74.76 338.53 70.01 341.27 65.84 C 340.92 70.98 339.50 75.97 338.74 81.06 C 337.91 85.76 336.21 91.38 331.21 93.10 C 329.39 93.63 327.13 95.30 325.38 93.90 C 327.30 88.41 330.95 83.78 333.97 78.87 Z" />
<path fill="#c0d1ab" opacity="1.00" d=" M 340.92 87.02 C 340.98 81.89 343.38 77.16 346.21 73.02 C 348.64 78.03 346.74 83.67 347.26 88.97 C 347.12 90.40 348.19 91.41 348.99 92.44 C 352.94 89.86 355.11 85.60 358.08 82.11 C 360.65 80.45 363.91 80.49 366.85 79.99 C 363.96 86.65 359.01 92.16 356.23 98.87 C 357.68 100.94 358.99 103.39 361.41 104.47 C 363.89 104.49 366.28 103.70 368.70 103.23 C 369.26 103.69 370.38 104.62 370.94 105.08 C 366.01 108.15 360.04 107.72 354.57 108.83 C 351.82 110.39 350.05 113.24 347.26 114.75 C 345.39 115.28 343.38 114.78 341.47 114.82 C 341.15 118.31 343.51 120.65 346.19 122.43 C 342.66 125.07 338.21 125.70 334.17 127.21 C 328.62 129.06 322.89 131.67 316.90 130.37 C 315.92 126.71 314.33 123.12 314.25 119.28 C 315.35 117.18 318.09 117.10 320.14 116.71 C 324.66 116.11 330.02 115.80 333.03 111.87 C 334.63 108.81 332.74 105.50 331.63 102.63 C 335.29 99.47 340.39 99.89 344.85 98.92 C 343.05 95.15 340.99 91.30 340.92 87.02 Z" />
<path fill="#c0d1ab" opacity="1.00" d=" M 377.41 111.51 C 378.25 107.29 380.23 103.39 383.16 100.24 C 385.07 102.50 386.27 105.28 386.48 108.24 C 387.08 115.49 386.45 122.77 386.65 130.03 C 386.81 136.49 389.94 142.53 389.53 149.06 C 389.83 156.17 383.15 162.64 376.02 161.91 C 371.96 162.26 367.93 159.72 363.99 160.90 C 360.09 162.56 361.86 166.92 362.14 170.08 C 362.76 172.55 361.57 175.16 359.54 176.60 C 356.69 177.83 353.49 177.83 350.57 178.80 C 347.98 179.78 346.54 182.65 343.92 183.43 C 339.22 182.83 334.78 180.99 330.22 179.78 C 327.08 178.57 322.78 177.64 321.82 173.89 C 320.98 168.86 322.13 163.68 321.02 158.68 C 319.80 153.64 316.10 149.68 314.59 144.77 C 313.97 141.27 316.94 138.29 319.82 136.80 C 324.69 134.43 329.47 131.77 334.63 130.06 C 335.15 133.49 335.42 136.94 335.62 140.40 C 338.94 142.27 344.61 142.46 345.36 146.98 C 343.73 151.16 339.54 153.81 338.10 158.13 C 337.32 160.05 338.06 162.11 338.37 164.04 C 341.36 162.13 342.95 158.82 345.61 156.56 C 347.39 155.73 349.36 155.43 351.27 154.99 C 352.60 152.16 352.12 147.18 356.08 146.74 C 360.98 146.21 364.47 150.81 369.14 151.42 C 370.77 151.62 372.43 151.63 374.08 151.66 C 368.05 142.23 354.62 143.39 347.27 135.58 C 345.43 132.57 346.84 128.89 347.54 125.75 C 348.83 121.55 349.78 116.13 354.40 114.34 C 359.11 112.77 364.26 111.73 369.16 113.02 C 367.81 118.89 360.84 120.17 357.43 124.53 C 356.38 127.69 359.71 129.69 361.98 131.07 C 364.72 132.86 368.08 132.75 371.20 132.38 C 373.82 125.60 375.66 118.55 377.41 111.51 Z" />
<path fill="#c0d1ab" opacity="1.00" d=" M 399.48 143.37 C 401.08 142.01 403.35 143.66 403.59 145.46 C 405.05 150.86 405.81 156.51 408.38 161.56 C 410.92 166.44 411.65 172.04 414.23 176.88 C 416.54 178.54 418.96 175.99 420.92 174.91 C 425.09 171.32 433.68 173.05 434.34 179.12 C 434.54 180.34 434.33 181.49 433.73 182.56 C 429.69 185.25 423.88 184.70 420.62 188.65 C 419.08 191.84 419.76 195.59 419.45 199.03 C 415.28 198.77 411.99 195.64 410.30 192.01 C 409.84 189.88 410.15 187.65 409.60 185.54 C 406.85 181.83 401.89 181.35 397.79 180.08 C 393.19 178.96 388.21 176.15 383.56 178.62 C 379.96 181.02 378.38 185.86 374.00 187.22 C 370.13 188.66 365.91 186.56 363.54 183.45 C 362.68 180.75 363.23 177.39 365.41 175.44 C 373.64 169.24 385.45 171.14 393.31 164.28 C 396.00 161.89 395.11 158.08 395.00 154.94 C 394.73 150.73 395.95 145.97 399.48 143.37 Z" />
<path fill="#c0d1ab" opacity="1.00" d=" M 76.51 167.00 C 77.64 163.32 82.72 165.42 85.02 166.99 C 95.45 174.39 106.31 181.52 114.90 191.11 C 122.97 199.47 133.80 204.43 144.48 208.57 C 150.00 210.75 155.25 213.89 161.26 214.57 C 172.06 216.57 183.62 212.27 193.92 217.18 C 195.46 217.68 195.58 219.40 196.06 220.69 C 189.53 224.03 182.25 219.88 175.64 222.68 C 171.25 224.20 166.67 225.23 162.01 225.28 C 151.34 225.41 140.63 225.01 130.00 226.21 C 125.37 226.57 120.62 227.02 116.04 226.00 C 112.13 224.81 108.71 222.47 104.99 220.85 C 100.76 218.71 96.04 217.96 91.43 217.12 C 95.02 215.17 99.95 213.38 99.86 208.48 C 93.31 202.63 83.93 202.20 77.12 196.85 C 79.62 196.01 82.31 194.95 84.97 195.76 C 87.99 196.80 90.75 198.62 93.97 199.09 C 98.86 199.85 103.82 201.14 107.81 204.21 C 112.43 207.56 112.36 214.56 117.43 217.49 C 123.41 220.66 130.39 220.83 137.00 220.55 C 142.32 220.32 147.78 221.00 152.92 219.28 C 140.35 217.04 131.11 207.69 120.34 201.67 C 114.78 198.59 110.15 193.82 103.93 192.00 C 99.11 190.51 94.13 189.32 89.06 189.29 C 84.36 189.06 79.48 189.98 74.98 188.19 C 78.83 186.33 83.09 185.59 87.03 184.01 C 89.12 183.18 89.97 180.96 91.06 179.18 C 86.05 175.35 79.74 172.72 76.51 167.00 Z" />
<path fill="#c0d1ab" opacity="1.00" d=" M 350.05 190.54 C 353.31 189.57 356.65 188.90 360.02 188.44 C 362.73 191.00 364.51 195.05 368.47 195.87 C 371.84 196.75 375.35 197.47 378.85 197.12 C 382.43 196.54 384.55 193.25 387.04 190.95 C 388.18 193.73 389.06 196.67 390.73 199.20 C 394.92 200.34 399.45 198.91 403.57 200.43 C 406.43 201.97 407.53 205.24 408.72 208.05 C 404.22 212.02 397.88 212.65 393.11 216.13 C 390.81 219.14 393.50 223.01 393.38 226.40 C 392.68 227.54 391.81 228.57 391.01 229.64 C 387.08 228.75 382.97 226.51 381.44 222.57 C 380.16 218.33 384.61 215.27 385.28 211.30 C 383.75 208.41 381.11 206.26 378.25 204.77 C 373.33 202.08 367.07 204.80 362.35 201.55 C 359.06 199.21 355.88 196.71 352.62 194.33 C 351.23 193.48 350.58 192.00 350.05 190.54 Z" />
<path fill="#c0d1ab" opacity="1.00" d=" M 288.35 224.17 C 291.29 223.04 296.96 222.84 297.42 227.02 C 298.08 233.62 294.16 239.54 293.55 246.00 C 293.44 251.77 296.87 256.82 297.49 262.48 C 293.75 262.78 290.76 260.20 288.26 257.76 C 284.22 253.52 280.58 248.61 279.04 242.87 C 276.84 235.39 282.26 227.97 288.35 224.17 Z" />
<path fill="#c0d1ab" opacity="1.00" d=" M 357.52 259.04 C 362.37 257.57 367.26 256.22 372.28 255.44 C 370.06 256.86 367.73 258.09 365.50 259.48 C 362.89 261.08 361.16 263.80 358.37 265.15 C 357.67 263.18 357.38 261.11 357.52 259.04 Z" />
</g>
<g id="#647a5dff">
<path fill="#647a5d" opacity="1.00" d=" M 237.92 39.33 C 238.89 35.77 239.23 31.17 243.07 29.46 C 246.30 29.37 248.81 32.23 250.17 34.89 C 251.49 38.81 249.87 42.94 249.39 46.88 C 252.93 46.43 256.52 45.55 259.37 43.29 C 263.98 39.75 268.03 34.89 273.99 33.65 C 276.95 33.75 280.00 34.74 282.34 36.60 C 285.67 39.88 287.28 44.99 291.90 46.87 C 300.74 51.59 310.95 48.78 320.22 47.22 C 326.00 46.53 332.91 44.73 337.58 49.37 C 342.45 53.04 341.90 59.68 341.52 65.07 C 343.03 62.47 344.44 59.53 347.16 58.00 C 349.53 56.73 352.29 57.27 354.79 57.78 C 353.61 62.53 349.60 66.54 350.46 71.72 C 350.74 74.39 351.44 78.79 354.97 78.62 C 360.78 77.95 362.59 69.31 368.96 70.48 C 371.96 70.54 375.07 72.28 375.97 75.29 C 377.97 81.34 374.00 87.75 376.46 93.75 C 379.80 92.75 383.70 90.32 386.89 93.02 C 394.54 98.47 395.48 108.70 396.58 117.27 C 396.93 124.71 398.49 132.69 403.88 138.19 C 408.14 140.81 412.79 142.80 417.02 145.50 C 420.64 144.00 423.38 140.93 427.09 139.61 C 431.53 139.71 433.45 144.44 435.37 147.73 C 440.62 159.30 443.60 171.95 443.79 184.68 C 444.98 193.10 442.71 201.41 441.01 209.59 C 439.57 216.52 436.19 223.12 430.94 227.92 C 429.48 229.29 427.53 229.89 425.72 230.61 C 426.27 224.75 421.39 219.92 416.00 218.72 C 408.82 219.38 401.14 223.67 399.10 231.01 C 397.87 234.06 398.88 237.33 399.68 240.34 C 397.93 241.42 395.87 242.63 393.89 241.29 C 387.05 237.69 378.80 235.40 374.28 228.65 C 370.18 222.84 365.63 217.36 361.05 211.93 C 358.14 208.45 354.28 206.03 350.63 203.42 C 346.51 200.50 344.43 195.65 340.63 192.41 C 334.38 186.98 325.70 184.41 317.51 185.81 C 309.60 187.24 301.56 191.08 297.43 198.30 C 294.01 203.46 294.54 209.90 294.73 215.78 C 298.40 217.25 302.50 220.26 306.52 218.36 C 310.23 216.75 313.96 215.21 317.58 213.41 C 323.34 210.46 327.46 204.95 333.58 202.62 C 335.19 201.97 337.02 202.40 338.16 203.71 C 347.00 212.57 355.12 222.22 364.90 230.09 C 370.68 236.01 377.65 240.80 385.62 243.22 C 385.50 245.24 386.11 247.70 384.46 249.26 C 383.39 250.43 382.18 251.46 381.00 252.52 C 385.73 252.56 391.15 251.68 395.15 254.84 C 397.79 257.41 399.83 261.10 399.19 264.90 C 398.22 270.57 400.74 276.53 398.03 281.93 C 395.38 287.43 390.74 292.87 384.46 294.02 C 384.37 289.31 388.03 286.36 390.95 283.27 C 388.83 275.30 380.34 271.40 373.03 269.34 C 373.52 273.69 376.77 276.62 379.29 279.87 C 381.41 285.09 380.22 291.41 377.04 295.96 C 372.09 301.52 363.82 302.57 356.93 300.64 C 349.62 298.95 343.89 293.77 339.27 288.12 C 340.83 294.68 342.47 301.27 343.23 307.98 C 343.49 312.46 342.56 318.01 338.13 320.23 C 331.77 323.28 324.13 323.05 317.62 320.59 C 314.65 319.51 313.05 316.56 312.03 313.77 C 308.28 303.50 309.76 292.26 306.71 281.84 C 306.04 279.89 304.78 278.18 303.27 276.81 C 301.44 275.10 298.72 275.61 296.44 275.37 C 294.84 282.85 294.94 290.62 296.08 298.15 C 297.69 312.34 301.03 326.72 298.32 340.99 C 297.44 345.85 298.25 351.12 295.77 355.59 C 294.38 358.65 291.90 360.97 289.23 362.91 C 285.11 359.12 284.10 353.15 285.87 347.97 C 288.69 340.48 288.05 332.04 285.17 324.67 C 281.96 314.84 273.82 307.79 269.59 298.46 C 275.84 298.20 282.10 294.01 284.05 287.99 C 285.25 285.03 282.76 282.00 279.88 281.49 C 275.37 281.41 271.69 284.41 268.82 287.56 C 262.40 285.69 255.68 282.82 251.82 277.07 C 248.16 271.77 244.55 266.15 243.41 259.70 C 241.72 250.73 239.11 241.74 239.79 232.53 C 240.10 228.29 240.96 223.34 238.29 219.69 C 234.16 216.60 228.70 213.02 223.37 215.16 C 218.32 217.62 214.79 222.32 209.84 224.97 C 205.06 227.51 200.20 229.95 195.16 231.91 C 189.69 233.43 183.90 233.51 178.50 235.37 C 169.76 238.12 160.33 236.75 151.70 239.96 C 141.66 242.37 131.32 244.52 120.94 243.66 C 116.96 243.45 113.02 242.84 109.08 242.24 C 100.02 240.71 91.84 236.02 84.75 230.33 C 81.42 227.50 78.42 224.02 76.94 219.86 C 76.67 215.66 79.90 212.37 81.33 208.65 C 81.86 207.35 81.12 205.90 80.21 204.97 C 74.61 202.14 67.79 202.15 62.67 198.31 C 59.55 195.10 58.41 189.80 60.64 185.79 C 62.78 181.77 66.91 179.48 70.41 176.81 C 67.09 171.47 64.80 165.08 66.38 158.76 C 66.49 155.62 69.44 153.79 72.08 152.83 C 75.80 152.68 79.11 154.82 82.31 156.46 C 78.15 152.05 73.27 148.22 70.12 142.96 C 71.70 141.80 73.31 140.67 74.93 139.57 C 77.68 140.55 80.44 141.49 83.18 142.48 C 81.56 139.00 79.96 135.51 78.44 131.98 C 79.77 131.02 80.89 129.34 82.72 129.49 C 84.89 129.16 88.24 129.90 89.07 127.19 C 90.23 122.31 88.61 117.16 89.96 112.30 C 92.28 108.53 96.60 110.73 99.65 112.09 C 101.69 113.36 103.27 110.82 104.14 109.30 C 108.32 102.25 106.00 93.17 110.91 86.44 C 113.06 86.55 115.58 85.93 117.29 87.62 C 120.34 89.62 123.24 93.80 127.37 92.33 C 132.61 89.30 134.29 83.01 138.16 78.70 C 142.30 77.84 143.58 83.42 145.75 86.00 C 145.35 81.27 144.04 76.68 143.61 71.95 C 143.45 69.48 144.44 66.37 147.06 65.57 C 149.63 65.88 151.85 67.39 154.11 68.55 C 155.05 65.97 156.28 63.50 157.79 61.22 C 159.34 62.35 160.87 63.52 162.35 64.75 C 162.72 60.78 163.23 56.17 166.59 53.52 C 169.64 52.09 174.01 51.84 176.40 54.63 C 179.56 57.95 181.14 62.34 182.87 66.49 C 183.30 66.49 184.15 66.50 184.58 66.51 C 187.95 62.67 190.03 58.00 191.82 53.27 C 192.91 50.21 195.36 48.02 198.02 46.31 C 200.25 47.18 202.62 47.92 204.44 49.54 C 207.80 52.32 209.20 56.59 210.93 60.43 C 211.75 60.48 212.58 60.53 213.40 60.59 C 216.77 55.13 219.17 49.12 222.74 43.78 C 224.69 40.87 227.44 38.09 231.02 37.45 C 233.42 37.60 235.67 38.55 237.92 39.33 M 262.16 55.16 C 259.24 58.02 254.41 60.26 254.56 64.97 C 254.73 71.02 258.42 76.13 260.30 81.71 C 261.72 85.36 258.75 89.28 255.54 90.81 C 253.29 92.32 250.83 90.24 249.11 88.85 C 245.15 85.59 245.17 78.94 239.98 77.02 C 238.24 76.42 235.73 75.62 234.40 77.39 C 229.59 82.85 229.62 91.15 224.30 96.26 C 220.86 99.63 215.96 97.05 211.84 98.06 C 206.21 99.20 200.90 101.70 195.10 102.00 C 196.15 98.78 197.70 95.58 197.64 92.12 C 197.70 89.59 195.37 87.38 192.90 87.28 C 188.57 86.73 183.75 87.45 180.44 90.48 C 177.61 93.67 177.20 98.22 174.70 101.62 C 172.29 104.86 169.57 107.89 166.58 110.60 C 165.59 111.73 164.03 111.58 162.68 111.77 C 162.20 104.48 161.75 97.12 160.05 89.99 C 159.65 88.03 158.22 86.58 156.99 85.11 C 152.23 91.24 150.52 99.35 151.24 106.99 C 151.57 112.79 152.86 120.26 146.94 123.82 C 141.69 113.61 145.33 100.98 138.86 91.21 C 137.35 92.20 135.80 93.30 135.08 95.04 C 131.84 101.86 130.98 109.55 131.27 117.02 C 131.49 121.78 135.71 125.89 134.21 130.80 C 132.77 133.81 129.15 133.30 126.41 133.60 C 122.77 133.70 119.69 136.11 116.09 136.34 C 110.50 133.77 108.19 127.52 105.75 122.30 C 105.34 121.00 104.12 120.39 103.02 119.78 C 101.86 126.76 105.46 134.04 102.76 140.79 C 99.44 146.72 91.43 144.83 86.26 147.98 C 85.83 154.74 95.45 156.75 99.35 152.33 C 103.72 147.96 109.69 145.13 115.92 145.07 C 118.58 145.01 121.76 146.91 121.64 149.85 C 120.03 152.14 117.33 153.47 115.97 155.95 C 114.53 160.49 116.86 165.24 116.11 169.85 C 115.13 171.86 113.84 173.70 112.78 175.67 C 115.11 174.45 117.51 172.95 120.27 173.46 C 122.71 173.30 126.40 174.48 127.52 171.48 C 130.01 164.34 127.02 156.46 129.52 149.29 C 130.44 146.42 133.57 145.40 135.90 143.96 C 139.99 141.86 142.90 138.17 146.61 135.54 C 150.51 132.67 155.10 130.89 158.88 127.85 C 160.97 126.27 162.81 124.29 165.19 123.13 C 168.90 122.80 172.75 123.83 176.35 122.49 C 179.92 121.39 182.51 118.55 185.61 116.63 C 188.99 115.64 193.02 117.42 196.02 115.05 C 198.43 113.53 200.38 111.12 203.18 110.31 C 207.53 109.43 209.77 114.21 213.37 115.54 C 217.91 116.49 220.89 111.81 225.09 111.26 C 228.75 111.32 231.39 114.49 234.89 115.20 C 238.20 113.62 239.12 109.66 240.84 106.72 C 242.34 109.45 243.37 113.72 247.18 113.82 C 252.90 114.35 254.22 107.38 256.89 103.72 C 259.29 106.79 261.52 110.44 265.43 111.74 C 271.92 114.44 278.78 111.89 285.15 110.15 C 290.39 108.93 292.03 103.13 294.41 99.02 C 296.53 101.42 298.21 104.29 300.83 106.19 C 303.44 107.21 306.41 106.23 308.43 104.43 C 313.68 100.05 316.70 93.77 319.97 87.91 C 324.41 79.60 329.87 71.69 332.76 62.64 C 333.50 59.97 334.50 55.60 330.83 54.73 C 327.08 53.51 326.44 58.06 325.27 60.50 C 323.34 65.11 320.47 71.34 314.49 70.73 C 313.73 66.74 313.86 62.64 313.20 58.65 C 312.81 56.58 309.75 55.35 308.53 57.37 C 306.08 60.59 303.97 64.21 300.26 66.17 C 300.42 63.31 301.99 60.17 300.73 57.43 C 297.86 54.53 293.84 53.23 290.09 51.88 C 291.15 57.45 291.96 63.20 289.87 68.66 C 291.92 71.10 294.08 73.58 294.96 76.73 C 290.19 80.04 284.88 82.48 279.69 85.05 C 280.59 77.18 285.09 69.62 283.28 61.55 C 281.72 57.07 278.63 52.14 273.44 51.62 C 269.31 50.67 265.11 52.22 262.16 55.16 M 333.97 78.87 C 330.95 83.78 327.30 88.41 325.38 93.90 C 327.13 95.30 329.39 93.63 331.21 93.10 C 336.21 91.38 337.91 85.76 338.74 81.06 C 339.50 75.97 340.92 70.98 341.27 65.84 C 338.53 70.01 336.81 74.76 333.97 78.87 M 340.92 87.02 C 340.99 91.30 343.05 95.15 344.85 98.92 C 340.39 99.89 335.29 99.47 331.63 102.63 C 332.74 105.50 334.63 108.81 333.03 111.87 C 330.02 115.80 324.66 116.11 320.14 116.71 C 318.09 117.10 315.35 117.18 314.25 119.28 C 314.33 123.12 315.92 126.71 316.90 130.37 C 322.89 131.67 328.62 129.06 334.17 127.21 C 338.21 125.70 342.66 125.07 346.19 122.43 C 343.51 120.65 341.15 118.31 341.47 114.82 C 343.38 114.78 345.39 115.28 347.26 114.75 C 350.05 113.24 351.82 110.39 354.57 108.83 C 360.04 107.72 366.01 108.15 370.94 105.08 C 370.38 104.62 369.26 103.69 368.70 103.23 C 366.28 103.70 363.89 104.49 361.41 104.47 C 358.99 103.39 357.68 100.94 356.23 98.87 C 359.01 92.16 363.96 86.65 366.85 79.99 C 363.91 80.49 360.65 80.45 358.08 82.11 C 355.11 85.60 352.94 89.86 348.99 92.44 C 348.19 91.41 347.12 90.40 347.26 88.97 C 346.74 83.67 348.64 78.03 346.21 73.02 C 343.38 77.16 340.98 81.89 340.92 87.02 M 377.41 111.51 C 375.66 118.55 373.82 125.60 371.20 132.38 C 368.08 132.75 364.72 132.86 361.98 131.07 C 359.71 129.69 356.38 127.69 357.43 124.53 C 360.84 120.17 367.81 118.89 369.16 113.02 C 364.26 111.73 359.11 112.77 354.40 114.34 C 349.78 116.13 348.83 121.55 347.54 125.75 C 346.84 128.89 345.43 132.57 347.27 135.58 C 354.62 143.39 368.05 142.23 374.08 151.66 C 372.43 151.63 370.77 151.62 369.14 151.42 C 364.47 150.81 360.98 146.21 356.08 146.74 C 352.12 147.18 352.60 152.16 351.27 154.99 C 349.36 155.43 347.39 155.73 345.61 156.56 C 342.95 158.82 341.36 162.13 338.37 164.04 C 338.06 162.11 337.32 160.05 338.10 158.13 C 339.54 153.81 343.73 151.16 345.36 146.98 C 344.61 142.46 338.94 142.27 335.62 140.40 C 335.42 136.94 335.15 133.49 334.63 130.06 C 329.47 131.77 324.69 134.43 319.82 136.80 C 316.94 138.29 313.97 141.27 314.59 144.77 C 316.10 149.68 319.80 153.64 321.02 158.68 C 322.13 163.68 320.98 168.86 321.82 173.89 C 322.78 177.64 327.08 178.57 330.22 179.78 C 334.78 180.99 339.22 182.83 343.92 183.43 C 346.54 182.65 347.98 179.78 350.57 178.80 C 353.49 177.83 356.69 177.83 359.54 176.60 C 361.57 175.16 362.76 172.55 362.14 170.08 C 361.86 166.92 360.09 162.56 363.99 160.90 C 367.93 159.72 371.96 162.26 376.02 161.91 C 383.15 162.64 389.83 156.17 389.53 149.06 C 389.94 142.53 386.81 136.49 386.65 130.03 C 386.45 122.77 387.08 115.49 386.48 108.24 C 386.27 105.28 385.07 102.50 383.16 100.24 C 380.23 103.39 378.25 107.29 377.41 111.51 M 202.45 138.45 C 199.26 143.11 199.88 150.29 194.51 153.49 C 186.73 158.60 176.40 155.36 168.80 160.79 C 164.50 163.46 159.98 165.97 156.39 169.60 C 154.91 170.76 155.14 173.17 156.37 174.41 C 159.77 178.14 163.60 181.77 168.32 183.70 C 172.47 184.89 174.06 179.85 176.81 177.81 C 185.16 170.71 194.20 164.45 203.20 158.18 C 206.37 155.70 210.72 156.15 214.11 154.15 C 215.72 153.25 217.24 152.18 218.98 151.54 C 223.25 152.36 227.20 154.29 230.94 156.44 C 229.31 161.79 223.24 163.72 219.99 167.94 C 222.97 166.96 225.84 165.69 228.81 164.68 C 230.86 163.92 233.18 163.40 234.53 161.52 C 236.00 160.26 237.18 157.49 239.52 158.29 C 244.85 159.71 249.73 162.57 255.18 163.63 C 261.05 165.05 267.18 164.88 273.06 163.63 C 276.25 167.62 278.20 172.38 280.81 176.73 C 286.43 171.96 291.14 165.40 291.77 157.86 C 287.92 155.22 283.65 153.26 279.33 151.53 C 275.04 149.61 270.88 147.40 266.43 145.88 C 261.89 144.50 258.10 141.43 253.51 140.18 C 248.55 138.33 243.20 138.58 238.00 138.50 C 231.31 138.53 224.68 137.39 217.99 137.55 C 212.83 137.68 207.43 136.76 202.45 138.45 M 399.48 143.37 C 395.95 145.97 394.73 150.73 395.00 154.94 C 395.11 158.08 396.00 161.89 393.31 164.28 C 385.45 171.14 373.64 169.24 365.41 175.44 C 363.23 177.39 362.68 180.75 363.54 183.45 C 365.91 186.56 370.13 188.66 374.00 187.22 C 378.38 185.86 379.96 181.02 383.56 178.62 C 388.21 176.15 393.19 178.96 397.79 180.08 C 401.89 181.35 406.85 181.83 409.60 185.54 C 410.15 187.65 409.84 189.88 410.30 192.01 C 411.99 195.64 415.28 198.77 419.45 199.03 C 419.76 195.59 419.08 191.84 420.62 188.65 C 423.88 184.70 429.69 185.25 433.73 182.56 C 434.33 181.49 434.54 180.34 434.34 179.12 C 433.68 173.05 425.09 171.32 420.92 174.91 C 418.96 175.99 416.54 178.54 414.23 176.88 C 411.65 172.04 410.92 166.44 408.38 161.56 C 405.81 156.51 405.05 150.86 403.59 145.46 C 403.35 143.66 401.08 142.01 399.48 143.37 M 76.51 167.00 C 79.74 172.72 86.05 175.35 91.06 179.18 C 89.97 180.96 89.12 183.18 87.03 184.01 C 83.09 185.59 78.83 186.33 74.98 188.19 C 79.48 189.98 84.36 189.06 89.06 189.29 C 94.13 189.32 99.11 190.51 103.93 192.00 C 110.15 193.82 114.78 198.59 120.34 201.67 C 131.11 207.69 140.35 217.04 152.92 219.28 C 147.78 221.00 142.32 220.32 137.00 220.55 C 130.39 220.83 123.41 220.66 117.43 217.49 C 112.36 214.56 112.43 207.56 107.81 204.21 C 103.82 201.14 98.86 199.85 93.97 199.09 C 90.75 198.62 87.99 196.80 84.97 195.76 C 82.31 194.95 79.62 196.01 77.12 196.85 C 83.93 202.20 93.31 202.63 99.86 208.48 C 99.95 213.38 95.02 215.17 91.43 217.12 C 96.04 217.96 100.76 218.71 104.99 220.85 C 108.71 222.47 112.13 224.81 116.04 226.00 C 120.62 227.02 125.37 226.57 130.00 226.21 C 140.63 225.01 151.34 225.41 162.01 225.28 C 166.67 225.23 171.25 224.20 175.64 222.68 C 182.25 219.88 189.53 224.03 196.06 220.69 C 195.58 219.40 195.46 217.68 193.92 217.18 C 183.62 212.27 172.06 216.57 161.26 214.57 C 155.25 213.89 150.00 210.75 144.48 208.57 C 133.80 204.43 122.97 199.47 114.90 191.11 C 106.31 181.52 95.45 174.39 85.02 166.99 C 82.72 165.42 77.64 163.32 76.51 167.00 M 350.05 190.54 C 350.58 192.00 351.23 193.48 352.62 194.33 C 355.88 196.71 359.06 199.21 362.35 201.55 C 367.07 204.80 373.33 202.08 378.25 204.77 C 381.11 206.26 383.75 208.41 385.28 211.30 C 384.61 215.27 380.16 218.33 381.44 222.57 C 382.97 226.51 387.08 228.75 391.01 229.64 C 391.81 228.57 392.68 227.54 393.38 226.40 C 393.50 223.01 390.81 219.14 393.11 216.13 C 397.88 212.65 404.22 212.02 408.72 208.05 C 407.53 205.24 406.43 201.97 403.57 200.43 C 399.45 198.91 394.92 200.34 390.73 199.20 C 389.06 196.67 388.18 193.73 387.04 190.95 C 384.55 193.25 382.43 196.54 378.85 197.12 C 375.35 197.47 371.84 196.75 368.47 195.87 C 364.51 195.05 362.73 191.00 360.02 188.44 C 356.65 188.90 353.31 189.57 350.05 190.54 M 288.35 224.17 C 282.26 227.97 276.84 235.39 279.04 242.87 C 280.58 248.61 284.22 253.52 288.26 257.76 C 290.76 260.20 293.75 262.78 297.49 262.48 C 296.87 256.82 293.44 251.77 293.55 246.00 C 294.16 239.54 298.08 233.62 297.42 227.02 C 296.96 222.84 291.29 223.04 288.35 224.17 M 357.52 259.04 C 357.38 261.11 357.67 263.18 358.37 265.15 C 361.16 263.80 362.89 261.08 365.50 259.48 C 367.73 258.09 370.06 256.86 372.28 255.44 C 367.26 256.22 362.37 257.57 357.52 259.04 Z" />
</g>
</svg>
