<?xml version="1.0" encoding="UTF-8" ?>
<!DOCTYPE svg PUBLIC "-//W3C//DTD SVG 1.1//EN" "http://www.w3.org/Graphics/SVG/1.1/DTD/svg11.dtd">
<svg width="584pt" height="300pt" viewBox="0 0 584 300" version="1.1" xmlns="http://www.w3.org/2000/svg">
<g id="#fcfef5ff">
<path fill="#fcfef5" opacity="1.00" d=" M 493.39 75.24 C 495.24 70.45 499.48 65.75 504.94 65.51 C 513.09 64.88 522.48 65.18 528.59 71.41 C 531.78 74.07 532.29 78.87 530.44 82.45 C 527.80 87.65 523.04 91.39 518.03 94.17 C 517.95 93.64 517.79 92.58 517.71 92.05 C 517.05 88.02 516.73 82.47 512.00 81.14 C 505.77 79.50 499.22 80.27 492.86 79.77 C 493.01 78.26 493.16 76.74 493.39 75.24 M 517.38 70.25 C 512.01 72.19 512.91 81.78 519.00 81.62 C 525.15 82.68 527.77 73.89 523.51 70.35 C 521.70 69.21 519.29 69.53 517.38 70.25 Z" />
</g>
<g id="#6a7c64ff">
<path fill="#6a7c64" opacity="1.00" d=" M 425.43 61.36 C 442.21 53.98 459.64 47.42 477.99 45.51 C 484.31 45.23 490.65 45.42 496.98 45.35 C 512.30 45.30 527.38 52.02 537.88 63.12 C 544.62 70.78 549.94 79.59 554.08 88.89 C 561.54 104.33 563.45 123.09 556.45 139.04 C 550.92 137.47 547.53 143.24 542.73 144.72 C 536.54 147.75 528.89 146.21 523.12 150.06 C 520.55 153.92 521.63 159.03 521.09 163.45 C 525.34 163.65 529.77 163.01 533.06 160.07 C 539.63 154.65 545.79 148.72 552.88 143.94 C 548.11 152.29 540.11 157.98 532.42 163.40 C 526.90 167.02 521.23 170.41 515.37 173.44 C 508.94 176.79 502.80 181.01 495.58 182.52 C 483.13 185.90 470.15 185.85 457.45 187.64 C 448.96 188.97 440.44 187.30 431.97 186.74 C 424.15 186.27 416.45 184.87 408.71 183.74 C 409.57 182.72 410.42 181.70 411.27 180.68 C 403.26 175.94 395.66 170.54 388.74 164.33 C 383.78 159.87 377.49 155.61 376.12 148.61 C 374.36 139.66 378.31 131.08 380.24 122.52 C 375.30 128.70 371.23 135.75 369.43 143.51 C 367.66 151.55 370.79 160.60 377.70 165.27 C 387.22 171.93 398.59 175.32 408.16 181.96 C 406.36 182.06 404.56 182.14 402.77 182.21 C 399.41 182.29 396.01 182.41 392.79 183.46 C 392.31 182.79 391.79 182.15 391.27 181.52 C 379.89 178.86 368.01 179.54 356.59 181.61 C 350.98 182.59 345.66 184.72 340.10 185.90 C 329.27 187.09 318.50 188.68 307.82 190.89 C 303.64 191.45 299.50 192.25 295.31 192.81 C 285.59 193.48 275.77 193.58 266.27 195.98 C 255.72 197.41 245.05 197.37 234.49 198.67 C 228.00 199.45 221.51 200.43 214.96 200.62 C 206.53 200.69 198.09 200.70 189.71 201.73 C 166.23 204.34 142.62 204.96 119.03 205.78 C 113.39 205.89 107.72 206.02 102.16 207.07 C 96.26 208.17 90.14 208.75 84.22 207.40 L 83.50 206.99 C 88.76 205.12 94.29 204.30 99.73 203.19 C 120.31 197.44 141.29 193.22 162.24 189.08 C 179.46 185.35 196.83 182.35 214.20 179.41 C 235.79 176.41 257.21 171.85 277.92 165.02 C 284.26 163.07 290.37 160.49 296.31 157.55 C 306.75 152.60 316.90 146.88 326.35 140.23 C 328.13 138.67 329.77 136.95 331.55 135.38 C 337.15 131.81 342.63 128.06 347.56 123.56 C 364.63 111.49 377.14 94.45 392.57 80.55 C 402.32 72.31 413.97 66.79 425.43 61.36 M 481.80 67.70 C 475.82 68.91 469.83 70.05 463.74 70.55 C 452.91 71.47 442.70 75.54 432.79 79.76 C 424.06 83.28 416.15 88.47 407.85 92.84 C 404.14 94.72 400.74 97.11 397.53 99.72 C 405.27 97.71 412.29 93.79 419.56 90.57 C 428.31 86.70 437.07 82.73 446.37 80.32 C 457.49 76.90 468.75 73.97 480.08 71.36 C 485.06 70.28 490.12 69.47 494.92 67.71 C 490.77 65.41 486.12 66.90 481.80 67.70 M 493.39 75.24 C 492.61 76.69 491.86 78.15 491.12 79.62 C 486.72 79.36 482.37 78.64 478.01 77.98 C 472.33 77.08 466.47 78.13 461.20 80.33 C 455.96 82.31 453.64 89.52 456.79 94.17 C 458.67 97.20 461.49 100.12 465.23 100.52 C 468.81 100.99 472.43 100.82 476.04 101.01 C 484.68 101.40 493.50 103.20 502.04 100.95 C 508.07 99.55 512.13 94.42 517.71 92.05 C 517.79 92.58 517.95 93.64 518.03 94.17 C 523.04 91.39 527.80 87.65 530.44 82.45 C 532.29 78.87 531.78 74.07 528.59 71.41 C 522.48 65.18 513.09 64.88 504.94 65.51 C 499.48 65.75 495.24 70.45 493.39 75.24 Z" />
<path fill="#6a7c64" opacity="1.00" d=" M 517.38 70.25 C 519.29 69.53 521.70 69.21 523.51 70.35 C 527.77 73.89 525.15 82.68 519.00 81.62 C 512.91 81.78 512.01 72.19 517.38 70.25 Z" />
</g>
<g id="#8d9e83ff">
<path fill="#8d9e83" opacity="1.00" d=" M 481.80 67.70 C 486.12 66.90 490.77 65.41 494.92 67.71 C 490.12 69.47 485.06 70.28 480.08 71.36 C 468.75 73.97 457.49 76.90 446.37 80.32 C 437.07 82.73 428.31 86.70 419.56 90.57 C 412.29 93.79 405.27 97.71 397.53 99.72 C 400.74 97.11 404.14 94.72 407.85 92.84 C 416.15 88.47 424.06 83.28 432.79 79.76 C 442.70 75.54 452.91 71.47 463.74 70.55 C 469.83 70.05 475.82 68.91 481.80 67.70 Z" />
<path fill="#8d9e83" opacity="1.00" d=" M 491.12 79.62 C 491.86 78.15 492.61 76.69 493.39 75.24 C 493.16 76.74 493.01 78.26 492.86 79.77 C 499.22 80.27 505.77 79.50 512.00 81.14 C 516.73 82.47 517.05 88.02 517.71 92.05 C 512.13 94.42 508.07 99.55 502.04 100.95 C 493.50 103.20 484.68 101.40 476.04 101.01 C 472.43 100.82 468.81 100.99 465.23 100.52 C 461.49 100.12 458.67 97.20 456.79 94.17 C 453.64 89.52 455.96 82.31 461.20 80.33 C 466.47 78.13 472.33 77.08 478.01 77.98 C 482.37 78.64 486.72 79.36 491.12 79.62 Z" />
<path fill="#8d9e83" opacity="1.00" d=" M 369.43 143.51 C 371.23 135.75 375.30 128.70 380.24 122.52 C 378.31 131.08 374.36 139.66 376.12 148.61 C 377.49 155.61 383.78 159.87 388.74 164.33 C 395.66 170.54 403.26 175.94 411.27 180.68 C 410.42 181.70 409.57 182.72 408.71 183.74 C 406.75 183.14 404.77 182.63 402.77 182.21 C 404.56 182.14 406.36 182.06 408.16 181.96 C 398.59 175.32 387.22 171.93 377.70 165.27 C 370.79 160.60 367.66 151.55 369.43 143.51 Z" />
<path fill="#8d9e83" opacity="1.00" d=" M 216.08 139.18 C 227.61 136.44 239.50 136.38 251.24 135.27 C 271.86 134.30 292.38 138.43 313.00 137.23 C 319.21 136.91 325.30 135.32 331.55 135.38 C 329.77 136.95 328.13 138.67 326.35 140.23 C 326.47 139.71 326.71 138.67 326.83 138.15 C 314.71 140.53 302.27 140.84 290.02 139.44 C 270.38 137.07 250.40 136.50 230.80 139.54 C 217.12 140.79 203.77 144.11 190.24 146.32 C 179.39 148.99 168.29 150.49 157.53 153.51 C 143.38 156.81 129.39 160.84 115.64 165.54 C 101.26 171.07 86.61 176.23 73.41 184.32 C 58.16 192.26 44.45 202.70 30.00 211.96 C 25.89 214.58 22.06 217.59 18.45 220.87 C 23.88 222.42 29.44 223.56 35.08 224.02 C 45.83 224.83 56.38 227.28 67.16 227.81 C 78.79 228.43 90.34 230.31 102.00 230.31 C 115.00 230.25 128.05 231.82 141.00 229.98 C 136.46 228.08 131.10 226.30 128.83 221.53 C 127.71 219.28 127.57 215.46 130.68 214.83 C 137.43 213.47 143.64 217.44 148.79 221.30 C 146.87 224.46 144.61 227.40 141.81 229.83 C 153.61 230.43 165.41 229.73 177.15 228.41 C 173.62 227.23 169.63 226.65 166.81 224.07 C 165.34 221.90 166.71 218.93 168.87 217.83 C 172.32 215.91 176.42 216.32 180.21 216.40 C 189.39 217.01 198.59 217.34 207.75 218.24 C 207.78 218.96 207.82 220.41 207.85 221.13 C 199.91 223.88 191.48 224.76 183.53 227.46 C 192.01 228.13 200.50 227.43 208.98 227.29 C 228.04 227.28 247.02 225.54 266.01 224.19 C 273.45 223.62 280.92 223.28 288.32 222.22 C 308.57 219.11 329.17 215.36 347.55 205.84 C 338.02 204.43 328.15 206.88 318.82 204.03 C 313.74 201.80 316.08 195.15 316.64 190.98 C 313.70 190.98 310.76 190.84 307.82 190.89 C 318.50 188.68 329.27 187.09 340.10 185.90 C 336.05 186.89 331.65 187.58 328.38 190.39 C 325.62 192.76 323.41 195.69 321.11 198.49 C 323.13 199.71 325.04 201.79 327.60 201.63 C 333.07 201.12 338.02 198.41 343.41 197.51 C 347.73 196.70 352.13 197.30 356.45 197.74 C 356.72 199.06 357.00 200.37 357.28 201.69 C 361.80 199.49 366.29 197.20 370.64 194.67 C 377.66 190.53 385.14 187.00 391.27 181.52 C 391.79 182.15 392.31 182.79 392.79 183.46 C 391.80 185.21 390.10 186.36 388.43 187.39 C 375.62 194.79 362.94 202.48 349.29 208.25 C 329.03 217.39 307.17 223.18 285.00 224.91 C 275.48 226.33 265.92 227.58 256.27 227.52 C 243.17 228.17 230.06 228.70 216.95 229.23 C 211.57 229.44 206.45 231.47 201.05 231.50 C 187.69 231.51 174.32 231.35 160.98 231.93 C 151.34 232.80 141.65 232.33 132.00 233.00 C 122.65 233.67 113.34 232.25 103.99 232.36 C 96.96 232.42 89.95 231.92 82.93 231.64 C 68.50 231.24 54.29 228.36 39.92 227.24 C 30.97 225.64 21.95 224.53 13.02 222.85 C 18.23 215.89 26.31 212.16 33.20 207.18 C 47.90 196.57 63.31 186.92 79.37 178.48 C 113.15 161.20 150.27 151.90 187.27 144.45 C 196.83 142.45 206.46 140.87 216.08 139.18 Z" />
<path fill="#8d9e83" opacity="1.00" d=" M 253.71 148.87 C 256.59 148.11 259.60 148.36 262.55 148.34 C 262.89 150.71 263.50 153.10 263.28 155.51 C 261.59 160.12 256.48 162.68 251.75 162.69 C 249.29 162.68 246.36 162.40 244.79 160.24 C 243.52 158.76 244.55 156.82 245.41 155.43 C 247.38 152.45 250.30 150.00 253.71 148.87 Z" />
<path fill="#8d9e83" opacity="1.00" d=" M 207.68 152.44 C 211.20 151.54 214.83 151.02 218.48 151.07 C 218.42 152.72 218.38 154.36 218.34 156.01 C 222.86 156.17 227.41 156.05 231.87 155.19 C 233.83 160.95 234.39 167.63 231.22 173.07 C 229.49 173.92 227.12 173.77 225.84 172.21 C 223.96 169.92 222.97 167.07 221.71 164.42 C 219.35 163.79 216.70 163.68 214.67 162.21 C 211.78 159.40 209.88 155.77 207.68 152.44 Z" />
<path fill="#8d9e83" opacity="1.00" d=" M 266.54 152.55 C 272.81 151.17 279.25 151.23 285.63 151.53 C 285.22 152.85 284.81 154.17 284.40 155.50 C 288.34 156.35 292.29 157.16 296.31 157.55 C 290.37 160.49 284.26 163.07 277.92 165.02 C 275.84 159.51 270.73 156.31 266.54 152.55 Z" />
<path fill="#8d9e83" opacity="1.00" d=" M 152.28 159.42 C 156.45 156.24 162.60 155.81 166.93 158.96 C 164.96 161.40 162.97 163.83 161.04 166.30 C 167.53 169.79 175.18 169.39 181.91 172.26 C 181.53 173.83 181.15 175.39 180.77 176.96 C 173.14 176.33 165.73 174.13 158.74 171.09 C 154.29 169.15 152.51 163.93 152.28 159.42 Z" />
<path fill="#8d9e83" opacity="1.00" d=" M 198.50 163.66 C 200.49 163.07 202.71 163.40 204.45 164.52 C 206.62 167.72 206.12 172.56 202.97 174.96 C 198.79 178.52 191.51 180.20 187.39 175.66 C 185.48 174.23 186.99 171.60 188.16 170.19 C 190.93 167.15 194.62 164.94 198.50 163.66 Z" />
<path fill="#8d9e83" opacity="1.00" d=" M 127.06 165.08 C 129.03 164.26 131.72 163.81 133.12 165.87 C 137.97 171.63 139.60 179.32 139.91 186.67 C 138.91 187.06 137.90 187.45 136.90 187.85 C 135.91 183.65 135.11 179.40 135.03 175.08 C 133.62 174.74 132.22 174.41 130.82 174.09 C 129.68 179.42 129.34 184.90 128.05 190.20 C 127.50 192.83 125.33 194.57 123.57 196.42 C 119.42 191.20 115.68 184.60 117.09 177.69 C 118.51 172.44 121.69 167.02 127.06 165.08 Z" />
<path fill="#8d9e83" opacity="1.00" d=" M 266.27 195.98 C 275.77 193.58 285.59 193.48 295.31 192.81 C 291.93 193.33 288.58 193.98 285.22 194.61 C 283.68 197.70 281.99 200.74 280.93 204.03 C 287.26 207.06 294.40 207.56 301.10 209.41 C 300.42 211.19 299.73 212.97 299.02 214.74 C 291.55 212.94 283.62 211.97 276.90 208.00 C 272.70 205.51 271.80 200.34 270.38 196.08 C 269.00 196.03 267.63 195.98 266.27 195.98 Z" />
<path fill="#8d9e83" opacity="1.00" d=" M 81.99 193.54 C 88.19 196.22 93.87 199.88 99.73 203.19 C 94.29 204.30 88.76 205.12 83.50 206.99 C 82.11 205.18 80.55 203.23 80.33 200.88 C 80.44 198.35 81.32 195.95 81.99 193.54 Z" />
<path fill="#8d9e83" opacity="1.00" d=" M 189.71 201.73 C 198.09 200.70 206.53 200.69 214.96 200.62 C 213.38 202.91 211.82 205.22 210.30 207.55 C 212.84 208.33 215.39 209.61 218.12 209.27 C 223.78 208.52 228.96 205.75 234.65 205.14 C 238.35 204.73 242.01 205.68 245.62 206.36 C 245.60 208.06 245.58 209.76 245.57 211.47 C 237.34 212.85 228.99 213.17 220.66 213.30 C 216.13 213.32 211.42 213.45 207.14 211.75 C 203.25 210.16 204.82 205.10 204.31 201.83 C 199.44 201.68 194.57 201.51 189.71 201.73 Z" />
<path fill="#8d9e83" opacity="1.00" d=" M 102.16 207.07 C 107.72 206.02 113.39 205.89 119.03 205.78 C 113.87 206.44 108.76 207.46 103.63 208.31 C 107.91 212.17 111.92 216.32 115.41 220.92 C 103.78 219.84 94.10 212.94 84.22 207.40 C 90.14 208.75 96.26 208.17 102.16 207.07 Z" />
<path fill="#8d9e83" opacity="1.00" d=" M 58.08 214.11 C 62.08 210.28 68.25 208.73 73.67 209.45 C 78.12 211.22 80.10 216.18 80.32 220.68 C 79.61 220.65 78.18 220.59 77.47 220.57 C 75.98 218.04 74.40 215.56 72.77 213.13 C 70.01 216.58 69.08 221.09 66.57 224.62 C 61.11 225.80 55.38 219.17 58.08 214.11 Z" />
<path fill="#8d9e83" opacity="1.00" d=" M 240.49 221.28 C 243.04 215.26 248.69 211.03 254.91 209.43 C 257.45 209.91 259.84 211.83 260.65 214.32 C 261.30 217.90 258.81 221.52 255.55 222.88 C 250.59 224.65 244.92 224.20 240.49 221.28 Z" />
</g>
<g id="#c8d9b6ff">
<path fill="#c8d9b6" opacity="1.00" d=" M 230.80 139.54 C 250.40 136.50 270.38 137.07 290.02 139.44 C 302.27 140.84 314.71 140.53 326.83 138.15 C 326.71 138.67 326.47 139.71 326.35 140.23 C 316.90 146.88 306.75 152.60 296.31 157.55 C 292.29 157.16 288.34 156.35 284.40 155.50 C 284.81 154.17 285.22 152.85 285.63 151.53 C 279.25 151.23 272.81 151.17 266.54 152.55 C 270.73 156.31 275.84 159.51 277.92 165.02 C 257.21 171.85 235.79 176.41 214.20 179.41 C 196.83 182.35 179.46 185.35 162.24 189.08 C 141.29 193.22 120.31 197.44 99.73 203.19 C 93.87 199.88 88.19 196.22 81.99 193.54 C 81.32 195.95 80.44 198.35 80.33 200.88 C 80.55 203.23 82.11 205.18 83.50 206.99 L 84.22 207.40 C 94.10 212.94 103.78 219.84 115.41 220.92 C 111.92 216.32 107.91 212.17 103.63 208.31 C 108.76 207.46 113.87 206.44 119.03 205.78 C 142.62 204.96 166.23 204.34 189.71 201.73 C 194.57 201.51 199.44 201.68 204.31 201.83 C 204.82 205.10 203.25 210.16 207.14 211.75 C 211.42 213.45 216.13 213.32 220.66 213.30 C 228.99 213.17 237.34 212.85 245.57 211.47 C 245.58 209.76 245.60 208.06 245.62 206.36 C 242.01 205.68 238.35 204.73 234.65 205.14 C 228.96 205.75 223.78 208.52 218.12 209.27 C 215.39 209.61 212.84 208.33 210.30 207.55 C 211.82 205.22 213.38 202.91 214.96 200.62 C 221.51 200.43 228.00 199.45 234.49 198.67 C 245.05 197.37 255.72 197.41 266.27 195.98 C 267.63 195.98 269.00 196.03 270.38 196.08 C 271.80 200.34 272.70 205.51 276.90 208.00 C 283.62 211.97 291.55 212.94 299.02 214.74 C 299.73 212.97 300.42 211.19 301.10 209.41 C 294.40 207.56 287.26 207.06 280.93 204.03 C 281.99 200.74 283.68 197.70 285.22 194.61 C 288.58 193.98 291.93 193.33 295.31 192.81 C 299.50 192.25 303.64 191.45 307.82 190.89 C 310.76 190.84 313.70 190.98 316.64 190.98 C 316.08 195.15 313.74 201.80 318.82 204.03 C 328.15 206.88 338.02 204.43 347.55 205.84 C 329.17 215.36 308.57 219.11 288.32 222.22 C 280.92 223.28 273.45 223.62 266.01 224.19 C 247.02 225.54 228.04 227.28 208.98 227.29 C 200.50 227.43 192.01 228.13 183.53 227.46 C 191.48 224.76 199.91 223.88 207.85 221.13 C 207.82 220.41 207.78 218.96 207.75 218.24 C 198.59 217.34 189.39 217.01 180.21 216.40 C 176.42 216.32 172.32 215.91 168.87 217.83 C 166.71 218.93 165.34 221.90 166.81 224.07 C 169.63 226.65 173.62 227.23 177.15 228.41 C 165.41 229.73 153.61 230.43 141.81 229.83 C 144.61 227.40 146.87 224.46 148.79 221.30 C 143.64 217.44 137.43 213.47 130.68 214.83 C 127.57 215.46 127.71 219.28 128.83 221.53 C 131.10 226.30 136.46 228.08 141.00 229.98 C 128.05 231.82 115.00 230.25 102.00 230.31 C 90.34 230.31 78.79 228.43 67.16 227.81 C 56.38 227.28 45.83 224.83 35.08 224.02 C 29.44 223.56 23.88 222.42 18.45 220.87 C 22.06 217.59 25.89 214.58 30.00 211.96 C 44.45 202.70 58.16 192.26 73.41 184.32 C 86.61 176.23 101.26 171.07 115.64 165.54 C 129.39 160.84 143.38 156.81 157.53 153.51 C 168.29 150.49 179.39 148.99 190.24 146.32 C 203.77 144.11 217.12 140.79 230.80 139.54 M 253.71 148.87 C 250.30 150.00 247.38 152.45 245.41 155.43 C 244.55 156.82 243.52 158.76 244.79 160.24 C 246.36 162.40 249.29 162.68 251.75 162.69 C 256.48 162.68 261.59 160.12 263.28 155.51 C 263.50 153.10 262.89 150.71 262.55 148.34 C 259.60 148.36 256.59 148.11 253.71 148.87 M 207.68 152.44 C 209.88 155.77 211.78 159.40 214.67 162.21 C 216.70 163.68 219.35 163.79 221.71 164.42 C 222.97 167.07 223.96 169.92 225.84 172.21 C 227.12 173.77 229.49 173.92 231.22 173.07 C 234.39 167.63 233.83 160.95 231.87 155.19 C 227.41 156.05 222.86 156.17 218.34 156.01 C 218.38 154.36 218.42 152.72 218.48 151.07 C 214.83 151.02 211.20 151.54 207.68 152.44 M 152.28 159.42 C 152.51 163.93 154.29 169.15 158.74 171.09 C 165.73 174.13 173.14 176.33 180.77 176.96 C 181.15 175.39 181.53 173.83 181.91 172.26 C 175.18 169.39 167.53 169.79 161.04 166.30 C 162.97 163.83 164.96 161.40 166.93 158.96 C 162.60 155.81 156.45 156.24 152.28 159.42 M 198.50 163.66 C 194.62 164.94 190.93 167.15 188.16 170.19 C 186.99 171.60 185.48 174.23 187.39 175.66 C 191.51 180.20 198.79 178.52 202.97 174.96 C 206.12 172.56 206.62 167.72 204.45 164.52 C 202.71 163.40 200.49 163.07 198.50 163.66 M 127.06 165.08 C 121.69 167.02 118.51 172.44 117.09 177.69 C 115.68 184.60 119.42 191.20 123.57 196.42 C 125.33 194.57 127.50 192.83 128.05 190.20 C 129.34 184.90 129.68 179.42 130.82 174.09 C 132.22 174.41 133.62 174.74 135.03 175.08 C 135.11 179.40 135.91 183.65 136.90 187.85 C 137.90 187.45 138.91 187.06 139.91 186.67 C 139.60 179.32 137.97 171.63 133.12 165.87 C 131.72 163.81 129.03 164.26 127.06 165.08 M 58.08 214.11 C 55.38 219.17 61.11 225.80 66.57 224.62 C 69.08 221.09 70.01 216.58 72.77 213.13 C 74.40 215.56 75.98 218.04 77.47 220.57 C 78.18 220.59 79.61 220.65 80.32 220.68 C 80.10 216.18 78.12 211.22 73.67 209.45 C 68.25 208.73 62.08 210.28 58.08 214.11 M 240.49 221.28 C 244.92 224.20 250.59 224.65 255.55 222.88 C 258.81 221.52 261.30 217.90 260.65 214.32 C 259.84 211.83 257.45 209.91 254.91 209.43 C 248.69 211.03 243.04 215.26 240.49 221.28 Z" />
<path fill="#c8d9b6" opacity="1.00" d=" M 356.59 181.61 C 368.01 179.54 379.89 178.86 391.27 181.52 C 385.14 187.00 377.66 190.53 370.64 194.67 C 366.29 197.20 361.80 199.49 357.28 201.69 C 357.00 200.37 356.72 199.06 356.45 197.74 C 352.13 197.30 347.73 196.70 343.41 197.51 C 338.02 198.41 333.07 201.12 327.60 201.63 C 325.04 201.79 323.13 199.71 321.11 198.49 C 323.41 195.69 325.62 192.76 328.38 190.39 C 331.65 187.58 336.05 186.89 340.10 185.90 C 345.66 184.72 350.98 182.59 356.59 181.61 Z" />
</g>
</svg>
