<?xml version="1.0" encoding="UTF-8" ?>
<!DOCTYPE svg PUBLIC "-//W3C//DTD SVG 1.1//EN" "http://www.w3.org/Graphics/SVG/1.1/DTD/svg11.dtd">
<svg width="584pt" height="300pt" viewBox="0 0 584 300" version="1.1" xmlns="http://www.w3.org/2000/svg">
<g id="#fcfef5ff">
<path fill="#fcfef5" opacity="1.00" d=" M 0.00 0.00 L 584.00 0.00 L 584.00 300.00 L 0.00 300.00 L 0.00 0.00 M 471.70 46.40 C 468.56 47.09 465.39 47.58 462.24 48.14 C 457.11 48.95 452.43 51.30 447.44 52.60 C 436.98 56.39 426.57 60.43 416.68 65.56 C 404.96 71.18 393.74 78.28 384.97 87.99 C 377.78 94.79 371.77 102.74 364.25 109.22 C 360.22 112.52 356.87 116.59 352.60 119.62 C 346.23 124.17 340.67 129.76 334.07 134.02 C 329.54 134.61 325.17 135.97 320.64 136.56 C 306.83 138.64 292.85 137.13 279.01 136.28 C 265.38 134.98 251.62 135.01 238.01 136.41 C 226.19 136.60 214.77 139.89 203.12 141.48 C 197.25 142.42 191.53 144.10 185.61 144.80 C 178.98 146.06 172.48 147.93 165.80 148.97 C 157.76 151.48 149.34 152.48 141.40 155.32 C 132.99 157.11 124.92 160.09 116.79 162.86 C 87.05 172.49 59.74 188.34 34.40 206.44 C 27.16 211.51 19.26 215.80 13.01 222.14 C 16.94 224.48 21.65 224.13 26.02 224.78 C 31.31 225.41 36.41 227.15 41.75 227.43 C 52.86 228.08 63.82 230.20 74.91 231.11 C 103.57 232.82 132.32 233.34 161.00 231.73 C 175.36 231.71 189.68 230.74 204.02 230.08 C 220.85 228.47 237.77 228.77 254.61 227.53 C 263.27 227.53 271.91 226.70 280.46 225.38 C 289.75 223.85 299.28 223.93 308.39 221.35 C 338.32 215.62 365.77 201.38 391.36 185.30 C 392.85 184.30 394.10 183.00 395.35 181.72 C 406.62 182.76 417.62 185.70 428.93 186.44 C 435.96 186.91 442.96 187.91 449.99 188.33 C 460.33 187.51 470.63 186.04 480.99 185.35 C 485.74 184.95 490.30 183.49 494.97 182.65 C 502.48 181.46 508.67 176.72 515.32 173.41 C 521.06 170.66 526.44 167.25 531.78 163.81 C 539.76 158.34 548.12 152.62 552.76 143.83 C 547.60 147.97 542.20 151.84 537.44 156.46 C 533.03 160.59 527.52 164.74 521.08 163.35 C 521.37 159.59 521.32 155.81 521.76 152.06 C 522.75 148.91 526.52 148.29 529.34 147.74 C 534.71 147.28 540.04 146.03 544.95 143.79 C 547.90 142.26 550.38 140.00 553.06 138.07 C 554.06 138.55 555.06 139.06 556.06 139.57 C 561.25 128.37 561.88 115.39 559.24 103.45 C 556.28 92.53 551.38 82.12 545.15 72.69 C 541.30 67.91 538.28 62.30 533.19 58.66 C 521.97 48.95 506.69 44.54 492.00 45.25 C 485.23 45.39 478.34 44.77 471.70 46.40 Z" />
<path fill="#fcfef5" opacity="1.00" d=" M 493.16 75.23 C 495.56 70.69 499.41 65.73 504.96 65.41 C 511.82 65.00 519.26 65.02 525.28 68.80 C 528.55 70.70 531.78 73.92 531.51 78.00 C 531.59 81.78 528.98 84.90 526.64 87.60 C 524.02 90.14 521.39 93.28 517.52 93.71 L 517.44 92.48 C 517.12 88.64 517.41 83.63 513.21 81.79 C 506.95 78.82 499.68 81.35 493.06 79.80 C 493.07 78.28 493.08 76.75 493.16 75.23 M 517.31 70.23 C 511.96 72.24 512.98 81.88 518.98 81.68 C 524.05 82.41 527.26 76.20 524.86 72.07 C 523.69 68.97 519.86 69.25 517.31 70.23 Z" />
</g>
<g id="#6a7c64ff">
<path fill="#6a7c64" opacity="1.00" d=" M 471.70 46.40 C 478.34 44.77 485.23 45.39 492.00 45.25 C 506.69 44.54 521.97 48.95 533.19 58.66 C 538.28 62.30 541.30 67.91 545.15 72.69 C 551.38 82.12 556.28 92.53 559.24 103.45 C 561.88 115.39 561.25 128.37 556.06 139.57 C 555.06 139.06 554.06 138.55 553.06 138.07 C 550.38 140.00 547.90 142.26 544.95 143.79 C 540.04 146.03 534.71 147.28 529.34 147.74 C 526.52 148.29 522.75 148.91 521.76 152.06 C 521.32 155.81 521.37 159.59 521.08 163.35 C 527.52 164.74 533.03 160.59 537.44 156.46 C 542.20 151.84 547.60 147.97 552.76 143.83 C 548.12 152.62 539.76 158.34 531.78 163.81 C 526.44 167.25 521.06 170.66 515.32 173.41 C 508.67 176.72 502.48 181.46 494.97 182.65 C 490.30 183.49 485.74 184.95 480.99 185.35 C 470.63 186.04 460.33 187.51 449.99 188.33 C 442.96 187.91 435.96 186.91 428.93 186.44 C 417.62 185.70 406.62 182.76 395.35 181.72 C 393.99 181.50 392.64 181.27 391.27 181.09 C 381.15 179.85 370.87 179.03 360.77 180.94 C 353.66 181.60 346.99 184.18 340.19 186.13 C 328.58 186.71 317.31 189.63 305.78 190.84 C 302.74 191.23 299.76 191.98 296.77 192.63 C 292.81 193.00 288.85 193.40 284.88 193.65 C 275.09 194.11 265.39 195.53 255.74 197.14 C 241.97 197.20 228.34 199.12 214.67 200.56 C 206.35 201.11 197.98 200.48 189.71 201.81 C 169.85 203.73 149.93 204.81 129.99 205.41 C 122.37 205.34 114.80 206.26 107.21 206.68 C 99.59 207.27 91.91 209.28 84.29 207.47 L 83.57 207.05 C 88.61 204.46 94.42 204.68 99.77 203.11 C 108.20 200.93 116.56 198.29 125.23 197.23 C 129.02 196.77 132.63 195.51 136.20 194.22 C 145.30 192.59 154.27 190.31 163.44 189.02 C 170.55 186.89 177.92 186.05 185.22 184.80 C 194.25 181.87 203.89 182.07 213.00 179.40 C 234.91 176.54 256.64 172.00 277.64 165.04 C 283.99 162.88 290.22 160.40 296.22 157.38 C 306.83 152.77 316.84 146.79 326.34 140.22 C 329.00 138.25 331.43 136.01 334.07 134.02 C 340.67 129.76 346.23 124.17 352.60 119.62 C 356.87 116.59 360.22 112.52 364.25 109.22 C 371.77 102.74 377.78 94.79 384.97 87.99 C 393.74 78.28 404.96 71.18 416.68 65.56 C 426.57 60.43 436.98 56.39 447.44 52.60 C 452.43 51.30 457.11 48.95 462.24 48.14 C 465.39 47.58 468.56 47.09 471.70 46.40 M 466.23 70.53 C 450.78 71.58 436.37 77.96 422.66 84.73 C 414.09 89.75 405.11 94.18 396.96 99.86 C 402.77 98.56 407.96 95.54 413.41 93.29 C 425.29 87.65 437.38 82.26 450.17 79.02 C 464.67 75.28 479.00 70.65 493.86 68.46 C 493.72 67.94 493.45 66.89 493.31 66.37 C 484.16 66.86 475.32 69.58 466.23 70.53 M 493.16 75.23 C 492.46 76.62 491.80 78.03 491.16 79.45 C 485.97 80.27 481.19 77.48 476.07 77.37 C 471.72 77.19 467.40 78.04 463.23 79.17 C 458.10 80.33 454.80 85.85 455.18 90.91 C 456.13 94.38 458.22 97.74 461.26 99.74 C 465.28 101.72 469.93 101.23 474.28 101.31 C 482.01 101.13 489.69 103.32 497.41 102.16 C 501.26 101.56 505.13 100.53 508.52 98.55 C 511.64 96.72 513.59 92.97 517.44 92.48 L 517.52 93.71 C 521.39 93.28 524.02 90.14 526.64 87.60 C 528.98 84.90 531.59 81.78 531.51 78.00 C 531.78 73.92 528.55 70.70 525.28 68.80 C 519.26 65.02 511.82 65.00 504.96 65.41 C 499.41 65.73 495.56 70.69 493.16 75.23 M 369.69 143.49 C 368.01 151.41 370.83 160.64 377.83 165.15 C 383.86 169.08 390.27 172.44 396.88 175.30 C 401.62 177.57 405.82 181.17 411.17 181.97 C 409.92 179.49 407.33 178.33 405.09 176.94 C 401.59 174.84 398.13 172.63 395.10 169.89 C 389.02 164.32 381.78 159.77 377.21 152.74 C 374.90 149.27 375.42 144.93 375.68 141.00 C 376.01 134.61 379.45 128.94 380.08 122.61 C 375.40 128.83 371.41 135.84 369.69 143.49 Z" />
<path fill="#6a7c64" opacity="1.00" d=" M 517.31 70.23 C 519.86 69.25 523.69 68.97 524.86 72.07 C 527.26 76.20 524.05 82.41 518.98 81.68 C 512.98 81.88 511.96 72.24 517.31 70.23 Z" />
</g>
<g id="#9baf8dff">
<path fill="#9baf8d" opacity="1.00" d=" M 466.23 70.53 C 475.32 69.58 484.16 66.86 493.31 66.37 C 493.45 66.89 493.72 67.94 493.86 68.46 C 479.00 70.65 464.67 75.28 450.17 79.02 C 437.38 82.26 425.29 87.65 413.41 93.29 C 407.96 95.54 402.77 98.56 396.96 99.86 C 405.11 94.18 414.09 89.75 422.66 84.73 C 436.37 77.96 450.78 71.58 466.23 70.53 Z" />
<path fill="#9baf8d" opacity="1.00" d=" M 369.69 143.49 C 371.41 135.84 375.40 128.83 380.08 122.61 C 379.45 128.94 376.01 134.61 375.68 141.00 C 375.42 144.93 374.90 149.27 377.21 152.74 C 381.78 159.77 389.02 164.32 395.10 169.89 C 398.13 172.63 401.59 174.84 405.09 176.94 C 407.33 178.33 409.92 179.49 411.17 181.97 C 405.82 181.17 401.62 177.57 396.88 175.30 C 390.27 172.44 383.86 169.08 377.83 165.15 C 370.83 160.64 368.01 151.41 369.69 143.49 Z" />
<path fill="#9baf8d" opacity="1.00" d=" M 246.09 154.08 C 249.95 149.22 256.39 147.02 262.43 148.48 C 262.85 150.80 263.83 153.15 263.45 155.54 C 261.92 159.89 257.21 162.55 252.74 162.65 C 249.93 162.76 246.61 162.72 244.70 160.31 C 242.67 158.35 244.81 155.77 246.09 154.08 Z" />
<path fill="#9baf8d" opacity="1.00" d=" M 207.44 152.72 C 210.77 150.30 214.90 150.89 218.72 151.30 C 218.59 152.84 218.45 154.37 218.32 155.92 C 222.83 156.60 227.33 155.73 231.78 154.99 C 234.65 160.85 234.02 167.73 231.51 173.60 C 229.54 173.46 227.19 173.92 225.64 172.37 C 223.53 170.17 222.83 167.08 221.68 164.35 C 219.47 163.93 216.93 164.22 214.98 162.99 C 212.05 159.90 209.97 156.12 207.44 152.72 Z" />
<path fill="#9baf8d" opacity="1.00" d=" M 266.73 152.28 C 273.05 150.58 279.66 151.11 286.10 151.70 C 285.54 152.92 284.98 154.16 284.43 155.39 C 288.33 156.22 292.24 157.04 296.22 157.38 C 290.22 160.40 283.99 162.88 277.64 165.04 C 276.76 158.82 269.46 157.42 266.73 152.28 Z" />
<path fill="#9baf8d" opacity="1.00" d=" M 154.63 157.65 C 158.69 156.20 164.13 155.58 166.90 159.66 C 165.06 161.54 163.23 163.42 161.39 165.30 C 162.59 166.49 163.71 168.03 165.53 168.22 C 170.49 169.22 175.69 169.49 180.36 171.60 C 183.00 172.28 181.28 175.30 181.01 177.07 C 173.27 176.63 165.80 174.19 158.70 171.21 C 154.59 169.67 152.80 165.01 152.27 160.99 C 151.82 159.32 153.36 158.30 154.63 157.65 Z" />
<path fill="#9baf8d" opacity="1.00" d=" M 198.46 163.56 C 200.51 163.03 202.76 163.29 204.61 164.33 C 206.91 167.60 206.57 172.80 203.14 175.15 C 200.40 176.97 197.20 178.87 193.77 178.22 C 190.86 177.76 187.39 176.86 185.94 174.02 C 187.59 168.43 193.46 165.56 198.46 163.56 Z" />
<path fill="#9baf8d" opacity="1.00" d=" M 118.22 174.10 C 120.16 168.84 124.98 164.33 130.79 164.24 C 134.34 165.56 135.90 169.47 137.33 172.68 C 139.25 177.99 141.25 184.10 138.35 189.44 C 135.37 185.03 135.31 179.63 134.48 174.57 C 133.33 174.43 132.18 174.29 131.03 174.15 C 129.33 181.37 129.03 188.90 126.24 195.85 C 129.54 195.18 132.86 194.68 136.20 194.22 C 132.63 195.51 129.02 196.77 125.23 197.23 C 118.34 192.10 114.27 182.20 118.22 174.10 Z" />
<path fill="#9baf8d" opacity="1.00" d=" M 305.78 190.84 C 317.31 189.63 328.58 186.71 340.19 186.13 C 336.78 187.05 333.14 187.38 330.00 189.07 C 326.40 191.68 324.02 195.57 321.44 199.12 C 323.32 200.08 325.16 201.67 327.42 201.37 C 333.40 200.84 338.88 198.06 344.75 196.97 C 348.73 196.25 352.74 197.17 356.68 197.69 C 356.79 199.08 356.91 200.46 357.02 201.85 C 353.88 203.33 350.75 204.82 347.59 206.25 C 339.44 204.69 331.14 206.29 322.94 205.24 C 320.41 204.92 317.06 204.69 316.00 201.90 C 314.59 198.34 315.90 194.48 316.45 190.88 C 309.84 190.90 303.39 192.68 296.77 192.63 C 299.76 191.98 302.74 191.23 305.78 190.84 Z" />
<path fill="#9baf8d" opacity="1.00" d=" M 80.54 193.18 C 87.94 194.13 93.08 200.35 99.77 203.11 C 94.42 204.68 88.61 204.46 83.57 207.05 C 82.01 205.37 80.42 203.59 79.69 201.38 C 79.42 198.62 80.13 195.89 80.54 193.18 Z" />
<path fill="#9baf8d" opacity="1.00" d=" M 255.74 197.14 C 265.39 195.53 275.09 194.11 284.88 193.65 C 285.11 197.03 283.56 199.99 281.24 202.34 C 281.24 202.90 281.23 204.02 281.23 204.58 C 288.04 206.47 295.17 207.18 301.76 209.85 C 300.81 211.51 299.85 213.17 298.88 214.82 C 291.20 213.02 282.98 212.16 276.22 207.76 C 272.28 205.34 271.66 200.39 270.36 196.36 C 265.51 196.92 260.63 197.15 255.74 197.14 Z" />
<path fill="#9baf8d" opacity="1.00" d=" M 189.71 201.81 C 197.98 200.48 206.35 201.11 214.67 200.56 C 213.33 202.94 212.06 205.37 210.89 207.85 C 213.71 208.97 216.80 209.75 219.81 208.79 C 228.10 206.96 237.14 202.08 245.43 206.61 C 245.73 208.21 245.82 209.83 245.96 211.45 C 238.63 213.37 231.04 213.37 223.52 213.39 C 218.02 213.38 212.22 214.15 207.00 212.01 C 203.01 210.36 204.55 205.37 204.48 202.03 C 199.56 201.81 194.63 201.60 189.71 201.81 Z" />
<path fill="#9baf8d" opacity="1.00" d=" M 84.29 207.47 C 91.91 209.28 99.59 207.27 107.21 206.68 C 106.07 207.18 104.93 207.70 103.81 208.25 C 107.52 212.57 112.53 215.61 115.68 220.43 C 103.89 220.72 94.20 212.75 84.29 207.47 Z" />
<path fill="#9baf8d" opacity="1.00" d=" M 61.52 211.46 C 65.48 209.61 70.16 208.08 74.48 209.60 C 77.91 212.06 81.08 216.29 79.99 220.75 C 79.34 220.75 78.06 220.74 77.42 220.74 C 76.03 218.29 74.57 215.88 72.97 213.57 C 69.33 216.39 69.68 221.64 66.66 224.78 C 61.81 225.92 57.78 221.41 56.93 217.00 C 56.82 214.26 59.25 212.43 61.52 211.46 Z" />
<path fill="#9baf8d" opacity="1.00" d=" M 240.60 221.16 C 242.37 214.86 248.58 211.63 254.16 209.27 C 258.50 209.03 262.45 214.24 260.38 218.38 C 258.03 223.47 251.56 224.08 246.61 223.84 C 244.26 223.97 242.39 222.45 240.60 221.16 Z" />
<path fill="#9baf8d" opacity="1.00" d=" M 127.68 216.10 C 129.56 215.28 131.45 213.75 133.62 214.33 C 138.75 215.32 144.79 216.49 147.78 221.28 C 147.98 223.77 147.35 227.06 144.52 227.73 C 140.21 229.77 134.94 228.83 131.64 225.36 C 128.61 223.25 127.93 219.53 127.68 216.10 Z" />
<path fill="#9baf8d" opacity="1.00" d=" M 165.93 222.86 C 165.61 218.80 169.81 216.08 173.51 216.31 C 182.49 216.29 191.47 216.67 200.43 217.18 C 203.48 217.30 206.45 218.05 209.31 219.10 C 207.34 221.10 204.97 222.82 202.13 223.23 C 192.76 224.73 183.52 227.46 173.97 227.43 C 170.81 227.46 167.03 226.06 165.93 222.86 Z" />
</g>
<g id="#82927bff">
<path fill="#82927b" opacity="1.00" d=" M 491.16 79.45 C 491.80 78.03 492.46 76.62 493.16 75.23 C 493.08 76.75 493.07 78.28 493.06 79.80 C 499.68 81.35 506.95 78.82 513.21 81.79 C 517.41 83.63 517.12 88.64 517.44 92.48 C 513.59 92.97 511.64 96.72 508.52 98.55 C 505.13 100.53 501.26 101.56 497.41 102.16 C 489.69 103.32 482.01 101.13 474.28 101.31 C 469.93 101.23 465.28 101.72 461.26 99.74 C 458.22 97.74 456.13 94.38 455.18 90.91 C 454.80 85.85 458.10 80.33 463.23 79.17 C 467.40 78.04 471.72 77.19 476.07 77.37 C 481.19 77.48 485.97 80.27 491.16 79.45 Z" />
<path fill="#82927b" opacity="1.00" d=" M 320.64 136.56 C 325.17 135.97 329.54 134.61 334.07 134.02 C 331.43 136.01 329.00 138.25 326.34 140.22 C 326.48 139.67 326.76 138.56 326.90 138.00 C 312.52 141.02 297.66 140.59 283.17 138.64 C 272.75 137.25 262.21 137.51 251.72 137.45 C 244.39 137.25 237.32 139.70 230.00 139.76 C 217.07 140.23 204.74 144.45 191.94 145.82 C 180.81 148.71 169.35 150.07 158.30 153.27 C 139.60 157.66 121.05 162.93 103.26 170.24 C 94.61 173.66 85.86 176.99 77.84 181.78 C 72.59 184.92 67.10 187.65 61.84 190.78 C 50.44 197.94 39.51 205.81 28.21 213.12 C 24.69 215.35 21.39 217.93 18.46 220.90 C 27.61 224.20 37.43 223.84 46.91 225.38 C 60.34 228.10 74.12 227.93 87.69 229.63 C 97.16 230.95 106.74 229.94 116.24 230.74 C 124.51 231.40 132.80 230.93 141.07 230.43 C 167.07 230.10 192.96 226.92 218.99 227.29 C 240.97 226.34 262.94 224.72 284.86 222.85 C 301.91 220.15 319.18 217.58 335.35 211.27 C 339.48 209.72 343.58 208.10 347.59 206.25 C 350.75 204.82 353.88 203.33 357.02 201.85 C 367.04 197.26 376.39 191.41 385.94 185.96 C 388.10 184.81 389.81 183.02 391.27 181.09 C 392.64 181.27 393.99 181.50 395.35 181.72 C 394.10 183.00 392.85 184.30 391.36 185.30 C 365.77 201.38 338.32 215.62 308.39 221.35 C 299.28 223.93 289.75 223.85 280.46 225.38 C 271.91 226.70 263.27 227.53 254.61 227.53 C 237.77 228.77 220.85 228.47 204.02 230.08 C 189.68 230.74 175.36 231.71 161.00 231.73 C 132.32 233.34 103.57 232.82 74.91 231.11 C 63.82 230.20 52.86 228.08 41.75 227.43 C 36.41 227.15 31.31 225.41 26.02 224.78 C 21.65 224.13 16.94 224.48 13.01 222.14 C 19.26 215.80 27.16 211.51 34.40 206.44 C 59.74 188.34 87.05 172.49 116.79 162.86 C 124.92 160.09 132.99 157.11 141.40 155.32 C 149.34 152.48 157.76 151.48 165.80 148.97 C 172.48 147.93 178.98 146.06 185.61 144.80 C 191.53 144.10 197.25 142.42 203.12 141.48 C 214.77 139.89 226.19 136.60 238.01 136.41 C 251.62 135.01 265.38 134.98 279.01 136.28 C 292.85 137.13 306.83 138.64 320.64 136.56 Z" />
</g>
<g id="#c9d9b7ff">
<path fill="#c9d9b7" opacity="1.00" d=" M 251.72 137.45 C 262.21 137.51 272.75 137.25 283.17 138.64 C 297.66 140.59 312.52 141.02 326.90 138.00 C 326.76 138.56 326.48 139.67 326.34 140.22 C 316.84 146.79 306.83 152.77 296.22 157.38 C 292.24 157.04 288.33 156.22 284.43 155.39 C 284.98 154.16 285.54 152.92 286.10 151.70 C 279.66 151.11 273.05 150.58 266.73 152.28 C 269.46 157.42 276.76 158.82 277.64 165.04 C 256.64 172.00 234.91 176.54 213.00 179.40 C 203.89 182.07 194.25 181.87 185.22 184.80 C 177.92 186.05 170.55 186.89 163.44 189.02 C 154.27 190.31 145.30 192.59 136.20 194.22 C 132.86 194.68 129.54 195.18 126.24 195.85 C 129.03 188.90 129.33 181.37 131.03 174.15 C 132.18 174.29 133.33 174.43 134.48 174.57 C 135.31 179.63 135.37 185.03 138.35 189.44 C 141.25 184.10 139.25 177.99 137.33 172.68 C 135.90 169.47 134.34 165.56 130.79 164.24 C 124.98 164.33 120.16 168.84 118.22 174.10 C 114.27 182.20 118.34 192.10 125.23 197.23 C 116.56 198.29 108.20 200.93 99.77 203.11 C 93.08 200.35 87.94 194.13 80.54 193.18 C 80.13 195.89 79.42 198.62 79.69 201.38 C 80.42 203.59 82.01 205.37 83.57 207.05 L 84.29 207.47 C 94.20 212.75 103.89 220.72 115.68 220.43 C 112.53 215.61 107.52 212.57 103.81 208.25 C 104.93 207.70 106.07 207.18 107.21 206.68 C 114.80 206.26 122.37 205.34 129.99 205.41 C 149.93 204.81 169.85 203.73 189.71 201.81 C 194.63 201.60 199.56 201.81 204.48 202.03 C 204.55 205.37 203.01 210.36 207.00 212.01 C 212.22 214.15 218.02 213.38 223.52 213.39 C 231.04 213.37 238.63 213.37 245.96 211.45 C 245.82 209.83 245.73 208.21 245.43 206.61 C 237.14 202.08 228.10 206.96 219.81 208.79 C 216.80 209.75 213.71 208.97 210.89 207.85 C 212.06 205.37 213.33 202.94 214.67 200.56 C 228.34 199.12 241.97 197.20 255.74 197.14 C 260.63 197.15 265.51 196.92 270.36 196.36 C 271.66 200.39 272.28 205.34 276.22 207.76 C 282.98 212.16 291.20 213.02 298.88 214.82 C 299.85 213.17 300.81 211.51 301.76 209.85 C 295.17 207.18 288.04 206.47 281.23 204.58 C 281.23 204.02 281.24 202.90 281.24 202.34 C 283.56 199.99 285.11 197.03 284.88 193.65 C 288.85 193.40 292.81 193.00 296.77 192.63 C 303.39 192.68 309.84 190.90 316.45 190.88 C 315.90 194.48 314.59 198.34 316.00 201.90 C 317.06 204.69 320.41 204.92 322.94 205.24 C 331.14 206.29 339.44 204.69 347.59 206.25 C 343.58 208.10 339.48 209.72 335.35 211.27 C 319.18 217.58 301.91 220.15 284.86 222.85 C 262.94 224.72 240.97 226.34 218.99 227.29 C 192.96 226.92 167.07 230.10 141.07 230.43 C 132.80 230.93 124.51 231.40 116.24 230.74 C 106.74 229.94 97.16 230.95 87.69 229.63 C 74.12 227.93 60.34 228.10 46.91 225.38 C 37.43 223.84 27.61 224.20 18.46 220.90 C 21.39 217.93 24.69 215.35 28.21 213.12 C 39.51 205.81 50.44 197.94 61.84 190.78 C 67.10 187.65 72.59 184.92 77.84 181.78 C 85.86 176.99 94.61 173.66 103.26 170.24 C 121.05 162.93 139.60 157.66 158.30 153.27 C 169.35 150.07 180.81 148.71 191.94 145.82 C 204.74 144.45 217.07 140.23 230.00 139.76 C 237.32 139.70 244.39 137.25 251.72 137.45 M 246.09 154.08 C 244.81 155.77 242.67 158.35 244.70 160.31 C 246.61 162.72 249.93 162.76 252.74 162.65 C 257.21 162.55 261.92 159.89 263.45 155.54 C 263.83 153.15 262.85 150.80 262.43 148.48 C 256.39 147.02 249.95 149.22 246.09 154.08 M 207.44 152.72 C 209.97 156.12 212.05 159.90 214.98 162.99 C 216.93 164.22 219.47 163.93 221.68 164.35 C 222.83 167.08 223.53 170.17 225.64 172.37 C 227.19 173.92 229.54 173.46 231.51 173.60 C 234.02 167.73 234.65 160.85 231.78 154.99 C 227.33 155.73 222.83 156.60 218.32 155.92 C 218.45 154.37 218.59 152.84 218.72 151.30 C 214.90 150.89 210.77 150.30 207.44 152.72 M 154.63 157.65 C 153.36 158.30 151.82 159.32 152.27 160.99 C 152.80 165.01 154.59 169.67 158.70 171.21 C 165.80 174.19 173.27 176.63 181.01 177.07 C 181.28 175.30 183.00 172.28 180.36 171.60 C 175.69 169.49 170.49 169.22 165.53 168.22 C 163.71 168.03 162.59 166.49 161.39 165.30 C 163.23 163.42 165.06 161.54 166.90 159.66 C 164.13 155.58 158.69 156.20 154.63 157.65 M 198.46 163.56 C 193.46 165.56 187.59 168.43 185.94 174.02 C 187.39 176.86 190.86 177.76 193.77 178.22 C 197.20 178.87 200.40 176.97 203.14 175.15 C 206.57 172.80 206.91 167.60 204.61 164.33 C 202.76 163.29 200.51 163.03 198.46 163.56 M 61.52 211.46 C 59.25 212.43 56.82 214.26 56.93 217.00 C 57.78 221.41 61.81 225.92 66.66 224.78 C 69.68 221.64 69.33 216.39 72.97 213.57 C 74.57 215.88 76.03 218.29 77.42 220.74 C 78.06 220.74 79.34 220.75 79.99 220.75 C 81.08 216.29 77.91 212.06 74.48 209.60 C 70.16 208.08 65.48 209.61 61.52 211.46 M 240.60 221.16 C 242.39 222.45 244.26 223.97 246.61 223.84 C 251.56 224.08 258.03 223.47 260.38 218.38 C 262.45 214.24 258.50 209.03 254.16 209.27 C 248.58 211.63 242.37 214.86 240.60 221.16 M 127.68 216.10 C 127.93 219.53 128.61 223.25 131.64 225.36 C 134.94 228.83 140.21 229.77 144.52 227.73 C 147.35 227.06 147.98 223.77 147.78 221.28 C 144.79 216.49 138.75 215.32 133.62 214.33 C 131.45 213.75 129.56 215.28 127.68 216.10 M 165.93 222.86 C 167.03 226.06 170.81 227.46 173.97 227.43 C 183.52 227.46 192.76 224.73 202.13 223.23 C 204.97 222.82 207.34 221.10 209.31 219.10 C 206.45 218.05 203.48 217.30 200.43 217.18 C 191.47 216.67 182.49 216.29 173.51 216.31 C 169.81 216.08 165.61 218.80 165.93 222.86 Z" />
<path fill="#c9d9b7" opacity="1.00" d=" M 360.77 180.94 C 370.87 179.03 381.15 179.85 391.27 181.09 C 389.81 183.02 388.10 184.81 385.94 185.96 C 376.39 191.41 367.04 197.26 357.02 201.85 C 356.91 200.46 356.79 199.08 356.68 197.69 C 352.74 197.17 348.73 196.25 344.75 196.97 C 338.88 198.06 333.40 200.84 327.42 201.37 C 325.16 201.67 323.32 200.08 321.44 199.12 C 324.02 195.57 326.40 191.68 330.00 189.07 C 333.14 187.38 336.78 187.05 340.19 186.13 C 346.99 184.18 353.66 181.60 360.77 180.94 Z" />
</g>
</svg>
