<?xml version="1.0" encoding="UTF-8" ?>
<!DOCTYPE svg PUBLIC "-//W3C//DTD SVG 1.1//EN" "http://www.w3.org/Graphics/SVG/1.1/DTD/svg11.dtd">
<svg width="584pt" height="332pt" viewBox="0 0 584 332" version="1.1" xmlns="http://www.w3.org/2000/svg">
<g id="#f8feedff">
</g>
<g id="#4f6a43ff">
<path fill="#4f6a43" opacity="1.00" d=" M 114.82 20.63 C 123.69 18.33 132.75 16.16 142.00 16.53 C 149.64 16.43 157.01 18.62 164.51 19.73 C 163.93 28.33 159.94 36.11 157.78 44.34 C 152.54 43.58 147.35 42.36 142.04 42.21 C 132.81 41.84 123.40 43.81 115.32 48.35 C 110.13 51.19 105.58 55.01 100.98 58.69 C 94.90 52.81 88.79 46.96 82.93 40.86 C 92.44 32.61 102.57 24.33 114.82 20.63 Z" />
<path fill="#4f6a43" opacity="1.00" d=" M 505.39 19.36 C 513.86 17.33 522.86 19.13 530.32 23.48 C 538.56 27.61 544.30 35.63 546.98 44.31 C 549.86 53.69 548.35 64.14 543.61 72.65 C 538.91 80.54 530.89 86.22 522.18 88.88 C 513.05 90.66 502.97 90.20 494.96 85.00 C 485.56 79.84 479.62 69.91 477.69 59.56 C 476.36 50.61 478.46 41.15 483.68 33.74 C 488.61 26.27 496.81 21.45 505.39 19.36 Z" />
<path fill="#4f6a43" opacity="1.00" d=" M 176.40 53.83 C 180.62 46.55 186.25 40.25 190.85 33.22 C 196.16 37.84 201.94 42.01 206.34 47.58 C 216.39 60.06 223.20 75.76 222.79 91.99 C 223.00 99.54 221.00 106.87 219.27 114.14 C 211.00 111.90 203.30 108.08 195.25 105.21 C 197.52 97.35 198.39 88.89 195.96 80.96 C 192.87 69.92 184.99 61.06 176.40 53.83 Z" />
<path fill="#4f6a43" opacity="1.00" d=" M 56.36 61.90 C 65.37 60.81 74.95 63.21 82.00 69.03 C 90.13 75.49 95.62 85.49 95.80 95.96 C 96.76 112.19 84.90 128.21 68.98 131.78 C 51.82 136.57 32.24 125.74 26.96 108.78 C 20.91 93.65 27.67 75.06 41.40 66.61 C 45.93 63.85 51.17 62.62 56.36 61.90 Z" />
<path fill="#4f6a43" opacity="1.00" d=" M 460.73 120.74 C 470.65 114.37 480.08 107.28 489.46 100.13 C 488.40 107.33 485.87 114.18 484.36 121.28 C 482.17 130.87 479.66 140.38 477.11 149.88 C 471.52 175.02 464.09 199.72 458.63 224.89 C 454.62 240.26 450.56 255.62 447.09 271.13 C 442.67 259.64 437.10 248.41 428.84 239.17 C 423.03 231.80 416.01 225.47 408.08 220.46 C 402.72 224.95 397.86 229.99 393.02 235.03 C 380.95 246.90 368.91 258.90 355.39 269.14 C 350.26 262.80 345.37 256.27 340.39 249.81 C 344.83 244.44 350.49 240.31 355.44 235.46 C 364.89 226.55 374.55 217.86 383.70 208.64 C 376.61 204.84 368.52 204.29 360.76 202.80 C 356.41 202.13 352.00 202.20 347.61 201.96 C 353.66 196.79 360.30 192.39 366.79 187.81 C 386.77 173.83 406.42 159.38 426.48 145.51 C 437.80 137.12 449.25 128.90 460.73 120.74 Z" />
<path fill="#4f6a43" opacity="1.00" d=" M 184.55 122.01 C 188.04 124.98 191.11 128.40 194.63 131.32 C 196.66 133.17 199.60 132.65 202.10 132.96 C 204.46 140.85 208.84 148.49 216.16 152.71 C 224.55 157.41 234.20 159.07 243.47 161.18 C 242.17 169.35 241.26 177.65 239.03 185.62 C 231.63 185.53 224.62 182.84 217.63 180.74 C 202.24 176.01 188.16 165.31 181.63 150.32 C 179.10 144.20 176.79 137.76 176.58 131.08 C 178.29 127.39 181.87 124.98 184.55 122.01 Z" />
<path fill="#4f6a43" opacity="1.00" d=" M 269.14 165.78 C 280.50 168.06 292.11 173.31 298.53 183.41 C 305.19 193.85 304.59 207.06 301.64 218.61 C 299.90 226.79 295.53 233.98 292.08 241.48 C 286.30 239.30 280.41 237.43 274.65 235.22 C 272.69 234.39 270.54 233.64 269.17 231.92 C 271.23 224.77 275.63 218.50 277.28 211.20 C 278.46 206.68 279.60 201.34 276.87 197.15 C 273.47 193.04 267.93 191.84 263.08 190.31 C 264.75 182.05 267.13 173.96 269.14 165.78 Z" />
<path fill="#4f6a43" opacity="1.00" d=" M 262.72 260.77 C 271.14 260.55 279.51 261.74 287.93 261.69 C 288.43 266.41 288.69 272.02 292.89 275.12 C 295.81 277.34 299.71 275.92 302.84 274.89 C 309.33 272.53 314.78 268.16 320.20 264.00 C 325.25 268.92 329.60 274.48 334.34 279.68 C 335.36 280.89 337.25 282.74 335.40 284.15 C 325.77 292.80 313.89 299.28 301.00 301.30 C 289.78 303.05 277.78 298.09 271.09 288.90 C 264.93 280.92 262.95 270.64 262.72 260.77 Z" />
</g>
</svg>
