<?xml version="1.0" encoding="UTF-8" ?>
<!DOCTYPE svg PUBLIC "-//W3C//DTD SVG 1.1//EN" "http://www.w3.org/Graphics/SVG/1.1/DTD/svg11.dtd">
<svg width="561pt" height="422pt" viewBox="0 0 561 422" version="1.1" xmlns="http://www.w3.org/2000/svg">
<g id="#fcfeedff">
<path fill="#fcfeed" opacity="1.00" d=" M 0.00 0.00 L 561.00 0.00 L 561.00 422.00 L 0.00 422.00 L 0.00 0.00 M 62.84 12.79 C 59.44 14.48 58.11 18.68 58.61 22.24 C 60.02 31.52 64.40 40.32 70.88 47.11 C 77.74 54.34 84.53 61.79 89.51 70.48 C 94.76 79.87 99.33 89.61 103.34 99.59 C 107.39 108.80 112.57 117.46 118.14 125.82 C 123.90 134.59 131.83 141.78 140.66 147.39 C 145.66 150.49 151.41 152.00 156.83 154.17 C 164.51 157.23 172.91 156.29 180.97 156.47 C 199.14 155.40 216.67 148.72 235.00 149.34 C 244.07 149.38 253.40 149.07 262.11 152.06 C 267.00 153.84 271.56 156.42 275.97 159.17 C 282.98 163.63 288.62 169.79 294.93 175.11 C 312.00 190.19 325.59 209.05 335.10 229.72 C 340.66 243.28 345.57 257.22 353.01 269.91 C 360.84 284.22 372.80 296.33 387.32 303.85 C 400.02 311.26 413.80 316.48 427.51 321.65 C 435.99 324.78 443.66 329.70 450.68 335.32 C 462.46 344.47 472.87 355.37 481.34 367.65 C 477.26 368.29 473.14 368.61 469.01 368.55 C 451.61 368.48 434.09 366.97 417.17 362.72 C 414.81 362.02 412.14 361.52 410.48 359.54 C 408.28 356.98 406.65 354.00 404.85 351.16 C 395.96 336.77 386.39 322.60 374.15 310.82 C 365.33 302.92 355.67 295.53 344.31 291.72 C 338.45 289.30 331.21 289.35 326.76 284.25 C 318.48 276.08 308.68 269.33 297.74 265.24 C 291.00 262.79 284.79 259.05 277.91 256.96 C 271.31 254.78 264.32 254.44 257.51 253.29 C 251.38 252.12 245.16 253.28 239.06 254.07 C 231.76 255.00 225.03 258.14 217.99 260.13 C 212.90 261.55 208.49 264.92 203.23 265.73 C 198.97 262.88 197.04 257.72 194.50 253.45 C 190.58 246.59 190.27 238.55 188.05 231.13 C 186.39 224.91 185.09 218.56 182.49 212.64 C 177.83 201.46 171.95 190.37 162.94 182.07 C 158.93 178.28 153.71 175.99 148.38 174.82 C 139.41 172.87 130.16 172.27 121.01 172.93 C 105.51 174.32 89.84 173.76 74.45 171.44 C 67.03 170.23 59.49 170.38 52.01 170.51 C 47.53 170.64 42.47 171.93 39.86 175.90 C 37.61 179.10 38.80 183.98 42.22 185.84 C 48.30 189.99 55.99 189.38 63.00 189.46 C 81.35 189.29 99.70 189.28 118.05 189.28 C 124.55 189.32 131.12 189.93 137.38 191.75 C 147.67 194.88 155.62 203.31 160.05 212.89 C 163.38 220.25 166.45 227.83 167.89 235.82 C 169.26 243.25 172.68 250.07 174.80 257.29 C 176.63 263.43 181.09 268.31 183.26 274.31 C 172.52 277.02 160.63 277.50 150.49 272.44 C 141.36 267.24 134.11 259.30 128.25 250.68 C 122.78 243.56 116.93 236.74 111.06 229.95 C 108.07 226.24 105.33 222.33 101.98 218.92 C 96.28 213.00 91.32 206.14 84.29 201.67 C 78.92 198.27 71.43 197.25 65.94 200.90 C 62.59 203.24 63.60 207.77 64.91 210.97 C 68.26 219.09 75.68 224.41 82.48 229.50 C 90.57 235.32 97.00 243.00 103.59 250.38 C 107.83 254.54 111.11 259.49 114.91 264.02 C 119.36 269.25 122.84 275.35 128.21 279.75 C 133.88 284.29 139.62 289.06 146.57 291.51 C 152.72 294.05 159.41 294.61 165.98 295.16 C 175.06 295.69 184.06 293.64 192.62 290.78 C 195.65 290.00 199.02 288.49 202.06 289.97 C 206.49 292.11 210.53 295.05 215.21 296.65 C 227.47 300.79 240.25 302.99 253.00 305.01 C 258.64 305.73 264.34 305.33 270.01 305.40 C 275.33 305.34 280.70 305.74 285.98 304.85 C 294.89 303.00 304.05 303.28 313.01 301.78 C 316.66 300.92 319.63 303.63 322.11 305.89 C 328.38 312.06 333.90 318.98 338.55 326.44 C 344.16 335.26 350.70 343.52 358.38 350.64 C 370.15 362.64 385.99 369.80 402.10 373.88 C 404.90 374.69 407.92 375.04 410.46 376.55 C 413.72 379.38 415.70 383.34 418.38 386.67 C 421.91 391.10 425.28 395.67 428.27 400.49 C 429.50 400.04 430.73 399.58 431.97 399.13 C 428.30 392.16 424.64 385.19 421.16 378.13 C 430.80 378.05 440.35 379.79 450.01 379.35 C 463.03 379.75 475.98 378.24 488.97 377.53 C 491.25 380.36 493.34 383.81 497.15 384.70 C 496.93 381.89 496.61 379.11 496.28 376.32 C 510.35 373.69 524.46 371.09 538.15 366.88 C 538.20 366.04 538.29 364.37 538.33 363.54 C 529.17 363.78 520.26 366.38 511.09 366.58 C 504.44 366.71 497.86 367.94 491.21 367.83 C 484.98 357.52 479.38 346.73 471.52 337.51 C 460.82 324.83 448.67 313.02 434.14 304.80 C 420.64 296.64 404.92 292.94 391.66 284.31 C 386.28 280.50 380.47 277.04 376.24 271.88 C 371.17 265.69 366.53 259.02 363.52 251.56 C 358.81 240.05 355.59 227.97 350.49 216.61 C 342.30 196.12 328.93 178.07 313.10 162.84 C 301.86 151.48 289.48 140.86 274.94 133.97 C 265.66 129.16 255.29 126.81 244.98 125.61 C 235.37 125.63 225.61 124.72 216.16 126.95 C 201.47 128.93 186.91 132.49 172.02 132.63 C 161.76 132.68 151.44 129.14 143.88 122.10 C 135.98 114.72 130.36 105.32 125.12 95.97 C 113.22 75.63 106.38 52.79 94.56 32.41 C 89.78 25.41 84.25 18.46 76.70 14.32 C 72.52 12.21 67.29 10.50 62.84 12.79 Z" />
<path fill="#fcfeed" opacity="1.00" d=" M 69.45 18.41 C 71.33 18.13 73.20 17.85 75.07 17.59 C 77.29 19.27 79.53 20.93 81.76 22.61 C 80.05 23.64 78.46 25.95 76.22 25.14 C 72.71 24.55 70.95 21.25 69.45 18.41 Z" />
<path fill="#fcfeed" opacity="1.00" d=" M 62.47 25.32 C 63.19 24.29 63.91 23.25 64.63 22.22 C 68.22 25.02 69.94 29.22 70.20 33.68 C 68.86 33.88 67.52 34.08 66.18 34.27 C 65.03 31.25 63.83 28.26 62.47 25.32 Z" />
<path fill="#fcfeed" opacity="1.00" d=" M 44.58 178.08 C 45.77 177.14 46.72 175.71 48.25 175.30 C 49.98 175.27 51.67 175.73 53.37 176.06 C 52.20 177.04 51.19 178.33 49.72 178.89 C 47.98 179.14 46.27 178.41 44.58 178.08 Z" />
<path fill="#fcfeed" opacity="1.00" d=" M 44.20 182.42 C 45.67 182.06 47.14 181.47 48.68 181.53 C 50.45 182.27 51.98 183.44 53.62 184.41 C 50.31 184.90 46.75 184.95 44.20 182.42 Z" />
<path fill="#fcfeed" opacity="1.00" d=" M 74.65 203.67 C 75.53 203.35 77.28 202.72 78.16 202.40 C 80.20 203.72 82.33 204.90 84.52 205.97 C 84.25 206.80 83.71 208.47 83.44 209.30 C 81.65 208.90 79.81 208.64 78.12 207.93 C 76.72 206.72 75.74 205.14 74.65 203.67 Z" />
<path fill="#fcfeed" opacity="1.00" d=" M 69.40 207.62 C 71.98 209.51 74.12 211.90 75.73 214.66 C 74.98 215.62 74.23 216.59 73.48 217.56 C 71.71 215.84 70.02 214.04 68.40 212.18 C 68.72 210.66 69.06 209.14 69.40 207.62 Z" />
<path fill="#fcfeed" opacity="1.00" d=" M 221.77 280.02 C 230.99 277.16 240.13 273.13 249.96 273.20 C 254.84 273.10 259.78 273.27 264.52 274.58 C 274.97 277.29 285.07 281.36 294.54 286.55 C 294.63 287.02 294.81 287.94 294.90 288.41 C 285.91 288.93 277.06 291.06 268.02 290.81 C 254.03 291.22 239.84 289.27 226.82 284.02 C 224.71 283.29 223.12 281.72 221.77 280.02 Z" />
<path fill="#fcfeed" opacity="1.00" d=" M 348.25 309.77 C 355.37 313.38 360.57 319.57 366.88 324.30 C 370.02 326.73 372.52 329.84 375.09 332.84 C 381.62 340.04 388.50 347.02 393.87 355.17 C 379.89 349.85 367.62 340.05 359.71 327.32 C 355.93 321.44 351.76 315.81 348.25 309.77 Z" />
</g>
<g id="#526734ff">
<path fill="#526734" opacity="1.00" d=" M 62.84 12.79 C 67.29 10.50 72.52 12.21 76.70 14.32 C 84.25 18.46 89.78 25.41 94.56 32.41 C 106.38 52.79 113.22 75.63 125.12 95.97 C 130.36 105.32 135.98 114.72 143.88 122.10 C 151.44 129.14 161.76 132.68 172.02 132.63 C 186.91 132.49 201.47 128.93 216.16 126.95 C 225.61 124.72 235.37 125.63 244.98 125.61 C 255.29 126.81 265.66 129.16 274.94 133.97 C 289.48 140.86 301.86 151.48 313.10 162.84 C 328.93 178.07 342.30 196.12 350.49 216.61 C 355.59 227.97 358.81 240.05 363.52 251.56 C 366.53 259.02 371.17 265.69 376.24 271.88 C 380.47 277.04 386.28 280.50 391.66 284.31 C 404.92 292.94 420.64 296.64 434.14 304.80 C 448.67 313.02 460.82 324.83 471.52 337.51 C 479.38 346.73 484.98 357.52 491.21 367.83 C 497.86 367.94 504.44 366.71 511.09 366.58 C 520.26 366.38 529.17 363.78 538.33 363.54 C 538.29 364.37 538.20 366.04 538.15 366.88 C 524.46 371.09 510.35 373.69 496.28 376.32 C 496.61 379.11 496.93 381.89 497.15 384.70 C 493.34 383.81 491.25 380.36 488.97 377.53 C 475.98 378.24 463.03 379.75 450.01 379.35 C 440.35 379.79 430.80 378.05 421.16 378.13 C 424.64 385.19 428.30 392.16 431.97 399.13 C 430.73 399.58 429.50 400.04 428.27 400.49 C 425.28 395.67 421.91 391.10 418.38 386.67 C 415.70 383.34 413.72 379.38 410.46 376.55 C 407.92 375.04 404.90 374.69 402.10 373.88 C 385.99 369.80 370.15 362.64 358.38 350.64 C 350.70 343.52 344.16 335.26 338.55 326.44 C 333.90 318.98 328.38 312.06 322.11 305.89 C 319.63 303.63 316.66 300.92 313.01 301.78 C 304.05 303.28 294.89 303.00 285.98 304.85 C 280.70 305.74 275.33 305.34 270.01 305.40 C 264.34 305.33 258.64 305.73 253.00 305.01 C 240.25 302.99 227.47 300.79 215.21 296.65 C 210.53 295.05 206.49 292.11 202.06 289.97 C 199.02 288.49 195.65 290.00 192.62 290.78 C 184.06 293.64 175.06 295.69 165.98 295.16 C 159.41 294.61 152.72 294.05 146.57 291.51 C 139.62 289.06 133.88 284.29 128.21 279.75 C 122.84 275.35 119.36 269.25 114.91 264.02 C 111.11 259.49 107.83 254.54 103.59 250.38 C 97.00 243.00 90.57 235.32 82.48 229.50 C 75.68 224.41 68.26 219.09 64.91 210.97 C 63.60 207.77 62.59 203.24 65.94 200.90 C 71.43 197.25 78.92 198.27 84.29 201.67 C 91.32 206.14 96.28 213.00 101.98 218.92 C 105.33 222.33 108.07 226.24 111.06 229.95 C 116.93 236.74 122.78 243.56 128.25 250.68 C 134.11 259.30 141.36 267.24 150.49 272.44 C 160.63 277.50 172.52 277.02 183.26 274.31 C 181.09 268.31 176.63 263.43 174.80 257.29 C 172.68 250.07 169.26 243.25 167.89 235.82 C 166.45 227.83 163.38 220.25 160.05 212.89 C 155.62 203.31 147.67 194.88 137.38 191.75 C 131.12 189.93 124.55 189.32 118.05 189.28 C 99.70 189.28 81.35 189.29 63.00 189.46 C 55.99 189.38 48.30 189.99 42.22 185.84 C 38.80 183.98 37.61 179.10 39.86 175.90 C 42.47 171.93 47.53 170.64 52.01 170.51 C 59.49 170.38 67.03 170.23 74.45 171.44 C 89.84 173.76 105.51 174.32 121.01 172.93 C 130.16 172.27 139.41 172.87 148.38 174.82 C 153.71 175.99 158.93 178.28 162.94 182.07 C 171.95 190.37 177.83 201.46 182.49 212.64 C 185.09 218.56 186.39 224.91 188.05 231.13 C 190.27 238.55 190.58 246.59 194.50 253.45 C 197.04 257.72 198.97 262.88 203.23 265.73 C 208.49 264.92 212.90 261.55 217.99 260.13 C 225.03 258.14 231.76 255.00 239.06 254.07 C 245.16 253.28 251.38 252.12 257.51 253.29 C 264.32 254.44 271.31 254.78 277.91 256.96 C 284.79 259.05 291.00 262.79 297.74 265.24 C 308.68 269.33 318.48 276.08 326.76 284.25 C 331.21 289.35 338.45 289.30 344.31 291.72 C 355.67 295.53 365.33 302.92 374.15 310.82 C 386.39 322.60 395.96 336.77 404.85 351.16 C 406.65 354.00 408.28 356.98 410.48 359.54 C 412.14 361.52 414.81 362.02 417.17 362.72 C 434.09 366.97 451.61 368.48 469.01 368.55 C 473.14 368.61 477.26 368.29 481.34 367.65 C 472.87 355.37 462.46 344.47 450.68 335.32 C 443.66 329.70 435.99 324.78 427.51 321.65 C 413.80 316.48 400.02 311.26 387.32 303.85 C 372.80 296.33 360.84 284.22 353.01 269.91 C 345.57 257.22 340.66 243.28 335.10 229.72 C 325.59 209.05 312.00 190.19 294.93 175.11 C 288.62 169.79 282.98 163.63 275.97 159.17 C 271.56 156.42 267.00 153.84 262.11 152.06 C 253.40 149.07 244.07 149.38 235.00 149.34 C 216.67 148.72 199.14 155.40 180.97 156.47 C 172.91 156.29 164.51 157.23 156.83 154.17 C 151.41 152.00 145.66 150.49 140.66 147.39 C 131.83 141.78 123.90 134.59 118.14 125.82 C 112.57 117.46 107.39 108.80 103.34 99.59 C 99.33 89.61 94.76 79.87 89.51 70.48 C 84.53 61.79 77.74 54.34 70.88 47.11 C 64.40 40.32 60.02 31.52 58.61 22.24 C 58.11 18.68 59.44 14.48 62.84 12.79 M 62.76 17.70 C 61.59 20.33 62.00 23.29 61.94 26.08 L 62.47 25.32 C 63.83 28.26 65.03 31.25 66.18 34.27 C 69.92 38.47 72.54 43.53 76.45 47.58 C 81.54 53.17 88.16 57.91 90.34 65.52 C 91.66 67.26 92.98 69.00 94.31 70.74 C 98.00 68.32 101.49 65.62 104.78 62.68 C 103.78 60.29 102.74 57.92 101.68 55.56 C 95.88 44.11 90.74 32.02 81.76 22.61 C 79.53 20.93 77.29 19.27 75.07 17.59 C 71.16 16.76 66.09 14.23 62.76 17.70 M 108.12 95.15 C 105.83 98.08 108.42 101.60 109.92 104.25 C 112.15 108.32 114.03 112.58 116.51 116.52 C 123.43 126.93 131.43 137.14 142.41 143.52 C 147.61 146.33 152.83 149.12 158.21 151.57 C 160.65 151.62 163.10 151.69 165.54 151.76 C 167.30 146.82 166.98 141.56 166.70 136.43 C 164.50 135.85 162.31 135.27 160.13 134.67 L 160.32 134.09 C 152.56 133.29 145.52 129.47 139.85 124.25 C 133.58 119.49 131.04 111.73 126.08 105.86 C 123.91 103.41 122.30 100.51 121.98 97.20 L 121.51 97.52 C 120.30 95.64 119.06 93.79 117.80 91.95 C 114.52 92.79 111.01 93.27 108.12 95.15 M 202.22 133.12 C 198.17 133.49 194.08 133.45 190.07 134.22 C 189.48 139.56 188.74 145.23 190.96 150.32 L 190.99 151.48 C 192.25 151.42 193.51 151.31 194.76 151.15 C 199.46 151.37 203.54 148.74 208.03 147.89 C 219.23 145.91 230.60 144.12 242.01 144.97 C 247.82 145.53 253.90 145.46 259.25 148.11 C 261.42 148.38 263.60 148.62 265.78 148.85 C 268.28 144.97 270.44 140.86 271.86 136.45 C 269.69 135.52 267.52 134.59 265.34 133.68 L 265.70 133.13 C 260.74 132.40 255.84 131.32 250.97 130.12 C 243.76 128.26 236.30 129.57 228.97 129.20 C 219.96 129.58 211.10 131.61 202.22 133.12 M 287.79 146.93 C 285.60 150.64 283.27 154.27 280.92 157.88 C 282.78 159.49 284.67 161.07 286.60 162.60 L 286.23 162.97 C 291.55 165.26 295.16 169.92 299.30 173.76 C 302.83 177.22 306.31 180.72 309.90 184.12 C 315.81 189.70 320.47 196.41 325.05 203.07 C 326.25 205.52 327.63 207.87 329.16 210.12 C 332.50 207.80 336.16 205.78 338.85 202.67 C 338.91 200.16 336.89 198.30 335.68 196.31 C 328.34 186.07 320.52 176.19 312.18 166.74 C 306.05 161.54 299.16 156.82 294.84 149.87 L 294.62 150.44 C 292.57 148.85 290.29 147.61 287.79 146.93 M 45.99 173.85 C 43.62 176.23 43.02 179.43 43.35 182.66 L 44.20 182.42 C 46.75 184.95 50.31 184.90 53.62 184.41 C 57.88 186.64 62.90 185.35 67.50 185.68 C 77.03 186.57 86.62 186.25 96.15 187.31 C 96.29 183.97 96.28 180.63 96.12 177.29 L 95.88 178.15 C 92.81 177.35 89.64 177.13 86.48 177.33 C 80.12 176.66 73.88 175.21 67.51 174.63 C 60.36 173.73 53.15 174.42 45.99 173.85 M 125.45 177.09 C 122.61 177.15 119.76 177.20 116.92 177.28 C 117.05 178.42 117.18 179.55 117.33 180.68 C 117.10 182.52 116.89 184.36 116.68 186.21 C 120.48 186.29 124.28 186.20 128.09 186.18 C 134.52 186.08 140.90 188.14 146.26 191.65 C 151.39 195.13 156.70 198.72 160.02 204.11 C 161.07 206.51 162.25 208.86 163.48 211.18 C 167.21 209.21 170.94 206.91 173.47 203.46 C 174.04 200.75 171.02 198.81 169.78 196.66 C 166.36 189.99 160.83 184.43 154.24 180.87 C 145.22 176.94 135.13 176.83 125.45 177.09 M 67.24 205.08 C 67.63 207.44 68.03 209.81 68.40 212.18 C 70.02 214.04 71.71 215.84 73.48 217.56 L 73.12 218.02 C 78.49 220.67 82.64 225.09 87.54 228.44 C 90.56 230.50 93.29 232.95 95.64 235.76 C 97.16 237.44 98.58 239.29 100.54 240.48 C 101.94 241.44 103.00 239.83 103.95 239.02 C 105.56 237.28 107.15 235.34 107.80 233.01 C 107.62 230.73 105.61 229.21 104.32 227.51 L 104.64 227.25 C 100.85 224.07 97.91 220.03 94.19 216.77 C 90.57 213.53 87.94 209.40 84.52 205.97 C 82.33 204.90 80.20 203.72 78.16 202.40 C 74.24 201.10 70.62 203.41 67.24 205.08 M 339.94 231.89 C 341.00 234.31 342.08 236.72 343.20 239.11 C 348.63 255.34 356.81 270.69 367.60 284.00 C 369.36 285.69 371.04 287.52 373.13 288.80 C 376.67 287.81 378.11 283.78 380.23 281.10 C 378.44 279.21 376.63 277.34 374.81 275.49 C 370.88 271.28 366.47 267.36 363.72 262.22 C 360.96 257.05 359.41 251.36 357.01 246.03 C 355.28 242.20 353.67 238.28 352.88 234.12 C 352.16 231.72 351.35 229.34 350.50 226.98 C 346.70 227.94 343.17 229.68 339.94 231.89 M 171.36 232.93 C 171.51 235.17 171.69 237.41 171.90 239.64 C 175.07 245.94 176.59 252.90 179.82 259.17 C 182.04 263.44 183.61 268.42 187.52 271.50 C 191.72 272.42 195.94 270.61 199.22 268.07 C 195.43 262.33 191.07 256.83 188.67 250.31 C 186.57 244.69 186.32 238.62 186.07 232.70 L 185.67 233.52 C 185.00 231.97 184.21 230.49 183.45 228.99 C 179.43 230.32 175.40 231.65 171.36 232.93 M 116.94 260.13 C 118.45 262.34 120.06 264.48 121.77 266.55 L 121.35 266.86 C 126.58 271.87 130.68 278.18 137.08 281.88 C 142.14 284.81 147.17 287.86 152.60 290.09 C 155.21 290.32 157.83 290.56 160.45 290.78 C 161.05 287.34 161.57 283.89 161.96 280.43 C 160.42 279.70 158.87 278.98 157.33 278.26 L 157.87 277.85 C 154.15 277.58 150.33 276.96 147.11 274.96 C 140.63 270.90 134.80 265.64 130.65 259.17 L 130.24 259.55 C 128.79 257.60 127.32 255.67 125.82 253.75 C 122.57 255.45 119.62 257.64 116.94 260.13 M 224.49 262.30 C 219.19 262.90 214.77 266.07 209.91 267.96 C 201.99 270.83 194.72 275.79 186.07 276.23 L 186.82 276.43 C 186.14 276.98 184.79 278.07 184.11 278.62 C 184.48 282.06 184.97 285.48 185.57 288.88 C 188.31 288.49 191.03 287.98 193.72 287.32 C 197.61 284.29 202.45 283.24 207.10 281.98 C 216.10 278.64 224.93 274.16 234.60 273.18 L 234.29 272.69 C 236.43 271.73 238.58 270.78 240.73 269.82 C 240.17 265.91 239.57 262.01 239.05 258.10 C 233.53 256.50 229.67 261.74 224.49 262.30 M 268.44 259.13 C 267.36 263.09 266.38 267.08 265.26 271.03 C 266.20 271.49 267.16 271.93 268.14 272.34 L 268.00 273.10 C 271.22 273.27 274.51 273.30 277.59 274.37 C 288.21 277.98 298.37 283.20 307.23 290.07 C 309.29 291.14 311.28 292.78 313.70 292.82 C 316.74 290.71 318.08 286.97 319.99 283.93 C 318.53 282.33 317.05 280.76 315.55 279.20 C 306.01 273.60 296.31 268.09 285.86 264.32 C 282.36 263.06 278.94 261.61 275.64 259.91 C 273.24 259.62 270.84 259.36 268.44 259.13 M 221.77 280.02 C 223.12 281.72 224.71 283.29 226.82 284.02 C 239.84 289.27 254.03 291.22 268.02 290.81 C 277.06 291.06 285.91 288.93 294.90 288.41 C 294.81 287.94 294.63 287.02 294.54 286.55 C 285.07 281.36 274.97 277.29 264.52 274.58 C 259.78 273.27 254.84 273.10 249.96 273.20 C 240.13 273.13 230.99 277.16 221.77 280.02 M 225.33 287.94 C 224.41 290.34 223.57 292.78 222.88 295.26 C 224.84 296.01 226.79 296.77 228.74 297.53 L 228.27 298.11 C 233.89 298.04 239.34 299.57 244.91 300.02 C 250.86 300.51 256.72 301.64 262.65 302.31 C 265.04 302.07 267.43 301.83 269.82 301.60 C 269.78 299.39 269.74 297.18 269.70 294.97 C 267.01 294.74 264.31 294.84 261.64 295.14 C 259.17 294.67 256.67 294.31 254.16 294.20 C 247.14 293.97 240.50 291.40 233.64 290.17 C 230.98 289.04 228.18 288.32 225.33 287.94 M 293.73 291.15 C 292.85 291.87 291.96 292.59 291.07 293.31 C 291.42 295.42 291.77 297.52 292.15 299.63 C 293.89 299.93 295.64 300.23 297.39 300.54 C 302.13 299.53 307.01 299.02 311.53 297.15 C 306.33 293.68 300.33 289.59 293.73 291.15 M 337.71 294.18 C 338.83 297.57 340.49 302.32 344.60 302.73 C 345.32 301.09 345.93 299.30 345.62 297.49 C 344.01 294.76 340.45 294.79 337.71 294.18 M 401.19 294.24 C 399.23 297.27 396.97 300.24 396.10 303.79 C 397.58 305.50 399.67 306.47 401.59 307.60 L 401.19 308.01 C 408.53 308.71 414.82 312.94 421.78 315.04 C 428.67 317.07 434.95 320.60 441.44 323.59 C 448.11 326.89 453.20 332.47 458.95 337.06 C 467.38 343.68 474.16 352.04 481.39 359.88 C 480.63 356.62 479.00 353.67 476.98 351.04 C 464.07 332.24 447.06 315.97 426.77 305.36 C 420.78 302.52 414.67 299.95 408.71 297.04 C 406.21 296.08 403.70 295.15 401.19 294.24 M 359.30 304.11 C 357.86 305.76 356.42 307.40 354.99 309.06 C 356.84 310.82 358.74 312.54 360.68 314.21 L 360.31 314.53 C 368.63 319.69 374.87 327.42 381.55 334.44 C 386.76 340.24 392.39 345.70 396.88 352.11 C 398.81 354.57 400.68 357.90 404.27 357.79 C 398.57 347.15 390.20 338.30 384.02 327.96 C 378.72 321.25 373.07 314.62 366.38 309.24 C 364.11 307.41 361.76 305.68 359.30 304.11 M 333.10 311.68 C 334.45 313.71 335.81 315.74 337.20 317.75 C 342.75 324.95 347.10 333.06 353.25 339.80 C 357.19 343.65 360.92 347.72 364.32 352.07 L 364.76 351.61 C 366.93 353.27 369.01 355.52 371.88 355.82 C 374.10 354.60 375.35 352.28 376.81 350.31 C 374.58 348.84 372.36 347.38 370.12 345.93 C 365.10 340.54 359.82 335.29 356.10 328.86 C 352.63 322.87 347.70 317.76 345.03 311.31 L 344.65 311.77 C 343.16 309.82 341.67 307.88 340.14 305.96 C 337.68 307.72 335.31 309.61 333.10 311.68 M 348.25 309.77 C 351.76 315.81 355.93 321.44 359.71 327.32 C 367.62 340.05 379.89 349.85 393.87 355.17 C 388.50 347.02 381.62 340.04 375.09 332.84 C 372.52 329.84 370.02 326.73 366.88 324.30 C 360.57 319.57 355.37 313.38 348.25 309.77 M 396.45 360.23 C 395.32 362.34 394.21 364.46 393.10 366.59 C 394.55 367.61 395.99 368.62 397.44 369.64 L 396.63 369.84 C 401.10 370.35 405.61 370.79 410.00 371.83 C 421.62 374.71 433.69 374.13 445.51 375.54 C 451.47 376.30 457.50 376.46 463.49 375.85 C 470.11 375.19 477.14 375.58 483.15 372.25 C 477.76 371.68 472.35 372.68 466.97 372.00 C 461.87 371.38 456.72 371.88 451.60 371.63 C 435.34 370.58 419.32 367.25 403.64 362.93 C 401.26 361.98 398.86 361.08 396.45 360.23 Z" />
</g>
<g id="#9aac68ff">
<path fill="#9aac68" opacity="1.00" d=" M 62.76 17.70 C 66.09 14.23 71.16 16.76 75.07 17.59 C 73.20 17.85 71.33 18.13 69.45 18.41 C 70.95 21.25 72.71 24.55 76.22 25.14 C 78.46 25.95 80.05 23.64 81.76 22.61 C 90.74 32.02 95.88 44.11 101.68 55.56 C 97.05 57.77 92.66 60.79 90.34 65.52 C 88.16 57.91 81.54 53.17 76.45 47.58 C 72.54 43.53 69.92 38.47 66.18 34.27 C 67.52 34.08 68.86 33.88 70.20 33.68 C 69.94 29.22 68.22 25.02 64.63 22.22 C 63.91 23.25 63.19 24.29 62.47 25.32 L 61.94 26.08 C 62.00 23.29 61.59 20.33 62.76 17.70 Z" />
<path fill="#9aac68" opacity="1.00" d=" M 121.51 97.52 L 121.98 97.20 C 122.30 100.51 123.91 103.41 126.08 105.86 C 131.04 111.73 133.58 119.49 139.85 124.25 C 145.52 129.47 152.56 133.29 160.32 134.09 L 160.13 134.67 C 158.11 140.06 157.36 145.86 158.21 151.57 C 152.83 149.12 147.61 146.33 142.41 143.52 C 131.43 137.14 123.43 126.93 116.51 116.52 C 114.03 112.58 112.15 108.32 109.92 104.25 C 113.89 102.21 117.81 100.04 121.51 97.52 Z" />
<path fill="#9aac68" opacity="1.00" d=" M 202.22 133.12 C 211.10 131.61 219.96 129.58 228.97 129.20 C 236.30 129.57 243.76 128.26 250.97 130.12 C 255.84 131.32 260.74 132.40 265.70 133.13 L 265.34 133.68 C 262.38 138.02 259.18 142.61 259.25 148.11 C 253.90 145.46 247.82 145.53 242.01 144.97 C 230.60 144.12 219.23 145.91 208.03 147.89 C 203.54 148.74 199.46 151.37 194.76 151.15 C 196.24 150.77 197.70 150.32 199.16 149.89 C 199.43 144.66 199.12 139.40 198.01 134.28 C 195.64 134.54 193.27 134.81 190.91 135.07 C 190.74 140.15 190.85 145.24 190.96 150.32 C 188.74 145.23 189.48 139.56 190.07 134.22 C 194.08 133.45 198.17 133.49 202.22 133.12 Z" />
<path fill="#9aac68" opacity="1.00" d=" M 294.62 150.44 L 294.84 149.87 C 299.16 156.82 306.05 161.54 312.18 166.74 C 320.52 176.19 328.34 186.07 335.68 196.31 C 331.95 198.25 328.41 200.53 325.05 203.07 C 320.47 196.41 315.81 189.70 309.90 184.12 C 306.31 180.72 302.83 177.22 299.30 173.76 C 295.16 169.92 291.55 165.26 286.23 162.97 L 286.60 162.60 C 290.31 159.32 293.08 155.14 294.62 150.44 Z" />
<path fill="#9aac68" opacity="1.00" d=" M 45.99 173.85 C 53.15 174.42 60.36 173.73 67.51 174.63 C 73.88 175.21 80.12 176.66 86.48 177.33 C 86.61 179.89 86.76 182.44 86.91 184.99 C 89.26 185.16 91.60 185.31 93.95 185.46 C 94.57 183.02 95.21 180.58 95.88 178.15 L 96.12 177.29 C 96.28 180.63 96.29 183.97 96.15 187.31 C 86.62 186.25 77.03 186.57 67.50 185.68 C 62.90 185.35 57.88 186.64 53.62 184.41 C 51.98 183.44 50.45 182.27 48.68 181.53 C 47.14 181.47 45.67 182.06 44.20 182.42 L 43.35 182.66 C 43.02 179.43 43.62 176.23 45.99 173.85 M 44.58 178.08 C 46.27 178.41 47.98 179.14 49.72 178.89 C 51.19 178.33 52.20 177.04 53.37 176.06 C 51.67 175.73 49.98 175.27 48.25 175.30 C 46.72 175.71 45.77 177.14 44.58 178.08 Z" />
<path fill="#9aac68" opacity="1.00" d=" M 125.45 177.09 C 135.13 176.83 145.22 176.94 154.24 180.87 C 160.83 184.43 166.36 189.99 169.78 196.66 C 166.51 199.13 163.27 201.63 160.02 204.11 C 156.70 198.72 151.39 195.13 146.26 191.65 C 140.90 188.14 134.52 186.08 128.09 186.18 C 124.28 186.20 120.48 186.29 116.68 186.21 C 116.89 184.36 117.10 182.52 117.33 180.68 C 117.54 182.17 117.77 183.67 118.00 185.16 C 120.35 185.17 122.71 185.17 125.07 185.18 C 125.20 182.48 125.33 179.79 125.45 177.09 Z" />
<path fill="#9aac68" opacity="1.00" d=" M 67.24 205.08 C 70.62 203.41 74.24 201.10 78.16 202.40 C 77.28 202.72 75.53 203.35 74.65 203.67 C 75.74 205.14 76.72 206.72 78.12 207.93 C 79.81 208.64 81.65 208.90 83.44 209.30 C 83.71 208.47 84.25 206.80 84.52 205.97 C 87.94 209.40 90.57 213.53 94.19 216.77 C 97.91 220.03 100.85 224.07 104.64 227.25 L 104.32 227.51 C 101.15 229.96 98.27 232.75 95.64 235.76 C 93.29 232.95 90.56 230.50 87.54 228.44 C 82.64 225.09 78.49 220.67 73.12 218.02 L 73.48 217.56 C 74.23 216.59 74.98 215.62 75.73 214.66 C 74.12 211.90 71.98 209.51 69.40 207.62 C 69.06 209.14 68.72 210.66 68.40 212.18 C 68.03 209.81 67.63 207.44 67.24 205.08 Z" />
<path fill="#9aac68" opacity="1.00" d=" M 185.67 233.52 L 186.07 232.70 C 186.32 238.62 186.57 244.69 188.67 250.31 C 191.07 256.83 195.43 262.33 199.22 268.07 C 195.94 270.61 191.72 272.42 187.52 271.50 C 183.61 268.42 182.04 263.44 179.82 259.17 C 176.59 252.90 175.07 245.94 171.90 239.64 C 177.05 240.11 183.81 239.23 185.67 233.52 Z" />
<path fill="#9aac68" opacity="1.00" d=" M 343.20 239.11 C 346.43 237.46 349.66 235.80 352.88 234.12 C 353.67 238.28 355.28 242.20 357.01 246.03 C 359.41 251.36 360.96 257.05 363.72 262.22 C 366.47 267.36 370.88 271.28 374.81 275.49 C 372.31 278.24 369.91 281.09 367.60 284.00 C 356.81 270.69 348.63 255.34 343.20 239.11 Z" />
<path fill="#9aac68" opacity="1.00" d=" M 224.49 262.30 C 229.67 261.74 233.53 256.50 239.05 258.10 C 236.36 259.04 233.66 259.93 230.97 260.85 C 231.47 264.92 231.68 269.30 234.29 272.69 L 234.60 273.18 C 224.93 274.16 216.10 278.64 207.10 281.98 C 202.45 283.24 197.61 284.29 193.72 287.32 C 193.41 284.52 193.35 281.60 192.20 278.98 C 191.13 277.10 188.64 277.10 186.82 276.43 L 186.07 276.23 C 194.72 275.79 201.99 270.83 209.91 267.96 C 214.77 266.07 219.19 262.90 224.49 262.30 Z" />
<path fill="#9aac68" opacity="1.00" d=" M 130.24 259.55 L 130.65 259.17 C 134.80 265.64 140.63 270.90 147.11 274.96 C 150.33 276.96 154.15 277.58 157.87 277.85 L 157.33 278.26 C 152.86 280.49 153.11 285.84 152.60 290.09 C 147.17 287.86 142.14 284.81 137.08 281.88 C 130.68 278.18 126.58 271.87 121.35 266.86 L 121.77 266.55 C 124.76 264.43 127.59 262.08 130.24 259.55 Z" />
<path fill="#9aac68" opacity="1.00" d=" M 275.64 259.91 C 278.94 261.61 282.36 263.06 285.86 264.32 C 296.31 268.09 306.01 273.60 315.55 279.20 C 311.21 281.38 308.98 285.77 307.23 290.07 C 298.37 283.20 288.21 277.98 277.59 274.37 C 274.51 273.30 271.22 273.27 268.00 273.10 L 268.14 272.34 C 270.22 272.01 273.23 272.40 274.22 270.05 C 275.88 266.94 275.61 263.31 275.64 259.91 Z" />
<path fill="#9aac68" opacity="1.00" d=" M 233.64 290.17 C 240.50 291.40 247.14 293.97 254.16 294.20 C 256.67 294.31 259.17 294.67 261.64 295.14 C 261.96 297.53 262.30 299.92 262.65 302.31 C 256.72 301.64 250.86 300.51 244.91 300.02 C 239.34 299.57 233.89 298.04 228.27 298.11 L 228.74 297.53 C 230.67 295.29 232.25 292.78 233.64 290.17 Z" />
<path fill="#9aac68" opacity="1.00" d=" M 293.73 291.15 C 300.33 289.59 306.33 293.68 311.53 297.15 C 307.01 299.02 302.13 299.53 297.39 300.54 C 299.98 298.50 299.76 295.33 299.20 292.41 C 297.37 291.99 295.55 291.57 293.73 291.15 Z" />
<path fill="#9aac68" opacity="1.00" d=" M 408.71 297.04 C 414.67 299.95 420.78 302.52 426.77 305.36 C 447.06 315.97 464.07 332.24 476.98 351.04 C 479.00 353.67 480.63 356.62 481.39 359.88 C 474.16 352.04 467.38 343.68 458.95 337.06 C 453.20 332.47 448.11 326.89 441.44 323.59 C 434.95 320.60 428.67 317.07 421.78 315.04 C 414.82 312.94 408.53 308.71 401.19 308.01 L 401.59 307.60 C 404.74 304.67 406.97 300.95 408.71 297.04 Z" />
<path fill="#9aac68" opacity="1.00" d=" M 366.38 309.24 C 373.07 314.62 378.72 321.25 384.02 327.96 C 390.20 338.30 398.57 347.15 404.27 357.79 C 400.68 357.90 398.81 354.57 396.88 352.11 C 392.39 345.70 386.76 340.24 381.55 334.44 C 374.87 327.42 368.63 319.69 360.31 314.53 L 360.68 314.21 C 362.59 312.57 364.49 310.91 366.38 309.24 Z" />
<path fill="#9aac68" opacity="1.00" d=" M 344.65 311.77 L 345.03 311.31 C 347.70 317.76 352.63 322.87 356.10 328.86 C 359.82 335.29 365.10 340.54 370.12 345.93 C 368.34 347.83 366.55 349.72 364.76 351.61 L 364.32 352.07 C 360.92 347.72 357.19 343.65 353.25 339.80 C 347.10 333.06 342.75 324.95 337.20 317.75 C 340.10 316.33 342.81 314.47 344.65 311.77 Z" />
<path fill="#9aac68" opacity="1.00" d=" M 403.64 362.93 C 419.32 367.25 435.34 370.58 451.60 371.63 C 456.72 371.88 461.87 371.38 466.97 372.00 C 472.35 372.68 477.76 371.68 483.15 372.25 C 477.14 375.58 470.11 375.19 463.49 375.85 C 457.50 376.46 451.47 376.30 445.51 375.54 C 433.69 374.13 421.62 374.71 410.00 371.83 C 405.61 370.79 401.10 370.35 396.63 369.84 L 397.44 369.64 C 398.85 369.30 400.26 368.97 401.67 368.64 C 402.33 366.73 402.98 364.83 403.64 362.93 Z" />
</g>
<g id="#daeabfff">
<path fill="#daeabf" opacity="1.00" d=" M 90.34 65.52 C 92.66 60.79 97.05 57.77 101.68 55.56 C 102.74 57.92 103.78 60.29 104.78 62.68 C 101.49 65.62 98.00 68.32 94.31 70.74 C 92.98 69.00 91.66 67.26 90.34 65.52 Z" />
<path fill="#daeabf" opacity="1.00" d=" M 108.12 95.15 C 111.01 93.27 114.52 92.79 117.80 91.95 C 119.06 93.79 120.30 95.64 121.51 97.52 C 117.81 100.04 113.89 102.21 109.92 104.25 C 108.42 101.60 105.83 98.08 108.12 95.15 Z" />
<path fill="#daeabf" opacity="1.00" d=" M 190.91 135.07 C 193.27 134.81 195.64 134.54 198.01 134.28 C 199.12 139.40 199.43 144.66 199.16 149.89 C 197.70 150.32 196.24 150.77 194.76 151.15 C 193.51 151.31 192.25 151.42 190.99 151.48 L 190.96 150.32 C 190.85 145.24 190.74 140.15 190.91 135.07 Z" />
<path fill="#daeabf" opacity="1.00" d=" M 259.25 148.11 C 259.18 142.61 262.38 138.02 265.34 133.68 C 267.52 134.59 269.69 135.52 271.86 136.45 C 270.44 140.86 268.28 144.97 265.78 148.85 C 263.60 148.62 261.42 148.38 259.25 148.11 Z" />
<path fill="#daeabf" opacity="1.00" d=" M 158.21 151.57 C 157.36 145.86 158.11 140.06 160.13 134.67 C 162.31 135.27 164.50 135.85 166.70 136.43 C 166.98 141.56 167.30 146.82 165.54 151.76 C 163.10 151.69 160.65 151.62 158.21 151.57 Z" />
<path fill="#daeabf" opacity="1.00" d=" M 287.79 146.93 C 290.29 147.61 292.57 148.85 294.62 150.44 C 293.08 155.14 290.31 159.32 286.60 162.60 C 284.67 161.07 282.78 159.49 280.92 157.88 C 283.27 154.27 285.60 150.64 287.79 146.93 Z" />
<path fill="#daeabf" opacity="1.00" d=" M 86.48 177.33 C 89.64 177.13 92.81 177.35 95.88 178.15 C 95.21 180.58 94.57 183.02 93.95 185.46 C 91.60 185.31 89.26 185.16 86.91 184.99 C 86.76 182.44 86.61 179.89 86.48 177.33 Z" />
<path fill="#daeabf" opacity="1.00" d=" M 116.92 177.28 C 119.76 177.20 122.61 177.15 125.45 177.09 C 125.33 179.79 125.20 182.48 125.07 185.18 C 122.71 185.17 120.35 185.17 118.00 185.16 C 117.77 183.67 117.54 182.17 117.33 180.68 C 117.18 179.55 117.05 178.42 116.92 177.28 Z" />
<path fill="#daeabf" opacity="1.00" d=" M 160.02 204.11 C 163.27 201.63 166.51 199.13 169.78 196.66 C 171.02 198.81 174.04 200.75 173.47 203.46 C 170.94 206.91 167.21 209.21 163.48 211.18 C 162.25 208.86 161.07 206.51 160.02 204.11 Z" />
<path fill="#daeabf" opacity="1.00" d=" M 325.05 203.07 C 328.41 200.53 331.95 198.25 335.68 196.31 C 336.89 198.30 338.91 200.16 338.85 202.67 C 336.16 205.78 332.50 207.80 329.16 210.12 C 327.63 207.87 326.25 205.52 325.05 203.07 Z" />
<path fill="#daeabf" opacity="1.00" d=" M 339.94 231.89 C 343.17 229.68 346.70 227.94 350.50 226.98 C 351.35 229.34 352.16 231.72 352.88 234.12 C 349.66 235.80 346.43 237.46 343.20 239.11 C 342.08 236.72 341.00 234.31 339.94 231.89 Z" />
<path fill="#daeabf" opacity="1.00" d=" M 95.64 235.76 C 98.27 232.75 101.15 229.96 104.32 227.51 C 105.61 229.21 107.62 230.73 107.80 233.01 C 107.15 235.34 105.56 237.28 103.95 239.02 C 103.00 239.83 101.94 241.44 100.54 240.48 C 98.58 239.29 97.16 237.44 95.64 235.76 Z" />
<path fill="#daeabf" opacity="1.00" d=" M 171.36 232.93 C 175.40 231.65 179.43 230.32 183.45 228.99 C 184.21 230.49 185.00 231.97 185.67 233.52 C 183.81 239.23 177.05 240.11 171.90 239.64 C 171.69 237.41 171.51 235.17 171.36 232.93 Z" />
<path fill="#daeabf" opacity="1.00" d=" M 116.94 260.13 C 119.62 257.64 122.57 255.45 125.82 253.75 C 127.32 255.67 128.79 257.60 130.24 259.55 C 127.59 262.08 124.76 264.43 121.77 266.55 C 120.06 264.48 118.45 262.34 116.94 260.13 Z" />
<path fill="#daeabf" opacity="1.00" d=" M 230.97 260.85 C 233.66 259.93 236.36 259.04 239.05 258.10 C 239.57 262.01 240.17 265.91 240.73 269.82 C 238.58 270.78 236.43 271.73 234.29 272.69 C 231.68 269.30 231.47 264.92 230.97 260.85 Z" />
<path fill="#daeabf" opacity="1.00" d=" M 268.44 259.13 C 270.84 259.36 273.24 259.62 275.64 259.91 C 275.61 263.31 275.88 266.94 274.22 270.05 C 273.23 272.40 270.22 272.01 268.14 272.34 C 267.16 271.93 266.20 271.49 265.26 271.03 C 266.38 267.08 267.36 263.09 268.44 259.13 Z" />
<path fill="#daeabf" opacity="1.00" d=" M 367.60 284.00 C 369.91 281.09 372.31 278.24 374.81 275.49 C 376.63 277.34 378.44 279.21 380.23 281.10 C 378.11 283.78 376.67 287.81 373.13 288.80 C 371.04 287.52 369.36 285.69 367.60 284.00 Z" />
<path fill="#daeabf" opacity="1.00" d=" M 186.82 276.43 C 188.64 277.10 191.13 277.10 192.20 278.98 C 193.35 281.60 193.41 284.52 193.72 287.32 C 191.03 287.98 188.31 288.49 185.57 288.88 C 184.97 285.48 184.48 282.06 184.11 278.62 C 184.79 278.07 186.14 276.98 186.82 276.43 Z" />
<path fill="#daeabf" opacity="1.00" d=" M 152.60 290.09 C 153.11 285.84 152.86 280.49 157.33 278.26 C 158.87 278.98 160.42 279.70 161.96 280.43 C 161.57 283.89 161.05 287.34 160.45 290.78 C 157.83 290.56 155.21 290.32 152.60 290.09 Z" />
<path fill="#daeabf" opacity="1.00" d=" M 307.23 290.07 C 308.98 285.77 311.21 281.38 315.55 279.20 C 317.05 280.76 318.53 282.33 319.99 283.93 C 318.08 286.97 316.74 290.71 313.70 292.82 C 311.28 292.78 309.29 291.14 307.23 290.07 Z" />
<path fill="#daeabf" opacity="1.00" d=" M 225.33 287.94 C 228.18 288.32 230.98 289.04 233.64 290.17 C 232.25 292.78 230.67 295.29 228.74 297.53 C 226.79 296.77 224.84 296.01 222.88 295.26 C 223.57 292.78 224.41 290.34 225.33 287.94 Z" />
<path fill="#daeabf" opacity="1.00" d=" M 291.07 293.31 C 291.96 292.59 292.85 291.87 293.73 291.15 C 295.55 291.57 297.37 291.99 299.20 292.41 C 299.76 295.33 299.98 298.50 297.39 300.54 C 295.64 300.23 293.89 299.93 292.15 299.63 C 291.77 297.52 291.42 295.42 291.07 293.31 Z" />
<path fill="#daeabf" opacity="1.00" d=" M 261.64 295.14 C 264.31 294.84 267.01 294.74 269.70 294.97 C 269.74 297.18 269.78 299.39 269.82 301.60 C 267.43 301.83 265.04 302.07 262.65 302.31 C 262.30 299.92 261.96 297.53 261.64 295.14 Z" />
<path fill="#daeabf" opacity="1.00" d=" M 337.71 294.18 C 340.45 294.79 344.01 294.76 345.62 297.49 C 345.93 299.30 345.32 301.09 344.60 302.73 C 340.49 302.32 338.83 297.57 337.71 294.18 Z" />
<path fill="#daeabf" opacity="1.00" d=" M 401.19 294.24 C 403.70 295.15 406.21 296.08 408.71 297.04 C 406.97 300.95 404.74 304.67 401.59 307.60 C 399.67 306.47 397.58 305.50 396.10 303.79 C 396.97 300.24 399.23 297.27 401.19 294.24 Z" />
<path fill="#daeabf" opacity="1.00" d=" M 359.30 304.11 C 361.76 305.68 364.11 307.41 366.38 309.24 C 364.49 310.91 362.59 312.57 360.68 314.21 C 358.74 312.54 356.84 310.82 354.99 309.06 C 356.42 307.40 357.86 305.76 359.30 304.11 Z" />
<path fill="#daeabf" opacity="1.00" d=" M 333.10 311.68 C 335.31 309.61 337.68 307.72 340.14 305.96 C 341.67 307.88 343.16 309.82 344.65 311.77 C 342.81 314.47 340.10 316.33 337.20 317.75 C 335.81 315.74 334.45 313.71 333.10 311.68 Z" />
<path fill="#daeabf" opacity="1.00" d=" M 370.12 345.93 C 372.36 347.38 374.58 348.84 376.81 350.31 C 375.35 352.28 374.10 354.60 371.88 355.82 C 369.01 355.52 366.93 353.27 364.76 351.61 C 366.55 349.72 368.34 347.83 370.12 345.93 Z" />
<path fill="#daeabf" opacity="1.00" d=" M 396.45 360.23 C 398.86 361.08 401.26 361.98 403.64 362.93 C 402.98 364.83 402.33 366.73 401.67 368.64 C 400.26 368.97 398.85 369.30 397.44 369.64 C 395.99 368.62 394.55 367.61 393.10 366.59 C 394.21 364.46 395.32 362.34 396.45 360.23 Z" />
</g>
</svg>
