<?xml version="1.0" encoding="UTF-8" ?>
<!DOCTYPE svg PUBLIC "-//W3C//DTD SVG 1.1//EN" "http://www.w3.org/Graphics/SVG/1.1/DTD/svg11.dtd">
<svg width="561pt" height="422pt" viewBox="0 0 561 422" version="1.1" xmlns="http://www.w3.org/2000/svg">
<g id="#fcfeedff">
<path fill="#fcfeed" opacity="1.00" d=" M 69.50 18.52 C 71.39 18.18 73.27 17.85 75.16 17.53 C 77.34 19.25 79.54 20.93 81.74 22.62 C 80.49 23.58 79.26 24.58 77.88 25.35 C 73.89 25.08 71.33 21.70 69.50 18.52 Z" />
<path fill="#fcfeed" opacity="1.00" d=" M 62.59 22.43 C 67.04 23.70 70.13 27.95 69.55 32.61 C 68.68 33.44 67.70 34.14 66.75 34.86 C 64.82 30.95 62.68 26.90 62.59 22.43 Z" />
<path fill="#fcfeed" opacity="1.00" d=" M 90.58 65.61 C 93.19 61.20 97.52 58.35 101.83 55.81 C 102.76 58.14 103.81 60.42 104.86 62.70 C 101.40 65.55 97.82 68.27 94.20 70.91 C 93.05 69.10 91.87 67.32 90.58 65.61 Z" />
<path fill="#fcfeed" opacity="1.00" d=" M 106.63 97.07 C 109.53 93.82 114.20 93.14 117.99 91.29 C 119.02 93.23 120.09 95.16 121.16 97.08 C 117.63 99.90 113.53 101.84 109.53 103.88 C 108.41 101.68 107.31 99.45 106.63 97.07 Z" />
<path fill="#fcfeed" opacity="1.00" d=" M 190.44 134.51 C 191.83 134.50 193.21 134.46 194.60 134.46 C 195.84 134.48 197.09 134.51 198.34 134.55 C 198.37 139.62 198.45 144.69 198.64 149.75 C 197.36 150.12 196.09 150.49 194.81 150.86 C 194.09 151.03 192.66 151.39 191.94 151.57 C 190.65 145.98 190.27 140.24 190.44 134.51 Z" />
<path fill="#fcfeed" opacity="1.00" d=" M 258.88 146.67 C 260.81 142.15 263.11 137.80 265.77 133.68 C 267.76 134.71 269.80 135.63 271.84 136.56 C 270.45 140.41 269.02 144.32 266.71 147.73 C 266.08 149.10 264.36 148.80 263.17 148.68 C 261.72 148.05 260.30 147.36 258.88 146.67 Z" />
<path fill="#fcfeed" opacity="1.00" d=" M 159.52 135.59 C 161.77 135.86 164.01 136.11 166.27 136.30 L 167.43 136.40 C 166.27 141.50 167.10 146.83 165.48 151.86 C 163.15 151.65 160.82 151.43 158.50 151.13 C 158.61 145.94 159.36 140.78 159.52 135.59 Z" />
<path fill="#fcfeed" opacity="1.00" d=" M 287.74 146.96 C 290.19 147.55 292.30 148.93 294.40 150.27 C 292.56 154.87 289.77 159.00 286.39 162.60 C 284.59 161.08 282.69 159.65 281.16 157.85 C 283.10 154.07 285.70 150.68 287.74 146.96 Z" />
<path fill="#fcfeed" opacity="1.00" d=" M 47.53 175.23 C 48.93 175.31 50.33 175.37 51.73 175.43 C 51.86 176.11 52.11 177.48 52.24 178.16 C 49.98 178.45 47.73 178.74 45.47 179.04 C 45.48 177.76 45.49 176.47 45.49 175.19 C 46.00 175.20 47.02 175.22 47.53 175.23 Z" />
<path fill="#fcfeed" opacity="1.00" d=" M 86.86 177.16 C 89.61 177.32 92.38 177.44 95.09 178.00 C 94.63 180.23 94.20 182.47 93.74 184.70 C 91.66 184.66 89.58 184.62 87.49 184.58 C 87.34 182.10 87.14 179.63 86.86 177.16 Z" />
<path fill="#fcfeed" opacity="1.00" d=" M 116.60 177.52 C 119.27 177.53 121.95 177.45 124.62 177.35 C 124.64 179.82 124.66 182.29 124.69 184.77 C 122.60 184.76 120.51 184.78 118.42 184.81 C 118.08 183.41 117.73 182.01 117.39 180.62 C 117.20 179.84 116.80 178.29 116.60 177.52 Z" />
<path fill="#fcfeed" opacity="1.00" d=" M 43.67 182.88 C 44.86 182.15 46.08 181.48 47.33 180.87 C 49.79 180.73 50.94 183.09 51.98 184.89 C 49.08 184.85 46.23 184.27 43.67 182.88 Z" />
<path fill="#fcfeed" opacity="1.00" d=" M 160.14 204.51 C 163.59 202.13 166.96 199.64 170.27 197.06 C 171.59 199.10 172.88 201.17 174.02 203.31 C 170.81 206.31 167.40 209.09 163.96 211.81 C 162.68 209.38 161.35 206.97 160.14 204.51 Z" />
<path fill="#fcfeed" opacity="1.00" d=" M 325.14 203.51 C 328.61 201.03 332.20 198.71 335.90 196.57 C 337.17 198.62 338.42 200.69 339.60 202.80 C 336.00 205.27 332.57 207.99 328.72 210.07 C 327.50 207.89 326.31 205.70 325.14 203.51 Z" />
<path fill="#fcfeed" opacity="1.00" d=" M 74.54 204.99 C 75.46 203.90 76.69 203.16 77.92 202.47 C 80.63 203.53 82.96 205.33 84.76 207.61 C 82.90 207.98 81.02 208.64 79.10 208.34 C 77.36 207.57 75.90 206.29 74.54 204.99 Z" />
<path fill="#fcfeed" opacity="1.00" d=" M 69.21 207.72 C 71.02 209.24 73.11 210.60 74.30 212.71 C 74.88 214.38 74.12 216.17 73.89 217.86 C 71.84 216.25 70.01 214.38 68.40 212.31 C 68.66 210.78 68.93 209.25 69.21 207.72 Z" />
<path fill="#fcfeed" opacity="1.00" d=" M 340.13 231.00 C 343.59 229.79 346.87 228.08 350.38 226.97 C 351.23 229.28 352.10 231.58 352.92 233.91 C 349.51 235.45 346.14 237.08 342.84 238.84 C 341.81 236.27 340.82 233.68 340.13 231.00 Z" />
<path fill="#fcfeed" opacity="1.00" d=" M 95.97 236.08 C 98.65 233.07 101.46 230.18 104.47 227.50 C 105.73 229.42 108.15 231.15 107.71 233.72 C 106.10 236.76 103.53 239.15 101.14 241.57 C 99.42 239.73 97.68 237.92 95.97 236.08 Z" />
<path fill="#fcfeed" opacity="1.00" d=" M 171.23 232.75 C 175.48 231.76 179.59 230.31 183.74 229.01 C 184.15 230.51 184.58 232.01 184.84 233.55 C 184.75 234.52 184.66 235.50 184.57 236.47 C 180.58 238.19 176.39 239.66 171.98 239.40 C 171.71 237.18 171.46 234.97 171.23 232.75 Z" />
<path fill="#fcfeed" opacity="1.00" d=" M 124.43 254.46 C 127.38 253.79 128.26 257.59 130.01 259.21 C 127.24 261.72 124.36 264.11 121.38 266.36 C 119.93 264.23 118.46 262.11 117.02 259.97 C 119.47 258.12 121.73 255.95 124.43 254.46 Z" />
<path fill="#fcfeed" opacity="1.00" d=" M 231.43 260.88 C 233.85 260.14 236.28 259.37 238.73 258.72 L 239.43 259.04 C 239.72 262.84 240.26 266.62 240.79 270.40 C 240.32 270.47 239.38 270.63 238.91 270.70 C 236.90 271.03 234.90 271.39 232.90 271.74 C 232.70 268.08 232.19 264.45 231.43 260.88 Z" />
<path fill="#fcfeed" opacity="1.00" d=" M 265.29 271.38 C 266.32 267.09 267.32 262.79 268.78 258.63 C 271.00 259.19 273.26 259.63 275.53 260.01 C 275.18 263.94 274.20 267.77 273.14 271.57 C 271.77 271.60 270.41 271.64 269.04 271.65 C 267.78 271.62 266.53 271.49 265.29 271.38 Z" />
<path fill="#fcfeed" opacity="1.00" d=" M 368.00 284.30 C 370.28 281.45 372.59 278.61 374.97 275.85 C 376.73 277.67 378.56 279.41 380.46 281.09 C 378.49 283.60 376.74 286.31 374.50 288.59 C 371.57 289.25 370.05 285.77 368.00 284.30 Z" />
<path fill="#fcfeed" opacity="1.00" d=" M 186.75 277.21 C 188.20 277.34 189.67 277.46 191.08 277.87 C 192.48 280.75 192.88 283.98 193.49 287.09 C 190.93 287.78 188.34 288.38 185.69 288.58 C 185.08 285.13 184.40 281.69 184.12 278.19 C 184.78 277.95 186.10 277.46 186.75 277.21 Z" />
<path fill="#fcfeed" opacity="1.00" d=" M 154.68 279.51 C 155.86 279.50 157.04 279.49 158.23 279.48 C 159.42 279.48 160.61 279.49 161.80 279.49 C 161.78 283.30 161.18 287.05 160.36 290.75 C 157.93 290.53 155.50 290.25 153.10 289.82 C 153.55 286.37 154.12 282.94 154.68 279.51 Z" />
<path fill="#fcfeed" opacity="1.00" d=" M 307.46 290.01 C 309.49 286.00 311.76 281.94 315.57 279.36 C 317.06 280.88 318.56 282.40 320.06 283.92 C 318.12 287.25 315.96 290.45 313.99 293.77 C 311.74 292.65 309.59 291.34 307.46 290.01 Z" />
<path fill="#fcfeed" opacity="1.00" d=" M 225.53 288.13 C 228.02 288.39 230.45 288.97 232.81 289.79 C 232.10 291.94 231.41 294.10 230.78 296.27 C 230.01 296.43 229.25 296.59 228.49 296.75 C 226.38 296.41 224.37 295.68 222.33 295.10 C 223.40 292.77 224.48 290.46 225.53 288.13 Z" />
<path fill="#fcfeed" opacity="1.00" d=" M 291.23 292.34 C 291.86 292.34 293.11 292.33 293.73 292.33 C 295.35 292.34 296.97 292.36 298.59 292.40 C 298.96 294.47 299.34 296.54 299.73 298.61 C 298.82 299.01 297.92 299.39 297.01 299.77 C 295.35 300.47 293.51 300.30 291.75 300.43 C 291.59 297.73 291.38 295.04 291.23 292.34 Z" />
<path fill="#fcfeed" opacity="1.00" d=" M 337.68 294.10 C 340.81 294.50 343.74 295.65 346.55 297.04 C 345.75 299.04 344.97 301.04 344.19 303.05 C 340.94 301.00 338.54 297.88 337.68 294.10 Z" />
<path fill="#fcfeed" opacity="1.00" d=" M 396.05 303.87 C 396.91 300.28 399.01 297.14 401.32 294.33 C 403.77 294.94 406.04 296.10 408.33 297.15 C 406.53 300.86 404.29 304.36 401.49 307.40 C 399.63 306.29 397.61 305.38 396.05 303.87 Z" />
<path fill="#fcfeed" opacity="1.00" d=" M 262.56 295.56 C 264.92 295.47 267.29 295.40 269.66 295.31 C 269.60 297.40 269.55 299.48 269.51 301.57 C 267.20 301.48 264.88 301.42 262.57 301.35 C 262.56 299.42 262.56 297.49 262.56 295.56 Z" />
<path fill="#fcfeed" opacity="1.00" d=" M 359.12 304.03 C 361.28 305.32 363.36 306.73 365.40 308.20 C 364.18 309.98 362.95 311.75 361.73 313.53 C 360.55 312.91 359.36 312.29 358.19 311.67 C 357.14 311.10 356.10 310.54 355.06 309.99 C 356.22 307.88 357.64 305.92 359.12 304.03 Z" />
<path fill="#fcfeed" opacity="1.00" d=" M 333.24 311.16 C 335.55 309.40 337.89 307.67 340.33 306.08 C 341.65 308.00 343.00 309.91 344.49 311.71 C 342.34 313.99 339.85 315.91 337.19 317.55 C 335.80 315.46 334.49 313.33 333.24 311.16 Z" />
<path fill="#fcfeed" opacity="1.00" d=" M 364.84 351.89 C 366.98 350.09 369.15 348.32 371.38 346.64 C 372.94 348.14 375.82 348.85 376.48 351.03 C 375.40 352.96 373.71 354.61 371.80 355.71 C 368.99 355.74 367.07 353.25 364.84 351.89 Z" />
<path fill="#fcfeed" opacity="1.00" d=" M 396.47 360.34 C 398.59 361.04 400.73 361.69 402.87 362.32 C 402.42 364.47 401.95 366.61 401.49 368.76 C 400.01 368.74 398.54 368.74 397.08 368.68 C 395.70 368.24 394.39 367.61 393.07 367.05 C 394.17 364.80 395.30 362.56 396.47 360.34 Z" />
</g>
<g id="#526734ff">
<path fill="#526734" opacity="1.00" d=" M 58.66 22.03 C 58.04 17.62 60.80 11.91 65.94 12.32 C 75.28 11.19 82.69 18.14 88.43 24.55 C 95.13 31.80 98.95 40.96 103.24 49.70 C 110.53 65.65 116.75 82.16 125.71 97.29 C 130.67 106.29 136.24 115.15 143.75 122.26 C 149.50 127.82 157.19 131.00 164.99 132.35 C 171.65 132.93 178.39 132.86 185.04 132.17 C 195.51 130.82 205.75 128.06 216.25 126.97 C 225.37 124.94 234.73 125.39 244.00 125.55 C 268.17 127.36 289.81 140.63 307.03 156.98 C 314.88 164.84 322.95 172.55 329.65 181.45 C 342.18 196.69 350.52 214.90 356.69 233.52 C 360.30 243.22 363.12 253.37 368.81 262.13 C 377.18 275.78 390.75 285.52 405.31 291.71 C 415.86 296.34 426.78 300.27 436.53 306.52 C 459.94 321.07 478.33 342.97 490.46 367.57 C 496.93 369.10 503.51 366.79 510.03 366.65 C 519.53 366.54 528.82 363.50 538.30 363.70 C 538.37 364.30 538.52 365.50 538.60 366.10 C 524.69 371.42 509.76 373.23 495.26 376.27 C 496.28 378.92 497.24 381.63 497.31 384.50 C 496.62 384.48 495.22 384.42 494.53 384.39 C 492.83 381.92 490.98 379.55 489.13 377.20 C 481.42 377.69 473.76 378.75 466.03 378.68 C 457.05 379.73 447.96 379.62 438.98 378.69 C 432.92 378.74 426.90 378.14 420.89 377.45 C 423.83 384.24 427.63 390.63 430.60 397.40 C 431.40 398.86 429.92 399.88 429.21 400.98 C 424.35 394.74 419.72 388.32 415.14 381.87 C 413.07 379.40 411.50 375.79 407.99 375.21 C 397.53 372.72 386.98 369.86 377.51 364.61 C 370.10 360.65 363.40 355.47 357.14 349.90 C 350.57 343.04 344.81 335.45 339.45 327.62 C 336.18 322.02 332.24 316.87 328.05 311.94 C 324.56 307.93 321.03 303.49 316.01 301.42 C 310.30 301.37 304.68 302.69 299.01 303.21 C 289.67 303.95 280.41 305.94 271.00 305.45 C 257.88 305.91 244.79 304.17 232.00 301.32 C 222.35 298.97 212.47 296.52 204.14 290.84 C 201.96 289.06 199.10 288.93 196.51 289.77 C 188.50 292.09 180.39 294.53 171.99 294.67 C 164.79 294.86 157.41 294.99 150.52 292.60 C 139.19 289.40 129.52 281.90 122.07 272.95 C 111.88 259.59 101.16 246.57 89.17 234.77 C 81.45 227.55 71.18 222.63 66.00 213.00 C 64.16 209.38 62.18 204.01 65.99 200.94 C 70.08 198.58 75.17 199.16 79.68 199.64 C 86.93 202.24 92.08 208.38 97.35 213.71 C 106.77 224.31 115.40 235.59 124.63 246.36 C 131.80 254.81 137.62 264.81 147.36 270.66 C 157.96 277.74 171.97 278.09 183.76 273.96 C 181.71 269.25 178.23 265.31 176.25 260.56 C 172.69 251.96 169.25 243.23 167.43 234.07 C 164.49 222.01 160.50 209.46 151.60 200.40 C 144.50 193.03 134.15 189.26 124.00 189.35 C 110.01 189.15 96.00 189.34 82.00 189.28 C 70.56 189.25 58.93 190.53 47.64 188.10 C 44.00 186.72 38.52 184.98 39.25 180.05 C 38.52 175.94 42.29 173.08 45.69 171.78 C 49.87 169.92 54.55 170.45 59.00 170.36 C 69.64 170.05 79.99 173.13 90.60 173.46 C 95.74 173.49 100.84 174.86 105.99 174.23 C 112.37 173.44 118.80 173.51 125.21 173.31 C 134.55 173.07 144.09 173.34 153.05 176.27 C 159.75 178.38 164.57 183.81 169.09 188.90 C 178.64 201.22 184.54 216.02 188.07 231.11 C 189.75 237.14 190.21 243.48 192.48 249.35 C 194.78 255.73 198.69 261.39 202.96 266.60 C 215.62 260.86 228.75 255.66 242.60 253.76 C 250.04 252.95 257.53 253.46 264.99 253.56 C 264.02 253.85 263.04 254.14 262.07 254.42 C 270.84 254.09 279.19 257.62 287.25 260.68 C 295.80 264.78 304.92 267.83 312.85 273.14 C 318.12 276.76 323.11 280.82 327.54 285.43 C 330.91 289.24 336.40 289.14 340.84 290.88 C 358.60 295.86 372.98 308.45 384.62 322.29 C 393.19 332.73 400.38 344.20 407.34 355.75 C 408.94 358.00 410.13 361.14 413.17 361.72 C 435.66 367.58 459.05 369.67 482.24 368.25 C 478.44 362.38 473.30 357.58 468.86 352.22 C 462.02 344.01 453.68 337.26 445.16 330.88 C 431.32 320.89 414.24 317.42 399.14 309.90 C 384.39 303.45 370.50 294.22 360.67 281.30 C 348.26 265.37 342.39 245.75 334.15 227.60 C 324.24 205.52 308.54 186.42 290.25 170.75 C 280.89 161.94 270.16 153.98 257.61 150.48 C 250.72 147.97 243.29 147.80 236.04 147.54 C 221.65 146.75 207.71 151.08 193.78 153.95 C 181.32 156.42 168.50 155.71 156.05 153.67 C 140.69 149.62 127.68 139.16 118.69 126.28 C 112.30 117.35 107.12 107.59 102.51 97.64 C 96.14 83.53 90.55 68.62 80.08 56.92 C 77.21 53.47 74.21 50.14 71.00 47.02 C 64.36 40.27 60.38 31.26 58.66 22.03 M 61.54 18.87 C 61.89 20.05 62.24 21.24 62.59 22.43 C 62.68 26.90 64.82 30.95 66.75 34.86 C 69.49 38.85 71.99 43.06 75.47 46.48 C 81.18 52.28 86.95 58.22 90.58 65.61 C 91.87 67.32 93.05 69.10 94.20 70.91 C 97.82 68.27 101.40 65.55 104.86 62.70 C 103.81 60.42 102.76 58.14 101.83 55.81 C 96.52 44.01 90.97 31.93 81.74 22.62 C 79.54 20.93 77.34 19.25 75.16 17.53 C 72.49 16.70 69.80 15.71 66.98 15.57 C 64.61 15.34 63.21 17.60 61.54 18.87 M 106.63 97.07 C 107.31 99.45 108.41 101.68 109.53 103.88 C 115.58 116.83 123.89 128.92 134.90 138.16 C 141.46 144.57 150.30 147.51 158.50 151.13 C 160.82 151.43 163.15 151.65 165.48 151.86 C 167.10 146.83 166.27 141.50 167.43 136.40 L 166.27 136.30 C 161.94 134.23 156.98 134.30 152.62 132.34 C 146.03 129.48 140.23 124.93 135.63 119.44 C 131.90 114.72 128.83 109.53 125.32 104.65 C 123.55 102.29 122.45 99.55 121.58 96.75 L 121.16 97.08 C 120.09 95.16 119.02 93.23 117.99 91.29 C 114.20 93.14 109.53 93.82 106.63 97.07 M 202.90 132.82 C 200.11 133.29 197.25 133.40 194.60 134.46 C 193.21 134.46 191.83 134.50 190.44 134.51 C 190.27 140.24 190.65 145.98 191.94 151.57 C 192.66 151.39 194.09 151.03 194.81 150.86 C 199.82 150.96 204.29 148.37 209.19 147.82 C 215.05 147.17 220.77 145.53 226.68 145.43 C 234.12 145.19 241.56 145.13 248.99 145.52 C 253.90 145.72 258.30 148.28 263.17 148.68 C 264.36 148.80 266.08 149.10 266.71 147.73 C 269.02 144.32 270.45 140.41 271.84 136.56 C 269.80 135.63 267.76 134.71 265.77 133.68 C 245.61 126.24 223.45 128.11 202.90 132.82 M 287.74 146.96 C 285.70 150.68 283.10 154.07 281.16 157.85 C 282.69 159.65 284.59 161.08 286.39 162.60 C 294.74 168.11 300.90 176.11 308.21 182.80 C 314.75 188.93 319.88 196.30 325.14 203.51 C 326.31 205.70 327.50 207.89 328.72 210.07 C 332.57 207.99 336.00 205.27 339.60 202.80 C 338.42 200.69 337.17 198.62 335.90 196.57 C 331.39 188.55 324.87 181.96 319.25 174.75 C 312.09 165.49 302.25 158.88 294.40 150.27 C 292.30 148.93 290.19 147.55 287.74 146.96 M 46.46 174.91 L 47.53 175.23 C 47.02 175.22 46.00 175.20 45.49 175.19 C 43.18 177.21 42.46 180.06 43.67 182.88 C 46.23 184.27 49.08 184.85 51.98 184.89 C 62.53 186.65 73.30 185.28 83.93 185.90 C 88.09 186.36 92.28 186.62 96.47 186.73 C 95.99 183.42 95.67 180.10 95.35 176.77 C 95.29 177.08 95.16 177.69 95.09 178.00 C 92.38 177.44 89.61 177.32 86.86 177.16 C 77.72 175.95 68.62 173.57 59.35 174.18 C 55.04 174.32 50.57 173.04 46.46 174.91 M 120.91 176.25 C 119.37 176.22 117.96 176.88 116.60 177.52 C 116.80 178.29 117.20 179.84 117.39 180.62 C 117.17 182.36 116.97 184.10 116.80 185.86 C 121.53 185.99 126.29 185.29 130.98 186.01 C 142.54 188.23 153.45 194.72 160.14 204.51 C 161.35 206.97 162.68 209.38 163.96 211.81 C 167.40 209.09 170.81 206.31 174.02 203.31 C 172.88 201.17 171.59 199.10 170.27 197.06 C 167.16 191.32 162.58 186.48 157.42 182.55 C 151.50 178.49 144.08 177.96 137.23 176.64 C 131.84 175.55 126.35 176.05 120.91 176.25 M 66.70 204.85 C 67.26 207.34 67.81 209.83 68.40 212.31 C 70.01 214.38 71.84 216.25 73.89 217.86 C 81.03 224.21 89.53 228.95 95.97 236.08 C 97.68 237.92 99.42 239.73 101.14 241.57 C 103.53 239.15 106.10 236.76 107.71 233.72 C 108.15 231.15 105.73 229.42 104.47 227.50 C 101.22 223.76 98.41 219.61 94.61 216.37 C 91.47 213.63 88.68 210.53 86.06 207.30 C 85.74 207.37 85.08 207.53 84.76 207.61 C 82.96 205.33 80.63 203.53 77.92 202.47 C 73.97 201.76 70.10 202.85 66.70 204.85 M 340.13 231.00 C 340.82 233.68 341.81 236.27 342.84 238.84 C 345.11 245.96 348.24 252.76 351.48 259.47 C 356.07 268.28 360.78 277.33 368.00 284.30 C 370.05 285.77 371.57 289.25 374.50 288.59 C 376.74 286.31 378.49 283.60 380.46 281.09 C 378.56 279.41 376.73 277.67 374.97 275.85 C 370.63 270.57 365.59 265.68 362.73 259.37 C 359.22 250.97 355.67 242.59 352.92 233.91 C 352.10 231.58 351.23 229.28 350.38 226.97 C 346.87 228.08 343.59 229.79 340.13 231.00 M 171.23 232.75 C 171.46 234.97 171.71 237.18 171.98 239.40 C 176.26 250.81 179.99 262.85 188.06 272.28 C 192.12 271.63 196.21 270.68 199.68 268.36 C 194.52 262.11 189.98 255.17 187.63 247.35 C 186.21 242.57 186.35 237.49 184.93 232.70 L 184.84 233.55 C 184.58 232.01 184.15 230.51 183.74 229.01 C 179.59 230.31 175.48 231.76 171.23 232.75 M 124.43 254.46 C 121.73 255.95 119.47 258.12 117.02 259.97 C 118.46 262.11 119.93 264.23 121.38 266.36 C 129.61 276.77 140.15 286.00 153.10 289.82 C 155.50 290.25 157.93 290.53 160.36 290.75 C 161.18 287.05 161.78 283.30 161.80 279.49 C 160.61 279.49 159.42 279.48 158.23 279.48 C 146.78 276.31 136.90 268.80 130.01 259.21 C 128.26 257.59 127.38 253.79 124.43 254.46 M 225.49 262.15 C 211.71 265.54 199.68 273.69 185.91 277.13 L 186.75 277.21 C 186.10 277.46 184.78 277.95 184.12 278.19 C 184.40 281.69 185.08 285.13 185.69 288.58 C 188.34 288.38 190.93 287.78 193.49 287.09 C 199.20 284.22 205.48 282.85 211.33 280.32 C 216.57 278.05 221.96 276.15 227.38 274.35 C 231.20 273.03 235.41 272.88 238.91 270.70 C 239.38 270.63 240.32 270.47 240.79 270.40 C 240.26 266.62 239.72 262.84 239.43 259.04 L 238.73 258.72 L 238.98 258.54 C 233.97 256.52 230.05 261.04 225.49 262.15 M 265.29 271.38 C 266.53 271.49 267.78 271.62 269.04 271.65 C 273.13 273.66 277.72 274.28 281.88 276.14 C 291.10 279.30 299.61 284.29 307.46 290.01 C 309.59 291.34 311.74 292.65 313.99 293.77 C 315.96 290.45 318.12 287.25 320.06 283.92 C 318.56 282.40 317.06 280.88 315.57 279.36 C 303.40 270.74 289.33 265.41 275.53 260.01 C 273.26 259.63 271.00 259.19 268.78 258.63 C 267.32 262.79 266.32 267.09 265.29 271.38 M 221.40 280.41 C 222.54 282.02 224.50 282.71 226.22 283.53 C 234.60 286.95 243.44 289.23 252.41 290.39 C 258.94 290.74 265.49 292.08 272.04 291.04 C 280.07 290.24 288.27 289.77 296.02 287.36 C 290.90 284.03 285.25 281.67 279.60 279.41 C 269.90 275.46 259.50 272.50 248.96 272.78 C 239.47 273.93 230.16 276.62 221.40 280.41 M 225.53 288.13 C 224.48 290.46 223.40 292.77 222.33 295.10 C 224.37 295.68 226.38 296.41 228.49 296.75 L 227.74 296.90 C 241.78 300.39 256.24 302.25 270.69 302.75 C 270.69 300.23 270.71 297.70 270.73 295.18 L 269.66 295.31 L 269.87 294.15 C 264.15 294.13 258.41 294.85 252.70 294.15 C 245.95 293.32 239.33 291.68 232.81 289.79 C 230.45 288.97 228.02 288.39 225.53 288.13 M 293.73 292.33 C 293.11 292.33 291.86 292.34 291.23 292.34 C 291.38 295.04 291.59 297.73 291.75 300.43 C 293.51 300.30 295.35 300.47 297.01 299.77 C 301.84 299.60 306.60 298.66 311.31 297.62 C 306.91 293.22 299.89 288.81 293.73 292.33 M 337.68 294.10 C 338.54 297.88 340.94 301.00 344.19 303.05 C 344.97 301.04 345.75 299.04 346.55 297.04 C 343.74 295.65 340.81 294.50 337.68 294.10 M 396.05 303.87 C 397.61 305.38 399.63 306.29 401.49 307.40 C 409.08 309.94 416.27 313.53 423.83 316.14 C 429.84 318.12 435.41 321.12 441.14 323.76 C 450.03 328.09 456.83 335.45 464.34 341.68 C 470.27 347.49 475.92 353.59 481.12 360.06 C 479.83 353.88 475.24 349.26 471.86 344.17 C 467.04 338.34 462.33 332.37 457.02 326.97 C 449.70 320.54 442.68 313.59 433.96 309.03 C 426.12 303.70 416.84 301.18 408.76 296.31 C 408.66 296.52 408.44 296.94 408.33 297.15 C 406.04 296.10 403.77 294.94 401.32 294.33 C 399.01 297.14 396.91 300.28 396.05 303.87 M 359.12 304.03 C 357.64 305.92 356.22 307.88 355.06 309.99 C 356.10 310.54 357.14 311.10 358.19 311.67 C 363.24 316.98 369.38 321.15 374.37 326.56 C 380.92 333.72 387.76 340.62 393.95 348.09 C 397.08 351.73 399.57 356.22 404.09 358.34 C 400.08 349.18 393.22 341.65 387.63 333.42 C 381.54 323.95 373.76 315.69 365.40 308.20 C 363.36 306.73 361.28 305.32 359.12 304.03 M 333.24 311.16 C 334.49 313.33 335.80 315.46 337.19 317.55 C 341.08 322.17 344.28 327.31 347.62 332.33 C 352.19 339.79 358.84 345.61 364.84 351.89 C 367.07 353.25 368.99 355.74 371.80 355.71 C 373.71 354.61 375.40 352.96 376.48 351.03 C 375.82 348.85 372.94 348.14 371.38 346.64 C 359.85 337.13 353.51 323.31 344.49 311.71 C 343.00 309.91 341.65 308.00 340.33 306.08 C 337.89 307.67 335.55 309.40 333.24 311.16 M 347.33 308.86 C 351.40 315.34 355.92 321.52 360.04 327.98 C 368.10 340.85 380.76 350.44 394.90 355.77 C 389.86 349.59 385.14 343.13 379.49 337.48 C 374.15 332.49 369.86 326.46 364.03 321.97 C 359.07 316.87 353.45 312.49 347.33 308.86 M 396.47 360.34 C 395.30 362.56 394.17 364.80 393.07 367.05 C 394.39 367.61 395.70 368.24 397.08 368.68 C 400.00 370.47 403.46 370.86 406.76 371.50 C 427.00 375.94 447.89 376.34 468.51 375.31 C 474.39 374.76 480.22 373.79 486.11 373.28 C 479.59 371.37 472.79 372.80 466.15 372.04 C 461.45 371.53 456.76 372.32 452.13 373.04 C 451.97 372.71 451.66 372.04 451.50 371.71 C 435.07 369.90 418.62 367.53 402.87 362.32 C 400.73 361.69 398.59 361.04 396.47 360.34 Z" />
</g>
<g id="#9aac68ff">
<path fill="#9aac68" opacity="1.00" d=" M 61.54 18.87 C 63.21 17.60 64.61 15.34 66.98 15.57 C 69.80 15.71 72.49 16.70 75.16 17.53 C 73.27 17.85 71.39 18.18 69.50 18.52 C 71.33 21.70 73.89 25.08 77.88 25.35 C 79.26 24.58 80.49 23.58 81.74 22.62 C 90.97 31.93 96.52 44.01 101.83 55.81 C 97.52 58.35 93.19 61.20 90.58 65.61 C 86.95 58.22 81.18 52.28 75.47 46.48 C 71.99 43.06 69.49 38.85 66.75 34.86 C 67.70 34.14 68.68 33.44 69.55 32.61 C 70.13 27.95 67.04 23.70 62.59 22.43 C 62.24 21.24 61.89 20.05 61.54 18.87 Z" />
<path fill="#9aac68" opacity="1.00" d=" M 121.16 97.08 L 121.58 96.75 C 122.45 99.55 123.55 102.29 125.32 104.65 C 128.83 109.53 131.90 114.72 135.63 119.44 C 140.23 124.93 146.03 129.48 152.62 132.34 C 156.98 134.30 161.94 134.23 166.27 136.30 C 164.01 136.11 161.77 135.86 159.52 135.59 C 159.36 140.78 158.61 145.94 158.50 151.13 C 150.30 147.51 141.46 144.57 134.90 138.16 C 123.89 128.92 115.58 116.83 109.53 103.88 C 113.53 101.84 117.63 99.90 121.16 97.08 Z" />
<path fill="#9aac68" opacity="1.00" d=" M 202.90 132.82 C 223.45 128.11 245.61 126.24 265.77 133.68 C 263.11 137.80 260.81 142.15 258.88 146.67 C 260.30 147.36 261.72 148.05 263.17 148.68 C 258.30 148.28 253.90 145.72 248.99 145.52 C 241.56 145.13 234.12 145.19 226.68 145.43 C 220.77 145.53 215.05 147.17 209.19 147.82 C 204.29 148.37 199.82 150.96 194.81 150.86 C 196.09 150.49 197.36 150.12 198.64 149.75 C 198.45 144.69 198.37 139.62 198.34 134.55 C 197.09 134.51 195.84 134.48 194.60 134.46 C 197.25 133.40 200.11 133.29 202.90 132.82 Z" />
<path fill="#9aac68" opacity="1.00" d=" M 193.78 153.95 C 207.71 151.08 221.65 146.75 236.04 147.54 C 243.29 147.80 250.72 147.97 257.61 150.48 C 250.39 150.44 243.25 149.01 236.01 149.35 C 225.66 148.77 215.62 151.58 205.53 153.33 C 201.32 154.13 197.30 155.75 193.04 156.25 C 183.18 156.72 173.27 157.31 163.43 156.26 C 160.82 155.89 158.39 154.83 156.05 153.67 C 168.50 155.71 181.32 156.42 193.78 153.95 Z" />
<path fill="#9aac68" opacity="1.00" d=" M 294.40 150.27 C 302.25 158.88 312.09 165.49 319.25 174.75 C 324.87 181.96 331.39 188.55 335.90 196.57 C 332.20 198.71 328.61 201.03 325.14 203.51 C 319.88 196.30 314.75 188.93 308.21 182.80 C 300.90 176.11 294.74 168.11 286.39 162.60 C 289.77 159.00 292.56 154.87 294.40 150.27 Z" />
<path fill="#9aac68" opacity="1.00" d=" M 46.46 174.91 C 50.57 173.04 55.04 174.32 59.35 174.18 C 68.62 173.57 77.72 175.95 86.86 177.16 C 87.14 179.63 87.34 182.10 87.49 184.58 C 89.58 184.62 91.66 184.66 93.74 184.70 C 94.20 182.47 94.63 180.23 95.09 178.00 C 95.16 177.69 95.29 177.08 95.35 176.77 C 95.67 180.10 95.99 183.42 96.47 186.73 C 92.28 186.62 88.09 186.36 83.93 185.90 C 73.30 185.28 62.53 186.65 51.98 184.89 C 50.94 183.09 49.79 180.73 47.33 180.87 C 46.08 181.48 44.86 182.15 43.67 182.88 C 42.46 180.06 43.18 177.21 45.49 175.19 C 45.49 176.47 45.48 177.76 45.47 179.04 C 47.73 178.74 49.98 178.45 52.24 178.16 C 52.11 177.48 51.86 176.11 51.73 175.43 C 50.33 175.37 48.93 175.31 47.53 175.23 L 46.46 174.91 Z" />
<path fill="#9aac68" opacity="1.00" d=" M 120.91 176.25 C 126.35 176.05 131.84 175.55 137.23 176.64 C 144.08 177.96 151.50 178.49 157.42 182.55 C 162.58 186.48 167.16 191.32 170.27 197.06 C 166.96 199.64 163.59 202.13 160.14 204.51 C 153.45 194.72 142.54 188.23 130.98 186.01 C 126.29 185.29 121.53 185.99 116.80 185.86 C 116.97 184.10 117.17 182.36 117.39 180.62 C 117.73 182.01 118.08 183.41 118.42 184.81 C 120.51 184.78 122.60 184.76 124.69 184.77 C 124.66 182.29 124.64 179.82 124.62 177.35 C 121.95 177.45 119.27 177.53 116.60 177.52 C 117.96 176.88 119.37 176.22 120.91 176.25 Z" />
<path fill="#9aac68" opacity="1.00" d=" M 66.70 204.85 C 70.10 202.85 73.97 201.76 77.92 202.47 C 76.69 203.16 75.46 203.90 74.54 204.99 C 75.90 206.29 77.36 207.57 79.10 208.34 C 81.02 208.64 82.90 207.98 84.76 207.61 C 85.08 207.53 85.74 207.37 86.06 207.30 C 88.68 210.53 91.47 213.63 94.61 216.37 C 98.41 219.61 101.22 223.76 104.47 227.50 C 101.46 230.18 98.65 233.07 95.97 236.08 C 89.53 228.95 81.03 224.21 73.89 217.86 C 74.12 216.17 74.88 214.38 74.30 212.71 C 73.11 210.60 71.02 209.24 69.21 207.72 C 68.93 209.25 68.66 210.78 68.40 212.31 C 67.81 209.83 67.26 207.34 66.70 204.85 Z" />
<path fill="#9aac68" opacity="1.00" d=" M 184.84 233.55 L 184.93 232.70 C 186.35 237.49 186.21 242.57 187.63 247.35 C 189.98 255.17 194.52 262.11 199.68 268.36 C 196.21 270.68 192.12 271.63 188.06 272.28 C 179.99 262.85 176.26 250.81 171.98 239.40 C 176.39 239.66 180.58 238.19 184.57 236.47 C 184.66 235.50 184.75 234.52 184.84 233.55 Z" />
<path fill="#9aac68" opacity="1.00" d=" M 342.84 238.84 C 346.14 237.08 349.51 235.45 352.92 233.91 C 355.67 242.59 359.22 250.97 362.73 259.37 C 365.59 265.68 370.63 270.57 374.97 275.85 C 372.59 278.61 370.28 281.45 368.00 284.30 C 360.78 277.33 356.07 268.28 351.48 259.47 C 348.24 252.76 345.11 245.96 342.84 238.84 Z" />
<path fill="#9aac68" opacity="1.00" d=" M 225.49 262.15 C 230.05 261.04 233.97 256.52 238.98 258.54 L 238.73 258.72 C 236.28 259.37 233.85 260.14 231.43 260.88 C 232.19 264.45 232.70 268.08 232.90 271.74 C 234.90 271.39 236.90 271.03 238.91 270.70 C 235.41 272.88 231.20 273.03 227.38 274.35 C 221.96 276.15 216.57 278.05 211.33 280.32 C 205.48 282.85 199.20 284.22 193.49 287.09 C 192.88 283.98 192.48 280.75 191.08 277.87 C 189.67 277.46 188.20 277.34 186.75 277.21 L 185.91 277.13 C 199.68 273.69 211.71 265.54 225.49 262.15 Z" />
<path fill="#9aac68" opacity="1.00" d=" M 130.01 259.21 C 136.90 268.80 146.78 276.31 158.23 279.48 C 157.04 279.49 155.86 279.50 154.68 279.51 C 154.12 282.94 153.55 286.37 153.10 289.82 C 140.15 286.00 129.61 276.77 121.38 266.36 C 124.36 264.11 127.24 261.72 130.01 259.21 Z" />
<path fill="#9aac68" opacity="1.00" d=" M 275.53 260.01 C 289.33 265.41 303.40 270.74 315.57 279.36 C 311.76 281.94 309.49 286.00 307.46 290.01 C 299.61 284.29 291.10 279.30 281.88 276.14 C 277.72 274.28 273.13 273.66 269.04 271.65 C 270.41 271.64 271.77 271.60 273.14 271.57 C 274.20 267.77 275.18 263.94 275.53 260.01 Z" />
<path fill="#9aac68" opacity="1.00" d=" M 232.81 289.79 C 239.33 291.68 245.95 293.32 252.70 294.15 C 258.41 294.85 264.15 294.13 269.87 294.15 L 269.66 295.31 C 267.29 295.40 264.92 295.47 262.56 295.56 C 262.56 297.49 262.56 299.42 262.57 301.35 C 264.88 301.42 267.20 301.48 269.51 301.57 C 269.55 299.48 269.60 297.40 269.66 295.31 L 270.73 295.18 C 270.71 297.70 270.69 300.23 270.69 302.75 C 256.24 302.25 241.78 300.39 227.74 296.90 L 228.49 296.75 C 229.25 296.59 230.01 296.43 230.78 296.27 C 231.41 294.10 232.10 291.94 232.81 289.79 Z" />
<path fill="#9aac68" opacity="1.00" d=" M 293.73 292.33 C 299.89 288.81 306.91 293.22 311.31 297.62 C 306.60 298.66 301.84 299.60 297.01 299.77 C 297.92 299.39 298.82 299.01 299.73 298.61 C 299.34 296.54 298.96 294.47 298.59 292.40 C 296.97 292.36 295.35 292.34 293.73 292.33 Z" />
<path fill="#9aac68" opacity="1.00" d=" M 408.76 296.31 C 416.84 301.18 426.12 303.70 433.96 309.03 C 442.68 313.59 449.70 320.54 457.02 326.97 C 462.33 332.37 467.04 338.34 471.86 344.17 C 475.24 349.26 479.83 353.88 481.12 360.06 C 475.92 353.59 470.27 347.49 464.34 341.68 C 456.83 335.45 450.03 328.09 441.14 323.76 C 435.41 321.12 429.84 318.12 423.83 316.14 C 416.27 313.53 409.08 309.94 401.49 307.40 C 404.29 304.36 406.53 300.86 408.33 297.15 C 408.44 296.94 408.66 296.52 408.76 296.31 Z" />
<path fill="#9aac68" opacity="1.00" d=" M 365.40 308.20 C 373.76 315.69 381.54 323.95 387.63 333.42 C 393.22 341.65 400.08 349.18 404.09 358.34 C 399.57 356.22 397.08 351.73 393.95 348.09 C 387.76 340.62 380.92 333.72 374.37 326.56 C 369.38 321.15 363.24 316.98 358.19 311.67 C 359.36 312.29 360.55 312.91 361.73 313.53 C 362.95 311.75 364.18 309.98 365.40 308.20 Z" />
<path fill="#9aac68" opacity="1.00" d=" M 344.49 311.71 C 353.51 323.31 359.85 337.13 371.38 346.64 C 369.15 348.32 366.98 350.09 364.84 351.89 C 358.84 345.61 352.19 339.79 347.62 332.33 C 344.28 327.31 341.08 322.17 337.19 317.55 C 339.85 315.91 342.34 313.99 344.49 311.71 Z" />
<path fill="#9aac68" opacity="1.00" d=" M 402.87 362.32 C 418.62 367.53 435.07 369.90 451.50 371.71 C 451.66 372.04 451.97 372.71 452.13 373.04 C 456.76 372.32 461.45 371.53 466.15 372.04 C 472.79 372.80 479.59 371.37 486.11 373.28 C 480.22 373.79 474.39 374.76 468.51 375.31 C 447.89 376.34 427.00 375.94 406.76 371.50 C 403.46 370.86 400.00 370.47 397.08 368.68 C 398.54 368.74 400.01 368.74 401.49 368.76 C 401.95 366.61 402.42 364.47 402.87 362.32 Z" />
</g>
</svg>
