<?xml version="1.0" encoding="UTF-8" ?>
<!DOCTYPE svg PUBLIC "-//W3C//DTD SVG 1.1//EN" "http://www.w3.org/Graphics/SVG/1.1/DTD/svg11.dtd">
<svg width="577pt" height="389pt" viewBox="0 0 577 389" version="1.1" xmlns="http://www.w3.org/2000/svg">
<g id="#ffffffff">
</g>
<g id="#954b85ff">
<path fill="#954b85" opacity="1.00" d=" M 487.52 14.66 C 491.48 13.43 495.40 15.12 499.26 15.92 C 505.74 17.36 511.78 20.28 518.21 21.91 C 524.73 22.99 531.38 23.50 537.99 23.04 C 541.35 22.96 545.24 22.55 547.88 25.12 C 553.78 29.79 553.19 38.26 552.70 44.98 C 551.13 56.58 548.60 68.03 547.45 79.69 C 545.15 94.12 553.71 106.92 557.66 120.21 C 560.24 127.56 558.02 136.10 552.72 141.68 C 549.71 145.13 546.11 149.12 541.09 148.82 C 535.11 148.64 531.02 143.67 527.83 139.19 C 524.02 134.29 521.89 128.42 519.06 122.96 C 515.64 116.75 513.64 109.92 510.50 103.59 C 504.77 91.06 500.64 77.67 492.78 66.22 C 490.70 63.54 488.08 60.77 484.50 60.45 C 476.91 59.22 469.82 65.04 462.30 62.70 C 458.04 61.13 456.12 56.62 454.18 52.88 C 450.70 46.28 452.20 38.11 456.07 32.05 C 459.26 27.91 463.02 24.00 467.91 21.91 C 473.94 18.30 480.68 16.12 487.52 14.66 M 488.50 19.63 C 480.66 20.95 473.30 24.29 466.63 28.56 C 461.01 32.36 456.35 38.70 457.09 45.79 C 458.02 50.42 460.24 55.19 464.32 57.82 C 467.92 59.28 471.50 56.87 475.02 56.23 C 479.53 55.41 484.44 54.52 488.87 56.15 C 494.63 58.90 498.06 64.68 500.93 70.11 C 510.07 88.11 516.67 107.27 525.56 125.39 C 528.83 130.98 531.49 137.19 536.49 141.50 C 539.08 143.96 544.01 144.30 546.20 141.13 C 549.71 137.15 554.19 132.87 553.84 127.10 C 552.97 117.51 547.55 109.21 545.04 100.06 C 540.15 86.52 543.51 72.01 545.58 58.29 C 546.44 50.32 549.26 42.36 547.81 34.30 C 547.37 31.27 545.16 28.24 541.88 28.12 C 534.07 27.63 526.18 28.53 518.41 27.39 C 513.73 26.40 509.37 24.34 504.79 23.02 C 499.49 21.45 494.22 18.27 488.50 19.63 Z" />
</g>
<g id="#964c86ff">
<path fill="#964c86" opacity="1.00" d=" M 431.27 18.80 C 433.66 18.61 436.03 20.01 436.51 22.47 C 438.97 30.60 435.09 39.27 437.49 47.42 C 442.22 56.12 451.92 60.41 457.76 68.18 C 461.18 72.53 462.57 79.29 458.76 83.84 C 454.03 90.23 445.01 89.54 438.86 93.81 C 431.24 98.14 427.57 106.52 421.25 112.26 C 417.35 116.67 411.66 119.06 405.88 119.63 C 398.28 120.36 390.65 121.44 382.99 120.92 C 378.18 120.73 374.07 117.24 371.72 113.25 C 370.08 107.90 373.19 102.64 374.55 97.56 C 375.41 94.19 377.62 90.09 375.12 86.93 C 371.43 83.18 366.35 81.15 362.83 77.18 C 360.54 74.44 357.28 72.74 354.90 70.12 C 351.41 63.33 346.29 56.94 346.10 48.96 C 346.24 43.51 347.64 37.65 351.79 33.82 C 359.77 25.19 371.61 21.38 383.01 20.25 C 392.29 20.94 401.62 21.38 410.94 20.92 C 417.71 20.23 424.45 18.97 431.27 18.80 M 408.06 25.80 C 400.85 25.96 393.61 26.10 386.42 25.44 C 379.30 24.81 372.34 27.18 365.83 29.79 C 359.79 33.03 352.83 37.08 351.20 44.31 C 349.31 52.43 354.43 59.89 358.42 66.51 C 362.98 74.48 372.70 76.81 378.70 83.33 C 381.51 86.40 381.05 90.95 380.52 94.76 C 379.59 100.89 375.49 106.40 376.02 112.73 C 378.90 115.55 383.12 116.06 386.96 116.14 C 393.53 116.51 400.05 115.44 406.53 114.56 C 411.55 113.90 416.11 111.19 419.35 107.34 C 424.47 101.22 428.91 94.26 435.64 89.72 C 441.39 86.42 448.20 85.42 453.83 81.89 C 457.09 79.86 456.78 75.05 454.69 72.29 C 448.67 64.04 438.36 59.68 433.66 50.35 C 429.52 42.04 434.81 32.67 431.84 24.10 C 423.89 23.42 416.00 25.51 408.06 25.80 Z" />
</g>
<g id="#934c87ff">
<path fill="#934c87" opacity="1.00" d=" M 35.42 29.45 C 39.96 27.89 43.22 32.45 47.01 34.10 C 52.25 36.59 58.12 40.08 64.10 38.33 C 69.92 37.04 72.59 29.99 78.89 29.84 C 86.22 29.60 94.09 29.63 100.65 33.39 C 102.67 34.56 105.05 35.64 106.11 37.87 C 109.03 43.52 108.39 50.36 106.04 56.09 C 104.38 60.00 103.09 64.14 100.71 67.69 C 98.99 70.26 95.80 70.94 93.19 72.22 C 83.63 76.53 76.77 85.23 72.55 94.61 C 66.15 108.60 63.16 123.83 60.85 138.95 C 58.89 149.92 59.00 161.10 57.06 172.07 C 56.60 176.68 55.98 181.50 53.48 185.52 C 51.27 187.76 47.27 186.95 45.53 184.51 C 37.48 175.43 35.15 162.79 35.13 151.01 C 34.88 137.43 38.83 123.90 36.60 110.35 C 35.54 105.61 35.22 100.75 34.09 96.04 C 30.39 82.16 27.30 68.10 25.38 53.87 C 24.95 47.09 24.15 39.37 28.62 33.65 C 30.16 31.31 32.78 30.07 35.42 29.45 M 30.07 42.16 C 28.77 52.53 31.92 62.66 33.18 72.86 C 35.86 83.09 38.49 93.34 40.17 103.79 C 44.10 120.69 39.82 137.91 39.93 154.96 C 40.60 164.23 42.53 174.45 49.90 180.85 C 52.20 175.86 52.30 170.27 53.09 164.93 C 56.11 140.85 57.68 115.97 67.58 93.47 C 71.25 84.57 77.58 77.02 84.91 70.89 C 88.07 68.23 92.39 67.89 95.90 65.90 C 98.65 61.95 100.35 57.36 101.99 52.86 C 103.23 48.67 104.52 43.42 101.22 39.82 C 98.05 36.37 93.04 35.85 88.66 35.15 C 84.94 34.83 81.00 34.00 77.38 35.24 C 74.62 37.15 72.54 39.92 69.58 41.55 C 64.38 44.03 58.23 44.49 52.90 42.12 C 46.97 40.71 42.33 36.64 36.96 34.07 C 33.12 34.80 30.45 38.38 30.07 42.16 Z" />
<path fill="#934c87" opacity="1.00" d=" M 137.42 61.58 C 141.39 60.79 146.21 60.52 149.34 63.60 C 151.83 66.00 154.34 69.07 154.45 72.69 C 154.10 76.88 152.85 81.72 148.91 83.94 C 142.54 88.00 132.29 85.47 130.03 77.82 C 128.48 71.77 130.97 63.61 137.42 61.58 M 139.36 66.25 C 137.85 67.03 136.63 68.27 135.60 69.59 C 132.19 73.39 135.56 80.33 140.52 80.61 C 144.39 82.16 147.61 78.58 149.49 75.64 C 150.69 70.05 144.85 64.49 139.36 66.25 Z" />
</g>
<g id="#924b85ff">
<path fill="#924b85" opacity="1.00" d=" M 173.28 36.28 C 177.41 34.05 181.21 30.76 186.07 30.30 C 190.96 29.93 196.01 29.94 200.76 31.28 C 209.29 34.28 216.67 39.72 223.49 45.53 C 233.79 55.57 244.11 66.82 247.99 81.03 C 249.32 84.96 247.66 90.43 243.13 91.24 C 236.17 92.34 229.30 89.95 222.62 88.33 C 218.16 87.61 213.73 86.54 209.22 86.24 C 207.45 87.16 206.27 88.90 205.73 90.78 C 202.01 103.12 199.54 116.31 192.08 127.09 C 189.30 131.10 183.96 129.36 179.99 128.86 C 174.15 127.61 167.62 127.97 162.71 131.71 C 155.13 136.94 151.11 145.55 147.75 153.82 C 145.83 159.38 144.59 165.15 142.61 170.70 C 140.10 177.75 139.92 185.94 134.78 191.83 C 132.70 194.20 129.06 192.74 127.23 190.78 C 122.82 187.26 120.86 181.53 121.01 176.01 C 120.84 169.88 122.79 164.02 123.65 158.01 C 124.60 150.90 127.37 144.18 128.26 137.05 C 129.05 131.19 131.08 125.24 129.71 119.31 C 128.42 115.34 124.70 112.97 121.84 110.18 C 113.20 102.18 104.67 93.85 97.90 84.16 C 96.25 81.59 93.85 77.48 96.99 75.04 C 100.66 70.53 107.30 73.90 111.43 70.43 C 116.01 66.08 117.11 59.49 118.57 53.62 C 119.95 46.52 121.85 38.56 127.71 33.81 C 137.28 31.07 144.63 40.77 153.99 40.35 C 160.73 41.11 167.09 38.50 173.28 36.28 M 188.70 34.99 C 183.80 35.32 179.86 38.40 175.75 40.71 C 168.37 44.41 160.08 46.62 151.79 45.86 C 146.10 44.43 140.71 42.01 135.42 39.50 C 133.43 38.45 130.62 38.04 128.94 39.88 C 123.90 47.32 123.56 56.59 120.78 64.90 C 119.26 69.73 116.08 74.26 111.48 76.56 C 108.12 77.77 104.46 77.32 100.99 78.00 C 103.93 86.57 111.57 92.06 117.45 98.54 C 122.16 103.83 127.79 108.20 132.58 113.42 C 135.26 116.23 134.73 120.42 134.90 123.98 C 135.15 132.47 132.97 140.72 130.80 148.85 C 128.97 157.85 126.75 166.83 126.02 176.01 C 125.66 180.31 127.45 185.43 131.88 186.89 C 136.20 180.03 136.28 171.58 139.22 164.16 C 141.48 155.87 144.29 147.72 148.15 140.03 C 152.95 133.02 158.98 126.23 167.31 123.55 C 173.81 122.64 180.47 122.94 186.87 124.38 C 189.23 122.84 190.35 120.04 191.68 117.65 C 196.01 108.19 198.54 98.04 201.03 87.98 C 201.72 84.58 204.51 81.49 208.11 81.33 C 213.14 80.97 218.03 82.48 222.98 83.10 C 229.74 83.81 236.18 87.65 243.11 86.01 C 243.74 82.79 242.53 79.64 241.23 76.75 C 235.28 64.18 225.63 53.77 214.92 45.08 C 207.37 39.39 198.46 34.37 188.70 34.99 Z" />
<path fill="#924b85" opacity="1.00" d=" M 288.48 31.52 C 295.06 30.70 301.44 33.64 307.97 34.07 C 313.98 34.41 320.00 34.38 326.02 34.25 C 330.01 34.19 333.90 33.03 337.89 33.04 C 341.11 33.30 343.26 36.65 343.18 39.70 C 343.36 46.09 342.74 52.48 342.67 58.86 C 343.80 62.93 345.97 67.10 349.77 69.27 C 354.08 71.84 356.93 76.08 360.61 79.39 C 363.32 82.04 366.62 84.71 367.12 88.74 C 367.60 92.55 366.97 97.22 363.60 99.59 C 357.45 104.09 349.53 105.04 343.16 109.11 C 335.42 115.07 331.15 124.48 323.13 130.14 C 319.37 133.27 314.27 133.28 309.73 134.41 C 300.92 135.90 291.47 136.05 282.96 133.09 C 280.62 130.34 278.84 127.04 277.61 123.67 C 278.01 116.88 282.75 110.96 282.27 104.03 C 282.26 101.86 280.70 100.16 279.09 98.91 C 271.02 92.86 261.65 88.66 254.05 81.97 C 251.34 80.08 249.33 74.96 253.41 73.43 C 258.30 72.80 264.11 73.78 267.96 69.96 C 273.81 64.19 273.29 55.22 275.93 47.92 C 277.54 40.99 281.25 33.83 288.48 31.52 M 279.85 51.92 C 278.35 59.72 277.10 68.29 271.20 74.17 C 268.13 77.39 263.44 77.53 259.49 78.96 C 262.56 82.91 267.33 84.85 271.27 87.74 C 275.53 90.85 280.54 92.93 284.33 96.64 C 288.09 101.12 287.75 107.73 285.82 112.95 C 284.57 117.17 282.10 121.34 282.73 125.88 C 283.78 129.30 287.93 129.83 290.98 130.07 C 300.06 130.39 309.33 129.76 318.02 127.01 C 328.09 121.01 332.74 108.89 343.01 103.11 C 348.58 100.59 354.67 99.15 359.94 95.96 C 363.67 93.43 362.60 87.97 359.82 85.14 C 353.62 78.37 345.64 73.31 340.15 65.89 C 335.69 57.17 339.56 47.22 338.02 38.02 C 334.96 37.82 331.92 38.32 328.92 38.81 C 321.90 40.04 314.72 39.83 307.64 39.40 C 301.38 39.12 295.46 35.62 289.11 36.86 C 282.82 39.01 281.42 46.28 279.85 51.92 Z" />
<path fill="#924b85" opacity="1.00" d=" M 476.44 88.52 C 481.95 87.87 488.28 87.58 492.98 91.03 C 497.93 96.13 498.88 103.70 499.40 110.49 C 499.82 114.72 499.41 119.37 501.94 123.05 C 506.91 131.02 515.85 135.12 521.59 142.43 C 525.13 145.96 525.66 151.66 524.16 156.20 C 521.02 163.14 512.57 163.46 506.52 166.45 C 497.96 169.58 493.02 177.71 487.32 184.27 C 483.17 188.75 478.07 192.92 471.77 193.58 C 460.88 194.56 449.54 197.92 438.84 194.06 C 433.58 192.47 429.05 187.74 429.21 182.00 C 428.59 176.11 431.16 169.08 426.93 164.13 C 421.34 159.26 413.49 159.45 406.80 157.20 C 401.62 155.26 395.92 156.00 390.68 154.28 C 384.27 152.22 377.47 151.95 371.06 149.87 C 362.28 148.54 353.85 145.56 345.67 142.18 C 341.66 140.33 337.01 137.01 337.21 132.09 C 337.87 126.82 342.46 123.10 347.13 121.24 C 352.42 119.18 357.62 115.08 363.61 116.53 C 368.70 117.37 372.36 121.33 377.13 122.94 C 382.34 124.84 386.57 129.00 392.17 129.90 C 397.87 130.67 403.96 130.91 409.32 128.45 C 418.01 124.75 425.16 118.37 432.20 112.24 C 437.37 107.00 443.12 102.27 449.60 98.74 C 458.24 94.62 466.73 89.59 476.44 88.52 M 451.89 103.79 C 445.39 106.96 439.70 111.48 434.69 116.67 C 427.16 124.15 418.47 130.71 408.41 134.34 C 403.60 136.26 398.28 135.95 393.24 135.49 C 381.98 133.66 373.78 124.59 362.91 121.75 C 359.74 120.77 356.76 122.67 353.93 123.81 C 349.42 125.86 344.03 127.88 342.05 132.86 C 344.76 136.13 348.89 137.64 352.67 139.30 C 358.65 141.86 365.09 142.91 371.28 144.83 C 376.38 146.50 381.85 146.44 386.95 148.12 C 391.94 149.69 397.24 149.65 402.28 150.98 C 410.31 153.37 418.86 153.96 426.52 157.56 C 432.14 160.32 435.01 166.92 434.54 172.98 C 434.44 177.76 432.98 183.42 436.68 187.28 C 442.70 190.88 450.05 190.85 456.80 189.96 C 463.63 188.94 470.91 189.47 477.24 186.29 C 483.00 183.13 486.07 177.04 490.53 172.48 C 494.26 168.62 497.74 163.95 503.04 162.23 C 508.36 160.49 513.88 158.87 518.51 155.61 C 521.20 153.59 520.14 149.88 518.59 147.50 C 512.96 138.91 502.62 134.56 497.65 125.44 C 493.55 117.69 495.28 108.53 492.78 100.35 C 491.80 97.22 489.49 93.91 485.90 93.76 C 473.71 92.01 462.06 97.69 451.89 103.79 Z" />
</g>
<g id="#934783ff">
<path fill="#934783" opacity="1.00" d=" M 523.50 41.59 C 527.83 40.64 532.30 42.66 535.52 45.47 C 539.34 48.76 539.47 54.53 537.81 58.95 C 534.42 66.92 521.72 68.38 516.88 61.07 C 511.35 54.78 515.56 43.49 523.50 41.59 M 524.32 46.38 C 518.07 47.96 517.20 57.88 523.09 60.45 C 527.22 62.54 532.65 60.17 534.10 55.85 C 536.22 50.31 529.38 45.37 524.32 46.38 Z" />
</g>
<g id="#bf6db4ff">
<path fill="#bf6db4" opacity="1.00" d=" M 524.32 46.38 C 529.38 45.37 536.22 50.31 534.10 55.85 C 532.65 60.17 527.22 62.54 523.09 60.45 C 517.20 57.88 518.07 47.96 524.32 46.38 Z" />
</g>
<g id="#944b8aff">
<path fill="#944b8a" opacity="1.00" d=" M 49.55 48.62 C 55.11 46.62 59.17 52.18 61.61 56.33 C 65.53 63.56 59.06 73.27 51.01 72.97 C 42.80 74.37 36.42 64.83 38.51 57.44 C 40.26 52.75 44.63 49.38 49.55 48.62 M 50.36 53.38 C 47.96 54.28 45.55 55.46 43.75 57.32 C 41.29 60.84 43.05 66.44 47.15 67.86 C 51.65 69.94 58.26 66.53 57.75 61.19 C 57.76 57.33 54.74 52.29 50.36 53.38 Z" />
</g>
<g id="#984d8aff">
<path fill="#984d8a" opacity="1.00" d=" M 393.37 50.41 C 396.82 49.76 400.53 49.96 403.82 51.23 C 407.27 52.98 409.94 56.40 410.64 60.21 C 410.81 65.15 408.72 70.80 403.90 72.89 C 396.60 76.88 385.53 70.85 386.31 62.20 C 386.48 57.54 388.86 52.24 393.37 50.41 M 395.54 54.70 C 392.08 56.06 390.63 60.20 390.49 63.63 C 392.49 70.05 402.73 70.71 405.53 64.61 C 406.24 61.87 406.41 57.98 403.37 56.60 C 400.96 55.46 398.23 54.28 395.54 54.70 Z" />
</g>
<g id="#bd73b5ff">
<path fill="#bd73b5" opacity="1.00" d=" M 50.36 53.38 C 54.74 52.29 57.76 57.33 57.75 61.19 C 58.26 66.53 51.65 69.94 47.15 67.86 C 43.05 66.44 41.29 60.84 43.75 57.32 C 45.55 55.46 47.96 54.28 50.36 53.38 Z" />
</g>
<g id="#c073b7ff">
<path fill="#c073b7" opacity="1.00" d=" M 395.54 54.70 C 398.23 54.28 400.96 55.46 403.37 56.60 C 406.41 57.98 406.24 61.87 405.53 64.61 C 402.73 70.71 392.49 70.05 390.49 63.63 C 390.63 60.20 392.08 56.06 395.54 54.70 Z" />
</g>
<g id="#954b87ff">
<path fill="#954b87" opacity="1.00" d=" M 313.39 62.43 C 320.79 60.31 329.98 65.07 330.84 73.09 C 331.83 80.29 325.34 87.40 318.07 86.78 C 312.99 86.86 308.17 83.35 306.59 78.55 C 305.13 72.51 307.57 65.22 313.39 62.43 M 317.24 66.70 C 313.17 67.73 310.28 71.59 310.61 75.81 C 312.48 80.88 320.29 84.05 324.12 79.20 C 327.57 76.69 326.14 71.88 323.72 69.25 C 321.86 67.87 319.61 66.66 317.24 66.70 Z" />
</g>
<g id="#bf73b7ff">
<path fill="#bf73b7" opacity="1.00" d=" M 139.36 66.25 C 144.85 64.49 150.69 70.05 149.49 75.64 C 147.61 78.58 144.39 82.16 140.52 80.61 C 135.56 80.33 132.19 73.39 135.60 69.59 C 136.63 68.27 137.85 67.03 139.36 66.25 Z" />
</g>
<g id="#bf72b5ff">
<path fill="#bf72b5" opacity="1.00" d=" M 317.24 66.70 C 319.61 66.66 321.86 67.87 323.72 69.25 C 326.14 71.88 327.57 76.69 324.12 79.20 C 320.29 84.05 312.48 80.88 310.61 75.81 C 310.28 71.59 313.17 67.73 317.24 66.70 Z" />
</g>
<g id="#904b86ff">
<path fill="#904b86" opacity="1.00" d=" M 79.92 98.86 C 81.85 95.59 84.61 91.43 88.96 91.91 C 92.56 91.67 94.57 95.16 96.15 97.84 C 99.98 104.16 100.98 111.60 102.16 118.75 C 102.98 124.57 103.49 130.74 101.29 136.34 C 100.35 139.44 98.45 142.51 99.06 145.87 C 103.59 144.95 107.08 140.98 111.87 140.98 C 115.04 141.25 116.91 144.53 117.44 147.38 C 119.01 156.10 116.09 164.70 113.97 173.05 C 111.11 182.44 109.72 192.21 108.89 201.96 C 108.74 211.27 108.47 221.67 114.64 229.36 C 118.96 235.65 127.04 236.88 132.94 241.08 C 138.98 246.88 144.52 253.37 148.01 261.05 C 148.86 263.71 150.08 267.40 147.31 269.38 C 145.72 271.42 143.02 270.54 140.87 270.25 C 135.60 269.49 130.86 265.16 125.33 267.26 C 117.90 270.15 111.19 275.33 102.98 276.00 C 99.90 275.92 97.20 274.02 95.15 271.86 C 90.60 266.57 87.59 260.17 83.39 254.64 C 81.19 251.58 77.13 251.39 73.71 251.10 C 73.99 252.10 74.50 252.98 75.22 253.72 C 79.89 258.39 85.33 262.55 88.49 268.48 C 89.76 270.79 91.28 272.97 93.03 274.96 C 97.43 279.94 100.70 285.84 105.54 290.46 C 114.16 298.99 123.92 306.28 133.91 313.11 C 145.92 320.71 158.37 327.67 169.64 336.38 C 175.11 340.23 179.55 346.86 178.79 353.76 C 176.01 364.02 167.25 373.00 156.41 374.31 C 148.27 376.28 140.11 373.87 131.94 373.67 C 126.97 373.26 122.03 372.31 117.02 372.42 C 111.93 372.51 107.21 370.32 102.63 368.35 C 95.11 365.12 88.86 359.62 83.08 353.93 C 72.07 341.16 65.87 324.91 62.49 308.56 C 60.50 299.04 58.70 289.46 57.38 279.81 C 55.39 270.39 56.80 259.98 61.95 251.78 C 62.02 251.37 62.16 250.56 62.22 250.16 C 56.33 250.21 49.55 249.35 45.88 244.14 C 42.62 238.58 43.60 231.77 44.83 225.77 C 47.21 218.03 49.96 210.41 53.03 202.91 C 55.53 194.56 60.38 186.97 61.38 178.18 C 62.61 167.77 64.65 157.49 66.22 147.13 C 69.89 130.84 71.87 113.75 79.92 98.86 M 86.77 97.64 C 84.53 99.93 82.96 102.78 81.68 105.69 C 76.53 118.72 73.50 132.46 71.14 146.24 C 67.42 161.42 68.17 177.62 62.13 192.23 C 57.90 203.62 52.82 214.72 49.42 226.40 C 48.62 231.60 46.44 238.04 50.66 242.37 C 52.66 244.87 55.98 245.21 58.96 245.09 C 64.97 244.97 70.95 245.78 76.94 246.17 C 83.77 246.89 88.38 252.84 91.62 258.34 C 94.27 263.57 97.05 269.70 102.97 271.83 C 108.84 270.28 114.54 267.98 119.60 264.59 C 123.43 261.97 128.31 261.41 132.79 262.28 C 136.66 263.33 139.91 266.54 144.14 266.07 C 144.40 261.75 142.15 257.70 139.43 254.51 C 136.01 250.63 132.96 246.23 128.39 243.60 C 124.22 240.83 118.87 240.33 115.10 236.92 C 106.64 230.02 104.71 218.33 104.09 208.04 C 103.94 191.20 108.87 174.91 112.67 158.66 C 113.41 154.63 113.68 150.38 112.51 146.42 C 111.26 145.91 109.83 145.78 108.70 146.64 C 104.52 148.88 100.47 152.93 95.33 151.89 C 95.05 151.59 94.47 151.00 94.19 150.71 C 93.14 145.54 94.91 140.40 96.62 135.59 C 99.08 128.77 98.23 121.33 96.72 114.40 C 95.59 108.51 94.46 102.18 90.24 97.61 C 89.45 96.57 87.56 96.60 86.77 97.64 M 66.37 255.21 C 63.70 256.57 62.82 259.63 62.21 262.33 C 60.95 268.35 60.31 274.71 62.14 280.69 C 64.20 292.39 65.56 304.29 69.32 315.61 C 72.35 327.61 77.33 339.24 85.01 349.01 C 91.32 356.71 100.04 362.05 109.13 365.87 C 112.93 367.55 117.18 367.25 121.23 367.69 C 133.52 368.42 145.91 371.96 158.18 369.18 C 164.99 366.71 171.08 361.39 173.54 354.46 C 175.09 350.35 173.00 345.85 169.83 343.15 C 161.10 334.87 150.58 328.81 140.38 322.56 C 125.86 313.51 111.56 303.72 99.85 291.14 C 91.25 280.70 84.51 268.71 74.67 259.32 C 72.23 257.58 69.43 255.10 66.37 255.21 Z" />
</g>
<g id="#924b86ff">
<path fill="#924b86" opacity="1.00" d=" M 219.15 93.75 C 222.92 93.75 226.46 95.34 230.18 95.79 C 241.48 96.84 252.97 97.37 264.21 95.35 C 268.43 94.40 272.08 99.01 271.81 102.98 C 272.79 110.19 269.14 117.69 272.33 124.60 C 273.74 127.43 275.63 129.99 277.34 132.64 C 278.88 135.33 282.29 135.64 284.58 137.44 C 288.94 140.69 293.04 144.81 294.95 150.01 C 297.09 155.27 294.13 161.70 289.11 164.05 C 283.78 166.58 277.90 167.81 272.79 170.81 C 263.83 176.76 259.56 187.73 250.15 193.12 C 245.80 195.37 240.52 197.49 235.75 195.17 C 228.10 192.38 229.08 182.28 223.72 177.23 C 216.76 170.78 209.02 165.24 201.39 159.61 C 195.27 154.77 188.45 150.69 183.25 144.78 C 181.60 142.78 180.44 140.02 181.27 137.43 C 182.98 134.20 187.09 135.56 190.02 135.12 C 194.96 135.41 198.32 130.87 199.79 126.69 C 201.97 119.73 203.34 112.53 205.63 105.60 C 207.68 99.71 212.32 93.70 219.15 93.75 M 211.76 104.74 C 207.58 112.91 207.29 122.41 203.77 130.83 C 202.24 134.33 199.64 137.45 196.29 139.33 C 193.39 140.51 190.18 140.49 187.14 141.14 C 190.23 145.00 194.47 147.65 198.24 150.77 C 207.26 158.19 217.31 164.26 226.07 171.99 C 230.44 175.79 232.13 181.48 234.44 186.58 C 235.42 189.18 238.08 190.93 240.86 190.79 C 244.86 190.30 248.69 188.35 251.37 185.30 C 254.41 182.02 257.94 179.14 260.44 175.39 C 262.85 171.89 265.71 168.57 269.51 166.55 C 275.14 163.51 281.32 161.72 287.13 159.08 C 289.15 158.17 290.33 156.03 290.74 153.95 C 290.24 149.74 286.95 146.69 284.07 143.90 C 278.41 138.32 271.20 133.97 267.46 126.71 C 264.71 119.13 267.26 110.97 266.79 103.15 C 266.94 101.83 265.29 100.62 264.06 100.91 C 255.42 102.36 246.64 101.55 237.93 101.68 C 232.42 101.80 227.08 100.39 221.70 99.47 C 217.61 98.69 213.51 101.04 211.76 104.74 Z" />
</g>
<g id="#914c87ff">
<path fill="#914c87" opacity="1.00" d=" M 244.28 115.06 C 251.11 112.95 259.08 116.64 261.43 123.47 C 262.94 129.86 259.29 137.07 252.88 138.99 C 246.07 141.06 237.84 136.17 237.28 128.88 C 236.79 123.63 238.87 116.95 244.28 115.06 M 246.40 120.27 C 242.86 122.27 240.24 127.27 243.11 130.89 C 244.83 134.45 249.32 134.65 252.71 133.89 C 256.25 131.49 258.01 125.70 254.97 122.20 C 253.34 119.25 249.16 119.19 246.40 120.27 Z" />
</g>
<g id="#bc70b4ff">
<path fill="#bc70b4" opacity="1.00" d=" M 246.40 120.27 C 249.16 119.19 253.34 119.25 254.97 122.20 C 258.01 125.70 256.25 131.49 252.71 133.89 C 249.32 134.65 244.83 134.45 243.11 130.89 C 240.24 127.27 242.86 122.27 246.40 120.27 Z" />
</g>
<g id="#934b87ff">
<path fill="#934b87" opacity="1.00" d=" M 470.31 125.69 C 476.20 125.96 483.45 128.82 484.53 135.37 C 486.57 142.48 480.57 150.80 473.01 150.32 C 469.12 150.06 464.33 149.57 462.44 145.59 C 457.39 138.65 461.37 126.79 470.31 125.69 M 468.47 131.26 C 465.89 132.48 465.56 135.72 464.91 138.18 C 464.12 141.55 467.59 143.91 470.33 144.93 C 476.18 148.08 483.27 138.34 477.92 134.05 C 475.50 131.72 471.78 130.24 468.47 131.26 Z" />
</g>
<g id="#bf70b4ff">
<path fill="#bf70b4" opacity="1.00" d=" M 468.47 131.26 C 471.78 130.24 475.50 131.72 477.92 134.05 C 483.27 138.34 476.18 148.08 470.33 144.93 C 467.59 143.91 464.12 141.55 464.91 138.18 C 465.56 135.72 465.89 132.48 468.47 131.26 Z" />
</g>
<g id="#914b85ff">
<path fill="#914b85" opacity="1.00" d=" M 165.41 150.43 C 169.83 147.36 175.98 147.82 180.43 150.59 C 189.37 155.66 196.23 163.47 204.30 169.70 C 210.02 173.47 215.54 177.83 219.36 183.61 C 224.34 193.78 232.51 201.74 239.84 210.19 C 243.63 214.61 247.24 221.05 245.01 226.93 C 240.49 228.91 236.25 231.74 231.25 232.35 C 222.90 234.06 216.91 240.48 210.19 245.18 C 205.71 248.38 203.02 253.33 199.22 257.21 C 195.56 260.88 192.47 265.49 187.48 267.47 C 182.98 269.73 177.81 268.95 172.97 269.05 C 164.78 269.44 158.28 263.52 152.54 258.47 C 149.10 255.84 147.62 251.41 143.86 249.12 C 141.83 247.96 141.26 245.64 140.33 243.67 C 136.98 242.16 134.08 240.01 132.16 236.83 C 126.55 230.77 121.39 223.95 119.15 215.88 C 118.27 212.46 121.43 208.70 124.97 209.14 C 129.11 209.15 133.72 208.99 136.83 205.83 C 144.82 195.31 143.06 180.94 149.97 169.88 C 154.52 163.01 157.96 154.74 165.41 150.43 M 165.54 156.61 C 159.98 163.30 154.86 170.54 151.52 178.62 C 149.44 184.55 148.82 190.88 146.77 196.82 C 145.07 202.67 142.37 208.72 137.00 212.06 C 133.30 214.75 128.50 213.75 124.24 214.35 C 124.29 215.57 124.48 216.80 124.99 217.92 C 128.48 225.33 133.92 231.55 139.39 237.55 C 145.24 244.69 152.03 250.96 158.64 257.37 C 162.97 261.15 168.28 264.71 174.27 264.50 C 178.31 264.30 182.72 264.68 186.25 262.32 C 194.24 258.12 197.85 249.27 204.53 243.55 C 210.80 238.41 217.14 233.30 224.12 229.13 C 229.23 226.93 235.33 227.59 240.17 224.77 C 241.30 219.56 237.24 215.45 234.26 211.76 C 230.73 207.02 226.48 202.89 222.66 198.41 C 218.65 193.80 216.98 187.65 212.77 183.19 C 207.63 177.59 201.22 173.42 195.47 168.51 C 189.33 163.98 184.15 158.08 177.19 154.74 C 173.42 153.00 168.26 153.05 165.54 156.61 Z" />
<path fill="#914b85" opacity="1.00" d=" M 240.94 232.41 C 243.56 231.69 247.00 228.94 249.31 231.66 C 252.13 234.55 250.24 238.88 249.07 242.10 C 244.64 252.29 242.01 263.91 245.09 274.86 C 246.52 279.89 247.32 285.23 250.15 289.73 C 252.30 293.19 255.01 296.44 258.47 298.65 C 262.20 299.85 266.27 299.70 269.93 301.20 C 277.85 304.46 285.72 308.20 292.35 313.71 C 294.91 315.95 296.55 320.11 294.13 323.05 C 289.74 326.49 283.78 325.98 278.74 327.75 C 271.45 330.98 265.33 336.21 259.16 341.15 C 253.42 345.81 250.35 352.88 244.56 357.48 C 236.45 364.86 223.46 366.50 213.85 361.14 C 208.61 358.68 204.70 354.32 200.17 350.86 C 191.85 344.37 182.78 338.95 174.21 332.82 C 169.11 328.78 163.02 326.21 158.12 321.90 C 148.77 314.69 137.61 307.52 134.67 295.27 C 131.53 288.63 128.69 281.02 130.64 273.65 C 136.26 270.93 142.35 273.40 147.86 275.07 C 154.17 276.64 160.40 279.14 167.01 278.86 C 173.34 279.49 179.35 277.18 185.27 275.32 C 191.45 273.10 196.88 269.12 201.47 264.47 C 204.67 261.28 208.52 258.88 211.83 255.83 C 218.73 249.01 226.34 242.97 233.86 236.86 C 235.98 234.96 239.38 234.97 240.94 232.41 M 233.32 243.28 C 226.50 249.14 219.74 255.08 212.80 260.79 C 207.95 265.26 203.12 269.79 197.92 273.86 C 187.70 281.47 174.49 283.96 161.99 282.93 C 152.73 282.27 144.30 277.50 134.99 277.19 C 133.22 284.36 137.80 290.49 140.10 296.88 C 142.66 303.46 148.31 308.03 153.56 312.44 C 160.03 318.16 167.33 322.83 174.63 327.42 C 184.52 334.16 194.72 340.50 204.25 347.75 C 210.58 354.06 218.76 360.68 228.29 359.56 C 236.52 359.04 242.91 352.95 247.80 346.86 C 251.76 341.21 256.58 336.15 262.40 332.40 C 266.98 328.51 272.03 325.13 277.58 322.78 C 281.69 321.65 286.11 321.63 290.01 319.75 C 290.08 317.97 288.44 316.79 287.29 315.69 C 281.40 311.02 274.12 308.76 267.41 305.60 C 263.90 303.94 259.83 304.33 256.32 302.71 C 250.88 300.45 247.64 295.15 244.88 290.23 C 239.62 278.51 237.17 265.05 240.43 252.42 C 241.56 246.33 244.94 240.96 246.00 234.85 C 241.12 236.53 237.22 240.04 233.32 243.28 Z" />
</g>
<g id="#924a84ff">
<path fill="#924a84" opacity="1.00" d=" M 543.38 152.49 C 546.73 151.89 549.79 155.37 550.53 158.42 C 553.60 171.05 550.87 184.07 550.55 196.84 C 549.54 205.18 548.45 213.53 548.52 221.96 C 547.31 235.25 547.10 248.80 550.09 261.88 C 550.94 264.78 549.98 267.72 549.36 270.55 C 546.66 282.42 544.70 294.48 540.95 306.08 C 539.46 310.46 537.79 315.08 534.20 318.20 C 530.56 321.16 525.84 322.69 521.15 322.47 C 511.91 322.94 502.40 321.48 494.36 316.70 C 487.96 314.18 483.81 308.42 480.22 302.86 C 477.07 297.95 475.96 292.14 474.38 286.62 C 472.27 279.96 471.36 273.01 469.82 266.22 C 469.17 259.88 467.57 253.44 463.71 248.25 C 460.08 244.42 454.86 242.64 451.10 238.93 C 447.49 235.56 444.01 230.58 445.50 225.40 C 447.09 219.42 452.11 215.32 457.01 211.99 C 465.67 205.57 475.99 202.16 485.77 197.89 C 490.65 195.64 496.51 195.44 500.59 191.63 C 510.69 182.43 519.99 172.39 529.49 162.58 C 533.86 158.93 537.52 153.77 543.38 152.49 M 542.38 158.14 C 537.83 160.49 534.99 164.91 531.38 168.36 C 527.45 172.10 523.82 176.12 519.89 179.84 C 514.21 185.82 508.78 192.17 502.06 197.02 C 499.36 199.06 496.05 199.88 492.85 200.76 C 484.48 203.07 476.74 207.11 469.00 210.96 C 463.41 213.76 457.92 216.98 453.53 221.48 C 451.60 223.48 450.17 226.10 449.93 228.89 C 452.55 236.00 460.34 238.74 465.83 243.16 C 471.21 247.49 472.54 254.66 473.88 261.05 C 475.72 272.24 478.31 283.31 481.83 294.09 C 484.11 301.31 489.01 307.56 495.07 312.01 C 505.05 318.32 518.12 319.32 529.10 315.22 C 535.89 310.73 537.00 301.78 538.79 294.48 C 541.42 285.69 542.73 276.59 544.73 267.66 C 545.39 264.97 545.18 262.19 544.61 259.52 C 542.26 248.48 542.86 237.13 543.23 225.93 C 544.05 214.75 544.91 203.57 545.74 192.38 C 546.55 182.47 548.24 172.42 546.60 162.52 C 546.03 160.60 545.18 156.52 542.38 158.14 Z" />
</g>
<g id="#914483ff">
<path fill="#914483" opacity="1.00" d=" M 372.71 166.75 C 381.31 164.77 391.67 166.31 397.76 173.23 C 401.58 177.24 405.13 182.25 404.64 188.08 C 403.95 193.35 403.00 199.15 399.03 203.04 C 393.59 208.88 384.86 212.43 376.96 210.06 C 373.53 209.09 370.03 207.98 367.10 205.89 C 361.82 200.80 358.36 193.45 359.16 186.01 C 359.70 180.12 363.18 175.13 366.54 170.49 C 368.01 168.47 370.46 167.59 372.71 166.75 M 386.46 176.49 C 382.72 178.79 381.09 185.20 384.54 188.48 C 386.67 191.08 390.44 190.98 393.45 190.38 C 396.82 188.94 397.78 184.64 397.64 181.31 C 395.78 177.27 390.75 174.70 386.46 176.49 Z" />
</g>
<g id="#904382ff">
<path fill="#904382" opacity="1.00" d=" M 319.56 193.59 C 316.54 181.21 328.30 167.83 340.97 169.27 C 346.91 169.24 353.38 170.83 357.17 175.76 C 358.21 176.97 356.86 178.26 356.48 179.44 C 354.19 183.56 354.54 188.45 354.77 192.99 C 355.07 197.53 358.33 201.22 358.78 205.70 C 353.67 210.07 347.80 214.16 340.94 214.94 C 336.40 215.40 332.82 211.99 329.45 209.48 C 326.95 207.69 326.26 204.55 324.95 201.95 C 323.58 198.89 320.92 196.64 319.56 193.59 M 324.35 189.34 C 323.57 194.02 328.08 197.06 331.04 199.88 C 334.76 197.88 340.32 195.28 339.69 190.21 C 339.59 186.67 335.70 184.97 332.79 184.07 C 329.07 182.97 325.45 185.97 324.35 189.34 Z" />
</g>
<g id="#bd6fb3ff">
<path fill="#bd6fb3" opacity="1.00" d=" M 386.46 176.49 C 390.75 174.70 395.78 177.27 397.64 181.31 C 397.78 184.64 396.82 188.94 393.45 190.38 C 390.44 190.98 386.67 191.08 384.54 188.48 C 381.09 185.20 382.72 178.79 386.46 176.49 Z" />
</g>
<g id="#914986ff">
<path fill="#914986" opacity="1.00" d=" M 171.50 177.58 C 175.22 176.54 179.33 177.03 182.98 178.19 C 188.85 181.15 191.88 189.43 188.17 195.18 C 184.08 202.17 173.11 203.54 167.82 197.19 C 162.52 191.39 165.15 181.49 171.50 177.58 M 178.29 181.42 C 176.12 181.55 173.86 181.90 171.96 183.03 C 170.24 184.96 169.47 187.70 169.73 190.26 C 170.10 195.65 177.60 198.16 181.47 194.57 C 188.03 192.03 184.13 181.87 178.29 181.42 Z" />
</g>
<g id="#bc71b5ff">
<path fill="#bc71b5" opacity="1.00" d=" M 178.29 181.42 C 184.13 181.87 188.03 192.03 181.47 194.57 C 177.60 198.16 170.10 195.65 169.73 190.26 C 169.47 187.70 170.24 184.96 171.96 183.03 C 173.86 181.90 176.12 181.55 178.29 181.42 Z" />
<path fill="#bc71b5" opacity="1.00" d=" M 275.41 264.79 C 278.39 264.12 281.53 265.65 284.06 267.17 C 287.00 270.34 286.22 276.30 282.37 278.48 C 280.06 280.27 277.11 279.11 274.47 279.21 C 272.80 279.54 272.04 277.75 271.51 276.51 C 269.71 272.33 271.55 267.09 275.41 264.79 Z" />
</g>
<g id="#bb6db1ff">
<path fill="#bb6db1" opacity="1.00" d=" M 324.35 189.34 C 325.45 185.97 329.07 182.97 332.79 184.07 C 335.70 184.97 339.59 186.67 339.69 190.21 C 340.32 195.28 334.76 197.88 331.04 199.88 C 328.08 197.06 323.57 194.02 324.35 189.34 Z" />
</g>
<g id="#8f4584ff">
<path fill="#8f4584" opacity="1.00" d=" M 300.09 190.02 C 305.98 190.48 311.61 193.09 316.12 196.87 C 321.99 202.25 324.74 211.23 321.72 218.79 C 315.77 219.42 309.41 218.03 303.81 220.71 C 299.32 222.90 294.80 225.92 292.56 230.55 C 291.84 231.61 291.59 233.25 290.16 233.60 C 284.74 229.65 279.95 224.43 278.25 217.77 C 275.99 210.01 278.22 200.82 284.65 195.66 C 288.69 191.59 294.57 190.33 300.09 190.02 M 296.15 204.89 C 292.37 205.56 288.99 208.99 288.73 212.87 C 289.50 215.72 291.31 218.38 293.72 220.11 C 296.36 221.29 299.59 220.43 301.78 218.68 C 303.96 216.94 304.26 213.84 304.02 211.25 C 303.35 207.58 299.69 205.16 296.15 204.89 Z" />
</g>
<g id="#bb6cb1ff">
<path fill="#bb6cb1" opacity="1.00" d=" M 296.15 204.89 C 299.69 205.16 303.35 207.58 304.02 211.25 C 304.26 213.84 303.96 216.94 301.78 218.68 C 299.59 220.43 296.36 221.29 293.72 220.11 C 291.31 218.38 289.50 215.72 288.73 212.87 C 288.99 208.99 292.37 205.56 296.15 204.89 Z" />
</g>
<g id="#904282ff">
<path fill="#904282" opacity="1.00" d=" M 413.43 207.62 C 419.42 206.51 426.05 207.17 430.93 211.11 C 440.49 217.93 441.44 231.98 436.90 242.01 C 434.79 244.78 432.12 247.13 429.53 249.45 C 424.88 250.25 420.22 251.37 415.48 251.47 C 407.64 250.67 399.58 246.20 396.40 238.70 C 393.89 232.49 394.01 225.16 397.13 219.19 C 400.64 213.28 406.73 209.08 413.43 207.62 M 403.83 232.95 C 402.86 236.13 404.35 239.54 405.39 242.56 C 408.86 244.03 413.20 244.41 416.66 242.69 C 419.84 239.46 418.16 234.19 416.13 230.80 C 412.56 227.24 406.50 229.36 403.83 232.95 Z" />
</g>
<g id="#8f4382ff">
<path fill="#8f4382" opacity="1.00" d=" M 371.17 214.17 C 379.07 216.08 387.03 214.19 394.89 213.10 C 393.53 216.40 391.26 219.36 390.69 222.96 C 389.66 228.80 390.39 234.91 392.32 240.50 C 393.57 244.14 396.78 246.55 398.58 249.87 C 397.18 252.25 394.58 253.54 392.23 254.81 C 389.79 249.50 390.33 242.51 385.40 238.62 C 382.34 235.88 379.44 232.77 375.49 231.32 C 370.96 229.09 365.83 230.33 361.01 229.80 C 361.38 223.19 365.39 217.23 371.17 214.17 Z" />
</g>
<g id="#904583ff">
<path fill="#904583" opacity="1.00" d=" M 327.26 214.96 C 329.62 214.91 331.50 216.44 333.46 217.52 C 336.04 219.01 339.00 219.81 341.98 219.93 C 345.18 219.82 348.03 218.11 351.08 217.31 C 353.78 218.50 356.11 221.13 356.45 224.13 C 356.42 226.67 355.71 229.24 354.45 231.45 C 352.59 233.73 349.67 234.75 347.57 236.77 C 345.85 238.46 344.37 240.43 342.33 241.76 C 340.13 233.55 335.50 224.86 327.23 221.53 C 326.73 219.37 326.98 217.13 327.26 214.96 Z" />
</g>
<g id="#934886ff">
<path fill="#934886" opacity="1.00" d=" M 484.42 221.48 C 491.72 219.88 498.84 225.98 499.71 233.10 C 499.36 238.71 495.45 244.34 489.76 245.55 C 486.04 246.16 481.66 246.12 479.05 242.97 C 471.61 237.15 474.61 222.59 484.42 221.48 M 484.55 226.42 C 482.13 227.94 479.67 230.15 479.13 233.09 C 479.24 236.60 482.08 239.75 485.20 241.06 C 487.64 240.84 490.05 240.13 492.24 239.05 C 495.15 236.02 495.82 229.08 490.93 227.61 C 488.88 227.10 486.64 225.41 484.55 226.42 Z" />
</g>
<g id="#914885ff">
<path fill="#914885" opacity="1.00" d=" M 92.37 222.34 C 96.80 222.04 101.82 223.75 104.74 227.24 C 110.14 232.82 106.74 243.24 99.79 245.78 C 95.92 246.29 91.32 246.65 88.22 243.81 C 85.30 241.42 83.38 237.78 83.23 234.00 C 84.06 229.00 86.98 223.46 92.37 222.34 M 92.35 227.23 C 88.58 228.63 86.47 233.90 88.41 237.53 C 91.62 242.63 101.70 242.86 103.17 236.22 C 104.57 230.62 97.49 225.62 92.35 227.23 Z" />
</g>
<g id="#8f4483ff">
<path fill="#8f4483" opacity="1.00" d=" M 312.38 223.40 C 315.37 222.42 318.37 223.79 321.14 224.85 C 326.66 227.09 332.18 230.34 335.43 235.49 C 337.61 240.54 339.59 246.34 337.83 251.83 C 336.67 256.34 333.80 260.26 330.21 263.17 C 326.53 266.39 321.47 266.96 316.87 267.97 C 311.66 268.85 305.31 268.79 301.63 264.40 C 295.51 257.83 291.58 248.40 293.57 239.37 C 294.47 235.81 297.11 233.06 299.25 230.18 C 302.31 225.98 307.64 224.73 312.38 223.40 M 310.37 237.23 C 308.55 237.86 306.86 239.01 305.71 240.56 C 303.78 244.85 305.48 250.44 309.54 252.85 C 311.38 253.67 313.46 252.83 315.22 252.19 C 318.29 251.22 318.92 247.64 319.27 244.88 C 320.29 240.05 314.64 236.48 310.37 237.23 Z" />
</g>
<g id="#bd6bb2ff">
<path fill="#bd6bb2" opacity="1.00" d=" M 484.55 226.42 C 486.64 225.41 488.88 227.10 490.93 227.61 C 495.82 229.08 495.15 236.02 492.24 239.05 C 490.05 240.13 487.64 240.84 485.20 241.06 C 482.08 239.75 479.24 236.60 479.13 233.09 C 479.67 230.15 482.13 227.94 484.55 226.42 Z" />
</g>
<g id="#bb72b5ff">
<path fill="#bb72b5" opacity="1.00" d=" M 92.35 227.23 C 97.49 225.62 104.57 230.62 103.17 236.22 C 101.70 242.86 91.62 242.63 88.41 237.53 C 86.47 233.90 88.58 228.63 92.35 227.23 Z" />
</g>
<g id="#ba6cafff">
<path fill="#ba6caf" opacity="1.00" d=" M 403.83 232.95 C 406.50 229.36 412.56 227.24 416.13 230.80 C 418.16 234.19 419.84 239.46 416.66 242.69 C 413.20 244.41 408.86 244.03 405.39 242.56 C 404.35 239.54 402.86 236.13 403.83 232.95 Z" />
</g>
<g id="#8f4282ff">
<path fill="#8f4282" opacity="1.00" d=" M 365.33 234.63 C 368.75 234.83 372.13 235.68 375.42 236.64 C 379.67 239.61 383.30 243.68 385.51 248.40 C 389.80 258.36 385.45 270.60 376.97 276.90 C 370.79 280.11 362.59 281.82 356.50 277.49 C 351.29 273.51 344.00 270.96 342.15 263.96 C 340.11 255.16 344.11 245.57 350.74 239.69 C 354.41 235.63 360.26 235.35 365.33 234.63 M 359.20 248.08 C 356.66 250.02 355.67 253.69 356.68 256.68 C 358.18 259.96 361.92 260.97 365.12 261.79 C 365.88 261.88 367.03 262.44 367.46 261.46 C 368.72 259.33 370.29 257.31 371.19 254.99 C 371.20 251.50 369.64 247.76 366.58 245.87 C 364.00 246.01 361.43 246.79 359.20 248.08 Z" />
</g>
<g id="#b86bafff">
<path fill="#b86baf" opacity="1.00" d=" M 310.37 237.23 C 314.64 236.48 320.29 240.05 319.27 244.88 C 318.92 247.64 318.29 251.22 315.22 252.19 C 313.46 252.83 311.38 253.67 309.54 252.85 C 305.48 250.44 303.78 244.85 305.71 240.56 C 306.86 239.01 308.55 237.86 310.37 237.23 Z" />
</g>
<g id="#8e4484ff">
<path fill="#8e4484" opacity="1.00" d=" M 261.75 269.34 C 258.49 257.17 268.12 244.54 279.95 242.14 C 282.85 241.90 285.79 241.91 288.69 242.22 C 288.92 248.42 289.19 254.91 292.51 260.36 C 294.15 264.16 297.73 266.37 300.56 269.18 C 298.99 271.77 296.70 273.95 295.82 276.93 C 294.79 279.52 294.46 282.46 292.78 284.74 C 280.77 290.61 264.02 282.78 261.75 269.34 M 275.41 264.79 C 271.55 267.09 269.71 272.33 271.51 276.51 C 272.04 277.75 272.80 279.54 274.47 279.21 C 277.11 279.11 280.06 280.27 282.37 278.48 C 286.22 276.30 287.00 270.34 284.06 267.17 C 281.53 265.65 278.39 264.12 275.41 264.79 Z" />
</g>
<g id="#bc69b0ff">
<path fill="#bc69b0" opacity="1.00" d=" M 359.20 248.08 C 361.43 246.79 364.00 246.01 366.58 245.87 C 369.64 247.76 371.20 251.50 371.19 254.99 C 370.29 257.31 368.72 259.33 367.46 261.46 C 367.03 262.44 365.88 261.88 365.12 261.79 C 361.92 260.97 358.18 259.96 356.68 256.68 C 355.67 253.69 356.66 250.02 359.20 248.08 Z" />
</g>
<g id="#8e4382ff">
<path fill="#8e4382" opacity="1.00" d=" M 409.14 256.76 C 413.38 255.65 417.51 258.08 421.18 259.90 C 428.67 264.72 434.79 273.00 434.21 282.28 C 434.19 289.99 429.00 296.71 422.71 300.68 C 412.11 306.13 398.58 301.64 391.85 292.23 C 387.09 284.80 387.40 274.68 392.58 267.56 C 397.02 262.62 402.83 258.84 409.14 256.76 M 411.09 268.48 C 407.78 269.11 404.38 271.07 403.11 274.34 C 401.68 279.55 406.59 285.02 411.85 284.67 C 414.30 284.04 416.50 282.53 418.19 280.67 C 418.92 275.47 416.17 270.20 411.09 268.48 Z" />
</g>
<g id="#8f4383ff">
<path fill="#8f4383" opacity="1.00" d=" M 325.33 271.23 C 327.83 269.75 330.50 266.14 333.63 268.38 C 338.64 271.62 342.34 277.20 342.70 283.25 C 343.42 290.43 343.17 299.09 337.12 304.07 C 331.77 307.48 325.30 309.29 318.94 309.04 C 312.25 309.08 306.13 305.04 301.94 300.10 C 298.67 294.83 297.93 288.14 299.14 282.11 C 299.81 278.57 301.14 274.82 304.18 272.63 C 311.12 274.50 318.89 274.93 325.33 271.23 M 312.24 287.79 C 308.74 289.13 307.20 293.48 307.75 296.99 C 307.85 299.93 310.79 301.69 313.31 302.43 C 316.04 302.55 318.78 301.58 321.10 300.19 C 323.99 297.21 322.85 292.51 320.44 289.60 C 318.77 286.69 315.00 287.37 312.24 287.79 Z" />
</g>
<g id="#bb69afff">
<path fill="#bb69af" opacity="1.00" d=" M 411.09 268.48 C 416.17 270.20 418.92 275.47 418.19 280.67 C 416.50 282.53 414.30 284.04 411.85 284.67 C 406.59 285.02 401.68 279.55 403.11 274.34 C 404.38 271.07 407.78 269.11 411.09 268.48 Z" />
</g>
<g id="#914987ff">
<path fill="#914987" opacity="1.00" d=" M 223.37 271.71 C 228.71 270.81 234.69 272.52 237.89 277.10 C 242.38 283.30 238.69 293.30 231.29 295.21 C 223.99 298.08 215.46 291.56 215.25 284.02 C 215.53 278.97 218.59 273.66 223.37 271.71 M 223.43 276.43 C 220.31 279.65 218.40 285.39 221.93 289.04 C 225.01 293.20 231.40 291.43 234.06 287.82 C 234.11 285.86 234.55 283.97 235.25 282.14 C 234.29 279.91 232.49 277.99 230.45 276.68 C 228.17 276.08 225.75 276.09 223.43 276.43 Z" />
</g>
<g id="#ba70b3ff">
<path fill="#ba70b3" opacity="1.00" d=" M 223.43 276.43 C 225.75 276.09 228.17 276.08 230.45 276.68 C 232.49 277.99 234.29 279.91 235.25 282.14 C 234.55 283.97 234.11 285.86 234.06 287.82 C 231.40 291.43 225.01 293.20 221.93 289.04 C 218.40 285.39 220.31 279.65 223.43 276.43 Z" />
</g>
<g id="#8f4583ff">
<path fill="#8f4583" opacity="1.00" d=" M 370.48 284.49 C 374.94 283.66 378.39 280.60 382.09 278.23 C 383.46 278.82 383.34 280.81 383.87 282.05 C 384.71 286.74 386.87 291.61 385.24 296.37 C 383.68 300.99 382.18 306.06 378.20 309.23 C 374.88 312.38 370.23 313.89 365.69 313.35 C 360.77 312.78 355.27 313.02 351.16 309.84 C 348.65 307.84 345.93 305.84 344.34 302.99 C 345.25 299.68 347.49 296.73 347.46 293.19 C 347.49 288.53 347.33 283.88 347.18 279.22 C 354.47 282.36 362.30 286.68 370.48 284.49 M 365.13 289.70 C 363.48 289.63 361.85 289.94 360.28 290.39 C 356.32 291.35 355.52 296.25 355.66 299.72 C 357.24 302.26 359.94 303.96 362.61 305.20 C 368.75 306.12 373.70 297.30 369.30 292.66 C 368.12 291.46 366.87 289.94 365.13 289.70 Z" />
</g>
<g id="#b96eb2ff">
<path fill="#b96eb2" opacity="1.00" d=" M 312.24 287.79 C 315.00 287.37 318.77 286.69 320.44 289.60 C 322.85 292.51 323.99 297.21 321.10 300.19 C 318.78 301.58 316.04 302.55 313.31 302.43 C 310.79 301.69 307.85 299.93 307.75 296.99 C 307.20 293.48 308.74 289.13 312.24 287.79 Z" />
</g>
<g id="#924b84ff">
<path fill="#924b84" opacity="1.00" d=" M 457.36 287.59 C 461.71 287.15 464.61 290.97 466.69 294.23 C 471.04 301.09 477.73 306.09 481.92 313.06 C 485.18 319.59 492.84 321.62 499.18 323.90 C 505.00 324.90 510.63 328.07 513.77 333.15 C 515.67 338.09 515.83 344.20 512.68 348.69 C 509.36 353.89 505.90 359.22 500.78 362.84 C 496.53 366.45 490.83 367.36 486.18 370.27 C 482.72 372.35 479.18 374.81 474.97 374.80 C 467.16 375.66 460.05 371.91 452.62 370.28 C 446.72 368.12 440.34 368.17 434.21 369.18 C 423.40 371.16 412.41 371.79 401.54 373.36 C 395.67 374.12 389.73 374.03 383.85 374.59 C 370.55 376.92 356.96 375.24 343.57 376.45 C 327.98 377.56 312.40 376.02 296.98 373.93 C 290.97 374.08 285.42 371.62 279.75 370.03 C 274.84 367.83 270.32 364.29 267.64 359.56 C 267.16 355.66 269.76 352.06 272.58 349.62 C 277.97 345.49 283.64 341.72 289.73 338.70 C 296.96 334.10 304.70 330.40 312.08 326.07 C 316.47 323.61 321.04 321.03 326.18 320.68 C 331.52 320.03 336.78 321.52 342.08 321.96 C 345.83 322.27 349.50 323.16 353.20 323.85 C 363.59 325.36 374.22 324.73 384.46 322.50 C 395.34 319.95 406.25 317.16 416.45 312.50 C 423.94 309.12 429.55 302.91 436.10 298.12 C 442.48 293.47 448.99 287.71 457.36 287.59 M 438.29 303.19 C 431.78 307.64 426.51 313.89 419.16 317.07 C 405.34 323.43 390.39 326.97 375.42 329.35 C 365.66 330.03 355.66 330.29 346.13 327.72 C 338.17 326.62 329.75 324.32 321.87 326.81 C 309.77 333.36 297.62 339.86 285.71 346.76 C 280.91 349.96 275.65 352.99 272.34 357.87 C 276.65 364.27 284.75 366.28 291.78 368.21 C 302.73 370.23 313.92 370.17 324.97 371.24 C 336.31 372.04 347.66 370.88 359.01 371.10 C 382.02 369.97 404.99 368.02 427.84 365.08 C 433.86 364.25 439.98 362.86 446.07 363.87 C 454.67 364.91 462.69 368.54 471.20 369.94 C 476.12 370.78 480.38 367.78 484.42 365.48 C 490.40 361.77 497.74 360.02 502.43 354.46 C 505.96 350.24 509.58 345.54 510.21 339.90 C 510.65 336.68 508.23 333.93 505.77 332.20 C 498.27 326.92 488.56 326.18 481.06 320.87 C 478.63 318.53 477.44 315.26 475.47 312.58 C 471.93 307.20 466.14 303.72 463.07 298.00 C 461.63 295.82 460.16 292.59 457.03 292.92 C 449.63 293.54 443.96 298.93 438.29 303.19 Z" />
</g>
<g id="#ba6eb2ff">
<path fill="#ba6eb2" opacity="1.00" d=" M 365.13 289.70 C 366.87 289.94 368.12 291.46 369.30 292.66 C 373.70 297.30 368.75 306.12 362.61 305.20 C 359.94 303.96 357.24 302.26 355.66 299.72 C 355.52 296.25 356.32 291.35 360.28 290.39 C 361.85 289.94 363.48 289.63 365.13 289.70 Z" />
</g>
<g id="#8f4983ff">
<path fill="#8f4983" opacity="1.00" d=" M 433.48 315.50 C 437.77 314.81 443.00 314.37 446.41 317.63 C 449.53 320.13 452.27 324.06 451.32 328.24 C 450.55 331.77 449.42 336.03 445.83 337.69 C 442.66 339.21 439.00 340.31 435.49 339.41 C 429.83 337.43 425.60 331.32 426.76 325.26 C 427.75 321.37 430.16 317.76 433.48 315.50 M 434.56 320.46 C 430.99 323.07 430.12 328.66 432.79 332.20 C 435.43 334.19 439.09 335.21 442.34 334.34 C 445.01 332.76 446.89 329.45 446.51 326.34 C 445.50 323.95 443.95 321.58 441.68 320.26 C 439.40 319.79 436.67 319.27 434.56 320.46 Z" />
</g>
<g id="#c071b4ff">
<path fill="#c071b4" opacity="1.00" d=" M 434.56 320.46 C 436.67 319.27 439.40 319.79 441.68 320.26 C 443.95 321.58 445.50 323.95 446.51 326.34 C 446.89 329.45 445.01 332.76 442.34 334.34 C 439.09 335.21 435.43 334.19 432.79 332.20 C 430.12 328.66 430.99 323.07 434.56 320.46 Z" />
</g>
<g id="#904985ff">
<path fill="#904985" opacity="1.00" d=" M 106.47 331.55 C 111.22 330.65 117.02 331.83 119.76 336.19 C 124.19 342.43 121.39 352.57 113.85 354.83 C 110.45 356.59 106.81 354.72 103.72 353.22 C 99.78 351.36 98.30 346.79 97.68 342.80 C 97.34 337.54 101.96 333.36 106.47 331.55 M 110.29 334.97 C 108.06 335.60 106.12 336.98 104.23 338.28 C 100.38 340.97 102.49 346.96 105.47 349.53 C 108.70 352.08 114.84 351.47 116.34 347.23 C 117.31 344.20 117.22 340.72 116.11 337.74 C 114.39 336.45 112.41 335.40 110.29 334.97 Z" />
</g>
<g id="#be71b5ff">
<path fill="#be71b5" opacity="1.00" d=" M 110.29 334.97 C 112.41 335.40 114.39 336.45 116.11 337.74 C 117.22 340.72 117.31 344.20 116.34 347.23 C 114.84 351.47 108.70 352.08 105.47 349.53 C 102.49 346.96 100.38 340.97 104.23 338.28 C 106.12 336.98 108.06 335.60 110.29 334.97 Z" />
</g>
</svg>
