<?xml version="1.0" encoding="UTF-8" ?>
<!DOCTYPE svg PUBLIC "-//W3C//DTD SVG 1.1//EN" "http://www.w3.org/Graphics/SVG/1.1/DTD/svg11.dtd">
<svg width="998pt" height="870pt" viewBox="0 0 998 870" version="1.1" xmlns="http://www.w3.org/2000/svg">
<g id="#ffffffff">
<path fill="#ffffff" opacity="1.00" d=" M 0.00 0.00 L 998.00 0.00 L 998.00 870.00 L 0.00 870.00 L 0.00 0.00 M 598.65 67.62 C 597.71 69.76 596.49 72.15 597.50 74.50 C 599.78 80.25 603.37 85.32 606.40 90.67 C 608.36 95.37 611.80 100.38 609.85 105.65 C 605.68 112.68 600.31 120.16 601.27 128.78 C 601.64 130.62 602.80 133.20 605.11 132.77 C 615.35 132.86 625.20 127.51 631.67 119.72 C 637.51 110.94 641.62 99.29 636.79 89.16 C 634.74 80.97 627.63 75.69 621.49 70.55 C 614.42 67.51 606.23 65.00 598.65 67.62 M 210.09 74.22 C 210.12 75.36 210.14 76.50 210.16 77.64 C 214.01 81.34 218.27 84.65 223.21 86.75 C 227.41 90.13 230.95 95.38 230.21 101.00 C 229.96 104.59 231.63 107.87 233.20 110.97 C 235.66 110.62 238.15 110.29 240.54 109.57 C 244.59 106.53 247.52 102.18 249.53 97.58 C 250.13 91.70 250.38 85.12 246.99 79.96 C 245.20 76.89 243.42 73.62 240.25 71.77 C 235.87 68.42 230.24 68.06 224.96 67.67 C 219.69 68.97 214.38 70.77 210.09 74.22 M 548.07 74.14 C 545.64 74.80 546.39 77.63 546.14 79.49 C 548.83 81.56 550.88 84.31 553.52 86.43 C 558.88 89.96 563.94 94.15 567.73 99.37 C 568.88 102.12 570.18 104.93 570.63 107.90 C 569.97 113.84 570.06 119.84 570.36 125.80 C 570.56 128.70 573.49 131.33 576.43 130.30 C 582.39 130.00 586.28 125.03 590.14 121.12 C 594.13 116.91 594.92 110.96 596.58 105.64 C 597.10 99.59 595.52 93.45 592.90 88.01 C 590.04 82.08 584.18 78.64 578.84 75.25 C 573.03 72.19 566.52 70.62 560.01 70.16 C 555.79 70.48 551.97 72.64 548.07 74.14 M 255.46 73.31 C 255.31 76.26 254.81 79.39 255.95 82.20 C 257.87 86.65 259.39 91.30 260.33 96.06 C 261.49 103.75 253.55 109.04 254.06 116.73 C 257.05 118.57 260.58 120.75 264.17 119.13 C 271.10 117.58 277.56 113.32 280.86 106.92 C 283.59 101.20 284.46 94.53 282.46 88.43 C 281.58 82.65 276.48 79.00 271.78 76.31 C 266.52 74.65 261.03 73.04 255.46 73.31 M 650.40 83.39 C 645.84 86.08 648.44 91.60 648.60 95.71 C 649.89 101.06 650.60 106.53 650.32 112.05 C 650.91 117.75 646.18 121.96 642.10 125.14 C 636.47 129.51 629.47 134.56 630.10 142.62 C 633.15 146.07 637.85 146.84 642.16 147.60 C 647.13 148.28 651.81 146.28 656.65 145.58 C 667.28 141.48 676.11 132.11 678.27 120.75 C 678.15 113.48 678.75 105.59 674.86 99.11 C 672.16 94.90 668.65 91.31 665.56 87.41 C 661.44 83.80 655.78 82.35 650.40 83.39 M 192.18 87.23 C 186.83 95.79 182.92 105.18 178.06 114.03 C 175.80 117.88 174.35 122.14 171.97 125.92 C 170.06 128.70 170.06 132.15 169.31 135.33 C 170.48 135.76 172.00 136.06 172.98 135.03 C 177.75 130.97 182.82 127.26 187.89 123.58 C 191.27 121.15 193.58 116.45 198.46 117.35 C 198.45 119.01 198.43 120.68 198.41 122.34 C 197.19 122.51 195.97 122.68 194.75 122.85 C 195.15 127.80 193.41 132.58 190.92 136.79 C 187.95 142.25 189.49 148.91 186.95 154.45 C 188.73 154.37 190.96 155.02 192.14 153.26 C 200.68 144.43 209.48 135.86 218.15 127.16 C 220.15 125.16 222.22 123.19 223.76 120.79 C 226.79 117.03 225.86 111.84 225.46 107.40 C 224.09 102.35 223.23 95.52 217.42 93.71 C 211.62 92.30 206.64 88.62 200.75 87.43 C 197.91 87.09 195.03 87.26 192.18 87.23 M 517.51 90.54 C 515.22 92.23 513.31 94.37 511.07 96.13 C 513.34 98.81 515.89 101.21 518.72 103.29 C 521.55 105.87 525.49 107.08 527.75 110.30 C 530.22 113.56 533.44 116.33 535.09 120.15 C 535.64 126.67 534.85 133.25 535.35 139.77 C 535.64 142.25 537.38 144.18 539.10 145.86 C 548.05 145.10 556.50 138.68 558.67 129.80 C 559.50 126.16 560.61 122.59 561.56 118.99 C 559.46 111.64 557.47 103.74 551.67 98.33 C 548.18 94.68 543.16 93.46 538.74 91.37 C 531.93 88.78 524.53 89.08 517.51 90.54 M 290.45 95.40 C 289.38 101.58 292.00 108.57 288.17 114.10 C 284.79 120.04 277.85 122.49 273.91 127.96 C 274.54 129.72 275.15 131.49 275.73 133.27 C 283.51 135.72 292.67 137.78 300.04 133.04 C 304.64 128.97 309.59 124.68 311.40 118.57 C 311.60 114.52 312.05 110.31 310.46 106.45 C 307.43 99.18 300.72 94.59 294.82 89.79 C 293.18 91.50 291.29 93.12 290.45 95.40 M 485.39 106.43 C 483.14 107.24 481.29 108.98 480.39 111.20 C 482.27 116.34 486.62 119.91 490.70 123.30 C 494.34 127.52 498.55 131.68 500.29 137.08 C 500.68 143.78 497.64 150.23 498.20 156.98 C 498.11 159.57 499.39 162.98 502.06 163.68 C 509.59 163.28 516.30 158.71 521.09 153.10 C 524.69 147.19 527.30 140.04 525.88 133.04 C 525.19 128.51 524.15 123.63 520.67 120.36 C 517.27 117.14 514.48 113.10 510.39 110.72 C 506.68 109.69 503.53 107.24 499.79 106.37 C 495.00 106.16 490.16 105.94 485.39 106.43 M 321.87 113.75 C 319.38 121.45 318.54 129.97 313.75 136.73 C 308.72 140.97 301.94 142.55 297.25 147.33 C 297.27 148.79 297.26 150.26 297.22 151.73 C 300.08 153.97 303.20 155.88 306.46 157.49 C 310.94 158.14 315.52 157.62 320.05 157.82 C 324.28 158.24 327.63 155.09 330.97 152.99 C 334.66 148.37 339.51 143.88 340.35 137.75 C 340.29 133.49 339.39 129.19 337.62 125.30 C 335.82 120.52 332.06 116.91 328.88 113.05 C 327.78 111.67 326.28 110.71 324.90 109.65 C 323.80 110.94 322.45 112.11 321.87 113.75 M 126.91 113.83 C 124.44 119.43 129.91 124.22 129.92 129.75 C 127.74 131.81 125.55 134.77 122.21 134.53 C 115.51 134.12 108.69 133.54 102.34 131.22 C 104.15 138.34 114.96 138.93 115.19 146.88 C 114.05 149.42 112.71 151.88 111.27 154.25 C 105.95 158.55 98.51 158.38 92.93 162.17 C 93.68 162.94 94.44 163.72 95.19 164.50 C 98.76 163.94 102.34 164.65 105.91 164.75 C 107.11 166.80 108.51 168.77 109.38 171.00 C 109.67 173.54 109.66 176.72 107.35 178.38 C 102.49 181.85 96.29 182.23 90.86 184.41 C 94.66 188.62 100.91 187.52 105.49 190.40 C 110.40 192.16 113.53 197.05 114.41 201.97 C 113.00 208.56 105.86 211.76 103.78 218.01 C 109.74 217.46 115.23 214.79 121.10 213.81 C 122.84 213.67 124.81 213.46 126.26 214.65 C 128.47 216.32 131.82 217.72 131.91 220.92 C 130.85 226.34 129.23 231.71 129.13 237.28 C 136.47 234.42 140.68 226.37 148.52 224.41 C 151.40 223.40 154.14 225.35 156.27 227.08 C 154.24 232.76 157.02 238.51 156.22 244.31 C 159.66 240.62 162.80 236.56 164.88 231.92 C 166.28 228.79 168.66 226.18 171.38 224.13 C 173.50 223.47 175.77 223.69 177.96 223.60 C 178.95 225.91 179.93 228.23 181.13 230.44 C 181.39 228.35 181.20 226.24 180.90 224.17 C 182.37 222.42 184.27 221.29 186.59 221.18 C 187.35 225.49 184.80 229.15 181.31 231.38 C 181.89 234.03 182.33 236.71 183.08 239.32 C 184.22 238.03 185.65 236.78 185.77 234.93 C 186.39 230.71 189.29 227.28 189.92 223.06 C 191.12 216.13 195.35 210.37 197.94 203.97 C 198.51 202.48 200.24 202.14 201.45 201.35 C 204.31 199.96 205.11 196.28 208.09 195.07 C 210.98 193.77 213.20 191.40 215.14 188.96 C 214.91 188.66 214.45 188.05 214.22 187.75 C 209.96 186.74 205.46 187.91 201.13 187.17 C 196.50 186.12 195.17 180.86 193.66 177.02 C 194.97 170.93 199.16 166.06 201.08 160.21 C 202.13 156.59 204.35 153.43 205.10 149.72 C 201.34 151.81 198.19 154.89 194.13 156.47 C 191.28 157.59 189.10 159.80 186.88 161.83 C 185.06 160.04 182.99 158.28 182.16 155.78 C 182.38 150.29 184.21 145.05 185.68 139.81 C 186.44 135.62 189.25 132.18 190.00 127.98 C 183.23 131.28 177.70 136.69 172.16 141.71 C 170.80 141.55 169.45 141.40 168.09 141.25 C 164.25 135.00 164.52 127.30 164.48 120.22 C 164.32 118.92 163.70 117.74 163.28 116.52 C 161.16 118.36 159.26 120.48 158.10 123.07 C 156.68 126.23 153.48 127.92 151.11 130.29 C 147.99 129.42 144.39 129.53 141.96 127.06 C 136.94 122.65 131.72 118.47 126.91 113.83 M 350.16 118.00 C 349.01 120.73 347.65 123.62 348.44 126.65 C 349.41 130.44 349.25 134.34 348.54 138.15 C 348.99 141.65 349.33 145.29 347.73 148.58 C 344.20 152.42 340.60 156.21 336.59 159.56 C 333.81 161.85 334.15 165.46 334.25 168.69 C 335.66 169.61 337.05 170.59 338.55 171.38 C 345.82 172.34 353.35 171.80 360.22 169.13 C 369.83 164.19 375.12 153.56 375.71 143.07 C 374.76 137.14 372.46 131.20 368.06 126.98 C 363.80 124.23 359.59 121.38 355.38 118.56 C 353.69 118.04 351.89 118.14 350.16 118.00 M 451.04 122.28 C 450.87 127.30 454.30 131.25 456.76 135.30 C 461.16 140.76 464.30 147.79 463.28 154.94 C 461.31 161.59 456.48 167.72 457.30 174.98 C 457.62 177.22 459.65 178.47 461.45 179.49 C 469.82 179.50 477.46 174.96 483.59 169.57 C 491.19 160.17 492.03 145.92 485.06 135.94 C 482.90 133.39 480.94 130.69 478.83 128.11 C 473.46 122.89 466.07 120.71 458.89 119.31 C 455.97 119.08 453.26 120.53 451.04 122.28 M 417.39 120.17 C 416.65 120.91 415.91 121.65 415.17 122.39 C 415.28 124.72 414.94 127.15 415.71 129.40 C 419.49 135.64 423.65 141.94 425.07 149.22 C 425.35 150.38 425.29 151.51 424.88 152.63 C 422.64 160.17 416.90 166.15 415.24 173.92 C 415.82 176.27 417.45 178.25 419.45 179.56 C 426.42 180.34 434.13 179.39 439.44 174.40 C 444.39 172.03 446.88 166.98 449.16 162.27 C 451.21 155.46 451.41 147.93 448.63 141.29 C 445.57 133.40 438.45 128.16 432.14 122.94 C 427.36 121.39 422.51 119.69 417.39 120.17 M 376.97 123.31 C 378.49 132.41 383.61 140.37 386.29 149.12 C 386.81 152.41 384.22 154.99 382.78 157.69 C 380.37 161.88 376.05 164.78 374.48 169.47 C 373.37 172.81 376.25 177.25 379.96 176.77 C 386.22 176.90 393.06 177.11 398.49 173.47 C 401.53 171.25 404.72 169.08 407.08 166.09 C 409.09 162.53 410.73 158.71 411.66 154.71 C 412.14 151.05 410.66 147.52 409.88 144.00 C 408.51 137.93 403.66 133.73 399.65 129.34 C 394.07 123.34 384.78 120.46 376.97 123.31 M 678.37 147.35 C 674.65 151.06 671.18 155.73 665.80 156.99 C 661.90 157.64 657.97 158.26 654.01 158.19 C 649.56 158.29 644.83 157.60 640.74 159.78 C 638.85 160.48 638.26 162.61 637.55 164.28 C 637.13 168.31 639.73 171.81 642.76 174.20 C 650.39 181.88 661.25 185.57 671.91 185.78 C 677.62 185.27 683.21 183.70 688.47 181.43 C 691.49 179.17 694.54 176.89 697.14 174.14 C 704.36 165.41 706.98 153.49 705.44 142.39 C 704.77 139.10 703.23 136.08 701.83 133.05 C 700.33 129.66 696.88 127.84 693.95 125.87 C 686.76 131.43 683.56 140.20 678.37 147.35 M 717.51 165.34 C 712.21 169.55 708.56 175.44 705.49 181.39 C 703.17 186.47 698.77 190.15 694.64 193.71 C 691.08 195.06 687.21 196.61 683.36 195.77 C 678.56 194.85 673.77 196.52 669.05 197.20 C 665.67 197.60 661.72 200.19 662.20 204.01 C 661.97 208.22 665.18 211.37 668.28 213.70 C 673.71 219.49 681.51 222.25 689.15 223.63 C 693.12 224.01 697.26 225.60 701.18 224.05 C 707.21 221.61 714.71 221.74 718.90 215.97 C 724.31 210.71 727.23 203.65 729.41 196.56 C 730.02 192.74 729.69 188.83 729.74 184.97 C 729.79 179.59 727.41 174.62 725.00 169.96 C 723.09 167.74 720.95 164.22 717.51 165.34 M 747.42 180.30 C 745.16 182.55 744.51 185.97 744.29 189.04 C 744.20 194.38 742.70 199.54 741.88 204.78 C 740.62 210.02 739.31 215.54 735.88 219.84 C 732.45 223.10 728.04 225.18 723.64 226.79 C 718.57 229.18 713.64 231.91 708.94 234.96 C 707.11 237.35 705.64 240.40 706.36 243.48 C 708.95 247.24 712.88 249.68 717.30 250.69 C 722.98 253.90 729.57 252.32 735.74 252.97 C 741.00 253.60 745.86 251.10 750.78 249.68 C 753.85 248.82 756.12 246.45 758.61 244.60 C 761.60 241.98 765.34 239.96 767.25 236.32 C 770.49 230.26 772.63 223.61 773.69 216.83 C 774.25 213.07 772.63 209.55 772.04 205.91 C 771.00 197.18 765.75 189.45 759.08 183.94 C 755.70 181.55 751.67 179.54 747.42 180.30 M 792.17 221.63 C 791.04 221.91 789.74 221.97 788.88 222.82 C 785.16 226.21 782.98 230.96 781.97 235.84 C 781.03 240.86 777.41 244.65 775.16 249.08 C 773.43 252.53 770.76 255.48 767.65 257.74 C 763.83 259.21 759.73 259.79 755.79 260.88 C 749.22 261.80 741.04 260.70 736.27 266.31 C 733.59 268.37 733.44 272.74 735.52 275.26 C 742.36 282.08 750.89 287.41 760.41 289.45 C 768.52 290.42 776.99 290.07 784.45 286.44 C 789.03 285.72 792.08 282.24 795.29 279.27 C 800.92 275.47 803.53 268.82 805.53 262.60 C 807.37 257.94 806.49 252.87 806.77 248.00 C 807.79 238.98 802.77 230.53 796.68 224.29 C 795.39 223.18 794.00 221.46 792.17 221.63 M 528.83 279.87 C 525.26 281.29 521.25 281.14 517.79 282.86 C 510.95 286.82 503.62 290.26 498.09 296.06 C 492.93 300.94 488.79 306.76 484.00 311.97 C 478.57 320.22 473.76 329.26 472.40 339.16 C 472.05 345.12 470.29 350.94 470.26 356.91 C 471.06 364.17 472.96 371.37 476.10 377.98 C 478.19 382.66 482.69 385.48 486.86 388.12 C 489.94 390.40 494.03 389.99 497.62 389.62 C 501.26 388.07 503.82 384.56 504.60 380.74 C 506.32 371.69 506.27 362.40 508.24 353.39 C 509.14 348.88 508.12 344.14 509.62 339.72 C 510.95 335.85 511.76 331.64 514.33 328.35 C 517.41 324.42 519.44 319.59 523.48 316.47 C 527.91 312.91 531.40 308.33 535.95 304.90 C 539.17 302.48 541.76 299.36 544.09 296.11 C 546.13 293.30 546.37 289.70 546.94 286.38 C 543.73 283.69 540.44 280.41 536.02 280.10 C 533.64 279.83 531.16 278.85 528.83 279.87 M 729.44 290.49 C 726.32 291.24 723.14 292.62 721.42 295.49 C 721.02 298.33 721.41 301.21 722.15 303.97 C 723.48 309.40 724.78 315.13 728.43 319.54 C 731.64 322.99 734.06 327.27 738.25 329.69 C 743.42 333.71 749.34 336.57 755.63 338.32 C 762.55 341.86 770.44 340.47 777.89 340.62 C 783.00 339.74 787.78 337.46 792.56 335.50 C 799.71 332.60 805.56 327.32 810.62 321.61 C 813.91 317.59 815.08 312.41 816.47 307.52 C 817.22 304.43 816.67 300.82 814.70 298.30 C 811.50 295.75 806.86 295.82 803.16 297.23 C 794.27 300.24 785.64 304.40 776.20 305.41 C 772.02 305.97 767.63 307.10 763.52 305.61 C 756.32 303.42 750.72 298.18 743.99 295.04 C 739.76 292.15 734.76 289.24 729.44 290.49 M 447.48 291.59 C 443.22 292.90 438.26 292.66 434.76 295.77 C 430.12 299.38 425.50 303.26 422.27 308.24 C 420.24 311.16 419.69 314.79 417.91 317.85 C 414.69 323.04 415.51 329.40 414.35 335.16 C 414.60 338.65 414.72 342.14 414.64 345.62 C 418.83 357.76 421.48 371.05 430.05 381.05 C 437.24 391.86 448.77 400.27 461.86 401.84 C 465.74 401.14 466.59 396.39 466.72 393.10 C 464.67 385.06 463.01 376.85 459.73 369.20 C 457.95 364.85 456.88 360.25 454.98 355.95 C 452.61 347.97 451.79 338.76 456.26 331.32 C 460.18 323.43 465.20 316.15 469.40 308.41 C 470.34 304.78 469.99 300.59 467.03 297.97 C 461.61 293.63 454.42 290.97 447.48 291.59 M 374.45 302.53 C 371.23 303.85 368.13 305.47 365.09 307.17 C 359.11 311.17 355.36 317.44 351.04 323.01 C 347.30 329.26 346.50 336.61 344.72 343.54 C 344.14 352.97 346.26 362.45 350.09 371.07 C 351.45 373.88 353.65 376.16 355.23 378.85 C 358.70 384.27 364.14 387.89 368.49 392.52 C 370.76 394.65 373.42 396.41 376.37 397.44 C 379.91 398.67 383.12 400.72 386.74 401.75 C 390.41 402.69 393.78 405.28 397.75 404.52 C 402.81 403.60 408.26 404.38 412.95 401.91 C 415.96 400.46 417.69 396.69 416.49 393.50 C 414.21 387.87 410.80 382.74 406.60 378.37 C 399.60 368.76 390.56 359.91 387.77 347.96 C 386.45 334.38 395.37 322.49 395.84 309.12 C 395.50 306.03 393.64 301.99 389.95 302.23 C 384.79 302.29 379.56 301.88 374.45 302.53 M 540.37 325.37 C 535.94 329.93 530.79 334.17 528.26 340.17 C 526.70 343.79 523.91 346.74 522.62 350.49 C 520.87 355.60 519.45 360.83 518.34 366.11 C 517.98 373.40 518.19 380.73 518.72 388.02 C 519.26 390.62 520.77 392.89 521.68 395.38 C 524.20 402.86 529.01 410.03 536.11 413.81 C 540.15 415.71 544.50 417.04 548.91 417.72 C 552.32 416.97 555.36 415.13 557.89 412.75 C 557.54 406.21 558.37 399.56 556.68 393.15 C 555.02 386.20 554.78 379.06 553.83 372.01 C 553.18 363.50 556.81 355.43 561.59 348.62 C 567.51 340.71 573.67 332.80 577.60 323.68 C 578.22 320.61 578.64 317.51 578.88 314.39 C 576.93 312.33 574.56 310.76 571.68 310.49 C 559.81 310.81 548.29 316.56 540.37 325.37 M 318.29 312.44 C 313.48 313.64 308.62 314.85 304.25 317.28 C 299.71 318.59 296.38 322.05 292.49 324.54 C 288.45 327.25 286.34 331.72 283.57 335.54 C 280.30 340.64 279.43 346.78 277.62 352.46 C 277.00 357.72 276.76 363.31 278.76 368.33 C 280.53 373.30 281.66 378.70 285.22 382.80 C 290.19 390.31 296.79 396.63 304.14 401.79 C 307.79 404.28 311.90 405.95 315.60 408.33 C 318.18 410.14 321.50 409.67 324.40 410.56 C 330.14 412.12 336.03 413.06 341.93 413.73 C 347.19 413.05 352.26 411.24 356.95 408.78 C 356.88 406.35 356.76 403.79 355.12 401.83 C 351.09 396.26 347.13 390.59 342.22 385.75 C 336.82 378.67 330.87 371.78 327.41 363.49 C 325.13 356.54 328.27 349.47 331.09 343.20 C 333.99 335.30 337.79 327.14 336.59 318.51 C 334.24 315.86 331.89 312.87 328.56 311.44 C 325.11 310.84 321.65 311.76 318.29 312.44 M 602.85 326.87 C 596.40 330.53 591.46 336.11 586.42 341.41 C 582.27 347.03 579.45 353.49 577.09 360.03 C 573.32 368.14 572.01 377.11 571.37 385.95 C 571.80 391.59 573.81 396.96 574.69 402.53 C 576.64 406.04 578.07 409.78 579.61 413.47 C 582.77 418.36 585.78 424.25 591.60 426.34 C 596.07 428.33 600.28 432.34 605.52 431.44 C 609.20 430.72 613.41 431.08 616.47 428.51 C 619.98 425.15 618.93 419.79 618.40 415.48 C 615.75 409.56 614.31 403.21 611.60 397.33 C 609.01 390.17 607.46 382.64 606.81 375.08 C 609.82 362.22 616.79 350.83 621.43 338.58 C 621.97 336.02 622.35 333.43 622.63 330.84 C 623.01 327.47 620.67 324.68 618.75 322.19 C 613.08 321.90 607.33 323.29 602.85 326.87 M 249.58 330.57 C 239.59 335.63 230.73 343.40 225.49 353.41 C 223.79 357.12 223.11 361.25 220.90 364.74 C 219.81 368.29 220.72 372.17 219.88 375.80 C 218.55 381.22 220.88 386.57 221.19 391.97 C 221.30 397.27 225.30 401.11 227.52 405.59 C 230.47 411.08 235.47 414.92 239.92 419.11 C 242.25 421.37 245.53 422.10 248.27 423.71 C 255.94 427.93 264.79 429.30 273.44 429.23 C 281.56 428.82 289.95 426.65 296.18 421.20 C 299.34 418.78 297.64 414.08 295.21 411.75 C 290.62 407.36 286.37 402.52 281.05 398.97 C 276.55 396.19 273.88 391.46 269.69 388.32 C 266.61 384.93 263.47 381.24 261.97 376.86 C 260.89 365.91 262.64 355.00 263.47 344.10 C 262.70 339.91 262.47 334.93 259.14 331.86 C 256.29 330.32 252.71 329.65 249.58 330.57 M 709.26 330.23 C 708.32 331.65 707.33 333.04 706.49 334.52 C 705.36 342.43 706.61 350.56 710.47 357.60 C 713.85 363.31 717.01 369.45 722.49 373.48 C 727.37 376.98 732.11 380.75 737.52 383.45 C 741.46 385.72 746.13 385.79 750.33 387.39 C 753.89 387.18 757.44 387.38 761.01 387.67 C 773.59 386.94 787.01 382.19 794.38 371.40 C 799.17 365.97 799.94 357.87 797.82 351.15 C 790.16 349.08 782.07 349.51 774.45 351.54 C 766.28 352.89 757.52 354.84 749.53 351.61 C 743.54 349.90 739.25 345.20 734.41 341.59 C 729.99 337.18 724.47 334.15 719.42 330.56 C 716.08 329.88 712.64 330.30 709.26 330.23 M 649.50 334.54 C 645.58 338.26 641.01 341.32 637.46 345.42 C 634.08 350.88 630.09 356.21 628.77 362.63 C 625.13 373.94 623.23 386.28 626.15 397.98 C 627.85 404.54 629.81 411.35 634.64 416.37 C 638.27 422.63 644.19 427.01 650.24 430.73 C 656.52 434.72 664.53 434.44 671.43 432.39 C 673.69 431.01 675.74 429.29 677.87 427.71 C 677.84 425.24 677.98 422.75 677.62 420.30 C 675.23 414.34 670.64 409.59 668.30 403.60 C 664.17 396.15 659.99 388.53 658.76 379.98 C 658.44 376.58 659.26 373.24 659.70 369.90 C 660.55 363.07 664.22 356.98 665.01 350.14 C 665.63 345.32 667.27 340.29 665.52 335.52 C 664.47 333.88 663.02 332.52 661.49 331.34 C 657.25 330.43 653.20 332.79 649.50 334.54 M 682.45 343.37 C 680.94 344.52 679.53 345.88 678.61 347.55 C 675.93 353.41 673.82 359.62 673.23 366.06 C 673.04 371.28 674.06 376.44 674.60 381.61 C 677.07 389.95 681.25 397.65 686.36 404.68 C 690.78 409.99 696.44 414.11 702.51 417.31 C 707.67 418.82 712.49 421.88 718.02 421.76 C 720.70 421.74 723.34 422.32 726.01 422.55 C 732.14 422.11 738.21 420.45 743.65 417.57 C 748.97 414.87 752.78 409.19 752.72 403.16 C 752.33 399.31 748.07 398.49 745.41 396.62 C 741.65 393.49 736.41 394.17 732.21 391.90 C 723.95 389.28 715.92 385.42 709.58 379.40 C 705.31 374.25 703.93 367.49 701.47 361.42 C 698.30 354.95 695.73 347.67 689.48 343.46 C 687.17 343.03 684.77 343.04 682.45 343.37 M 179.43 365.52 C 175.21 366.28 172.83 370.19 169.85 372.87 C 166.36 375.80 166.20 380.65 164.80 384.68 C 162.94 390.05 165.95 395.24 166.67 400.50 C 170.29 410.28 175.42 419.74 182.84 427.17 C 188.41 433.13 195.72 436.92 202.26 441.64 C 208.48 445.82 215.60 448.24 222.18 451.75 C 226.26 453.95 231.01 454.08 235.33 455.60 C 238.88 457.01 242.77 456.66 246.46 457.46 C 253.04 458.75 259.51 455.99 265.42 453.42 C 266.42 451.99 268.58 450.43 267.57 448.51 C 265.80 446.27 263.82 444.21 261.77 442.24 C 256.10 437.68 249.01 435.29 243.41 430.63 C 239.79 428.20 235.98 426.07 232.21 423.88 C 226.58 421.09 222.31 416.30 216.97 413.05 C 209.22 406.89 208.02 396.48 203.87 388.07 C 201.57 383.84 201.41 378.63 198.09 374.92 C 193.76 369.38 186.83 364.17 179.43 365.52 M 154.14 419.85 C 150.17 420.42 146.78 423.33 144.78 426.71 C 142.99 429.77 139.94 432.71 140.63 436.58 C 141.03 439.30 140.34 442.00 140.42 444.72 C 142.77 452.20 146.09 459.63 151.75 465.22 C 157.86 471.85 164.28 478.86 173.02 481.91 C 175.18 482.51 176.77 484.16 178.66 485.26 C 184.16 487.19 189.63 489.25 195.30 490.67 C 202.46 494.29 210.73 493.06 218.22 495.47 C 223.05 494.77 227.86 496.26 232.68 495.51 C 237.83 493.94 243.12 492.84 248.24 491.16 C 250.78 489.92 253.62 488.42 254.67 485.60 C 255.59 483.11 254.04 480.44 252.13 478.90 C 246.02 475.05 238.75 473.97 232.30 470.88 C 224.70 468.96 217.36 466.14 210.19 462.96 C 205.10 461.25 200.15 459.08 195.33 456.72 C 191.30 453.41 187.48 449.63 184.96 445.01 C 183.89 443.11 183.00 441.09 181.60 439.41 C 177.61 434.95 175.75 428.86 171.08 424.96 C 169.06 423.57 166.84 422.49 164.72 421.27 C 161.56 419.32 157.68 419.82 154.14 419.85 M 140.19 486.20 C 137.40 489.50 135.76 494.05 136.73 498.35 C 137.74 502.99 138.07 508.01 141.15 511.87 C 143.46 517.26 148.29 520.84 151.36 525.74 C 153.26 528.84 156.85 530.13 159.43 532.56 C 166.60 538.66 175.37 542.30 183.91 546.03 C 187.53 547.50 191.04 549.57 195.05 549.70 C 199.48 550.02 203.80 551.11 208.20 551.65 C 213.63 552.25 218.76 549.69 224.15 549.64 C 229.00 549.96 233.55 547.71 237.90 545.85 C 243.18 542.31 249.30 539.39 252.75 533.79 C 256.38 529.06 258.07 522.96 257.87 517.04 C 258.10 514.12 255.72 512.04 253.81 510.21 C 248.37 506.13 241.28 507.42 234.96 507.25 C 231.59 507.14 228.49 508.62 225.27 509.34 C 219.43 510.84 213.22 510.54 207.53 512.68 C 203.98 514.19 200.53 511.71 197.06 511.15 C 183.75 508.03 173.13 498.95 161.24 492.78 C 155.19 488.29 147.85 485.23 140.19 486.20 M 631.41 495.56 C 628.29 496.01 624.72 498.46 625.19 501.99 C 624.90 507.09 629.69 510.03 632.18 513.86 C 634.51 517.25 638.50 520.98 636.68 525.48 C 634.26 533.82 627.21 539.76 623.51 547.50 C 622.21 550.47 624.81 554.16 628.07 553.80 C 636.27 553.23 644.36 551.12 651.87 547.78 C 657.74 543.84 662.85 538.84 667.49 533.53 C 671.36 529.02 672.22 522.89 672.60 517.18 C 671.56 511.38 667.32 506.74 663.09 502.93 C 653.92 496.71 642.33 494.43 631.41 495.56 M 575.88 498.97 C 572.96 499.03 570.99 501.39 569.31 503.48 C 568.88 506.96 570.13 510.44 571.46 513.61 C 574.08 519.75 580.43 523.45 582.09 530.10 C 580.62 536.85 577.31 542.98 574.07 549.02 C 570.78 554.24 567.10 559.93 567.28 566.34 C 570.84 566.63 574.50 568.21 578.03 567.00 C 581.14 565.94 584.62 566.11 587.51 564.43 C 590.69 562.63 594.37 561.66 597.12 559.15 C 600.43 556.13 604.24 553.62 607.05 550.08 C 609.61 546.81 611.43 543.07 613.38 539.43 C 615.94 534.40 616.05 528.66 616.61 523.17 C 615.23 517.44 612.42 511.96 608.14 507.86 C 599.24 500.67 587.35 496.14 575.88 498.97 M 686.41 499.44 C 684.35 500.30 682.78 501.93 681.12 503.36 C 682.10 508.34 683.17 513.53 686.41 517.60 C 688.17 520.33 690.88 523.28 690.15 526.78 C 686.85 532.92 682.82 538.99 676.96 542.98 C 673.42 545.58 669.98 549.01 669.97 553.73 C 672.03 555.43 674.64 556.03 677.24 556.29 C 684.78 555.63 692.53 556.03 699.84 553.72 C 703.35 552.24 706.73 550.41 710.42 549.35 C 713.80 547.18 716.40 544.03 719.31 541.30 C 722.12 538.72 723.17 534.97 724.46 531.53 C 726.15 525.37 723.18 519.25 719.62 514.39 C 715.91 510.45 712.20 506.05 706.96 504.16 C 700.14 502.41 693.62 499.08 686.41 499.44 M 525.39 502.34 C 522.08 504.78 518.59 508.46 519.23 512.93 C 520.40 522.62 526.54 530.76 528.93 540.09 C 527.98 547.02 525.90 553.99 521.73 559.69 C 518.29 563.97 516.90 569.39 514.14 574.07 C 512.87 576.88 509.98 580.30 512.81 583.14 C 515.50 586.99 520.17 585.06 523.96 584.74 C 532.55 583.90 539.40 578.10 545.98 573.05 C 549.01 569.72 552.06 566.35 554.59 562.62 C 559.30 554.26 563.01 544.93 562.70 535.18 C 561.25 524.11 555.50 513.32 546.32 506.79 C 542.75 505.50 539.39 503.66 535.71 502.74 C 532.28 502.48 528.82 501.94 525.39 502.34 M 469.45 507.44 C 465.52 510.17 462.53 514.89 463.25 519.84 C 464.55 530.60 473.00 538.61 475.24 549.06 C 475.83 555.45 473.26 561.51 471.71 567.59 C 468.18 576.02 464.50 584.49 462.54 593.46 C 462.05 595.85 461.88 598.55 463.40 600.63 C 465.35 602.21 467.82 601.01 470.03 600.95 C 472.56 600.52 475.48 601.33 477.67 599.66 C 480.70 597.71 484.30 596.56 486.70 593.72 C 491.12 588.80 496.86 584.85 499.63 578.66 C 505.01 570.01 507.98 560.05 508.75 549.92 C 509.53 544.23 506.30 539.12 506.40 533.46 C 503.56 527.37 500.76 520.90 495.68 516.31 C 488.96 509.52 478.90 506.13 469.45 507.44 M 737.61 517.16 C 738.35 523.88 742.39 529.58 744.40 535.92 C 739.84 543.90 731.52 548.25 725.07 554.44 C 725.31 556.32 724.53 559.35 727.18 559.74 C 733.19 561.66 739.67 560.43 745.89 560.66 C 755.66 558.37 766.65 555.47 772.37 546.40 C 776.12 541.97 775.05 535.61 773.42 530.53 C 769.99 524.85 765.20 519.66 758.96 517.10 C 754.49 515.23 750.04 512.52 745.00 513.14 C 742.07 512.95 738.28 513.81 737.61 517.16 M 418.12 522.05 C 416.74 526.51 415.75 531.42 417.07 536.04 C 418.85 545.11 421.96 553.89 423.27 563.04 C 422.41 574.87 416.62 585.64 410.97 595.83 C 407.84 603.74 401.70 610.81 402.01 619.75 C 403.27 620.59 404.41 621.90 406.07 621.78 C 410.56 621.80 415.15 622.22 419.59 621.52 C 424.41 619.28 428.86 616.27 433.11 613.09 C 439.94 607.34 443.95 599.18 448.72 591.82 C 451.66 584.11 456.22 576.59 455.79 568.05 C 455.50 560.17 456.78 552.09 454.51 544.42 C 453.10 535.56 447.80 527.69 441.08 521.93 C 436.82 519.05 431.85 517.23 426.83 516.24 C 422.86 515.44 420.19 519.29 418.12 522.05 M 327.49 524.48 C 322.59 526.03 319.30 530.29 316.00 533.97 C 313.57 541.04 311.80 548.40 311.10 555.87 C 310.06 561.77 309.59 568.09 306.32 573.27 C 299.69 582.56 290.58 589.64 282.21 597.25 C 273.97 602.75 264.94 607.82 259.15 616.12 C 256.76 619.43 258.91 624.03 262.36 625.57 C 267.65 628.13 273.53 630.74 279.54 629.48 C 282.81 628.76 286.21 628.94 289.49 628.27 C 296.13 625.67 303.14 623.92 309.36 620.32 C 315.65 617.30 320.63 612.29 326.14 608.13 C 333.27 600.48 341.22 592.89 344.72 582.77 C 350.86 570.34 352.69 555.52 348.71 542.15 C 345.79 535.65 341.28 529.63 334.98 526.06 C 332.90 524.30 330.11 523.78 327.49 524.48 M 373.87 525.91 C 368.85 529.50 367.03 536.04 367.26 541.96 C 367.49 549.03 366.77 556.16 368.00 563.17 C 368.60 568.86 368.82 574.82 366.16 580.07 C 361.46 590.18 355.70 599.92 348.40 608.40 C 343.39 615.46 337.30 622.63 337.01 631.75 C 340.15 633.79 343.47 635.80 347.17 636.58 C 356.30 636.43 364.79 632.26 372.06 627.03 C 378.96 620.27 386.65 613.70 390.68 604.70 C 397.33 595.05 400.09 583.32 401.79 571.89 C 402.93 567.56 403.03 563.03 402.26 558.63 C 401.48 554.84 402.24 550.81 400.70 547.19 C 398.59 541.92 397.09 536.14 393.13 531.88 C 390.80 529.87 388.45 527.87 385.90 526.15 C 382.29 524.30 377.23 522.77 373.87 525.91 M 787.58 529.55 C 789.47 534.65 790.30 540.08 792.43 545.10 C 790.50 548.53 787.01 550.55 784.38 553.37 C 780.37 557.80 774.84 560.29 769.88 563.44 C 771.16 570.46 779.71 569.70 785.10 570.60 C 791.14 569.63 797.38 571.47 803.25 569.14 C 806.43 567.63 809.68 566.24 812.92 564.84 C 818.31 561.49 822.41 555.61 822.55 549.13 C 821.90 545.82 821.20 542.42 819.50 539.48 C 815.20 534.07 809.79 529.63 803.78 526.28 C 799.96 524.75 795.71 525.34 791.76 524.37 C 788.96 523.73 786.50 526.98 787.58 529.55 M 280.46 530.55 C 275.05 531.77 271.63 536.24 267.43 539.45 C 259.91 546.28 253.60 554.56 244.92 560.02 C 242.12 561.22 239.13 562.00 236.09 562.29 C 228.59 563.04 221.36 566.53 213.71 565.49 C 209.11 564.79 204.63 566.51 200.03 566.25 C 195.53 566.12 190.89 565.94 186.66 567.77 C 182.99 568.79 178.08 571.28 179.17 575.88 C 180.45 583.77 187.42 589.24 194.06 592.80 C 199.75 594.37 204.87 597.96 210.93 598.01 C 215.70 598.74 220.54 598.76 225.30 599.55 C 238.50 600.62 251.88 598.09 264.06 593.01 C 269.00 589.94 274.54 587.74 279.07 584.08 C 283.03 578.40 289.77 575.28 293.01 569.04 C 297.70 561.91 298.63 553.22 299.44 544.94 C 298.37 540.69 297.77 535.80 294.19 532.82 C 290.72 529.01 285.01 530.04 280.46 530.55 M 832.44 544.31 C 830.72 545.29 829.77 547.05 830.13 549.04 C 829.80 552.56 832.72 555.39 832.45 558.88 C 831.05 560.97 829.22 562.72 827.52 564.54 C 824.23 567.02 820.12 568.35 817.24 571.38 C 817.05 572.59 816.86 574.11 818.41 574.50 C 827.58 577.64 837.73 576.88 846.81 573.76 C 850.47 572.07 853.88 569.32 855.65 565.62 C 856.41 560.94 855.78 555.32 851.66 552.33 C 846.06 548.22 839.97 542.82 832.44 544.31 M 865.44 563.37 C 862.67 565.66 863.82 569.57 862.80 572.58 C 861.18 574.68 859.73 577.45 856.86 577.94 C 853.08 578.69 849.62 581.11 845.66 580.70 C 843.61 580.32 842.41 582.41 840.92 583.41 C 846.69 588.52 854.69 589.12 862.01 589.84 C 868.67 589.86 875.10 587.76 881.11 585.05 C 884.75 582.83 885.84 577.69 883.93 573.99 C 881.95 569.17 877.01 566.71 872.65 564.43 C 870.47 563.13 867.88 562.95 865.44 563.37 M 889.40 585.27 C 887.13 586.75 886.50 589.46 886.05 591.95 C 885.65 594.30 884.02 596.17 882.89 598.20 C 880.92 598.26 878.95 598.34 876.99 598.34 C 872.57 598.55 868.11 596.06 863.88 598.34 C 864.77 603.26 868.97 606.45 872.84 609.12 C 876.15 611.25 879.31 613.97 883.38 614.44 C 887.22 614.88 891.07 615.55 894.95 615.66 C 899.96 613.34 902.42 607.03 901.16 601.78 C 900.37 596.48 897.34 591.90 894.26 587.67 C 893.20 586.10 891.37 584.77 889.40 585.27 M 909.42 618.25 C 906.03 620.79 905.10 625.85 900.88 627.33 C 895.99 627.71 892.10 624.23 887.98 622.19 C 885.41 622.42 886.27 625.82 886.36 627.61 C 889.76 632.80 890.80 640.09 896.97 642.97 C 901.09 645.96 906.77 648.55 911.61 645.57 C 915.21 643.44 915.91 639.17 916.34 635.37 C 917.47 631.22 915.19 627.29 914.60 623.26 C 914.08 620.84 912.43 617.32 909.42 618.25 M 895.82 657.80 C 889.23 664.66 889.16 674.69 887.61 683.50 C 886.96 686.23 887.96 688.93 888.45 691.61 C 888.88 691.82 889.75 692.23 890.18 692.44 C 898.14 689.98 906.96 687.19 911.88 679.94 C 914.36 675.98 917.80 672.37 918.52 667.58 C 919.51 661.74 914.96 655.59 908.91 655.29 C 904.54 655.43 899.11 654.08 895.82 657.80 M 844.98 705.31 C 845.35 714.06 854.85 721.26 863.32 718.31 C 866.41 717.07 865.78 712.94 865.64 710.26 C 865.49 705.92 861.24 702.66 857.04 703.27 C 853.00 703.68 848.18 702.09 844.98 705.31 M 908.06 714.23 C 907.78 718.67 910.22 722.66 913.43 725.52 C 916.80 728.34 921.37 728.73 925.59 728.92 C 926.63 726.43 928.01 723.99 928.34 721.27 C 927.18 718.47 926.12 715.28 923.59 713.43 C 918.43 713.10 913.05 712.55 908.06 714.23 M 911.44 756.43 C 910.12 757.43 909.03 758.68 907.91 759.87 C 909.64 762.51 911.32 765.22 913.40 767.63 C 915.63 769.66 918.61 770.63 921.45 771.51 C 924.85 772.64 928.60 770.03 929.53 766.73 C 929.58 762.68 928.23 758.55 924.54 756.43 C 920.18 756.12 915.77 755.98 911.44 756.43 M 877.51 767.55 C 875.36 768.16 875.24 770.57 875.19 772.42 C 879.50 774.85 881.30 780.13 886.02 781.95 C 888.38 783.32 891.10 782.12 893.52 781.57 C 896.10 780.34 896.05 777.10 896.62 774.70 C 897.15 772.02 896.17 768.60 893.29 767.77 C 888.33 765.28 882.64 766.25 877.51 767.55 M 927.33 791.71 C 924.52 792.16 920.99 791.68 919.24 794.43 C 918.50 801.08 924.78 805.33 929.94 808.01 C 933.05 809.88 936.14 807.34 938.54 805.51 C 941.17 802.24 939.18 797.72 937.54 794.45 C 934.41 792.82 930.85 791.79 927.33 791.71 M 878.87 831.19 C 879.12 838.39 885.39 842.89 891.25 845.77 C 893.33 846.23 894.97 844.57 896.59 843.55 C 899.24 841.67 898.77 837.95 898.81 835.11 C 899.02 831.06 894.39 829.12 890.98 829.26 C 886.90 829.73 882.45 828.67 878.87 831.19 Z" />
<path fill="#ffffff" opacity="1.00" d=" M 131.59 122.87 C 134.11 124.03 136.32 125.79 137.07 128.58 C 135.52 128.55 133.97 128.52 132.43 128.50 C 131.81 126.68 131.48 124.79 131.59 122.87 Z" />
<path fill="#ffffff" opacity="1.00" d=" M 158.45 125.50 C 159.79 125.46 161.13 125.42 162.48 125.37 C 162.28 127.10 161.96 128.82 161.63 130.53 C 160.57 130.54 159.52 130.55 158.47 130.57 C 158.49 128.88 158.48 127.19 158.45 125.50 Z" />
<path fill="#ffffff" opacity="1.00" d=" M 113.09 136.27 C 114.49 136.38 115.91 136.45 117.31 136.69 C 118.10 137.73 118.53 138.98 119.04 140.17 C 117.63 140.37 116.18 140.66 114.77 140.34 C 113.50 139.36 113.48 137.69 113.09 136.27 Z" />
<path fill="#ffffff" opacity="1.00" d=" M 177.32 142.44 C 179.00 140.90 180.68 139.35 182.41 137.85 C 182.93 140.89 182.02 143.78 180.38 146.32 C 179.75 146.41 178.49 146.57 177.86 146.65 C 177.65 145.25 177.49 143.85 177.32 142.44 Z" />
<path fill="#ffffff" opacity="1.00" d=" M 136.96 160.80 C 138.65 158.08 141.07 154.59 144.79 155.72 C 151.01 157.68 155.20 163.19 158.58 168.47 C 161.63 173.75 166.17 178.04 168.20 183.89 C 170.60 187.52 170.37 191.90 170.25 196.05 C 167.51 197.15 164.77 198.39 161.84 198.87 C 159.42 198.83 157.01 198.22 154.60 198.72 C 151.66 199.54 149.12 197.58 146.49 196.62 C 143.13 195.23 139.08 194.08 137.49 190.43 C 131.98 181.47 133.10 170.14 136.96 160.80 Z" />
<path fill="#ffffff" opacity="1.00" d=" M 104.51 159.52 C 105.86 159.49 107.21 159.46 108.57 159.44 C 108.58 160.81 108.59 162.18 108.60 163.56 C 107.21 163.54 105.82 163.53 104.43 163.53 C 104.46 162.19 104.49 160.85 104.51 159.52 Z" />
<path fill="#ffffff" opacity="1.00" d=" M 192.96 167.49 C 188.57 164.38 194.33 159.65 197.87 158.98 C 197.09 161.96 196.56 167.00 192.96 167.49 Z" />
<path fill="#ffffff" opacity="1.00" d=" M 100.79 185.79 C 102.76 183.60 105.61 182.92 108.36 182.28 C 108.43 183.98 108.50 185.67 108.58 187.37 C 105.85 189.16 103.26 186.93 100.79 185.79 Z" />
<path fill="#ffffff" opacity="1.00" d=" M 200.41 193.34 C 199.14 191.36 200.35 189.70 201.76 188.25 C 203.46 189.07 205.18 189.88 206.89 190.70 C 206.64 192.20 206.42 193.71 206.24 195.23 C 204.17 195.82 200.67 196.39 200.41 193.34 Z" />
<path fill="#ffffff" opacity="1.00" d=" M 113.51 208.97 C 114.20 208.49 115.59 207.53 116.29 207.05 C 117.47 208.23 118.71 209.44 118.87 211.20 C 117.38 212.65 115.30 212.53 113.40 212.77 C 113.42 211.82 113.48 209.92 113.51 208.97 Z" />
<path fill="#ffffff" opacity="1.00" d=" M 135.39 222.53 C 136.78 222.52 138.17 222.51 139.56 222.50 C 139.51 224.18 139.47 225.86 139.45 227.55 C 137.44 228.49 135.38 229.34 133.26 229.98 C 133.40 227.36 134.15 224.83 135.39 222.53 Z" />
<path fill="#ffffff" opacity="1.00" d=" M 159.86 226.54 C 160.84 226.54 162.79 226.54 163.77 226.54 C 163.59 230.11 161.59 234.37 157.33 233.70 C 157.51 231.11 158.58 228.76 159.86 226.54 Z" />
</g>
<g id="#9c1371ff">
<path fill="#9c1371" opacity="1.00" d=" M 598.65 67.62 C 606.23 65.00 614.42 67.51 621.49 70.55 C 627.63 75.69 634.74 80.97 636.79 89.16 C 641.62 99.29 637.51 110.94 631.67 119.72 C 625.20 127.51 615.35 132.86 605.11 132.77 C 602.80 133.20 601.64 130.62 601.27 128.78 C 600.31 120.16 605.68 112.68 609.85 105.65 C 611.80 100.38 608.36 95.37 606.40 90.67 C 603.37 85.32 599.78 80.25 597.50 74.50 C 596.49 72.15 597.71 69.76 598.65 67.62 Z" />
<path fill="#9c1371" opacity="1.00" d=" M 210.09 74.22 C 214.38 70.77 219.69 68.97 224.96 67.67 C 230.24 68.06 235.87 68.42 240.25 71.77 C 243.42 73.62 245.20 76.89 246.99 79.96 C 250.38 85.12 250.13 91.70 249.53 97.58 C 247.52 102.18 244.59 106.53 240.54 109.57 C 238.15 110.29 235.66 110.62 233.20 110.97 C 231.63 107.87 229.96 104.59 230.21 101.00 C 230.95 95.38 227.41 90.13 223.21 86.75 C 218.27 84.65 214.01 81.34 210.16 77.64 C 210.14 76.50 210.12 75.36 210.09 74.22 Z" />
<path fill="#9c1371" opacity="1.00" d=" M 548.07 74.14 C 551.97 72.64 555.79 70.48 560.01 70.16 C 566.52 70.62 573.03 72.19 578.84 75.25 C 584.18 78.64 590.04 82.08 592.90 88.01 C 595.52 93.45 597.10 99.59 596.58 105.64 C 594.92 110.96 594.13 116.91 590.14 121.12 C 586.28 125.03 582.39 130.00 576.43 130.30 C 573.49 131.33 570.56 128.70 570.36 125.80 C 570.06 119.84 569.97 113.84 570.63 107.90 C 570.18 104.93 568.88 102.12 567.73 99.37 C 563.94 94.15 558.88 89.96 553.52 86.43 C 550.88 84.31 548.83 81.56 546.14 79.49 C 546.39 77.63 545.64 74.80 548.07 74.14 Z" />
<path fill="#9c1371" opacity="1.00" d=" M 255.46 73.31 C 261.03 73.04 266.52 74.65 271.78 76.31 C 276.48 79.00 281.58 82.65 282.46 88.43 C 284.46 94.53 283.59 101.20 280.86 106.92 C 277.56 113.32 271.10 117.58 264.17 119.13 C 260.58 120.75 257.05 118.57 254.06 116.73 C 253.55 109.04 261.49 103.75 260.33 96.06 C 259.39 91.30 257.87 86.65 255.95 82.20 C 254.81 79.39 255.31 76.26 255.46 73.31 Z" />
<path fill="#9c1371" opacity="1.00" d=" M 650.40 83.39 C 655.78 82.35 661.44 83.80 665.56 87.41 C 668.65 91.31 672.16 94.90 674.86 99.11 C 678.75 105.59 678.15 113.48 678.27 120.75 C 676.11 132.11 667.28 141.48 656.65 145.58 C 651.81 146.28 647.13 148.28 642.16 147.60 C 637.85 146.84 633.15 146.07 630.10 142.62 C 629.47 134.56 636.47 129.51 642.10 125.14 C 646.18 121.96 650.91 117.75 650.32 112.05 C 650.60 106.53 649.89 101.06 648.60 95.71 C 648.44 91.60 645.84 86.08 650.40 83.39 Z" />
<path fill="#9c1371" opacity="1.00" d=" M 192.18 87.23 C 195.03 87.26 197.91 87.09 200.75 87.43 C 206.64 88.62 211.62 92.30 217.42 93.71 C 223.23 95.52 224.09 102.35 225.46 107.40 C 225.86 111.84 226.79 117.03 223.76 120.79 C 222.22 123.19 220.15 125.16 218.15 127.16 C 209.48 135.86 200.68 144.43 192.14 153.26 C 190.96 155.02 188.73 154.37 186.95 154.45 C 189.49 148.91 187.95 142.25 190.92 136.79 C 193.41 132.58 195.15 127.80 194.75 122.85 C 195.97 122.68 197.19 122.51 198.41 122.34 C 198.43 120.68 198.45 119.01 198.46 117.35 C 193.58 116.45 191.27 121.15 187.89 123.58 C 182.82 127.26 177.75 130.97 172.98 135.03 C 172.00 136.06 170.48 135.76 169.31 135.33 C 170.06 132.15 170.06 128.70 171.97 125.92 C 174.35 122.14 175.80 117.88 178.06 114.03 C 182.92 105.18 186.83 95.79 192.18 87.23 Z" />
<path fill="#9c1371" opacity="1.00" d=" M 517.51 90.54 C 524.53 89.08 531.93 88.78 538.74 91.37 C 543.16 93.46 548.18 94.68 551.67 98.33 C 557.47 103.74 559.46 111.64 561.56 118.99 C 560.61 122.59 559.50 126.16 558.67 129.80 C 556.50 138.68 548.05 145.10 539.10 145.86 C 537.38 144.18 535.64 142.25 535.35 139.77 C 534.85 133.25 535.64 126.67 535.09 120.15 C 533.44 116.33 530.22 113.56 527.75 110.30 C 525.49 107.08 521.55 105.87 518.72 103.29 C 515.89 101.21 513.34 98.81 511.07 96.13 C 513.31 94.37 515.22 92.23 517.51 90.54 Z" />
<path fill="#9c1371" opacity="1.00" d=" M 290.45 95.40 C 291.29 93.12 293.18 91.50 294.82 89.79 C 300.72 94.59 307.43 99.18 310.46 106.45 C 312.05 110.31 311.60 114.52 311.40 118.57 C 309.59 124.68 304.64 128.97 300.04 133.04 C 292.67 137.78 283.51 135.72 275.73 133.27 C 275.15 131.49 274.54 129.72 273.91 127.96 C 277.85 122.49 284.79 120.04 288.17 114.10 C 292.00 108.57 289.38 101.58 290.45 95.40 Z" />
<path fill="#9c1371" opacity="1.00" d=" M 485.39 106.43 C 490.16 105.94 495.00 106.16 499.79 106.37 C 503.53 107.24 506.68 109.69 510.39 110.72 C 514.48 113.10 517.27 117.14 520.67 120.36 C 524.15 123.63 525.19 128.51 525.88 133.04 C 527.30 140.04 524.69 147.19 521.09 153.10 C 516.30 158.71 509.59 163.28 502.06 163.68 C 499.39 162.98 498.11 159.57 498.20 156.98 C 497.64 150.23 500.68 143.78 500.29 137.08 C 498.55 131.68 494.34 127.52 490.70 123.30 C 486.62 119.91 482.27 116.34 480.39 111.20 C 481.29 108.98 483.14 107.24 485.39 106.43 Z" />
<path fill="#9c1371" opacity="1.00" d=" M 321.87 113.75 C 322.45 112.11 323.80 110.94 324.90 109.65 C 326.28 110.71 327.78 111.67 328.88 113.05 C 332.06 116.91 335.82 120.52 337.62 125.30 C 339.39 129.19 340.29 133.49 340.35 137.75 C 339.51 143.88 334.66 148.37 330.97 152.99 C 327.63 155.09 324.28 158.24 320.05 157.82 C 315.52 157.62 310.94 158.14 306.46 157.49 C 303.20 155.88 300.08 153.97 297.22 151.73 C 297.26 150.26 297.27 148.79 297.25 147.33 C 301.94 142.55 308.72 140.97 313.75 136.73 C 318.54 129.97 319.38 121.45 321.87 113.75 Z" />
<path fill="#9c1371" opacity="1.00" d=" M 126.91 113.83 C 131.72 118.47 136.94 122.65 141.96 127.06 C 144.39 129.53 147.99 129.42 151.11 130.29 C 153.48 127.92 156.68 126.23 158.10 123.07 C 159.26 120.48 161.16 118.36 163.28 116.52 C 163.70 117.74 164.32 118.92 164.48 120.22 C 164.52 127.30 164.25 135.00 168.09 141.25 C 169.45 141.40 170.80 141.55 172.16 141.71 C 177.70 136.69 183.23 131.28 190.00 127.98 C 189.25 132.18 186.44 135.62 185.68 139.81 C 184.21 145.05 182.38 150.29 182.16 155.78 C 182.99 158.28 185.06 160.04 186.88 161.83 C 189.10 159.80 191.28 157.59 194.13 156.47 C 198.19 154.89 201.34 151.81 205.10 149.72 C 204.35 153.43 202.13 156.59 201.08 160.21 C 199.16 166.06 194.97 170.93 193.66 177.02 C 195.17 180.86 196.50 186.12 201.13 187.17 C 205.46 187.91 209.96 186.74 214.22 187.75 C 214.45 188.05 214.91 188.66 215.14 188.96 C 213.20 191.40 210.98 193.77 208.09 195.07 C 205.11 196.28 204.31 199.96 201.45 201.35 C 200.24 202.14 198.51 202.48 197.94 203.97 C 195.35 210.37 191.12 216.13 189.92 223.06 C 189.29 227.28 186.39 230.71 185.77 234.93 C 185.65 236.78 184.22 238.03 183.08 239.32 C 182.33 236.71 181.89 234.03 181.31 231.38 C 184.80 229.15 187.35 225.49 186.59 221.18 C 184.27 221.29 182.37 222.42 180.90 224.17 C 181.20 226.24 181.39 228.35 181.13 230.44 C 179.93 228.23 178.95 225.91 177.96 223.60 C 175.77 223.69 173.50 223.47 171.38 224.13 C 168.66 226.18 166.28 228.79 164.88 231.92 C 162.80 236.56 159.66 240.62 156.22 244.31 C 157.02 238.51 154.24 232.76 156.27 227.08 C 154.14 225.35 151.40 223.40 148.52 224.41 C 140.68 226.37 136.47 234.42 129.13 237.28 C 129.23 231.71 130.85 226.34 131.91 220.92 C 131.82 217.72 128.47 216.32 126.26 214.65 C 124.81 213.46 122.84 213.67 121.10 213.81 C 115.23 214.79 109.74 217.46 103.78 218.01 C 105.86 211.76 113.00 208.56 114.41 201.97 C 113.53 197.05 110.40 192.16 105.49 190.40 C 100.91 187.52 94.66 188.62 90.86 184.41 C 96.29 182.23 102.49 181.85 107.35 178.38 C 109.66 176.72 109.67 173.54 109.38 171.00 C 108.51 168.77 107.11 166.80 105.91 164.75 C 102.34 164.65 98.76 163.94 95.19 164.50 C 94.44 163.72 93.68 162.94 92.93 162.17 C 98.51 158.38 105.95 158.55 111.27 154.25 C 112.71 151.88 114.05 149.42 115.19 146.88 C 114.96 138.93 104.15 138.34 102.34 131.22 C 108.69 133.54 115.51 134.12 122.21 134.53 C 125.55 134.77 127.74 131.81 129.92 129.75 C 129.91 124.22 124.44 119.43 126.91 113.83 M 131.59 122.87 C 131.48 124.79 131.81 126.68 132.43 128.50 C 133.97 128.52 135.52 128.55 137.07 128.58 C 136.32 125.79 134.11 124.03 131.59 122.87 M 158.45 125.50 C 158.48 127.19 158.49 128.88 158.47 130.57 C 159.52 130.55 160.57 130.54 161.63 130.53 C 161.96 128.82 162.28 127.10 162.48 125.37 C 161.13 125.42 159.79 125.46 158.45 125.50 M 113.09 136.27 C 113.48 137.69 113.50 139.36 114.77 140.34 C 116.18 140.66 117.63 140.37 119.04 140.17 C 118.53 138.98 118.10 137.73 117.31 136.69 C 115.91 136.45 114.49 136.38 113.09 136.27 M 177.32 142.44 C 177.49 143.85 177.65 145.25 177.86 146.65 C 178.49 146.57 179.75 146.41 180.38 146.32 C 182.02 143.78 182.93 140.89 182.41 137.85 C 180.68 139.35 179.00 140.90 177.32 142.44 M 136.96 160.80 C 133.10 170.14 131.98 181.47 137.49 190.43 C 139.08 194.08 143.13 195.23 146.49 196.62 C 149.12 197.58 151.66 199.54 154.60 198.72 C 157.01 198.22 159.42 198.83 161.84 198.87 C 164.77 198.39 167.51 197.15 170.25 196.05 C 170.37 191.90 170.60 187.52 168.20 183.89 C 166.17 178.04 161.63 173.75 158.58 168.47 C 155.20 163.19 151.01 157.68 144.79 155.72 C 141.07 154.59 138.65 158.08 136.96 160.80 M 104.51 159.52 C 104.49 160.85 104.46 162.19 104.43 163.53 C 105.82 163.53 107.21 163.54 108.60 163.56 C 108.59 162.18 108.58 160.81 108.57 159.44 C 107.21 159.46 105.86 159.49 104.51 159.52 M 192.96 167.49 C 196.56 167.00 197.09 161.96 197.87 158.98 C 194.33 159.65 188.57 164.38 192.96 167.49 M 100.79 185.79 C 103.26 186.93 105.85 189.16 108.58 187.37 C 108.50 185.67 108.43 183.98 108.36 182.28 C 105.61 182.92 102.76 183.60 100.79 185.79 M 200.41 193.34 C 200.67 196.39 204.17 195.82 206.24 195.23 C 206.42 193.71 206.64 192.20 206.89 190.70 C 205.18 189.88 203.46 189.07 201.76 188.25 C 200.35 189.70 199.14 191.36 200.41 193.34 M 113.51 208.97 C 113.48 209.92 113.42 211.82 113.40 212.77 C 115.30 212.53 117.38 212.65 118.87 211.20 C 118.71 209.44 117.47 208.23 116.29 207.05 C 115.59 207.53 114.20 208.49 113.51 208.97 M 135.39 222.53 C 134.15 224.83 133.40 227.36 133.26 229.98 C 135.38 229.34 137.44 228.49 139.45 227.55 C 139.47 225.86 139.51 224.18 139.56 222.50 C 138.17 222.51 136.78 222.52 135.39 222.53 M 159.86 226.54 C 158.58 228.76 157.51 231.11 157.33 233.70 C 161.59 234.37 163.59 230.11 163.77 226.54 C 162.79 226.54 160.84 226.54 159.86 226.54 Z" />
<path fill="#9c1371" opacity="1.00" d=" M 350.16 118.00 C 351.89 118.14 353.69 118.04 355.38 118.56 C 359.59 121.38 363.80 124.23 368.06 126.98 C 372.46 131.20 374.76 137.14 375.71 143.07 C 375.12 153.56 369.83 164.19 360.22 169.13 C 353.35 171.80 345.82 172.34 338.55 171.38 C 337.05 170.59 335.66 169.61 334.25 168.69 C 334.15 165.46 333.81 161.85 336.59 159.56 C 340.60 156.21 344.20 152.42 347.73 148.58 C 349.33 145.29 348.99 141.65 348.54 138.15 C 349.25 134.34 349.41 130.44 348.44 126.65 C 347.65 123.62 349.01 120.73 350.16 118.00 Z" />
<path fill="#9c1371" opacity="1.00" d=" M 451.04 122.28 C 453.26 120.53 455.97 119.08 458.89 119.31 C 466.07 120.71 473.46 122.89 478.83 128.11 C 480.94 130.69 482.90 133.39 485.06 135.94 C 492.03 145.92 491.19 160.17 483.59 169.57 C 477.46 174.96 469.82 179.50 461.45 179.49 C 459.65 178.47 457.62 177.22 457.30 174.98 C 456.48 167.72 461.31 161.59 463.28 154.94 C 464.30 147.79 461.16 140.76 456.76 135.30 C 454.30 131.25 450.87 127.30 451.04 122.28 Z" />
<path fill="#9c1371" opacity="1.00" d=" M 417.39 120.17 C 422.51 119.69 427.36 121.39 432.14 122.94 C 438.45 128.16 445.57 133.40 448.63 141.29 C 451.41 147.93 451.21 155.46 449.16 162.27 C 446.88 166.98 444.39 172.03 439.44 174.40 C 434.13 179.39 426.42 180.34 419.45 179.56 C 417.45 178.25 415.82 176.27 415.24 173.92 C 416.90 166.15 422.64 160.17 424.88 152.63 C 425.29 151.51 425.35 150.38 425.07 149.22 C 423.65 141.94 419.49 135.64 415.71 129.40 C 414.94 127.15 415.28 124.72 415.17 122.39 C 415.91 121.65 416.65 120.91 417.39 120.17 Z" />
<path fill="#9c1371" opacity="1.00" d=" M 376.97 123.31 C 384.78 120.46 394.07 123.34 399.65 129.34 C 403.66 133.73 408.51 137.93 409.88 144.00 C 410.66 147.52 412.14 151.05 411.66 154.71 C 410.73 158.71 409.09 162.53 407.08 166.09 C 404.72 169.08 401.53 171.25 398.49 173.47 C 393.06 177.11 386.22 176.90 379.96 176.77 C 376.25 177.25 373.37 172.81 374.48 169.47 C 376.05 164.78 380.37 161.88 382.78 157.69 C 384.22 154.99 386.81 152.41 386.29 149.12 C 383.61 140.37 378.49 132.41 376.97 123.31 Z" />
<path fill="#9c1371" opacity="1.00" d=" M 678.37 147.35 C 683.56 140.20 686.76 131.43 693.95 125.87 C 696.88 127.84 700.33 129.66 701.83 133.05 C 703.23 136.08 704.77 139.10 705.44 142.39 C 706.98 153.49 704.36 165.41 697.14 174.14 C 694.54 176.89 691.49 179.17 688.47 181.43 C 683.21 183.70 677.62 185.27 671.91 185.78 C 661.25 185.57 650.39 181.88 642.76 174.20 C 639.73 171.81 637.13 168.31 637.55 164.28 C 638.26 162.61 638.85 160.48 640.74 159.78 C 644.83 157.60 649.56 158.29 654.01 158.19 C 657.97 158.26 661.90 157.64 665.80 156.99 C 671.18 155.73 674.65 151.06 678.37 147.35 Z" />
<path fill="#9c1371" opacity="1.00" d=" M 717.51 165.34 C 720.95 164.22 723.09 167.74 725.00 169.96 C 727.41 174.62 729.79 179.59 729.74 184.97 C 729.69 188.83 730.02 192.74 729.41 196.56 C 727.23 203.65 724.31 210.71 718.90 215.97 C 714.71 221.74 707.21 221.61 701.18 224.05 C 697.26 225.60 693.12 224.01 689.15 223.63 C 681.51 222.25 673.71 219.49 668.28 213.70 C 665.18 211.37 661.97 208.22 662.20 204.01 C 661.72 200.19 665.67 197.60 669.05 197.20 C 673.77 196.52 678.56 194.85 683.36 195.77 C 687.21 196.61 691.08 195.06 694.64 193.71 C 698.77 190.15 703.17 186.47 705.49 181.39 C 708.56 175.44 712.21 169.55 717.51 165.34 Z" />
<path fill="#9c1371" opacity="1.00" d=" M 747.42 180.30 C 751.67 179.54 755.70 181.55 759.08 183.94 C 765.75 189.45 771.00 197.18 772.04 205.91 C 772.63 209.55 774.25 213.07 773.69 216.83 C 772.63 223.61 770.49 230.26 767.25 236.32 C 765.34 239.96 761.60 241.98 758.61 244.60 C 756.12 246.45 753.85 248.82 750.78 249.68 C 745.86 251.10 741.00 253.60 735.74 252.97 C 729.57 252.32 722.98 253.90 717.30 250.69 C 712.88 249.68 708.95 247.24 706.36 243.48 C 705.64 240.40 707.11 237.35 708.94 234.96 C 713.64 231.91 718.57 229.18 723.64 226.79 C 728.04 225.18 732.45 223.10 735.88 219.84 C 739.31 215.54 740.62 210.02 741.88 204.78 C 742.70 199.54 744.20 194.38 744.29 189.04 C 744.51 185.97 745.16 182.55 747.42 180.30 Z" />
<path fill="#9c1371" opacity="1.00" d=" M 792.17 221.63 C 794.00 221.46 795.39 223.18 796.68 224.29 C 802.77 230.53 807.79 238.98 806.77 248.00 C 806.49 252.87 807.37 257.94 805.53 262.60 C 803.53 268.82 800.92 275.47 795.29 279.27 C 792.08 282.24 789.03 285.72 784.45 286.44 C 776.99 290.07 768.52 290.42 760.41 289.45 C 750.89 287.41 742.36 282.08 735.52 275.26 C 733.44 272.74 733.59 268.37 736.27 266.31 C 741.04 260.70 749.22 261.80 755.79 260.88 C 759.73 259.79 763.83 259.21 767.65 257.74 C 770.76 255.48 773.43 252.53 775.16 249.08 C 777.41 244.65 781.03 240.86 781.97 235.84 C 782.98 230.96 785.16 226.21 788.88 222.82 C 789.74 221.97 791.04 221.91 792.17 221.63 Z" />
<path fill="#9c1371" opacity="1.00" d=" M 528.83 279.87 C 531.16 278.85 533.64 279.83 536.02 280.10 C 540.44 280.41 543.73 283.69 546.94 286.38 C 546.37 289.70 546.13 293.30 544.09 296.11 C 541.76 299.36 539.17 302.48 535.95 304.90 C 531.40 308.33 527.91 312.91 523.48 316.47 C 519.44 319.59 517.41 324.42 514.33 328.35 C 511.76 331.64 510.95 335.85 509.62 339.72 C 508.12 344.14 509.14 348.88 508.24 353.39 C 506.27 362.40 506.32 371.69 504.60 380.74 C 503.82 384.56 501.26 388.07 497.62 389.62 C 494.03 389.99 489.94 390.40 486.86 388.12 C 482.69 385.48 478.19 382.66 476.10 377.98 C 472.96 371.37 471.06 364.17 470.26 356.91 C 470.29 350.94 472.05 345.12 472.40 339.16 C 473.76 329.26 478.57 320.22 484.00 311.97 C 488.79 306.76 492.93 300.94 498.09 296.06 C 503.62 290.26 510.95 286.82 517.79 282.86 C 521.25 281.14 525.26 281.29 528.83 279.87 Z" />
<path fill="#9c1371" opacity="1.00" d=" M 729.44 290.49 C 734.76 289.24 739.76 292.15 743.99 295.04 C 750.72 298.18 756.32 303.42 763.52 305.61 C 767.63 307.10 772.02 305.97 776.20 305.41 C 785.64 304.40 794.27 300.24 803.16 297.23 C 806.86 295.82 811.50 295.75 814.70 298.30 C 816.67 300.82 817.22 304.43 816.47 307.52 C 815.08 312.41 813.91 317.59 810.62 321.61 C 805.56 327.32 799.71 332.60 792.56 335.50 C 787.78 337.46 783.00 339.74 777.89 340.62 C 770.44 340.47 762.55 341.86 755.63 338.32 C 749.34 336.57 743.42 333.71 738.25 329.69 C 734.06 327.27 731.64 322.99 728.43 319.54 C 724.78 315.13 723.48 309.40 722.15 303.97 C 721.41 301.21 721.02 298.33 721.42 295.49 C 723.14 292.62 726.32 291.24 729.44 290.49 Z" />
<path fill="#9c1371" opacity="1.00" d=" M 447.48 291.59 C 454.42 290.97 461.61 293.63 467.03 297.97 C 469.99 300.59 470.34 304.78 469.40 308.41 C 465.20 316.15 460.18 323.43 456.26 331.32 C 451.79 338.76 452.61 347.97 454.98 355.95 C 456.88 360.25 457.95 364.85 459.73 369.20 C 463.01 376.85 464.67 385.06 466.72 393.10 C 466.59 396.39 465.74 401.14 461.86 401.84 C 448.77 400.27 437.24 391.86 430.05 381.05 C 421.48 371.05 418.83 357.76 414.64 345.62 C 414.72 342.14 414.60 338.65 414.35 335.16 C 415.51 329.40 414.69 323.04 417.91 317.85 C 419.69 314.79 420.24 311.16 422.27 308.24 C 425.50 303.26 430.12 299.38 434.76 295.77 C 438.26 292.66 443.22 292.90 447.48 291.59 Z" />
<path fill="#9c1371" opacity="1.00" d=" M 374.45 302.53 C 379.56 301.88 384.79 302.29 389.95 302.23 C 393.64 301.99 395.50 306.03 395.84 309.12 C 395.37 322.49 386.45 334.38 387.77 347.96 C 390.56 359.91 399.60 368.76 406.60 378.37 C 410.80 382.74 414.21 387.87 416.49 393.50 C 417.69 396.69 415.96 400.46 412.95 401.91 C 408.26 404.38 402.81 403.60 397.75 404.52 C 393.78 405.28 390.41 402.69 386.74 401.75 C 383.12 400.72 379.91 398.67 376.37 397.44 C 373.42 396.41 370.76 394.65 368.49 392.52 C 364.14 387.89 358.70 384.27 355.23 378.85 C 353.65 376.16 351.45 373.88 350.09 371.07 C 346.26 362.45 344.14 352.97 344.72 343.54 C 346.50 336.61 347.30 329.26 351.04 323.01 C 355.36 317.44 359.11 311.17 365.09 307.17 C 368.13 305.47 371.23 303.85 374.45 302.53 Z" />
<path fill="#9c1371" opacity="1.00" d=" M 540.37 325.37 C 548.29 316.56 559.81 310.81 571.68 310.49 C 574.56 310.76 576.93 312.33 578.88 314.39 C 578.64 317.51 578.22 320.61 577.60 323.68 C 573.67 332.80 567.51 340.71 561.59 348.62 C 556.81 355.43 553.18 363.50 553.83 372.01 C 554.78 379.06 555.02 386.20 556.68 393.15 C 558.37 399.56 557.54 406.21 557.89 412.75 C 555.36 415.13 552.32 416.97 548.91 417.72 C 544.50 417.04 540.15 415.71 536.11 413.81 C 529.01 410.03 524.20 402.86 521.68 395.38 C 520.77 392.89 519.26 390.62 518.72 388.02 C 518.19 380.73 517.98 373.40 518.34 366.11 C 519.45 360.83 520.87 355.60 522.62 350.49 C 523.91 346.74 526.70 343.79 528.26 340.17 C 530.79 334.17 535.94 329.93 540.37 325.37 Z" />
<path fill="#9c1371" opacity="1.00" d=" M 318.29 312.44 C 321.65 311.76 325.11 310.84 328.56 311.44 C 331.89 312.87 334.24 315.86 336.59 318.51 C 337.79 327.14 333.99 335.30 331.09 343.20 C 328.27 349.47 325.13 356.54 327.41 363.49 C 330.87 371.78 336.82 378.67 342.22 385.75 C 347.13 390.59 351.09 396.26 355.12 401.83 C 356.76 403.79 356.88 406.35 356.95 408.78 C 352.26 411.24 347.19 413.05 341.93 413.73 C 336.03 413.06 330.14 412.12 324.40 410.56 C 321.50 409.67 318.18 410.14 315.60 408.33 C 311.90 405.95 307.79 404.28 304.14 401.79 C 296.79 396.63 290.19 390.31 285.22 382.80 C 281.66 378.70 280.53 373.30 278.76 368.33 C 276.76 363.31 277.00 357.72 277.62 352.46 C 279.43 346.78 280.30 340.64 283.57 335.54 C 286.34 331.72 288.45 327.25 292.49 324.54 C 296.38 322.05 299.71 318.59 304.25 317.28 C 308.62 314.85 313.48 313.64 318.29 312.44 Z" />
<path fill="#9c1371" opacity="1.00" d=" M 602.85 326.87 C 607.33 323.29 613.08 321.90 618.75 322.19 C 620.67 324.68 623.01 327.47 622.63 330.84 C 622.35 333.43 621.97 336.02 621.43 338.58 C 616.79 350.83 609.82 362.22 606.81 375.08 C 607.46 382.64 609.01 390.17 611.60 397.33 C 614.31 403.21 615.75 409.56 618.40 415.48 C 618.93 419.79 619.98 425.15 616.47 428.51 C 613.41 431.08 609.20 430.72 605.52 431.44 C 600.28 432.34 596.07 428.33 591.60 426.34 C 585.78 424.25 582.77 418.36 579.61 413.47 C 578.07 409.78 576.64 406.04 574.69 402.53 C 573.81 396.96 571.80 391.59 571.37 385.95 C 572.01 377.11 573.32 368.14 577.09 360.03 C 579.45 353.49 582.27 347.03 586.42 341.41 C 591.46 336.11 596.40 330.53 602.85 326.87 Z" />
<path fill="#9c1371" opacity="1.00" d=" M 249.58 330.57 C 252.71 329.65 256.29 330.32 259.14 331.86 C 262.47 334.93 262.70 339.91 263.47 344.10 C 262.64 355.00 260.89 365.91 261.97 376.86 C 263.47 381.24 266.61 384.93 269.69 388.32 C 273.88 391.46 276.55 396.19 281.05 398.97 C 286.37 402.52 290.62 407.36 295.21 411.75 C 297.64 414.08 299.34 418.78 296.18 421.20 C 289.95 426.65 281.56 428.82 273.44 429.23 C 264.79 429.30 255.94 427.93 248.27 423.71 C 245.53 422.10 242.25 421.37 239.92 419.11 C 235.47 414.92 230.47 411.08 227.52 405.59 C 225.30 401.11 221.30 397.27 221.19 391.97 C 220.88 386.57 218.55 381.22 219.88 375.80 C 220.72 372.17 219.81 368.29 220.90 364.74 C 223.11 361.25 223.79 357.12 225.49 353.41 C 230.73 343.40 239.59 335.63 249.58 330.57 Z" />
<path fill="#9c1371" opacity="1.00" d=" M 709.26 330.23 C 712.64 330.30 716.08 329.88 719.42 330.56 C 724.47 334.15 729.99 337.18 734.41 341.59 C 739.25 345.20 743.54 349.90 749.53 351.61 C 757.52 354.84 766.28 352.89 774.45 351.54 C 782.07 349.51 790.16 349.08 797.82 351.15 C 799.94 357.87 799.17 365.97 794.38 371.40 C 787.01 382.19 773.59 386.94 761.01 387.67 C 757.44 387.38 753.89 387.18 750.33 387.39 C 746.13 385.79 741.46 385.72 737.52 383.45 C 732.11 380.75 727.37 376.98 722.49 373.48 C 717.01 369.45 713.85 363.31 710.47 357.60 C 706.61 350.56 705.36 342.43 706.49 334.52 C 707.33 333.04 708.32 331.65 709.26 330.23 Z" />
<path fill="#9c1371" opacity="1.00" d=" M 649.50 334.54 C 653.20 332.79 657.25 330.43 661.49 331.34 C 663.02 332.52 664.47 333.88 665.52 335.52 C 667.27 340.29 665.63 345.32 665.01 350.14 C 664.22 356.98 660.55 363.07 659.70 369.90 C 659.26 373.24 658.44 376.58 658.76 379.98 C 659.99 388.53 664.17 396.15 668.30 403.60 C 670.64 409.59 675.23 414.34 677.62 420.30 C 677.98 422.75 677.84 425.24 677.87 427.71 C 675.74 429.29 673.69 431.01 671.43 432.39 C 664.53 434.44 656.52 434.72 650.24 430.73 C 644.19 427.01 638.27 422.63 634.64 416.37 C 629.81 411.35 627.85 404.54 626.15 397.98 C 623.23 386.28 625.13 373.94 628.77 362.63 C 630.09 356.21 634.08 350.88 637.46 345.42 C 641.01 341.32 645.58 338.26 649.50 334.54 Z" />
<path fill="#9c1371" opacity="1.00" d=" M 682.45 343.37 C 684.77 343.04 687.17 343.03 689.48 343.46 C 695.73 347.67 698.30 354.95 701.47 361.42 C 703.93 367.49 705.31 374.25 709.58 379.40 C 715.92 385.42 723.95 389.28 732.21 391.90 C 736.41 394.17 741.65 393.49 745.41 396.62 C 748.07 398.49 752.33 399.31 752.72 403.16 C 752.78 409.19 748.97 414.87 743.65 417.57 C 738.21 420.45 732.14 422.11 726.01 422.55 C 723.34 422.32 720.70 421.74 718.02 421.76 C 712.49 421.88 707.67 418.82 702.51 417.31 C 696.44 414.11 690.78 409.99 686.36 404.68 C 681.25 397.65 677.07 389.95 674.60 381.61 C 674.06 376.44 673.04 371.28 673.23 366.06 C 673.82 359.62 675.93 353.41 678.61 347.55 C 679.53 345.88 680.94 344.52 682.45 343.37 Z" />
<path fill="#9c1371" opacity="1.00" d=" M 179.43 365.52 C 186.83 364.17 193.76 369.38 198.09 374.92 C 201.41 378.63 201.57 383.84 203.87 388.07 C 208.02 396.48 209.22 406.89 216.97 413.05 C 222.31 416.30 226.58 421.09 232.21 423.88 C 235.98 426.07 239.79 428.20 243.41 430.63 C 249.01 435.29 256.10 437.68 261.77 442.24 C 263.82 444.21 265.80 446.27 267.57 448.51 C 268.58 450.43 266.42 451.99 265.42 453.42 C 259.51 455.99 253.04 458.75 246.46 457.46 C 242.77 456.66 238.88 457.01 235.33 455.60 C 231.01 454.08 226.26 453.95 222.18 451.75 C 215.60 448.24 208.48 445.82 202.26 441.64 C 195.72 436.92 188.41 433.13 182.84 427.17 C 175.42 419.74 170.29 410.28 166.67 400.50 C 165.95 395.24 162.94 390.05 164.80 384.68 C 166.20 380.65 166.36 375.80 169.85 372.87 C 172.83 370.19 175.21 366.28 179.43 365.52 Z" />
<path fill="#9c1371" opacity="1.00" d=" M 154.14 419.85 C 157.68 419.82 161.56 419.32 164.72 421.27 C 166.84 422.49 169.06 423.57 171.08 424.96 C 175.75 428.86 177.61 434.95 181.60 439.41 C 183.00 441.09 183.89 443.11 184.96 445.01 C 187.48 449.63 191.30 453.41 195.33 456.72 C 200.15 459.08 205.10 461.25 210.19 462.96 C 217.36 466.14 224.70 468.96 232.30 470.88 C 238.75 473.97 246.02 475.05 252.13 478.90 C 254.04 480.44 255.59 483.11 254.67 485.60 C 253.62 488.42 250.78 489.92 248.24 491.16 C 243.12 492.84 237.83 493.94 232.68 495.51 C 227.86 496.26 223.05 494.77 218.22 495.47 C 210.73 493.06 202.46 494.29 195.30 490.67 C 189.63 489.25 184.16 487.19 178.66 485.26 C 176.77 484.16 175.18 482.51 173.02 481.91 C 164.28 478.86 157.86 471.85 151.75 465.22 C 146.09 459.63 142.77 452.20 140.42 444.72 C 140.34 442.00 141.03 439.30 140.63 436.58 C 139.94 432.71 142.99 429.77 144.78 426.71 C 146.78 423.33 150.17 420.42 154.14 419.85 Z" />
<path fill="#9c1371" opacity="1.00" d=" M 140.19 486.20 C 147.85 485.23 155.19 488.29 161.24 492.78 C 173.13 498.95 183.75 508.03 197.06 511.15 C 200.53 511.71 203.98 514.19 207.53 512.68 C 213.22 510.54 219.43 510.84 225.27 509.34 C 228.49 508.62 231.59 507.14 234.96 507.25 C 241.28 507.42 248.37 506.13 253.81 510.21 C 255.72 512.04 258.10 514.12 257.87 517.04 C 258.07 522.96 256.38 529.06 252.75 533.79 C 249.30 539.39 243.18 542.31 237.90 545.85 C 233.55 547.71 229.00 549.96 224.15 549.64 C 218.76 549.69 213.63 552.25 208.20 551.65 C 203.80 551.11 199.48 550.02 195.05 549.70 C 191.04 549.57 187.53 547.50 183.91 546.03 C 175.37 542.30 166.60 538.66 159.43 532.56 C 156.85 530.13 153.26 528.84 151.36 525.74 C 148.29 520.84 143.46 517.26 141.15 511.87 C 138.07 508.01 137.74 502.99 136.73 498.35 C 135.76 494.05 137.40 489.50 140.19 486.20 Z" />
<path fill="#9c1371" opacity="1.00" d=" M 631.41 495.56 C 642.33 494.43 653.92 496.71 663.09 502.93 C 667.32 506.74 671.56 511.38 672.60 517.18 C 672.22 522.89 671.36 529.02 667.49 533.53 C 662.85 538.84 657.74 543.84 651.87 547.78 C 644.36 551.12 636.27 553.23 628.07 553.80 C 624.81 554.16 622.21 550.47 623.51 547.50 C 627.21 539.76 634.26 533.82 636.68 525.48 C 638.50 520.98 634.51 517.25 632.18 513.86 C 629.69 510.03 624.90 507.09 625.19 501.99 C 624.72 498.46 628.29 496.01 631.41 495.56 Z" />
<path fill="#9c1371" opacity="1.00" d=" M 575.88 498.97 C 587.35 496.14 599.24 500.67 608.14 507.86 C 612.42 511.96 615.23 517.44 616.61 523.17 C 616.05 528.66 615.94 534.40 613.38 539.43 C 611.43 543.07 609.61 546.81 607.05 550.08 C 604.24 553.62 600.43 556.13 597.12 559.15 C 594.37 561.66 590.69 562.63 587.51 564.43 C 584.62 566.11 581.14 565.94 578.03 567.00 C 574.50 568.21 570.84 566.63 567.28 566.34 C 567.10 559.93 570.78 554.24 574.07 549.02 C 577.31 542.98 580.62 536.85 582.09 530.10 C 580.43 523.45 574.08 519.75 571.46 513.61 C 570.13 510.44 568.88 506.96 569.31 503.48 C 570.99 501.39 572.96 499.03 575.88 498.97 Z" />
<path fill="#9c1371" opacity="1.00" d=" M 686.41 499.44 C 693.62 499.08 700.14 502.41 706.96 504.16 C 712.20 506.05 715.91 510.45 719.62 514.39 C 723.18 519.25 726.15 525.37 724.46 531.53 C 723.17 534.97 722.12 538.72 719.31 541.30 C 716.40 544.03 713.80 547.18 710.42 549.35 C 706.73 550.41 703.35 552.24 699.84 553.72 C 692.53 556.03 684.78 555.63 677.24 556.29 C 674.64 556.03 672.03 555.43 669.97 553.73 C 669.98 549.01 673.42 545.58 676.96 542.98 C 682.82 538.99 686.85 532.92 690.15 526.78 C 690.88 523.28 688.17 520.33 686.41 517.60 C 683.17 513.53 682.10 508.34 681.12 503.36 C 682.78 501.93 684.35 500.30 686.41 499.44 Z" />
<path fill="#9c1371" opacity="1.00" d=" M 525.39 502.34 C 528.82 501.94 532.28 502.48 535.71 502.74 C 539.39 503.66 542.75 505.50 546.32 506.79 C 555.50 513.32 561.25 524.11 562.70 535.18 C 563.01 544.93 559.30 554.26 554.59 562.62 C 552.06 566.35 549.01 569.72 545.98 573.05 C 539.40 578.10 532.55 583.90 523.96 584.74 C 520.17 585.06 515.50 586.99 512.81 583.14 C 509.98 580.30 512.87 576.88 514.14 574.07 C 516.90 569.39 518.29 563.97 521.73 559.69 C 525.90 553.99 527.98 547.02 528.93 540.09 C 526.54 530.76 520.40 522.62 519.23 512.93 C 518.59 508.46 522.08 504.78 525.39 502.34 Z" />
<path fill="#9c1371" opacity="1.00" d=" M 469.45 507.44 C 478.90 506.13 488.96 509.52 495.68 516.31 C 500.76 520.90 503.56 527.37 506.40 533.46 C 506.30 539.12 509.53 544.23 508.75 549.92 C 507.98 560.05 505.01 570.01 499.63 578.66 C 496.86 584.85 491.12 588.80 486.70 593.72 C 484.30 596.56 480.70 597.71 477.67 599.66 C 475.48 601.33 472.56 600.52 470.03 600.95 C 467.82 601.01 465.35 602.21 463.40 600.63 C 461.88 598.55 462.05 595.85 462.54 593.46 C 464.50 584.49 468.18 576.02 471.71 567.59 C 473.26 561.51 475.83 555.45 475.24 549.06 C 473.00 538.61 464.55 530.60 463.25 519.84 C 462.53 514.89 465.52 510.17 469.45 507.44 Z" />
<path fill="#9c1371" opacity="1.00" d=" M 737.61 517.16 C 738.28 513.81 742.07 512.95 745.00 513.14 C 750.04 512.52 754.49 515.23 758.96 517.10 C 765.20 519.66 769.99 524.85 773.42 530.53 C 775.05 535.61 776.12 541.97 772.37 546.40 C 766.65 555.47 755.66 558.37 745.89 560.66 C 739.67 560.43 733.19 561.66 727.18 559.74 C 724.53 559.35 725.31 556.32 725.07 554.44 C 731.52 548.25 739.84 543.90 744.40 535.92 C 742.39 529.58 738.35 523.88 737.61 517.16 Z" />
<path fill="#9c1371" opacity="1.00" d=" M 418.12 522.05 C 420.19 519.29 422.86 515.44 426.83 516.24 C 431.85 517.23 436.82 519.05 441.08 521.93 C 447.80 527.69 453.10 535.56 454.51 544.42 C 456.78 552.09 455.50 560.17 455.79 568.05 C 456.22 576.59 451.66 584.11 448.72 591.82 C 443.95 599.18 439.94 607.34 433.11 613.09 C 428.86 616.27 424.41 619.28 419.59 621.52 C 415.15 622.22 410.56 621.80 406.07 621.78 C 404.41 621.90 403.27 620.59 402.01 619.75 C 401.70 610.81 407.84 603.74 410.97 595.83 C 416.62 585.64 422.41 574.87 423.27 563.04 C 421.96 553.89 418.85 545.11 417.07 536.04 C 415.75 531.42 416.74 526.51 418.12 522.05 Z" />
<path fill="#9c1371" opacity="1.00" d=" M 327.49 524.48 C 330.11 523.78 332.90 524.30 334.98 526.06 C 341.28 529.63 345.79 535.65 348.71 542.15 C 352.69 555.52 350.86 570.34 344.72 582.77 C 341.22 592.89 333.27 600.48 326.14 608.13 C 320.63 612.29 315.65 617.30 309.36 620.32 C 303.14 623.92 296.13 625.67 289.49 628.27 C 286.21 628.94 282.81 628.76 279.54 629.48 C 273.53 630.74 267.65 628.13 262.36 625.57 C 258.91 624.03 256.76 619.43 259.15 616.12 C 264.94 607.82 273.97 602.75 282.21 597.25 C 290.58 589.64 299.69 582.56 306.32 573.27 C 309.59 568.09 310.06 561.77 311.10 555.87 C 311.80 548.40 313.57 541.04 316.00 533.97 C 319.30 530.29 322.59 526.03 327.49 524.48 Z" />
<path fill="#9c1371" opacity="1.00" d=" M 373.87 525.91 C 377.23 522.77 382.29 524.30 385.90 526.15 C 388.45 527.87 390.80 529.87 393.13 531.88 C 397.09 536.14 398.59 541.92 400.70 547.19 C 402.24 550.81 401.48 554.84 402.26 558.63 C 403.03 563.03 402.93 567.56 401.79 571.89 C 400.09 583.32 397.33 595.05 390.68 604.70 C 386.65 613.70 378.96 620.27 372.06 627.03 C 364.79 632.26 356.30 636.43 347.17 636.58 C 343.47 635.80 340.15 633.79 337.01 631.75 C 337.30 622.63 343.39 615.46 348.40 608.40 C 355.70 599.92 361.46 590.18 366.16 580.07 C 368.82 574.82 368.60 568.86 368.00 563.17 C 366.77 556.16 367.49 549.03 367.26 541.96 C 367.03 536.04 368.85 529.50 373.87 525.91 Z" />
<path fill="#9c1371" opacity="1.00" d=" M 787.58 529.55 C 786.50 526.98 788.96 523.73 791.76 524.37 C 795.71 525.34 799.96 524.75 803.78 526.28 C 809.79 529.63 815.20 534.07 819.50 539.48 C 821.20 542.42 821.90 545.82 822.55 549.13 C 822.41 555.61 818.31 561.49 812.92 564.84 C 809.68 566.24 806.43 567.63 803.25 569.14 C 797.38 571.47 791.14 569.63 785.10 570.60 C 779.71 569.70 771.16 570.46 769.88 563.44 C 774.84 560.29 780.37 557.80 784.38 553.37 C 787.01 550.55 790.50 548.53 792.43 545.10 C 790.30 540.08 789.47 534.65 787.58 529.55 Z" />
<path fill="#9c1371" opacity="1.00" d=" M 280.46 530.55 C 285.01 530.04 290.72 529.01 294.19 532.82 C 297.77 535.80 298.37 540.69 299.44 544.94 C 298.63 553.22 297.70 561.91 293.01 569.04 C 289.77 575.28 283.03 578.40 279.07 584.08 C 274.54 587.74 269.00 589.94 264.06 593.01 C 251.88 598.09 238.50 600.62 225.30 599.55 C 220.54 598.76 215.70 598.74 210.93 598.01 C 204.87 597.96 199.75 594.37 194.06 592.80 C 187.42 589.24 180.45 583.77 179.17 575.88 C 178.08 571.28 182.99 568.79 186.66 567.77 C 190.89 565.94 195.53 566.12 200.03 566.25 C 204.63 566.51 209.11 564.79 213.71 565.49 C 221.36 566.53 228.59 563.04 236.09 562.29 C 239.13 562.00 242.12 561.22 244.92 560.02 C 253.60 554.56 259.91 546.28 267.43 539.45 C 271.63 536.24 275.05 531.77 280.46 530.55 Z" />
<path fill="#9c1371" opacity="1.00" d=" M 832.44 544.31 C 839.97 542.82 846.06 548.22 851.66 552.33 C 855.78 555.32 856.41 560.94 855.65 565.62 C 853.88 569.32 850.47 572.07 846.81 573.76 C 837.73 576.88 827.58 577.64 818.41 574.50 C 816.86 574.11 817.05 572.59 817.24 571.38 C 820.12 568.35 824.23 567.02 827.52 564.54 C 829.22 562.72 831.05 560.97 832.45 558.88 C 832.72 555.39 829.80 552.56 830.13 549.04 C 829.77 547.05 830.72 545.29 832.44 544.31 Z" />
<path fill="#9c1371" opacity="1.00" d=" M 865.44 563.37 C 867.88 562.95 870.47 563.13 872.65 564.43 C 877.01 566.71 881.95 569.17 883.93 573.99 C 885.84 577.69 884.75 582.83 881.11 585.05 C 875.10 587.76 868.67 589.86 862.01 589.84 C 854.69 589.12 846.69 588.52 840.92 583.41 C 842.41 582.41 843.61 580.32 845.66 580.70 C 849.62 581.11 853.08 578.69 856.86 577.94 C 859.73 577.45 861.18 574.68 862.80 572.58 C 863.82 569.57 862.67 565.66 865.44 563.37 Z" />
<path fill="#9c1371" opacity="1.00" d=" M 889.40 585.27 C 891.37 584.77 893.20 586.10 894.26 587.67 C 897.34 591.90 900.37 596.48 901.16 601.78 C 902.42 607.03 899.96 613.34 894.95 615.66 C 891.07 615.55 887.22 614.88 883.38 614.44 C 879.31 613.97 876.15 611.25 872.84 609.12 C 868.97 606.45 864.77 603.26 863.88 598.34 C 868.11 596.06 872.57 598.55 876.99 598.34 C 878.95 598.34 880.92 598.26 882.89 598.20 C 884.02 596.17 885.65 594.30 886.05 591.95 C 886.50 589.46 887.13 586.75 889.40 585.27 Z" />
<path fill="#9c1371" opacity="1.00" d=" M 909.42 618.25 C 912.43 617.32 914.08 620.84 914.60 623.26 C 915.19 627.29 917.47 631.22 916.34 635.37 C 915.91 639.17 915.21 643.44 911.61 645.57 C 906.77 648.55 901.09 645.96 896.97 642.97 C 890.80 640.09 889.76 632.80 886.36 627.61 C 886.27 625.82 885.41 622.42 887.98 622.19 C 892.10 624.23 895.99 627.71 900.88 627.33 C 905.10 625.85 906.03 620.79 909.42 618.25 Z" />
<path fill="#9c1371" opacity="1.00" d=" M 895.82 657.80 C 899.11 654.08 904.54 655.43 908.91 655.29 C 914.96 655.59 919.51 661.74 918.52 667.58 C 917.80 672.37 914.36 675.98 911.88 679.94 C 906.96 687.19 898.14 689.98 890.18 692.44 C 889.75 692.23 888.88 691.82 888.45 691.61 C 887.96 688.93 886.96 686.23 887.61 683.50 C 889.16 674.69 889.23 664.66 895.82 657.80 Z" />
<path fill="#9c1371" opacity="1.00" d=" M 844.98 705.31 C 848.18 702.09 853.00 703.68 857.04 703.27 C 861.24 702.66 865.49 705.92 865.64 710.26 C 865.78 712.94 866.41 717.07 863.32 718.31 C 854.85 721.26 845.35 714.06 844.98 705.31 Z" />
<path fill="#9c1371" opacity="1.00" d=" M 908.06 714.23 C 913.05 712.55 918.43 713.10 923.59 713.43 C 926.12 715.28 927.18 718.47 928.34 721.27 C 928.01 723.99 926.63 726.43 925.59 728.92 C 921.37 728.73 916.80 728.34 913.43 725.52 C 910.22 722.66 907.78 718.67 908.06 714.23 Z" />
<path fill="#9c1371" opacity="1.00" d=" M 911.44 756.43 C 915.77 755.98 920.18 756.12 924.54 756.43 C 928.23 758.55 929.58 762.68 929.53 766.73 C 928.60 770.03 924.85 772.64 921.45 771.51 C 918.61 770.63 915.63 769.66 913.40 767.63 C 911.32 765.22 909.64 762.51 907.91 759.87 C 909.03 758.68 910.12 757.43 911.44 756.43 Z" />
<path fill="#9c1371" opacity="1.00" d=" M 877.51 767.55 C 882.64 766.25 888.33 765.28 893.29 767.77 C 896.17 768.60 897.15 772.02 896.62 774.70 C 896.05 777.10 896.10 780.34 893.52 781.57 C 891.10 782.12 888.38 783.32 886.02 781.95 C 881.30 780.13 879.50 774.85 875.19 772.42 C 875.24 770.57 875.36 768.16 877.51 767.55 Z" />
<path fill="#9c1371" opacity="1.00" d=" M 927.33 791.71 C 930.85 791.79 934.41 792.82 937.54 794.45 C 939.18 797.72 941.17 802.24 938.54 805.51 C 936.14 807.34 933.05 809.88 929.94 808.01 C 924.78 805.33 918.50 801.08 919.24 794.43 C 920.99 791.68 924.52 792.16 927.33 791.71 Z" />
<path fill="#9c1371" opacity="1.00" d=" M 878.87 831.19 C 882.45 828.67 886.90 829.73 890.98 829.26 C 894.39 829.12 899.02 831.06 898.81 835.11 C 898.77 837.95 899.24 841.67 896.59 843.55 C 894.97 844.57 893.33 846.23 891.25 845.77 C 885.39 842.89 879.12 838.39 878.87 831.19 Z" />
</g>
</svg>
