<?xml version="1.0" encoding="UTF-8" ?>
<!DOCTYPE svg PUBLIC "-//W3C//DTD SVG 1.1//EN" "http://www.w3.org/Graphics/SVG/1.1/DTD/svg11.dtd">
<svg width="591pt" height="420pt" viewBox="0 0 591 420" version="1.1" xmlns="http://www.w3.org/2000/svg">
<g id="#55662aff">
<path fill="#55662a" opacity="1.00" d=" M 0.00 0.00 L 0.26 0.00 C 0.19 0.06 0.06 0.19 0.00 0.26 L 0.00 0.00 Z" />
<path fill="#55662a" opacity="1.00" d=" M 76.37 23.38 C 83.71 18.77 93.01 19.01 101.17 20.88 C 108.30 24.19 115.70 27.20 121.89 32.17 C 131.46 38.32 139.69 46.31 147.21 54.80 C 155.49 63.19 163.63 71.76 171.07 80.92 C 175.60 87.01 181.35 92.03 186.00 98.02 C 192.96 106.72 201.61 113.85 208.64 122.47 C 213.37 128.12 219.97 131.68 225.27 136.72 C 231.52 141.77 237.38 147.41 241.58 154.32 C 249.41 165.31 256.05 177.08 263.89 188.06 C 269.47 195.69 279.19 197.94 287.35 201.71 C 297.14 205.03 307.85 207.46 318.17 205.56 C 325.39 203.67 332.29 200.76 339.08 197.71 C 347.10 193.76 355.63 190.97 363.53 186.77 C 372.16 182.32 382.12 180.37 391.77 181.72 C 396.97 182.48 402.34 183.13 407.49 181.66 C 413.99 179.82 420.25 177.15 426.90 175.85 C 434.28 173.96 442.10 173.40 449.58 175.05 C 445.94 181.04 438.24 181.89 432.31 184.55 C 425.23 186.86 418.13 189.57 412.14 194.12 C 395.24 207.23 383.22 225.16 369.10 240.97 C 361.31 249.55 353.28 257.93 345.56 266.56 C 340.63 273.55 333.38 278.46 328.70 285.65 C 322.95 292.41 317.94 299.73 313.22 307.24 C 310.74 311.71 310.82 317.05 308.81 321.72 C 306.66 327.69 302.43 333.29 302.82 339.89 C 303.30 345.10 308.83 347.09 313.26 347.80 C 321.04 349.48 329.74 345.42 336.89 350.06 C 342.51 353.79 348.90 356.41 353.85 361.10 C 356.42 363.55 359.24 365.83 361.23 368.80 C 362.76 372.68 362.00 377.30 359.23 380.45 C 356.13 379.13 353.23 377.24 349.95 376.41 C 348.05 376.92 346.32 377.95 344.39 378.31 C 339.85 377.76 336.75 373.85 335.01 369.93 C 332.50 365.06 331.27 358.68 325.83 356.13 C 319.22 352.98 311.67 353.75 304.57 353.68 C 309.29 359.86 316.35 363.85 320.43 370.57 C 322.52 373.95 325.20 377.13 326.23 381.05 C 326.63 385.24 324.92 389.86 321.42 392.36 C 318.06 394.06 313.91 393.17 310.98 390.99 C 307.94 388.77 304.71 386.67 302.26 383.79 C 297.33 376.91 300.22 367.43 295.53 360.49 C 292.27 355.58 285.94 355.10 280.86 353.23 C 276.04 351.84 272.20 348.52 268.54 345.25 C 267.27 347.93 266.54 351.18 264.05 353.03 C 261.29 354.14 258.25 354.24 255.33 354.65 C 254.94 358.61 254.72 362.58 254.56 366.56 C 248.83 366.88 243.09 367.07 237.36 367.41 C 237.50 371.29 239.30 376.01 236.16 379.18 C 233.05 381.82 228.58 381.02 224.82 380.88 C 220.16 385.84 221.11 394.62 214.19 397.54 C 213.55 395.28 212.93 393.01 212.29 390.76 C 206.63 394.34 203.76 400.53 199.47 405.40 C 197.68 407.89 194.38 407.06 191.77 407.16 C 190.75 401.59 194.48 397.25 196.83 392.65 C 197.88 390.81 195.25 389.79 194.20 388.74 C 189.54 391.57 185.10 394.81 180.16 397.14 C 178.33 397.84 175.38 398.76 174.25 396.53 C 172.73 394.27 174.79 391.88 176.22 390.20 C 180.83 385.12 186.53 380.83 189.85 374.71 C 190.94 372.95 189.05 371.13 187.25 371.95 C 183.03 375.19 180.82 380.41 176.45 383.49 C 174.37 384.07 172.18 383.71 170.06 383.69 C 169.98 381.29 170.00 378.69 171.82 376.88 C 176.27 370.66 184.68 366.63 185.26 358.24 C 184.72 357.85 183.65 357.07 183.12 356.67 C 178.62 359.32 174.44 362.64 169.57 364.59 C 166.88 365.68 163.83 363.14 164.82 360.28 C 167.46 355.87 171.25 352.08 175.86 349.76 C 181.66 346.69 186.95 342.71 191.45 337.93 C 190.63 336.80 189.84 335.65 189.06 334.51 C 185.58 337.90 182.81 341.94 179.33 345.33 C 177.43 347.39 173.58 347.49 171.93 345.06 C 170.78 343.67 171.92 341.93 172.42 340.52 C 175.94 333.13 182.47 327.67 189.16 323.21 C 202.97 315.76 218.49 311.94 232.11 304.11 C 236.79 300.52 243.00 297.88 245.29 292.06 C 244.58 290.35 242.64 289.89 240.97 289.86 C 235.48 289.87 230.14 291.41 224.68 291.73 C 221.68 291.88 218.91 290.39 215.95 290.18 C 213.84 290.07 211.75 290.35 209.65 290.41 C 207.49 290.68 206.16 288.52 204.69 287.31 C 200.22 282.42 194.78 278.12 192.08 271.90 C 189.82 267.08 188.06 261.70 183.93 258.10 C 179.53 254.68 173.33 253.64 170.09 248.78 C 166.99 243.25 170.82 236.16 167.10 230.86 C 162.20 229.34 156.73 231.26 151.99 229.07 C 147.36 224.77 151.20 218.35 152.32 213.35 C 153.68 210.23 150.65 207.96 149.00 205.74 C 143.48 205.76 137.09 207.30 132.28 203.80 C 129.26 200.89 131.78 196.81 132.67 193.54 C 133.39 192.07 133.15 190.16 131.64 189.30 C 128.30 188.64 124.85 189.04 121.50 188.47 C 116.57 184.13 118.93 176.82 116.67 171.33 C 113.25 166.74 107.20 165.60 102.11 163.72 C 98.07 162.44 94.63 159.87 91.52 157.05 C 93.96 154.61 96.74 152.49 98.96 149.82 C 97.87 145.38 92.27 144.71 89.02 142.24 C 87.45 141.27 85.91 140.26 84.37 139.26 C 89.54 133.52 97.34 131.82 103.37 127.33 C 108.04 124.79 106.08 118.14 102.76 115.34 C 96.92 112.30 90.13 111.86 83.66 112.13 C 83.59 111.57 83.44 110.46 83.36 109.91 C 79.10 109.80 74.63 110.23 70.61 108.54 C 69.39 106.63 68.33 104.62 67.29 102.61 C 71.55 102.58 76.23 102.54 79.41 99.22 C 81.56 97.09 85.90 95.14 84.66 91.48 C 83.05 88.37 79.75 86.24 76.30 85.76 C 72.33 85.17 68.32 84.65 64.52 83.27 C 67.47 82.85 70.54 82.59 73.28 81.32 C 74.67 80.22 75.50 78.61 76.39 77.13 C 77.52 74.74 79.24 71.50 76.93 69.25 C 71.31 62.63 61.85 63.08 54.62 59.24 C 58.95 58.61 63.07 56.97 66.71 54.55 C 69.22 53.05 71.56 51.27 73.74 49.32 C 69.80 46.90 65.39 45.18 61.77 42.26 C 59.87 40.72 59.01 37.75 60.56 35.66 C 64.09 29.71 70.59 26.68 76.37 23.38 M 387.44 188.84 C 388.99 190.42 390.55 192.00 392.11 193.58 C 394.75 192.29 396.94 190.32 398.61 187.90 C 397.17 186.85 395.97 184.95 393.97 185.16 C 391.25 185.05 389.39 187.32 387.44 188.84 M 281.40 326.57 C 275.72 327.81 276.08 335.46 278.62 339.41 C 283.38 346.53 291.85 350.09 299.81 352.35 C 297.71 349.29 295.21 345.97 295.71 342.02 C 296.24 334.93 298.76 328.13 298.98 321.00 C 293.08 322.73 287.38 325.10 281.40 326.57 M 266.91 335.09 C 266.57 337.49 266.89 339.91 267.05 342.32 C 269.30 338.38 271.33 333.99 270.47 329.33 C 269.14 331.14 267.45 332.84 266.91 335.09 Z" />
<path fill="#55662a" opacity="1.00" d=" M 516.50 150.69 C 521.94 148.37 527.75 145.53 533.82 147.03 C 533.73 149.17 533.64 151.31 533.57 153.45 C 536.81 156.18 539.25 159.70 542.37 162.56 C 548.98 166.53 557.33 167.50 563.02 173.05 C 559.55 173.89 556.00 174.32 552.44 174.40 C 551.78 177.95 550.92 181.48 549.30 184.73 C 546.23 179.85 543.80 174.47 539.52 170.48 C 536.39 167.48 533.76 163.10 529.14 162.43 C 525.90 163.45 523.43 166.48 524.02 170.00 C 523.38 178.24 530.55 184.09 531.33 192.01 C 525.20 191.50 519.28 188.33 515.98 183.07 C 513.89 179.52 512.17 175.70 511.18 171.70 C 511.06 170.94 510.83 169.42 510.71 168.66 C 510.73 168.20 510.76 167.28 510.77 166.82 C 516.81 163.53 523.78 162.71 530.00 159.85 C 527.21 159.02 524.37 157.90 521.41 158.24 C 517.93 158.63 514.72 160.13 511.63 161.68 C 512.53 157.86 512.18 152.45 516.50 150.69 M 521.22 182.20 C 519.58 182.54 520.29 185.20 521.88 184.69 C 523.50 184.34 522.80 181.69 521.22 182.20 Z" />
<path fill="#55662a" opacity="1.00" d=" M 416.15 268.05 C 417.72 266.39 420.36 267.64 421.17 269.47 C 420.63 275.78 415.40 280.10 411.57 284.63 C 408.20 288.46 407.41 294.06 409.07 298.81 C 410.49 303.08 411.46 307.60 410.52 312.09 C 409.59 317.84 408.74 323.61 408.29 329.42 C 408.22 329.86 408.06 330.73 407.99 331.17 C 411.40 328.15 415.07 325.18 417.24 321.08 C 420.74 312.67 413.80 304.29 415.98 295.75 C 417.46 289.97 422.16 285.81 424.48 280.41 C 426.36 276.95 427.35 272.52 430.84 270.28 C 435.00 269.26 439.22 271.29 443.30 271.97 C 439.47 276.55 434.57 279.99 429.79 283.48 C 424.61 287.72 419.32 293.76 420.09 300.93 C 420.30 305.75 422.75 310.14 423.05 314.95 C 423.30 318.93 422.86 322.92 422.68 326.90 C 422.44 331.96 420.28 336.65 418.20 341.18 C 416.79 343.92 415.26 347.00 412.36 348.42 C 410.67 348.84 408.91 348.77 407.19 348.80 C 408.11 345.01 409.19 341.26 410.33 337.53 C 408.92 337.14 407.52 336.68 406.07 336.48 C 404.08 337.19 402.40 338.55 400.62 339.66 C 399.88 338.51 399.18 337.34 398.57 336.13 C 397.31 333.30 396.43 330.14 397.13 327.04 C 398.48 320.38 402.83 314.80 404.38 308.21 C 405.68 302.03 402.02 296.18 402.34 290.03 C 402.71 284.97 406.50 281.24 409.35 277.38 C 411.72 274.35 413.34 270.73 416.15 268.05 Z" />
</g>
<g id="#fcfeefff">
</g>
<g id="#797967ff">
<path fill="#797967" opacity="1.00" d=" M 51.05 55.47 C 56.21 54.65 61.49 53.18 66.71 54.55 C 63.07 56.97 58.95 58.61 54.62 59.24 C 52.14 59.87 50.26 57.89 51.05 55.47 Z" />
<path fill="#797967" opacity="1.00" d=" M 58.14 80.03 C 64.17 78.76 70.32 78.14 76.39 77.13 C 75.50 78.61 74.67 80.22 73.28 81.32 C 70.54 82.59 67.47 82.85 64.52 83.27 C 61.41 83.52 58.29 83.26 55.19 83.04 C 56.02 81.87 56.46 80.16 58.14 80.03 Z" />
<path fill="#797967" opacity="1.00" d=" M 60.97 99.58 C 67.12 99.60 73.30 97.94 79.41 99.22 C 76.23 102.54 71.55 102.58 67.29 102.61 C 68.33 104.62 69.39 106.63 70.61 108.54 C 65.32 107.30 60.14 105.24 55.87 101.83 C 56.18 99.35 59.17 99.93 60.97 99.58 Z" />
<path fill="#797967" opacity="1.00" d=" M 231.89 110.15 C 234.97 106.69 240.74 106.88 244.03 109.96 C 251.22 116.29 254.33 126.09 261.91 132.09 C 275.16 141.48 290.43 147.64 303.24 157.69 C 308.22 161.83 312.91 167.55 312.54 174.41 C 312.13 184.35 311.86 194.38 313.61 204.22 C 315.13 204.67 316.65 205.11 318.17 205.56 C 307.85 207.46 297.14 205.03 287.35 201.71 C 279.19 197.94 269.47 195.69 263.89 188.06 C 256.05 177.08 249.41 165.31 241.58 154.32 C 237.38 147.41 231.52 141.77 225.27 136.72 C 219.97 131.68 213.37 128.12 208.64 122.47 C 212.22 120.79 216.50 118.06 220.40 120.53 C 224.64 123.02 228.82 126.07 233.98 126.09 C 234.16 120.66 231.09 115.56 231.89 110.15 Z" />
<path fill="#797967" opacity="1.00" d=" M 87.86 131.74 C 93.18 130.82 98.09 128.40 103.37 127.33 C 97.34 131.82 89.54 133.52 84.37 139.26 C 85.91 140.26 87.45 141.27 89.02 142.24 C 85.21 141.54 81.56 140.24 77.98 138.79 C 77.85 137.48 77.73 136.17 77.61 134.86 C 80.88 133.40 84.33 132.36 87.86 131.74 Z" />
</g>
<g id="#999980ff">
<path fill="#999980" opacity="1.00" d=" M 312.59 56.48 C 315.45 56.88 318.48 57.27 320.78 59.18 C 325.98 63.27 331.36 67.32 335.42 72.61 C 343.24 83.01 352.00 92.66 360.62 102.39 C 365.64 108.03 371.48 112.88 376.30 118.69 C 379.33 122.34 382.62 125.78 385.42 129.62 C 386.98 131.64 388.41 133.90 390.65 135.24 C 394.28 137.36 398.61 138.29 401.77 141.19 C 407.40 146.67 411.11 153.69 414.44 160.71 C 418.00 166.15 420.35 173.27 426.90 175.85 C 420.25 177.15 413.99 179.82 407.49 181.66 C 402.34 183.13 396.97 182.48 391.77 181.72 C 382.12 180.37 372.16 182.32 363.53 186.77 C 355.63 190.97 347.10 193.76 339.08 197.71 C 338.33 193.64 336.93 189.70 334.72 186.19 C 333.36 183.70 331.55 181.14 331.78 178.17 C 334.77 175.44 338.63 174.01 342.11 172.05 C 341.62 171.03 341.13 170.01 340.64 168.99 C 335.29 169.52 330.03 173.52 324.66 171.54 C 320.52 170.08 320.50 165.24 318.99 161.83 C 317.35 159.72 314.75 158.65 312.84 156.81 C 313.15 155.31 313.50 153.82 313.98 152.37 C 312.14 150.32 310.00 148.38 308.97 145.77 C 308.41 143.67 308.80 141.47 308.85 139.34 C 310.59 138.98 312.34 138.63 314.10 138.27 C 310.31 136.00 304.91 134.10 304.81 128.85 C 303.99 125.37 307.89 123.87 309.75 121.64 C 308.45 118.56 304.55 117.62 302.85 114.76 C 302.19 113.10 302.91 111.32 304.47 110.49 C 307.62 109.81 311.11 111.25 314.07 110.03 C 316.95 108.39 315.34 104.37 312.79 103.36 C 307.80 101.13 301.07 101.18 298.15 95.78 C 295.42 92.27 297.81 88.02 299.04 84.45 C 306.19 84.51 310.17 91.01 315.84 94.24 C 317.13 92.55 318.43 90.87 319.72 89.17 C 315.03 85.47 309.40 83.11 304.97 79.08 C 301.50 76.21 301.62 69.93 305.47 67.42 C 307.59 65.59 310.78 65.10 313.20 66.67 C 318.09 69.66 320.17 75.29 322.80 80.08 C 323.20 78.31 324.09 76.42 323.36 74.62 C 321.68 70.31 317.81 67.47 315.21 63.76 C 313.69 61.62 313.26 58.96 312.59 56.48 Z" />
<path fill="#999980" opacity="1.00" d=" M 521.41 158.24 C 524.37 157.90 527.21 159.02 530.00 159.85 C 523.78 162.71 516.81 163.53 510.77 166.82 C 506.69 168.94 502.83 171.47 499.14 174.21 C 503.19 172.81 507.15 171.06 510.71 168.66 C 510.83 169.42 511.06 170.94 511.18 171.70 C 508.43 174.47 505.32 176.84 502.48 179.50 C 499.75 181.78 500.45 185.71 499.78 188.84 C 497.68 202.05 489.32 212.93 483.77 224.79 C 482.82 227.04 481.19 230.34 483.71 232.19 C 487.46 234.87 492.15 235.64 496.20 237.76 C 507.48 243.83 516.58 253.51 528.61 258.27 C 532.73 260.25 537.75 262.35 539.27 267.07 C 538.82 272.69 533.14 276.34 528.00 277.15 C 523.19 278.00 518.31 277.12 513.87 275.23 C 510.66 273.63 507.22 275.09 504.03 275.88 C 503.07 275.20 502.14 274.51 501.19 273.84 C 497.90 274.91 494.45 275.24 491.02 275.54 C 487.15 275.78 484.28 278.78 480.69 279.86 C 478.23 280.19 475.76 279.57 473.30 279.75 C 469.21 281.28 466.32 285.26 461.90 286.09 C 459.60 285.94 457.42 285.17 455.22 284.55 C 451.09 286.94 447.01 290.30 442.02 290.34 C 437.39 289.26 433.77 285.89 429.79 283.48 C 434.57 279.99 439.47 276.55 443.30 271.97 C 439.22 271.29 435.00 269.26 430.84 270.28 C 427.35 272.52 426.36 276.95 424.48 280.41 C 422.16 285.81 417.46 289.97 415.98 295.75 C 413.80 304.29 420.74 312.67 417.24 321.08 C 417.12 317.93 416.75 314.79 416.39 311.66 C 413.91 317.68 411.55 323.76 408.29 329.42 C 408.74 323.61 409.59 317.84 410.52 312.09 C 411.46 307.60 410.49 303.08 409.07 298.81 C 407.41 294.06 408.20 288.46 411.57 284.63 C 415.40 280.10 420.63 275.78 421.17 269.47 C 420.36 267.64 417.72 266.39 416.15 268.05 C 413.34 270.73 411.72 274.35 409.35 277.38 C 406.50 281.24 402.71 284.97 402.34 290.03 C 402.02 296.18 405.68 302.03 404.38 308.21 C 402.83 314.80 398.48 320.38 397.13 327.04 C 396.43 330.14 397.31 333.30 398.57 336.13 C 395.59 337.08 392.58 337.93 389.55 338.70 C 388.42 334.00 391.06 329.39 389.77 324.70 C 386.63 327.25 385.69 331.30 383.57 334.56 C 382.21 336.79 378.61 337.26 376.88 335.24 C 373.57 332.08 369.53 329.29 367.92 324.81 C 366.11 324.06 364.29 323.35 362.47 322.64 C 361.96 320.72 361.61 318.75 360.81 316.94 C 359.65 314.93 357.66 313.56 356.53 311.54 C 355.63 309.11 355.46 306.34 353.78 304.25 C 352.92 302.69 351.03 301.22 351.91 299.27 C 353.62 292.72 360.53 290.17 365.40 286.40 C 371.93 281.30 379.42 277.27 384.79 270.83 C 387.94 267.13 391.73 263.15 391.77 257.97 C 392.08 254.22 388.28 252.28 386.55 249.45 C 385.61 247.48 385.29 245.30 384.77 243.21 C 382.58 244.18 380.45 245.40 378.07 245.86 C 375.05 244.29 372.25 242.30 369.10 240.97 C 383.22 225.16 395.24 207.23 412.14 194.12 C 418.13 189.57 425.23 186.86 432.31 184.55 C 436.20 188.40 440.54 191.75 444.69 195.31 C 446.98 197.40 450.35 198.52 453.33 197.27 C 464.57 191.02 469.20 177.68 480.07 170.98 C 484.03 168.37 488.27 166.13 492.78 164.63 C 496.87 163.26 501.16 164.89 505.34 164.31 C 507.58 163.84 509.59 162.68 511.63 161.68 C 514.72 160.13 517.93 158.63 521.41 158.24 M 488.65 171.67 C 487.85 173.01 487.42 174.51 486.93 175.98 C 490.93 176.78 494.72 174.25 495.22 170.13 C 493.00 170.49 490.68 170.64 488.65 171.67 Z" />
<path fill="#999980" opacity="1.00" d=" M 521.22 182.20 C 522.80 181.69 523.50 184.34 521.88 184.69 C 520.29 185.20 519.58 182.54 521.22 182.20 Z" />
</g>
</svg>
