<?xml version="1.0" encoding="UTF-8" ?>
<!DOCTYPE svg PUBLIC "-//W3C//DTD SVG 1.1//EN" "http://www.w3.org/Graphics/SVG/1.1/DTD/svg11.dtd">
<svg width="461pt" height="409pt" viewBox="0 0 461 409" version="1.1" xmlns="http://www.w3.org/2000/svg">
<g id="#f1f3e5ff">
</g>
<g id="#46552aff">
<path fill="#46552a" opacity="1.00" d=" M 209.35 17.13 C 217.19 16.08 225.12 16.68 233.00 16.50 C 246.09 16.13 258.99 18.65 271.88 20.54 C 320.32 31.00 365.22 59.68 392.99 101.02 C 396.96 107.40 400.86 113.84 404.57 120.38 C 410.73 132.39 414.76 145.32 418.67 158.20 C 422.05 172.19 423.83 186.59 423.52 201.00 C 423.65 211.37 423.56 221.83 421.22 232.00 C 419.14 245.14 416.02 258.23 410.41 270.36 C 405.09 283.07 398.32 295.15 390.44 306.43 C 384.94 314.16 378.45 321.08 372.16 328.15 C 367.17 333.53 361.66 338.40 355.82 342.84 C 341.17 355.00 324.76 365.11 307.11 372.30 C 294.95 377.83 281.96 381.16 268.99 384.18 C 252.31 388.12 235.04 388.69 217.97 388.30 C 210.06 387.46 202.07 387.44 194.24 385.95 C 188.01 384.75 181.66 384.07 175.55 382.34 C 167.02 379.58 158.11 377.97 149.97 374.08 C 120.81 362.94 94.67 344.33 74.02 320.98 C 64.98 310.63 57.70 298.94 50.91 287.03 C 45.46 276.68 41.31 265.71 37.41 254.70 C 31.76 237.73 30.75 219.75 29.85 202.04 C 30.39 192.91 30.27 183.69 32.39 174.73 C 33.81 163.62 37.22 152.92 40.42 142.23 C 42.19 136.44 45.24 131.19 47.79 125.74 C 53.26 114.10 60.39 103.32 67.87 92.88 C 74.62 84.38 81.96 76.29 90.16 69.15 C 108.78 51.18 131.44 37.57 155.71 28.70 C 160.48 26.51 165.56 25.13 170.64 23.84 C 183.27 20.29 196.25 17.91 209.35 17.13 M 302.83 46.45 C 301.53 54.86 299.45 63.20 295.95 70.98 C 290.52 83.69 279.51 93.90 266.32 98.13 C 263.63 99.30 259.90 99.61 258.52 102.56 C 258.01 109.26 261.54 115.49 265.00 120.98 C 266.89 124.18 269.77 126.59 272.97 128.41 C 279.13 125.59 285.90 123.61 291.02 118.97 C 297.52 113.19 301.61 105.38 306.13 98.09 C 307.09 96.46 308.13 94.80 308.45 92.90 C 309.64 86.00 309.50 78.95 308.86 72.01 C 308.54 61.25 307.28 50.54 305.57 39.93 C 304.18 41.87 303.13 44.06 302.83 46.45 M 202.40 86.57 C 193.65 88.82 184.79 92.01 178.05 98.25 C 179.67 101.48 181.90 104.79 181.46 108.58 C 180.79 115.44 178.85 122.29 175.13 128.14 C 172.51 132.78 168.28 136.58 162.83 137.28 C 162.40 143.53 163.48 149.77 162.83 156.01 C 162.78 164.70 160.92 173.32 161.77 182.02 C 162.57 191.95 166.53 201.19 169.46 210.60 C 171.81 217.69 174.59 224.65 177.49 231.54 C 178.83 234.83 180.74 237.85 183.02 240.58 C 183.64 239.03 184.25 237.47 184.86 235.93 C 189.46 248.62 191.01 262.17 194.88 275.08 C 195.28 276.78 196.31 278.20 197.76 279.18 C 197.78 277.35 197.75 275.53 197.77 273.71 C 200.86 277.61 200.95 282.84 202.63 287.37 C 205.33 295.36 207.71 303.61 212.09 310.88 C 215.47 316.96 223.17 318.18 229.51 318.19 C 226.71 310.30 218.19 306.04 216.10 297.82 C 216.02 294.01 218.43 290.53 218.35 286.67 C 217.92 276.99 212.31 268.81 208.91 260.04 C 212.62 262.34 215.47 265.78 219.21 268.02 C 222.76 268.78 224.39 264.39 224.82 261.57 C 227.32 239.31 222.31 217.05 223.54 194.76 C 225.35 197.12 225.41 200.18 225.59 203.03 C 225.88 211.35 226.87 219.65 226.65 227.99 C 226.43 235.02 227.73 241.96 227.68 248.98 C 227.70 255.19 227.67 261.74 230.73 267.35 C 231.41 268.38 232.00 270.15 233.58 269.61 C 234.69 267.31 235.37 264.81 236.59 262.56 C 237.28 261.43 238.04 259.70 239.68 260.33 C 242.05 262.54 241.77 266.08 241.81 269.04 C 242.01 275.64 235.84 280.58 236.52 287.28 C 236.68 291.52 239.95 294.52 242.38 297.64 C 243.49 298.83 244.29 300.67 243.10 302.12 C 239.72 307.52 234.93 312.14 233.01 318.37 C 234.49 317.81 236.05 317.30 237.24 316.21 C 245.36 309.24 251.88 300.58 257.11 291.28 C 259.57 286.56 258.28 281.05 258.78 275.97 C 259.43 268.97 259.11 261.83 260.91 254.99 C 262.35 249.98 261.90 244.61 263.78 239.71 C 265.77 234.64 265.61 228.51 269.84 224.56 C 271.07 225.98 272.29 227.42 273.52 228.85 C 277.25 222.58 278.01 215.18 280.27 208.35 C 283.39 199.11 283.64 189.24 286.04 179.82 C 288.22 172.09 289.00 164.02 288.61 156.00 C 288.41 151.84 286.19 148.21 284.69 144.44 C 282.56 139.26 281.37 133.75 279.13 128.62 C 276.35 129.49 273.19 131.56 270.39 129.59 C 263.60 125.88 261.02 118.11 256.91 112.03 C 256.83 111.01 256.62 110.02 256.28 109.06 C 256.16 106.23 256.18 103.39 256.41 100.57 C 258.03 99.26 259.61 97.89 261.09 96.42 C 256.54 93.70 251.91 91.05 247.03 88.96 C 239.49 85.61 231.09 85.28 222.99 84.71 C 216.14 85.48 209.20 85.43 202.40 86.57 M 152.95 96.00 C 149.77 98.53 146.41 101.19 144.75 105.01 C 145.13 106.75 146.88 107.74 147.96 109.05 C 154.28 115.09 157.01 123.61 160.81 131.24 C 161.65 133.08 163.59 135.21 165.82 134.18 C 171.03 131.70 173.97 126.24 176.14 121.15 C 178.00 115.83 179.95 110.01 178.53 104.35 C 177.67 100.83 174.11 99.30 171.33 97.55 C 167.29 95.33 165.84 90.63 163.52 86.94 C 159.83 89.77 156.65 93.19 152.95 96.00 M 161.43 315.43 C 159.32 318.80 157.31 322.66 157.42 326.74 C 158.32 330.50 161.36 333.23 163.55 336.28 C 159.26 337.25 153.18 336.38 151.02 341.18 C 148.67 349.14 153.19 356.93 158.25 362.76 C 161.45 366.70 167.07 367.75 171.86 367.07 C 176.65 366.03 178.95 361.18 179.78 356.80 C 180.63 352.17 183.10 347.08 188.04 345.82 C 196.02 344.55 204.01 347.09 212.01 346.15 C 229.67 344.29 247.34 347.11 264.96 347.91 C 269.60 349.18 272.05 353.83 274.54 357.56 C 276.77 360.70 277.44 364.56 279.04 367.99 C 281.87 371.27 286.53 373.22 290.84 372.13 C 294.01 371.45 297.66 370.31 299.11 367.11 C 300.45 363.89 300.36 360.07 299.00 356.88 C 296.58 353.06 291.47 352.67 288.29 349.73 C 286.12 347.33 285.50 344.02 284.53 341.03 C 288.10 339.82 291.96 339.22 295.17 337.17 C 298.73 334.71 299.33 329.91 299.02 325.93 C 298.80 320.17 292.33 315.27 286.81 317.86 C 280.72 321.18 276.04 327.29 268.90 328.58 C 260.62 329.29 252.30 328.10 244.00 328.63 C 228.04 329.92 211.99 329.64 196.00 329.11 C 191.39 328.99 186.73 329.89 182.16 329.06 C 178.22 327.35 179.22 322.42 178.83 318.99 C 178.86 315.96 178.51 311.67 174.73 311.15 C 170.06 310.73 164.27 311.09 161.43 315.43 Z" />
<path fill="#46552a" opacity="1.00" d=" M 275.18 136.91 C 276.52 137.49 278.01 137.84 279.16 138.78 C 280.91 141.66 281.68 144.98 282.97 148.07 C 284.74 152.39 286.53 156.83 286.70 161.57 C 287.23 168.14 284.93 174.55 281.73 180.20 C 277.92 177.20 277.47 172.07 274.82 168.29 C 272.46 166.90 268.85 167.20 267.53 164.42 C 265.52 160.61 265.76 155.78 268.18 152.20 C 271.36 147.50 272.38 141.81 275.18 136.91 Z" />
<path fill="#46552a" opacity="1.00" d=" M 171.44 142.41 C 174.59 141.89 178.74 142.90 179.96 146.20 C 180.34 151.95 178.37 157.76 179.72 163.46 C 181.33 167.34 185.16 169.94 186.30 174.05 C 186.70 175.84 185.09 176.97 183.84 177.89 C 179.20 180.92 173.77 183.34 168.09 182.74 C 165.17 182.97 164.36 179.27 164.78 177.01 C 165.55 171.37 166.09 165.70 165.68 160.00 C 165.59 153.86 166.08 146.40 171.44 142.41 Z" />
</g>
<g id="#bdc1aaff">
<path fill="#bdc1aa" opacity="1.00" d=" M 202.40 86.57 C 209.20 85.43 216.14 85.48 222.99 84.71 C 231.09 85.28 239.49 85.61 247.03 88.96 C 251.91 91.05 256.54 93.70 261.09 96.42 C 259.61 97.89 258.03 99.26 256.41 100.57 C 256.18 103.39 256.16 106.23 256.28 109.06 C 254.25 102.75 250.43 96.85 244.91 93.08 C 239.68 89.81 233.31 89.62 227.39 88.74 C 221.99 88.12 216.49 86.55 211.08 87.95 C 206.09 89.18 201.06 90.26 195.96 90.93 C 192.60 91.59 188.29 92.08 186.63 95.56 C 184.84 100.17 185.10 105.26 183.96 110.03 C 182.89 115.81 180.23 121.58 181.30 127.55 C 185.29 131.50 191.60 131.60 196.12 134.87 C 202.99 139.59 211.73 142.21 216.46 149.52 C 219.20 153.40 218.15 158.35 217.90 162.75 C 217.33 168.18 218.13 173.63 218.07 179.07 C 218.03 183.40 216.23 187.41 215.01 191.49 C 218.06 190.55 220.82 188.91 223.22 186.81 C 226.48 188.86 229.79 191.54 233.92 190.94 C 233.95 185.20 229.17 181.20 228.14 175.77 C 226.96 170.37 225.78 164.49 228.07 159.20 C 231.56 149.51 240.01 143.11 247.21 136.26 C 250.08 133.45 253.87 130.88 254.54 126.62 C 255.38 121.77 256.08 116.89 256.91 112.03 C 261.02 118.11 263.60 125.88 270.39 129.59 C 273.19 131.56 276.35 129.49 279.13 128.62 C 281.37 133.75 282.56 139.26 284.69 144.44 C 286.19 148.21 288.41 151.84 288.61 156.00 C 289.00 164.02 288.22 172.09 286.04 179.82 C 283.64 189.24 283.39 199.11 280.27 208.35 C 278.01 215.18 277.25 222.58 273.52 228.85 C 272.29 227.42 271.07 225.98 269.84 224.56 C 265.61 228.51 265.77 234.64 263.78 239.71 C 261.90 244.61 262.35 249.98 260.91 254.99 C 259.11 261.83 259.43 268.97 258.78 275.97 C 258.28 281.05 259.57 286.56 257.11 291.28 C 251.88 300.58 245.36 309.24 237.24 316.21 C 236.05 317.30 234.49 317.81 233.01 318.37 C 234.93 312.14 239.72 307.52 243.10 302.12 C 244.29 300.67 243.49 298.83 242.38 297.64 C 239.95 294.52 236.68 291.52 236.52 287.28 C 235.84 280.58 242.01 275.64 241.81 269.04 C 241.77 266.08 242.05 262.54 239.68 260.33 C 238.04 259.70 237.28 261.43 236.59 262.56 C 235.37 264.81 234.69 267.31 233.58 269.61 C 232.00 270.15 231.41 268.38 230.73 267.35 C 227.67 261.74 227.70 255.19 227.68 248.98 C 227.73 241.96 226.43 235.02 226.65 227.99 C 226.87 219.65 225.88 211.35 225.59 203.03 C 225.41 200.18 225.35 197.12 223.54 194.76 C 222.31 217.05 227.32 239.31 224.82 261.57 C 224.39 264.39 222.76 268.78 219.21 268.02 C 215.47 265.78 212.62 262.34 208.91 260.04 C 212.31 268.81 217.92 276.99 218.35 286.67 C 218.43 290.53 216.02 294.01 216.10 297.82 C 218.19 306.04 226.71 310.30 229.51 318.19 C 223.17 318.18 215.47 316.96 212.09 310.88 C 207.71 303.61 205.33 295.36 202.63 287.37 C 200.95 282.84 200.86 277.61 197.77 273.71 C 197.75 275.53 197.78 277.35 197.76 279.18 C 196.31 278.20 195.28 276.78 194.88 275.08 C 191.01 262.17 189.46 248.62 184.86 235.93 C 184.25 237.47 183.64 239.03 183.02 240.58 C 180.74 237.85 178.83 234.83 177.49 231.54 C 174.59 224.65 171.81 217.69 169.46 210.60 C 166.53 201.19 162.57 191.95 161.77 182.02 C 160.92 173.32 162.78 164.70 162.83 156.01 C 163.48 149.77 162.40 143.53 162.83 137.28 C 168.28 136.58 172.51 132.78 175.13 128.14 C 178.85 122.29 180.79 115.44 181.46 108.58 C 181.90 104.79 179.67 101.48 178.05 98.25 C 184.79 92.01 193.65 88.82 202.40 86.57 M 275.18 136.91 C 272.38 141.81 271.36 147.50 268.18 152.20 C 265.76 155.78 265.52 160.61 267.53 164.42 C 268.85 167.20 272.46 166.90 274.82 168.29 C 277.47 172.07 277.92 177.20 281.73 180.20 C 284.93 174.55 287.23 168.14 286.70 161.57 C 286.53 156.83 284.74 152.39 282.97 148.07 C 281.68 144.98 280.91 141.66 279.16 138.78 C 278.01 137.84 276.52 137.49 275.18 136.91 M 171.44 142.41 C 166.08 146.40 165.59 153.86 165.68 160.00 C 166.09 165.70 165.55 171.37 164.78 177.01 C 164.36 179.27 165.17 182.97 168.09 182.74 C 173.77 183.34 179.20 180.92 183.84 177.89 C 185.09 176.97 186.70 175.84 186.30 174.05 C 185.16 169.94 181.33 167.34 179.72 163.46 C 178.37 157.76 180.34 151.95 179.96 146.20 C 178.74 142.90 174.59 141.89 171.44 142.41 Z" />
</g>
</svg>
