<?xml version="1.0" encoding="UTF-8" ?>
<!DOCTYPE svg PUBLIC "-//W3C//DTD SVG 1.1//EN" "http://www.w3.org/Graphics/SVG/1.1/DTD/svg11.dtd">
<svg width="151pt" height="168pt" viewBox="0 0 151 168" version="1.1" xmlns="http://www.w3.org/2000/svg">
<g id="#f1f7e9ff">
<path fill="#f1f7e9" opacity="1.00" d=" M 93.50 42.34 C 92.51 41.49 91.64 40.52 91.15 39.30 C 92.21 40.33 93.23 41.40 94.30 42.42 C 94.44 45.63 94.37 48.86 93.68 52.01 C 93.95 48.79 94.09 45.53 93.50 42.34 Z" />
<path fill="#f1f7e9" opacity="1.00" d=" M 25.54 93.38 C 27.92 94.75 29.57 97.04 31.83 98.58 C 35.44 101.31 39.81 102.68 43.91 104.46 C 47.79 106.33 52.20 105.76 56.32 106.62 C 54.21 106.62 52.09 106.55 49.99 106.45 C 45.10 106.39 41.03 103.19 36.38 102.15 C 32.34 99.79 28.48 97.07 25.54 93.38 Z" />
</g>
<g id="#1f4f11ff">
<path fill="#1f4f11" opacity="1.00" d=" M 126.52 12.54 C 129.43 9.59 131.46 5.77 134.98 3.44 C 135.50 3.51 136.54 3.66 137.06 3.73 C 138.52 9.51 136.58 15.41 135.49 21.09 C 132.96 30.62 130.61 40.53 124.87 48.73 C 120.08 56.04 113.75 62.12 107.98 68.62 C 107.49 65.22 107.50 61.71 106.40 58.43 C 106.33 58.18 106.17 57.69 106.09 57.45 L 105.89 56.76 C 104.91 52.37 102.40 48.45 99.26 45.29 C 97.75 41.95 100.88 39.09 102.60 36.54 C 110.16 28.14 118.98 20.98 126.52 12.54 Z" />
<path fill="#1f4f11" opacity="1.00" d=" M 36.16 117.18 C 38.22 115.01 40.43 112.96 43.00 111.43 C 47.59 111.98 51.39 114.74 55.57 116.46 C 59.04 117.90 62.65 119.03 66.31 119.88 L 68.29 120.31 C 62.06 124.98 57.35 131.40 51.14 136.14 C 42.33 144.24 31.13 149.07 19.86 152.67 C 16.09 153.70 12.15 155.01 8.22 154.11 C 7.42 151.59 9.29 149.59 10.91 147.95 C 20.30 138.51 27.37 127.13 36.16 117.18 Z" />
</g>
<g id="#3b6a31ff">
<path fill="#3b6a31" opacity="1.00" d=" M 17.28 18.13 C 20.66 16.68 24.31 15.82 27.96 15.43 C 40.37 15.24 52.54 18.54 64.10 22.81 C 77.10 27.89 89.97 34.60 99.26 45.29 C 102.40 48.45 104.91 52.37 105.89 56.76 C 105.76 57.00 105.50 57.47 105.37 57.71 L 106.09 57.45 C 106.17 57.69 106.33 58.18 106.40 58.43 C 106.64 61.50 106.96 64.56 107.32 67.62 L 106.39 68.24 C 105.03 58.76 101.63 48.94 94.30 42.42 C 93.23 41.40 92.21 40.33 91.15 39.30 C 90.48 38.71 89.72 38.24 89.01 37.72 C 87.44 36.55 85.94 35.28 84.30 34.21 C 72.15 26.71 58.65 21.51 44.72 18.47 C 35.91 16.91 25.93 15.14 17.75 19.73 C 16.02 23.19 19.28 27.49 16.98 30.87 C 15.90 32.56 13.54 31.88 11.88 32.28 C 12.91 39.48 13.05 46.73 12.86 53.99 C 12.58 61.19 14.26 68.27 16.64 75.02 C 17.25 76.59 17.95 78.14 18.53 79.72 C 19.08 81.47 19.60 83.24 20.48 84.85 C 21.20 86.16 21.97 87.44 22.69 88.76 C 23.51 90.37 24.23 92.09 25.54 93.38 C 28.48 97.07 32.34 99.79 36.38 102.15 C 37.12 103.54 38.14 104.78 39.57 105.50 C 45.62 109.24 51.96 112.48 58.43 115.42 C 61.95 116.99 65.78 117.77 69.63 117.82 C 70.36 117.85 71.08 117.87 71.81 117.88 C 71.80 118.31 71.77 119.17 71.76 119.60 C 71.37 119.43 70.59 119.08 70.20 118.91 C 68.90 119.23 67.61 119.55 66.31 119.88 C 62.65 119.03 59.04 117.90 55.57 116.46 C 51.39 114.74 47.59 111.98 43.00 111.43 C 43.78 111.30 45.34 111.04 46.12 110.91 C 40.14 107.34 33.94 103.95 28.87 99.10 C 22.70 93.67 19.21 85.98 16.34 78.46 C 13.49 70.28 10.99 61.74 11.39 52.98 C 11.63 45.32 11.22 37.67 10.33 30.06 C 12.12 29.84 13.83 32.08 15.49 30.38 C 18.27 26.85 13.66 21.41 17.28 18.13 Z" />
<path fill="#3b6a31" opacity="1.00" d=" M 101.74 81.80 C 102.89 79.81 104.05 77.82 105.37 75.93 C 105.49 76.64 105.75 78.06 105.88 78.77 C 104.37 82.66 101.59 86.00 98.14 88.33 C 94.91 90.55 93.20 94.19 91.61 97.64 C 89.87 101.40 87.44 104.76 85.20 108.22 C 83.83 110.30 83.33 112.84 81.77 114.80 C 79.12 116.71 75.77 117.11 72.65 117.74 C 75.44 115.50 78.36 113.37 80.76 110.70 C 83.48 107.81 84.30 103.77 86.37 100.47 C 90.37 93.67 96.14 88.16 100.45 81.57 C 100.77 81.63 101.42 81.74 101.74 81.80 Z" />
</g>
<g id="#739d6cff">
<path fill="#739d6c" opacity="1.00" d=" M 17.75 19.73 C 25.93 15.14 35.91 16.91 44.72 18.47 C 58.65 21.51 72.15 26.71 84.30 34.21 C 83.44 35.98 85.57 37.23 86.29 38.64 C 88.58 40.97 88.08 44.37 88.49 47.34 C 89.94 44.29 89.48 40.93 89.01 37.72 C 89.72 38.24 90.48 38.71 91.15 39.30 C 91.64 40.52 92.51 41.49 93.50 42.34 C 94.09 45.53 93.95 48.79 93.68 52.01 C 94.37 48.86 94.44 45.63 94.30 42.42 C 101.63 48.94 105.03 58.76 106.39 68.24 C 106.35 70.84 105.91 73.40 105.37 75.93 C 104.05 77.82 102.89 79.81 101.74 81.80 C 101.42 81.74 100.77 81.63 100.45 81.57 C 103.04 77.76 105.32 73.18 104.15 68.46 C 103.04 68.86 102.20 69.56 101.62 70.56 C 98.39 75.31 96.60 80.82 93.99 85.89 C 90.61 92.28 85.28 97.31 81.56 103.46 C 78.55 108.44 70.70 109.06 69.26 115.16 C 69.36 115.82 69.54 117.15 69.63 117.82 C 65.78 117.77 61.95 116.99 58.43 115.42 C 51.96 112.48 45.62 109.24 39.57 105.50 C 38.14 104.78 37.12 103.54 36.38 102.15 C 41.03 103.19 45.10 106.39 49.99 106.45 C 52.09 106.55 54.21 106.62 56.32 106.62 C 52.20 105.76 47.79 106.33 43.91 104.46 C 39.81 102.68 35.44 101.31 31.83 98.58 C 29.57 97.04 27.92 94.75 25.54 93.38 C 24.23 92.09 23.51 90.37 22.69 88.76 C 28.01 91.51 32.37 95.96 38.18 97.82 C 41.67 99.33 45.54 99.02 49.22 98.60 C 43.85 98.36 38.67 96.83 34.12 93.95 C 29.00 91.75 25.63 86.95 20.48 84.85 C 19.60 83.24 19.08 81.47 18.53 79.72 C 24.70 83.95 29.43 91.33 37.42 92.17 C 33.95 89.76 30.26 87.65 27.01 84.93 C 23.23 81.96 20.70 77.67 16.64 75.02 C 14.26 68.27 12.58 61.19 12.86 53.99 C 13.05 46.73 12.91 39.48 11.88 32.28 C 13.54 31.88 15.90 32.56 16.98 30.87 C 19.28 27.49 16.02 23.19 17.75 19.73 M 23.61 25.23 C 27.04 28.44 32.00 27.15 36.19 27.86 C 40.80 29.30 39.25 35.38 42.77 38.05 C 42.47 33.70 41.54 28.79 38.04 25.83 C 33.40 24.26 28.38 26.43 23.61 25.23 M 35.16 35.62 C 35.96 34.81 36.77 33.99 37.58 33.18 C 37.66 29.41 34.34 27.16 30.85 28.62 C 28.84 31.99 31.44 35.58 35.16 35.62 M 48.90 31.99 C 56.45 36.95 64.03 42.07 70.32 48.60 C 76.25 54.89 78.33 63.63 83.24 70.55 C 85.39 71.30 85.25 68.33 85.43 67.00 C 86.13 59.36 79.86 53.90 75.08 48.89 C 67.46 40.18 57.07 34.80 47.01 29.46 C 47.57 30.35 48.01 31.37 48.90 31.99 M 14.17 37.41 C 13.66 45.56 19.58 51.85 24.06 57.97 C 28.94 63.62 35.00 68.69 42.32 70.71 C 45.57 71.36 49.35 72.08 52.44 70.62 C 47.10 69.20 41.41 68.48 36.80 65.18 C 26.25 58.81 20.47 47.52 14.17 37.41 M 41.15 53.06 C 41.67 57.90 43.53 63.48 48.36 65.54 C 54.77 66.31 59.99 60.94 66.39 61.06 C 66.29 60.56 66.09 59.55 66.00 59.04 C 63.51 56.55 61.06 53.88 57.95 52.16 C 55.56 50.72 52.68 51.19 50.03 51.13 C 46.90 51.29 43.85 50.27 40.71 50.53 C 42.10 50.17 43.50 49.82 44.90 49.50 C 44.79 48.57 44.62 47.66 44.38 46.75 C 42.26 45.89 40.04 45.37 37.73 45.60 C 35.88 48.68 38.60 51.56 41.15 53.06 Z" />
</g>
<g id="#2d601aff">
<path fill="#2d601a" opacity="1.00" d=" M 23.61 25.23 C 28.38 26.43 33.40 24.26 38.04 25.83 C 41.54 28.79 42.47 33.70 42.77 38.05 C 39.25 35.38 40.80 29.30 36.19 27.86 C 32.00 27.15 27.04 28.44 23.61 25.23 Z" />
<path fill="#2d601a" opacity="1.00" d=" M 14.17 37.41 C 20.47 47.52 26.25 58.81 36.80 65.18 C 41.41 68.48 47.10 69.20 52.44 70.62 C 49.35 72.08 45.57 71.36 42.32 70.71 C 35.00 68.69 28.94 63.62 24.06 57.97 C 19.58 51.85 13.66 45.56 14.17 37.41 Z" />
</g>
<g id="#265314ff">
<path fill="#265314" opacity="1.00" d=" M 35.16 35.62 C 31.44 35.58 28.84 31.99 30.85 28.62 C 34.34 27.16 37.66 29.41 37.58 33.18 C 36.77 33.99 35.96 34.81 35.16 35.62 Z" />
</g>
<g id="#31661bff">
<path fill="#31661b" opacity="1.00" d=" M 48.90 31.99 C 48.01 31.37 47.57 30.35 47.01 29.46 C 57.07 34.80 67.46 40.18 75.08 48.89 C 79.86 53.90 86.13 59.36 85.43 67.00 C 85.25 68.33 85.39 71.30 83.24 70.55 C 78.33 63.63 76.25 54.89 70.32 48.60 C 64.03 42.07 56.45 36.95 48.90 31.99 Z" />
</g>
<g id="#95bf8aff">
<path fill="#95bf8a" opacity="1.00" d=" M 86.29 38.64 C 85.57 37.23 83.44 35.98 84.30 34.21 C 85.94 35.28 87.44 36.55 89.01 37.72 C 89.48 40.93 89.94 44.29 88.49 47.34 C 88.08 44.37 88.58 40.97 86.29 38.64 Z" />
<path fill="#95bf8a" opacity="1.00" d=" M 16.64 75.02 C 20.70 77.67 23.23 81.96 27.01 84.93 C 30.26 87.65 33.95 89.76 37.42 92.17 C 29.43 91.33 24.70 83.95 18.53 79.72 C 17.95 78.14 17.25 76.59 16.64 75.02 Z" />
</g>
<g id="#204f12ff">
<path fill="#204f12" opacity="1.00" d=" M 41.15 53.06 C 38.60 51.56 35.88 48.68 37.73 45.60 C 40.04 45.37 42.26 45.89 44.38 46.75 C 44.62 47.66 44.79 48.57 44.90 49.50 C 43.50 49.82 42.10 50.17 40.71 50.53 C 43.85 50.27 46.90 51.29 50.03 51.13 C 52.68 51.19 55.56 50.72 57.95 52.16 C 61.06 53.88 63.51 56.55 66.00 59.04 C 66.09 59.55 66.29 60.56 66.39 61.06 C 59.99 60.94 54.77 66.31 48.36 65.54 C 43.53 63.48 41.67 57.90 41.15 53.06 Z" />
</g>
<g id="#8cb37eff">
<path fill="#8cb37e" opacity="1.00" d=" M 105.37 57.71 C 105.50 57.47 105.76 57.00 105.89 56.76 L 106.09 57.45 L 105.37 57.71 Z" />
</g>
<g id="#204f11ff">
<path fill="#204f11" opacity="1.00" d=" M 106.39 68.24 L 107.32 67.62 C 107.30 68.39 107.25 69.92 107.23 70.68 C 110.89 71.62 112.89 75.17 114.88 78.07 C 116.65 80.89 118.73 84.55 116.84 87.81 C 116.19 89.64 113.66 89.18 112.77 90.84 C 109.45 95.12 116.55 99.93 113.38 104.26 C 110.59 107.76 104.97 104.73 102.38 108.42 C 99.74 111.18 101.42 115.81 98.48 118.34 C 95.59 120.76 91.71 118.39 88.44 119.58 C 86.33 120.93 85.35 123.66 83.02 124.61 C 79.01 124.18 75.25 122.41 71.72 120.53 L 71.76 119.60 C 71.77 119.17 71.80 118.31 71.81 117.88 C 72.02 117.84 72.44 117.77 72.65 117.74 C 75.77 117.11 79.12 116.71 81.77 114.80 C 83.33 112.84 83.83 110.30 85.20 108.22 C 87.44 104.76 89.87 101.40 91.61 97.64 C 93.20 94.19 94.91 90.55 98.14 88.33 C 101.59 86.00 104.37 82.66 105.88 78.77 C 105.75 78.06 105.49 76.64 105.37 75.93 C 105.91 73.40 106.35 70.84 106.39 68.24 Z" />
</g>
<g id="#0b4815ff">
<path fill="#0b4815" opacity="1.00" d=" M 101.62 70.56 C 102.20 69.56 103.04 68.86 104.15 68.46 C 105.32 73.18 103.04 77.76 100.45 81.57 C 96.14 88.16 90.37 93.67 86.37 100.47 C 84.30 103.77 83.48 107.81 80.76 110.70 C 78.36 113.37 75.44 115.50 72.65 117.74 C 72.44 117.77 72.02 117.84 71.81 117.88 C 71.08 117.87 70.36 117.85 69.63 117.82 C 69.54 117.15 69.36 115.82 69.26 115.16 C 70.70 109.06 78.55 108.44 81.56 103.46 C 85.28 97.31 90.61 92.28 93.99 85.89 C 96.60 80.82 98.39 75.31 101.62 70.56 Z" />
</g>
<g id="#91bc87ff">
<path fill="#91bc87" opacity="1.00" d=" M 20.48 84.85 C 25.63 86.95 29.00 91.75 34.12 93.95 C 38.67 96.83 43.85 98.36 49.22 98.60 C 45.54 99.02 41.67 99.33 38.18 97.82 C 32.37 95.96 28.01 91.51 22.69 88.76 C 21.97 87.44 21.20 86.16 20.48 84.85 Z" />
</g>
</svg>
