<?xml version="1.0" encoding="UTF-8" ?>
<!DOCTYPE svg PUBLIC "-//W3C//DTD SVG 1.1//EN" "http://www.w3.org/Graphics/SVG/1.1/DTD/svg11.dtd">
<svg width="151pt" height="168pt" viewBox="0 0 151 168" version="1.1" xmlns="http://www.w3.org/2000/svg">
<g id="#33661fff">
<path fill="#33661f" opacity="1.00" d=" M 0.00 0.00 L 0.33 0.00 C 0.25 0.08 0.08 0.24 0.00 0.33 L 0.00 0.00 Z" />
<path fill="#33661f" opacity="1.00" d=" M 17.20 18.29 C 20.90 16.50 25.08 15.64 29.18 15.43 C 41.74 15.54 54.02 18.98 65.67 23.46 C 78.12 28.48 90.39 35.08 99.30 45.37 C 102.64 48.96 105.40 53.26 106.46 58.11 C 106.15 61.20 106.80 64.26 106.82 67.34 L 106.37 68.50 C 105.44 59.11 101.78 49.80 95.19 42.94 C 93.95 41.70 92.68 40.49 91.38 39.31 C 90.57 38.66 89.72 38.07 88.88 37.47 C 87.37 36.40 85.90 35.28 84.38 34.22 C 72.26 26.58 58.66 21.42 44.69 18.36 C 35.70 16.59 25.94 15.37 17.38 19.46 C 16.99 22.80 17.84 26.13 17.53 29.44 C 17.14 32.33 13.77 31.79 11.68 32.31 C 14.05 44.00 11.17 56.11 14.33 67.67 C 14.92 70.13 15.63 72.56 16.54 74.92 C 17.17 76.51 17.85 78.08 18.43 79.69 C 19.00 81.45 19.54 83.24 20.42 84.88 C 21.11 86.11 21.82 87.33 22.50 88.57 C 23.37 90.24 24.24 91.93 25.37 93.46 C 28.36 97.37 32.38 100.30 36.34 103.16 C 41.42 107.25 47.35 110.12 53.15 113.05 C 58.32 115.44 63.84 118.52 69.74 117.53 C 70.53 118.05 71.29 118.65 71.70 119.55 C 70.17 119.03 65.36 117.53 67.78 120.63 C 60.34 117.90 52.26 116.01 45.99 110.91 C 40.17 107.19 33.94 103.96 28.93 99.12 C 22.73 93.66 19.19 85.93 16.34 78.34 C 14.04 71.68 11.94 64.85 11.48 57.77 C 11.25 49.93 11.88 42.03 10.74 34.23 C 10.50 32.74 10.45 31.23 10.63 29.73 C 12.24 30.73 14.68 31.84 16.08 29.85 C 17.57 26.15 14.12 21.46 17.20 18.29 Z" />
<path fill="#33661f" opacity="1.00" d=" M 23.56 25.61 C 25.67 25.05 27.84 25.75 29.97 25.51 C 32.66 25.46 35.55 24.48 38.08 25.79 C 41.80 28.66 42.37 33.73 42.90 38.07 C 40.20 35.91 39.93 32.36 38.52 29.46 C 34.29 25.99 27.97 29.03 23.56 25.61 Z" />
<path fill="#33661f" opacity="1.00" d=" M 46.74 29.41 C 57.25 34.59 67.77 40.39 75.60 49.33 C 80.01 54.02 85.61 58.94 85.51 65.95 C 85.26 67.59 85.76 70.14 83.83 70.90 C 78.67 65.36 77.22 57.33 72.51 51.40 C 66.29 43.52 57.73 37.99 49.50 32.45 C 48.35 31.67 47.58 30.49 46.74 29.41 Z" />
<path fill="#33661f" opacity="1.00" d=" M 14.09 37.45 C 20.91 47.77 26.81 59.67 38.13 65.86 C 42.46 68.89 47.99 68.73 52.61 70.98 C 47.68 71.88 42.39 71.51 37.89 69.16 C 28.65 64.81 22.23 56.44 16.85 48.04 C 14.87 44.90 14.03 41.14 14.09 37.45 Z" />
<path fill="#33661f" opacity="1.00" d=" M 101.80 81.56 C 103.06 79.78 104.19 77.92 105.50 76.18 C 106.03 79.30 104.39 82.05 102.47 84.35 C 100.75 86.75 97.77 87.75 95.91 90.02 C 92.24 93.75 91.21 99.08 88.33 103.32 C 86.69 106.21 84.00 108.54 83.23 111.87 C 82.22 116.53 76.44 116.45 72.83 117.96 C 75.09 115.81 77.60 113.96 79.88 111.83 C 83.82 108.02 84.74 102.31 87.99 98.02 C 91.96 92.52 96.53 87.50 100.39 81.92 C 100.74 81.83 101.44 81.65 101.80 81.56 Z" />
</g>
<g id="#f1f7e9ff">
<path fill="#f1f7e9" opacity="1.00" d=" M 0.33 0.00 L 151.00 0.00 L 151.00 168.00 L 0.00 168.00 L 0.00 0.33 C 0.08 0.24 0.25 0.08 0.33 0.00 M 129.70 8.80 C 121.58 18.91 111.25 26.91 102.62 36.54 C 100.84 39.08 97.72 41.98 99.30 45.37 C 90.39 35.08 78.12 28.48 65.67 23.46 C 54.02 18.98 41.74 15.54 29.18 15.43 C 25.08 15.64 20.90 16.50 17.20 18.29 C 14.12 21.46 17.57 26.15 16.08 29.85 C 14.68 31.84 12.24 30.73 10.63 29.73 C 10.45 31.23 10.50 32.74 10.74 34.23 C 11.88 42.03 11.25 49.93 11.48 57.77 C 11.94 64.85 14.04 71.68 16.34 78.34 C 19.19 85.93 22.73 93.66 28.93 99.12 C 33.94 103.96 40.17 107.19 45.99 110.91 C 41.82 111.17 38.89 114.38 36.18 117.19 C 27.51 126.93 20.58 138.12 11.41 147.42 C 10.07 149.02 7.94 150.54 8.09 152.85 C 7.84 154.95 10.74 154.33 12.00 154.39 C 20.04 153.28 27.62 150.11 34.96 146.78 C 44.35 142.64 52.10 135.70 59.36 128.61 C 62.19 125.97 64.59 122.86 67.78 120.63 C 65.36 117.53 70.17 119.03 71.70 119.55 L 71.97 120.51 C 75.33 122.57 79.11 124.18 83.06 124.61 C 85.28 123.47 86.55 121.12 88.38 119.47 C 91.51 118.78 94.88 120.22 97.83 118.82 C 101.52 116.54 99.67 111.42 102.33 108.48 C 104.88 104.73 110.55 107.75 113.30 104.29 C 116.70 99.88 108.84 94.44 113.26 90.26 C 115.50 89.33 117.79 87.86 117.61 85.05 C 116.87 79.49 112.99 74.90 109.09 71.10 L 108.11 71.19 C 108.87 69.84 109.20 68.39 109.09 66.84 C 109.32 67.05 109.78 67.46 110.01 67.67 C 110.05 65.40 112.12 64.19 113.43 62.66 C 120.74 54.86 127.91 46.36 131.14 35.97 C 134.16 26.91 136.88 17.60 137.62 8.03 C 137.50 6.23 137.89 2.54 134.95 3.47 C 132.80 4.82 131.27 6.87 129.70 8.80 Z" />
</g>
<g id="#1f4f11ff">
<path fill="#1f4f11" opacity="1.00" d=" M 129.70 8.80 C 131.27 6.87 132.80 4.82 134.95 3.47 C 137.89 2.54 137.50 6.23 137.62 8.03 C 136.88 17.60 134.16 26.91 131.14 35.97 C 127.91 46.36 120.74 54.86 113.43 62.66 C 112.12 64.19 110.05 65.40 110.01 67.67 C 109.78 67.46 109.32 67.05 109.09 66.84 C 107.68 64.12 107.12 61.08 106.46 58.11 C 105.40 53.26 102.64 48.96 99.30 45.37 C 97.72 41.98 100.84 39.08 102.62 36.54 C 111.25 26.91 121.58 18.91 129.70 8.80 Z" />
<path fill="#1f4f11" opacity="1.00" d=" M 35.08 35.66 C 31.44 35.41 28.83 31.82 30.95 28.49 C 32.61 28.38 34.27 28.43 35.93 28.59 C 36.56 30.07 37.15 31.57 37.64 33.10 C 36.75 33.91 35.89 34.77 35.08 35.66 Z" />
<path fill="#1f4f11" opacity="1.00" d=" M 36.75 47.00 C 38.48 44.35 42.04 46.02 44.42 46.72 C 44.56 47.66 44.71 48.60 44.86 49.54 C 43.47 49.93 42.08 50.31 40.68 50.66 C 44.46 50.40 48.18 51.39 51.96 51.12 C 57.92 50.37 62.38 55.19 65.98 59.21 C 66.10 59.67 66.33 60.59 66.45 61.05 C 60.04 60.95 54.77 66.28 48.36 65.51 C 43.46 63.43 41.76 57.80 41.07 52.97 C 38.98 51.53 36.92 49.73 36.75 47.00 Z" />
<path fill="#1f4f11" opacity="1.00" d=" M 106.37 68.50 L 106.82 67.34 C 106.83 68.34 106.87 70.32 106.89 71.32 C 107.20 71.28 107.80 71.22 108.11 71.19 L 109.09 71.10 C 112.99 74.90 116.87 79.49 117.61 85.05 C 117.79 87.86 115.50 89.33 113.26 90.26 C 108.84 94.44 116.70 99.88 113.30 104.29 C 110.55 107.75 104.88 104.73 102.33 108.48 C 99.67 111.42 101.52 116.54 97.83 118.82 C 94.88 120.22 91.51 118.78 88.38 119.47 C 86.55 121.12 85.28 123.47 83.06 124.61 C 79.11 124.18 75.33 122.57 71.97 120.51 L 71.70 119.55 C 71.29 118.65 70.53 118.05 69.74 117.53 C 69.28 116.04 68.96 114.32 70.02 112.99 C 73.10 108.62 79.21 107.61 81.91 102.88 C 85.05 97.79 89.29 93.50 92.46 88.44 C 96.36 82.38 97.96 75.03 102.54 69.39 C 102.99 69.17 103.90 68.73 104.35 68.51 C 105.14 73.38 102.98 77.95 100.39 81.92 C 96.53 87.50 91.96 92.52 87.99 98.02 C 84.74 102.31 83.82 108.02 79.88 111.83 C 77.60 113.96 75.09 115.81 72.83 117.96 C 76.44 116.45 82.22 116.53 83.23 111.87 C 84.00 108.54 86.69 106.21 88.33 103.32 C 91.21 99.08 92.24 93.75 95.91 90.02 C 97.77 87.75 100.75 86.75 102.47 84.35 C 104.39 82.05 106.03 79.30 105.50 76.18 C 105.74 73.61 106.09 71.06 106.37 68.50 Z" />
<path fill="#1f4f11" opacity="1.00" d=" M 45.99 110.91 C 52.26 116.01 60.34 117.90 67.78 120.63 C 64.59 122.86 62.19 125.97 59.36 128.61 C 52.10 135.70 44.35 142.64 34.96 146.78 C 27.62 150.11 20.04 153.28 12.00 154.39 C 10.74 154.33 7.84 154.95 8.09 152.85 C 7.94 150.54 10.07 149.02 11.41 147.42 C 20.58 138.12 27.51 126.93 36.18 117.19 C 38.89 114.38 41.82 111.17 45.99 110.91 Z" />
</g>
<g id="#729d6cff">
<path fill="#729d6c" opacity="1.00" d=" M 17.38 19.46 C 25.94 15.37 35.70 16.59 44.69 18.36 C 58.66 21.42 72.26 26.58 84.38 34.22 C 84.36 37.01 86.87 38.73 87.80 41.16 C 88.18 43.17 88.30 45.21 88.61 47.24 C 89.88 44.09 89.39 40.71 88.88 37.47 C 89.72 38.07 90.57 38.66 91.38 39.31 C 93.07 43.46 94.28 47.79 93.49 52.31 C 94.72 49.33 95.26 46.15 95.19 42.94 C 101.78 49.80 105.44 59.11 106.37 68.50 C 106.09 71.06 105.74 73.61 105.50 76.18 C 104.19 77.92 103.06 79.78 101.80 81.56 C 101.44 81.65 100.74 81.83 100.39 81.92 C 102.98 77.95 105.14 73.38 104.35 68.51 C 103.90 68.73 102.99 69.17 102.54 69.39 C 97.96 75.03 96.36 82.38 92.46 88.44 C 89.29 93.50 85.05 97.79 81.91 102.88 C 79.21 107.61 73.10 108.62 70.02 112.99 C 68.96 114.32 69.28 116.04 69.74 117.53 C 63.84 118.52 58.32 115.44 53.15 113.05 C 47.35 110.12 41.42 107.25 36.34 103.16 C 43.04 104.45 49.47 109.32 56.53 106.61 C 52.66 105.71 48.63 105.58 44.88 104.19 C 39.07 102.19 33.98 98.63 29.01 95.12 C 27.93 94.30 26.65 93.83 25.37 93.46 C 24.24 91.93 23.37 90.24 22.50 88.57 C 27.74 91.09 31.86 95.54 37.45 97.46 C 41.14 99.15 45.26 99.01 49.21 98.66 C 39.88 98.39 31.57 93.32 24.71 87.36 C 23.44 86.28 21.91 85.59 20.42 84.88 C 19.54 83.24 19.00 81.45 18.43 79.69 C 24.70 83.72 29.23 91.26 37.24 92.03 C 32.17 88.83 26.92 85.67 22.98 81.06 C 21.08 78.77 18.95 76.67 16.54 74.92 C 15.63 72.56 14.92 70.13 14.33 67.67 C 11.17 56.11 14.05 44.00 11.68 32.31 C 13.77 31.79 17.14 32.33 17.53 29.44 C 17.84 26.13 16.99 22.80 17.38 19.46 M 23.56 25.61 C 27.97 29.03 34.29 25.99 38.52 29.46 C 39.93 32.36 40.20 35.91 42.90 38.07 C 42.37 33.73 41.80 28.66 38.08 25.79 C 35.55 24.48 32.66 25.46 29.97 25.51 C 27.84 25.75 25.67 25.05 23.56 25.61 M 35.08 35.66 C 35.89 34.77 36.75 33.91 37.64 33.10 C 37.15 31.57 36.56 30.07 35.93 28.59 C 34.27 28.43 32.61 28.38 30.95 28.49 C 28.83 31.82 31.44 35.41 35.08 35.66 M 46.74 29.41 C 47.58 30.49 48.35 31.67 49.50 32.45 C 57.73 37.99 66.29 43.52 72.51 51.40 C 77.22 57.33 78.67 65.36 83.83 70.90 C 85.76 70.14 85.26 67.59 85.51 65.95 C 85.61 58.94 80.01 54.02 75.60 49.33 C 67.77 40.39 57.25 34.59 46.74 29.41 M 14.09 37.45 C 14.03 41.14 14.87 44.90 16.85 48.04 C 22.23 56.44 28.65 64.81 37.89 69.16 C 42.39 71.51 47.68 71.88 52.61 70.98 C 47.99 68.73 42.46 68.89 38.13 65.86 C 26.81 59.67 20.91 47.77 14.09 37.45 M 36.75 47.00 C 36.92 49.73 38.98 51.53 41.07 52.97 C 41.76 57.80 43.46 63.43 48.36 65.51 C 54.77 66.28 60.04 60.95 66.45 61.05 C 66.33 60.59 66.10 59.67 65.98 59.21 C 62.38 55.19 57.92 50.37 51.96 51.12 C 48.18 51.39 44.46 50.40 40.68 50.66 C 42.08 50.31 43.47 49.93 44.86 49.54 C 44.71 48.60 44.56 47.66 44.42 46.72 C 42.04 46.02 38.48 44.35 36.75 47.00 Z" />
</g>
<g id="#98bb8dff">
<path fill="#98bb8d" opacity="1.00" d=" M 87.80 41.16 C 86.87 38.73 84.36 37.01 84.38 34.22 C 85.90 35.28 87.37 36.40 88.88 37.47 C 89.39 40.71 89.88 44.09 88.61 47.24 C 88.30 45.21 88.18 43.17 87.80 41.16 Z" />
<path fill="#98bb8d" opacity="1.00" d=" M 93.49 52.31 C 94.28 47.79 93.07 43.46 91.38 39.31 C 92.68 40.49 93.95 41.70 95.19 42.94 C 95.26 46.15 94.72 49.33 93.49 52.31 Z" />
<path fill="#98bb8d" opacity="1.00" d=" M 106.82 67.34 C 106.80 64.26 106.15 61.20 106.46 58.11 C 107.12 61.08 107.68 64.12 109.09 66.84 C 109.20 68.39 108.87 69.84 108.11 71.19 C 107.80 71.22 107.20 71.28 106.89 71.32 C 106.87 70.32 106.83 68.34 106.82 67.34 Z" />
<path fill="#98bb8d" opacity="1.00" d=" M 16.54 74.92 C 18.95 76.67 21.08 78.77 22.98 81.06 C 26.92 85.67 32.17 88.83 37.24 92.03 C 29.23 91.26 24.70 83.72 18.43 79.69 C 17.85 78.08 17.17 76.51 16.54 74.92 Z" />
<path fill="#98bb8d" opacity="1.00" d=" M 20.42 84.88 C 21.91 85.59 23.44 86.28 24.71 87.36 C 31.57 93.32 39.88 98.39 49.21 98.66 C 45.26 99.01 41.14 99.15 37.45 97.46 C 31.86 95.54 27.74 91.09 22.50 88.57 C 21.82 87.33 21.11 86.11 20.42 84.88 Z" />
<path fill="#98bb8d" opacity="1.00" d=" M 25.37 93.46 C 26.65 93.83 27.93 94.30 29.01 95.12 C 33.98 98.63 39.07 102.19 44.88 104.19 C 48.63 105.58 52.66 105.71 56.53 106.61 C 49.47 109.32 43.04 104.45 36.34 103.16 C 32.38 100.30 28.36 97.37 25.37 93.46 Z" />
</g>
</svg>
