<?xml version="1.0" encoding="UTF-8" ?>
<!DOCTYPE svg PUBLIC "-//W3C//DTD SVG 1.1//EN" "http://www.w3.org/Graphics/SVG/1.1/DTD/svg11.dtd">
<svg width="464pt" height="420pt" viewBox="0 0 464 420" version="1.1" xmlns="http://www.w3.org/2000/svg">
<g id="#c1d5bbff">
<path fill="#c1d5bb" opacity="1.00" d=" M 0.00 0.00 L 0.42 0.00 C 0.32 0.11 0.11 0.32 0.00 0.42 L 0.00 0.00 Z" />
<path fill="#c1d5bb" opacity="1.00" d=" M 263.08 170.02 C 270.30 169.85 277.69 170.74 284.74 168.86 C 283.44 175.55 281.96 182.79 279.00 189.00 C 276.78 206.11 299.81 222.10 296.16 245.22 C 295.90 249.55 296.14 253.89 296.18 258.24 C 296.08 261.17 296.03 264.15 295.97 267.10 C 291.91 276.87 302.87 282.80 310.33 278.43 C 321.08 272.39 330.21 263.26 339.39 257.96 C 343.77 256.23 348.13 254.14 352.90 253.80 C 353.39 253.84 354.37 253.93 354.86 253.97 C 355.43 253.97 356.58 253.97 357.16 253.97 C 357.89 253.98 359.35 253.98 360.08 253.99 C 379.47 254.69 396.44 272.17 396.51 291.42 C 398.38 301.19 396.16 310.87 390.87 320.97 C 386.09 328.11 381.99 335.61 380.20 344.08 C 378.03 349.95 375.30 357.98 381.65 362.35 C 391.49 362.59 385.81 375.50 386.91 381.95 C 373.51 386.63 359.77 374.41 359.38 361.75 C 356.99 353.95 359.42 345.35 360.83 336.99 C 362.37 329.79 366.31 323.43 368.34 316.35 C 380.48 304.81 380.63 278.23 361.00 274.94 C 360.53 274.96 359.58 275.00 359.10 275.02 C 350.72 273.63 344.39 279.87 337.89 283.94 C 328.67 290.74 317.92 300.59 302.98 300.00 C 297.70 297.06 288.10 299.14 282.97 292.98 C 276.40 287.76 274.92 279.58 273.77 271.79 L 273.72 270.98 C 273.42 264.69 273.77 258.39 274.04 252.10 L 274.15 251.11 C 282.39 228.05 257.12 214.47 258.43 191.34 C 256.98 183.74 263.13 176.76 263.08 170.02 Z" />
</g>
<g id="#f7fdefff">
<path fill="#f7fdef" opacity="1.00" d=" M 359.10 275.02 C 359.58 275.00 360.53 274.96 361.00 274.94 C 360.52 275.18 359.57 275.68 359.09 275.93 L 359.10 275.02 Z" />
</g>
<g id="#c3d6bfff">
<path fill="#c3d6bf" opacity="1.00" d=" M 359.01 53.42 C 367.02 40.92 376.49 22.72 394.94 22.05 C 395.02 28.92 395.25 35.80 394.81 42.66 C 383.77 47.22 379.24 59.42 374.92 69.08 C 369.34 64.15 364.93 58.02 359.01 53.42 Z" />
</g>
<g id="#5b744eff">
<path fill="#5b744e" opacity="1.00" d=" M 56.04 35.03 C 75.78 32.22 102.13 44.72 99.00 67.95 C 88.41 68.96 80.49 77.72 69.88 77.88 C 71.32 71.58 82.33 65.71 75.58 59.43 C 71.15 56.20 64.46 55.81 59.19 56.91 C 55.94 50.38 57.49 42.22 56.04 35.03 Z" />
<path fill="#5b744e" opacity="1.00" d=" M 85.27 95.33 L 85.74 95.11 C 85.65 95.29 85.46 95.67 85.37 95.86 L 85.27 95.33 Z" />
<path fill="#5b744e" opacity="1.00" d=" M 79.16 98.22 L 79.50 98.11 C 79.42 98.14 79.25 98.19 79.16 98.22 Z" />
</g>
<g id="#768e77ff">
<path fill="#768e77" opacity="1.00" d=" M 287.05 72.99 C 294.23 42.66 337.24 30.71 359.01 53.42 C 364.93 58.02 369.34 64.15 374.92 69.08 C 382.83 77.18 391.09 86.24 403.26 86.66 C 403.29 93.02 404.17 100.22 403.93 106.88 C 390.55 107.97 378.30 100.94 368.81 92.11 C 362.41 86.84 357.00 80.60 351.16 74.75 C 341.26 59.85 318.34 57.80 308.49 73.84 C 304.16 81.19 305.72 90.03 306.47 98.04 C 307.99 116.96 313.66 138.23 302.17 155.15 C 298.80 162.42 290.50 164.15 284.74 168.86 C 277.69 170.74 270.30 169.85 263.08 170.02 C 242.54 167.84 223.06 157.25 202.03 158.83 C 195.67 158.23 185.83 160.70 182.69 166.73 C 160.49 178.81 124.70 187.34 106.83 163.17 C 102.44 160.12 102.57 154.15 100.01 149.85 C 98.55 143.28 99.69 136.55 99.12 129.93 L 99.05 129.17 C 101.16 117.39 105.00 105.69 104.95 93.69 C 105.81 82.03 90.72 93.63 85.74 95.11 L 85.27 95.33 C 83.31 96.17 81.44 97.21 79.50 98.11 L 79.16 98.22 C 74.05 98.90 68.91 98.50 63.78 98.64 C 53.12 97.70 42.40 95.11 32.79 90.23 C 30.87 89.54 28.86 87.68 30.64 85.67 C 34.41 81.01 34.61 73.77 39.12 70.03 C 48.28 74.61 59.24 77.79 69.88 77.88 C 80.49 77.72 88.41 68.96 99.00 67.95 C 110.30 64.93 121.52 73.12 123.92 84.09 C 127.03 97.37 123.89 110.92 121.86 124.09 C 119.61 131.51 118.13 140.60 122.74 147.33 C 122.65 157.10 138.43 158.18 146.51 157.32 C 156.07 155.34 166.40 152.44 174.19 146.43 C 179.93 142.86 185.90 139.69 192.23 137.30 C 214.34 135.88 236.85 141.96 257.21 147.75 C 264.97 149.32 272.51 151.84 280.06 147.82 C 296.42 135.43 285.25 110.91 285.12 94.02 C 284.41 87.00 285.26 79.85 287.05 72.99 Z" />
</g>
<g id="#f2fbeaff">
</g>
<g id="#c1d6c0ff">
<path fill="#c1d6c0" opacity="1.00" d=" M 248.55 102.34 C 251.87 81.77 269.95 74.14 287.05 72.99 C 285.26 79.85 284.41 87.00 285.12 94.02 C 274.13 94.58 266.47 103.15 266.96 114.21 C 266.77 126.99 276.36 136.12 280.06 147.82 C 272.51 151.84 264.97 149.32 257.21 147.75 C 249.80 133.95 242.78 118.26 248.55 102.34 Z" />
</g>
<g id="#c1d5bdff">
<path fill="#c1d5bd" opacity="1.00" d=" M 306.47 98.04 C 305.72 90.03 304.16 81.19 308.49 73.84 C 316.61 79.68 327.97 81.98 336.03 88.94 C 339.28 89.72 345.21 98.32 347.37 92.42 C 347.40 86.22 350.34 80.79 351.16 74.75 C 357.00 80.60 362.41 86.84 368.81 92.11 C 365.45 99.94 364.53 109.95 356.00 113.99 C 336.97 122.42 322.93 98.66 306.47 98.04 Z" />
</g>
<g id="#f1f9e7ff">
</g>
<g id="#f3fbedff">
</g>
<g id="#58734aff">
<path fill="#58734a" opacity="1.00" d=" M 79.50 98.11 C 81.44 97.21 83.31 96.17 85.27 95.33 L 85.37 95.86 C 82.25 107.60 83.26 123.78 96.24 128.83 C 96.81 130.16 97.77 130.53 99.12 129.93 C 99.69 136.55 98.55 143.28 100.01 149.85 C 99.43 149.81 98.26 149.73 97.67 149.69 C 97.59 149.68 97.42 149.68 97.34 149.68 C 73.06 149.39 59.02 120.50 63.78 98.64 C 68.91 98.50 74.05 98.90 79.16 98.22 C 79.25 98.19 79.42 98.14 79.50 98.11 Z" />
</g>
<g id="#557248ff">
<path fill="#557248" opacity="1.00" d=" M 121.86 124.09 C 138.45 117.38 157.54 106.47 175.03 116.96 C 181.99 122.38 189.24 128.85 192.23 137.30 C 185.90 139.69 179.93 142.86 174.19 146.43 C 163.14 121.55 139.30 141.09 122.74 147.33 C 118.13 140.60 119.61 131.51 121.86 124.09 Z" />
<path fill="#557248" opacity="1.00" d=" M 96.24 128.83 C 96.94 128.92 98.35 129.09 99.05 129.17 L 99.12 129.93 C 97.77 130.53 96.81 130.16 96.24 128.83 Z" />
<path fill="#557248" opacity="1.00" d=" M 97.34 149.68 C 97.42 149.68 97.59 149.68 97.67 149.69 L 97.34 149.68 Z" />
</g>
<g id="#f1f9e6ff">
</g>
<g id="#5a744aff">
<path fill="#5a744a" opacity="1.00" d=" M 182.69 166.73 C 185.83 160.70 195.67 158.23 202.03 158.83 C 208.72 179.70 206.99 202.05 201.05 222.85 C 197.41 223.97 198.40 228.93 199.06 231.82 C 192.82 230.18 186.06 229.72 179.87 231.77 C 179.83 210.03 190.47 188.52 182.69 166.73 Z" />
</g>
<g id="#f4fdeeff">
</g>
<g id="#57724aff">
<path fill="#57724a" opacity="1.00" d=" M 199.06 231.82 C 198.40 228.93 197.41 223.97 201.05 222.85 C 200.96 225.93 200.98 228.99 201.00 232.09 C 200.51 232.02 199.54 231.88 199.06 231.82 Z" />
<path fill="#57724a" opacity="1.00" d=" M 179.53 253.48 C 185.79 248.93 194.76 251.12 201.92 251.94 C 202.23 271.08 216.95 286.77 215.23 306.03 C 213.72 325.40 192.30 333.60 175.08 332.99 C 175.61 325.76 176.15 318.36 173.70 311.38 C 182.80 314.77 199.94 308.47 193.73 296.23 C 187.52 282.51 183.01 268.10 179.53 253.48 Z" />
<path fill="#57724a" opacity="1.00" d=" M 149.44 301.16 L 149.88 301.13 L 150.01 301.66 C 149.87 301.53 149.58 301.29 149.44 301.16 Z" />
<path fill="#57724a" opacity="1.00" d=" M 154.72 326.97 C 154.72 326.84 154.72 326.57 154.72 326.43 L 154.72 326.97 Z" />
<path fill="#57724a" opacity="1.00" d=" M 154.12 328.09 L 154.71 327.98 L 154.73 328.67 C 154.58 328.53 154.27 328.24 154.12 328.09 Z" />
</g>
<g id="#8dac8fff">
<path fill="#8dac8f" opacity="1.00" d=" M 179.87 231.77 C 186.06 229.72 192.82 230.18 199.06 231.82 C 199.54 231.88 200.51 232.02 201.00 232.09 C 223.42 233.93 243.46 245.24 264.82 251.10 C 267.85 251.59 270.95 252.06 274.04 252.10 C 273.77 258.39 273.42 264.69 273.72 270.98 C 272.70 270.72 271.81 270.95 271.04 271.66 C 246.64 271.76 225.35 256.31 201.92 251.94 C 194.76 251.12 185.79 248.93 179.53 253.48 C 160.88 266.03 169.86 293.26 173.70 311.38 C 176.15 318.36 175.61 325.76 175.08 332.99 C 169.90 363.95 129.23 377.93 105.89 358.07 C 101.72 351.42 93.54 349.64 89.26 342.85 C 81.62 334.56 71.38 326.29 59.30 329.89 C 57.79 323.74 51.68 317.68 52.65 311.72 C 63.40 305.92 78.50 307.59 88.05 315.29 C 88.90 315.96 89.88 316.44 90.84 316.94 C 91.39 317.18 92.49 317.64 93.04 317.87 C 98.24 323.06 103.37 328.71 109.75 332.39 C 116.22 340.17 125.86 348.53 136.65 346.67 C 144.53 343.45 155.25 338.66 154.73 328.67 L 154.71 327.98 L 154.72 326.97 L 154.72 326.43 C 155.97 317.70 151.70 309.94 150.01 301.66 L 149.88 301.13 C 146.12 282.46 145.65 261.24 157.02 244.99 C 163.66 239.22 170.96 233.42 179.87 231.77 Z" />
</g>
<g id="#8ca98cff">
<path fill="#8ca98c" opacity="1.00" d=" M 302.82 243.39 C 317.42 238.08 336.01 231.04 349.73 239.79 C 348.60 241.40 350.81 242.08 352.06 242.07 C 354.02 245.89 357.08 249.47 357.16 253.97 C 356.58 253.97 355.43 253.97 354.86 253.97 C 357.93 251.81 352.46 250.60 352.90 253.80 C 348.13 254.14 343.77 256.23 339.39 257.96 C 325.19 252.64 310.20 263.82 295.97 267.10 C 296.03 264.15 296.08 261.17 296.18 258.24 C 295.93 252.45 296.84 247.99 300.51 244.22 C 300.93 244.07 301.78 243.78 302.20 243.63 C 302.36 243.57 302.67 243.45 302.82 243.39 Z" />
<path fill="#8ca98c" opacity="1.00" d=" M 352.17 241.50 C 352.30 241.69 352.56 242.08 352.69 242.28 L 352.06 242.07 L 352.17 241.50 Z" />
<path fill="#8ca98c" opacity="1.00" d=" M 352.69 242.28 C 352.85 242.39 353.15 242.63 353.31 242.75 C 353.15 242.63 352.85 242.39 352.69 242.28 Z" />
<path fill="#8ca98c" opacity="1.00" d=" M 297.26 245.30 L 297.53 245.27 C 297.46 245.28 297.33 245.30 297.26 245.30 Z" />
</g>
<g id="#90ab8eff">
<path fill="#90ab8e" opacity="1.00" d=" M 352.06 242.07 C 350.81 242.08 348.60 241.40 349.73 239.79 C 350.34 240.22 351.56 241.07 352.17 241.50 L 352.06 242.07 Z" />
<path fill="#90ab8e" opacity="1.00" d=" M 352.06 242.07 L 352.69 242.28 C 352.85 242.39 353.15 242.63 353.31 242.75 C 356.97 245.48 358.94 249.67 360.08 253.99 C 359.35 253.98 357.89 253.98 357.16 253.97 C 357.08 249.47 354.02 245.89 352.06 242.07 Z" />
<path fill="#90ab8e" opacity="1.00" d=" M 302.20 243.63 C 302.36 243.57 302.67 243.45 302.82 243.39 C 302.67 243.45 302.36 243.57 302.20 243.63 Z" />
<path fill="#90ab8e" opacity="1.00" d=" M 297.53 245.27 C 298.28 245.01 299.77 244.48 300.51 244.22 C 296.84 247.99 295.93 252.45 296.18 258.24 C 296.14 253.89 295.90 249.55 296.16 245.22 L 297.26 245.30 C 297.33 245.30 297.46 245.28 297.53 245.27 Z" />
<path fill="#90ab8e" opacity="1.00" d=" M 264.82 251.10 C 267.93 251.16 271.01 251.09 274.15 251.11 L 274.04 252.10 C 270.95 252.06 267.85 251.59 264.82 251.10 Z" />
<path fill="#90ab8e" opacity="1.00" d=" M 352.90 253.80 C 352.46 250.60 357.93 251.81 354.86 253.97 C 354.37 253.93 353.39 253.84 352.90 253.80 Z" />
<path fill="#90ab8e" opacity="1.00" d=" M 271.04 271.66 C 271.81 270.95 272.70 270.72 273.72 270.98 L 273.77 271.79 C 273.09 271.76 271.72 271.69 271.04 271.66 Z" />
<path fill="#90ab8e" opacity="1.00" d=" M 337.89 283.94 C 344.39 279.87 350.72 273.63 359.10 275.02 L 359.09 275.93 C 357.60 290.08 360.43 304.49 368.34 316.35 C 366.31 323.43 362.37 329.79 360.83 336.99 C 344.06 325.16 339.27 303.81 337.89 283.94 Z" />
</g>
<g id="#f2faeaff">
</g>
<g id="#f1fbe7ff">
</g>
<g id="#f3fce9ff">
</g>
<g id="#57714aff">
<path fill="#57714a" opacity="1.00" d=" M 105.00 291.97 C 119.62 283.96 137.48 291.50 149.44 301.16 C 149.58 301.29 149.87 301.53 150.01 301.66 C 151.70 309.94 155.97 317.70 154.72 326.43 C 154.72 326.57 154.72 326.84 154.72 326.97 L 154.71 327.98 L 154.12 328.09 C 139.84 323.95 131.10 306.91 114.48 310.26 C 105.93 314.26 109.57 324.83 109.75 332.39 C 103.37 328.71 98.24 323.06 93.04 317.87 C 93.69 315.73 90.64 313.83 90.84 316.94 C 89.88 316.44 88.90 315.96 88.05 315.29 C 89.83 305.73 95.36 295.28 105.00 291.97 Z" />
</g>
<g id="#f5fbebff">
</g>
<g id="#90ab8cff">
<path fill="#90ab8c" opacity="1.00" d=" M 390.87 320.97 C 402.56 315.91 419.77 307.07 428.72 321.37 C 427.99 328.44 423.09 334.98 420.84 341.87 C 416.90 339.56 413.32 332.78 408.29 336.22 C 399.17 340.00 390.24 344.01 380.20 344.08 C 381.99 335.61 386.09 328.11 390.87 320.97 Z" />
</g>
<g id="#5a734dff">
<path fill="#5a734d" opacity="1.00" d=" M 90.84 316.94 C 90.64 313.83 93.69 315.73 93.04 317.87 C 92.49 317.64 91.39 317.18 90.84 316.94 Z" />
<path fill="#5a734d" opacity="1.00" d=" M 89.26 342.85 C 93.54 349.64 101.72 351.42 105.89 358.07 C 98.78 376.79 77.70 391.60 57.11 385.73 C 57.44 378.60 58.96 371.95 61.19 365.11 C 75.57 369.38 86.51 355.48 89.26 342.85 Z" />
</g>
</svg>
