<?xml version="1.0" encoding="UTF-8" ?>
<!DOCTYPE svg PUBLIC "-//W3C//DTD SVG 1.1//EN" "http://www.w3.org/Graphics/SVG/1.1/DTD/svg11.dtd">
<svg width="544pt" height="397pt" viewBox="0 0 544 397" version="1.1" xmlns="http://www.w3.org/2000/svg">
<g id="#edf1deff">
<path fill="#edf1de" opacity="1.00" d=" M 417.40 38.53 C 426.04 36.11 434.89 33.16 443.99 34.14 C 452.00 35.00 459.99 33.02 468.00 33.88 C 475.52 34.67 483.45 34.22 490.48 37.49 C 494.69 39.49 498.38 43.33 499.18 48.04 C 499.51 52.62 496.36 56.32 493.59 59.58 C 488.61 65.27 483.53 71.15 476.88 74.92 C 468.96 79.68 459.63 81.57 452.07 86.98 C 441.50 94.41 434.11 105.24 426.41 115.40 C 421.54 121.78 417.04 128.78 410.24 133.30 C 411.37 130.54 412.41 127.74 413.57 124.99 C 407.47 128.55 401.95 132.97 396.31 137.20 C 394.91 134.29 393.53 131.37 392.17 128.44 C 385.33 128.63 378.86 131.01 372.16 131.97 C 370.90 130.72 369.91 129.24 368.87 127.82 C 367.68 128.29 366.50 128.76 365.32 129.24 C 363.87 127.63 362.57 125.82 360.78 124.58 C 358.50 123.94 356.08 124.24 353.74 123.95 C 351.00 123.80 348.30 122.90 345.55 123.21 C 342.47 123.98 340.02 126.23 336.99 127.09 C 334.32 127.46 331.64 126.80 328.97 127.01 C 326.34 127.65 324.33 129.91 321.57 130.18 C 318.13 130.56 314.59 130.28 311.26 131.36 C 308.07 132.31 305.50 134.53 302.95 136.57 C 300.42 134.73 298.10 131.19 294.57 131.96 C 288.77 133.06 282.89 133.60 277.10 134.76 C 273.68 135.60 270.65 132.89 267.28 133.16 C 263.66 134.31 262.18 138.42 258.97 140.16 C 256.53 140.82 253.99 140.72 251.49 140.81 C 250.03 142.58 248.58 144.36 247.13 146.14 C 244.91 144.82 242.76 143.33 240.32 142.46 C 238.74 143.93 237.58 145.78 235.99 147.24 C 234.07 147.57 232.13 147.21 230.22 147.05 C 230.33 149.01 230.43 150.97 230.54 152.93 C 225.54 154.88 220.22 155.76 214.87 155.83 C 216.81 151.37 218.46 146.54 222.07 143.12 C 227.35 138.12 233.97 134.94 240.06 131.08 C 239.32 131.06 237.85 131.03 237.11 131.02 C 244.70 126.61 252.95 123.34 261.26 120.53 C 278.14 116.08 295.11 111.95 312.13 108.09 C 322.31 104.80 333.00 102.74 342.49 97.63 C 354.47 91.54 365.83 84.38 377.31 77.43 C 385.13 71.97 393.24 66.84 402.06 63.14 C 407.47 60.72 413.27 59.29 418.61 56.69 C 411.93 56.09 405.19 57.28 398.72 58.82 C 390.11 62.32 382.72 68.17 374.71 72.80 C 365.17 79.50 354.83 84.93 344.68 90.64 C 332.86 96.28 320.26 101.76 306.89 101.30 C 302.77 100.88 297.69 100.59 295.08 96.87 C 292.67 92.72 296.48 88.06 300.35 86.61 C 308.83 83.30 317.68 81.07 326.47 78.74 C 333.06 76.95 339.30 73.96 344.88 70.02 C 353.59 63.61 363.97 60.19 373.69 55.67 C 387.88 49.02 402.62 43.67 417.40 38.53 M 441.11 46.07 C 439.40 46.53 437.61 47.14 436.40 48.49 C 435.63 50.71 436.65 53.17 438.68 54.30 C 443.44 57.19 449.90 57.45 454.78 54.72 C 458.20 52.75 459.60 48.86 460.07 45.15 C 453.77 43.97 447.30 44.56 441.11 46.07 Z" />
<path fill="#edf1de" opacity="1.00" d=" M 118.41 267.81 C 122.44 267.67 126.78 267.10 130.38 269.37 C 127.65 272.03 125.16 274.93 122.73 277.87 C 118.42 282.15 113.10 285.47 109.75 290.68 C 102.30 301.99 96.80 314.61 93.60 327.77 C 91.71 333.72 91.05 340.23 87.60 345.57 C 85.60 348.97 80.74 348.15 78.32 345.69 C 72.90 340.59 69.78 332.45 72.00 325.13 C 73.71 320.53 77.20 316.95 79.76 312.84 C 82.80 308.20 84.10 302.70 86.91 297.93 C 90.67 291.26 96.24 285.92 101.11 280.09 C 103.43 277.54 105.59 274.50 108.97 273.29 C 112.47 272.14 115.68 270.29 118.41 267.81 Z" />
</g>
<g id="#56663dff">
<path fill="#56663d" opacity="1.00" d=" M 419.72 32.54 C 427.25 29.94 435.23 28.77 443.18 29.21 C 451.46 29.74 459.72 28.02 467.99 28.86 C 473.86 29.43 479.77 29.69 485.60 30.61 C 492.66 31.59 499.20 36.06 502.70 42.26 C 505.59 47.52 503.98 54.00 500.64 58.65 C 495.38 65.91 489.60 73.11 481.89 77.91 C 473.50 83.44 463.37 85.51 455.00 91.06 C 443.67 98.76 437.04 111.13 428.61 121.56 C 424.90 125.86 421.67 130.61 417.45 134.45 C 414.72 137.12 411.43 139.52 409.87 143.12 C 408.85 145.57 410.94 148.07 413.32 148.53 C 419.52 150.28 426.48 151.69 432.55 148.71 C 443.94 143.69 453.67 135.73 464.24 129.27 C 470.40 125.19 478.16 121.99 485.56 124.47 C 489.31 126.16 488.85 131.32 487.37 134.47 C 482.83 144.21 475.94 153.13 466.69 158.80 C 459.94 163.18 454.15 168.79 447.99 173.90 C 437.66 180.19 425.20 184.05 413.06 182.18 C 404.75 180.25 396.53 177.75 388.03 176.80 C 372.79 175.26 356.87 179.48 344.71 188.87 C 336.21 195.27 328.16 202.27 319.49 208.44 C 312.76 212.08 306.03 216.13 298.45 217.74 C 295.72 218.42 293.18 219.65 290.63 220.81 C 286.52 222.75 281.94 223.27 277.63 224.63 C 268.68 227.45 260.14 231.48 252.03 236.18 C 240.44 244.02 230.19 253.59 219.09 262.09 C 213.78 266.07 208.98 270.71 203.61 274.61 C 187.97 284.37 171.76 293.22 156.35 303.36 C 149.82 307.43 144.44 313.18 141.06 320.11 C 135.61 331.56 131.03 343.57 129.02 356.15 C 127.82 363.18 127.55 370.94 122.67 376.64 C 116.37 385.68 102.56 387.56 93.72 381.29 C 88.83 378.15 84.00 373.30 84.50 367.00 C 84.45 358.07 91.53 351.86 95.66 344.67 C 101.64 333.26 108.38 322.27 115.44 311.50 C 118.72 306.53 122.73 302.12 126.55 297.57 C 136.40 285.79 149.98 278.20 162.13 269.13 C 165.96 266.33 169.36 262.96 171.95 258.98 C 164.06 261.49 157.00 265.89 149.67 269.63 C 140.29 274.36 130.97 279.33 122.38 285.38 C 109.64 296.21 103.21 312.44 98.89 328.17 C 95.74 335.94 94.79 345.32 87.93 350.96 C 84.78 354.01 79.63 353.13 76.44 350.61 C 68.06 344.20 63.97 332.50 67.36 322.35 C 68.64 317.56 72.19 313.98 75.10 310.13 C 79.05 304.65 80.63 297.90 84.27 292.25 C 93.75 277.96 106.84 266.42 121.21 257.22 C 129.39 251.43 139.52 248.01 145.73 239.73 C 149.05 235.05 152.20 230.25 155.74 225.73 C 157.89 223.32 157.35 219.95 157.74 217.00 C 157.96 212.81 160.40 209.17 163.12 206.13 C 167.06 201.53 173.87 200.42 177.07 195.03 C 182.52 186.58 186.56 177.30 191.77 168.70 C 195.03 163.37 197.71 157.62 201.86 152.90 C 208.21 145.90 214.41 138.59 222.37 133.34 C 238.54 122.38 257.25 115.69 276.19 111.35 C 283.50 109.28 291.12 108.47 298.34 106.02 C 294.51 102.90 288.60 99.91 289.57 94.01 C 289.57 87.44 295.46 83.73 299.44 79.43 C 302.93 75.68 307.69 73.56 312.27 71.50 C 323.64 67.14 333.32 59.48 344.33 54.40 C 369.07 45.85 394.41 39.12 419.72 32.54 M 417.40 38.53 C 402.62 43.67 387.88 49.02 373.69 55.67 C 363.97 60.19 353.59 63.61 344.88 70.02 C 339.30 73.96 333.06 76.95 326.47 78.74 C 317.68 81.07 308.83 83.30 300.35 86.61 C 296.48 88.06 292.67 92.72 295.08 96.87 C 297.69 100.59 302.77 100.88 306.89 101.30 C 320.26 101.76 332.86 96.28 344.68 90.64 C 354.83 84.93 365.17 79.50 374.71 72.80 C 382.72 68.17 390.11 62.32 398.72 58.82 C 405.19 57.28 411.93 56.09 418.61 56.69 C 413.27 59.29 407.47 60.72 402.06 63.14 C 393.24 66.84 385.13 71.97 377.31 77.43 C 365.83 84.38 354.47 91.54 342.49 97.63 C 333.00 102.74 322.31 104.80 312.13 108.09 C 295.11 111.95 278.14 116.08 261.26 120.53 C 252.95 123.34 244.70 126.61 237.11 131.02 C 234.88 131.54 232.92 132.79 230.95 133.90 C 220.91 139.86 211.82 147.68 205.31 157.42 C 200.89 163.76 196.60 170.22 193.15 177.16 C 190.58 182.48 187.24 187.38 184.69 192.72 C 182.60 196.95 180.05 201.25 175.96 203.83 C 172.51 206.04 168.13 207.25 165.94 210.99 C 164.20 213.87 161.95 217.05 162.41 220.58 C 164.09 224.82 169.89 225.64 173.56 223.65 C 177.72 221.26 180.71 217.38 184.50 214.52 C 189.54 210.44 196.19 209.58 202.32 208.26 C 208.16 206.96 214.33 207.72 220.00 205.61 C 223.27 205.55 226.54 205.44 229.81 205.47 C 229.39 207.00 229.84 209.20 228.15 210.04 C 222.79 211.43 216.51 210.19 211.99 214.06 C 204.00 220.42 197.71 228.65 191.84 236.93 C 186.57 245.03 180.85 252.86 176.43 261.47 C 173.07 268.25 166.26 272.02 160.55 276.54 C 153.88 281.21 147.21 285.87 140.64 290.68 C 136.71 293.70 133.58 297.57 130.11 301.08 C 123.35 307.90 118.54 316.27 113.13 324.12 C 108.40 330.95 105.33 338.77 100.55 345.57 C 96.92 350.75 93.28 356.00 90.72 361.81 C 89.13 365.45 88.94 370.13 91.67 373.29 C 95.00 377.22 99.98 379.64 105.08 380.18 C 110.92 380.88 116.32 377.16 119.64 372.65 C 123.08 367.15 122.97 360.41 124.34 354.25 C 126.02 346.46 127.91 338.68 130.43 331.12 C 134.66 321.70 138.54 311.57 146.44 304.52 C 154.45 297.92 163.39 292.59 172.31 287.32 C 184.22 279.46 197.66 273.92 208.50 264.48 C 220.01 254.60 231.56 244.74 243.80 235.78 C 257.16 225.91 272.99 220.16 288.90 215.89 C 296.79 212.89 304.74 209.96 312.45 206.51 C 321.21 201.57 329.01 195.11 336.76 188.73 C 341.35 184.98 346.78 182.39 351.30 178.54 C 356.22 176.90 360.71 174.06 365.83 173.01 C 379.59 170.32 394.04 171.33 407.34 175.77 C 411.41 177.11 415.60 178.71 419.98 178.24 C 430.76 176.95 441.52 173.13 449.64 165.70 C 457.16 158.80 466.17 153.66 473.24 146.25 C 477.41 140.90 482.20 135.54 483.58 128.69 C 479.06 128.33 474.51 129.21 470.60 131.54 C 460.53 137.15 451.32 144.14 441.87 150.68 C 434.92 154.46 426.83 156.49 418.93 155.16 C 413.33 154.50 406.73 152.22 404.51 146.55 C 403.37 141.24 408.26 137.66 410.24 133.30 C 417.04 128.78 421.54 121.78 426.41 115.40 C 434.11 105.24 441.50 94.41 452.07 86.98 C 459.63 81.57 468.96 79.68 476.88 74.92 C 483.53 71.15 488.61 65.27 493.59 59.58 C 496.36 56.32 499.51 52.62 499.18 48.04 C 498.38 43.33 494.69 39.49 490.48 37.49 C 483.45 34.22 475.52 34.67 468.00 33.88 C 459.99 33.02 452.00 35.00 443.99 34.14 C 434.89 33.16 426.04 36.11 417.40 38.53 M 188.53 218.59 C 182.96 223.00 178.06 228.79 170.81 230.43 C 167.44 229.76 164.18 228.68 160.88 227.74 C 156.75 232.78 153.14 238.20 149.47 243.57 C 146.39 248.13 141.65 251.12 136.99 253.85 C 130.67 257.49 124.43 261.27 118.39 265.35 C 115.00 267.67 111.12 269.62 108.97 273.29 C 105.59 274.50 103.43 277.54 101.11 280.09 C 96.24 285.92 90.67 291.26 86.91 297.93 C 84.10 302.70 82.80 308.20 79.76 312.84 C 77.20 316.95 73.71 320.53 72.00 325.13 C 69.78 332.45 72.90 340.59 78.32 345.69 C 80.74 348.15 85.60 348.97 87.60 345.57 C 91.05 340.23 91.71 333.72 93.60 327.77 C 96.80 314.61 102.30 301.99 109.75 290.68 C 113.10 285.47 118.42 282.15 122.73 277.87 C 125.38 277.08 127.90 275.92 130.29 274.52 C 138.44 269.92 146.61 265.36 154.86 260.94 C 161.91 257.34 169.43 254.51 175.86 249.81 C 178.21 248.12 179.98 245.72 181.07 243.06 C 188.10 233.29 194.55 222.99 203.28 214.60 C 198.24 215.20 192.63 215.14 188.53 218.59 Z" />
<path fill="#56663d" opacity="1.00" d=" M 441.11 46.07 C 447.30 44.56 453.77 43.97 460.07 45.15 C 459.60 48.86 458.20 52.75 454.78 54.72 C 449.90 57.45 443.44 57.19 438.68 54.30 C 436.65 53.17 435.63 50.71 436.40 48.49 C 437.61 47.14 439.40 46.53 441.11 46.07 Z" />
</g>
<g id="#d6e0c7ff">
<path fill="#d6e0c7" opacity="1.00" d=" M 345.55 123.21 C 348.30 122.90 351.00 123.80 353.74 123.95 C 356.08 124.24 358.50 123.94 360.78 124.58 C 362.57 125.82 363.87 127.63 365.32 129.24 C 366.50 128.76 367.68 128.29 368.87 127.82 C 369.91 129.24 370.90 130.72 372.16 131.97 C 378.86 131.01 385.33 128.63 392.17 128.44 C 393.53 131.37 394.91 134.29 396.31 137.20 C 401.95 132.97 407.47 128.55 413.57 124.99 C 412.41 127.74 411.37 130.54 410.24 133.30 C 408.26 137.66 403.37 141.24 404.51 146.55 C 406.73 152.22 413.33 154.50 418.93 155.16 C 426.83 156.49 434.92 154.46 441.87 150.68 C 451.32 144.14 460.53 137.15 470.60 131.54 C 474.51 129.21 479.06 128.33 483.58 128.69 C 482.20 135.54 477.41 140.90 473.24 146.25 C 466.17 153.66 457.16 158.80 449.64 165.70 C 441.52 173.13 430.76 176.95 419.98 178.24 C 415.60 178.71 411.41 177.11 407.34 175.77 C 394.04 171.33 379.59 170.32 365.83 173.01 C 360.71 174.06 356.22 176.90 351.30 178.54 C 349.66 179.09 348.01 179.59 346.37 180.10 C 346.28 178.99 346.20 177.88 346.12 176.77 C 342.67 177.38 339.15 177.05 335.86 175.84 C 334.98 176.65 334.10 177.46 333.22 178.27 C 332.74 175.87 332.27 173.47 331.82 171.06 C 329.45 174.00 326.48 176.38 323.01 177.89 C 322.66 175.88 322.30 173.88 321.82 171.90 C 320.19 172.99 318.58 174.08 316.97 175.20 C 317.22 176.62 317.48 178.04 317.73 179.46 C 316.35 179.59 314.98 179.72 313.60 179.85 C 312.60 181.17 311.59 182.48 310.59 183.80 C 309.50 183.10 308.41 182.40 307.32 181.71 C 306.75 182.86 306.19 184.02 305.64 185.18 C 305.06 183.34 304.46 181.50 303.90 179.65 C 303.35 179.67 302.80 179.70 302.26 179.74 C 301.16 180.88 300.14 182.13 298.88 183.09 C 297.32 182.72 295.83 182.12 294.32 181.58 C 289.55 182.28 284.87 181.02 280.37 179.56 C 281.30 180.94 282.25 182.33 283.19 183.72 C 281.15 183.91 279.05 183.87 277.09 184.53 C 275.13 186.34 274.10 188.90 272.73 191.15 C 268.49 190.22 264.16 189.82 259.83 189.74 C 259.11 191.40 258.39 193.05 257.66 194.71 C 256.47 194.32 255.28 193.93 254.09 193.55 C 253.23 194.44 252.37 195.34 251.51 196.24 C 250.46 196.20 249.43 196.17 248.39 196.14 C 246.72 198.65 245.06 201.15 243.37 203.63 C 241.49 202.42 239.62 201.21 237.74 200.00 C 236.43 201.33 235.18 202.75 233.63 203.81 C 229.09 204.48 224.33 203.76 220.00 205.61 C 214.33 207.72 208.16 206.96 202.32 208.26 C 196.19 209.58 189.54 210.44 184.50 214.52 C 180.71 217.38 177.72 221.26 173.56 223.65 C 169.89 225.64 164.09 224.82 162.41 220.58 C 161.95 217.05 164.20 213.87 165.94 210.99 C 168.13 207.25 172.51 206.04 175.96 203.83 C 180.05 201.25 182.60 196.95 184.69 192.72 C 187.24 187.38 190.58 182.48 193.15 177.16 C 196.60 170.22 200.89 163.76 205.31 157.42 C 211.82 147.68 220.91 139.86 230.95 133.90 C 232.92 132.79 234.88 131.54 237.11 131.02 C 237.85 131.03 239.32 131.06 240.06 131.08 C 233.97 134.94 227.35 138.12 222.07 143.12 C 218.46 146.54 216.81 151.37 214.87 155.83 C 220.22 155.76 225.54 154.88 230.54 152.93 C 230.43 150.97 230.33 149.01 230.22 147.05 C 232.13 147.21 234.07 147.57 235.99 147.24 C 237.58 145.78 238.74 143.93 240.32 142.46 C 242.76 143.33 244.91 144.82 247.13 146.14 C 248.58 144.36 250.03 142.58 251.49 140.81 C 253.99 140.72 256.53 140.82 258.97 140.16 C 262.18 138.42 263.66 134.31 267.28 133.16 C 270.65 132.89 273.68 135.60 277.10 134.76 C 282.89 133.60 288.77 133.06 294.57 131.96 C 298.10 131.19 300.42 134.73 302.95 136.57 C 305.50 134.53 308.07 132.31 311.26 131.36 C 314.59 130.28 318.13 130.56 321.57 130.18 C 324.33 129.91 326.34 127.65 328.97 127.01 C 331.64 126.80 334.32 127.46 336.99 127.09 C 340.02 126.23 342.47 123.98 345.55 123.21 Z" />
</g>
<g id="#c5cdafff">
<path fill="#c5cdaf" opacity="1.00" d=" M 323.01 177.89 C 326.48 176.38 329.45 174.00 331.82 171.06 C 332.27 173.47 332.74 175.87 333.22 178.27 C 334.10 177.46 334.98 176.65 335.86 175.84 C 339.15 177.05 342.67 177.38 346.12 176.77 C 346.20 177.88 346.28 178.99 346.37 180.10 C 348.01 179.59 349.66 179.09 351.30 178.54 C 346.78 182.39 341.35 184.98 336.76 188.73 C 329.01 195.11 321.21 201.57 312.45 206.51 C 304.74 209.96 296.79 212.89 288.90 215.89 C 272.99 220.16 257.16 225.91 243.80 235.78 C 231.56 244.74 220.01 254.60 208.50 264.48 C 197.66 273.92 184.22 279.46 172.31 287.32 C 163.39 292.59 154.45 297.92 146.44 304.52 C 138.54 311.57 134.66 321.70 130.43 331.12 C 127.91 338.68 126.02 346.46 124.34 354.25 C 122.97 360.41 123.08 367.15 119.64 372.65 C 116.32 377.16 110.92 380.88 105.08 380.18 C 99.98 379.64 95.00 377.22 91.67 373.29 C 88.94 370.13 89.13 365.45 90.72 361.81 C 93.28 356.00 96.92 350.75 100.55 345.57 C 105.33 338.77 108.40 330.95 113.13 324.12 C 118.54 316.27 123.35 307.90 130.11 301.08 C 133.58 297.57 136.71 293.70 140.64 290.68 C 147.21 285.87 153.88 281.21 160.55 276.54 C 166.26 272.02 173.07 268.25 176.43 261.47 C 180.85 252.86 186.57 245.03 191.84 236.93 C 197.71 228.65 204.00 220.42 211.99 214.06 C 216.51 210.19 222.79 211.43 228.15 210.04 C 229.84 209.20 229.39 207.00 229.81 205.47 C 226.54 205.44 223.27 205.55 220.00 205.61 C 224.33 203.76 229.09 204.48 233.63 203.81 C 235.18 202.75 236.43 201.33 237.74 200.00 C 239.62 201.21 241.49 202.42 243.37 203.63 C 245.06 201.15 246.72 198.65 248.39 196.14 C 249.43 196.17 250.46 196.20 251.51 196.24 C 252.37 195.34 253.23 194.44 254.09 193.55 C 255.28 193.93 256.47 194.32 257.66 194.71 C 258.39 193.05 259.11 191.40 259.83 189.74 C 264.16 189.82 268.49 190.22 272.73 191.15 C 274.10 188.90 275.13 186.34 277.09 184.53 C 279.05 183.87 281.15 183.91 283.19 183.72 C 282.25 182.33 281.30 180.94 280.37 179.56 C 284.87 181.02 289.55 182.28 294.32 181.58 C 295.83 182.12 297.32 182.72 298.88 183.09 C 300.14 182.13 301.16 180.88 302.26 179.74 C 302.80 179.70 303.35 179.67 303.90 179.65 C 304.46 181.50 305.06 183.34 305.64 185.18 C 306.19 184.02 306.75 182.86 307.32 181.71 C 308.41 182.40 309.50 183.10 310.59 183.80 C 311.59 182.48 312.60 181.17 313.60 179.85 C 314.98 179.72 316.35 179.59 317.73 179.46 C 317.48 178.04 317.22 176.62 316.97 175.20 C 318.58 174.08 320.19 172.99 321.82 171.90 C 322.30 173.88 322.66 175.88 323.01 177.89 Z" />
<path fill="#c5cdaf" opacity="1.00" d=" M 176.58 230.44 C 179.23 229.29 181.07 226.94 183.13 224.99 C 184.01 225.30 184.89 225.60 185.78 225.91 C 183.41 231.40 183.15 237.48 181.07 243.06 C 179.98 245.72 178.21 248.12 175.86 249.81 C 169.43 254.51 161.91 257.34 154.86 260.94 C 146.61 265.36 138.44 269.92 130.29 274.52 C 127.90 275.92 125.38 277.08 122.73 277.87 C 125.16 274.93 127.65 272.03 130.38 269.37 C 126.78 267.10 122.44 267.67 118.41 267.81 C 115.68 270.29 112.47 272.14 108.97 273.29 C 111.12 269.62 115.00 267.67 118.39 265.35 C 124.43 261.27 130.67 257.49 136.99 253.85 C 141.65 251.12 146.39 248.13 149.47 243.57 C 153.14 238.20 156.75 232.78 160.88 227.74 C 164.18 228.68 167.44 229.76 170.81 230.43 C 172.72 230.62 174.68 230.89 176.58 230.44 Z" />
</g>
<g id="#99a07aff">
<path fill="#99a07a" opacity="1.00" d=" M 188.53 218.59 C 192.63 215.14 198.24 215.20 203.28 214.60 C 194.55 222.99 188.10 233.29 181.07 243.06 C 183.15 237.48 183.41 231.40 185.78 225.91 C 184.89 225.60 184.01 225.30 183.13 224.99 C 181.07 226.94 179.23 229.29 176.58 230.44 C 174.68 230.89 172.72 230.62 170.81 230.43 C 178.06 228.79 182.96 223.00 188.53 218.59 Z" />
</g>
</svg>
