<?xml version="1.0" encoding="UTF-8" ?>
<!DOCTYPE svg PUBLIC "-//W3C//DTD SVG 1.1//EN" "http://www.w3.org/Graphics/SVG/1.1/DTD/svg11.dtd">
<svg width="488pt" height="383pt" viewBox="0 0 488 383" version="1.1" xmlns="http://www.w3.org/2000/svg">
<g id="#fdfef0ff">
</g>
<g id="#6c723aff">
<path fill="#6c723a" opacity="1.00" d=" M 362.96 11.17 C 365.57 5.80 374.09 8.23 375.60 13.27 C 375.76 16.65 374.73 19.95 374.58 23.32 C 378.12 23.46 382.01 24.24 385.20 22.20 C 388.09 20.47 392.61 18.79 395.21 21.81 C 398.54 27.12 395.69 35.17 389.67 37.10 C 384.81 36.59 379.97 34.67 375.04 35.84 C 372.99 36.20 371.84 38.12 370.66 39.62 C 366.43 45.72 361.89 51.60 357.91 57.87 C 354.21 63.32 351.73 69.50 347.80 74.81 C 345.51 78.07 342.55 81.69 343.57 85.97 C 344.93 89.88 349.04 92.11 350.33 96.05 C 351.20 99.62 348.62 102.87 345.85 104.77 C 339.60 108.34 330.54 106.39 327.25 99.70 C 326.96 97.62 327.46 95.54 327.70 93.47 C 324.97 93.30 322.09 93.50 319.53 92.40 C 313.31 88.87 313.66 78.05 320.08 74.99 C 323.23 75.81 325.88 77.88 329.01 78.76 C 331.99 78.12 333.37 75.13 334.82 72.78 C 336.76 69.22 339.45 66.16 341.59 62.73 C 346.01 55.12 350.26 47.41 354.44 39.66 C 356.58 35.50 359.70 31.92 361.69 27.69 C 364.00 22.43 360.99 16.48 362.96 11.17 Z" />
<path fill="#6c723a" opacity="1.00" d=" M 172.41 18.40 C 174.63 15.12 180.25 15.56 181.31 19.60 C 182.51 25.64 180.77 31.88 181.99 37.92 C 183.23 41.94 186.44 44.97 187.84 48.93 C 191.32 59.10 196.04 68.77 200.43 78.56 C 203.52 83.94 205.05 90.36 209.82 94.63 C 212.60 93.16 216.15 88.43 219.26 91.67 C 222.91 96.35 223.17 103.62 218.95 108.06 C 217.32 110.30 214.43 110.62 211.95 111.20 C 211.56 114.99 212.23 119.43 209.51 122.51 C 206.09 125.52 200.80 126.14 196.68 124.25 C 192.65 122.01 190.30 116.73 192.16 112.35 C 193.38 108.21 198.35 105.72 197.84 101.02 C 197.99 93.81 192.10 88.70 189.86 82.25 C 186.49 73.02 181.73 64.42 176.99 55.86 C 174.89 52.16 173.22 46.46 168.04 46.54 C 163.67 45.88 158.47 49.72 154.82 46.15 C 152.12 43.88 151.72 40.10 151.49 36.81 C 151.23 33.52 153.42 29.65 157.02 29.56 C 159.70 29.99 161.88 31.82 164.36 32.82 C 166.40 33.88 168.73 33.19 170.90 33.11 C 170.79 28.23 168.22 22.29 172.41 18.40 Z" />
<path fill="#6c723a" opacity="1.00" d=" M 435.64 111.77 C 444.47 109.84 453.55 111.49 462.36 112.67 C 463.23 114.52 464.10 116.36 464.98 118.21 C 456.17 120.25 447.28 116.16 438.48 118.20 C 432.96 119.13 428.48 123.03 422.94 123.88 C 413.27 125.58 403.36 124.00 393.67 125.65 C 392.08 127.80 390.22 130.11 387.29 130.20 C 378.33 131.25 369.27 130.15 360.28 130.90 C 358.56 133.30 356.63 136.00 353.44 136.35 C 342.72 138.18 331.71 137.69 321.00 139.67 C 320.41 141.47 320.29 143.55 319.06 145.06 C 317.15 145.88 315.09 146.26 313.10 146.76 C 313.33 153.48 320.36 156.32 324.75 160.19 C 331.41 165.05 334.27 176.38 327.13 182.10 C 320.07 187.04 311.23 189.01 304.82 195.03 C 303.31 193.64 301.80 192.24 300.31 190.84 C 305.44 184.14 313.93 181.98 320.97 177.99 C 322.82 177.00 324.67 175.30 324.38 172.99 C 324.43 167.81 319.67 164.70 315.95 162.00 C 312.55 159.80 309.69 156.89 307.43 153.54 C 302.13 152.88 296.85 152.14 291.57 151.37 C 293.66 155.37 296.10 159.25 297.36 163.62 C 299.18 169.90 299.61 176.49 299.58 183.00 C 299.58 188.57 299.87 194.38 297.56 199.60 C 293.49 209.25 285.08 216.15 280.55 225.55 C 279.11 225.77 277.66 225.99 276.23 226.22 C 273.31 230.98 269.65 235.33 264.87 238.31 C 263.80 236.90 262.74 235.49 261.70 234.07 C 274.01 224.05 277.44 207.03 276.31 191.91 C 275.23 185.15 274.84 178.16 272.45 171.69 C 269.73 168.09 266.89 164.55 263.71 161.34 C 262.83 160.18 261.36 160.14 260.05 160.15 C 258.16 160.10 256.28 160.12 254.40 160.04 C 249.98 159.05 245.62 157.79 241.16 156.95 C 244.02 159.60 246.81 162.36 249.09 165.55 C 250.94 168.02 252.76 170.52 254.55 173.05 C 257.74 177.28 259.77 182.21 261.92 187.02 C 264.82 193.61 266.79 200.74 266.49 208.00 C 266.05 221.80 260.29 235.09 251.50 245.62 C 249.39 246.15 247.20 245.64 245.08 245.50 C 246.52 239.52 251.21 235.22 253.86 229.84 C 258.13 221.28 260.33 211.53 259.25 201.97 C 258.34 195.61 255.17 189.90 253.00 183.93 C 251.50 180.38 249.60 177.02 247.37 173.88 C 243.37 168.16 238.25 163.24 232.11 159.86 C 231.46 161.06 230.81 162.25 230.20 163.47 C 227.08 163.50 223.95 163.52 220.84 163.24 C 218.12 162.51 215.40 161.76 212.63 161.19 C 215.31 164.54 218.38 167.56 221.59 170.40 C 222.99 171.65 224.39 172.89 225.79 174.15 C 231.60 179.56 237.62 184.86 242.42 191.22 C 244.19 194.36 245.56 197.70 246.74 201.09 C 249.00 208.03 248.62 215.49 247.58 222.62 C 246.33 231.48 244.27 240.56 238.96 247.96 C 236.13 251.82 233.51 255.84 230.68 259.70 C 229.23 262.22 226.10 260.95 223.80 260.98 C 224.31 257.88 225.32 254.81 227.42 252.40 C 232.74 245.89 237.49 238.54 239.11 230.17 C 241.63 220.10 242.85 209.02 238.71 199.21 C 236.00 192.29 229.96 187.61 224.70 182.68 C 221.59 179.66 218.80 176.28 215.39 173.58 C 212.21 171.08 208.96 168.66 206.07 165.83 C 205.16 164.92 204.27 164.00 203.43 163.04 C 202.42 161.62 201.72 160.02 200.91 158.50 C 198.31 161.55 196.26 166.11 191.81 166.65 C 186.47 167.25 181.10 166.61 175.76 166.39 C 177.06 169.37 178.37 172.34 179.59 175.35 C 179.94 175.08 180.31 174.82 180.67 174.56 C 181.60 180.44 182.29 186.38 183.87 192.13 C 185.23 197.13 188.24 201.68 188.46 206.98 C 188.70 213.75 188.98 220.65 187.33 227.28 C 186.07 232.68 183.79 237.77 182.32 243.12 C 181.51 245.99 180.45 249.08 177.79 250.76 C 172.74 254.08 166.73 255.45 161.00 257.13 C 149.23 259.94 137.36 263.50 125.12 262.81 C 126.72 259.13 128.35 255.45 129.77 251.69 C 121.61 256.63 115.63 264.39 107.57 269.48 C 105.46 270.83 102.83 270.99 100.42 270.57 C 98.00 268.05 97.96 264.27 97.06 261.07 C 93.08 263.62 88.97 266.22 84.27 267.15 C 77.57 268.42 70.62 267.77 64.10 265.85 C 51.45 262.41 38.30 266.98 25.58 264.29 C 21.87 263.41 17.61 261.48 16.58 257.44 C 15.28 252.32 17.55 247.22 19.67 242.66 C 22.16 237.23 25.63 232.03 30.76 228.77 C 35.35 225.53 41.10 225.07 46.17 222.97 C 58.13 217.88 69.47 211.45 80.31 204.31 C 90.82 196.64 100.51 187.87 109.19 178.18 C 112.36 174.70 114.55 170.21 118.66 167.68 C 129.53 161.24 142.23 157.85 154.88 158.46 C 159.09 158.66 163.09 160.23 167.28 160.48 C 170.86 160.33 174.39 159.26 178.00 159.66 C 182.21 159.86 186.54 161.11 190.70 159.93 C 193.48 157.22 194.42 152.01 198.96 151.68 C 207.51 150.26 215.22 154.88 223.24 156.89 C 224.11 154.18 224.08 150.25 227.51 149.48 C 235.23 146.98 243.18 150.23 250.61 152.29 C 254.08 153.73 254.78 148.13 258.04 147.95 C 264.72 147.24 271.00 150.40 277.59 150.99 C 278.35 148.26 278.72 144.52 282.09 143.82 C 288.17 142.73 294.10 145.41 300.15 145.71 C 301.15 143.40 301.63 140.21 304.36 139.29 C 306.96 138.46 309.74 138.60 312.45 138.40 C 314.25 136.54 315.93 134.24 318.59 133.60 C 328.61 130.59 339.17 131.71 349.44 130.41 C 350.71 128.72 351.83 126.84 353.52 125.53 C 355.52 124.55 357.81 124.58 359.99 124.48 C 368.08 124.39 376.18 124.69 384.28 124.40 C 386.22 121.69 388.55 118.60 392.24 118.58 C 402.45 117.99 412.83 119.02 422.91 116.89 C 427.30 115.55 431.10 112.70 435.64 111.77 M 268.01 156.71 C 270.97 160.30 274.02 163.82 277.01 167.39 C 277.01 170.44 279.22 173.67 279.75 176.87 C 280.44 181.24 281.66 185.53 282.03 189.97 C 282.92 197.07 281.97 204.20 281.82 211.31 C 286.56 207.33 289.88 201.98 292.40 196.39 C 294.05 192.83 293.90 188.82 293.92 185.00 C 293.76 175.91 293.13 166.46 288.74 158.30 C 287.11 155.44 283.87 156.09 281.63 157.84 C 277.05 158.04 272.55 157.03 268.01 156.71 M 136.76 169.60 C 129.68 170.92 122.33 174.15 118.49 180.56 C 115.11 185.76 110.12 189.57 106.24 194.35 C 100.77 199.30 94.96 203.84 89.27 208.52 C 86.51 210.34 83.77 212.20 81.19 214.29 C 70.48 220.36 59.99 227.01 48.37 231.26 C 42.93 233.20 36.43 233.72 32.59 238.59 C 28.84 243.16 25.35 248.69 25.15 254.74 C 28.43 256.62 32.35 256.48 36.01 256.51 C 44.01 256.39 52.03 256.03 60.03 256.35 C 66.49 256.54 72.47 260.21 79.02 259.27 C 87.81 258.42 94.63 249.87 103.87 251.86 C 105.90 253.28 107.35 255.33 108.94 257.19 C 111.60 255.08 114.16 252.87 116.66 250.58 C 119.80 248.17 122.71 245.49 125.61 242.81 C 131.82 237.91 138.02 232.90 143.49 227.16 C 147.40 226.07 149.85 221.65 153.95 220.47 C 150.93 229.00 145.65 236.64 143.29 245.41 C 141.36 247.45 140.54 250.17 139.89 252.83 C 149.43 251.38 158.98 249.46 168.05 246.10 C 170.05 245.29 172.53 244.62 173.33 242.35 C 175.43 237.71 176.44 232.68 177.93 227.84 C 179.99 220.58 181.73 212.59 178.89 205.29 L 179.23 204.57 C 176.16 199.25 174.43 193.33 173.73 187.25 C 172.53 180.75 170.97 172.81 164.40 169.62 C 155.66 165.91 145.64 166.89 136.76 169.60 Z" />
<path fill="#6c723a" opacity="1.00" d=" M 132.30 186.37 C 137.75 183.11 144.14 180.50 150.61 181.43 C 155.24 182.04 158.05 186.26 160.09 190.03 C 160.20 191.21 160.25 192.39 160.26 193.57 C 158.36 199.29 154.71 204.40 149.49 207.52 C 143.55 211.82 135.51 210.68 129.17 207.96 C 124.43 206.09 122.27 200.23 123.57 195.53 C 125.27 191.56 128.78 188.70 132.30 186.37 M 132.20 198.18 C 138.18 205.41 151.94 199.42 150.80 190.29 C 143.59 188.64 136.84 193.08 132.20 198.18 Z" />
<path fill="#6c723a" opacity="1.00" d=" M 350.25 222.28 C 351.91 219.98 355.02 219.77 357.56 220.41 C 361.62 223.35 359.68 228.86 359.81 233.04 C 359.42 237.46 361.90 241.29 364.20 244.81 C 367.87 250.26 369.82 256.58 372.70 262.44 C 376.02 268.65 379.42 274.84 383.24 280.77 C 384.27 282.22 385.26 283.96 387.04 284.59 C 389.92 283.62 392.78 279.83 395.95 282.00 C 400.03 286.09 399.23 294.10 394.21 297.14 C 392.39 297.95 390.37 298.11 388.44 298.49 C 388.19 301.50 389.27 305.41 386.45 307.49 C 383.62 309.97 379.63 310.14 376.08 309.78 C 372.33 309.52 368.71 306.16 369.26 302.21 C 369.08 297.49 373.89 295.02 375.29 290.96 C 376.12 285.87 371.82 282.33 369.77 278.17 C 365.67 269.32 360.37 261.10 355.16 252.87 C 353.41 250.38 351.85 247.57 349.26 245.85 C 345.13 244.12 340.75 246.27 336.53 246.26 C 332.29 244.88 331.03 239.97 331.23 235.99 C 331.13 232.74 335.18 230.11 338.04 231.89 C 341.63 233.49 345.61 235.77 349.45 233.41 C 349.02 229.78 347.09 225.24 350.25 222.28 Z" />
<path fill="#6c723a" opacity="1.00" d=" M 192.94 274.13 C 194.02 271.15 197.48 268.89 200.65 269.56 C 203.18 270.77 205.32 272.89 206.60 275.38 C 207.23 278.97 205.99 282.55 205.27 286.04 C 208.04 286.64 210.94 287.31 213.76 286.59 C 217.21 285.49 220.00 282.26 223.84 282.52 C 226.62 283.28 229.03 285.99 228.81 289.00 C 229.10 292.89 228.17 297.33 224.60 299.51 C 221.18 302.19 216.82 300.25 213.01 299.85 C 209.47 299.34 204.97 299.43 202.77 302.74 C 197.41 310.15 192.53 317.90 187.61 325.60 C 184.00 331.18 181.89 337.60 178.00 343.01 C 175.83 346.39 172.96 349.78 172.83 353.98 C 173.87 359.52 180.98 362.02 180.72 368.02 C 180.76 372.57 176.49 375.82 172.37 376.67 C 166.94 378.34 160.59 376.39 157.18 371.81 C 155.07 369.32 157.07 366.09 157.65 363.39 C 154.60 363.13 151.09 363.58 148.57 361.47 C 146.34 359.48 144.39 356.91 143.81 353.93 C 143.94 350.25 145.17 346.15 148.20 343.84 C 152.48 342.20 155.30 348.33 159.34 347.40 C 162.34 344.93 164.03 341.31 166.09 338.09 C 173.30 327.20 179.47 315.64 184.87 303.76 C 186.90 299.40 190.68 296.05 192.33 291.49 C 193.70 285.79 192.00 279.87 192.94 274.13 Z" />
</g>
<g id="#9b9a76ff">
<path fill="#9b9a76" opacity="1.00" d=" M 281.63 157.84 C 283.87 156.09 287.11 155.44 288.74 158.30 C 284.66 163.84 280.40 169.80 279.75 176.87 C 279.22 173.67 277.01 170.44 277.01 167.39 C 279.26 164.59 281.84 161.69 281.63 157.84 Z" />
<path fill="#9b9a76" opacity="1.00" d=" M 254.40 160.04 C 256.28 160.12 258.16 160.10 260.05 160.15 C 257.67 164.18 254.99 168.24 254.55 173.05 C 252.76 170.52 250.94 168.02 249.09 165.55 C 252.49 166.08 253.35 162.46 254.40 160.04 Z" />
<path fill="#9b9a76" opacity="1.00" d=" M 220.84 163.24 C 223.95 163.52 227.08 163.50 230.20 163.47 C 228.51 166.93 227.21 170.57 225.79 174.15 C 224.39 172.89 222.99 171.65 221.59 170.40 C 222.98 168.62 224.17 166.70 225.21 164.70 C 223.76 164.19 222.31 163.68 220.84 163.24 Z" />
<path fill="#9b9a76" opacity="1.00" d=" M 197.38 179.39 C 199.00 173.84 198.93 167.25 203.43 163.04 C 204.27 164.00 205.16 164.92 206.07 165.83 C 201.48 176.63 200.27 188.42 198.91 199.97 C 198.12 211.61 195.43 223.25 197.00 234.94 C 197.58 239.26 200.50 242.68 202.90 246.14 C 201.92 247.11 200.96 248.10 200.00 249.09 C 192.93 242.87 191.68 232.84 192.36 223.97 C 193.47 209.06 194.74 194.11 197.38 179.39 Z" />
<path fill="#9b9a76" opacity="1.00" d=" M 272.45 171.69 C 274.84 178.16 275.23 185.15 276.31 191.91 C 275.58 191.32 274.85 190.74 274.13 190.16 C 273.66 192.11 273.31 194.09 272.83 196.04 C 271.62 195.97 270.41 195.94 269.20 195.97 C 269.03 191.12 269.98 186.34 271.97 181.92 C 273.54 178.69 273.01 175.09 272.45 171.69 Z" />
<path fill="#9b9a76" opacity="1.00" d=" M 215.39 173.58 C 218.80 176.28 221.59 179.66 224.70 182.68 C 223.27 184.86 222.13 187.25 221.79 189.86 C 220.47 198.34 220.28 206.98 218.45 215.40 C 216.88 222.24 217.45 229.27 218.29 236.16 C 216.99 236.36 215.70 236.58 214.42 236.82 C 213.02 231.34 211.94 225.62 213.18 219.99 C 215.92 206.47 216.65 192.65 219.32 179.11 C 218.01 177.26 216.67 175.44 215.39 173.58 Z" />
<path fill="#9b9a76" opacity="1.00" d=" M 247.37 173.88 C 249.60 177.02 251.50 180.38 253.00 183.93 C 252.08 183.37 251.17 182.82 250.25 182.27 C 248.54 188.43 246.65 194.63 246.74 201.09 C 245.56 197.70 244.19 194.36 242.42 191.22 C 244.93 185.72 246.29 179.80 247.37 173.88 Z" />
</g>
<g id="#cfcda7ff">
<path fill="#cfcda7" opacity="1.00" d=" M 136.76 169.60 C 145.64 166.89 155.66 165.91 164.40 169.62 C 170.97 172.81 172.53 180.75 173.73 187.25 C 174.43 193.33 176.16 199.25 179.23 204.57 L 178.89 205.29 C 177.13 208.86 175.62 212.53 173.99 216.15 C 171.37 222.09 166.73 226.76 162.56 231.62 C 159.22 235.45 154.33 237.53 149.27 237.48 C 147.42 240.22 145.47 242.91 143.29 245.41 C 145.65 236.64 150.93 229.00 153.95 220.47 C 155.99 213.32 161.87 207.69 162.33 200.04 C 162.78 197.64 161.31 195.57 160.26 193.57 C 160.25 192.39 160.20 191.21 160.09 190.03 C 160.05 185.35 157.50 180.26 152.74 178.91 C 147.50 177.50 142.64 174.49 137.05 174.66 C 135.72 174.33 133.54 175.04 133.18 173.21 C 134.23 171.87 135.48 170.71 136.76 169.60 Z" />
<path fill="#cfcda7" opacity="1.00" d=" M 89.27 208.52 C 94.96 203.84 100.77 199.30 106.24 194.35 C 110.33 197.52 110.54 202.71 111.86 207.27 C 115.46 214.28 121.63 219.91 128.72 223.29 C 133.53 224.96 138.62 225.68 143.49 227.16 C 138.02 232.90 131.82 237.91 125.61 242.81 C 121.42 235.51 111.50 235.94 106.76 229.31 C 104.44 226.27 101.89 223.42 99.21 220.70 C 96.71 218.21 96.15 214.55 94.25 211.67 C 92.81 210.32 90.97 209.49 89.27 208.52 Z" />
</g>
<g id="#beb48eff">
<path fill="#beb48e" opacity="1.00" d=" M 118.49 180.56 C 122.33 174.15 129.68 170.92 136.76 169.60 C 135.48 170.71 134.23 171.87 133.18 173.21 C 133.54 175.04 135.72 174.33 137.05 174.66 C 142.64 174.49 147.50 177.50 152.74 178.91 C 157.50 180.26 160.05 185.35 160.09 190.03 C 158.05 186.26 155.24 182.04 150.61 181.43 C 144.14 180.50 137.75 183.11 132.30 186.37 C 128.78 188.70 125.27 191.56 123.57 195.53 C 122.27 200.23 124.43 206.09 129.17 207.96 C 135.51 210.68 143.55 211.82 149.49 207.52 C 154.71 204.40 158.36 199.29 160.26 193.57 C 161.31 195.57 162.78 197.64 162.33 200.04 C 161.87 207.69 155.99 213.32 153.95 220.47 C 149.85 221.65 147.40 226.07 143.49 227.16 C 138.62 225.68 133.53 224.96 128.72 223.29 C 121.63 219.91 115.46 214.28 111.86 207.27 C 110.54 202.71 110.33 197.52 106.24 194.35 C 110.12 189.57 115.11 185.76 118.49 180.56 Z" />
</g>
<g id="#e4e8c9ff">
<path fill="#e4e8c9" opacity="1.00" d=" M 173.99 216.15 C 175.62 212.53 177.13 208.86 178.89 205.29 C 181.73 212.59 179.99 220.58 177.93 227.84 C 176.44 232.68 175.43 237.71 173.33 242.35 C 172.53 244.62 170.05 245.29 168.05 246.10 C 158.98 249.46 149.43 251.38 139.89 252.83 C 140.54 250.17 141.36 247.45 143.29 245.41 C 145.47 242.91 147.42 240.22 149.27 237.48 C 154.33 237.53 159.22 235.45 162.56 231.62 C 166.73 226.76 171.37 222.09 173.99 216.15 Z" />
<path fill="#e4e8c9" opacity="1.00" d=" M 81.19 214.29 C 83.77 212.20 86.51 210.34 89.27 208.52 C 90.97 209.49 92.81 210.32 94.25 211.67 C 96.15 214.55 96.71 218.21 99.21 220.70 C 101.89 223.42 104.44 226.27 106.76 229.31 C 111.50 235.94 121.42 235.51 125.61 242.81 C 122.71 245.49 119.80 248.17 116.66 250.58 C 111.21 244.80 103.39 241.89 98.37 235.62 C 92.84 228.36 87.18 221.18 81.19 214.29 Z" />
</g>
</svg>
