<?xml version="1.0" encoding="UTF-8" ?>
<!DOCTYPE svg PUBLIC "-//W3C//DTD SVG 1.1//EN" "http://www.w3.org/Graphics/SVG/1.1/DTD/svg11.dtd">
<svg width="341pt" height="403pt" viewBox="0 0 341 403" version="1.1" xmlns="http://www.w3.org/2000/svg">
<g id="#f4f6e3ff">
</g>
<g id="#555e27ff">
<path fill="#555e27" opacity="1.00" d=" M 196.49 14.73 C 206.81 12.21 218.31 13.15 227.69 18.37 C 235.36 22.25 241.43 28.64 246.40 35.53 C 251.99 43.93 257.34 53.18 257.66 63.54 C 258.68 74.57 252.71 85.57 243.56 91.58 C 239.55 94.09 235.70 97.34 233.93 101.87 C 230.48 109.78 231.51 118.61 231.61 127.00 C 232.81 140.29 233.03 153.75 231.57 167.03 C 231.44 174.42 229.64 181.65 229.49 189.04 C 226.98 218.58 223.03 248.35 226.49 278.00 C 226.67 282.57 226.15 287.81 229.55 291.44 C 233.70 295.70 239.71 297.20 244.51 300.53 C 256.82 308.63 266.05 320.38 277.24 329.82 C 291.09 340.38 308.64 344.33 322.98 354.07 C 325.85 356.30 329.51 359.39 328.40 363.50 C 327.31 366.50 324.05 368.05 321.31 369.29 C 313.18 372.25 304.48 373.26 295.89 373.62 C 284.29 374.67 272.65 375.55 260.99 375.38 C 249.35 376.03 237.64 374.92 226.04 376.30 C 209.36 376.38 192.68 376.24 176.00 376.44 C 170.31 376.65 164.68 375.31 159.01 376.21 C 149.34 376.18 139.62 376.89 130.01 375.64 C 122.34 375.43 114.66 375.66 106.99 375.46 C 99.32 375.20 91.62 375.88 84.01 374.73 C 75.68 374.57 67.34 374.56 59.02 374.13 C 50.80 372.57 41.75 375.25 34.17 370.84 C 29.62 368.51 26.89 363.23 27.76 358.17 C 29.31 345.08 37.95 334.01 47.96 325.99 C 55.83 320.14 64.23 315.03 71.90 308.91 C 80.04 302.84 86.94 295.30 93.73 287.80 C 99.10 281.93 100.94 273.73 100.36 265.95 C 98.94 251.48 93.62 237.59 93.48 222.96 C 92.68 207.77 86.68 193.61 83.07 179.01 C 80.98 170.46 80.12 161.68 79.28 152.94 C 77.71 143.15 74.72 133.28 68.81 125.19 C 64.43 119.24 57.27 115.87 49.95 115.65 C 40.30 115.63 31.26 109.26 27.55 100.43 C 23.41 92.59 24.34 83.52 24.36 74.98 C 24.36 70.33 26.16 65.98 27.14 61.51 C 29.04 52.90 33.47 44.91 39.52 38.53 C 47.04 31.95 56.77 26.92 67.01 27.56 C 77.66 27.46 88.67 31.05 96.27 38.73 C 101.06 43.68 103.12 50.43 106.88 56.09 C 111.76 64.71 117.63 73.76 117.21 84.06 C 116.05 95.08 104.18 99.53 100.06 108.97 C 97.49 113.96 98.27 119.80 99.09 125.12 C 101.45 143.54 107.11 161.33 109.86 179.68 C 111.55 187.46 112.39 195.42 114.64 203.08 C 116.52 210.57 117.19 218.32 119.43 225.74 C 121.80 237.58 125.02 249.28 126.35 261.31 C 126.98 267.10 125.90 273.07 127.60 278.72 C 128.49 281.87 131.78 284.05 135.03 283.73 C 141.38 283.99 147.30 281.37 152.99 278.89 C 156.52 277.39 160.01 275.34 163.97 275.36 C 173.40 274.83 181.47 280.54 189.81 284.04 C 192.42 285.14 195.85 286.47 198.30 284.31 C 201.00 282.08 202.75 278.59 202.69 275.06 C 202.78 268.02 202.36 260.99 201.45 254.03 C 201.41 244.68 200.92 235.27 202.09 225.97 C 203.55 204.98 205.57 184.02 206.86 163.02 C 207.79 157.69 206.00 152.31 207.24 147.00 C 207.57 138.01 207.73 129.00 207.74 120.01 C 207.77 114.95 206.76 109.56 203.42 105.60 C 197.99 98.68 188.74 96.59 182.89 90.12 C 174.25 82.31 170.38 70.42 170.81 59.00 C 172.00 47.98 173.90 36.53 180.22 27.15 C 183.96 21.25 189.84 16.83 196.49 14.73 M 197.34 44.36 C 191.90 45.83 188.07 50.81 185.79 55.72 C 183.04 63.75 182.11 73.48 187.13 80.82 C 192.95 87.74 202.54 89.07 211.05 89.28 C 217.30 89.37 223.44 86.03 226.65 80.66 C 229.03 76.90 229.30 72.30 229.39 67.97 C 229.77 59.88 225.09 51.83 217.95 48.05 C 211.80 44.51 204.34 43.05 197.34 44.36 M 53.41 59.55 C 48.61 61.07 43.94 64.00 41.45 68.51 C 37.83 74.31 37.62 81.40 37.60 88.04 C 37.61 93.32 39.41 98.94 43.71 102.28 C 48.87 106.58 55.83 107.51 62.31 107.74 C 67.91 108.07 73.29 105.80 77.97 102.93 C 82.94 99.82 84.48 93.49 84.24 87.98 C 83.72 80.29 80.82 72.31 74.68 67.33 C 68.77 62.51 61.43 57.70 53.41 59.55 Z" />
<path fill="#555e27" opacity="1.00" d=" M 196.37 61.21 C 198.56 59.93 201.16 60.90 203.32 61.74 C 206.45 63.16 209.87 64.84 211.45 68.09 C 212.25 76.34 199.85 82.22 194.44 75.64 C 191.52 71.43 191.34 63.92 196.37 61.21 M 197.53 71.36 C 198.51 72.84 200.12 73.91 201.91 74.10 C 203.85 73.28 206.56 71.60 206.18 69.18 C 204.17 67.13 201.31 66.36 198.75 65.26 C 198.09 67.16 195.80 69.42 197.53 71.36 Z" />
<path fill="#555e27" opacity="1.00" d=" M 52.52 78.46 C 55.28 76.39 58.79 78.51 61.56 79.55 C 64.54 81.07 69.07 82.86 68.45 86.98 C 67.99 93.36 60.39 96.81 54.75 95.11 C 51.38 93.54 49.10 89.72 49.74 85.99 C 50.13 83.37 50.14 80.16 52.52 78.46 M 54.84 82.67 C 54.65 85.35 53.59 89.00 56.37 90.77 C 59.75 92.64 63.51 89.64 63.71 86.10 C 60.99 84.40 58.06 83.02 54.84 82.67 Z" />
</g>
<g id="#918c76ff">
<path fill="#918c76" opacity="1.00" d=" M 197.34 44.36 C 204.34 43.05 211.80 44.51 217.95 48.05 C 225.09 51.83 229.77 59.88 229.39 67.97 C 229.30 72.30 229.03 76.90 226.65 80.66 C 223.44 86.03 217.30 89.37 211.05 89.28 C 202.54 89.07 192.95 87.74 187.13 80.82 C 182.11 73.48 183.04 63.75 185.79 55.72 C 188.07 50.81 191.90 45.83 197.34 44.36 M 198.52 48.69 C 192.16 51.33 189.35 58.57 188.58 64.95 C 188.50 69.66 188.57 75.19 192.26 78.67 C 195.96 82.47 201.55 83.02 206.51 83.86 C 211.74 84.76 217.94 83.80 221.37 79.36 C 224.90 75.47 224.87 69.88 224.45 64.96 C 223.99 58.74 219.23 53.66 213.80 51.09 C 209.15 48.68 203.69 47.50 198.52 48.69 Z" />
<path fill="#918c76" opacity="1.00" d=" M 53.41 59.55 C 61.43 57.70 68.77 62.51 74.68 67.33 C 80.82 72.31 83.72 80.29 84.24 87.98 C 84.48 93.49 82.94 99.82 77.97 102.93 C 73.29 105.80 67.91 108.07 62.31 107.74 C 55.83 107.51 48.87 106.58 43.71 102.28 C 39.41 98.94 37.61 93.32 37.60 88.04 C 37.62 81.40 37.83 74.31 41.45 68.51 C 43.94 64.00 48.61 61.07 53.41 59.55 M 55.30 64.17 C 51.77 65.17 48.20 66.95 46.06 70.04 C 44.21 73.06 43.69 76.65 43.10 80.09 C 42.35 85.20 41.87 90.84 44.57 95.50 C 47.69 100.19 53.47 102.53 58.97 102.59 C 65.08 102.86 71.87 101.90 76.42 97.44 C 79.94 94.07 79.77 88.73 79.05 84.29 C 78.01 77.57 73.85 71.47 67.93 68.11 C 64.12 65.97 59.85 63.24 55.30 64.17 Z" />
<path fill="#918c76" opacity="1.00" d=" M 197.53 71.36 C 195.80 69.42 198.09 67.16 198.75 65.26 C 201.31 66.36 204.17 67.13 206.18 69.18 C 206.56 71.60 203.85 73.28 201.91 74.10 C 200.12 73.91 198.51 72.84 197.53 71.36 Z" />
<path fill="#918c76" opacity="1.00" d=" M 54.84 82.67 C 58.06 83.02 60.99 84.40 63.71 86.10 C 63.51 89.64 59.75 92.64 56.37 90.77 C 53.59 89.00 54.65 85.35 54.84 82.67 Z" />
</g>
</svg>
