<?xml version="1.0" encoding="UTF-8" ?>
<!DOCTYPE svg PUBLIC "-//W3C//DTD SVG 1.1//EN" "http://www.w3.org/Graphics/SVG/1.1/DTD/svg11.dtd">
<svg width="528pt" height="366pt" viewBox="0 0 528 366" version="1.1" xmlns="http://www.w3.org/2000/svg">
<g id="#fdfef5ff">
<path fill="#fdfef5" opacity="1.00" d=" M 0.00 0.00 L 528.00 0.00 L 528.00 366.00 L 0.00 366.00 L 0.00 0.00 M 230.19 19.17 C 224.45 20.52 218.54 18.94 212.77 19.93 C 210.08 20.34 207.46 21.07 204.88 21.90 C 195.46 22.05 186.52 25.51 177.40 27.48 C 159.41 33.23 141.34 40.38 126.81 52.80 C 115.89 60.96 108.77 72.80 99.95 82.96 C 94.05 91.08 88.09 99.20 82.82 107.76 C 76.21 118.42 72.89 130.64 69.47 142.59 C 67.86 149.61 66.75 156.75 65.68 163.87 C 64.20 179.91 64.49 196.13 66.50 212.11 C 67.52 221.27 68.24 230.50 70.28 239.50 C 71.98 246.94 72.36 254.70 75.07 261.89 C 77.66 268.76 80.69 275.47 83.97 282.04 C 92.46 298.12 106.07 310.71 120.08 321.96 C 125.42 326.36 132.08 328.54 138.01 331.99 C 156.19 341.93 176.26 348.63 196.96 350.49 C 226.87 354.35 258.80 346.68 282.18 327.19 C 288.37 321.74 295.06 316.71 299.95 309.97 C 309.40 297.04 316.65 282.50 321.26 267.16 C 326.19 253.31 327.45 238.57 330.20 224.23 C 341.31 224.44 352.46 225.01 363.52 223.67 C 370.81 223.30 378.08 222.67 385.31 221.58 C 395.41 220.84 405.18 218.04 415.12 216.30 C 425.65 213.44 436.30 210.49 445.79 204.93 C 453.08 201.15 458.04 194.42 463.93 188.93 C 470.23 183.35 475.17 176.43 478.97 168.95 C 483.02 161.16 482.98 151.97 481.63 143.50 C 480.69 137.32 476.54 132.40 474.33 126.70 C 470.99 118.00 466.11 109.94 460.63 102.44 C 452.91 93.47 444.35 85.07 434.43 78.54 C 431.21 76.43 428.39 73.60 424.78 72.17 C 420.77 67.92 415.21 65.78 410.57 62.38 C 406.12 59.03 400.94 56.89 396.32 53.81 C 392.79 51.44 388.78 49.97 385.12 47.85 C 373.83 40.20 360.73 35.95 348.22 30.78 C 340.89 27.57 333.18 25.42 325.38 23.71 C 316.34 21.23 306.83 21.74 297.74 19.53 C 291.70 18.05 285.41 18.70 279.35 17.40 C 271.70 15.52 263.76 16.44 255.97 16.40 C 247.36 17.25 238.63 17.10 230.19 19.17 Z" />
<path fill="#fdfef5" opacity="1.00" d=" M 176.35 47.31 C 180.35 42.94 184.62 38.65 189.99 35.97 C 188.86 42.09 185.10 47.42 180.29 51.25 C 165.49 62.81 156.45 80.34 152.17 98.35 C 148.52 115.10 150.92 133.33 159.82 148.10 C 163.89 154.86 169.80 160.19 175.61 165.41 C 177.66 167.05 178.60 169.52 179.06 172.02 C 175.03 170.25 171.49 167.59 168.11 164.80 C 162.16 160.12 156.54 154.66 153.48 147.60 C 150.21 140.11 146.41 132.44 146.22 124.10 C 146.15 117.10 145.74 110.06 146.50 103.09 C 148.96 88.25 155.48 74.34 164.15 62.13 C 167.57 56.69 171.85 51.88 176.35 47.31 Z" />
<path fill="#fdfef5" opacity="1.00" d=" M 300.58 37.71 C 312.96 36.24 325.45 35.89 337.89 36.46 C 342.72 37.27 347.59 38.69 351.81 41.21 C 353.90 42.14 353.57 44.51 353.74 46.39 C 347.77 46.77 341.49 47.59 335.80 45.23 C 332.07 43.72 328.02 43.73 324.09 43.29 C 302.30 39.42 279.74 47.97 263.48 62.41 C 251.74 73.22 241.50 86.28 236.45 101.60 C 232.95 110.29 232.12 119.75 232.51 129.03 C 232.38 133.23 232.98 138.38 229.37 141.38 C 227.60 135.41 228.34 129.13 228.19 123.01 C 227.91 114.31 229.40 105.66 231.44 97.24 C 236.11 82.95 244.84 70.07 256.11 60.16 C 265.44 52.29 275.75 45.21 287.57 41.72 C 291.95 40.51 296.04 38.32 300.58 37.71 Z" />
<path fill="#fdfef5" opacity="1.00" d=" M 105.40 98.23 C 105.72 96.68 107.44 96.44 108.60 95.76 C 109.05 100.27 107.84 104.63 106.98 109.00 C 105.89 119.39 107.22 129.85 108.53 140.16 C 110.44 149.90 114.32 159.55 121.02 167.00 C 125.37 172.02 129.57 177.47 135.63 180.54 C 143.96 185.84 153.97 186.67 163.37 188.78 C 161.47 190.81 158.68 191.16 156.04 190.61 C 145.24 188.13 133.53 185.86 125.45 177.58 C 110.02 164.14 102.54 143.17 103.37 123.00 C 103.56 114.74 102.56 106.18 105.40 98.23 Z" />
<path fill="#fdfef5" opacity="1.00" d=" M 390.38 105.37 C 400.45 105.26 410.83 104.52 420.59 107.56 C 431.54 110.44 443.11 112.09 452.97 118.01 C 459.11 121.67 465.57 125.15 470.36 130.59 C 478.94 139.57 481.18 153.82 476.12 165.12 C 472.72 173.97 465.88 180.79 459.43 187.50 C 454.37 192.09 449.88 197.48 443.79 200.79 C 438.98 203.44 434.06 206.03 428.77 207.59 C 421.01 209.37 413.74 212.97 405.70 213.51 C 384.37 217.55 362.74 220.22 341.01 220.21 C 336.59 220.07 330.96 220.02 328.64 215.48 C 324.65 207.28 326.60 197.71 323.97 189.15 C 321.00 182.32 313.58 178.28 311.21 171.18 C 313.72 167.44 317.61 164.85 320.09 161.07 C 323.87 155.52 328.14 150.32 331.75 144.65 C 336.20 137.63 341.68 131.34 347.12 125.07 C 354.66 118.07 362.56 110.78 372.67 107.80 C 378.40 106.07 384.45 105.91 390.38 105.37 Z" />
<path fill="#fdfef5" opacity="1.00" d=" M 227.45 175.15 C 230.59 165.78 237.50 157.89 246.11 153.12 C 243.45 157.12 239.02 159.38 236.13 163.17 C 232.89 167.31 230.45 172.07 228.90 177.09 C 227.63 181.10 227.60 185.49 225.54 189.25 C 225.75 184.51 226.20 179.74 227.45 175.15 Z" />
<path fill="#fdfef5" opacity="1.00" d=" M 252.73 164.84 C 257.53 161.53 263.30 160.17 268.95 159.11 C 270.40 159.16 271.85 159.27 273.31 159.39 C 263.82 162.18 253.79 165.43 247.15 173.22 C 242.99 178.38 239.87 184.34 235.18 189.08 C 237.59 184.37 240.67 180.07 243.78 175.81 C 246.57 172.02 248.71 167.53 252.73 164.84 Z" />
<path fill="#fdfef5" opacity="1.00" d=" M 75.02 178.87 C 76.62 179.48 78.50 179.89 79.50 181.45 C 83.59 186.81 85.85 193.48 90.81 198.20 C 100.16 207.02 110.76 215.01 123.14 218.99 C 130.69 221.68 138.93 222.15 146.81 220.90 C 152.63 219.47 157.97 216.13 164.15 216.24 C 162.57 218.29 160.71 220.26 158.13 220.99 C 148.75 224.19 138.57 225.23 128.82 223.19 C 116.23 222.31 105.11 215.31 95.83 207.21 C 86.84 199.60 77.73 190.79 75.02 178.87 Z" />
<path fill="#fdfef5" opacity="1.00" d=" M 260.20 187.29 C 267.58 182.43 276.38 180.19 285.12 179.71 C 290.07 179.89 295.01 180.59 299.89 181.45 C 301.82 181.63 303.01 183.27 304.28 184.53 C 295.25 182.08 285.78 180.42 276.46 182.18 C 271.85 183.11 267.63 185.26 263.46 187.35 C 258.65 189.75 254.68 193.49 249.86 195.89 C 252.40 192.06 256.35 189.61 260.20 187.29 Z" />
<path fill="#fdfef5" opacity="1.00" d=" M 317.03 191.11 C 318.16 191.32 319.30 191.51 320.44 191.69 C 321.15 197.66 321.22 203.70 322.29 209.62 C 323.08 214.18 325.47 218.45 325.25 223.17 C 325.04 227.72 324.51 232.26 323.96 236.79 C 323.25 238.13 322.48 239.44 321.73 240.76 C 320.27 231.08 319.59 221.30 318.19 211.61 C 317.69 207.91 316.26 204.44 314.87 201.00 C 314.27 198.18 313.85 195.33 313.41 192.48 C 314.61 192.02 315.82 191.57 317.03 191.11 Z" />
<path fill="#fdfef5" opacity="1.00" d=" M 75.06 216.87 C 80.25 219.95 83.75 224.96 87.62 229.45 C 91.99 234.59 98.02 237.84 103.70 241.32 C 114.52 248.10 127.31 251.08 139.97 251.45 C 147.23 251.27 154.31 248.76 160.39 244.86 C 162.31 243.95 164.23 243.05 166.22 242.28 C 167.53 241.79 168.89 241.45 170.25 241.11 C 166.11 247.86 158.23 250.86 150.93 252.80 C 147.26 253.77 143.54 254.75 139.73 254.97 C 138.13 254.97 136.54 254.92 134.95 254.83 C 121.86 253.25 108.76 249.51 97.64 242.25 C 90.29 236.76 82.74 231.16 77.47 223.52 C 76.08 221.56 75.59 219.16 75.06 216.87 Z" />
<path fill="#fdfef5" opacity="1.00" d=" M 196.82 235.05 C 202.34 234.17 207.31 231.47 212.52 229.60 C 209.00 232.64 204.93 235.08 200.39 236.21 C 192.47 238.25 183.55 239.03 176.13 234.91 L 175.99 234.31 C 182.86 235.43 189.90 236.23 196.82 235.05 Z" />
<path fill="#fdfef5" opacity="1.00" d=" M 262.38 232.25 C 271.51 232.31 280.98 234.96 287.85 241.21 C 296.70 248.58 301.29 259.64 304.47 270.42 C 305.65 274.56 308.01 279.46 304.86 283.32 C 303.38 276.15 302.08 268.87 298.97 262.19 C 295.41 252.94 289.50 244.23 280.75 239.24 C 274.63 236.07 267.69 235.20 260.93 234.45 C 261.41 233.71 261.89 232.98 262.38 232.25 Z" />
<path fill="#fdfef5" opacity="1.00" d=" M 261.79 243.06 C 268.43 245.48 273.73 250.42 278.49 255.47 C 284.04 261.43 286.07 269.63 287.32 277.44 C 288.44 287.44 287.53 297.55 286.21 307.49 C 285.90 310.48 283.55 312.52 281.36 314.28 C 282.60 308.49 284.66 302.87 285.18 296.95 C 285.67 291.66 285.45 286.34 285.42 281.04 C 285.53 269.77 279.29 259.26 270.97 252.02 C 267.83 249.13 263.29 247.40 261.79 243.06 Z" />
<path fill="#fdfef5" opacity="1.00" d=" M 252.00 254.85 C 257.19 256.57 260.47 261.24 263.30 265.63 C 268.20 273.41 271.74 282.49 271.50 291.80 C 270.10 302.51 268.06 313.64 261.68 322.64 C 258.89 326.47 257.33 332.29 251.93 333.08 C 253.75 326.79 259.26 322.66 261.82 316.76 C 265.05 309.79 266.98 302.28 267.98 294.68 C 269.09 287.77 267.41 280.72 264.74 274.36 C 261.66 267.14 255.96 261.54 252.00 254.85 Z" />
<path fill="#fdfef5" opacity="1.00" d=" M 167.25 276.25 C 172.66 272.68 175.46 265.77 182.08 264.00 C 179.87 269.13 175.75 273.05 171.72 276.78 C 167.45 280.66 161.84 282.49 156.49 284.32 C 151.18 286.13 145.51 285.84 139.99 285.89 C 133.74 285.83 127.35 286.28 121.26 284.57 C 114.89 282.77 108.32 280.95 102.88 277.01 C 97.74 273.27 92.39 269.68 88.10 264.94 C 96.00 269.40 103.28 275.02 111.76 278.41 C 123.96 283.58 137.50 284.57 150.53 282.73 C 156.42 281.62 162.21 279.53 167.25 276.25 Z" />
<path fill="#fdfef5" opacity="1.00" d=" M 238.02 265.87 C 242.60 266.50 243.62 271.48 244.70 275.17 C 246.40 282.35 248.43 289.74 247.13 297.16 C 246.44 304.29 243.13 310.75 239.82 316.97 C 237.13 322.02 232.34 325.37 228.56 329.53 C 224.67 333.45 220.96 338.70 214.87 338.87 C 216.35 337.02 218.04 335.33 219.94 333.91 C 225.28 329.96 229.55 324.80 234.03 319.95 C 241.40 310.07 246.55 297.55 244.25 285.05 C 243.70 278.20 239.70 272.40 238.02 265.87 Z" />
<path fill="#fdfef5" opacity="1.00" d=" M 199.60 269.47 C 200.20 270.36 200.80 271.26 201.39 272.17 C 199.60 278.43 198.80 285.31 194.48 290.47 C 189.92 295.89 184.67 300.80 178.70 304.64 C 172.19 308.86 164.72 311.19 157.31 313.22 C 150.01 315.27 142.36 314.80 134.87 314.87 C 132.18 315.00 129.64 314.09 127.36 312.73 C 135.61 311.78 144.01 313.13 152.19 311.40 C 166.38 308.59 180.33 301.99 189.98 290.98 C 195.51 285.00 195.99 276.48 199.60 269.47 Z" />
<path fill="#fdfef5" opacity="1.00" d=" M 221.28 271.21 C 221.88 271.21 223.06 271.20 223.65 271.20 C 224.30 283.87 223.97 297.31 217.52 308.62 C 213.93 314.41 209.79 320.13 203.99 323.89 C 196.36 328.82 189.10 334.67 180.23 337.23 C 178.40 337.07 176.57 336.84 174.74 336.71 C 180.83 333.57 186.85 330.32 192.80 326.94 C 204.24 321.19 213.70 311.28 218.60 299.43 C 222.46 290.51 221.08 280.63 221.28 271.21 Z" />
<path fill="#fdfef5" opacity="1.00" d=" M 304.78 288.42 C 305.69 288.92 306.59 289.43 307.51 289.94 C 301.90 300.09 295.48 309.98 287.03 318.01 C 279.09 324.93 270.14 330.59 260.85 335.51 C 261.21 334.34 261.58 333.17 261.96 332.01 C 268.89 328.64 274.69 323.49 280.64 318.69 C 285.25 314.93 288.82 310.14 292.60 305.60 C 297.07 300.18 301.20 294.47 304.78 288.42 Z" />
</g>
<g id="#bacaabff">
<path fill="#bacaab" opacity="1.00" d=" M 230.19 19.17 C 238.63 17.10 247.36 17.25 255.97 16.40 C 263.76 16.44 271.70 15.52 279.35 17.40 C 285.41 18.70 291.70 18.05 297.74 19.53 C 306.83 21.74 316.34 21.23 325.38 23.71 C 333.18 25.42 340.89 27.57 348.22 30.78 C 360.73 35.95 373.83 40.20 385.12 47.85 C 388.78 49.97 392.79 51.44 396.32 53.81 C 400.94 56.89 406.12 59.03 410.57 62.38 C 415.21 65.78 420.77 67.92 424.78 72.17 C 424.33 72.18 423.41 72.18 422.96 72.19 C 429.01 78.11 435.95 83.06 441.78 89.23 C 447.87 95.77 455.09 101.34 460.09 108.85 C 462.94 113.22 466.83 117.22 467.75 122.54 C 463.38 119.50 459.93 115.39 457.06 110.96 C 444.70 92.54 427.16 78.57 409.77 65.17 C 404.40 61.04 398.48 57.70 392.49 54.58 C 387.70 52.13 383.28 49.04 378.43 46.71 C 365.75 41.11 352.89 35.89 339.84 31.23 C 327.33 27.89 314.94 23.87 302.06 22.18 C 296.02 21.33 290.10 19.58 283.98 19.32 C 277.00 18.95 270.00 19.79 263.03 19.03 C 250.45 17.24 237.88 20.16 225.43 21.64 C 217.59 22.40 210.11 24.95 202.47 26.69 C 186.85 30.48 171.81 36.33 157.33 43.26 C 150.79 46.14 144.88 50.19 138.73 53.77 C 135.01 55.95 131.39 58.32 128.14 61.17 C 120.75 67.74 113.22 74.27 107.18 82.17 C 98.23 93.74 90.29 106.29 85.06 120.01 C 82.47 126.53 79.04 132.78 77.68 139.72 C 76.50 145.86 75.64 152.06 74.18 158.15 C 71.46 169.12 72.37 180.49 71.76 191.68 C 72.64 204.08 72.25 216.58 74.13 228.90 C 75.12 236.99 75.40 245.24 77.91 253.07 C 81.35 266.36 88.44 278.38 96.89 289.09 C 104.44 298.74 111.67 309.04 121.89 316.09 C 128.47 320.90 135.43 325.40 143.35 327.66 C 153.78 330.75 163.48 337.37 174.74 336.71 C 176.57 336.84 178.40 337.07 180.23 337.23 C 178.61 337.87 177.02 338.58 175.43 339.28 C 185.67 340.59 195.68 343.46 206.01 344.05 C 225.31 345.18 244.80 340.86 261.96 332.01 C 261.58 333.17 261.21 334.34 260.85 335.51 C 251.39 341.32 240.30 343.39 229.58 345.56 C 220.83 347.47 211.84 346.62 202.97 347.03 C 194.96 347.49 187.35 344.60 179.56 343.28 C 168.25 341.16 157.59 336.58 147.32 331.53 C 142.89 329.40 138.02 328.39 133.51 326.45 C 128.45 324.15 124.32 320.33 119.82 317.15 C 114.63 313.45 109.26 309.75 105.56 304.46 C 99.31 295.45 91.66 287.47 85.95 278.08 C 83.48 274.05 81.59 269.70 79.67 265.39 C 74.28 254.08 72.58 241.43 71.99 229.03 C 71.44 219.57 69.59 210.22 69.47 200.72 C 69.35 191.93 68.54 183.12 69.48 174.35 C 70.51 165.62 70.11 156.71 72.34 148.14 C 73.90 142.06 75.44 135.97 77.11 129.91 C 79.10 123.18 82.64 117.05 86.06 110.96 C 93.05 98.66 100.13 86.23 109.68 75.70 C 114.55 70.24 120.29 65.64 125.21 60.21 C 131.71 53.04 140.37 48.43 148.70 43.75 C 162.33 36.26 177.53 32.60 191.99 27.17 C 197.32 25.44 202.87 24.50 208.12 22.51 C 207.31 22.36 205.69 22.06 204.88 21.90 C 207.46 21.07 210.08 20.34 212.77 19.93 C 218.54 18.94 224.45 20.52 230.19 19.17 Z" />
<path fill="#bacaab" opacity="1.00" d=" M 341.12 56.26 C 349.61 56.36 358.14 55.12 366.58 56.48 C 373.98 57.71 381.19 60.37 387.47 64.50 C 393.27 68.34 399.38 71.78 404.62 76.41 C 408.91 80.18 413.81 83.19 418.17 86.88 C 422.60 90.60 428.40 92.97 431.11 98.40 C 424.87 96.43 420.53 91.24 415.00 87.99 C 409.36 83.75 402.76 81.22 396.18 78.84 C 391.05 77.11 386.47 73.76 381.00 73.15 C 375.61 72.61 370.56 70.43 365.17 69.92 C 360.98 69.54 357.15 67.54 352.99 67.08 C 342.61 66.57 332.30 65.19 322.02 63.86 C 314.91 64.38 307.85 63.57 300.86 62.33 C 305.36 60.91 310.00 59.92 314.72 59.78 C 323.65 59.59 332.18 56.24 341.12 56.26 Z" />
<path fill="#bacaab" opacity="1.00" d=" M 221.93 150.74 C 232.73 149.68 243.66 147.33 254.47 149.49 C 264.19 151.45 274.22 153.65 282.48 159.44 C 291.42 165.62 300.76 171.77 307.51 180.43 C 310.52 184.09 311.67 190.14 317.03 191.11 C 315.82 191.57 314.61 192.02 313.41 192.48 C 313.85 195.33 314.27 198.18 314.87 201.00 C 311.44 193.92 309.10 186.16 303.91 180.07 C 298.25 172.57 289.90 167.95 282.31 162.70 C 279.66 160.83 276.61 159.40 273.31 159.39 C 271.85 159.27 270.40 159.16 268.95 159.11 C 270.32 158.47 271.67 157.78 273.02 157.09 C 264.28 153.96 255.11 152.30 245.92 151.22 C 238.05 150.37 230.27 152.21 222.55 153.39 C 218.90 160.07 214.28 166.57 213.44 174.36 C 212.09 181.87 214.89 189.26 214.48 196.78 C 210.19 189.64 208.72 180.91 210.56 172.79 C 211.94 166.26 215.51 160.54 218.63 154.74 C 203.53 157.45 189.46 165.89 180.40 178.34 C 176.18 183.70 174.79 190.52 172.97 196.93 C 172.45 199.23 171.57 201.85 173.00 204.02 C 176.20 209.32 180.73 213.92 186.16 216.93 C 193.16 220.80 201.37 220.90 208.87 223.24 C 202.96 223.88 196.84 223.75 191.14 221.89 C 183.11 219.02 176.67 213.18 171.02 206.98 C 171.32 216.18 171.24 226.10 175.99 234.31 L 176.13 234.91 C 176.56 237.62 176.98 240.38 178.30 242.83 C 181.93 250.02 186.84 256.86 193.59 261.40 C 195.28 262.72 197.51 262.44 199.34 261.57 C 206.01 258.72 211.57 253.61 215.61 247.64 C 219.21 242.38 220.69 236.08 223.50 230.42 C 224.05 238.50 219.61 245.80 215.27 252.25 C 211.28 257.98 204.82 260.98 198.98 264.42 C 202.93 265.52 207.23 267.88 211.34 266.45 C 222.91 257.64 227.31 241.65 224.12 227.77 C 218.53 231.06 216.49 237.60 211.83 241.83 C 205.54 248.40 196.87 253.12 187.57 252.73 C 192.37 249.72 198.27 249.27 203.00 246.13 C 209.20 242.29 214.13 236.72 217.83 230.49 C 214.73 228.11 211.18 225.73 209.98 221.79 C 207.41 214.96 209.82 207.44 213.45 201.49 C 217.13 196.02 223.04 191.22 229.93 191.27 C 234.21 191.30 238.53 191.96 242.56 193.44 C 248.00 195.50 252.13 199.77 256.38 203.58 C 263.76 201.63 271.26 199.40 278.98 199.90 C 285.74 200.34 292.39 201.99 298.77 204.22 C 305.26 206.46 310.37 211.21 316.13 214.75 C 316.15 210.14 315.73 205.53 314.87 201.00 C 316.26 204.44 317.69 207.91 318.19 211.61 C 319.59 221.30 320.27 231.08 321.73 240.76 C 322.48 239.44 323.25 238.13 323.96 236.79 C 322.50 249.14 319.20 261.26 314.69 272.84 C 312.54 278.64 310.49 284.51 307.51 289.94 C 306.59 289.43 305.69 288.92 304.78 288.42 C 310.22 279.56 313.64 269.70 316.96 259.91 C 318.53 255.40 318.22 250.30 315.82 246.13 C 308.80 233.97 297.40 224.15 283.87 220.07 C 277.20 218.38 270.17 219.08 263.55 217.08 C 265.69 216.05 268.00 215.19 270.42 215.53 C 276.44 216.06 282.51 216.89 288.26 218.83 C 294.68 221.17 300.46 225.01 305.70 229.34 C 310.90 233.63 314.41 239.49 319.04 244.33 C 320.01 237.21 319.17 229.98 317.78 222.97 C 317.23 219.80 314.69 217.59 312.32 215.67 C 308.72 212.85 304.94 210.25 300.95 208.01 C 295.03 204.64 288.21 203.41 281.58 202.29 C 273.76 200.93 266.28 204.34 258.69 205.59 C 262.67 221.84 257.22 239.28 247.17 252.25 C 236.61 265.29 218.82 271.34 202.41 268.63 C 202.06 269.80 201.72 270.99 201.39 272.17 C 200.80 271.26 200.20 270.36 199.60 269.47 C 197.10 265.88 193.06 263.92 189.65 261.35 C 184.00 257.25 180.09 251.31 176.47 245.46 C 172.99 239.80 171.68 233.21 170.11 226.85 C 166.22 211.99 169.06 196.10 175.25 182.28 C 178.20 175.67 183.51 170.56 188.75 165.74 C 193.10 161.75 198.38 159.00 203.78 156.71 C 209.65 154.25 215.51 151.39 221.93 150.74 M 229.46 193.82 C 222.34 195.40 216.40 200.81 213.23 207.27 C 210.92 213.48 212.38 220.43 215.49 226.09 C 218.56 223.08 222.57 220.12 222.52 215.34 C 223.52 208.59 222.71 199.48 229.74 195.75 C 226.32 204.22 223.30 213.20 223.92 222.47 C 227.48 221.56 230.30 219.14 233.54 217.54 C 241.02 215.06 249.01 213.12 256.89 214.90 C 256.70 212.37 257.00 209.61 255.58 207.37 C 249.84 198.83 239.80 193.42 229.46 193.82 M 227.53 223.98 C 236.39 226.10 247.29 225.70 253.32 233.75 C 257.31 229.00 257.22 222.70 257.35 216.85 C 252.94 216.92 248.52 216.82 244.12 217.18 C 238.06 217.68 232.20 220.09 227.53 223.98 M 227.69 226.35 C 231.73 230.97 236.88 234.53 240.34 239.65 C 242.92 242.88 243.81 246.97 244.68 250.90 C 247.95 246.99 251.66 242.65 251.70 237.28 C 250.67 234.09 247.75 231.78 244.76 230.48 C 239.31 228.29 233.59 226.57 227.69 226.35 M 230.89 232.98 C 232.80 242.21 234.75 252.40 230.55 261.29 C 235.46 259.49 239.75 256.46 243.56 252.94 C 240.39 245.73 238.09 237.32 230.89 232.98 M 228.69 236.93 C 227.60 243.75 226.17 250.68 222.69 256.73 C 220.62 260.19 217.95 263.24 215.67 266.55 C 221.85 267.39 228.80 263.36 230.04 257.00 C 232.19 250.38 231.05 243.32 228.69 236.93 Z" />
<path fill="#bacaab" opacity="1.00" d=" M 148.26 158.15 C 148.75 157.80 149.72 157.10 150.21 156.75 C 151.74 162.25 150.78 168.70 154.66 173.35 C 157.45 177.08 162.51 179.13 163.48 184.09 C 158.62 181.74 154.30 178.27 150.87 174.12 C 147.65 169.46 148.66 163.48 148.26 158.15 Z" />
<path fill="#bacaab" opacity="1.00" d=" M 192.06 173.02 C 191.83 170.82 193.30 169.13 194.70 167.63 C 195.37 172.56 194.89 177.57 195.65 182.48 C 197.64 191.50 203.67 198.77 209.45 205.68 C 205.96 205.82 203.93 202.46 201.79 200.22 C 195.24 192.78 192.27 182.80 192.06 173.02 Z" />
<path fill="#bacaab" opacity="1.00" d=" M 182.23 194.70 C 180.74 190.70 179.19 186.27 180.81 182.04 C 183.71 185.77 183.53 190.69 185.17 194.95 C 187.65 201.73 192.80 207.21 198.62 211.32 C 201.21 213.12 203.72 215.04 205.98 217.25 C 202.97 216.45 199.93 215.46 197.44 213.51 C 191.01 208.56 185.18 202.39 182.23 194.70 Z" />
<path fill="#bacaab" opacity="1.00" d=" M 139.39 202.50 C 137.56 198.31 135.00 194.04 135.61 189.30 C 139.52 194.10 141.03 200.35 144.86 205.17 C 149.30 208.76 155.25 209.80 159.75 213.36 C 154.95 214.35 150.65 211.27 146.31 209.73 C 142.97 208.55 140.76 205.64 139.39 202.50 Z" />
<path fill="#bacaab" opacity="1.00" d=" M 131.90 228.65 C 138.43 231.18 141.78 238.61 148.82 240.14 C 154.57 241.22 160.49 241.00 166.22 242.28 C 164.23 243.05 162.31 243.95 160.39 244.86 C 153.85 244.34 146.40 244.42 141.21 239.79 C 137.63 236.53 134.04 233.08 131.90 228.65 Z" />
<path fill="#bacaab" opacity="1.00" d=" M 134.95 254.83 C 136.54 254.92 138.13 254.97 139.73 254.97 C 143.34 258.52 147.53 261.40 151.63 264.35 C 153.20 265.35 154.81 266.72 156.80 266.49 C 162.62 266.12 168.44 265.76 174.25 265.26 C 168.48 268.96 161.13 271.71 154.28 269.93 C 146.81 266.32 142.40 258.57 134.95 254.83 Z" />
</g>
<g id="#697a65ff">
<path fill="#697a65" opacity="1.00" d=" M 225.43 21.64 C 237.88 20.16 250.45 17.24 263.03 19.03 C 270.00 19.79 277.00 18.95 283.98 19.32 C 290.10 19.58 296.02 21.33 302.06 22.18 C 314.94 23.87 327.33 27.89 339.84 31.23 C 352.89 35.89 365.75 41.11 378.43 46.71 C 383.28 49.04 387.70 52.13 392.49 54.58 C 398.48 57.70 404.40 61.04 409.77 65.17 C 427.16 78.57 444.70 92.54 457.06 110.96 C 459.93 115.39 463.38 119.50 467.75 122.54 C 466.83 117.22 462.94 113.22 460.09 108.85 C 455.09 101.34 447.87 95.77 441.78 89.23 C 435.95 83.06 429.01 78.11 422.96 72.19 C 423.41 72.18 424.33 72.18 424.78 72.17 C 428.39 73.60 431.21 76.43 434.43 78.54 C 444.35 85.07 452.91 93.47 460.63 102.44 C 466.11 109.94 470.99 118.00 474.33 126.70 C 476.54 132.40 480.69 137.32 481.63 143.50 C 482.98 151.97 483.02 161.16 478.97 168.95 C 475.17 176.43 470.23 183.35 463.93 188.93 C 458.04 194.42 453.08 201.15 445.79 204.93 C 436.30 210.49 425.65 213.44 415.12 216.30 C 405.18 218.04 395.41 220.84 385.31 221.58 C 378.08 222.67 370.81 223.30 363.52 223.67 C 352.46 225.01 341.31 224.44 330.20 224.23 C 327.45 238.57 326.19 253.31 321.26 267.16 C 316.65 282.50 309.40 297.04 299.95 309.97 C 295.06 316.71 288.37 321.74 282.18 327.19 C 258.80 346.68 226.87 354.35 196.96 350.49 C 176.26 348.63 156.19 341.93 138.01 331.99 C 132.08 328.54 125.42 326.36 120.08 321.96 C 106.07 310.71 92.46 298.12 83.97 282.04 C 80.69 275.47 77.66 268.76 75.07 261.89 C 72.36 254.70 71.98 246.94 70.28 239.50 C 68.24 230.50 67.52 221.27 66.50 212.11 C 64.49 196.13 64.20 179.91 65.68 163.87 C 66.75 156.75 67.86 149.61 69.47 142.59 C 72.89 130.64 76.21 118.42 82.82 107.76 C 88.09 99.20 94.05 91.08 99.95 82.96 C 108.77 72.80 115.89 60.96 126.81 52.80 C 141.34 40.38 159.41 33.23 177.40 27.48 C 186.52 25.51 195.46 22.05 204.88 21.90 C 205.69 22.06 207.31 22.36 208.12 22.51 C 202.87 24.50 197.32 25.44 191.99 27.17 C 177.53 32.60 162.33 36.26 148.70 43.75 C 140.37 48.43 131.71 53.04 125.21 60.21 C 120.29 65.64 114.55 70.24 109.68 75.70 C 100.13 86.23 93.05 98.66 86.06 110.96 C 82.64 117.05 79.10 123.18 77.11 129.91 C 75.44 135.97 73.90 142.06 72.34 148.14 C 70.11 156.71 70.51 165.62 69.48 174.35 C 68.54 183.12 69.35 191.93 69.47 200.72 C 69.59 210.22 71.44 219.57 71.99 229.03 C 72.58 241.43 74.28 254.08 79.67 265.39 C 81.59 269.70 83.48 274.05 85.95 278.08 C 91.66 287.47 99.31 295.45 105.56 304.46 C 109.26 309.75 114.63 313.45 119.82 317.15 C 124.32 320.33 128.45 324.15 133.51 326.45 C 138.02 328.39 142.89 329.40 147.32 331.53 C 157.59 336.58 168.25 341.16 179.56 343.28 C 187.35 344.60 194.96 347.49 202.97 347.03 C 211.84 346.62 220.83 347.47 229.58 345.56 C 240.30 343.39 251.39 341.32 260.85 335.51 C 270.14 330.59 279.09 324.93 287.03 318.01 C 295.48 309.98 301.90 300.09 307.51 289.94 C 310.49 284.51 312.54 278.64 314.69 272.84 C 319.20 261.26 322.50 249.14 323.96 236.79 C 324.51 232.26 325.04 227.72 325.25 223.17 C 325.47 218.45 323.08 214.18 322.29 209.62 C 321.22 203.70 321.15 197.66 320.44 191.69 C 319.30 191.51 318.16 191.32 317.03 191.11 C 311.67 190.14 310.52 184.09 307.51 180.43 C 300.76 171.77 291.42 165.62 282.48 159.44 C 274.22 153.65 264.19 151.45 254.47 149.49 C 243.66 147.33 232.73 149.68 221.93 150.74 C 215.51 151.39 209.65 154.25 203.78 156.71 C 198.38 159.00 193.10 161.75 188.75 165.74 C 183.51 170.56 178.20 175.67 175.25 182.28 C 169.06 196.10 166.22 211.99 170.11 226.85 C 171.68 233.21 172.99 239.80 176.47 245.46 C 180.09 251.31 184.00 257.25 189.65 261.35 C 193.06 263.92 197.10 265.88 199.60 269.47 C 195.99 276.48 195.51 285.00 189.98 290.98 C 180.33 301.99 166.38 308.59 152.19 311.40 C 144.01 313.13 135.61 311.78 127.36 312.73 C 129.64 314.09 132.18 315.00 134.87 314.87 C 142.36 314.80 150.01 315.27 157.31 313.22 C 164.72 311.19 172.19 308.86 178.70 304.64 C 184.67 300.80 189.92 295.89 194.48 290.47 C 198.80 285.31 199.60 278.43 201.39 272.17 C 201.72 270.99 202.06 269.80 202.41 268.63 C 218.82 271.34 236.61 265.29 247.17 252.25 C 257.22 239.28 262.67 221.84 258.69 205.59 C 266.28 204.34 273.76 200.93 281.58 202.29 C 288.21 203.41 295.03 204.64 300.95 208.01 C 304.94 210.25 308.72 212.85 312.32 215.67 C 314.69 217.59 317.23 219.80 317.78 222.97 C 319.17 229.98 320.01 237.21 319.04 244.33 C 314.41 239.49 310.90 233.63 305.70 229.34 C 300.46 225.01 294.68 221.17 288.26 218.83 C 282.51 216.89 276.44 216.06 270.42 215.53 C 268.00 215.19 265.69 216.05 263.55 217.08 C 270.17 219.08 277.20 218.38 283.87 220.07 C 297.40 224.15 308.80 233.97 315.82 246.13 C 318.22 250.30 318.53 255.40 316.96 259.91 C 313.64 269.70 310.22 279.56 304.78 288.42 C 301.20 294.47 297.07 300.18 292.60 305.60 C 288.82 310.14 285.25 314.93 280.64 318.69 C 274.69 323.49 268.89 328.64 261.96 332.01 C 244.80 340.86 225.31 345.18 206.01 344.05 C 195.68 343.46 185.67 340.59 175.43 339.28 C 177.02 338.58 178.61 337.87 180.23 337.23 C 189.10 334.67 196.36 328.82 203.99 323.89 C 209.79 320.13 213.93 314.41 217.52 308.62 C 223.97 297.31 224.30 283.87 223.65 271.20 C 223.06 271.20 221.88 271.21 221.28 271.21 C 221.08 280.63 222.46 290.51 218.60 299.43 C 213.70 311.28 204.24 321.19 192.80 326.94 C 186.85 330.32 180.83 333.57 174.74 336.71 C 163.48 337.37 153.78 330.75 143.35 327.66 C 135.43 325.40 128.47 320.90 121.89 316.09 C 111.67 309.04 104.44 298.74 96.89 289.09 C 88.44 278.38 81.35 266.36 77.91 253.07 C 75.40 245.24 75.12 236.99 74.13 228.90 C 72.25 216.58 72.64 204.08 71.76 191.68 C 72.37 180.49 71.46 169.12 74.18 158.15 C 75.64 152.06 76.50 145.86 77.68 139.72 C 79.04 132.78 82.47 126.53 85.06 120.01 C 90.29 106.29 98.23 93.74 107.18 82.17 C 113.22 74.27 120.75 67.74 128.14 61.17 C 131.39 58.32 135.01 55.95 138.73 53.77 C 144.88 50.19 150.79 46.14 157.33 43.26 C 171.81 36.33 186.85 30.48 202.47 26.69 C 210.11 24.95 217.59 22.40 225.43 21.64 M 176.35 47.31 C 171.85 51.88 167.57 56.69 164.15 62.13 C 155.48 74.34 148.96 88.25 146.50 103.09 C 145.74 110.06 146.15 117.10 146.22 124.10 C 146.41 132.44 150.21 140.11 153.48 147.60 C 156.54 154.66 162.16 160.12 168.11 164.80 C 171.49 167.59 175.03 170.25 179.06 172.02 C 178.60 169.52 177.66 167.05 175.61 165.41 C 169.80 160.19 163.89 154.86 159.82 148.10 C 150.92 133.33 148.52 115.10 152.17 98.35 C 156.45 80.34 165.49 62.81 180.29 51.25 C 185.10 47.42 188.86 42.09 189.99 35.97 C 184.62 38.65 180.35 42.94 176.35 47.31 M 300.58 37.71 C 296.04 38.32 291.95 40.51 287.57 41.72 C 275.75 45.21 265.44 52.29 256.11 60.16 C 244.84 70.07 236.11 82.95 231.44 97.24 C 229.40 105.66 227.91 114.31 228.19 123.01 C 228.34 129.13 227.60 135.41 229.37 141.38 C 232.98 138.38 232.38 133.23 232.51 129.03 C 232.12 119.75 232.95 110.29 236.45 101.60 C 241.50 86.28 251.74 73.22 263.48 62.41 C 279.74 47.97 302.30 39.42 324.09 43.29 C 328.02 43.73 332.07 43.72 335.80 45.23 C 341.49 47.59 347.77 46.77 353.74 46.39 C 353.57 44.51 353.90 42.14 351.81 41.21 C 347.59 38.69 342.72 37.27 337.89 36.46 C 325.45 35.89 312.96 36.24 300.58 37.71 M 341.12 56.26 C 332.18 56.24 323.65 59.59 314.72 59.78 C 310.00 59.92 305.36 60.91 300.86 62.33 C 307.85 63.57 314.91 64.38 322.02 63.86 C 332.30 65.19 342.61 66.57 352.99 67.08 C 357.15 67.54 360.98 69.54 365.17 69.92 C 370.56 70.43 375.61 72.61 381.00 73.15 C 386.47 73.76 391.05 77.11 396.18 78.84 C 402.76 81.22 409.36 83.75 415.00 87.99 C 420.53 91.24 424.87 96.43 431.11 98.40 C 428.40 92.97 422.60 90.60 418.17 86.88 C 413.81 83.19 408.91 80.18 404.62 76.41 C 399.38 71.78 393.27 68.34 387.47 64.50 C 381.19 60.37 373.98 57.71 366.58 56.48 C 358.14 55.12 349.61 56.36 341.12 56.26 M 105.40 98.23 C 102.56 106.18 103.56 114.74 103.37 123.00 C 102.54 143.17 110.02 164.14 125.45 177.58 C 133.53 185.86 145.24 188.13 156.04 190.61 C 158.68 191.16 161.47 190.81 163.37 188.78 C 153.97 186.67 143.96 185.84 135.63 180.54 C 129.57 177.47 125.37 172.02 121.02 167.00 C 114.32 159.55 110.44 149.90 108.53 140.16 C 107.22 129.85 105.89 119.39 106.98 109.00 C 107.84 104.63 109.05 100.27 108.60 95.76 C 107.44 96.44 105.72 96.68 105.40 98.23 M 390.38 105.37 C 384.45 105.91 378.40 106.07 372.67 107.80 C 362.56 110.78 354.66 118.07 347.12 125.07 C 341.68 131.34 336.20 137.63 331.75 144.65 C 328.14 150.32 323.87 155.52 320.09 161.07 C 317.61 164.85 313.72 167.44 311.21 171.18 C 313.58 178.28 321.00 182.32 323.97 189.15 C 326.60 197.71 324.65 207.28 328.64 215.48 C 330.96 220.02 336.59 220.07 341.01 220.21 C 362.74 220.22 384.37 217.55 405.70 213.51 C 413.74 212.97 421.01 209.37 428.77 207.59 C 434.06 206.03 438.98 203.44 443.79 200.79 C 449.88 197.48 454.37 192.09 459.43 187.50 C 465.88 180.79 472.72 173.97 476.12 165.12 C 481.18 153.82 478.94 139.57 470.36 130.59 C 465.57 125.15 459.11 121.67 452.97 118.01 C 443.11 112.09 431.54 110.44 420.59 107.56 C 410.83 104.52 400.45 105.26 390.38 105.37 M 148.26 158.15 C 148.66 163.48 147.65 169.46 150.87 174.12 C 154.30 178.27 158.62 181.74 163.48 184.09 C 162.51 179.13 157.45 177.08 154.66 173.35 C 150.78 168.70 151.74 162.25 150.21 156.75 C 149.72 157.10 148.75 157.80 148.26 158.15 M 75.02 178.87 C 77.73 190.79 86.84 199.60 95.83 207.21 C 105.11 215.31 116.23 222.31 128.82 223.19 C 138.57 225.23 148.75 224.19 158.13 220.99 C 160.71 220.26 162.57 218.29 164.15 216.24 C 157.97 216.13 152.63 219.47 146.81 220.90 C 138.93 222.15 130.69 221.68 123.14 218.99 C 110.76 215.01 100.16 207.02 90.81 198.20 C 85.85 193.48 83.59 186.81 79.50 181.45 C 78.50 179.89 76.62 179.48 75.02 178.87 M 139.39 202.50 C 140.76 205.64 142.97 208.55 146.31 209.73 C 150.65 211.27 154.95 214.35 159.75 213.36 C 155.25 209.80 149.30 208.76 144.86 205.17 C 141.03 200.35 139.52 194.10 135.61 189.30 C 135.00 194.04 137.56 198.31 139.39 202.50 M 75.06 216.87 C 75.59 219.16 76.08 221.56 77.47 223.52 C 82.74 231.16 90.29 236.76 97.64 242.25 C 108.76 249.51 121.86 253.25 134.95 254.83 C 142.40 258.57 146.81 266.32 154.28 269.93 C 161.13 271.71 168.48 268.96 174.25 265.26 C 168.44 265.76 162.62 266.12 156.80 266.49 C 154.81 266.72 153.20 265.35 151.63 264.35 C 147.53 261.40 143.34 258.52 139.73 254.97 C 143.54 254.75 147.26 253.77 150.93 252.80 C 158.23 250.86 166.11 247.86 170.25 241.11 C 168.89 241.45 167.53 241.79 166.22 242.28 C 160.49 241.00 154.57 241.22 148.82 240.14 C 141.78 238.61 138.43 231.18 131.90 228.65 C 134.04 233.08 137.63 236.53 141.21 239.79 C 146.40 244.42 153.85 244.34 160.39 244.86 C 154.31 248.76 147.23 251.27 139.97 251.45 C 127.31 251.08 114.52 248.10 103.70 241.32 C 98.02 237.84 91.99 234.59 87.62 229.45 C 83.75 224.96 80.25 219.95 75.06 216.87 M 262.38 232.25 C 261.89 232.98 261.41 233.71 260.93 234.45 C 267.69 235.20 274.63 236.07 280.75 239.24 C 289.50 244.23 295.41 252.94 298.97 262.19 C 302.08 268.87 303.38 276.15 304.86 283.32 C 308.01 279.46 305.65 274.56 304.47 270.42 C 301.29 259.64 296.70 248.58 287.85 241.21 C 280.98 234.96 271.51 232.31 262.38 232.25 M 261.79 243.06 C 263.29 247.40 267.83 249.13 270.97 252.02 C 279.29 259.26 285.53 269.77 285.42 281.04 C 285.45 286.34 285.67 291.66 285.18 296.95 C 284.66 302.87 282.60 308.49 281.36 314.28 C 283.55 312.52 285.90 310.48 286.21 307.49 C 287.53 297.55 288.44 287.44 287.32 277.44 C 286.07 269.63 284.04 261.43 278.49 255.47 C 273.73 250.42 268.43 245.48 261.79 243.06 M 252.00 254.85 C 255.96 261.54 261.66 267.14 264.74 274.36 C 267.41 280.72 269.09 287.77 267.98 294.68 C 266.98 302.28 265.05 309.79 261.82 316.76 C 259.26 322.66 253.75 326.79 251.93 333.08 C 257.33 332.29 258.89 326.47 261.68 322.64 C 268.06 313.64 270.10 302.51 271.50 291.80 C 271.74 282.49 268.20 273.41 263.30 265.63 C 260.47 261.24 257.19 256.57 252.00 254.85 M 167.25 276.25 C 162.21 279.53 156.42 281.62 150.53 282.73 C 137.50 284.57 123.96 283.58 111.76 278.41 C 103.28 275.02 96.00 269.40 88.10 264.94 C 92.39 269.68 97.74 273.27 102.88 277.01 C 108.32 280.95 114.89 282.77 121.26 284.57 C 127.35 286.28 133.74 285.83 139.99 285.89 C 145.51 285.84 151.18 286.13 156.49 284.32 C 161.84 282.49 167.45 280.66 171.72 276.78 C 175.75 273.05 179.87 269.13 182.08 264.00 C 175.46 265.77 172.66 272.68 167.25 276.25 M 238.02 265.87 C 239.70 272.40 243.70 278.20 244.25 285.05 C 246.55 297.55 241.40 310.07 234.03 319.95 C 229.55 324.80 225.28 329.96 219.94 333.91 C 218.04 335.33 216.35 337.02 214.87 338.87 C 220.96 338.70 224.67 333.45 228.56 329.53 C 232.34 325.37 237.13 322.02 239.82 316.97 C 243.13 310.75 246.44 304.29 247.13 297.16 C 248.43 289.74 246.40 282.35 244.70 275.17 C 243.62 271.48 242.60 266.50 238.02 265.87 Z" />
<path fill="#697a65" opacity="1.00" d=" M 222.55 153.39 C 230.27 152.21 238.05 150.37 245.92 151.22 C 255.11 152.30 264.28 153.96 273.02 157.09 C 271.67 157.78 270.32 158.47 268.95 159.11 C 263.30 160.17 257.53 161.53 252.73 164.84 C 248.71 167.53 246.57 172.02 243.78 175.81 C 240.67 180.07 237.59 184.37 235.18 189.08 C 239.87 184.34 242.99 178.38 247.15 173.22 C 253.79 165.43 263.82 162.18 273.31 159.39 C 276.61 159.40 279.66 160.83 282.31 162.70 C 289.90 167.95 298.25 172.57 303.91 180.07 C 309.10 186.16 311.44 193.92 314.87 201.00 C 315.73 205.53 316.15 210.14 316.13 214.75 C 310.37 211.21 305.26 206.46 298.77 204.22 C 292.39 201.99 285.74 200.34 278.98 199.90 C 271.26 199.40 263.76 201.63 256.38 203.58 C 252.13 199.77 248.00 195.50 242.56 193.44 C 238.53 191.96 234.21 191.30 229.93 191.27 C 223.04 191.22 217.13 196.02 213.45 201.49 C 209.82 207.44 207.41 214.96 209.98 221.79 C 211.18 225.73 214.73 228.11 217.83 230.49 C 214.13 236.72 209.20 242.29 203.00 246.13 C 198.27 249.27 192.37 249.72 187.57 252.73 C 196.87 253.12 205.54 248.40 211.83 241.83 C 216.49 237.60 218.53 231.06 224.12 227.77 C 227.31 241.65 222.91 257.64 211.34 266.45 C 207.23 267.88 202.93 265.52 198.98 264.42 C 204.82 260.98 211.28 257.98 215.27 252.25 C 219.61 245.80 224.05 238.50 223.50 230.42 C 220.69 236.08 219.21 242.38 215.61 247.64 C 211.57 253.61 206.01 258.72 199.34 261.57 C 197.51 262.44 195.28 262.72 193.59 261.40 C 186.84 256.86 181.93 250.02 178.30 242.83 C 176.98 240.38 176.56 237.62 176.13 234.91 C 183.55 239.03 192.47 238.25 200.39 236.21 C 204.93 235.08 209.00 232.64 212.52 229.60 C 207.31 231.47 202.34 234.17 196.82 235.05 C 189.90 236.23 182.86 235.43 175.99 234.31 C 171.24 226.10 171.32 216.18 171.02 206.98 C 176.67 213.18 183.11 219.02 191.14 221.89 C 196.84 223.75 202.96 223.88 208.87 223.24 C 201.37 220.90 193.16 220.80 186.16 216.93 C 180.73 213.92 176.20 209.32 173.00 204.02 C 171.57 201.85 172.45 199.23 172.97 196.93 C 174.79 190.52 176.18 183.70 180.40 178.34 C 189.46 165.89 203.53 157.45 218.63 154.74 C 215.51 160.54 211.94 166.26 210.56 172.79 C 208.72 180.91 210.19 189.64 214.48 196.78 C 214.89 189.26 212.09 181.87 213.44 174.36 C 214.28 166.57 218.90 160.07 222.55 153.39 M 227.45 175.15 C 226.20 179.74 225.75 184.51 225.54 189.25 C 227.60 185.49 227.63 181.10 228.90 177.09 C 230.45 172.07 232.89 167.31 236.13 163.17 C 239.02 159.38 243.45 157.12 246.11 153.12 C 237.50 157.89 230.59 165.78 227.45 175.15 M 192.06 173.02 C 192.27 182.80 195.24 192.78 201.79 200.22 C 203.93 202.46 205.96 205.82 209.45 205.68 C 203.67 198.77 197.64 191.50 195.65 182.48 C 194.89 177.57 195.37 172.56 194.70 167.63 C 193.30 169.13 191.83 170.82 192.06 173.02 M 260.20 187.29 C 256.35 189.61 252.40 192.06 249.86 195.89 C 254.68 193.49 258.65 189.75 263.46 187.35 C 267.63 185.26 271.85 183.11 276.46 182.18 C 285.78 180.42 295.25 182.08 304.28 184.53 C 303.01 183.27 301.82 181.63 299.89 181.45 C 295.01 180.59 290.07 179.89 285.12 179.71 C 276.38 180.19 267.58 182.43 260.20 187.29 M 182.23 194.70 C 185.18 202.39 191.01 208.56 197.44 213.51 C 199.93 215.46 202.97 216.45 205.98 217.25 C 203.72 215.04 201.21 213.12 198.62 211.32 C 192.80 207.21 187.65 201.73 185.17 194.95 C 183.53 190.69 183.71 185.77 180.81 182.04 C 179.19 186.27 180.74 190.70 182.23 194.70 Z" />
<path fill="#697a65" opacity="1.00" d=" M 229.46 193.82 C 239.80 193.42 249.84 198.83 255.58 207.37 C 257.00 209.61 256.70 212.37 256.89 214.90 C 249.01 213.12 241.02 215.06 233.54 217.54 C 230.30 219.14 227.48 221.56 223.92 222.47 C 223.30 213.20 226.32 204.22 229.74 195.75 C 222.71 199.48 223.52 208.59 222.52 215.34 C 222.57 220.12 218.56 223.08 215.49 226.09 C 212.38 220.43 210.92 213.48 213.23 207.27 C 216.40 200.81 222.34 195.40 229.46 193.82 Z" />
<path fill="#697a65" opacity="1.00" d=" M 227.53 223.98 C 232.20 220.09 238.06 217.68 244.12 217.18 C 248.52 216.82 252.94 216.92 257.35 216.85 C 257.22 222.70 257.31 229.00 253.32 233.75 C 247.29 225.70 236.39 226.10 227.53 223.98 Z" />
<path fill="#697a65" opacity="1.00" d=" M 227.69 226.35 C 233.59 226.57 239.31 228.29 244.76 230.48 C 247.75 231.78 250.67 234.09 251.70 237.28 C 251.66 242.65 247.95 246.99 244.68 250.90 C 243.81 246.97 242.92 242.88 240.34 239.65 C 236.88 234.53 231.73 230.97 227.69 226.35 Z" />
<path fill="#697a65" opacity="1.00" d=" M 230.89 232.98 C 238.09 237.32 240.39 245.73 243.56 252.94 C 239.75 256.46 235.46 259.49 230.55 261.29 C 234.75 252.40 232.80 242.21 230.89 232.98 Z" />
<path fill="#697a65" opacity="1.00" d=" M 228.69 236.93 C 231.05 243.32 232.19 250.38 230.04 257.00 C 228.80 263.36 221.85 267.39 215.67 266.55 C 217.95 263.24 220.62 260.19 222.69 256.73 C 226.17 250.68 227.60 243.75 228.69 236.93 Z" />
</g>
</svg>
