<?xml version="1.0" encoding="UTF-8" ?>
<!DOCTYPE svg PUBLIC "-//W3C//DTD SVG 1.1//EN" "http://www.w3.org/Graphics/SVG/1.1/DTD/svg11.dtd">
<svg width="528pt" height="366pt" viewBox="0 0 528 366" version="1.1" xmlns="http://www.w3.org/2000/svg">
<g id="#fdfef5ff">
<path fill="#fdfef5" opacity="1.00" d=" M 173.34 50.33 C 178.35 45.01 183.25 39.21 189.96 36.00 C 189.44 39.57 187.99 42.94 185.75 45.76 C 182.68 50.37 177.58 52.91 173.93 56.96 C 159.25 72.45 150.74 93.66 150.67 115.01 C 151.18 127.95 154.64 141.07 162.28 151.69 C 166.59 157.65 172.61 162.02 177.48 167.47 C 178.81 168.64 178.50 170.51 178.68 172.09 C 172.78 169.00 167.66 164.68 162.64 160.37 C 159.40 157.55 156.75 154.10 154.82 150.27 C 150.20 141.48 146.40 132.00 145.60 122.02 C 145.32 115.24 145.10 108.36 146.55 101.68 C 150.54 82.54 159.88 64.53 173.34 50.33 Z" />
<path fill="#fdfef5" opacity="1.00" d=" M 291.38 40.42 C 299.05 36.81 307.69 36.65 316.01 36.26 C 323.33 35.58 330.66 36.47 338.00 36.38 C 343.65 37.55 349.70 38.86 354.00 43.02 C 353.79 44.17 353.58 45.31 353.38 46.46 C 346.72 46.88 339.79 47.48 333.50 44.82 C 322.56 42.67 310.93 40.73 300.05 44.20 C 286.70 45.99 275.02 53.42 264.62 61.57 C 247.77 76.19 234.79 96.38 232.47 118.92 C 231.19 126.02 231.96 133.24 231.24 140.39 C 230.38 140.53 229.52 140.68 228.66 140.83 C 226.23 126.38 227.32 111.38 231.29 97.29 C 240.24 69.92 263.90 48.35 291.38 40.42 Z" />
<path fill="#fdfef5" opacity="1.00" d=" M 446.26 96.88 C 446.46 96.34 446.85 95.26 447.04 94.72 C 454.86 102.67 462.85 110.92 467.12 121.43 C 464.06 119.36 461.47 116.70 459.50 113.59 C 455.62 107.62 451.38 101.85 446.26 96.88 Z" />
<path fill="#fdfef5" opacity="1.00" d=" M 105.55 96.42 C 106.55 96.36 107.56 96.31 108.57 96.26 C 108.39 105.20 106.46 114.04 106.66 123.00 C 107.63 130.45 107.66 138.07 109.82 145.33 C 114.49 161.95 126.12 177.10 142.29 183.82 C 149.13 186.22 156.34 187.75 163.62 187.63 C 163.61 188.27 163.59 189.55 163.58 190.19 C 154.63 191.82 145.90 188.39 137.60 185.49 C 129.45 182.79 123.83 175.93 118.03 170.00 C 108.27 157.26 102.86 141.08 103.42 124.99 C 103.50 115.43 102.85 105.72 105.55 96.42 Z" />
<path fill="#fdfef5" opacity="1.00" d=" M 390.31 104.94 C 393.53 104.53 396.80 104.52 400.02 104.98 C 404.63 105.67 409.33 105.43 413.95 106.10 C 431.09 109.31 448.55 113.84 463.04 123.96 C 470.44 128.75 476.06 136.34 478.07 144.96 C 479.70 152.91 478.75 161.48 474.73 168.61 C 469.60 178.69 460.84 186.09 453.04 194.02 C 447.98 199.38 441.30 202.78 434.61 205.65 C 429.57 208.25 423.85 208.87 418.62 210.95 C 413.12 213.05 407.15 213.19 401.46 214.52 C 388.47 217.72 375.04 218.24 361.78 219.65 C 353.53 220.43 345.22 220.93 336.95 220.33 C 333.39 220.09 329.49 218.40 328.06 214.92 C 324.56 206.77 325.97 197.64 323.73 189.22 C 320.79 182.40 314.47 177.91 310.52 171.77 C 312.55 168.18 316.47 166.18 318.73 162.75 C 329.53 148.01 338.65 131.67 352.68 119.61 C 359.35 113.74 367.09 108.70 375.90 106.85 C 380.59 105.51 385.50 105.56 390.31 104.94 Z" />
<path fill="#fdfef5" opacity="1.00" d=" M 229.12 171.07 C 232.65 163.47 238.70 156.97 246.14 153.10 C 244.28 156.54 240.67 158.31 238.02 161.02 C 234.19 164.91 231.48 169.76 229.61 174.85 C 227.68 179.48 227.55 184.63 225.66 189.28 C 226.07 183.12 226.49 176.76 229.12 171.07 Z" />
<path fill="#fdfef5" opacity="1.00" d=" M 247.84 169.75 C 252.54 162.89 261.10 160.30 268.93 159.15 C 270.32 159.23 271.70 159.44 273.08 159.63 C 266.17 161.69 258.90 163.50 253.11 168.01 C 245.56 173.57 241.37 182.24 235.17 189.07 C 239.24 182.53 243.47 176.09 247.84 169.75 Z" />
<path fill="#fdfef5" opacity="1.00" d=" M 75.83 182.29 C 75.44 180.89 75.54 179.42 75.48 177.99 C 82.79 181.78 83.85 191.03 89.43 196.54 C 100.14 207.35 113.14 216.68 128.18 220.14 C 136.22 222.34 145.02 222.06 152.75 218.83 C 156.35 217.35 160.19 216.42 164.10 216.35 C 160.35 221.25 154.04 222.56 148.36 223.85 C 148.79 224.05 149.22 224.25 149.65 224.46 C 142.87 224.55 136.10 224.72 129.32 224.54 C 129.80 224.24 130.28 223.93 130.77 223.63 C 113.36 222.40 98.65 211.21 87.00 199.02 C 82.00 194.44 78.16 188.66 75.83 182.29 Z" />
<path fill="#fdfef5" opacity="1.00" d=" M 264.73 184.83 C 275.52 179.19 288.21 179.59 299.90 181.51 C 301.86 181.61 303.08 183.21 304.29 184.54 C 300.42 183.79 296.73 182.37 292.87 181.63 C 288.90 181.36 284.90 181.54 280.92 181.52 C 274.37 181.67 268.37 184.63 262.70 187.65 C 258.20 190.10 254.42 193.69 249.80 195.94 C 253.46 190.76 259.33 187.84 264.73 184.83 Z" />
<path fill="#fdfef5" opacity="1.00" d=" M 317.13 191.39 C 318.20 191.33 319.28 191.27 320.36 191.22 C 320.99 196.81 321.31 202.43 322.09 208.00 C 322.62 212.19 324.57 216.01 325.49 220.10 C 325.89 225.39 324.73 230.65 324.14 235.89 C 323.41 237.07 322.63 238.22 321.86 239.38 C 321.05 230.65 320.13 221.92 318.80 213.26 C 317.71 206.15 315.47 199.30 313.38 192.45 C 314.62 192.08 315.87 191.71 317.13 191.39 Z" />
<path fill="#fdfef5" opacity="1.00" d=" M 75.13 216.97 C 80.13 218.98 82.93 223.79 86.35 227.65 C 89.45 231.57 93.27 234.87 97.47 237.57 C 106.47 243.20 116.05 248.34 126.66 250.06 C 138.19 253.28 150.63 250.71 160.87 244.85 C 162.52 244.00 164.19 243.19 165.91 242.46 C 167.52 241.74 169.27 241.45 171.00 241.13 C 167.57 245.80 162.43 248.91 157.12 251.03 C 148.35 253.83 138.92 256.80 129.72 254.16 C 116.69 252.44 104.00 247.51 93.68 239.30 C 87.35 234.37 80.66 229.42 76.62 222.31 C 75.70 220.68 75.43 218.80 75.13 216.97 Z" />
<path fill="#fdfef5" opacity="1.00" d=" M 225.23 229.07 C 225.67 228.72 226.56 228.03 227.00 227.68 C 228.82 228.81 230.64 229.93 232.42 231.12 C 230.16 231.86 227.82 232.32 225.45 232.57 C 225.39 231.40 225.31 230.23 225.23 229.07 Z" />
<path fill="#fdfef5" opacity="1.00" d=" M 261.60 232.36 C 267.99 232.04 274.26 233.80 280.19 235.99 C 291.77 241.94 299.37 253.60 303.01 265.82 C 304.61 271.49 307.86 277.38 305.58 283.34 C 302.88 278.90 303.25 273.49 301.53 268.71 C 297.92 258.61 293.31 248.14 284.36 241.63 C 277.82 236.47 269.19 235.45 261.18 234.64 C 261.28 234.07 261.49 232.93 261.60 232.36 Z" />
<path fill="#fdfef5" opacity="1.00" d=" M 261.18 244.48 C 263.83 242.91 266.41 245.01 268.58 246.41 C 274.91 250.99 280.81 256.69 283.88 264.02 C 286.46 270.35 287.55 277.18 288.19 283.96 C 288.82 291.34 286.82 298.58 286.46 305.92 C 286.36 308.69 284.85 311.08 283.59 313.45 C 282.98 313.51 281.78 313.64 281.17 313.71 C 285.55 301.39 286.61 288.08 284.82 275.17 C 283.32 266.82 278.71 259.18 272.55 253.42 C 269.08 250.03 264.79 247.69 261.18 244.48 Z" />
<path fill="#fdfef5" opacity="1.00" d=" M 251.82 254.45 C 255.61 255.41 258.14 258.56 260.49 261.45 C 267.49 270.61 272.45 281.99 271.38 293.72 C 270.03 304.07 267.52 314.66 261.33 323.27 C 258.66 326.93 257.28 333.06 251.74 332.98 C 253.63 328.42 256.81 324.62 259.62 320.63 C 264.74 311.92 267.07 301.88 268.39 291.97 C 268.68 282.48 264.96 273.19 259.52 265.55 C 257.04 261.78 253.56 258.68 251.82 254.45 Z" />
<path fill="#fdfef5" opacity="1.00" d=" M 169.41 274.40 C 173.67 270.99 176.34 265.40 182.00 264.00 C 180.13 269.56 175.53 273.51 171.27 277.27 C 161.71 284.13 149.67 286.99 138.01 286.59 C 128.61 286.93 119.34 284.61 110.65 281.22 C 104.70 279.04 99.96 274.69 94.79 271.18 C 92.17 269.45 89.86 267.30 87.95 264.81 C 93.65 267.71 98.69 271.72 104.33 274.75 C 117.72 282.30 133.60 285.18 148.80 282.87 C 156.23 281.91 163.61 279.21 169.41 274.40 Z" />
<path fill="#fdfef5" opacity="1.00" d=" M 237.97 265.55 C 240.57 266.17 242.46 268.04 243.21 270.59 C 246.75 280.75 249.29 291.88 246.22 302.50 C 243.56 311.07 239.65 319.76 232.50 325.51 C 226.99 330.29 223.12 338.94 214.72 338.65 C 221.38 332.34 228.48 326.43 234.44 319.41 C 241.46 309.60 246.50 297.34 244.01 285.10 C 243.23 278.23 239.72 272.15 237.97 265.55 Z" />
<path fill="#fdfef5" opacity="1.00" d=" M 199.83 269.30 C 200.25 270.49 200.62 271.69 200.95 272.92 C 199.89 278.64 198.65 284.52 195.39 289.45 C 190.82 296.11 184.27 301.17 177.46 305.38 C 164.97 312.64 150.30 315.90 135.91 315.54 C 132.68 315.63 129.68 314.29 126.86 312.87 C 131.20 312.13 135.62 312.37 140.00 312.40 C 149.49 312.42 158.95 310.48 167.63 306.65 C 176.77 302.49 185.86 297.09 191.70 288.69 C 195.77 282.82 196.19 275.37 199.83 269.30 Z" />
<path fill="#fdfef5" opacity="1.00" d=" M 219.19 297.27 C 222.02 288.22 219.42 278.56 221.91 269.45 C 223.81 272.64 224.85 276.28 224.51 280.01 C 223.98 288.64 222.72 297.41 219.30 305.40 C 215.69 312.57 210.76 319.41 204.08 323.99 C 196.38 328.75 189.26 334.99 180.20 336.98 C 178.38 336.89 176.56 336.72 174.73 336.65 C 183.22 332.28 191.61 327.68 199.79 322.77 C 208.05 315.97 216.15 307.83 219.19 297.27 Z" />
<path fill="#fdfef5" opacity="1.00" d=" M 309.03 280.81 C 309.77 281.15 310.51 281.49 311.26 281.84 C 304.94 295.46 297.24 308.80 286.00 318.98 C 278.26 325.42 269.93 331.16 260.90 335.66 C 261.57 334.39 262.17 333.09 262.78 331.80 C 272.44 325.79 281.67 318.71 288.85 309.80 C 296.67 301.00 304.10 291.58 309.03 280.81 Z" />
</g>
<g id="#bacaabff">
<path fill="#bacaab" opacity="1.00" d=" M 224.35 19.21 C 238.81 17.36 253.38 16.05 267.98 16.29 C 275.38 15.97 282.62 17.71 289.96 18.23 C 296.39 18.65 302.58 20.67 309.01 21.08 C 320.01 21.58 330.75 24.48 341.23 27.72 C 352.62 32.20 364.34 36.03 375.05 42.05 C 380.49 44.94 385.76 48.14 391.40 50.64 C 397.02 53.10 402.12 56.56 407.30 59.81 C 412.87 63.57 418.83 66.76 424.09 70.98 L 424.01 71.70 C 423.98 72.00 423.92 72.60 423.89 72.90 C 426.86 76.02 430.41 78.50 433.72 81.25 C 438.65 85.22 442.98 89.87 447.04 94.72 C 446.85 95.26 446.46 96.34 446.26 96.88 C 430.12 80.36 412.21 65.37 392.04 54.01 C 376.27 44.92 359.31 38.11 342.20 31.99 C 329.58 28.11 316.79 24.69 303.83 22.14 C 294.27 20.57 284.72 18.44 274.98 18.58 C 263.57 18.80 252.08 17.64 240.76 19.56 C 232.25 21.00 223.54 21.06 215.13 23.07 C 203.55 26.29 191.69 28.68 180.53 33.29 C 168.17 37.69 156.13 43.08 144.98 50.01 C 128.64 59.26 114.36 72.11 103.24 87.23 C 92.79 102.10 84.49 118.50 78.89 135.80 C 72.43 158.89 70.21 183.16 72.37 207.03 C 73.78 224.78 74.20 242.96 80.08 259.95 C 83.94 271.34 90.77 281.42 98.19 290.78 C 104.35 298.54 110.18 306.74 117.92 313.05 C 126.02 319.53 134.87 325.36 144.90 328.36 C 154.70 331.46 164.11 337.36 174.73 336.65 C 176.56 336.72 178.38 336.89 180.20 336.98 C 178.67 337.65 177.18 338.39 175.69 339.13 C 186.41 341.00 197.02 344.10 208.01 343.81 C 226.91 344.65 246.03 340.69 262.78 331.80 C 262.17 333.09 261.57 334.39 260.90 335.66 C 247.36 343.54 231.42 346.09 216.00 347.30 C 193.84 347.93 171.40 343.48 151.46 333.68 C 146.80 331.42 142.02 329.41 137.10 327.78 C 129.42 325.27 123.24 319.87 116.72 315.33 C 112.23 312.19 108.35 308.27 105.11 303.88 C 97.42 293.51 88.45 283.97 82.56 272.37 C 75.95 259.93 72.58 246.00 71.70 231.99 C 71.23 222.81 70.10 213.69 69.55 204.52 C 69.49 195.66 68.25 186.81 68.99 177.94 C 69.88 155.32 73.41 131.93 85.15 112.18 C 93.02 98.18 100.98 83.92 112.52 72.55 C 119.68 65.67 126.05 57.86 134.27 52.17 C 145.09 44.53 157.09 38.59 169.70 34.54 C 175.66 32.54 181.58 30.45 187.53 28.42 C 193.39 26.37 199.50 25.15 205.32 22.99 C 202.84 22.89 200.36 22.80 197.88 22.88 C 206.52 20.63 215.36 18.57 224.35 19.21 Z" />
<path fill="#bacaab" opacity="1.00" d=" M 323.73 58.59 C 335.65 56.15 347.89 55.16 360.05 55.66 C 366.94 56.60 374.19 57.08 380.43 60.44 C 396.57 69.04 410.65 80.81 424.84 92.20 C 427.27 94.06 429.30 96.38 431.07 98.87 C 425.39 95.31 420.18 91.05 414.45 87.57 C 408.29 83.65 401.43 81.06 394.77 78.13 C 387.47 74.91 379.94 72.19 372.21 70.22 C 367.41 69.28 362.47 69.37 357.70 68.27 C 353.20 67.24 348.63 66.68 344.04 66.36 C 331.38 65.02 318.68 64.04 305.96 63.53 C 303.25 63.44 300.58 63.00 297.92 62.51 C 306.37 60.28 315.19 60.37 323.73 58.59 Z" />
<path fill="#bacaab" opacity="1.00" d=" M 197.75 159.82 C 214.92 150.33 235.13 148.13 254.42 149.74 C 263.98 151.27 273.74 153.68 281.84 159.21 C 288.96 163.95 295.96 168.94 302.33 174.66 C 307.53 179.27 310.86 185.45 314.17 191.44 C 314.91 191.43 316.39 191.41 317.13 191.39 C 315.87 191.71 314.62 192.08 313.38 192.45 C 315.47 199.30 317.71 206.15 318.80 213.26 C 320.13 221.92 321.05 230.65 321.86 239.38 C 322.63 238.22 323.41 237.07 324.14 235.89 C 322.23 251.71 318.35 267.50 311.26 281.84 C 310.51 281.49 309.77 281.15 309.03 280.81 C 312.50 272.55 316.24 264.25 317.83 255.37 C 318.73 251.12 316.76 247.03 314.36 243.66 C 307.88 234.51 299.57 226.12 288.88 222.11 C 280.99 218.47 272.15 218.54 263.64 218.41 C 263.52 217.80 263.29 216.58 263.17 215.97 C 279.23 213.46 295.57 219.86 307.37 230.64 C 311.77 234.83 315.22 239.88 319.25 244.42 C 319.86 237.88 319.74 231.27 318.75 224.78 C 318.45 222.64 317.67 220.52 316.06 219.03 C 307.18 210.47 295.83 204.09 283.43 202.74 C 274.89 201.42 266.47 203.82 258.09 205.05 C 263.13 219.19 258.29 234.55 250.80 246.86 C 241.26 263.36 220.60 272.16 202.04 268.32 C 201.66 269.85 201.28 271.38 200.95 272.92 C 200.62 271.69 200.25 270.49 199.83 269.30 C 196.61 265.35 191.72 263.37 187.98 260.00 C 178.96 252.09 173.30 240.92 170.68 229.32 C 166.43 213.74 168.66 196.84 175.40 182.30 C 179.92 172.43 188.46 165.08 197.75 159.82 M 220.97 153.89 C 220.48 156.99 219.16 159.84 217.41 162.41 C 214.53 166.75 213.47 171.97 212.83 177.05 C 211.93 183.56 214.36 189.89 214.59 196.37 C 210.96 192.16 210.51 186.33 210.16 181.02 C 209.82 171.32 214.06 162.25 219.41 154.41 C 206.16 156.70 193.49 163.36 184.43 173.39 C 177.82 179.83 175.07 188.94 172.63 197.58 C 172.29 199.74 171.07 202.32 172.68 204.25 C 177.77 211.68 185.27 217.59 193.98 220.08 C 198.93 221.72 204.14 222.22 209.28 222.91 C 204.28 223.99 199.08 223.76 194.10 222.72 C 184.79 220.41 177.20 214.05 171.09 206.89 C 170.31 215.37 171.73 223.98 173.83 232.18 C 180.13 235.86 187.92 235.66 194.98 235.02 C 201.33 234.53 206.79 231.01 212.76 229.19 C 210.21 233.21 205.57 234.83 201.29 236.28 C 192.77 238.90 183.06 239.67 175.08 235.03 C 178.49 246.47 185.81 256.86 196.03 263.17 C 202.63 259.73 209.64 256.26 213.92 249.88 C 218.56 244.49 219.54 237.18 223.28 231.29 C 223.56 239.24 219.79 246.82 214.83 252.82 C 210.56 258.03 204.60 261.36 198.73 264.45 C 202.94 266.14 207.41 267.10 211.94 267.45 C 213.88 264.59 216.12 261.95 218.22 259.20 C 223.93 251.66 225.87 241.87 225.45 232.57 C 227.82 232.32 230.16 231.86 232.42 231.12 C 239.01 235.72 243.62 243.09 244.34 251.17 C 248.03 247.01 250.96 242.24 252.95 237.05 C 249.72 234.16 246.96 230.28 242.55 229.19 C 238.05 227.90 233.19 227.62 229.14 225.05 C 238.31 223.82 247.50 227.76 254.08 234.02 C 256.48 228.78 257.77 223.07 257.40 217.30 C 248.56 216.41 239.16 216.66 231.38 221.50 C 228.76 222.53 228.06 225.37 227.00 227.68 C 226.56 228.03 225.67 228.72 225.23 229.07 C 223.74 229.23 222.26 229.40 220.77 229.57 C 215.36 241.21 204.58 250.50 191.86 252.96 C 190.16 253.21 188.50 252.53 186.91 252.07 C 190.41 250.52 194.18 249.80 197.79 248.58 C 206.32 245.16 213.18 238.46 217.78 230.59 C 214.72 228.20 211.36 225.64 210.36 221.66 C 206.72 210.71 213.04 198.29 223.03 193.19 C 230.14 190.15 238.44 191.36 245.22 194.72 C 249.73 196.80 253.06 200.60 256.64 203.91 C 259.08 202.80 261.55 201.67 264.22 201.19 C 275.23 199.25 286.80 199.63 297.32 203.70 C 304.58 206.05 310.38 211.15 316.86 214.97 C 315.36 203.28 312.73 191.17 305.35 181.67 C 298.64 172.51 288.40 167.12 279.38 160.60 C 277.60 159.09 275.23 158.82 273.08 159.63 C 271.70 159.44 270.32 159.23 268.93 159.15 C 270.46 158.66 271.92 157.97 273.39 157.32 C 264.10 153.33 254.03 151.89 244.04 151.02 C 236.26 150.84 228.53 152.17 220.97 153.89 M 224.55 195.46 C 217.40 198.78 212.38 206.21 211.64 214.00 C 211.11 218.90 213.65 223.35 216.84 226.85 C 218.20 224.02 220.33 221.63 221.63 218.78 C 222.82 212.38 222.53 205.53 225.55 199.57 C 226.47 197.64 228.44 196.59 230.10 195.37 C 228.45 200.23 226.13 204.87 225.08 209.92 C 224.22 213.94 224.35 218.09 224.46 222.18 C 229.28 220.12 233.64 216.96 238.84 215.87 C 244.97 214.07 251.41 214.44 257.65 215.32 C 258.05 207.08 251.06 201.27 244.79 197.21 C 238.75 193.97 230.93 192.10 224.55 195.46 M 230.93 232.86 C 233.09 242.23 235.49 252.66 230.41 261.56 C 235.21 259.46 239.68 256.67 243.46 253.02 C 241.50 249.30 240.39 245.21 238.41 241.51 C 236.60 238.10 233.80 235.38 230.93 232.86 M 228.33 236.67 C 227.38 241.79 226.89 247.05 225.00 251.95 C 223.01 257.61 218.67 261.96 215.63 267.05 C 219.91 265.98 224.93 265.37 228.11 262.07 C 231.72 254.20 231.78 244.62 228.33 236.67 Z" />
<path fill="#bacaab" opacity="1.00" d=" M 149.20 155.85 C 150.72 160.05 151.00 164.54 152.08 168.85 C 153.76 175.25 161.07 177.78 163.13 183.99 C 158.45 181.19 153.81 177.91 150.61 173.44 C 148.23 167.95 148.19 161.67 149.20 155.85 Z" />
<path fill="#bacaab" opacity="1.00" d=" M 192.44 173.99 C 192.38 171.49 193.24 169.12 194.09 166.81 C 195.34 171.96 194.13 177.34 195.48 182.48 C 196.40 186.20 198.05 189.70 199.89 193.06 C 202.42 197.79 206.71 201.28 209.11 206.09 C 204.16 203.87 200.80 199.47 198.05 194.97 C 193.90 188.83 192.41 181.29 192.44 173.99 Z" />
<path fill="#bacaab" opacity="1.00" d=" M 180.52 188.47 C 180.17 186.57 180.60 184.66 180.85 182.78 C 183.37 186.67 183.35 191.49 185.28 195.62 C 188.18 201.97 192.89 207.45 198.65 211.38 C 201.23 213.13 203.73 214.99 206.03 217.10 C 201.83 216.14 197.86 214.27 194.68 211.35 C 187.53 205.63 182.17 197.54 180.52 188.47 Z" />
<path fill="#bacaab" opacity="1.00" d=" M 135.32 189.72 C 139.08 194.23 140.77 200.04 144.37 204.64 C 148.71 208.59 154.95 209.61 159.23 213.72 C 154.29 212.82 149.43 211.32 144.97 209.00 C 143.26 208.17 141.80 206.85 140.95 205.13 C 138.37 200.29 136.47 195.08 135.32 189.72 Z" />
<path fill="#bacaab" opacity="1.00" d=" M 132.12 228.80 C 137.31 231.87 141.18 236.82 146.64 239.44 C 152.86 241.40 159.49 241.48 165.91 242.46 C 164.19 243.19 162.52 244.00 160.87 244.85 C 155.41 242.22 148.68 245.12 143.64 241.29 C 139.10 237.86 135.34 233.46 132.12 228.80 Z" />
<path fill="#bacaab" opacity="1.00" d=" M 139.58 256.68 C 144.75 258.76 148.75 262.79 153.58 265.45 C 156.42 267.18 159.85 266.46 162.95 266.18 C 167.31 265.55 171.71 265.35 176.10 265.34 C 168.96 268.04 161.24 271.29 153.49 269.34 C 147.85 266.46 143.32 261.71 139.58 256.68 Z" />
</g>
<g id="#697a65ff">
<path fill="#697a65" opacity="1.00" d=" M 240.76 19.56 C 252.08 17.64 263.57 18.80 274.98 18.58 C 284.72 18.44 294.27 20.57 303.83 22.14 C 316.79 24.69 329.58 28.11 342.20 31.99 C 359.31 38.11 376.27 44.92 392.04 54.01 C 412.21 65.37 430.12 80.36 446.26 96.88 C 451.38 101.85 455.62 107.62 459.50 113.59 C 461.47 116.70 464.06 119.36 467.12 121.43 C 462.85 110.92 454.86 102.67 447.04 94.72 C 442.98 89.87 438.65 85.22 433.72 81.25 C 430.41 78.50 426.86 76.02 423.89 72.90 C 423.92 72.60 423.98 72.00 424.01 71.70 C 429.20 74.82 433.84 78.72 438.94 81.98 C 454.40 93.72 467.71 109.07 474.43 127.49 C 476.15 132.23 479.78 136.10 480.85 141.11 C 482.75 149.78 483.32 159.32 479.34 167.51 C 475.63 175.27 470.68 182.50 464.40 188.41 C 460.63 191.97 457.08 195.77 453.27 199.29 C 447.22 204.71 439.62 207.87 432.24 211.03 C 428.38 212.34 424.38 213.20 420.58 214.68 C 415.32 216.66 409.65 216.91 404.22 218.17 C 388.44 222.05 372.11 222.42 356.03 224.34 C 347.25 224.87 338.35 225.16 329.68 223.33 C 326.61 252.67 319.20 282.54 301.80 306.87 C 295.87 316.10 287.07 322.80 278.67 329.64 C 269.03 337.09 257.87 342.40 246.31 346.14 C 236.17 349.37 225.55 350.55 215.00 351.45 C 210.10 351.82 205.25 351.00 200.38 350.66 C 187.83 350.14 175.64 346.72 163.67 343.15 C 153.77 339.60 144.11 335.28 134.97 330.06 C 130.97 328.06 126.74 326.49 123.17 323.73 C 107.70 312.46 93.52 298.76 84.13 281.92 C 80.45 274.03 76.29 266.26 74.21 257.75 C 70.29 241.89 68.14 225.65 66.49 209.42 C 64.91 196.34 65.40 183.14 65.57 170.01 C 66.63 156.02 69.26 142.11 73.91 128.86 C 80.27 107.09 95.42 89.62 109.00 72.01 C 113.95 66.00 118.54 59.56 124.77 54.78 C 137.70 43.52 153.32 35.78 169.51 30.40 C 172.90 29.07 176.34 27.81 179.94 27.14 C 185.98 25.96 191.75 23.62 197.88 22.88 C 200.36 22.80 202.84 22.89 205.32 22.99 C 199.50 25.15 193.39 26.37 187.53 28.42 C 181.58 30.45 175.66 32.54 169.70 34.54 C 157.09 38.59 145.09 44.53 134.27 52.17 C 126.05 57.86 119.68 65.67 112.52 72.55 C 100.98 83.92 93.02 98.18 85.15 112.18 C 73.41 131.93 69.88 155.32 68.99 177.94 C 68.25 186.81 69.49 195.66 69.55 204.52 C 70.10 213.69 71.23 222.81 71.70 231.99 C 72.58 246.00 75.95 259.93 82.56 272.37 C 88.45 283.97 97.42 293.51 105.11 303.88 C 108.35 308.27 112.23 312.19 116.72 315.33 C 123.24 319.87 129.42 325.27 137.10 327.78 C 142.02 329.41 146.80 331.42 151.46 333.68 C 171.40 343.48 193.84 347.93 216.00 347.30 C 231.42 346.09 247.36 343.54 260.90 335.66 C 269.93 331.16 278.26 325.42 286.00 318.98 C 297.24 308.80 304.94 295.46 311.26 281.84 C 318.35 267.50 322.23 251.71 324.14 235.89 C 324.73 230.65 325.89 225.39 325.49 220.10 C 324.57 216.01 322.62 212.19 322.09 208.00 C 321.31 202.43 320.99 196.81 320.36 191.22 C 319.28 191.27 318.20 191.33 317.13 191.39 C 316.39 191.41 314.91 191.43 314.17 191.44 C 310.86 185.45 307.53 179.27 302.33 174.66 C 295.96 168.94 288.96 163.95 281.84 159.21 C 273.74 153.68 263.98 151.27 254.42 149.74 C 235.13 148.13 214.92 150.33 197.75 159.82 C 188.46 165.08 179.92 172.43 175.40 182.30 C 168.66 196.84 166.43 213.74 170.68 229.32 C 173.30 240.92 178.96 252.09 187.98 260.00 C 191.72 263.37 196.61 265.35 199.83 269.30 C 196.19 275.37 195.77 282.82 191.70 288.69 C 185.86 297.09 176.77 302.49 167.63 306.65 C 158.95 310.48 149.49 312.42 140.00 312.40 C 135.62 312.37 131.20 312.13 126.86 312.87 C 129.68 314.29 132.68 315.63 135.91 315.54 C 150.30 315.90 164.97 312.64 177.46 305.38 C 184.27 301.17 190.82 296.11 195.39 289.45 C 198.65 284.52 199.89 278.64 200.95 272.92 C 201.28 271.38 201.66 269.85 202.04 268.32 C 220.60 272.16 241.26 263.36 250.80 246.86 C 258.29 234.55 263.13 219.19 258.09 205.05 C 266.47 203.82 274.89 201.42 283.43 202.74 C 295.83 204.09 307.18 210.47 316.06 219.03 C 317.67 220.52 318.45 222.64 318.75 224.78 C 319.74 231.27 319.86 237.88 319.25 244.42 C 315.22 239.88 311.77 234.83 307.37 230.64 C 295.57 219.86 279.23 213.46 263.17 215.97 C 263.29 216.58 263.52 217.80 263.64 218.41 C 272.15 218.54 280.99 218.47 288.88 222.11 C 299.57 226.12 307.88 234.51 314.36 243.66 C 316.76 247.03 318.73 251.12 317.83 255.37 C 316.24 264.25 312.50 272.55 309.03 280.81 C 304.10 291.58 296.67 301.00 288.85 309.80 C 281.67 318.71 272.44 325.79 262.78 331.80 C 246.03 340.69 226.91 344.65 208.01 343.81 C 197.02 344.10 186.41 341.00 175.69 339.13 C 177.18 338.39 178.67 337.65 180.20 336.98 C 189.26 334.99 196.38 328.75 204.08 323.99 C 210.76 319.41 215.69 312.57 219.30 305.40 C 222.72 297.41 223.98 288.64 224.51 280.01 C 224.85 276.28 223.81 272.64 221.91 269.45 C 219.42 278.56 222.02 288.22 219.19 297.27 C 216.15 307.83 208.05 315.97 199.79 322.77 C 191.61 327.68 183.22 332.28 174.73 336.65 C 164.11 337.36 154.70 331.46 144.90 328.36 C 134.87 325.36 126.02 319.53 117.92 313.05 C 110.18 306.74 104.35 298.54 98.19 290.78 C 90.77 281.42 83.94 271.34 80.08 259.95 C 74.20 242.96 73.78 224.78 72.37 207.03 C 70.21 183.16 72.43 158.89 78.89 135.80 C 84.49 118.50 92.79 102.10 103.24 87.23 C 114.36 72.11 128.64 59.26 144.98 50.01 C 156.13 43.08 168.17 37.69 180.53 33.29 C 191.69 28.68 203.55 26.29 215.13 23.07 C 223.54 21.06 232.25 21.00 240.76 19.56 M 173.34 50.33 C 159.88 64.53 150.54 82.54 146.55 101.68 C 145.10 108.36 145.32 115.24 145.60 122.02 C 146.40 132.00 150.20 141.48 154.82 150.27 C 156.75 154.10 159.40 157.55 162.64 160.37 C 167.66 164.68 172.78 169.00 178.68 172.09 C 178.50 170.51 178.81 168.64 177.48 167.47 C 172.61 162.02 166.59 157.65 162.28 151.69 C 154.64 141.07 151.18 127.95 150.67 115.01 C 150.74 93.66 159.25 72.45 173.93 56.96 C 177.58 52.91 182.68 50.37 185.75 45.76 C 187.99 42.94 189.44 39.57 189.96 36.00 C 183.25 39.21 178.35 45.01 173.34 50.33 M 291.38 40.42 C 263.90 48.35 240.24 69.92 231.29 97.29 C 227.32 111.38 226.23 126.38 228.66 140.83 C 229.52 140.68 230.38 140.53 231.24 140.39 C 231.96 133.24 231.19 126.02 232.47 118.92 C 234.79 96.38 247.77 76.19 264.62 61.57 C 275.02 53.42 286.70 45.99 300.05 44.20 C 310.93 40.73 322.56 42.67 333.50 44.82 C 339.79 47.48 346.72 46.88 353.38 46.46 C 353.58 45.31 353.79 44.17 354.00 43.02 C 349.70 38.86 343.65 37.55 338.00 36.38 C 330.66 36.47 323.33 35.58 316.01 36.26 C 307.69 36.65 299.05 36.81 291.38 40.42 M 323.73 58.59 C 315.19 60.37 306.37 60.28 297.92 62.51 C 300.58 63.00 303.25 63.44 305.96 63.53 C 318.68 64.04 331.38 65.02 344.04 66.36 C 348.63 66.68 353.20 67.24 357.70 68.27 C 362.47 69.37 367.41 69.28 372.21 70.22 C 379.94 72.19 387.47 74.91 394.77 78.13 C 401.43 81.06 408.29 83.65 414.45 87.57 C 420.18 91.05 425.39 95.31 431.07 98.87 C 429.30 96.38 427.27 94.06 424.84 92.20 C 410.65 80.81 396.57 69.04 380.43 60.44 C 374.19 57.08 366.94 56.60 360.05 55.66 C 347.89 55.16 335.65 56.15 323.73 58.59 M 105.55 96.42 C 102.85 105.72 103.50 115.43 103.42 124.99 C 102.86 141.08 108.27 157.26 118.03 170.00 C 123.83 175.93 129.45 182.79 137.60 185.49 C 145.90 188.39 154.63 191.82 163.58 190.19 C 163.59 189.55 163.61 188.27 163.62 187.63 C 156.34 187.75 149.13 186.22 142.29 183.82 C 126.12 177.10 114.49 161.95 109.82 145.33 C 107.66 138.07 107.63 130.45 106.66 123.00 C 106.46 114.04 108.39 105.20 108.57 96.26 C 107.56 96.31 106.55 96.36 105.55 96.42 M 390.31 104.94 C 385.50 105.56 380.59 105.51 375.90 106.85 C 367.09 108.70 359.35 113.74 352.68 119.61 C 338.65 131.67 329.53 148.01 318.73 162.75 C 316.47 166.18 312.55 168.18 310.52 171.77 C 314.47 177.91 320.79 182.40 323.73 189.22 C 325.97 197.64 324.56 206.77 328.06 214.92 C 329.49 218.40 333.39 220.09 336.95 220.33 C 345.22 220.93 353.53 220.43 361.78 219.65 C 375.04 218.24 388.47 217.72 401.46 214.52 C 407.15 213.19 413.12 213.05 418.62 210.95 C 423.85 208.87 429.57 208.25 434.61 205.65 C 441.30 202.78 447.98 199.38 453.04 194.02 C 460.84 186.09 469.60 178.69 474.73 168.61 C 478.75 161.48 479.70 152.91 478.07 144.96 C 476.06 136.34 470.44 128.75 463.04 123.96 C 448.55 113.84 431.09 109.31 413.95 106.10 C 409.33 105.43 404.63 105.67 400.02 104.98 C 396.80 104.52 393.53 104.53 390.31 104.94 M 149.20 155.85 C 148.19 161.67 148.23 167.95 150.61 173.44 C 153.81 177.91 158.45 181.19 163.13 183.99 C 161.07 177.78 153.76 175.25 152.08 168.85 C 151.00 164.54 150.72 160.05 149.20 155.85 M 75.83 182.29 C 78.16 188.66 82.00 194.44 87.00 199.02 C 98.65 211.21 113.36 222.40 130.77 223.63 C 130.28 223.93 129.80 224.24 129.32 224.54 C 136.10 224.72 142.87 224.55 149.65 224.46 C 149.22 224.25 148.79 224.05 148.36 223.85 C 154.04 222.56 160.35 221.25 164.10 216.35 C 160.19 216.42 156.35 217.35 152.75 218.83 C 145.02 222.06 136.22 222.34 128.18 220.14 C 113.14 216.68 100.14 207.35 89.43 196.54 C 83.85 191.03 82.79 181.78 75.48 177.99 C 75.54 179.42 75.44 180.89 75.83 182.29 M 135.32 189.72 C 136.47 195.08 138.37 200.29 140.95 205.13 C 141.80 206.85 143.26 208.17 144.97 209.00 C 149.43 211.32 154.29 212.82 159.23 213.72 C 154.95 209.61 148.71 208.59 144.37 204.64 C 140.77 200.04 139.08 194.23 135.32 189.72 M 75.13 216.97 C 75.43 218.80 75.70 220.68 76.62 222.31 C 80.66 229.42 87.35 234.37 93.68 239.30 C 104.00 247.51 116.69 252.44 129.72 254.16 C 138.92 256.80 148.35 253.83 157.12 251.03 C 162.43 248.91 167.57 245.80 171.00 241.13 C 169.27 241.45 167.52 241.74 165.91 242.46 C 159.49 241.48 152.86 241.40 146.64 239.44 C 141.18 236.82 137.31 231.87 132.12 228.80 C 135.34 233.46 139.10 237.86 143.64 241.29 C 148.68 245.12 155.41 242.22 160.87 244.85 C 150.63 250.71 138.19 253.28 126.66 250.06 C 116.05 248.34 106.47 243.20 97.47 237.57 C 93.27 234.87 89.45 231.57 86.35 227.65 C 82.93 223.79 80.13 218.98 75.13 216.97 M 261.60 232.36 C 261.49 232.93 261.28 234.07 261.18 234.64 C 269.19 235.45 277.82 236.47 284.36 241.63 C 293.31 248.14 297.92 258.61 301.53 268.71 C 303.25 273.49 302.88 278.90 305.58 283.34 C 307.86 277.38 304.61 271.49 303.01 265.82 C 299.37 253.60 291.77 241.94 280.19 235.99 C 274.26 233.80 267.99 232.04 261.60 232.36 M 261.18 244.48 C 264.79 247.69 269.08 250.03 272.55 253.42 C 278.71 259.18 283.32 266.82 284.82 275.17 C 286.61 288.08 285.55 301.39 281.17 313.71 C 281.78 313.64 282.98 313.51 283.59 313.45 C 284.85 311.08 286.36 308.69 286.46 305.92 C 286.82 298.58 288.82 291.34 288.19 283.96 C 287.55 277.18 286.46 270.35 283.88 264.02 C 280.81 256.69 274.91 250.99 268.58 246.41 C 266.41 245.01 263.83 242.91 261.18 244.48 M 251.82 254.45 C 253.56 258.68 257.04 261.78 259.52 265.55 C 264.96 273.19 268.68 282.48 268.39 291.97 C 267.07 301.88 264.74 311.92 259.62 320.63 C 256.81 324.62 253.63 328.42 251.74 332.98 C 257.28 333.06 258.66 326.93 261.33 323.27 C 267.52 314.66 270.03 304.07 271.38 293.72 C 272.45 281.99 267.49 270.61 260.49 261.45 C 258.14 258.56 255.61 255.41 251.82 254.45 M 139.58 256.68 C 143.32 261.71 147.85 266.46 153.49 269.34 C 161.24 271.29 168.96 268.04 176.10 265.34 C 171.71 265.35 167.31 265.55 162.95 266.18 C 159.85 266.46 156.42 267.18 153.58 265.45 C 148.75 262.79 144.75 258.76 139.58 256.68 M 169.41 274.40 C 163.61 279.21 156.23 281.91 148.80 282.87 C 133.60 285.18 117.72 282.30 104.33 274.75 C 98.69 271.72 93.65 267.71 87.95 264.81 C 89.86 267.30 92.17 269.45 94.79 271.18 C 99.96 274.69 104.70 279.04 110.65 281.22 C 119.34 284.61 128.61 286.93 138.01 286.59 C 149.67 286.99 161.71 284.13 171.27 277.27 C 175.53 273.51 180.13 269.56 182.00 264.00 C 176.34 265.40 173.67 270.99 169.41 274.40 M 237.97 265.55 C 239.72 272.15 243.23 278.23 244.01 285.10 C 246.50 297.34 241.46 309.60 234.44 319.41 C 228.48 326.43 221.38 332.34 214.72 338.65 C 223.12 338.94 226.99 330.29 232.50 325.51 C 239.65 319.76 243.56 311.07 246.22 302.50 C 249.29 291.88 246.75 280.75 243.21 270.59 C 242.46 268.04 240.57 266.17 237.97 265.55 Z" />
<path fill="#697a65" opacity="1.00" d=" M 220.97 153.89 C 228.53 152.17 236.26 150.84 244.04 151.02 C 254.03 151.89 264.10 153.33 273.39 157.32 C 271.92 157.97 270.46 158.66 268.93 159.15 C 261.10 160.30 252.54 162.89 247.84 169.75 C 243.47 176.09 239.24 182.53 235.17 189.07 C 241.37 182.24 245.56 173.57 253.11 168.01 C 258.90 163.50 266.17 161.69 273.08 159.63 C 275.23 158.82 277.60 159.09 279.38 160.60 C 288.40 167.12 298.64 172.51 305.35 181.67 C 312.73 191.17 315.36 203.28 316.86 214.97 C 310.38 211.15 304.58 206.05 297.32 203.70 C 286.80 199.63 275.23 199.25 264.22 201.19 C 261.55 201.67 259.08 202.80 256.64 203.91 C 253.06 200.60 249.73 196.80 245.22 194.72 C 238.44 191.36 230.14 190.15 223.03 193.19 C 213.04 198.29 206.72 210.71 210.36 221.66 C 211.36 225.64 214.72 228.20 217.78 230.59 C 213.18 238.46 206.32 245.16 197.79 248.58 C 194.18 249.80 190.41 250.52 186.91 252.07 C 188.50 252.53 190.16 253.21 191.86 252.96 C 204.58 250.50 215.36 241.21 220.77 229.57 C 222.26 229.40 223.74 229.23 225.23 229.07 C 225.31 230.23 225.39 231.40 225.45 232.57 C 225.87 241.87 223.93 251.66 218.22 259.20 C 216.12 261.95 213.88 264.59 211.94 267.45 C 207.41 267.10 202.94 266.14 198.73 264.45 C 204.60 261.36 210.56 258.03 214.83 252.82 C 219.79 246.82 223.56 239.24 223.28 231.29 C 219.54 237.18 218.56 244.49 213.92 249.88 C 209.64 256.26 202.63 259.73 196.03 263.17 C 185.81 256.86 178.49 246.47 175.08 235.03 C 183.06 239.67 192.77 238.90 201.29 236.28 C 205.57 234.83 210.21 233.21 212.76 229.19 C 206.79 231.01 201.33 234.53 194.98 235.02 C 187.92 235.66 180.13 235.86 173.83 232.18 C 171.73 223.98 170.31 215.37 171.09 206.89 C 177.20 214.05 184.79 220.41 194.10 222.72 C 199.08 223.76 204.28 223.99 209.28 222.91 C 204.14 222.22 198.93 221.72 193.98 220.08 C 185.27 217.59 177.77 211.68 172.68 204.25 C 171.07 202.32 172.29 199.74 172.63 197.58 C 175.07 188.94 177.82 179.83 184.43 173.39 C 193.49 163.36 206.16 156.70 219.41 154.41 C 214.06 162.25 209.82 171.32 210.16 181.02 C 210.51 186.33 210.96 192.16 214.59 196.37 C 214.36 189.89 211.93 183.56 212.83 177.05 C 213.47 171.97 214.53 166.75 217.41 162.41 C 219.16 159.84 220.48 156.99 220.97 153.89 M 229.12 171.07 C 226.49 176.76 226.07 183.12 225.66 189.28 C 227.55 184.63 227.68 179.48 229.61 174.85 C 231.48 169.76 234.19 164.91 238.02 161.02 C 240.67 158.31 244.28 156.54 246.14 153.10 C 238.70 156.97 232.65 163.47 229.12 171.07 M 192.44 173.99 C 192.41 181.29 193.90 188.83 198.05 194.97 C 200.80 199.47 204.16 203.87 209.11 206.09 C 206.71 201.28 202.42 197.79 199.89 193.06 C 198.05 189.70 196.40 186.20 195.48 182.48 C 194.13 177.34 195.34 171.96 194.09 166.81 C 193.24 169.12 192.38 171.49 192.44 173.99 M 264.73 184.83 C 259.33 187.84 253.46 190.76 249.80 195.94 C 254.42 193.69 258.20 190.10 262.70 187.65 C 268.37 184.63 274.37 181.67 280.92 181.52 C 284.90 181.54 288.90 181.36 292.87 181.63 C 296.73 182.37 300.42 183.79 304.29 184.54 C 303.08 183.21 301.86 181.61 299.90 181.51 C 288.21 179.59 275.52 179.19 264.73 184.83 M 180.52 188.47 C 182.17 197.54 187.53 205.63 194.68 211.35 C 197.86 214.27 201.83 216.14 206.03 217.10 C 203.73 214.99 201.23 213.13 198.65 211.38 C 192.89 207.45 188.18 201.97 185.28 195.62 C 183.35 191.49 183.37 186.67 180.85 182.78 C 180.60 184.66 180.17 186.57 180.52 188.47 Z" />
<path fill="#697a65" opacity="1.00" d=" M 224.55 195.46 C 230.93 192.10 238.75 193.97 244.79 197.21 C 251.06 201.27 258.05 207.08 257.65 215.32 C 251.41 214.44 244.97 214.07 238.84 215.87 C 233.64 216.96 229.28 220.12 224.46 222.18 C 224.35 218.09 224.22 213.94 225.08 209.92 C 226.13 204.87 228.45 200.23 230.10 195.37 C 228.44 196.59 226.47 197.64 225.55 199.57 C 222.53 205.53 222.82 212.38 221.63 218.78 C 220.33 221.63 218.20 224.02 216.84 226.85 C 213.65 223.35 211.11 218.90 211.64 214.00 C 212.38 206.21 217.40 198.78 224.55 195.46 Z" />
<path fill="#697a65" opacity="1.00" d=" M 231.38 221.50 C 239.16 216.66 248.56 216.41 257.40 217.30 C 257.77 223.07 256.48 228.78 254.08 234.02 C 247.50 227.76 238.31 223.82 229.14 225.05 C 233.19 227.62 238.05 227.90 242.55 229.19 C 246.96 230.28 249.72 234.16 252.95 237.05 C 250.96 242.24 248.03 247.01 244.34 251.17 C 243.62 243.09 239.01 235.72 232.42 231.12 C 230.64 229.93 228.82 228.81 227.00 227.68 C 228.06 225.37 228.76 222.53 231.38 221.50 Z" />
<path fill="#697a65" opacity="1.00" d=" M 230.93 232.86 C 233.80 235.38 236.60 238.10 238.41 241.51 C 240.39 245.21 241.50 249.30 243.46 253.02 C 239.68 256.67 235.21 259.46 230.41 261.56 C 235.49 252.66 233.09 242.23 230.93 232.86 Z" />
<path fill="#697a65" opacity="1.00" d=" M 228.33 236.67 C 231.78 244.62 231.72 254.20 228.11 262.07 C 224.93 265.37 219.91 265.98 215.63 267.05 C 218.67 261.96 223.01 257.61 225.00 251.95 C 226.89 247.05 227.38 241.79 228.33 236.67 Z" />
</g>
</svg>
