<?xml version="1.0" encoding="UTF-8" ?>
<!DOCTYPE svg PUBLIC "-//W3C//DTD SVG 1.1//EN" "http://www.w3.org/Graphics/SVG/1.1/DTD/svg11.dtd">
<svg width="773pt" height="609pt" viewBox="0 0 773 609" version="1.1" xmlns="http://www.w3.org/2000/svg">
<g id="#ffffffff">
<path fill="#ffffff" opacity="1.00" d=" M 211.78 94.67 C 215.58 94.45 219.38 94.58 223.17 94.90 C 225.05 96.93 227.38 99.54 226.49 102.54 C 225.08 107.27 222.12 111.45 218.54 114.81 C 214.67 115.85 210.63 115.95 206.65 115.88 C 206.51 112.75 206.21 109.64 205.83 106.53 C 206.88 106.79 207.93 107.02 208.99 107.23 C 212.66 107.74 216.74 107.98 220.06 106.03 C 222.26 104.13 221.86 100.82 222.40 98.21 C 218.82 98.16 215.22 98.10 211.66 98.55 C 208.17 99.11 207.56 103.13 205.73 105.53 C 202.53 101.15 207.61 95.94 211.78 94.67 Z" />
</g>
<g id="#4d6745ff">
<path fill="#4d6745" opacity="1.00" d=" M 359.08 23.29 C 366.58 21.44 374.39 22.70 382.03 22.26 C 390.52 21.74 399.08 21.55 407.53 22.72 C 412.14 23.53 415.91 26.59 417.76 30.87 C 416.46 33.74 415.79 37.18 413.28 39.28 C 409.66 41.68 405.07 40.59 401.12 39.84 C 394.47 38.26 387.72 37.29 380.95 36.50 C 380.49 36.35 379.58 36.07 379.12 35.93 C 371.22 32.64 362.38 33.99 354.40 36.26 C 348.43 37.78 342.34 38.94 336.67 41.42 L 335.94 41.64 C 321.97 43.29 308.74 48.63 294.85 50.78 C 289.10 51.60 283.55 53.36 277.89 54.64 C 275.72 55.08 273.56 55.56 271.40 56.04 C 258.20 58.01 244.96 59.62 231.76 61.61 C 223.23 63.06 214.57 61.92 206.00 62.84 C 188.75 64.66 171.36 62.86 154.08 64.25 C 141.30 65.38 128.38 63.16 115.68 65.51 C 106.94 67.19 97.95 67.05 89.30 69.21 C 81.37 71.10 73.17 71.45 65.05 71.67 C 60.99 71.62 55.97 71.32 53.53 67.54 C 51.84 64.17 51.88 60.26 51.32 56.60 C 53.73 55.57 56.26 54.52 58.94 54.86 C 66.00 55.47 73.22 55.97 80.16 54.12 C 84.28 52.99 88.53 52.18 92.83 52.70 C 101.54 53.23 110.24 54.02 118.96 54.12 C 128.01 54.26 136.99 55.61 146.04 55.66 C 153.73 55.79 161.51 55.18 169.11 56.70 C 174.55 57.77 179.90 59.49 185.48 59.59 C 194.09 59.74 202.73 59.98 211.32 59.18 C 217.21 58.69 223.19 58.60 228.94 57.02 C 234.88 55.35 241.13 55.29 247.09 53.68 C 251.83 52.41 256.65 51.48 261.46 50.50 C 273.85 47.08 286.53 44.79 298.82 40.97 C 303.69 39.34 308.79 38.71 313.87 38.09 C 317.44 37.65 320.94 36.68 324.21 35.15 C 328.91 32.87 333.83 31.09 338.92 29.91 C 345.60 27.57 352.45 25.76 359.08 23.29 Z" />
<path fill="#4d6745" opacity="1.00" d=" M 284.76 56.62 C 288.65 55.64 292.66 55.13 296.67 55.06 C 299.12 54.99 300.95 56.79 302.65 58.30 C 306.79 62.16 311.10 65.93 314.31 70.64 C 320.72 80.06 329.83 87.22 336.67 96.30 C 344.21 106.34 351.74 116.40 359.41 126.34 C 360.18 127.47 360.98 128.58 361.80 129.67 C 366.86 136.14 371.42 143.11 374.29 150.84 C 378.45 159.42 381.18 168.56 384.54 177.46 C 385.85 180.84 386.29 184.47 387.18 187.97 C 388.05 191.35 390.71 193.99 391.24 197.48 C 392.58 206.13 392.32 214.91 393.32 223.59 C 394.66 237.39 395.33 251.54 400.31 264.63 C 404.86 280.98 410.61 296.95 416.05 313.01 C 424.14 335.61 434.09 357.64 447.19 377.80 C 454.47 388.90 462.91 399.32 472.57 408.44 C 480.97 415.55 489.64 422.65 499.70 427.28 C 509.37 431.87 519.22 436.25 529.67 438.70 C 533.44 439.65 537.15 440.83 540.78 442.26 C 545.00 444.16 549.53 445.18 554.09 445.96 C 554.66 446.14 555.81 446.49 556.39 446.67 C 559.77 448.26 563.44 449.10 567.19 449.14 C 571.76 449.41 576.38 449.85 580.72 451.45 C 586.43 453.59 592.66 453.99 598.22 456.62 C 613.76 461.04 628.96 469.04 639.00 482.02 C 642.68 486.05 645.95 490.42 649.31 494.73 C 654.05 500.70 660.83 504.49 666.13 509.89 C 669.80 513.63 674.90 515.55 678.46 519.43 C 681.73 522.87 685.97 525.08 689.56 528.14 C 682.32 528.42 676.54 523.36 669.82 521.53 C 669.29 521.27 668.25 520.75 667.72 520.49 C 666.26 519.61 664.76 518.79 663.15 518.25 C 656.27 516.25 650.94 511.33 644.74 508.01 C 640.12 505.40 636.33 501.48 631.40 499.37 C 625.70 496.81 621.20 491.86 614.97 490.50 C 614.67 490.83 614.06 491.49 613.75 491.83 C 619.15 502.05 625.82 511.56 631.14 521.84 C 636.22 529.58 640.15 537.99 645.16 545.78 C 651.20 555.70 657.74 565.31 663.71 575.28 C 666.68 580.43 671.28 584.94 671.94 591.12 C 667.98 587.62 665.33 583.00 662.20 578.82 C 659.35 574.78 655.99 571.07 653.65 566.69 C 651.88 563.11 649.38 559.97 646.28 557.47 C 640.14 551.96 635.36 545.19 630.11 538.89 C 627.35 535.45 624.14 532.37 621.63 528.73 C 617.65 522.32 611.90 517.34 606.04 512.71 C 602.71 509.81 599.75 506.48 596.05 504.03 C 592.25 501.50 589.55 497.64 585.64 495.27 C 580.83 492.21 575.87 489.34 571.44 485.73 C 565.50 480.13 557.48 477.97 550.28 474.57 C 545.46 472.27 540.35 470.70 535.24 469.20 C 522.48 464.91 509.71 460.61 497.09 455.95 C 488.00 452.04 478.79 448.47 469.52 445.03 C 466.92 444.01 464.56 442.47 462.37 440.77 C 458.43 437.32 453.78 434.90 449.02 432.81 C 448.60 432.54 447.75 431.99 447.33 431.71 C 442.35 427.12 436.94 423.02 431.07 419.62 C 428.08 417.81 425.90 415.01 424.06 412.10 C 419.80 405.73 414.82 399.83 409.33 394.50 C 405.32 391.09 403.22 386.12 399.59 382.39 C 393.91 376.91 389.90 370.03 385.79 363.38 C 383.48 358.78 380.62 354.47 376.94 350.85 C 371.67 344.78 366.82 338.24 363.06 331.12 C 359.39 323.09 354.39 315.79 349.41 308.54 C 348.93 307.76 348.53 306.94 348.21 306.09 C 346.86 302.20 345.28 298.39 343.15 294.86 C 341.62 292.20 340.53 289.31 339.87 286.32 C 339.07 282.61 337.77 279.04 336.17 275.61 C 335.19 273.54 334.91 271.27 334.62 269.03 C 334.16 265.07 331.73 261.75 330.71 257.95 C 329.10 252.18 326.06 246.98 323.29 241.71 C 321.36 237.85 318.07 234.96 315.34 231.69 C 311.54 227.18 307.96 222.21 302.85 219.09 C 300.78 217.56 298.22 218.65 295.97 219.00 C 295.65 218.23 295.32 217.45 295.00 216.68 C 296.58 216.71 298.16 216.74 299.75 216.74 C 297.22 215.16 294.38 214.25 291.64 213.12 C 289.03 212.04 287.13 209.87 284.83 208.32 C 281.55 206.52 278.07 205.15 274.67 203.62 C 275.69 206.29 276.73 209.09 276.32 212.01 C 275.76 213.17 275.10 214.28 274.48 215.41 C 273.20 215.53 271.94 215.66 270.67 215.79 C 269.09 215.69 268.21 217.13 267.47 218.28 C 260.65 225.39 251.63 230.57 241.89 232.40 C 232.47 233.12 222.97 233.93 213.58 232.40 C 213.32 231.81 212.80 230.63 212.54 230.04 C 222.58 224.59 232.08 218.11 240.83 210.76 C 246.17 205.40 244.54 197.08 242.59 190.60 C 240.47 186.53 235.85 185.27 231.94 183.64 C 227.56 181.60 223.47 178.99 219.16 176.81 C 212.69 173.29 205.60 170.98 199.44 166.90 C 192.78 162.13 185.10 159.14 178.07 155.00 C 170.94 150.86 163.58 147.12 155.99 143.90 C 155.56 143.63 154.70 143.09 154.26 142.83 C 149.28 138.93 144.06 135.33 139.36 131.07 L 138.60 130.40 C 140.22 128.34 142.35 126.63 145.15 126.86 C 146.58 126.87 147.98 126.49 149.20 125.72 C 151.07 124.34 154.99 124.11 154.59 121.06 C 154.28 118.91 152.78 117.21 151.55 115.52 C 146.35 109.08 140.99 102.72 134.68 97.31 C 128.89 92.37 124.36 86.16 120.17 79.86 C 118.83 77.13 116.27 73.84 118.06 70.75 C 123.18 66.00 130.47 67.86 136.68 68.32 C 145.55 68.87 154.14 71.94 163.10 71.44 C 161.76 70.02 160.41 68.60 159.06 67.20 C 176.05 67.50 193.06 67.55 210.05 66.89 C 225.50 67.28 240.56 62.19 256.02 63.02 C 250.33 65.15 244.37 66.29 238.40 67.28 C 235.28 67.74 232.46 69.22 229.88 70.96 C 237.42 72.64 244.82 69.82 252.09 68.19 C 260.29 65.95 268.69 64.05 276.30 60.14 C 279.12 58.97 281.91 57.72 284.76 56.62 M 205.54 71.58 C 206.65 72.62 207.36 74.72 209.21 74.35 C 212.31 73.98 216.19 74.41 218.50 71.94 C 214.34 70.32 209.83 71.11 205.54 71.58 M 219.16 70.99 C 219.06 71.67 218.87 73.02 218.77 73.70 C 221.54 73.82 224.31 73.91 227.09 74.00 C 227.12 73.17 227.19 71.50 227.22 70.67 C 224.53 70.67 221.83 70.69 219.16 70.99 M 148.40 74.58 C 144.02 74.98 139.55 75.34 135.39 76.88 C 135.55 77.34 135.89 78.27 136.06 78.73 C 141.78 79.73 147.53 80.87 153.36 80.94 C 156.51 81.09 159.20 83.07 162.32 83.40 C 168.60 84.04 175.14 82.55 181.22 84.82 C 185.52 86.40 190.12 86.46 194.64 86.50 C 194.82 86.05 195.16 85.16 195.34 84.71 C 198.02 86.15 200.92 87.35 204.03 87.21 C 212.23 87.07 220.45 86.68 228.65 87.09 C 231.34 87.07 233.68 88.46 235.88 89.84 C 238.83 88.09 242.02 89.97 244.94 90.77 C 244.86 89.64 244.79 88.51 244.72 87.37 C 239.93 85.42 234.93 83.77 229.72 83.57 C 220.10 83.10 210.43 84.57 200.84 83.31 C 198.96 83.02 197.35 81.98 195.71 81.11 C 194.79 81.85 193.87 82.61 192.88 83.26 C 187.89 83.60 183.16 81.69 178.34 80.73 C 174.34 79.89 170.16 80.09 166.25 78.80 C 160.39 77.13 154.68 73.95 148.40 74.58 M 247.14 87.10 C 247.34 88.44 247.46 89.82 247.87 91.13 C 251.03 92.80 254.65 93.37 257.83 95.03 C 263.44 97.39 267.96 101.57 272.48 105.53 C 275.78 108.48 277.45 112.69 279.61 116.45 C 283.60 123.11 282.78 131.16 283.77 138.57 C 284.91 144.50 279.18 148.52 278.85 154.21 C 283.62 149.84 286.94 143.36 286.43 136.78 C 286.08 130.28 285.62 123.67 283.54 117.45 C 281.62 111.93 277.98 107.18 273.81 103.16 C 270.02 99.56 266.66 95.19 261.59 93.32 C 256.69 91.40 252.61 87.42 247.14 87.10 M 211.78 94.67 C 207.61 95.94 202.53 101.15 205.73 105.53 C 207.56 103.13 208.17 99.11 211.66 98.55 C 214.97 98.63 218.28 98.77 221.59 98.98 C 221.01 101.05 220.86 103.64 218.75 104.81 C 215.83 106.60 212.28 106.70 208.99 107.23 C 207.93 107.02 206.88 106.79 205.83 106.53 C 206.21 109.64 206.51 112.75 206.65 115.88 C 208.45 116.45 210.24 117.15 212.14 117.33 C 214.54 117.48 216.57 115.95 218.54 114.81 C 222.12 111.45 225.08 107.27 226.49 102.54 C 227.38 99.54 225.05 96.93 223.17 94.90 C 220.18 91.97 214.81 91.64 211.78 94.67 M 276.21 98.72 C 281.11 106.29 286.09 113.87 289.83 122.10 C 292.62 128.84 291.60 136.32 290.26 143.27 C 288.33 142.51 286.85 145.96 288.44 147.09 L 288.03 147.49 C 284.70 151.97 281.89 156.92 277.67 160.65 C 275.47 162.60 273.39 164.70 271.78 167.17 C 277.50 165.38 281.66 160.84 285.50 156.49 C 286.61 155.01 288.09 153.55 288.33 151.64 C 293.01 146.87 294.91 140.13 295.43 133.64 C 295.51 126.02 291.53 119.25 288.23 112.64 C 285.30 107.23 282.15 101.31 276.21 98.72 M 285.96 98.74 C 286.42 100.98 287.27 103.12 288.59 105.00 C 293.53 114.05 298.40 123.75 298.59 134.29 C 298.81 142.83 294.78 150.95 289.17 157.19 C 286.10 160.68 281.67 162.99 279.75 167.42 C 284.29 166.33 287.30 162.57 290.73 159.71 C 294.19 156.76 297.24 153.25 299.06 149.05 C 302.95 141.32 301.96 132.34 300.93 124.05 C 300.02 115.94 295.44 109.01 291.18 102.29 C 289.66 100.81 287.88 99.63 285.96 98.74 M 298.74 106.97 C 300.85 112.84 303.42 118.57 304.64 124.74 C 306.68 131.53 307.40 139.04 304.60 145.73 C 301.63 152.50 297.72 159.29 291.34 163.36 C 288.09 165.42 284.78 167.61 282.80 171.02 C 290.46 167.90 296.95 162.57 302.49 156.52 C 307.23 150.94 311.29 143.70 310.13 136.13 C 309.73 128.46 308.34 120.75 305.28 113.67 C 303.98 110.71 301.29 108.78 298.74 106.97 M 270.33 173.38 C 274.26 172.61 277.50 170.19 279.40 166.68 C 275.64 167.68 271.52 169.23 270.33 173.38 M 253.81 193.24 C 253.68 193.66 253.42 194.51 253.29 194.94 C 257.35 198.20 262.22 200.14 266.57 202.93 C 267.18 202.29 267.78 201.66 268.39 201.03 C 263.73 198.07 258.74 195.69 253.81 193.24 Z" />
<path fill="#4d6745" opacity="1.00" d=" M 342.56 99.42 C 345.73 99.07 348.92 98.79 352.12 98.68 C 357.63 98.51 363.14 99.27 368.46 100.68 C 376.18 102.89 384.29 103.04 392.05 105.08 C 398.30 106.75 404.99 105.88 411.08 108.28 C 408.15 111.81 404.34 114.63 399.59 114.86 C 397.98 114.97 396.76 116.07 395.67 117.15 C 392.04 120.53 387.25 122.28 382.40 122.96 C 376.44 123.66 370.98 126.42 365.08 127.34 C 362.93 127.86 361.24 126.22 359.76 124.95 C 355.26 115.64 348.57 107.73 342.56 99.42 Z" />
<path fill="#4d6745" opacity="1.00" d=" M 384.53 164.78 C 383.69 161.26 381.59 158.14 381.24 154.49 C 385.99 158.51 389.94 163.50 395.35 166.72 C 402.51 170.99 408.23 177.13 414.05 182.99 C 419.02 188.13 424.94 192.52 428.43 198.91 C 421.19 198.74 413.96 198.65 406.74 198.05 C 401.72 197.15 396.79 194.36 394.22 189.83 C 391.47 185.17 390.61 179.71 388.19 174.90 C 386.59 171.67 385.39 168.28 384.53 164.78 Z" />
<path fill="#4d6745" opacity="1.00" d=" M 298.18 220.76 C 308.58 226.79 316.27 236.59 321.79 247.11 C 325.49 253.25 328.39 259.97 329.95 266.96 C 327.55 274.32 323.38 281.18 317.99 286.77 C 316.12 288.79 314.31 290.87 312.43 292.88 C 312.18 293.11 311.69 293.57 311.44 293.81 C 310.39 294.59 309.51 295.57 308.94 296.76 C 307.52 299.56 305.25 301.83 302.14 302.64 C 301.86 298.51 301.83 294.36 302.04 290.22 C 302.43 283.39 302.47 276.55 302.78 269.72 C 303.09 266.41 304.28 263.29 305.12 260.10 C 306.97 251.95 304.96 243.50 302.18 235.80 C 300.37 230.93 298.61 225.98 298.18 220.76 Z" />
</g>
<g id="#80956cff">
<path fill="#80956c" opacity="1.00" d=" M 417.76 30.87 C 417.46 34.81 416.62 39.74 412.43 41.32 C 401.40 43.14 390.32 40.43 379.94 36.80 L 380.95 36.50 C 387.72 37.29 394.47 38.26 401.12 39.84 C 405.07 40.59 409.66 41.68 413.28 39.28 C 415.79 37.18 416.46 33.74 417.76 30.87 Z" />
<path fill="#80956c" opacity="1.00" d=" M 354.40 36.26 C 362.38 33.99 371.22 32.64 379.12 35.93 C 370.25 34.37 361.08 35.24 352.63 38.34 C 351.54 38.65 350.44 38.92 349.34 39.14 C 345.70 39.79 342.06 40.47 338.43 41.14 C 337.99 41.21 337.11 41.35 336.67 41.42 C 342.34 38.94 348.43 37.78 354.40 36.26 Z" />
<path fill="#80956c" opacity="1.00" d=" M 313.87 38.09 C 316.76 35.63 320.49 34.89 324.21 35.15 C 320.94 36.68 317.44 37.65 313.87 38.09 Z" />
<path fill="#80956c" opacity="1.00" d=" M 294.85 50.78 C 308.74 48.63 321.97 43.29 335.94 41.64 C 329.82 44.88 322.78 45.96 316.11 47.62 C 312.20 48.23 308.34 49.14 304.54 50.22 C 301.79 50.92 298.99 51.42 296.21 51.95 C 296.36 52.98 296.51 54.02 296.67 55.06 C 292.66 55.13 288.65 55.64 284.76 56.62 C 282.53 55.77 280.25 55.04 277.89 54.64 C 283.55 53.36 289.10 51.60 294.85 50.78 Z" />
<path fill="#80956c" opacity="1.00" d=" M 92.83 52.70 C 96.87 52.14 100.97 52.08 105.04 52.27 C 110.53 52.60 116.03 52.23 121.51 52.80 C 128.93 53.58 136.44 53.08 143.85 54.13 C 150.82 55.13 157.87 55.15 164.89 55.39 C 172.35 55.65 179.66 57.30 187.04 58.21 C 195.11 59.00 203.24 58.42 211.32 59.18 C 202.73 59.98 194.09 59.74 185.48 59.59 C 179.90 59.49 174.55 57.77 169.11 56.70 C 161.51 55.18 153.73 55.79 146.04 55.66 C 136.99 55.61 128.01 54.26 118.96 54.12 C 110.24 54.02 101.54 53.23 92.83 52.70 Z" />
<path fill="#80956c" opacity="1.00" d=" M 231.76 61.61 C 244.96 59.62 258.20 58.01 271.40 56.04 C 269.65 56.93 267.96 57.93 266.25 58.90 C 266.34 59.85 266.44 60.79 266.54 61.73 C 269.79 61.20 273.06 60.76 276.30 60.14 C 268.69 64.05 260.29 65.95 252.09 68.19 C 244.82 69.82 237.42 72.64 229.88 70.96 C 232.46 69.22 235.28 67.74 238.40 67.28 C 244.37 66.29 250.33 65.15 256.02 63.02 C 240.56 62.19 225.50 67.28 210.05 66.89 C 193.06 67.55 176.05 67.50 159.06 67.20 C 160.41 68.60 161.76 70.02 163.10 71.44 C 154.14 71.94 145.55 68.87 136.68 68.32 C 130.47 67.86 123.18 66.00 118.06 70.75 C 118.02 70.02 117.94 68.56 117.90 67.83 C 113.73 67.62 109.43 67.33 105.43 68.75 C 97.11 71.96 87.96 70.34 79.41 72.43 C 73.75 73.94 67.83 73.94 62.03 73.56 C 57.66 73.31 53.33 70.63 51.58 66.55 C 50.55 63.33 51.20 59.90 51.32 56.60 C 51.88 60.26 51.84 64.17 53.53 67.54 C 55.97 71.32 60.99 71.62 65.05 71.67 C 73.17 71.45 81.37 71.10 89.30 69.21 C 97.95 67.05 106.94 67.19 115.68 65.51 C 128.38 63.16 141.30 65.38 154.08 64.25 C 171.36 62.86 188.75 64.66 206.00 62.84 C 214.57 61.92 223.23 63.06 231.76 61.61 Z" />
<path fill="#80956c" opacity="1.00" d=" M 205.54 71.58 C 209.83 71.11 214.34 70.32 218.50 71.94 C 216.19 74.41 212.31 73.98 209.21 74.35 C 207.36 74.72 206.65 72.62 205.54 71.58 Z" />
<path fill="#80956c" opacity="1.00" d=" M 219.16 70.99 C 221.83 70.69 224.53 70.67 227.22 70.67 C 227.19 71.50 227.12 73.17 227.09 74.00 C 224.31 73.91 221.54 73.82 218.77 73.70 C 218.87 73.02 219.06 71.67 219.16 70.99 Z" />
<path fill="#80956c" opacity="1.00" d=" M 148.40 74.58 C 154.68 73.95 160.39 77.13 166.25 78.80 C 170.16 80.09 174.34 79.89 178.34 80.73 C 183.16 81.69 187.89 83.60 192.88 83.26 C 193.87 82.61 194.79 81.85 195.71 81.11 C 197.35 81.98 198.96 83.02 200.84 83.31 C 210.43 84.57 220.10 83.10 229.72 83.57 C 234.93 83.77 239.93 85.42 244.72 87.37 C 244.79 88.51 244.86 89.64 244.94 90.77 C 242.02 89.97 238.83 88.09 235.88 89.84 C 233.68 88.46 231.34 87.07 228.65 87.09 C 220.45 86.68 212.23 87.07 204.03 87.21 C 200.92 87.35 198.02 86.15 195.34 84.71 C 195.16 85.16 194.82 86.05 194.64 86.50 C 190.12 86.46 185.52 86.40 181.22 84.82 C 175.14 82.55 168.60 84.04 162.32 83.40 C 159.20 83.07 156.51 81.09 153.36 80.94 C 147.53 80.87 141.78 79.73 136.06 78.73 C 135.89 78.27 135.55 77.34 135.39 76.88 C 139.55 75.34 144.02 74.98 148.40 74.58 Z" />
<path fill="#80956c" opacity="1.00" d=" M 247.14 87.10 C 252.61 87.42 256.69 91.40 261.59 93.32 C 266.66 95.19 270.02 99.56 273.81 103.16 C 277.98 107.18 281.62 111.93 283.54 117.45 C 285.62 123.67 286.08 130.28 286.43 136.78 C 286.94 143.36 283.62 149.84 278.85 154.21 C 279.18 148.52 284.91 144.50 283.77 138.57 C 282.78 131.16 283.60 123.11 279.61 116.45 C 277.45 112.69 275.78 108.48 272.48 105.53 C 267.96 101.57 263.44 97.39 257.83 95.03 C 254.65 93.37 251.03 92.80 247.87 91.13 C 247.46 89.82 247.34 88.44 247.14 87.10 Z" />
<path fill="#80956c" opacity="1.00" d=" M 211.78 94.67 C 214.81 91.64 220.18 91.97 223.17 94.90 C 219.38 94.58 215.58 94.45 211.78 94.67 Z" />
<path fill="#80956c" opacity="1.00" d=" M 340.19 95.71 C 344.20 96.56 348.17 97.59 352.12 98.68 C 348.92 98.79 345.73 99.07 342.56 99.42 L 341.81 99.49 C 341.27 98.23 340.73 96.97 340.19 95.71 Z" />
<path fill="#80956c" opacity="1.00" d=" M 211.66 98.55 C 215.22 98.10 218.82 98.16 222.40 98.21 C 221.86 100.82 222.26 104.13 220.06 106.03 C 216.74 107.98 212.66 107.74 208.99 107.23 C 212.28 106.70 215.83 106.60 218.75 104.81 C 220.86 103.64 221.01 101.05 221.59 98.98 C 218.28 98.77 214.97 98.63 211.66 98.55 Z" />
<path fill="#80956c" opacity="1.00" d=" M 285.96 98.74 C 287.88 99.63 289.66 100.81 291.18 102.29 C 290.31 103.19 289.45 104.10 288.59 105.00 C 287.27 103.12 286.42 100.98 285.96 98.74 Z" />
<path fill="#80956c" opacity="1.00" d=" M 298.74 106.97 C 301.29 108.78 303.98 110.71 305.28 113.67 C 308.34 120.75 309.73 128.46 310.13 136.13 C 311.29 143.70 307.23 150.94 302.49 156.52 C 296.95 162.57 290.46 167.90 282.80 171.02 C 284.78 167.61 288.09 165.42 291.34 163.36 C 297.72 159.29 301.63 152.50 304.60 145.73 C 307.40 139.04 306.68 131.53 304.64 124.74 C 303.42 118.57 300.85 112.84 298.74 106.97 Z" />
<path fill="#80956c" opacity="1.00" d=" M 206.65 115.88 C 210.63 115.95 214.67 115.85 218.54 114.81 C 216.57 115.95 214.54 117.48 212.14 117.33 C 210.24 117.15 208.45 116.45 206.65 115.88 Z" />
<path fill="#80956c" opacity="1.00" d=" M 395.67 117.15 C 396.76 116.07 397.98 114.97 399.59 114.86 C 400.32 116.67 396.99 118.48 395.67 117.15 Z" />
<path fill="#80956c" opacity="1.00" d=" M 145.15 126.86 C 144.48 124.70 148.39 123.82 149.20 125.72 C 147.98 126.49 146.58 126.87 145.15 126.86 Z" />
<path fill="#80956c" opacity="1.00" d=" M 139.36 131.07 C 144.06 135.33 149.28 138.93 154.26 142.83 C 148.20 140.93 142.16 136.95 139.36 131.07 Z" />
<path fill="#80956c" opacity="1.00" d=" M 288.44 147.09 C 286.85 145.96 288.33 142.51 290.26 143.27 C 290.17 144.73 289.62 146.18 288.44 147.09 Z" />
<path fill="#80956c" opacity="1.00" d=" M 270.33 173.38 C 271.52 169.23 275.64 167.68 279.40 166.68 C 277.50 170.19 274.26 172.61 270.33 173.38 Z" />
<path fill="#80956c" opacity="1.00" d=" M 231.94 183.64 C 235.85 185.27 240.47 186.53 242.59 190.60 C 238.87 188.55 234.90 186.78 231.94 183.64 Z" />
<path fill="#80956c" opacity="1.00" d=" M 253.81 193.24 C 258.74 195.69 263.73 198.07 268.39 201.03 C 267.78 201.66 267.18 202.29 266.57 202.93 C 262.22 200.14 257.35 198.20 253.29 194.94 C 253.42 194.51 253.68 193.66 253.81 193.24 Z" />
<path fill="#80956c" opacity="1.00" d=" M 406.74 198.05 C 413.96 198.65 421.19 198.74 428.43 198.91 C 429.19 199.34 429.93 199.82 430.66 200.33 C 426.39 200.02 422.11 199.90 417.84 199.87 C 414.07 199.87 410.22 199.65 406.74 198.05 Z" />
<path fill="#80956c" opacity="1.00" d=" M 274.67 203.62 C 278.07 205.15 281.55 206.52 284.83 208.32 C 281.40 207.79 278.51 209.51 276.32 212.01 C 276.73 209.09 275.69 206.29 274.67 203.62 Z" />
<path fill="#80956c" opacity="1.00" d=" M 267.47 218.28 C 268.21 217.13 269.09 215.69 270.67 215.79 C 271.81 217.45 268.83 219.65 267.47 218.28 Z" />
<path fill="#80956c" opacity="1.00" d=" M 302.18 235.80 C 304.96 243.50 306.97 251.95 305.12 260.10 C 304.95 251.91 303.58 243.85 302.18 235.80 Z" />
<path fill="#80956c" opacity="1.00" d=" M 336.17 275.61 C 337.77 279.04 339.07 282.61 339.87 286.32 C 337.66 283.15 336.50 279.43 336.17 275.61 Z" />
<path fill="#80956c" opacity="1.00" d=" M 312.43 292.88 C 314.31 290.87 316.12 288.79 317.99 286.77 C 316.89 289.41 315.00 291.59 312.43 292.88 Z" />
<path fill="#80956c" opacity="1.00" d=" M 308.94 296.76 C 309.51 295.57 310.39 294.59 311.44 293.81 C 312.86 295.17 310.51 298.02 308.94 296.76 Z" />
<path fill="#80956c" opacity="1.00" d=" M 343.15 294.86 C 345.28 298.39 346.86 302.20 348.21 306.09 C 345.32 303.00 344.01 298.91 343.15 294.86 Z" />
<path fill="#80956c" opacity="1.00" d=" M 349.41 308.54 C 354.39 315.79 359.39 323.09 363.06 331.12 C 357.61 324.24 352.30 316.91 349.41 308.54 Z" />
<path fill="#80956c" opacity="1.00" d=" M 376.94 350.85 C 380.62 354.47 383.48 358.78 385.79 363.38 C 382.05 359.82 379.05 355.55 376.94 350.85 Z" />
<path fill="#80956c" opacity="1.00" d=" M 409.33 394.50 C 414.82 399.83 419.80 405.73 424.06 412.10 C 417.71 407.61 413.23 401.10 409.33 394.50 Z" />
<path fill="#80956c" opacity="1.00" d=" M 431.07 419.62 C 436.94 423.02 442.35 427.12 447.33 431.71 C 440.93 429.23 435.46 424.84 431.07 419.62 Z" />
<path fill="#80956c" opacity="1.00" d=" M 449.02 432.81 C 453.78 434.90 458.43 437.32 462.37 440.77 C 457.30 439.36 452.47 436.87 449.02 432.81 Z" />
<path fill="#80956c" opacity="1.00" d=" M 540.78 442.26 C 545.40 442.64 549.90 443.96 554.09 445.96 C 549.53 445.18 545.00 444.16 540.78 442.26 Z" />
<path fill="#80956c" opacity="1.00" d=" M 556.39 446.67 C 560.20 445.91 564.36 446.14 567.19 449.14 C 563.44 449.10 559.77 448.26 556.39 446.67 Z" />
<path fill="#80956c" opacity="1.00" d=" M 535.24 469.20 C 540.35 470.70 545.46 472.27 550.28 474.57 C 557.48 477.97 565.50 480.13 571.44 485.73 C 563.58 483.32 556.76 478.57 549.07 475.76 C 544.33 473.87 539.13 472.69 535.24 469.20 Z" />
<path fill="#80956c" opacity="1.00" d=" M 606.04 512.71 C 611.90 517.34 617.65 522.32 621.63 528.73 C 615.90 524.00 610.19 518.94 606.04 512.71 Z" />
<path fill="#80956c" opacity="1.00" d=" M 663.15 518.25 C 664.76 518.79 666.26 519.61 667.72 520.49 C 666.29 522.15 662.21 520.45 663.15 518.25 Z" />
<path fill="#80956c" opacity="1.00" d=" M 669.82 521.53 C 676.54 523.36 682.32 528.42 689.56 528.14 C 692.11 527.95 693.41 530.43 694.60 532.26 C 692.85 532.30 691.03 532.41 689.43 531.61 C 684.05 529.32 678.77 526.83 673.43 524.46 C 671.95 523.86 670.86 522.67 669.82 521.53 Z" />
<path fill="#80956c" opacity="1.00" d=" M 646.28 557.47 C 649.38 559.97 651.88 563.11 653.65 566.69 C 650.33 564.40 647.63 561.30 646.28 557.47 Z" />
</g>
<g id="#c3ceb0ff">
<path fill="#c3ceb0" opacity="1.00" d=" M 352.63 38.34 C 361.08 35.24 370.25 34.37 379.12 35.93 C 379.58 36.07 380.49 36.35 380.95 36.50 L 379.94 36.80 C 377.46 37.85 374.77 37.95 372.16 37.41 C 365.63 35.90 359.21 39.00 352.63 38.34 Z" />
<path fill="#c3ceb0" opacity="1.00" d=" M 338.43 41.14 C 342.06 40.47 345.70 39.79 349.34 39.14 C 346.70 42.60 342.13 41.62 338.43 41.14 Z" />
<path fill="#c3ceb0" opacity="1.00" d=" M 304.54 50.22 C 308.34 49.14 312.20 48.23 316.11 47.62 C 313.86 51.82 308.38 50.33 304.54 50.22 Z" />
<path fill="#c3ceb0" opacity="1.00" d=" M 271.40 56.04 C 273.56 55.56 275.72 55.08 277.89 54.64 C 280.25 55.04 282.53 55.77 284.76 56.62 C 281.91 57.72 279.12 58.97 276.30 60.14 C 273.06 60.76 269.79 61.20 266.54 61.73 C 266.44 60.79 266.34 59.85 266.25 58.90 C 267.96 57.93 269.65 56.93 271.40 56.04 Z" />
<path fill="#c3ceb0" opacity="1.00" d=" M 288.59 105.00 C 289.45 104.10 290.31 103.19 291.18 102.29 C 295.44 109.01 300.02 115.94 300.93 124.05 C 301.96 132.34 302.95 141.32 299.06 149.05 C 297.24 153.25 294.19 156.76 290.73 159.71 C 287.30 162.57 284.29 166.33 279.75 167.42 C 281.67 162.99 286.10 160.68 289.17 157.19 C 294.78 150.95 298.81 142.83 298.59 134.29 C 298.40 123.75 293.53 114.05 288.59 105.00 Z" />
<path fill="#c3ceb0" opacity="1.00" d=" M 365.08 127.34 C 370.98 126.42 376.44 123.66 382.40 122.96 C 381.41 124.12 380.64 125.79 378.88 125.78 C 373.09 126.61 367.22 127.33 361.80 129.67 C 360.98 128.58 360.18 127.47 359.41 126.34 C 359.50 125.99 359.67 125.30 359.76 124.95 C 361.24 126.22 362.93 127.86 365.08 127.34 Z" />
<path fill="#c3ceb0" opacity="1.00" d=" M 155.99 143.90 C 163.58 147.12 170.94 150.86 178.07 155.00 C 185.10 159.14 192.78 162.13 199.44 166.90 C 197.00 166.59 194.64 165.84 192.53 164.58 C 187.36 161.61 181.84 159.34 176.62 156.47 C 171.87 153.96 167.53 150.72 162.60 148.54 C 160.09 147.47 157.78 145.97 155.99 143.90 Z" />
<path fill="#c3ceb0" opacity="1.00" d=" M 277.67 160.65 C 281.89 156.92 284.70 151.97 288.03 147.49 C 288.15 148.87 288.28 150.25 288.33 151.64 C 288.09 153.55 286.61 155.01 285.50 156.49 C 281.66 160.84 277.50 165.38 271.78 167.17 C 273.39 164.70 275.47 162.60 277.67 160.65 Z" />
<path fill="#c3ceb0" opacity="1.00" d=" M 417.84 199.87 C 422.11 199.90 426.39 200.02 430.66 200.33 L 431.65 200.41 C 427.94 204.58 421.70 202.93 417.84 199.87 Z" />
<path fill="#c3ceb0" opacity="1.00" d=" M 302.04 290.22 C 300.76 283.47 300.70 276.32 302.78 269.72 C 302.47 276.55 302.43 283.39 302.04 290.22 Z" />
</g>
</svg>
