<?xml version="1.0" encoding="UTF-8" ?>
<!DOCTYPE svg PUBLIC "-//W3C//DTD SVG 1.1//EN" "http://www.w3.org/Graphics/SVG/1.1/DTD/svg11.dtd">
<svg width="812pt" height="590pt" viewBox="0 0 812 590" version="1.1" xmlns="http://www.w3.org/2000/svg">
<g id="#d3fafbff">
</g>
<g id="#97bbbdff">
<path fill="#97bbbd" opacity="1.00" d=" M 755.99 24.96 C 770.31 21.92 786.22 23.82 800.32 27.88 C 785.61 26.31 770.90 23.78 755.99 24.96 Z" />
</g>
<g id="#8fb5b6ff">
<path fill="#8fb5b6" opacity="1.00" d=" M 278.93 25.00 C 294.12 22.93 309.67 24.15 324.98 24.32 L 324.60 25.28 C 309.38 24.77 294.15 25.02 278.93 25.00 Z" />
</g>
<g id="#9fc4c5ff">
<path fill="#9fc4c5" opacity="1.00" d=" M 324.98 24.32 C 331.99 25.18 339.39 23.65 346.01 26.88 C 338.86 26.59 331.70 26.10 324.60 25.28 L 324.98 24.32 Z" />
</g>
<g id="#a1c6c7ff">
<path fill="#a1c6c7" opacity="1.00" d=" M 728.12 28.16 C 736.94 24.89 746.68 24.30 755.99 24.96 C 747.04 26.04 737.33 26.67 728.12 28.16 Z" />
</g>
<g id="#4e7676ff">
<path fill="#4e7676" opacity="1.00" d=" M 249.16 37.13 C 257.88 30.57 268.44 27.42 278.93 25.00 C 294.15 25.02 309.38 24.77 324.60 25.28 C 331.70 26.10 338.86 26.59 346.01 26.88 C 347.58 28.57 349.75 29.06 351.99 29.16 C 356.24 31.17 360.68 32.77 364.78 35.09 C 366.99 36.81 369.38 38.31 372.13 39.00 C 372.56 39.27 373.43 39.81 373.86 40.09 C 379.99 44.50 388.28 45.09 395.19 42.20 C 397.80 41.27 400.30 40.06 402.86 38.99 C 405.57 38.81 408.00 37.59 410.27 36.19 C 415.72 34.33 421.27 32.77 426.68 30.78 C 432.85 30.97 439.03 30.91 445.22 30.81 C 450.25 31.54 455.14 33.01 460.13 33.98 C 468.14 37.86 476.58 40.77 484.80 44.19 C 488.31 45.90 492.19 46.64 496.05 47.14 C 502.02 48.32 508.55 48.70 514.30 46.32 C 518.38 45.03 522.20 43.05 526.03 41.14 C 528.67 41.01 531.65 40.51 532.97 37.88 C 536.54 38.01 539.79 36.42 542.97 35.00 C 553.16 31.26 563.83 33.69 573.98 36.10 C 577.92 38.10 581.93 39.93 585.89 41.92 C 587.31 44.10 589.48 45.47 591.96 46.20 C 596.62 49.52 600.21 54.02 602.75 59.15 C 603.61 61.28 605.15 63.25 607.63 63.42 C 620.20 65.17 633.00 63.30 645.22 60.21 C 654.83 58.09 664.32 55.05 672.84 50.03 C 675.09 49.39 677.24 48.41 679.16 47.05 C 689.20 40.86 699.84 35.88 711.02 32.10 C 715.15 31.40 719.38 30.96 723.27 29.28 C 724.89 28.98 726.53 28.65 728.12 28.16 C 737.33 26.67 747.04 26.04 755.99 24.96 C 770.90 23.78 785.61 26.31 800.32 27.88 L 801.06 28.14 C 802.45 29.92 804.60 30.55 806.80 30.07 C 808.50 30.87 810.25 31.60 812.00 32.33 L 812.00 40.21 C 791.51 30.15 768.04 30.57 745.65 32.45 C 724.52 34.85 703.28 39.92 685.10 51.55 C 662.87 64.64 637.39 69.86 611.92 71.06 C 614.87 75.34 621.03 77.18 624.38 81.62 C 640.63 78.58 657.28 82.82 673.44 78.50 C 683.46 77.94 690.07 68.37 700.00 67.93 C 726.49 66.67 753.79 68.09 778.96 77.06 C 787.20 81.97 796.66 82.00 805.90 83.08 C 807.77 83.10 806.79 85.99 807.40 87.22 C 804.89 88.73 801.81 89.54 799.13 87.98 C 782.75 85.12 767.56 77.46 750.98 75.17 C 732.08 73.60 712.17 69.50 693.47 74.57 C 676.15 87.66 653.32 84.20 633.10 85.46 C 631.51 85.27 628.07 85.13 629.26 87.68 C 637.59 95.83 648.51 101.51 659.89 103.73 C 678.01 98.41 696.96 92.66 715.94 97.87 C 724.93 90.57 734.16 80.37 746.98 81.01 C 759.34 84.38 768.90 93.64 780.65 98.30 C 783.90 99.38 793.23 97.30 789.85 104.68 C 787.19 109.10 781.80 105.45 777.87 105.05 L 777.15 104.72 C 765.51 99.79 755.83 90.32 743.10 88.16 C 736.14 89.57 730.76 95.10 725.87 99.86 C 740.48 104.23 754.56 110.58 767.85 118.11 C 775.92 122.59 783.73 127.64 791.02 133.20 C 791.80 135.58 789.93 136.70 787.97 137.39 L 787.21 136.98 C 778.07 127.93 765.65 123.69 754.99 116.86 C 746.75 111.66 737.32 109.35 728.42 105.71 C 725.42 105.58 721.91 102.95 718.97 104.93 C 708.40 113.29 693.67 111.35 681.00 113.06 C 670.87 114.81 660.12 106.95 650.70 112.69 C 633.15 119.01 616.01 127.10 597.33 129.37 C 582.87 130.67 568.32 130.21 553.90 129.00 C 561.67 136.78 566.62 146.85 574.85 154.24 C 581.78 163.28 587.98 173.01 596.00 181.15 C 599.52 186.81 603.38 192.27 607.93 197.17 C 610.29 200.72 612.86 204.16 615.78 207.29 C 619.33 212.95 623.72 218.01 628.03 223.10 C 628.65 224.03 629.29 224.95 629.92 225.89 C 630.54 228.14 632.18 229.78 633.97 231.17 C 635.01 232.99 636.26 234.68 637.72 236.20 C 640.22 239.04 642.59 241.99 644.96 244.96 C 646.06 247.44 648.10 249.23 650.02 251.10 C 652.18 254.15 654.46 257.11 656.73 260.09 C 657.69 262.14 659.24 263.79 661.01 265.20 C 663.00 267.42 665.07 269.59 667.08 271.82 C 669.04 275.39 670.85 279.57 674.84 281.28 C 676.13 282.61 677.42 283.93 678.83 285.14 C 681.33 287.38 683.98 289.57 686.95 291.22 C 689.26 293.11 691.53 295.06 693.84 296.98 C 695.19 298.75 696.82 300.29 698.89 301.22 C 699.14 301.41 699.65 301.80 699.90 301.99 C 701.22 303.77 702.83 305.32 704.89 306.24 C 705.17 306.41 705.73 306.75 706.01 306.93 C 709.07 310.15 711.55 314.49 715.99 316.00 C 724.11 324.20 731.47 333.60 740.99 340.16 C 740.89 342.40 742.64 344.05 744.84 344.08 C 746.96 346.90 749.23 349.60 751.76 352.09 C 753.38 354.76 755.62 356.99 757.91 359.12 C 758.13 359.36 758.56 359.85 758.78 360.09 C 759.63 362.15 761.17 363.75 762.99 365.01 C 763.55 367.26 765.20 368.84 767.10 370.05 C 766.79 371.97 768.19 373.47 769.93 374.02 C 771.09 376.11 772.36 378.14 773.75 380.09 C 774.93 382.26 776.45 384.21 778.02 386.11 C 779.63 388.48 781.24 390.84 782.87 393.20 C 783.21 395.11 784.44 396.63 785.86 397.90 C 787.55 401.49 789.11 405.29 791.92 408.18 C 793.78 412.19 795.90 416.06 798.03 419.94 C 797.82 421.56 798.60 423.10 799.95 424.01 C 801.88 427.50 803.23 431.26 804.97 434.83 C 806.63 440.87 807.60 448.01 812.00 452.62 L 812.00 457.65 C 807.60 460.82 803.30 464.25 798.15 466.14 C 785.38 467.76 772.41 466.00 759.70 467.60 C 753.91 468.10 747.43 468.60 743.19 473.07 C 740.70 475.76 739.89 479.55 740.00 483.12 C 736.64 491.06 731.87 498.89 724.13 503.17 C 719.38 503.38 714.75 502.70 710.10 501.95 C 707.43 499.23 700.26 497.01 698.62 501.70 C 692.64 509.94 686.55 518.13 679.94 525.89 C 678.07 527.76 676.07 529.56 675.06 532.07 C 674.85 532.35 674.44 532.89 674.24 533.16 C 669.99 536.25 666.16 539.91 663.05 544.15 C 660.22 545.91 657.32 547.60 654.89 549.90 C 650.41 550.25 644.06 552.34 641.52 547.44 C 636.99 541.08 638.61 532.61 635.02 525.94 C 634.96 520.26 634.09 514.62 632.95 509.07 C 632.71 490.91 630.11 472.81 629.36 454.70 C 629.18 453.10 628.82 449.90 628.64 448.30 C 628.20 443.58 630.44 438.30 628.03 433.91 C 629.12 428.55 628.62 423.16 627.72 417.84 C 627.69 417.44 627.63 416.64 627.61 416.24 C 628.40 401.52 627.36 386.70 625.97 372.07 C 625.63 361.46 626.89 350.72 625.18 340.19 C 625.56 332.96 627.62 324.95 625.03 318.00 C 624.46 314.69 626.00 310.82 624.15 307.79 C 618.73 302.27 613.75 296.36 608.27 290.89 C 607.29 288.86 605.75 287.21 604.00 285.82 C 599.31 279.32 593.34 273.96 587.84 268.19 C 568.61 245.69 548.25 224.28 528.97 201.80 C 523.26 195.00 517.55 188.11 511.13 181.97 C 505.21 173.96 498.56 166.47 491.35 159.61 C 487.39 154.20 481.15 160.84 477.84 163.93 C 483.63 171.27 490.08 178.12 494.98 186.13 C 501.49 200.21 509.79 213.38 516.96 227.13 C 522.14 236.91 526.81 247.33 534.72 255.29 C 536.43 257.81 538.55 260.03 540.77 262.12 C 544.07 266.76 547.80 271.41 552.84 274.27 C 553.82 275.22 554.81 276.16 555.82 277.09 C 557.08 279.77 559.39 281.66 561.81 283.27 C 563.44 284.93 565.10 286.56 566.81 288.14 C 568.28 290.31 570.08 292.24 571.92 294.14 C 572.50 294.80 573.10 295.46 573.71 296.12 C 574.70 298.14 576.24 299.79 578.03 301.14 C 587.45 311.73 592.10 325.19 595.24 338.77 C 595.14 343.48 594.98 348.21 594.96 352.94 C 593.76 359.29 592.86 365.76 593.20 372.25 C 592.39 377.76 591.40 383.24 590.80 388.79 C 589.78 392.48 589.25 396.24 589.12 400.07 C 587.49 404.57 586.01 409.22 585.98 414.06 C 583.97 422.59 579.25 430.27 577.78 438.93 C 573.90 448.08 572.43 458.15 569.77 467.73 C 567.73 472.55 567.61 477.89 567.01 483.01 C 563.33 497.79 564.46 513.19 562.17 528.19 C 561.20 533.98 558.82 539.47 555.03 543.98 C 547.78 547.73 539.80 545.58 533.00 542.02 C 529.34 539.83 525.02 542.04 523.70 545.86 C 521.22 548.30 518.70 550.70 516.08 552.98 C 510.09 555.67 503.42 556.77 496.98 555.01 C 486.96 552.91 480.95 540.26 470.89 540.53 C 470.21 541.30 469.57 542.10 468.96 542.93 C 463.23 544.44 457.32 546.85 451.30 545.72 C 441.11 543.50 432.10 537.59 421.62 536.38 C 415.20 535.75 416.83 528.31 417.80 523.77 C 418.61 522.52 419.38 521.25 420.15 519.97 C 421.55 518.64 422.95 517.06 422.89 514.99 C 424.27 512.73 425.82 510.58 427.11 508.26 C 428.82 506.77 430.35 505.06 431.20 502.93 C 432.56 501.62 433.95 500.10 433.89 498.08 C 435.77 496.85 437.42 495.26 438.03 493.03 C 440.19 491.63 441.48 489.47 442.10 487.02 C 442.33 486.79 442.78 486.33 443.01 486.10 C 445.89 483.50 448.76 480.60 450.03 476.85 C 453.84 471.10 458.44 465.89 462.13 460.06 C 463.74 459.38 465.06 458.03 465.09 456.19 C 467.74 452.72 469.68 448.78 471.94 445.07 C 473.84 443.44 475.19 441.31 476.23 439.05 C 479.24 433.60 483.56 428.93 486.12 423.25 C 487.76 421.75 489.26 420.10 490.28 418.11 C 491.62 416.12 492.89 414.10 494.08 412.03 C 495.81 411.42 497.16 409.94 496.97 408.01 C 497.22 407.54 497.70 406.61 497.94 406.14 C 500.11 404.68 501.47 402.49 502.16 400.00 C 505.54 395.46 508.87 390.88 512.09 386.22 C 514.66 383.60 516.18 380.19 518.14 377.13 C 519.11 376.16 520.10 375.19 521.04 374.19 C 524.13 371.16 527.06 367.91 529.32 364.20 C 530.31 362.86 531.22 361.46 532.12 360.06 C 533.82 359.40 535.15 357.92 534.97 356.00 C 535.73 354.70 536.52 353.43 537.22 352.09 C 539.75 346.18 536.88 339.39 531.23 336.72 C 527.68 334.39 524.94 331.09 522.19 327.92 C 520.29 324.82 518.86 321.31 516.09 318.84 C 515.87 318.61 515.42 318.14 515.20 317.90 C 513.51 314.67 511.23 311.79 509.05 308.91 C 506.55 305.42 504.32 301.75 502.00 298.15 C 500.98 295.59 500.18 292.72 497.89 290.98 C 496.07 288.74 494.62 286.25 493.17 283.77 C 491.45 280.87 489.75 278.01 488.02 275.14 C 486.27 271.10 484.62 266.79 481.24 263.83 C 478.97 259.28 476.38 254.88 473.34 250.81 C 472.36 247.95 470.83 245.32 469.05 242.90 C 465.09 236.89 461.25 230.81 457.28 224.80 C 457.21 223.46 456.37 222.39 455.20 221.82 C 448.93 212.52 443.68 202.33 436.12 193.98 C 432.21 187.59 425.13 181.24 417.05 183.97 C 405.29 184.16 393.53 183.77 381.77 184.18 C 361.27 180.70 341.52 174.36 322.15 166.93 C 314.32 164.28 307.30 158.76 299.01 157.94 C 299.87 173.40 301.00 188.97 303.64 204.26 C 304.16 208.55 303.31 213.11 304.78 217.26 C 305.03 218.69 305.54 221.55 305.79 222.98 C 304.69 228.75 305.93 235.60 309.84 240.07 C 311.16 243.45 313.43 246.34 315.96 248.93 C 319.84 254.23 325.11 258.31 331.01 261.14 C 333.80 263.40 336.48 266.15 340.10 267.03 C 341.36 268.01 342.59 269.03 343.84 270.03 C 349.41 274.96 355.85 278.82 361.80 283.28 C 363.68 285.11 365.82 286.64 368.04 288.04 C 373.32 292.99 377.92 299.17 377.04 306.91 C 375.32 308.90 373.43 310.76 371.29 312.31 C 364.39 312.29 357.54 311.64 350.65 311.54 C 349.53 317.30 350.50 323.20 351.12 328.97 C 349.98 331.29 348.92 333.65 347.94 336.04 C 346.10 338.50 343.86 340.63 341.28 342.32 C 331.28 344.96 321.44 339.60 311.72 340.60 C 306.88 346.10 307.36 355.72 300.05 359.16 C 295.61 359.16 291.25 358.55 286.84 358.20 C 283.47 354.17 280.10 350.15 276.96 345.95 C 274.07 338.73 270.04 332.01 269.01 324.13 C 268.61 316.72 267.36 309.37 265.92 302.10 C 266.16 291.46 265.27 280.75 267.19 270.22 C 268.63 263.70 268.83 257.03 269.20 250.39 C 270.42 247.12 269.28 243.59 269.34 240.24 C 270.08 222.79 268.81 205.28 267.27 187.91 C 266.05 178.94 265.74 169.81 263.07 161.10 C 262.46 152.66 259.57 144.62 258.70 136.22 C 254.16 132.62 249.40 127.46 243.26 127.05 C 239.64 140.55 237.16 154.35 236.15 168.29 C 234.72 175.76 234.19 183.35 233.82 190.94 C 233.58 191.41 233.10 192.35 232.85 192.82 C 232.20 196.56 231.94 200.34 232.06 204.18 C 230.34 213.45 229.77 223.00 231.61 232.30 C 231.95 234.19 232.42 236.06 233.02 237.89 C 234.10 249.67 235.90 261.39 232.85 273.07 C 231.57 274.71 230.75 276.69 230.94 278.80 C 218.71 293.37 199.90 300.16 183.11 308.13 C 164.20 316.36 146.15 326.13 127.11 334.05 C 120.75 333.67 113.71 336.91 107.96 332.95 C 107.23 332.03 106.51 331.12 105.86 330.16 C 105.82 326.03 105.80 321.90 105.80 317.79 C 108.11 309.73 113.67 303.11 116.06 295.09 C 113.19 288.13 104.08 288.51 101.80 281.32 C 101.83 277.17 101.87 273.03 101.89 268.89 C 103.08 266.73 104.60 264.72 105.22 262.29 C 107.19 259.31 110.98 256.25 109.75 252.29 C 104.96 245.50 97.06 239.31 98.05 230.10 C 100.70 226.67 103.99 222.44 108.85 223.17 C 116.44 225.24 123.93 227.94 131.90 228.15 C 132.37 228.39 133.33 228.87 133.80 229.11 C 137.24 230.89 141.21 230.61 144.96 231.04 C 157.80 234.21 170.28 238.70 181.81 245.26 C 185.50 246.97 190.59 251.64 194.18 249.19 C 195.73 242.92 196.79 236.54 198.13 230.23 C 198.72 227.09 199.01 223.94 198.81 220.77 C 199.21 216.58 199.85 212.42 200.22 208.23 C 201.03 200.24 201.62 192.24 202.17 184.24 C 204.11 173.94 204.04 163.45 204.14 153.03 C 205.53 144.37 205.05 135.57 204.91 126.86 C 187.86 131.35 172.63 143.43 154.00 141.02 C 141.38 136.98 139.43 121.45 130.67 113.12 C 118.81 111.43 114.66 127.07 103.59 128.53 C 87.16 130.68 73.68 144.15 56.40 141.64 C 41.59 140.22 28.75 131.41 14.17 128.84 C 12.04 128.72 7.20 126.09 10.23 124.25 C 27.35 125.06 41.79 136.67 59.03 136.97 C 74.92 138.84 87.09 125.84 102.38 124.43 C 104.20 124.06 106.07 123.63 107.48 122.34 C 114.09 116.75 120.21 107.33 129.89 108.05 C 143.43 112.13 142.31 130.95 154.38 136.73 C 173.17 139.49 188.12 125.76 205.27 121.26 C 205.61 112.46 207.67 102.23 205.79 93.08 C 196.31 93.60 187.65 99.10 178.01 98.97 C 159.01 97.56 139.96 90.17 120.99 94.02 C 106.63 102.59 89.53 109.54 72.64 104.37 C 56.58 97.44 38.62 101.46 21.98 97.07 C 17.59 96.23 9.71 92.90 14.95 87.82 C 18.54 85.75 21.22 89.88 24.64 90.41 C 43.46 94.52 63.97 90.29 81.64 99.40 C 94.66 100.91 106.12 94.20 116.80 87.72 C 138.58 80.69 160.51 91.62 182.54 91.34 C 205.63 87.03 226.52 71.89 250.71 74.27 C 264.27 77.88 275.06 88.32 288.64 92.38 C 302.34 97.18 318.46 102.72 332.11 95.12 C 338.50 91.57 345.46 87.31 350.71 83.00 C 344.37 76.57 334.93 73.53 326.98 69.17 C 306.86 62.27 286.03 77.66 266.32 68.71 C 250.87 59.08 231.21 62.65 213.96 64.46 C 207.08 65.85 199.62 66.48 193.82 70.78 C 171.03 84.39 143.19 80.16 117.98 80.98 C 106.03 78.82 94.87 73.78 83.06 71.12 C 66.78 79.40 49.32 90.45 30.28 84.75 C 21.45 82.67 17.04 74.49 8.92 71.16 C 6.74 70.68 5.96 69.04 5.81 67.09 C 13.81 61.81 19.22 74.23 26.07 76.94 C 44.15 88.98 64.94 74.39 81.43 66.37 C 95.21 65.56 106.86 76.55 120.86 75.31 C 129.58 77.78 138.52 76.74 147.33 75.50 C 160.67 76.26 174.78 74.60 187.03 69.02 C 195.07 63.42 204.12 59.69 214.04 58.95 C 232.13 57.27 252.15 53.10 268.60 63.45 C 290.31 71.29 313.88 55.34 334.85 66.15 C 341.77 70.35 348.92 74.52 355.77 78.55 C 366.70 70.36 377.70 62.32 389.70 55.76 C 401.27 52.58 413.28 54.58 423.75 60.19 C 433.90 62.22 444.64 62.59 453.72 68.22 C 462.19 68.63 470.63 69.79 479.03 71.04 C 496.12 73.29 513.54 72.65 530.44 76.42 C 542.50 77.89 552.64 86.02 565.00 86.10 C 570.69 88.94 574.67 84.40 579.25 82.18 C 587.13 77.61 594.57 71.89 603.88 70.71 C 604.64 67.29 598.89 68.93 598.25 65.78 C 592.41 52.06 578.17 44.00 564.04 41.41 C 539.14 34.05 520.12 61.06 494.92 54.68 C 473.98 50.75 456.05 36.52 434.13 36.59 C 415.79 39.13 399.37 52.35 380.06 50.53 C 364.16 45.18 350.82 32.14 333.14 32.77 C 325.22 32.94 317.49 31.00 309.56 31.46 C 293.52 31.77 276.44 29.08 262.07 38.05 C 242.63 54.09 215.46 37.89 194.77 50.04 C 178.41 51.91 161.32 42.69 145.54 50.47 C 130.35 57.89 114.59 67.31 97.09 65.01 C 82.95 62.80 74.42 49.79 60.98 46.32 C 47.44 48.43 41.66 67.26 27.14 65.89 C 18.58 61.33 10.86 55.14 2.04 50.74 C 0.57 48.07 1.08 45.30 3.86 43.80 C 8.05 46.67 13.37 47.45 17.31 50.74 C 17.54 52.83 19.10 54.31 21.06 54.86 C 22.98 56.05 24.80 57.40 26.82 58.40 C 30.32 60.10 33.32 59.03 35.18 56.11 C 42.11 50.70 47.50 43.30 55.85 39.78 C 60.75 39.59 65.48 40.75 70.20 41.87 C 76.78 46.70 83.91 50.75 90.86 55.03 C 98.33 59.25 108.35 59.74 116.25 56.21 C 124.07 53.45 131.37 49.47 138.82 45.88 C 146.89 43.01 155.21 40.36 163.86 40.25 C 170.35 40.85 176.64 43.28 183.21 42.95 C 189.34 43.06 195.74 42.35 201.03 39.04 C 211.63 37.62 222.35 37.88 233.02 38.05 C 238.26 39.16 244.17 39.30 249.16 37.13 M 396.38 62.53 C 384.01 65.31 373.33 74.20 364.04 82.08 C 373.87 93.10 394.79 98.73 408.40 89.45 C 420.31 83.19 433.75 79.14 445.13 72.25 C 428.32 71.33 413.16 61.28 396.38 62.53 M 460.87 74.00 C 476.48 91.98 499.03 104.33 522.71 106.73 C 525.50 106.38 525.77 102.67 528.07 102.02 C 540.09 109.77 552.84 97.31 563.05 91.20 C 555.38 89.56 547.39 88.85 540.59 84.54 C 514.74 76.62 487.32 78.38 460.87 74.00 M 416.90 90.99 C 412.28 92.10 407.82 94.14 404.00 96.94 C 387.96 102.85 371.69 93.59 358.25 86.28 C 343.27 96.95 326.65 108.69 307.01 104.99 C 289.13 101.84 270.58 92.43 253.99 83.05 C 246.24 78.99 235.79 80.87 228.66 84.14 C 224.70 85.01 219.01 85.67 217.18 89.83 C 228.52 100.48 241.12 109.39 253.98 118.10 C 253.42 114.49 253.11 110.85 253.05 107.20 C 256.84 104.44 262.95 103.87 264.03 109.06 C 263.61 110.70 263.91 111.68 264.93 112.02 C 265.24 115.00 265.37 118.39 267.19 120.87 C 275.44 121.90 283.55 119.87 291.64 118.56 C 295.11 118.13 295.23 113.97 297.23 111.76 C 303.33 105.65 308.32 120.64 313.92 114.17 C 321.60 114.48 328.27 109.28 335.99 110.04 C 348.33 111.22 359.12 104.50 370.65 101.58 C 374.45 102.31 378.30 101.99 382.15 101.87 C 383.96 102.71 385.78 103.58 387.72 104.12 C 389.56 105.41 392.00 105.71 393.82 107.15 C 409.35 118.11 428.68 120.87 445.95 127.96 C 450.77 130.62 462.43 130.72 467.01 129.07 C 479.43 127.78 489.26 117.42 502.00 116.94 C 512.02 116.43 521.13 122.24 531.12 121.98 C 528.89 115.58 521.94 112.54 515.64 111.48 C 499.24 109.52 484.27 102.87 470.70 93.63 C 465.03 87.98 458.43 82.16 452.73 76.17 C 440.04 78.05 428.10 85.20 416.90 90.99 M 601.38 78.33 C 597.56 81.14 590.35 81.47 588.96 85.98 C 597.47 86.24 605.59 83.93 614.09 83.86 C 613.19 78.88 605.66 77.05 601.38 78.33 M 616.34 87.36 C 604.25 90.65 591.59 91.27 579.12 91.17 C 565.34 96.33 554.54 108.01 540.03 111.18 C 541.68 115.39 545.47 119.11 548.26 122.75 C 563.90 125.62 580.11 126.73 595.97 124.95 C 614.31 123.39 630.80 114.60 647.98 108.83 C 645.78 105.70 640.89 105.62 637.85 103.22 C 629.31 99.82 624.45 90.63 616.34 87.36 M 688.41 101.54 C 684.99 104.05 675.25 100.11 674.95 105.96 C 686.71 106.42 698.51 105.10 710.04 102.84 C 704.40 98.58 695.08 101.78 688.41 101.54 M 350.19 113.13 C 342.99 113.76 334.81 112.67 328.13 115.97 C 322.73 116.76 316.51 117.40 311.85 119.92 C 308.43 119.20 305.14 119.97 303.64 123.17 C 301.68 124.60 300.88 130.33 301.09 133.74 C 298.55 135.15 299.31 143.51 301.22 145.80 C 328.10 156.77 354.76 170.50 384.16 172.94 C 394.01 174.99 407.34 174.48 416.01 173.06 C 421.62 171.98 429.52 172.79 434.03 170.07 C 436.53 169.58 440.40 169.93 441.98 168.15 C 447.55 167.36 453.45 164.85 458.07 161.97 C 466.45 159.03 474.54 154.17 481.33 148.33 C 482.57 146.29 479.68 143.13 481.93 140.97 C 485.97 136.47 492.50 142.21 494.87 146.17 C 503.70 154.03 510.29 164.00 518.93 171.95 C 520.04 174.69 521.88 178.56 525.03 179.06 C 528.76 184.51 533.58 189.08 537.99 193.97 C 538.38 196.90 540.89 198.39 543.04 200.03 C 546.91 204.34 550.48 209.29 554.99 212.91 C 557.83 219.40 564.88 223.97 568.90 230.08 C 580.78 242.53 591.70 256.30 603.97 268.02 C 611.07 278.25 620.60 287.10 628.97 295.85 C 636.86 301.71 637.19 311.27 636.38 320.68 C 636.18 329.41 634.79 340.87 637.00 348.00 C 639.16 410.05 639.27 472.42 647.99 534.01 C 649.26 545.21 658.42 533.50 660.94 530.06 C 667.12 525.33 672.19 518.74 675.93 512.09 C 681.43 506.67 685.93 499.66 689.94 493.02 C 694.64 489.20 701.02 485.76 707.13 487.88 C 711.10 489.37 720.71 495.50 723.99 487.98 C 727.27 483.46 729.07 477.92 729.62 472.42 C 734.03 461.68 745.55 455.37 757.16 455.81 C 770.69 454.67 784.40 457.16 797.87 453.85 C 796.86 450.92 795.54 448.10 794.69 445.12 C 792.32 445.23 788.90 451.60 791.23 442.47 C 794.47 440.38 790.25 434.57 788.91 431.17 C 788.46 426.76 778.32 427.42 786.07 425.76 C 783.99 420.08 779.86 415.22 778.65 409.26 C 776.70 407.96 770.03 407.96 774.87 405.61 C 770.94 397.42 765.84 386.92 759.16 382.08 C 751.02 368.92 740.09 357.87 729.76 346.11 C 729.29 346.16 728.34 346.26 727.86 346.31 C 722.08 337.72 713.21 331.28 706.15 324.33 C 700.06 317.28 692.25 311.53 684.74 306.10 C 683.29 303.53 680.19 302.11 678.18 299.97 C 668.98 293.37 661.53 284.29 654.10 275.88 C 651.01 269.85 645.27 265.14 641.06 259.88 C 629.64 244.48 617.75 229.14 605.85 213.99 C 595.65 199.62 584.04 185.61 573.00 171.99 C 561.53 157.01 549.31 142.28 537.58 127.36 C 527.85 126.21 518.27 123.97 508.86 121.21 C 494.09 118.81 482.49 129.28 469.21 133.17 C 463.73 132.74 458.20 133.04 452.73 133.30 C 446.81 132.00 440.71 131.30 435.14 128.81 C 422.78 122.97 408.84 121.18 396.96 114.26 C 396.06 111.98 392.75 111.55 390.58 110.90 C 380.65 101.53 361.72 105.97 350.19 113.13 M 218.10 106.85 C 217.79 111.25 217.99 115.66 218.05 120.06 C 222.66 118.99 227.39 119.02 232.11 118.91 C 228.63 113.74 222.96 110.48 218.10 106.85 M 284.13 124.11 L 283.26 124.20 C 278.58 123.45 274.83 123.71 272.01 125.00 C 270.19 124.59 269.18 124.94 269.00 126.06 C 266.82 126.33 268.77 134.72 269.98 135.05 C 272.26 145.33 273.38 156.02 276.49 166.04 C 275.54 167.86 274.86 171.86 276.98 172.81 C 277.10 177.51 278.17 182.27 279.17 186.81 C 280.01 191.10 277.04 200.98 280.21 202.77 C 280.72 207.51 278.31 215.94 281.02 219.00 C 281.30 231.69 280.68 244.33 280.04 256.99 C 277.78 261.54 278.21 270.24 278.20 276.25 L 278.08 277.10 C 276.23 284.39 276.31 299.41 278.00 307.01 C 278.97 320.13 281.70 335.20 290.98 344.95 C 290.86 347.38 293.31 349.67 295.76 348.91 C 298.19 340.82 301.73 332.24 310.11 328.97 C 313.52 329.11 316.89 329.19 320.32 329.29 C 323.84 329.60 338.08 336.26 339.00 327.03 C 337.47 318.45 336.70 307.59 344.29 301.76 C 348.13 296.72 354.66 300.71 359.96 298.84 C 360.64 296.01 357.19 296.07 355.35 295.69 C 355.23 293.35 353.55 291.90 351.32 291.60 C 348.93 286.87 343.63 284.59 339.10 282.00 C 334.80 277.65 329.10 274.27 323.85 271.00 C 319.36 266.40 313.46 261.63 307.80 258.02 C 305.62 252.33 299.68 248.62 298.41 242.44 C 296.83 240.15 297.23 236.47 294.97 234.90 C 292.44 212.23 290.66 189.52 288.10 166.93 C 290.76 166.82 287.92 161.45 288.09 158.98 C 286.74 153.02 290.33 146.16 287.66 140.71 C 289.40 135.84 290.55 130.84 291.16 125.69 C 295.75 123.59 284.40 119.14 284.13 124.11 M 217.83 129.98 C 214.07 171.02 214.08 212.67 205.00 253.01 C 205.41 258.37 200.60 260.65 196.86 262.94 C 192.72 263.06 188.79 261.30 184.89 260.15 C 179.02 255.77 171.86 252.26 165.00 249.94 C 159.24 245.25 150.93 244.17 143.82 243.14 C 137.26 239.43 126.11 237.83 117.69 237.34 C 116.07 236.97 112.90 236.13 114.08 238.92 C 116.31 242.76 120.42 245.67 122.01 250.05 C 122.51 259.61 114.12 266.27 112.12 275.10 C 111.43 277.05 113.56 278.18 115.02 278.83 C 122.43 284.03 129.90 291.14 126.17 301.21 C 122.96 307.09 119.17 312.75 116.98 319.10 C 112.35 319.85 118.00 328.76 119.83 324.00 C 124.27 322.65 129.25 321.92 132.94 319.02 C 136.42 317.62 142.34 317.20 143.75 313.78 C 150.78 311.92 158.07 307.61 163.98 304.06 C 166.40 303.28 169.33 303.01 171.16 301.14 C 176.49 299.38 182.91 297.24 186.83 293.90 C 195.00 290.46 203.52 286.62 210.44 281.11 C 216.90 279.48 220.67 273.60 222.67 267.70 C 226.49 250.77 217.36 235.52 218.97 218.99 C 221.88 187.23 223.82 155.21 231.03 124.05 C 226.11 124.64 215.46 120.73 217.83 129.98 M 466.25 168.87 C 457.65 171.68 449.78 176.31 441.30 179.33 C 437.65 180.66 444.20 184.52 444.91 185.96 C 445.93 189.63 448.81 193.13 452.14 195.01 C 452.66 196.02 452.95 197.28 453.95 197.94 C 454.65 201.54 457.22 204.86 460.00 207.05 C 461.21 209.38 462.52 211.69 464.23 213.70 C 464.12 216.23 465.99 218.84 468.16 220.01 C 472.48 227.46 476.32 235.43 481.86 242.08 C 486.94 253.09 494.37 263.61 500.99 273.92 C 509.11 289.61 519.26 304.88 530.01 318.84 C 533.25 324.10 538.04 328.28 543.02 331.84 C 550.64 340.00 549.50 352.60 545.04 362.69 C 541.40 366.44 537.75 370.56 534.97 375.05 C 530.30 380.04 524.78 385.96 522.35 391.80 C 517.72 396.08 513.80 401.73 511.29 407.42 C 509.69 408.87 507.79 410.73 507.49 412.89 C 501.89 419.99 496.53 427.29 492.03 435.14 C 484.44 445.19 478.16 456.34 470.89 466.70 C 464.71 475.16 458.21 483.50 452.23 492.02 C 450.45 493.66 447.99 495.58 448.18 498.27 C 440.94 505.59 436.58 515.20 430.39 523.37 C 428.32 529.45 437.96 529.38 441.93 530.92 C 446.38 535.73 456.84 538.34 462.07 534.04 C 464.40 532.92 465.68 530.28 467.86 528.88 C 472.44 528.83 476.90 529.59 481.26 530.83 C 482.13 531.54 482.88 532.48 483.97 532.89 C 486.23 536.53 489.91 539.55 493.87 541.11 C 496.03 545.07 501.03 545.30 505.00 546.03 C 512.06 545.15 515.02 537.93 519.93 533.99 C 520.20 533.76 520.75 533.30 521.03 533.07 C 524.31 532.02 527.41 530.44 530.81 529.74 C 535.06 532.04 541.96 532.82 546.87 535.85 C 554.52 521.94 552.18 504.36 554.08 488.96 C 555.58 475.68 561.28 459.67 562.97 444.18 C 565.15 443.73 564.88 440.99 565.40 439.32 C 567.82 429.42 573.31 420.05 573.84 409.82 C 578.33 402.90 577.41 393.90 579.23 386.13 C 581.86 367.37 585.84 347.30 580.17 328.80 C 577.15 325.83 578.31 319.01 573.62 318.25 C 571.60 310.87 565.26 304.15 560.10 299.24 C 554.86 293.01 548.62 287.33 542.80 282.03 C 539.69 277.64 535.58 272.80 531.07 269.94 C 526.78 264.33 522.37 257.32 517.25 252.15 C 509.34 237.89 502.04 223.24 493.78 209.15 C 490.32 206.01 491.50 200.26 487.18 197.85 C 484.66 189.77 478.76 183.03 473.09 176.95 C 470.60 174.83 468.77 165.27 466.25 168.87 Z" />
</g>
<g id="#96bdbdff">
<path fill="#96bdbd" opacity="1.00" d=" M 346.01 26.88 C 348.26 26.92 350.44 27.39 351.99 29.16 C 349.75 29.06 347.58 28.57 346.01 26.88 Z" />
</g>
<g id="#9dc0c2ff">
<path fill="#9dc0c2" opacity="1.00" d=" M 801.06 28.14 C 803.18 27.68 805.41 28.35 806.80 30.07 C 804.60 30.55 802.45 29.92 801.06 28.14 Z" />
</g>
<g id="#abd1d2ff">
<path fill="#abd1d2" opacity="1.00" d=" M 427.96 29.92 C 438.10 27.52 450.79 28.70 460.13 33.98 C 455.14 33.01 450.25 31.54 445.22 30.81 C 439.51 29.82 433.71 29.90 427.96 29.92 Z" />
<path fill="#abd1d2" opacity="1.00" d=" M 496.05 47.14 C 502.13 47.11 508.20 46.30 514.30 46.32 C 508.55 48.70 502.02 48.32 496.05 47.14 Z" />
<path fill="#abd1d2" opacity="1.00" d=" M 487.18 197.85 C 491.50 200.26 490.32 206.01 493.78 209.15 C 502.04 223.24 509.34 237.89 517.25 252.15 C 516.28 253.78 515.14 255.28 514.16 256.90 C 516.21 259.17 526.69 261.66 516.43 261.38 C 512.88 262.62 513.99 265.98 516.67 267.46 C 518.00 270.40 511.98 273.10 515.27 275.70 C 519.51 279.98 513.81 285.27 515.78 290.13 C 507.39 289.31 508.04 277.48 500.99 273.92 C 494.37 263.61 486.94 253.09 481.86 242.08 C 484.29 244.11 487.32 252.21 490.64 247.70 C 489.41 242.06 495.08 240.31 496.99 236.08 C 495.11 235.20 493.06 235.24 491.06 235.56 C 491.75 232.12 492.65 228.72 493.46 225.31 C 485.64 224.12 495.67 215.61 492.28 211.83 C 489.30 211.39 483.98 208.58 487.28 205.29 C 490.14 203.22 487.84 200.43 487.18 197.85 Z" />
</g>
<g id="#a5cbccff">
<path fill="#a5cbcc" opacity="1.00" d=" M 711.02 32.10 C 714.14 28.82 719.11 29.38 723.27 29.28 C 719.38 30.96 715.15 31.40 711.02 32.10 Z" />
<path fill="#a5cbcc" opacity="1.00" d=" M 307.80 258.02 C 313.46 261.63 319.36 266.40 323.85 271.00 C 323.42 274.21 325.94 275.98 327.66 278.21 C 325.34 283.27 323.52 290.04 325.88 295.88 C 323.65 298.64 322.66 301.71 325.55 304.46 C 323.26 312.14 328.78 323.45 320.32 329.29 C 316.89 329.19 313.52 329.11 310.11 328.97 C 316.13 321.65 314.11 312.77 312.17 304.37 C 318.27 304.35 310.99 297.82 313.88 294.74 C 316.18 290.73 311.07 288.08 311.11 284.45 C 316.11 284.21 314.57 277.13 311.28 275.02 C 312.91 272.25 312.03 268.95 313.50 266.13 C 311.72 263.31 308.08 261.64 307.80 258.02 Z" />
<path fill="#a5cbcc" opacity="1.00" d=" M 511.29 407.42 C 514.47 404.68 516.87 400.49 522.21 403.02 C 521.94 406.72 517.77 406.86 515.12 408.01 C 519.04 411.53 516.25 418.59 521.77 420.18 C 519.87 425.42 519.28 430.96 519.33 436.50 C 524.36 437.09 523.29 441.90 520.71 444.77 C 518.19 447.08 520.50 450.38 519.12 453.09 C 515.49 460.81 517.57 471.21 521.44 477.80 C 520.66 480.17 519.40 482.40 519.01 484.89 C 520.38 487.60 524.36 490.15 522.45 493.53 C 520.96 495.63 521.54 498.07 521.65 500.45 C 518.23 501.81 518.26 506.35 514.83 507.91 C 511.32 512.39 523.43 509.33 521.04 515.11 C 514.71 510.58 518.95 517.47 516.29 521.08 C 524.66 519.66 518.88 529.22 519.93 533.99 C 515.02 537.93 512.06 545.15 505.00 546.03 C 501.03 545.30 496.03 545.07 493.87 541.11 C 499.57 544.03 506.61 542.52 510.52 539.16 C 506.39 535.17 511.20 532.50 510.80 528.48 C 502.50 527.18 516.27 518.03 508.00 516.85 C 504.55 513.91 511.61 511.36 511.02 508.20 C 505.46 504.21 511.92 497.07 508.30 491.55 C 515.86 488.69 511.96 480.25 506.50 477.43 C 504.70 474.57 514.64 476.20 510.98 473.13 C 503.79 472.05 513.76 466.42 509.99 462.98 C 507.19 459.95 513.62 457.85 511.73 454.33 C 509.22 448.51 514.17 441.42 509.35 436.65 C 509.38 432.55 511.09 428.38 510.81 424.15 C 509.47 421.32 506.48 418.22 509.17 415.18 C 510.56 413.79 508.42 413.48 507.49 412.89 C 507.79 410.73 509.69 408.87 511.29 407.42 Z" />
</g>
<g id="#769c9dff">
<path fill="#769c9d" opacity="1.00" d=" M 426.68 30.78 C 427.00 30.56 427.64 30.13 427.96 29.92 C 433.71 29.90 439.51 29.82 445.22 30.81 C 439.03 30.91 432.85 30.97 426.68 30.78 Z" />
</g>
<g id="#88b0b0ff">
<path fill="#88b0b0" opacity="1.00" d=" M 262.07 38.05 C 276.44 29.08 293.52 31.77 309.56 31.46 C 317.49 31.00 325.22 32.94 333.14 32.77 C 350.82 32.14 364.16 45.18 380.06 50.53 C 399.37 52.35 415.79 39.13 434.13 36.59 C 456.05 36.52 473.98 50.75 494.92 54.68 C 490.90 60.00 502.21 56.53 499.70 61.87 C 497.90 64.75 504.84 67.62 499.25 67.92 C 497.20 65.05 493.20 64.82 490.76 62.07 C 488.32 61.74 486.33 64.71 483.86 63.27 C 481.08 63.18 481.61 59.23 479.03 58.77 C 479.08 62.83 480.48 67.05 479.03 71.04 C 470.63 69.79 462.19 68.63 453.72 68.22 C 444.64 62.59 433.90 62.22 423.75 60.19 C 413.28 54.58 401.27 52.58 389.70 55.76 C 377.70 62.32 366.70 70.36 355.77 78.55 C 348.92 74.52 341.77 70.35 334.85 66.15 C 313.88 55.34 290.31 71.29 268.60 63.45 C 252.15 53.10 232.13 57.27 214.04 58.95 C 213.41 52.58 206.61 56.94 202.38 56.57 C 198.13 58.32 194.37 54.18 194.77 50.04 C 215.46 37.89 242.63 54.09 262.07 38.05 Z" />
</g>
<g id="#8ab0b1ff">
<path fill="#8ab0b1" opacity="1.00" d=" M 745.65 32.45 C 768.04 30.57 791.51 30.15 812.00 40.21 L 812.00 58.62 C 809.04 57.68 811.33 50.65 808.24 54.28 C 804.07 57.50 798.22 53.19 793.99 51.22 C 791.97 52.04 790.30 53.87 788.08 54.01 C 781.82 51.92 785.04 40.55 777.06 40.92 C 777.49 47.88 777.12 56.28 770.89 60.73 C 768.46 58.78 765.23 58.26 762.88 56.29 C 765.15 53.80 774.97 55.75 768.41 52.47 C 769.23 46.29 762.85 54.53 762.78 47.40 C 756.54 50.46 749.68 46.37 743.17 46.21 C 740.23 49.46 735.49 49.98 731.35 49.52 C 727.83 48.08 726.58 53.29 723.12 53.05 C 722.15 51.40 723.33 48.92 721.25 47.94 C 720.40 51.61 715.29 55.82 713.31 50.68 C 711.59 44.79 707.23 51.66 704.48 53.30 C 706.28 49.07 702.16 47.97 698.93 46.95 C 698.25 50.30 702.74 50.05 702.72 53.32 C 704.73 57.85 696.38 58.83 696.86 54.00 C 692.85 55.81 688.64 57.28 685.18 60.06 C 682.27 56.93 686.95 54.54 685.10 51.55 C 703.28 39.92 724.52 34.85 745.65 32.45 Z" />
</g>
<g id="#a1c7c9ff">
<path fill="#a1c7c9" opacity="1.00" d=" M 542.97 35.00 C 551.41 28.96 564.95 31.52 573.98 36.10 C 563.83 33.69 553.16 31.26 542.97 35.00 Z" />
</g>
<g id="#9ec4c6ff">
<path fill="#9ec4c6" opacity="1.00" d=" M 364.78 35.09 C 367.84 34.85 370.13 36.99 372.13 39.00 C 369.38 38.31 366.99 36.81 364.78 35.09 Z" />
</g>
<g id="#9ac1c2ff">
<path fill="#9ac1c2" opacity="1.00" d=" M 532.97 37.88 C 535.86 35.74 539.40 34.84 542.97 35.00 C 539.79 36.42 536.54 38.01 532.97 37.88 Z" />
</g>
<g id="#a3c6c8ff">
<path fill="#a3c6c8" opacity="1.00" d=" M 402.86 38.99 C 405.02 37.38 407.45 35.94 410.27 36.19 C 408.00 37.59 405.57 38.81 402.86 38.99 Z" />
</g>
<g id="#a8cccdff">
<path fill="#a8cccd" opacity="1.00" d=" M 201.03 39.04 C 210.62 33.99 222.75 37.66 233.02 38.05 C 222.35 37.88 211.63 37.62 201.03 39.04 Z" />
</g>
<g id="#a3c8c9ff">
<path fill="#a3c8c9" opacity="1.00" d=" M 233.02 38.05 C 238.39 37.50 243.75 36.80 249.16 37.13 C 244.17 39.30 238.26 39.16 233.02 38.05 Z" />
</g>
<g id="#a0c7c7ff">
<path fill="#a0c7c7" opacity="1.00" d=" M 526.03 41.14 C 528.19 39.77 530.54 38.72 532.97 37.88 C 531.65 40.51 528.67 41.01 526.03 41.14 Z" />
</g>
<g id="#a5c7c9ff">
<path fill="#a5c7c9" opacity="1.00" d=" M 55.85 39.78 C 60.37 38.02 66.43 38.76 70.20 41.87 C 65.48 40.75 60.75 39.59 55.85 39.78 Z" />
</g>
<g id="#9cc0c1ff">
<path fill="#9cc0c1" opacity="1.00" d=" M 138.82 45.88 C 151.57 36.46 168.89 38.67 183.21 42.95 C 176.64 43.28 170.35 40.85 163.86 40.25 C 155.21 40.36 146.89 43.01 138.82 45.88 Z" />
</g>
<g id="#a2c6c8ff">
<path fill="#a2c6c8" opacity="1.00" d=" M 373.86 40.09 C 380.82 41.92 388.01 42.33 395.19 42.20 C 388.28 45.09 379.99 44.50 373.86 40.09 Z" />
</g>
<g id="#8cb5b5ff">
<path fill="#8cb5b5" opacity="1.00" d=" M 494.92 54.68 C 520.12 61.06 539.14 34.05 564.04 41.41 C 578.17 44.00 592.41 52.06 598.25 65.78 C 598.89 68.93 604.64 67.29 603.88 70.71 C 594.57 71.89 587.13 77.61 579.25 82.18 C 574.67 84.40 570.69 88.94 565.00 86.10 C 552.64 86.02 542.50 77.89 530.44 76.42 C 513.54 72.65 496.12 73.29 479.03 71.04 C 480.48 67.05 479.08 62.83 479.03 58.77 C 481.61 59.23 481.08 63.18 483.86 63.27 C 486.33 64.71 488.32 61.74 490.76 62.07 C 493.20 64.82 497.20 65.05 499.25 67.92 C 504.84 67.62 497.90 64.75 499.70 61.87 C 502.21 56.53 490.90 60.00 494.92 54.68 Z" />
</g>
<g id="#91b7b8ff">
<path fill="#91b7b8" opacity="1.00" d=" M 777.06 40.92 C 785.04 40.55 781.82 51.92 788.08 54.01 C 790.30 53.87 791.97 52.04 793.99 51.22 C 798.22 53.19 804.07 57.50 808.24 54.28 C 811.33 50.65 809.04 57.68 812.00 58.62 L 812.00 77.63 C 806.99 77.71 809.63 84.16 807.40 87.22 C 806.79 85.99 807.77 83.10 805.90 83.08 C 796.66 82.00 787.20 81.97 778.96 77.06 C 753.79 68.09 726.49 66.67 700.00 67.93 C 690.07 68.37 683.46 77.94 673.44 78.50 C 657.28 82.82 640.63 78.58 624.38 81.62 C 621.03 77.18 614.87 75.34 611.92 71.06 C 637.39 69.86 662.87 64.64 685.10 51.55 C 686.95 54.54 682.27 56.93 685.18 60.06 C 688.64 57.28 692.85 55.81 696.86 54.00 C 696.38 58.83 704.73 57.85 702.72 53.32 C 702.74 50.05 698.25 50.30 698.93 46.95 C 702.16 47.97 706.28 49.07 704.48 53.30 C 707.23 51.66 711.59 44.79 713.31 50.68 C 715.29 55.82 720.40 51.61 721.25 47.94 C 723.33 48.92 722.15 51.40 723.12 53.05 C 726.58 53.29 727.83 48.08 731.35 49.52 C 735.49 49.98 740.23 49.46 743.17 46.21 C 749.68 46.37 756.54 50.46 762.78 47.40 C 762.85 54.53 769.23 46.29 768.41 52.47 C 774.97 55.75 765.15 53.80 762.88 56.29 C 765.23 58.26 768.46 58.78 770.89 60.73 C 777.12 56.28 777.49 47.88 777.06 40.92 Z" />
<path fill="#91b7b8" opacity="1.00" d=" M 284.13 124.11 C 284.40 119.14 295.75 123.59 291.16 125.69 C 290.63 122.40 286.53 124.46 284.13 124.11 Z" />
<path fill="#91b7b8" opacity="1.00" d=" M 444.91 185.96 C 448.09 188.19 450.65 191.41 452.14 195.01 C 448.81 193.13 445.93 189.63 444.91 185.96 Z" />
</g>
<g id="#95bbbdff">
<path fill="#95bbbd" opacity="1.00" d=" M 585.89 41.92 C 588.25 42.77 590.59 43.99 591.96 46.20 C 589.48 45.47 587.31 44.10 585.89 41.92 Z" />
</g>
<g id="#b9e5e4ff">
</g>
<g id="#a1c7c8ff">
<path fill="#a1c7c8" opacity="1.00" d=" M 484.80 44.19 C 488.47 45.22 492.80 44.82 496.05 47.14 C 492.19 46.64 488.31 45.90 484.80 44.19 Z" />
</g>
<g id="#8db4b4ff">
<path fill="#8db4b4" opacity="1.00" d=" M 27.14 65.89 C 41.66 67.26 47.44 48.43 60.98 46.32 C 74.42 49.79 82.95 62.80 97.09 65.01 C 114.59 67.31 130.35 57.89 145.54 50.47 C 161.32 42.69 178.41 51.91 194.77 50.04 C 194.37 54.18 198.13 58.32 202.38 56.57 C 206.61 56.94 213.41 52.58 214.04 58.95 C 204.12 59.69 195.07 63.42 187.03 69.02 C 174.78 74.60 160.67 76.26 147.33 75.50 C 138.52 76.74 129.58 77.78 120.86 75.31 C 106.86 76.55 95.21 65.56 81.43 66.37 C 64.94 74.39 44.15 88.98 26.07 76.94 C 19.22 74.23 13.81 61.81 5.81 67.09 C 5.05 64.85 5.78 61.43 2.93 60.79 C 1.48 57.64 2.07 54.10 2.04 50.74 C 10.86 55.14 18.58 61.33 27.14 65.89 Z" />
</g>
<g id="#a1c3c5ff">
<path fill="#a1c3c5" opacity="1.00" d=" M 672.84 50.03 C 674.34 48.01 676.67 47.03 679.16 47.05 C 677.24 48.41 675.09 49.39 672.84 50.03 Z" />
</g>
<g id="#8bafb1ff">
<path fill="#8bafb1" opacity="1.00" d=" M 17.31 50.74 C 19.37 51.13 21.08 52.65 21.06 54.86 C 19.10 54.31 17.54 52.83 17.31 50.74 Z" />
</g>
<g id="#9bbfc0ff">
<path fill="#9bbfc0" opacity="1.00" d=" M 90.86 55.03 C 99.15 57.66 107.65 56.71 116.25 56.21 C 108.35 59.74 98.33 59.25 90.86 55.03 Z" />
</g>
<g id="#a7c9cbff">
<path fill="#a7c9cb" opacity="1.00" d=" M 26.82 58.40 C 29.74 58.17 32.49 57.20 35.18 56.11 C 33.32 59.03 30.32 60.10 26.82 58.40 Z" />
</g>
<g id="#a0c4c6ff">
<path fill="#a0c4c6" opacity="1.00" d=" M 602.75 59.15 C 615.01 68.47 631.39 59.14 645.22 60.21 C 633.00 63.30 620.20 65.17 607.63 63.42 C 605.15 63.25 603.61 61.28 602.75 59.15 Z" />
</g>
<g id="#90b8b8ff">
<path fill="#90b8b8" opacity="1.00" d=" M 2.93 60.79 C 5.78 61.43 5.05 64.85 5.81 67.09 C 5.96 69.04 6.74 70.68 8.92 71.16 C 17.04 74.49 21.45 82.67 30.28 84.75 C 49.32 90.45 66.78 79.40 83.06 71.12 C 94.87 73.78 106.03 78.82 117.98 80.98 C 143.19 80.16 171.03 84.39 193.82 70.78 C 199.62 66.48 207.08 65.85 213.96 64.46 C 231.21 62.65 250.87 59.08 266.32 68.71 C 286.03 77.66 306.86 62.27 326.98 69.17 C 334.93 73.53 344.37 76.57 350.71 83.00 C 345.46 87.31 338.50 91.57 332.11 95.12 C 318.46 102.72 302.34 97.18 288.64 92.38 C 275.06 88.32 264.27 77.88 250.71 74.27 C 226.52 71.89 205.63 87.03 182.54 91.34 C 160.51 91.62 138.58 80.69 116.80 87.72 C 106.12 94.20 94.66 100.91 81.64 99.40 C 63.97 90.29 43.46 94.52 24.64 90.41 C 21.22 89.88 18.54 85.75 14.95 87.82 C 18.56 82.05 11.86 80.59 8.18 84.11 C 10.98 76.08 2.66 70.42 3.05 62.48 C 3.02 62.06 2.96 61.21 2.93 60.79 Z" />
</g>
<g id="#90b7b8ff">
<path fill="#90b7b8" opacity="1.00" d=" M 396.38 62.53 C 413.16 61.28 428.32 71.33 445.13 72.25 C 433.75 79.14 420.31 83.19 408.40 89.45 C 394.79 98.73 373.87 93.10 364.04 82.08 C 373.33 74.20 384.01 65.31 396.38 62.53 Z" />
<path fill="#90b7b8" opacity="1.00" d=" M 706.15 324.33 C 713.21 331.28 722.08 337.72 727.86 346.31 C 727.92 350.13 724.39 357.50 730.46 355.46 C 731.73 358.97 737.98 359.34 734.84 363.75 C 729.85 369.95 740.47 369.67 738.82 374.73 C 737.03 379.02 732.00 370.18 731.21 374.88 C 734.02 378.48 730.76 382.43 730.11 386.28 C 733.60 386.16 734.27 378.83 737.85 382.10 C 742.87 384.11 736.45 387.22 735.02 389.80 C 737.96 391.05 741.14 392.50 742.02 395.91 C 738.66 397.23 732.73 397.90 735.54 403.57 C 736.45 406.68 730.97 407.05 730.79 404.16 C 729.30 397.50 717.80 411.59 726.62 406.58 C 728.47 411.70 736.26 407.26 736.11 414.10 C 733.29 413.69 730.73 412.32 727.92 411.89 C 727.38 415.10 734.16 415.42 730.29 418.27 C 726.70 421.76 732.57 422.65 735.14 421.37 C 733.86 424.21 732.62 428.61 728.65 426.45 C 724.20 424.49 729.78 432.39 726.86 432.95 C 722.49 433.47 728.57 434.64 729.91 435.43 C 729.24 439.38 724.60 441.94 726.34 446.48 C 729.02 448.77 733.35 454.41 728.39 456.47 C 724.58 458.95 732.51 460.86 732.00 463.98 C 731.07 466.75 729.40 469.37 729.62 472.42 C 729.07 477.92 727.27 483.46 723.99 487.98 C 720.71 495.50 711.10 489.37 707.13 487.88 C 710.88 489.16 713.09 486.05 714.90 483.33 C 711.84 482.89 708.87 481.19 707.07 478.74 C 707.20 473.19 710.30 468.42 712.18 463.36 C 714.40 464.70 717.53 466.13 719.33 463.33 C 723.29 460.77 717.90 457.16 720.75 453.96 C 717.82 453.96 715.61 452.32 713.57 450.39 C 711.18 448.88 710.46 453.37 707.98 453.12 C 707.31 450.50 708.99 448.56 710.54 446.71 C 709.58 444.62 707.63 442.64 708.94 440.24 C 714.68 445.24 715.97 435.81 717.95 431.96 C 720.52 424.49 711.79 422.29 709.05 418.16 C 706.44 421.75 704.13 420.55 702.00 416.94 C 704.61 417.37 708.69 419.00 705.80 415.18 C 702.73 412.32 710.75 407.52 710.77 412.11 C 707.94 416.45 715.20 420.67 714.56 415.35 C 713.74 410.27 717.02 400.03 707.64 403.60 C 704.33 400.60 716.79 397.47 711.14 392.90 C 716.69 394.99 720.89 390.01 719.08 385.24 C 717.39 385.97 715.77 386.94 713.91 387.12 C 713.63 383.92 717.36 383.50 719.93 383.66 C 720.99 380.24 717.24 380.90 714.77 380.22 C 712.12 376.83 712.54 368.10 706.69 372.51 C 702.15 370.32 706.47 356.53 712.67 361.30 C 716.41 362.97 714.25 367.09 714.03 370.10 C 722.17 366.69 716.69 355.76 717.84 348.89 C 714.79 349.86 712.51 352.53 708.84 351.60 C 707.70 347.95 713.84 348.95 712.40 345.65 C 711.03 342.06 714.92 339.64 715.08 336.25 C 712.62 336.47 710.26 336.06 708.03 335.03 C 709.14 338.92 712.21 346.63 705.22 344.94 C 701.84 338.73 703.05 330.59 706.15 324.33 Z" />
</g>
<g id="#98c1c1ff">
<path fill="#98c1c1" opacity="1.00" d=" M 2.24 98.81 C 3.01 86.73 1.50 74.50 3.05 62.48 C 2.66 70.42 10.98 76.08 8.18 84.11 C 11.86 80.59 18.56 82.05 14.95 87.82 C 9.71 92.90 17.59 96.23 21.98 97.07 C 38.62 101.46 56.58 97.44 72.64 104.37 C 89.53 109.54 106.63 102.59 120.99 94.02 C 139.96 90.17 159.01 97.56 178.01 98.97 C 187.65 99.10 196.31 93.60 205.79 93.08 C 207.67 102.23 205.61 112.46 205.27 121.26 C 188.12 125.76 173.17 139.49 154.38 136.73 C 142.31 130.95 143.43 112.13 129.89 108.05 C 120.21 107.33 114.09 116.75 107.48 122.34 C 108.23 116.76 100.26 114.66 98.96 109.16 C 95.71 111.21 91.54 112.53 91.91 117.00 C 89.22 115.82 89.88 111.51 88.74 109.03 C 85.88 109.14 84.23 118.38 82.17 112.88 C 80.73 105.93 74.73 114.85 71.18 111.83 C 65.21 109.16 66.03 120.10 60.99 120.04 C 58.57 120.85 58.56 118.03 57.77 116.53 C 54.10 118.19 48.92 120.97 49.46 115.15 C 45.19 112.24 43.30 105.62 37.23 105.05 C 34.34 107.31 33.78 112.44 29.98 113.09 C 29.55 110.10 32.87 105.51 29.14 103.93 C 26.78 106.42 23.97 108.56 22.30 111.62 C 14.10 113.74 14.51 101.18 8.23 99.76 C 9.49 102.38 10.14 105.66 7.79 107.92 C 1.34 110.00 6.95 96.95 2.24 98.81 Z" />
</g>
<g id="#97bcbeff">
<path fill="#97bcbe" opacity="1.00" d=" M 693.47 74.57 C 712.17 69.50 732.08 73.60 750.98 75.17 C 767.56 77.46 782.75 85.12 799.13 87.98 C 801.81 89.54 804.89 88.73 807.40 87.22 C 809.63 84.16 806.99 77.71 812.00 77.63 L 812.00 97.04 C 802.70 96.11 801.23 108.56 792.93 109.38 C 793.90 111.35 795.40 113.03 796.15 115.12 C 792.49 114.61 790.26 110.55 786.63 110.44 C 783.08 111.47 777.63 109.32 777.87 105.05 C 781.80 105.45 787.19 109.10 789.85 104.68 C 793.23 97.30 783.90 99.38 780.65 98.30 C 768.90 93.64 759.34 84.38 746.98 81.01 C 734.16 80.37 724.93 90.57 715.94 97.87 C 696.96 92.66 678.01 98.41 659.89 103.73 C 648.51 101.51 637.59 95.83 629.26 87.68 C 628.07 85.13 631.51 85.27 633.10 85.46 C 653.32 84.20 676.15 87.66 693.47 74.57 Z" />
</g>
<g id="#94babbff">
<path fill="#94babb" opacity="1.00" d=" M 460.87 74.00 C 487.32 78.38 514.74 76.62 540.59 84.54 C 547.39 88.85 555.38 89.56 563.05 91.20 C 552.84 97.31 540.09 109.77 528.07 102.02 C 525.77 102.67 525.50 106.38 522.71 106.73 C 499.03 104.33 476.48 91.98 460.87 74.00 Z" />
<path fill="#94babb" opacity="1.00" d=" M 217.18 89.83 C 219.01 85.67 224.70 85.01 228.66 84.14 C 228.80 86.77 231.31 87.51 233.10 88.87 C 234.70 90.95 233.68 95.18 238.61 93.52 C 245.48 95.02 251.60 99.49 257.10 103.43 C 261.30 102.24 265.60 104.08 264.03 109.06 C 262.95 103.87 256.84 104.44 253.05 107.20 C 253.11 110.85 253.42 114.49 253.98 118.10 C 241.12 109.39 228.52 100.48 217.18 89.83 Z" />
</g>
<g id="#b9e0e1ff">
<path fill="#b9e0e1" opacity="1.00" d=" M 416.90 90.99 C 428.10 85.20 440.04 78.05 452.73 76.17 C 458.43 82.16 465.03 87.98 470.70 93.63 C 468.71 98.96 461.92 96.61 459.79 93.27 C 453.09 95.83 451.39 89.99 448.88 85.04 C 444.59 88.64 440.56 82.14 436.07 85.22 C 434.40 89.40 440.77 88.83 440.82 91.79 C 438.78 93.45 436.47 95.34 433.67 94.52 C 430.64 93.71 429.34 98.82 426.41 97.69 C 424.25 95.58 421.58 93.39 422.69 90.04 C 420.74 90.24 418.82 90.67 416.90 90.99 Z" />
</g>
<g id="#90b5b6ff">
<path fill="#90b5b6" opacity="1.00" d=" M 601.38 78.33 C 605.66 77.05 613.19 78.88 614.09 83.86 C 605.59 83.93 597.47 86.24 588.96 85.98 C 590.35 81.47 597.56 81.14 601.38 78.33 Z" />
</g>
<g id="#a7cdceff">
<path fill="#a7cdce" opacity="1.00" d=" M 228.66 84.14 C 235.79 80.87 246.24 78.99 253.99 83.05 C 270.58 92.43 289.13 101.84 307.01 104.99 C 294.68 103.06 305.37 108.58 308.11 111.91 C 309.62 113.57 311.76 114.06 313.92 114.17 C 308.32 120.64 303.33 105.65 297.23 111.76 C 296.81 110.91 296.34 110.08 295.83 109.29 C 285.59 110.08 275.40 107.13 265.14 107.11 C 264.98 108.74 264.95 110.38 264.93 112.02 C 263.91 111.68 263.61 110.70 264.03 109.06 C 265.60 104.08 261.30 102.24 257.10 103.43 C 251.60 99.49 245.48 95.02 238.61 93.52 C 233.68 95.18 234.70 90.95 233.10 88.87 C 231.31 87.51 228.80 86.77 228.66 84.14 Z" />
</g>
<g id="#c5ebecff">
<path fill="#c5ebec" opacity="1.00" d=" M 436.07 85.22 C 440.56 82.14 444.59 88.64 448.88 85.04 C 451.39 89.99 453.09 95.83 459.79 93.27 C 461.92 96.61 468.71 98.96 470.70 93.63 C 484.27 102.87 499.24 109.52 515.64 111.48 C 521.94 112.54 528.89 115.58 531.12 121.98 C 521.13 122.24 512.02 116.43 502.00 116.94 C 489.26 117.42 479.43 127.78 467.01 129.07 C 459.96 129.20 452.97 128.14 445.95 127.96 C 428.68 120.87 409.35 118.11 393.82 107.15 C 392.00 105.71 389.56 105.41 387.72 104.12 C 385.52 96.29 400.88 102.73 404.00 96.94 C 407.82 94.14 412.28 92.10 416.90 90.99 C 418.82 90.67 420.74 90.24 422.69 90.04 C 421.58 93.39 424.25 95.58 426.41 97.69 C 429.34 98.82 430.64 93.71 433.67 94.52 C 436.47 95.34 438.78 93.45 440.82 91.79 C 440.77 88.83 434.40 89.40 436.07 85.22 Z" />
</g>
<g id="#bae0e1ff">
<path fill="#bae0e1" opacity="1.00" d=" M 358.25 86.28 C 371.69 93.59 387.96 102.85 404.00 96.94 C 400.88 102.73 385.52 96.29 387.72 104.12 C 385.78 103.58 383.96 102.71 382.15 101.87 C 378.46 100.54 374.41 100.85 370.65 101.58 C 359.12 104.50 348.33 111.22 335.99 110.04 C 328.27 109.28 321.60 114.48 313.92 114.17 C 311.76 114.06 309.62 113.57 308.11 111.91 C 305.37 108.58 294.68 103.06 307.01 104.99 C 326.65 108.69 343.27 96.95 358.25 86.28 Z" />
</g>
<g id="#9bc1c2ff">
<path fill="#9bc1c2" opacity="1.00" d=" M 616.34 87.36 C 624.45 90.63 629.31 99.82 637.85 103.22 C 640.89 105.62 645.78 105.70 647.98 108.83 C 630.80 114.60 614.31 123.39 595.97 124.95 C 580.11 126.73 563.90 125.62 548.26 122.75 C 545.47 119.11 541.68 115.39 540.03 111.18 C 554.54 108.01 565.34 96.33 579.12 91.17 C 591.59 91.27 604.25 90.65 616.34 87.36 Z" />
<path fill="#9bc1c2" opacity="1.00" d=" M 537.99 193.97 C 539.96 195.74 542.10 197.44 543.04 200.03 C 540.89 198.39 538.38 196.90 537.99 193.97 Z" />
</g>
<g id="#99bebfff">
<path fill="#99bebf" opacity="1.00" d=" M 725.87 99.86 C 730.76 95.10 736.14 89.57 743.10 88.16 C 755.83 90.32 765.51 99.79 777.15 104.72 C 773.47 107.11 779.79 112.98 773.20 112.01 C 771.98 103.69 764.65 113.70 767.85 118.11 C 754.56 110.58 740.48 104.23 725.87 99.86 Z" />
</g>
<g id="#9fc5c6ff">
<path fill="#9fc5c6" opacity="1.00" d=" M 792.93 109.38 C 801.23 108.56 802.70 96.11 812.00 97.04 L 812.00 131.53 C 810.13 129.17 809.95 121.58 805.90 124.77 C 803.71 132.02 794.17 132.45 791.48 138.86 C 790.21 138.65 789.08 137.98 787.97 137.39 C 789.93 136.70 791.80 135.58 791.02 133.20 C 783.73 127.64 775.92 122.59 767.85 118.11 C 764.65 113.70 771.98 103.69 773.20 112.01 C 779.79 112.98 773.47 107.11 777.15 104.72 L 777.87 105.05 C 777.63 109.32 783.08 111.47 786.63 110.44 C 790.26 110.55 792.49 114.61 796.15 115.12 C 795.40 113.03 793.90 111.35 792.93 109.38 Z" />
</g>
<g id="#9dc6c7ff">
<path fill="#9dc6c7" opacity="1.00" d=" M 2.24 98.81 C 6.95 96.95 1.34 110.00 7.79 107.92 C 10.14 105.66 9.49 102.38 8.23 99.76 C 14.51 101.18 14.10 113.74 22.30 111.62 C 23.97 108.56 26.78 106.42 29.14 103.93 C 32.87 105.51 29.55 110.10 29.98 113.09 C 33.78 112.44 34.34 107.31 37.23 105.05 C 43.30 105.62 45.19 112.24 49.46 115.15 C 48.92 120.97 54.10 118.19 57.77 116.53 C 58.56 118.03 58.57 120.85 60.99 120.04 C 66.03 120.10 65.21 109.16 71.18 111.83 C 74.73 114.85 80.73 105.93 82.17 112.88 C 84.23 118.38 85.88 109.14 88.74 109.03 C 89.88 111.51 89.22 115.82 91.91 117.00 C 91.54 112.53 95.71 111.21 98.96 109.16 C 100.26 114.66 108.23 116.76 107.48 122.34 C 106.07 123.63 104.20 124.06 102.38 124.43 C 87.09 125.84 74.92 138.84 59.03 136.97 C 41.79 136.67 27.35 125.06 10.23 124.25 C 7.20 126.09 12.04 128.72 14.17 128.84 C 6.33 133.78 9.96 120.08 2.93 123.76 L 2.56 122.88 C 2.57 114.86 2.67 106.81 2.24 98.81 Z" />
</g>
<g id="#8baeb0ff">
<path fill="#8baeb0" opacity="1.00" d=" M 370.65 101.58 C 374.41 100.85 378.46 100.54 382.15 101.87 C 378.30 101.99 374.45 102.31 370.65 101.58 Z" />
</g>
<g id="#95b8baff">
<path fill="#95b8ba" opacity="1.00" d=" M 688.41 101.54 C 695.08 101.78 704.40 98.58 710.04 102.84 C 698.51 105.10 686.71 106.42 674.95 105.96 C 675.25 100.11 684.99 104.05 688.41 101.54 Z" />
</g>
<g id="#9dc2c4ff">
</g>
<g id="#c3e9eaff">
<path fill="#c3e9ea" opacity="1.00" d=" M 350.19 113.13 C 361.72 105.97 380.65 101.53 390.58 110.90 C 385.26 116.74 378.96 121.69 374.02 127.85 C 376.97 131.05 378.68 129.92 377.16 125.86 C 381.91 126.36 384.06 132.41 389.31 131.90 C 393.83 135.26 397.59 139.62 403.69 139.26 C 407.45 144.58 413.74 150.78 420.70 147.50 C 426.11 152.86 432.98 156.40 438.43 161.70 C 445.03 159.18 451.26 162.21 458.07 161.97 C 453.45 164.85 447.55 167.36 441.98 168.15 C 431.61 164.50 421.90 157.80 410.42 156.56 C 407.44 148.79 397.88 150.67 393.05 144.93 C 388.59 140.97 382.33 138.58 376.45 139.59 C 374.01 136.17 371.71 132.37 367.13 131.83 C 364.80 130.59 363.72 126.64 360.38 128.43 C 354.14 130.98 352.25 122.16 347.00 121.00 C 344.39 120.59 342.58 118.46 342.13 115.93 C 340.43 111.51 348.05 115.43 350.19 113.13 Z" />
</g>
<g id="#7ba0a1ff">
<path fill="#7ba0a1" opacity="1.00" d=" M 218.10 106.85 C 222.96 110.48 228.63 113.74 232.11 118.91 C 227.39 119.02 222.66 118.99 218.05 120.06 C 217.99 115.66 217.79 111.25 218.10 106.85 Z" />
<path fill="#7ba0a1" opacity="1.00" d=" M 636.38 320.68 C 637.46 329.74 636.95 338.89 637.00 348.00 C 634.79 340.87 636.18 329.41 636.38 320.68 Z" />
</g>
<g id="#bee4e5ff">
<path fill="#bee4e5" opacity="1.00" d=" M 265.14 107.11 C 275.40 107.13 285.59 110.08 295.83 109.29 C 296.34 110.08 296.81 110.91 297.23 111.76 C 295.23 113.97 295.11 118.13 291.64 118.56 C 283.55 119.87 275.44 121.90 267.19 120.87 C 265.37 118.39 265.24 115.00 264.93 112.02 C 264.95 110.38 264.98 108.74 265.14 107.11 Z" />
</g>
<g id="#cdf3f4ff">
<path fill="#cdf3f4" opacity="1.00" d=" M 374.02 127.85 C 378.96 121.69 385.26 116.74 390.58 110.90 C 392.10 113.07 394.26 114.33 396.96 114.26 C 408.84 121.18 422.78 122.97 435.14 128.81 C 440.71 131.30 446.81 132.00 452.73 133.30 C 458.05 133.72 464.08 135.23 469.21 133.17 C 482.49 129.28 494.09 118.81 508.86 121.21 C 518.27 123.97 527.85 126.21 537.58 127.36 C 549.31 142.28 561.53 157.01 573.00 171.99 C 571.62 175.08 573.46 177.26 575.53 179.35 C 577.15 181.92 572.16 180.39 571.17 182.21 C 568.16 184.36 572.60 186.37 573.59 188.46 C 573.69 191.41 578.46 200.23 570.08 197.20 C 571.48 200.24 583.30 197.69 581.05 205.82 C 575.10 201.97 568.85 209.35 574.22 213.78 C 579.01 216.17 573.18 227.30 579.80 222.83 C 582.57 221.32 584.27 227.20 580.03 225.79 C 575.13 223.74 576.06 229.59 575.80 233.01 C 571.85 233.81 570.99 229.19 569.35 226.68 C 563.25 223.51 561.38 215.86 554.99 212.91 C 550.48 209.29 546.91 204.34 543.04 200.03 C 542.10 197.44 539.96 195.74 537.99 193.97 C 533.58 189.08 528.76 184.51 525.03 179.06 C 523.39 176.38 521.64 173.66 518.93 171.95 C 510.29 164.00 503.70 154.03 494.87 146.17 C 492.50 142.21 485.97 136.47 481.93 140.97 C 479.68 143.13 482.57 146.29 481.33 148.33 C 474.54 154.17 466.45 159.03 458.07 161.97 C 451.26 162.21 445.03 159.18 438.43 161.70 C 432.98 156.40 426.11 152.86 420.70 147.50 C 413.74 150.78 407.45 144.58 403.69 139.26 C 397.59 139.62 393.83 135.26 389.31 131.90 C 384.06 132.41 381.91 126.36 377.16 125.86 C 378.68 129.92 376.97 131.05 374.02 127.85 Z" />
</g>
<g id="#aed1d2ff">
<path fill="#aed1d2" opacity="1.00" d=" M 390.58 110.90 C 392.75 111.55 396.06 111.98 396.96 114.26 C 394.26 114.33 392.10 113.07 390.58 110.90 Z" />
</g>
<g id="#a2cacbff">
</g>
<g id="#b6dcddff">
<path fill="#b6dcdd" opacity="1.00" d=" M 328.13 115.97 C 334.81 112.67 342.99 113.76 350.19 113.13 C 348.05 115.43 340.43 111.51 342.13 115.93 C 342.58 118.46 344.39 120.59 347.00 121.00 C 352.25 122.16 354.14 130.98 360.38 128.43 C 363.72 126.64 364.80 130.59 367.13 131.83 C 371.71 132.37 374.01 136.17 376.45 139.59 C 382.33 138.58 388.59 140.97 393.05 144.93 C 397.88 150.67 407.44 148.79 410.42 156.56 C 421.90 157.80 431.61 164.50 441.98 168.15 C 440.40 169.93 436.53 169.58 434.03 170.07 C 429.65 173.86 420.78 161.91 421.87 170.92 C 413.65 164.25 404.86 156.54 393.71 156.12 C 382.10 145.82 365.33 144.66 354.09 133.83 C 349.54 135.49 344.60 133.28 342.51 128.37 C 338.25 129.96 337.66 126.11 335.24 123.72 C 332.73 120.56 328.62 126.32 328.15 120.86 C 324.32 120.35 324.41 116.63 328.13 115.97 Z" />
</g>
<g id="#a3c9caff">
</g>
<g id="#acd2d3ff">
<path fill="#acd2d3" opacity="1.00" d=" M 311.85 119.92 C 316.51 117.40 322.73 116.76 328.13 115.97 C 324.41 116.63 324.32 120.35 328.15 120.86 C 328.62 126.32 332.73 120.56 335.24 123.72 C 337.66 126.11 338.25 129.96 342.51 128.37 C 344.60 133.28 349.54 135.49 354.09 133.83 C 365.33 144.66 382.10 145.82 393.71 156.12 C 404.86 156.54 413.65 164.25 421.87 170.92 C 420.78 161.91 429.65 173.86 434.03 170.07 C 429.52 172.79 421.62 171.98 416.01 173.06 C 412.96 173.00 409.98 173.08 406.97 172.78 C 408.71 169.26 407.39 165.86 403.09 167.53 C 402.37 163.80 399.81 163.60 398.06 166.88 C 395.44 163.60 390.82 163.96 387.71 161.37 C 382.70 157.85 378.54 151.94 371.88 151.82 C 364.42 151.44 358.45 140.00 351.15 145.07 C 351.43 142.81 353.28 138.44 349.28 140.25 C 344.25 145.02 344.27 131.95 338.01 135.86 C 328.70 134.16 323.00 124.27 313.36 124.41 C 310.02 126.03 309.90 121.54 311.85 119.92 Z" />
</g>
<g id="#a4cacbff">
<path fill="#a4cacb" opacity="1.00" d=" M 303.64 123.17 C 305.14 119.97 308.43 119.20 311.85 119.92 C 309.90 121.54 310.02 126.03 313.36 124.41 C 323.00 124.27 328.70 134.16 338.01 135.86 C 344.27 131.95 344.25 145.02 349.28 140.25 C 353.28 138.44 351.43 142.81 351.15 145.07 C 358.45 140.00 364.42 151.44 371.88 151.82 C 378.54 151.94 382.70 157.85 387.71 161.37 C 390.82 163.96 395.44 163.60 398.06 166.88 C 399.81 163.60 402.37 163.80 403.09 167.53 C 407.39 165.86 408.71 169.26 406.97 172.78 C 402.41 172.30 397.80 172.60 393.22 172.65 C 391.26 166.69 383.40 163.50 378.07 166.99 C 375.44 163.60 369.84 163.34 369.46 158.40 C 366.95 155.11 361.92 154.77 358.11 155.80 C 354.55 145.04 338.18 149.29 332.73 139.27 C 329.42 142.79 324.29 143.12 326.94 137.17 C 317.89 135.44 309.02 129.75 303.64 123.17 Z" />
</g>
<g id="#a8d4d5ff">
</g>
<g id="#9ac0c1ff">
<path fill="#9ac0c1" opacity="1.00" d=" M 301.09 133.74 C 300.88 130.33 301.68 124.60 303.64 123.17 C 309.02 129.75 317.89 135.44 326.94 137.17 C 324.29 143.12 329.42 142.79 332.73 139.27 C 338.18 149.29 354.55 145.04 358.11 155.80 C 361.92 154.77 366.95 155.11 369.46 158.40 C 369.84 163.34 375.44 163.60 378.07 166.99 C 383.40 163.50 391.26 166.69 393.22 172.65 C 397.80 172.60 402.41 172.30 406.97 172.78 C 409.98 173.08 412.96 173.00 416.01 173.06 C 407.34 174.48 394.01 174.99 384.16 172.94 C 379.90 170.71 374.97 170.61 370.39 169.60 C 366.90 165.21 360.41 165.54 356.88 161.12 C 354.42 158.59 351.33 154.11 347.62 157.40 C 342.04 154.70 335.73 151.51 329.90 148.11 C 325.48 149.30 322.44 149.31 321.85 144.22 C 313.02 146.65 308.98 136.18 301.09 133.74 Z" />
<path fill="#9ac0c1" opacity="1.00" d=" M 529.26 515.16 C 530.70 512.94 537.22 515.78 533.83 517.81 C 532.35 521.12 525.96 516.97 529.26 515.16 Z" />
</g>
<g id="#83a9aaff">
<path fill="#83a9aa" opacity="1.00" d=" M 217.83 129.98 C 215.46 120.73 226.11 124.64 231.03 124.05 C 223.82 155.21 221.88 187.23 218.97 218.99 C 217.36 235.52 226.49 250.77 222.67 267.70 C 220.67 273.60 216.90 279.48 210.44 281.11 C 210.13 278.79 209.78 276.37 208.59 274.33 C 205.52 270.84 209.96 266.68 210.89 263.06 C 208.10 259.49 206.60 267.38 203.86 264.13 C 202.03 261.97 199.30 262.85 196.86 262.94 C 200.60 260.65 205.41 258.37 205.00 253.01 C 214.08 212.67 214.07 171.02 217.83 129.98 Z" />
<path fill="#83a9aa" opacity="1.00" d=" M 560.10 299.24 C 565.26 304.15 571.60 310.87 573.62 318.25 C 574.25 323.85 576.27 334.12 567.66 333.91 C 565.49 337.49 570.87 341.48 571.68 345.29 C 573.21 348.02 565.78 348.49 569.05 350.90 C 572.78 352.92 569.25 356.67 568.81 359.58 C 574.45 358.00 573.37 367.46 569.92 369.87 C 566.05 373.87 574.62 371.32 577.13 372.14 C 577.47 378.32 567.53 369.59 571.91 378.99 C 570.12 384.33 572.74 387.78 576.83 390.22 C 575.40 393.54 565.59 391.18 570.55 398.53 C 574.90 403.49 569.87 407.32 568.90 412.11 C 570.63 411.53 572.22 410.64 573.84 409.82 C 573.31 420.05 567.82 429.42 565.40 439.32 C 564.88 440.99 565.15 443.73 562.97 444.18 C 559.96 444.64 558.26 443.07 558.25 440.10 C 559.65 437.27 564.36 440.28 563.04 436.03 C 565.04 426.93 559.98 431.60 557.03 434.06 C 554.51 431.53 559.48 429.11 557.47 426.49 C 555.33 423.36 555.06 418.42 561.38 420.48 C 562.39 417.70 564.19 415.62 567.07 414.70 C 563.36 413.42 560.38 410.98 558.27 407.10 C 565.13 405.98 561.17 399.27 563.15 394.52 C 561.88 390.00 568.00 383.50 560.20 384.31 C 560.54 387.40 559.04 388.77 555.98 387.97 C 555.20 384.35 557.92 372.93 563.34 377.79 C 559.55 374.34 558.05 369.63 561.01 365.10 C 558.42 362.67 557.48 359.28 556.99 355.86 C 559.58 355.87 564.32 360.29 562.73 355.12 C 561.31 351.67 569.11 347.74 564.16 345.79 C 559.25 344.86 566.98 341.65 564.62 338.60 C 565.98 332.44 558.14 334.82 556.92 330.01 C 557.90 325.77 565.85 324.57 560.38 320.43 C 564.60 318.84 563.87 311.06 559.17 315.23 C 552.78 317.75 555.27 305.73 560.31 310.61 C 563.99 313.93 560.70 308.04 559.22 306.75 C 556.82 304.51 560.64 301.96 560.10 299.24 Z" />
</g>
<g id="#92b9baff">
<path fill="#92b9ba" opacity="1.00" d=" M 272.01 125.00 C 274.83 123.71 278.58 123.45 283.26 124.20 C 279.53 124.74 275.78 125.01 272.01 125.00 Z" />
</g>
<g id="#c5eaecff">
<path fill="#c5eaec" opacity="1.00" d=" M 283.26 124.20 L 284.13 124.11 C 286.53 124.46 290.63 122.40 291.16 125.69 C 290.55 130.84 289.40 135.84 287.66 140.71 C 286.54 149.38 286.44 158.31 288.10 166.93 C 290.66 189.52 292.44 212.23 294.97 234.90 C 295.19 240.32 294.09 246.08 296.89 251.06 C 300.10 255.20 292.23 257.42 294.25 261.61 C 302.92 266.18 296.35 277.05 297.04 283.97 C 300.26 286.44 300.09 291.17 298.42 294.52 C 294.70 302.22 299.80 311.18 296.44 318.78 C 297.55 319.33 298.70 319.81 299.82 320.36 C 297.00 328.95 298.37 338.26 295.05 346.83 C 293.67 346.24 292.34 345.56 290.98 344.95 C 281.70 335.20 278.97 320.13 278.00 307.01 C 278.05 297.04 277.87 287.07 278.08 277.10 L 278.20 276.25 C 279.48 269.91 280.11 263.45 280.04 256.99 C 280.68 244.33 281.30 231.69 281.02 219.00 C 281.13 213.22 281.11 207.43 280.34 201.70 C 279.68 196.79 281.12 191.48 279.17 186.81 C 278.17 182.27 277.10 177.51 276.98 172.81 C 277.49 170.41 277.32 168.15 276.49 166.04 C 273.38 156.02 272.26 145.33 269.98 135.05 C 269.68 132.03 269.36 129.05 269.00 126.06 C 269.18 124.94 270.19 124.59 272.01 125.00 C 275.78 125.01 279.53 124.74 283.26 124.20 Z" />
</g>
<g id="#a9cfd0ff">
</g>
<g id="#94bbbcff">
<path fill="#94bbbc" opacity="1.00" d=" M 269.98 135.05 C 268.77 134.72 266.82 126.33 269.00 126.06 C 269.36 129.05 269.68 132.03 269.98 135.05 Z" />
</g>
<g id="#a2c8c9ff">
<path fill="#a2c8c9" opacity="1.00" d=" M 654.10 275.88 C 661.53 284.29 668.98 293.37 678.18 299.97 C 678.90 304.63 676.88 311.55 682.75 313.24 C 681.81 319.21 683.59 325.31 680.60 330.87 C 678.98 330.32 677.47 329.53 675.88 328.95 C 676.89 331.51 677.82 334.60 680.73 335.54 C 680.58 341.11 671.50 339.64 671.56 334.18 C 662.73 337.41 680.21 342.33 675.49 348.63 C 673.66 351.61 676.87 357.33 672.01 357.43 C 674.61 360.95 675.01 363.83 672.98 367.82 C 681.45 368.23 678.22 377.10 680.28 382.68 C 681.91 385.51 677.65 382.50 676.61 383.80 C 673.44 387.23 682.74 389.85 678.94 392.90 C 674.38 395.72 682.08 399.40 682.58 401.82 C 678.33 405.78 680.78 413.37 674.16 415.24 C 668.46 416.79 677.05 420.20 677.76 422.66 C 675.52 423.71 675.19 425.64 675.72 427.88 C 671.23 428.12 662.68 432.63 667.19 438.01 C 671.80 438.23 671.04 434.07 670.17 430.89 C 675.90 430.40 676.26 437.80 673.20 441.23 C 670.80 443.92 676.56 445.09 676.06 448.00 C 676.49 451.59 671.41 451.12 669.12 452.34 C 668.96 458.20 678.02 459.71 676.14 466.17 C 674.48 468.47 672.10 472.10 673.97 474.77 C 675.53 474.19 676.97 472.71 678.76 473.13 C 682.16 475.67 675.47 478.41 676.69 481.65 C 679.28 485.78 674.84 489.69 674.78 493.90 C 679.33 489.51 679.01 498.75 682.14 500.78 C 686.29 505.36 670.19 498.22 675.45 502.56 C 678.51 504.83 675.50 508.94 675.93 512.09 C 672.19 518.74 667.12 525.33 660.94 530.06 C 662.09 523.58 663.09 517.02 662.78 510.41 C 657.60 508.68 659.86 500.72 663.96 498.92 C 664.72 500.57 664.99 502.38 665.42 504.15 C 668.59 499.17 671.94 488.20 661.67 489.29 C 660.38 484.62 660.53 479.48 660.35 474.62 C 666.97 473.66 660.15 465.74 665.81 463.62 C 666.61 455.20 655.24 467.54 659.23 456.04 C 660.90 452.04 658.86 448.12 658.61 444.43 C 662.14 440.34 654.25 435.55 659.02 431.99 C 661.82 430.22 655.82 426.33 659.78 425.79 C 664.29 425.09 660.58 419.37 657.18 421.70 C 653.82 413.50 670.16 406.43 662.35 398.27 C 667.03 395.63 661.91 392.27 661.29 388.85 C 665.41 379.37 654.26 388.05 655.07 382.22 C 656.40 379.73 660.45 383.31 660.71 379.87 C 660.68 377.27 662.75 376.90 664.89 376.67 C 664.48 373.78 661.40 369.91 665.58 368.64 C 663.35 365.16 663.59 360.17 658.11 362.97 C 659.06 357.71 662.35 350.97 656.03 348.05 C 659.91 345.24 662.83 337.89 657.21 335.47 C 658.27 334.08 662.48 333.02 659.63 331.45 C 654.35 328.09 668.32 332.62 661.83 325.27 C 660.70 322.74 658.30 325.53 656.50 325.79 C 655.95 324.13 654.80 323.04 653.16 322.47 C 653.36 319.20 655.47 317.20 658.20 319.80 C 670.28 323.85 656.37 307.26 666.26 311.62 C 661.07 307.42 660.33 297.12 666.64 293.64 C 669.05 289.51 656.92 294.75 660.56 290.42 C 664.07 286.59 658.49 283.85 655.11 285.80 C 655.92 282.43 655.10 279.11 654.10 275.88 Z" />
</g>
<g id="#9bbebfff">
<path fill="#9bbebf" opacity="1.00" d=" M 445.95 127.96 C 452.97 128.14 459.96 129.20 467.01 129.07 C 462.43 130.72 450.77 130.62 445.95 127.96 Z" />
</g>
<g id="#a3c9cbff">
<path fill="#a3c9cb" opacity="1.00" d=" M 132.94 319.02 C 135.51 315.73 140.11 315.35 143.75 313.78 C 142.34 317.20 136.42 317.62 132.94 319.02 Z" />
</g>
<g id="#9cbfc1ff">
<path fill="#9cbfc1" opacity="1.00" d=" M 452.73 133.30 C 458.20 133.04 463.73 132.74 469.21 133.17 C 464.08 135.23 458.05 133.72 452.73 133.30 Z" />
</g>
<g id="#90b6b7ff">
<path fill="#90b6b7" opacity="1.00" d=" M 301.22 145.80 C 299.31 143.51 298.55 135.15 301.09 133.74 C 308.98 136.18 313.02 146.65 321.85 144.22 C 322.44 149.31 325.48 149.30 329.90 148.11 C 335.73 151.51 342.04 154.70 347.62 157.40 C 351.33 154.11 354.42 158.59 356.88 161.12 C 360.41 165.54 366.90 165.21 370.39 169.60 C 374.97 170.61 379.90 170.71 384.16 172.94 C 354.76 170.50 328.10 156.77 301.22 145.80 Z" />
<path fill="#90b6b7" opacity="1.00" d=" M 471.04 526.88 C 474.37 528.11 478.75 527.91 481.26 530.83 C 476.90 529.59 472.44 528.83 467.86 528.88 C 468.89 528.17 469.98 527.55 471.04 526.88 Z" />
</g>
<g id="#a5cbcdff">
</g>
<g id="#a5cccdff">
<path fill="#a5cccd" opacity="1.00" d=" M 165.00 249.94 C 171.86 252.26 179.02 255.77 184.89 260.15 C 192.23 264.27 183.23 272.67 189.84 276.76 C 188.12 278.48 184.89 279.68 186.08 282.67 C 191.18 280.65 191.62 285.60 191.95 288.62 C 188.70 288.65 186.09 290.33 186.83 293.90 C 182.91 297.24 176.49 299.38 171.16 301.14 C 172.99 298.13 170.75 297.70 167.99 297.76 C 168.82 295.43 171.66 292.22 168.37 290.58 C 163.59 286.70 175.20 287.24 172.29 282.78 C 169.06 277.19 169.50 271.56 170.56 265.36 C 171.91 260.26 166.74 257.41 163.86 254.21 C 168.90 254.88 167.62 252.64 165.00 249.94 Z" />
</g>
<g id="#8db3b4ff">
<path fill="#8db3b4" opacity="1.00" d=" M 288.10 166.93 C 286.44 158.31 286.54 149.38 287.66 140.71 C 290.33 146.16 286.74 153.02 288.09 158.98 C 287.92 161.45 290.76 166.82 288.10 166.93 Z" />
</g>
<g id="#a3cfd0ff">
</g>
<g id="#afd6d7ff">
</g>
<g id="#b1ddddff">
</g>
<g id="#abd2d3ff">
</g>
<g id="#abced0ff">
<path fill="#abced0" opacity="1.00" d=" M 595.24 338.77 C 596.42 343.79 596.17 349.04 595.08 354.07 L 594.96 352.94 C 594.98 348.21 595.14 343.48 595.24 338.77 Z" />
</g>
<g id="#9dc3c4ff">
</g>
<g id="#b0d8d8ff">
</g>
<g id="#8cb2b3ff">
<path fill="#8cb2b3" opacity="1.00" d=" M 276.49 166.04 C 277.32 168.15 277.49 170.41 276.98 172.81 C 274.86 171.86 275.54 167.86 276.49 166.04 Z" />
</g>
<g id="#b6ddddff">
</g>
<g id="#92b6b7ff">
<path fill="#92b6b7" opacity="1.00" d=" M 466.25 168.87 C 468.77 165.27 470.60 174.83 473.09 176.95 C 470.07 174.91 467.94 172.03 466.25 168.87 Z" />
</g>
<g id="#c0e6e7ff">
<path fill="#c0e6e7" opacity="1.00" d=" M 441.30 179.33 C 449.78 176.31 457.65 171.68 466.25 168.87 C 467.94 172.03 470.07 174.91 473.09 176.95 C 478.76 183.03 484.66 189.77 487.18 197.85 C 487.84 200.43 490.14 203.22 487.28 205.29 C 483.98 208.58 489.30 211.39 492.28 211.83 C 495.67 215.61 485.64 224.12 493.46 225.31 C 492.65 228.72 491.75 232.12 491.06 235.56 C 493.06 235.24 495.11 235.20 496.99 236.08 C 495.08 240.31 489.41 242.06 490.64 247.70 C 487.32 252.21 484.29 244.11 481.86 242.08 C 476.32 235.43 472.48 227.46 468.16 220.01 C 467.46 217.56 466.09 215.42 464.23 213.70 C 462.52 211.69 461.21 209.38 460.00 207.05 C 458.15 203.94 457.12 200.03 453.95 197.94 C 452.95 197.28 452.66 196.02 452.14 195.01 C 450.65 191.41 448.09 188.19 444.91 185.96 C 444.20 184.52 437.65 180.66 441.30 179.33 Z" />
</g>
<g id="#9bc1c1ff">
<path fill="#9bc1c1" opacity="1.00" d=" M 518.93 171.95 C 521.64 173.66 523.39 176.38 525.03 179.06 C 521.88 178.56 520.04 174.69 518.93 171.95 Z" />
</g>
<g id="#bde2e4ff">
<path fill="#bde2e4" opacity="1.00" d=" M 573.00 171.99 C 584.04 185.61 595.65 199.62 605.85 213.99 C 605.49 217.58 606.96 220.76 609.74 222.99 C 605.72 228.01 614.96 231.50 613.11 237.02 C 613.20 239.12 614.75 242.01 612.00 242.99 C 607.13 245.44 613.62 248.90 613.87 252.31 C 615.71 255.17 617.41 247.96 619.25 250.73 C 622.82 252.80 623.39 260.92 617.64 258.46 C 609.42 258.63 621.47 265.24 619.04 270.02 C 613.89 270.54 608.93 268.95 603.97 268.02 C 591.70 256.30 580.78 242.53 568.90 230.08 C 564.88 223.97 557.83 219.40 554.99 212.91 C 561.38 215.86 563.25 223.51 569.35 226.68 C 570.99 229.19 571.85 233.81 575.80 233.01 C 576.06 229.59 575.13 223.74 580.03 225.79 C 584.27 227.20 582.57 221.32 579.80 222.83 C 573.18 227.30 579.01 216.17 574.22 213.78 C 568.85 209.35 575.10 201.97 581.05 205.82 C 583.30 197.69 571.48 200.24 570.08 197.20 C 578.46 200.23 573.69 191.41 573.59 188.46 C 572.60 186.37 568.16 184.36 571.17 182.21 C 572.16 180.39 577.15 181.92 575.53 179.35 C 573.46 177.26 571.62 175.08 573.00 171.99 Z" />
</g>
<g id="#b5dbdcff">
</g>
<g id="#cbf4f4ff">
</g>
<g id="#b6dadcff">
</g>
<g id="#bae1e2ff">
</g>
<g id="#87acadff">
<path fill="#87acad" opacity="1.00" d=" M 381.77 184.18 C 393.53 183.77 405.29 184.16 417.05 183.97 C 405.46 185.86 393.43 185.37 381.77 184.18 Z" />
</g>
<g id="#bde3e4ff">
</g>
<g id="#95b9bbff">
<path fill="#95b9bb" opacity="1.00" d=" M 279.17 186.81 C 281.12 191.48 279.68 196.79 280.34 201.70 L 280.21 202.77 C 277.04 200.98 280.01 191.10 279.17 186.81 Z" />
</g>
<g id="#c1ecebff">
</g>
<g id="#7da4a6ff">
<path fill="#7da4a6" opacity="1.00" d=" M 232.06 204.18 C 231.94 200.34 232.20 196.56 232.85 192.82 C 232.95 196.63 232.69 200.42 232.06 204.18 Z" />
</g>
<g id="#8bb0b2ff">
<path fill="#8bb0b2" opacity="1.00" d=" M 453.95 197.94 C 457.12 200.03 458.15 203.94 460.00 207.05 C 457.22 204.86 454.65 201.54 453.95 197.94 Z" />
</g>
<g id="#b5e1e0ff">
</g>
<g id="#9ec4c4ff">
<path fill="#9ec4c4" opacity="1.00" d=" M 280.34 201.70 C 281.11 207.43 281.13 213.22 281.02 219.00 C 278.31 215.94 280.72 207.51 280.21 202.77 L 280.34 201.70 Z" />
</g>
<g id="#c1e6e7ff">
</g>
<g id="#c0e7e8ff">
</g>
<g id="#c2e9eaff">
</g>
<g id="#c0ebeaff">
</g>
<g id="#8eb2b3ff">
<path fill="#8eb2b3" opacity="1.00" d=" M 464.23 213.70 C 466.09 215.42 467.46 217.56 468.16 220.01 C 465.99 218.84 464.12 216.23 464.23 213.70 Z" />
</g>
<g id="#b0d6d7ff">
<path fill="#b0d6d7" opacity="1.00" d=" M 605.85 213.99 C 617.75 229.14 629.64 244.48 641.06 259.88 C 643.94 263.94 637.12 269.00 643.00 271.00 C 648.79 272.69 644.86 275.54 642.24 276.43 C 639.92 281.18 651.42 279.91 648.28 284.13 C 643.76 284.02 644.50 290.79 648.76 289.46 C 651.73 290.70 648.50 294.29 646.55 291.54 C 641.24 288.70 643.01 295.43 645.19 297.84 C 649.31 302.53 649.00 310.19 644.21 314.28 C 646.10 319.21 642.19 321.11 640.42 325.05 C 636.37 318.49 637.05 310.84 637.92 303.06 C 635.70 300.02 633.43 295.44 628.97 295.85 C 620.60 287.10 611.07 278.25 603.97 268.02 C 608.93 268.95 613.89 270.54 619.04 270.02 C 621.47 265.24 609.42 258.63 617.64 258.46 C 623.39 260.92 622.82 252.80 619.25 250.73 C 617.41 247.96 615.71 255.17 613.87 252.31 C 613.62 248.90 607.13 245.44 612.00 242.99 C 614.75 242.01 613.20 239.12 613.11 237.02 C 614.96 231.50 605.72 228.01 609.74 222.99 C 606.96 220.76 605.49 217.58 605.85 213.99 Z" />
</g>
<g id="#c9eff0ff">
</g>
<g id="#99c2c2ff">
<path fill="#99c2c2" opacity="1.00" d=" M 304.78 217.26 C 305.03 218.69 305.54 221.55 305.79 222.98 C 305.54 221.55 305.03 218.69 304.78 217.26 Z" />
</g>
<g id="#85acadff">
<path fill="#85acad" opacity="1.00" d=" M 198.13 230.23 C 198.06 227.06 198.35 223.89 198.81 220.77 C 199.01 223.94 198.72 227.09 198.13 230.23 Z" />
</g>
<g id="#a3c7c9ff">
</g>
<g id="#93babbff">
</g>
<g id="#c9f0f0ff">
</g>
<g id="#8fb3b5ff">
</g>
<g id="#91b8b9ff">
<path fill="#91b8b9" opacity="1.00" d=" M 531.07 269.94 C 535.58 272.80 539.69 277.64 542.80 282.03 C 545.94 288.44 551.69 295.30 547.30 303.02 C 550.37 307.41 553.88 320.03 545.87 318.94 C 542.74 324.96 548.35 321.90 551.79 321.03 C 555.63 325.41 547.87 327.15 550.08 332.03 C 550.87 337.79 545.45 333.10 543.02 331.84 C 538.04 328.28 533.25 324.10 530.01 318.84 C 532.10 319.65 534.04 320.76 535.99 321.87 C 536.91 318.31 534.85 313.63 537.74 310.70 C 540.59 307.80 534.60 304.07 537.50 301.01 C 536.59 297.67 532.61 296.79 530.30 294.68 C 527.80 289.58 542.02 297.20 538.06 291.93 C 534.39 289.36 539.55 284.44 536.80 281.08 C 534.91 281.23 533.08 281.72 531.21 281.97 C 532.70 277.76 528.88 274.15 531.07 269.94 Z" />
</g>
<g id="#c5ecedff">
</g>
<g id="#cbf1f2ff">
<path fill="#cbf1f2" opacity="1.00" d=" M 470.89 466.70 C 474.91 465.64 481.62 472.59 477.17 476.22 C 479.09 479.46 479.06 482.27 476.17 484.94 C 479.96 488.51 474.09 492.47 477.76 496.14 C 473.63 502.35 481.08 508.50 478.96 515.28 C 477.11 514.45 475.56 513.15 473.92 512.01 C 475.64 517.22 473.35 522.28 471.04 526.88 C 469.98 527.55 468.89 528.17 467.86 528.88 C 465.68 530.28 464.40 532.92 462.07 534.04 C 454.87 535.40 448.40 533.44 441.93 530.92 C 437.96 529.38 428.32 529.45 430.39 523.37 C 436.58 515.20 440.94 505.59 448.18 498.27 C 450.07 496.57 452.09 494.73 452.23 492.02 C 458.21 483.50 464.71 475.16 470.89 466.70 Z" />
</g>
<g id="#b4dadbff">
<path fill="#b4dadb" opacity="1.00" d=" M 294.97 234.90 C 297.23 236.47 296.83 240.15 298.41 242.44 C 299.68 248.62 305.62 252.33 307.80 258.02 C 308.08 261.64 311.72 263.31 313.50 266.13 C 312.03 268.95 312.91 272.25 311.28 275.02 C 314.57 277.13 316.11 284.21 311.11 284.45 C 311.07 288.08 316.18 290.73 313.88 294.74 C 310.99 297.82 318.27 304.35 312.17 304.37 C 314.11 312.77 316.13 321.65 310.11 328.97 C 301.73 332.24 298.19 340.82 295.76 348.91 C 293.31 349.67 290.86 347.38 290.98 344.95 C 292.34 345.56 293.67 346.24 295.05 346.83 C 298.37 338.26 297.00 328.95 299.82 320.36 C 298.70 319.81 297.55 319.33 296.44 318.78 C 299.80 311.18 294.70 302.22 298.42 294.52 C 300.09 291.17 300.26 286.44 297.04 283.97 C 296.35 277.05 302.92 266.18 294.25 261.61 C 292.23 257.42 300.10 255.20 296.89 251.06 C 294.09 246.08 295.19 240.32 294.97 234.90 Z" />
</g>
<g id="#caf0f1ff">
<path fill="#caf0f1" opacity="1.00" d=" M 114.08 238.92 C 112.90 236.13 116.07 236.97 117.69 237.34 C 126.25 239.90 135.04 241.56 143.82 243.14 C 149.98 244.64 142.77 249.41 146.31 252.74 C 148.02 253.84 150.05 253.19 151.93 253.17 C 152.66 260.49 147.28 266.77 149.91 274.06 C 149.69 277.76 146.40 281.40 150.45 284.26 C 146.50 288.00 150.55 293.90 147.19 298.06 C 152.46 302.75 146.34 308.99 143.75 313.78 C 140.11 315.35 135.51 315.73 132.94 319.02 C 129.25 321.92 124.27 322.65 119.83 324.00 C 116.26 324.96 117.00 321.49 116.98 319.10 C 119.17 312.75 122.96 307.09 126.17 301.21 C 132.12 292.33 124.44 280.90 115.02 278.83 C 113.56 278.18 111.43 277.05 112.12 275.10 C 114.12 266.27 122.51 259.61 122.01 250.05 C 120.42 245.67 116.31 242.76 114.08 238.92 Z" />
</g>
<g id="#97babcff">
<path fill="#97babc" opacity="1.00" d=" M 117.69 237.34 C 126.11 237.83 137.26 239.43 143.82 243.14 C 135.04 241.56 126.25 239.90 117.69 237.34 Z" />
</g>
<g id="#cef4f6ff">
</g>
<g id="#d1f5f7ff">
</g>
<g id="#b7dedfff">
<path fill="#b7dedf" opacity="1.00" d=" M 143.82 243.14 C 150.93 244.17 159.24 245.25 165.00 249.94 C 167.62 252.64 168.90 254.88 163.86 254.21 C 166.74 257.41 171.91 260.26 170.56 265.36 C 169.50 271.56 169.06 277.19 172.29 282.78 C 175.20 287.24 163.59 286.70 168.37 290.58 C 171.66 292.22 168.82 295.43 167.99 297.76 C 170.75 297.70 172.99 298.13 171.16 301.14 C 167.76 299.65 164.86 300.10 163.98 304.06 C 158.07 307.61 150.78 311.92 143.75 313.78 C 146.34 308.99 152.46 302.75 147.19 298.06 C 150.55 293.90 146.50 288.00 150.45 284.26 C 146.40 281.40 149.69 277.76 149.91 274.06 C 147.28 266.77 152.66 260.49 151.93 253.17 C 150.05 253.19 148.02 253.84 146.31 252.74 C 142.77 249.41 149.98 244.64 143.82 243.14 Z" />
</g>
<g id="#cdf5f6ff">
</g>
<g id="#9ec1c3ff">
<path fill="#9ec1c3" opacity="1.00" d=" M 562.17 528.19 C 564.46 513.19 563.33 497.79 567.01 483.01 C 564.67 498.01 565.98 513.43 562.17 528.19 Z" />
</g>
<g id="#d3fbfbff">
</g>
<g id="#9cc1c3ff">
<path fill="#9cc1c3" opacity="1.00" d=" M 517.25 252.15 C 522.37 257.32 526.78 264.33 531.07 269.94 C 528.88 274.15 532.70 277.76 531.21 281.97 C 533.08 281.72 534.91 281.23 536.80 281.08 C 539.55 284.44 534.39 289.36 538.06 291.93 C 542.02 297.20 527.80 289.58 530.30 294.68 C 532.61 296.79 536.59 297.67 537.50 301.01 C 534.60 304.07 540.59 307.80 537.74 310.70 C 534.85 313.63 536.91 318.31 535.99 321.87 C 534.04 320.76 532.10 319.65 530.01 318.84 C 519.26 304.88 509.11 289.61 500.99 273.92 C 508.04 277.48 507.39 289.31 515.78 290.13 C 513.81 285.27 519.51 279.98 515.27 275.70 C 511.98 273.10 518.00 270.40 516.67 267.46 C 513.99 265.98 512.88 262.62 516.43 261.38 C 526.69 261.66 516.21 259.17 514.16 256.90 C 515.14 255.28 516.28 253.78 517.25 252.15 Z" />
</g>
<g id="#98bbbdff">
<path fill="#98bbbd" opacity="1.00" d=" M 278.20 276.25 C 278.21 270.24 277.78 261.54 280.04 256.99 C 280.11 263.45 279.48 269.91 278.20 276.25 Z" />
<path fill="#98bbbd" opacity="1.00" d=" M 675.06 532.07 C 676.07 529.56 678.07 527.76 679.94 525.89 C 678.94 528.41 676.93 530.20 675.06 532.07 Z" />
</g>
<g id="#d4fafbff">
</g>
<g id="#95bcbdff">
<path fill="#95bcbd" opacity="1.00" d=" M 184.89 260.15 C 188.79 261.30 192.72 263.06 196.86 262.94 C 199.30 262.85 202.03 261.97 203.86 264.13 C 206.60 267.38 208.10 259.49 210.89 263.06 C 209.96 266.68 205.52 270.84 208.59 274.33 C 209.78 276.37 210.13 278.79 210.44 281.11 C 203.52 286.62 195.00 290.46 186.83 293.90 C 186.09 290.33 188.70 288.65 191.95 288.62 C 191.62 285.60 191.18 280.65 186.08 282.67 C 184.89 279.68 188.12 278.48 189.84 276.76 C 183.23 272.67 192.23 264.27 184.89 260.15 Z" />
</g>
<g id="#a8cecfff">
<path fill="#a8cecf" opacity="1.00" d=" M 641.06 259.88 C 645.27 265.14 651.01 269.85 654.10 275.88 C 655.10 279.11 655.92 282.43 655.11 285.80 C 658.49 283.85 664.07 286.59 660.56 290.42 C 656.92 294.75 669.05 289.51 666.64 293.64 C 660.33 297.12 661.07 307.42 666.26 311.62 C 656.37 307.26 670.28 323.85 658.20 319.80 C 655.47 317.20 653.36 319.20 653.16 322.47 C 654.80 323.04 655.95 324.13 656.50 325.79 C 658.30 325.53 660.70 322.74 661.83 325.27 C 668.32 332.62 654.35 328.09 659.63 331.45 C 662.48 333.02 658.27 334.08 657.21 335.47 C 662.83 337.89 659.91 345.24 656.03 348.05 C 662.35 350.97 659.06 357.71 658.11 362.97 C 663.59 360.17 663.35 365.16 665.58 368.64 C 661.40 369.91 664.48 373.78 664.89 376.67 C 662.75 376.90 660.68 377.27 660.71 379.87 C 660.45 383.31 656.40 379.73 655.07 382.22 C 654.26 388.05 665.41 379.37 661.29 388.85 C 661.91 392.27 667.03 395.63 662.35 398.27 C 670.16 406.43 653.82 413.50 657.18 421.70 C 660.58 419.37 664.29 425.09 659.78 425.79 C 655.82 426.33 661.82 430.22 659.02 431.99 C 654.25 435.55 662.14 440.34 658.61 444.43 C 658.86 448.12 660.90 452.04 659.23 456.04 C 655.24 467.54 666.61 455.20 665.81 463.62 C 660.15 465.74 666.97 473.66 660.35 474.62 C 660.53 479.48 660.38 484.62 661.67 489.29 C 671.94 488.20 668.59 499.17 665.42 504.15 C 664.99 502.38 664.72 500.57 663.96 498.92 C 659.86 500.72 657.60 508.68 662.78 510.41 C 663.09 517.02 662.09 523.58 660.94 530.06 C 658.42 533.50 649.26 545.21 647.99 534.01 C 639.27 472.42 639.16 410.05 637.00 348.00 C 636.95 338.89 637.46 329.74 636.38 320.68 C 637.19 311.27 636.86 301.71 628.97 295.85 C 633.43 295.44 635.70 300.02 637.92 303.06 C 637.05 310.84 636.37 318.49 640.42 325.05 C 642.19 321.11 646.10 319.21 644.21 314.28 C 649.00 310.19 649.31 302.53 645.19 297.84 C 643.01 295.43 641.24 288.70 646.55 291.54 C 648.50 294.29 651.73 290.70 648.76 289.46 C 644.50 290.79 643.76 284.02 648.28 284.13 C 651.42 279.91 639.92 281.18 642.24 276.43 C 644.86 275.54 648.79 272.69 643.00 271.00 C 637.12 269.00 643.94 263.94 641.06 259.88 Z" />
</g>
<g id="#93b9baff">
<path fill="#93b9ba" opacity="1.00" d=" M 115.02 278.83 C 124.44 280.90 132.12 292.33 126.17 301.21 C 129.90 291.14 122.43 284.03 115.02 278.83 Z" />
</g>
<g id="#9cbec0ff">
</g>
<g id="#8bb2b3ff">
</g>
<g id="#96bcbdff">
<path fill="#96bcbd" opacity="1.00" d=" M 323.85 271.00 C 329.10 274.27 334.80 277.65 339.10 282.00 C 340.27 288.23 334.71 300.76 344.29 301.76 C 336.70 307.59 337.47 318.45 339.00 327.03 C 338.08 336.26 323.84 329.60 320.32 329.29 C 328.78 323.45 323.26 312.14 325.55 304.46 C 322.66 301.71 323.65 298.64 325.88 295.88 C 323.52 290.04 325.34 283.27 327.66 278.21 C 325.94 275.98 323.42 274.21 323.85 271.00 Z" />
<path fill="#96bcbd" opacity="1.00" d=" M 684.74 306.10 C 692.25 311.53 700.06 317.28 706.15 324.33 C 703.05 330.59 701.84 338.73 705.22 344.94 C 712.21 346.63 709.14 338.92 708.03 335.03 C 710.26 336.06 712.62 336.47 715.08 336.25 C 714.92 339.64 711.03 342.06 712.40 345.65 C 713.84 348.95 707.70 347.95 708.84 351.60 C 712.51 352.53 714.79 349.86 717.84 348.89 C 716.69 355.76 722.17 366.69 714.03 370.10 C 714.25 367.09 716.41 362.97 712.67 361.30 C 706.47 356.53 702.15 370.32 706.69 372.51 C 712.54 368.10 712.12 376.83 714.77 380.22 C 717.24 380.90 720.99 380.24 719.93 383.66 C 717.36 383.50 713.63 383.92 713.91 387.12 C 715.77 386.94 717.39 385.97 719.08 385.24 C 720.89 390.01 716.69 394.99 711.14 392.90 C 716.79 397.47 704.33 400.60 707.64 403.60 C 717.02 400.03 713.74 410.27 714.56 415.35 C 715.20 420.67 707.94 416.45 710.77 412.11 C 710.75 407.52 702.73 412.32 705.80 415.18 C 708.69 419.00 704.61 417.37 702.00 416.94 C 704.13 420.55 706.44 421.75 709.05 418.16 C 711.79 422.29 720.52 424.49 717.95 431.96 C 715.97 435.81 714.68 445.24 708.94 440.24 C 707.63 442.64 709.58 444.62 710.54 446.71 C 708.99 448.56 707.31 450.50 707.98 453.12 C 710.46 453.37 711.18 448.88 713.57 450.39 C 715.61 452.32 717.82 453.96 720.75 453.96 C 717.90 457.16 723.29 460.77 719.33 463.33 C 717.53 466.13 714.40 464.70 712.18 463.36 C 710.30 468.42 707.20 473.19 707.07 478.74 C 708.87 481.19 711.84 482.89 714.90 483.33 C 713.09 486.05 710.88 489.16 707.13 487.88 C 701.02 485.76 694.64 489.20 689.94 493.02 C 690.59 488.08 697.70 487.16 698.73 483.49 C 693.44 483.09 693.04 474.30 697.99 472.94 C 702.45 471.30 697.70 466.87 694.97 466.07 C 694.08 462.30 690.37 459.78 689.01 456.04 C 691.60 452.94 694.07 458.99 696.38 455.45 C 697.72 452.66 703.69 447.37 698.27 445.98 C 699.46 453.33 690.20 447.92 686.69 448.22 C 683.39 444.18 690.52 444.57 692.15 442.16 C 690.31 441.27 688.35 440.68 686.51 439.84 C 687.68 437.39 686.13 433.39 690.08 433.57 C 688.12 428.79 681.40 439.61 685.18 429.32 C 687.72 426.05 693.42 431.15 695.67 426.91 C 693.23 422.63 695.05 417.82 696.50 413.50 C 698.80 410.97 703.77 409.99 701.90 405.27 C 699.19 401.58 696.01 406.32 693.18 406.99 C 691.82 405.30 690.91 403.24 690.91 401.06 C 693.61 401.20 696.41 401.64 699.17 401.81 C 698.69 397.56 692.59 394.94 694.42 390.38 C 696.78 385.04 694.71 379.11 696.66 373.67 C 697.98 369.35 693.73 366.25 690.24 364.82 C 690.64 360.28 696.31 357.88 691.21 354.08 C 695.65 348.72 687.19 348.88 685.97 345.05 C 687.69 342.18 692.26 348.55 690.65 344.26 C 687.70 339.73 691.26 334.72 690.38 329.86 C 685.25 321.41 695.99 329.11 694.99 323.22 C 692.55 322.36 690.41 320.75 688.17 319.70 C 683.32 320.25 688.62 316.22 690.05 314.83 C 691.14 310.34 685.00 309.98 684.74 306.10 Z" />
</g>
<g id="#9bbec0ff">
</g>
<g id="#b7d9dbff">
<path fill="#b7d9db" opacity="1.00" d=" M 230.94 278.80 C 230.75 276.69 231.57 274.71 232.85 273.07 C 233.63 275.26 233.12 277.68 230.94 278.80 Z" />
</g>
<g id="#99bbbdff">
<path fill="#99bbbd" opacity="1.00" d=" M 278.00 307.01 C 276.31 299.41 276.23 284.39 278.08 277.10 C 277.87 287.07 278.05 297.04 278.00 307.01 Z" />
</g>
<g id="#93b6b8ff">
</g>
<g id="#87adaeff">
<path fill="#87adae" opacity="1.00" d=" M 339.10 282.00 C 343.63 284.59 348.93 286.87 351.32 291.60 C 353.55 291.90 355.23 293.35 355.35 295.69 C 357.19 296.07 360.64 296.01 359.96 298.84 C 354.66 300.71 348.13 296.72 344.29 301.76 C 334.71 300.76 340.27 288.23 339.10 282.00 Z" />
</g>
<g id="#89afb0ff">
<path fill="#89afb0" opacity="1.00" d=" M 542.80 282.03 C 548.62 287.33 554.86 293.01 560.10 299.24 C 560.64 301.96 556.82 304.51 559.22 306.75 C 560.70 308.04 563.99 313.93 560.31 310.61 C 555.27 305.73 552.78 317.75 559.17 315.23 C 563.87 311.06 564.60 318.84 560.38 320.43 C 565.85 324.57 557.90 325.77 556.92 330.01 C 558.14 334.82 565.98 332.44 564.62 338.60 C 566.98 341.65 559.25 344.86 564.16 345.79 C 569.11 347.74 561.31 351.67 562.73 355.12 C 564.32 360.29 559.58 355.87 556.99 355.86 C 557.48 359.28 558.42 362.67 561.01 365.10 C 558.05 369.63 559.55 374.34 563.34 377.79 C 557.92 372.93 555.20 384.35 555.98 387.97 C 559.04 388.77 560.54 387.40 560.20 384.31 C 568.00 383.50 561.88 390.00 563.15 394.52 C 561.17 399.27 565.13 405.98 558.27 407.10 C 560.38 410.98 563.36 413.42 567.07 414.70 C 564.19 415.62 562.39 417.70 561.38 420.48 C 555.06 418.42 555.33 423.36 557.47 426.49 C 559.48 429.11 554.51 431.53 557.03 434.06 C 559.98 431.60 565.04 426.93 563.04 436.03 C 564.36 440.28 559.65 437.27 558.25 440.10 C 558.26 443.07 559.96 444.64 562.97 444.18 C 561.28 459.67 555.58 475.68 554.08 488.96 C 550.84 481.35 556.06 475.39 552.41 468.06 C 554.73 465.90 553.15 463.21 552.17 460.82 C 555.26 460.11 556.35 463.61 559.03 464.13 C 560.27 458.65 553.70 460.40 550.20 459.75 C 546.68 453.88 558.30 452.60 555.95 446.29 C 549.54 447.77 555.37 440.60 550.20 440.58 C 548.30 435.83 552.83 437.06 555.82 437.95 C 555.16 432.33 548.26 431.44 548.35 425.68 C 547.25 421.19 556.47 418.61 550.32 415.56 C 552.98 410.67 548.11 404.57 552.81 399.84 C 556.84 394.38 550.11 390.41 550.08 385.37 C 553.39 385.35 552.95 383.87 551.17 381.87 C 556.07 378.36 550.07 374.22 550.57 369.54 C 552.12 364.59 548.46 363.37 545.04 362.69 C 549.50 352.60 550.64 340.00 543.02 331.84 C 545.45 333.10 550.87 337.79 550.08 332.03 C 547.87 327.15 555.63 325.41 551.79 321.03 C 548.35 321.90 542.74 324.96 545.87 318.94 C 553.88 320.03 550.37 307.41 547.30 303.02 C 551.69 295.30 545.94 288.44 542.80 282.03 M 555.16 345.07 C 553.16 350.12 560.61 350.14 560.95 346.24 C 559.01 345.86 557.09 345.44 555.16 345.07 Z" />
<path fill="#89afb0" opacity="1.00" d=" M 727.86 346.31 C 728.34 346.26 729.29 346.16 729.76 346.11 C 740.09 357.87 751.02 368.92 759.16 382.08 C 757.47 384.41 755.70 386.68 754.07 389.05 C 756.03 390.77 757.94 388.59 759.82 387.83 C 757.02 391.19 760.40 396.06 756.70 398.69 C 754.77 401.65 754.26 405.64 750.78 407.36 C 754.78 406.74 754.54 411.38 756.48 413.57 C 759.96 416.35 753.61 415.70 755.45 419.61 C 751.43 422.62 753.93 428.53 757.97 430.16 C 760.99 432.48 756.84 434.58 754.48 433.04 C 756.03 435.70 750.84 439.24 755.04 439.99 C 756.81 439.52 758.40 438.56 760.13 437.94 C 760.26 440.52 755.69 446.03 760.66 445.55 C 763.55 444.76 765.98 449.29 762.88 450.88 C 758.30 449.38 754.80 445.89 750.94 443.16 C 749.50 445.78 746.14 447.76 745.99 450.96 C 747.62 455.31 757.20 450.97 757.16 455.81 C 745.55 455.37 734.03 461.68 729.62 472.42 C 729.40 469.37 731.07 466.75 732.00 463.98 C 732.51 460.86 724.58 458.95 728.39 456.47 C 733.35 454.41 729.02 448.77 726.34 446.48 C 724.60 441.94 729.24 439.38 729.91 435.43 C 728.57 434.64 722.49 433.47 726.86 432.95 C 729.78 432.39 724.20 424.49 728.65 426.45 C 732.62 428.61 733.86 424.21 735.14 421.37 C 732.57 422.65 726.70 421.76 730.29 418.27 C 734.16 415.42 727.38 415.10 727.92 411.89 C 730.73 412.32 733.29 413.69 736.11 414.10 C 736.26 407.26 728.47 411.70 726.62 406.58 C 717.80 411.59 729.30 397.50 730.79 404.16 C 730.97 407.05 736.45 406.68 735.54 403.57 C 732.73 397.90 738.66 397.23 742.02 395.91 C 741.14 392.50 737.96 391.05 735.02 389.80 C 736.45 387.22 742.87 384.11 737.85 382.10 C 734.27 378.83 733.60 386.16 730.11 386.28 C 730.76 382.43 734.02 378.48 731.21 374.88 C 732.00 370.18 737.03 379.02 738.82 374.73 C 740.47 369.67 729.85 369.95 734.84 363.75 C 737.98 359.34 731.73 358.97 730.46 355.46 C 724.39 357.50 727.92 350.13 727.86 346.31 Z" />
</g>
<g id="#9cbfc0ff">
<path fill="#9cbfc0" opacity="1.00" d=" M 567.01 483.01 C 567.61 477.89 567.73 472.55 569.77 467.73 C 569.80 472.94 568.46 478.04 567.01 483.01 Z" />
</g>
<g id="#99bcbeff">
</g>
<g id="#9dc4c4ff">
</g>
<g id="#96b9bbff">
</g>
<g id="#9bbdbfff">
</g>
<g id="#94b8baff">
</g>
<g id="#9ec4c5ff">
<path fill="#9ec4c5" opacity="1.00" d=" M 163.98 304.06 C 164.86 300.10 167.76 299.65 171.16 301.14 C 169.33 303.01 166.40 303.28 163.98 304.06 Z" />
<path fill="#9ec4c5" opacity="1.00" d=" M 522.35 391.80 C 525.18 395.08 527.59 398.72 528.40 403.06 C 531.24 401.95 527.40 396.58 531.47 397.40 C 542.54 397.14 526.98 404.52 530.62 409.38 C 533.78 413.63 533.57 419.92 528.90 422.81 C 527.29 428.85 527.86 436.82 532.45 441.65 C 542.42 440.98 533.57 444.67 531.25 446.32 C 529.19 450.85 531.52 455.61 532.91 459.94 C 532.37 463.72 529.25 465.36 525.89 466.15 C 529.73 469.91 527.82 474.42 526.05 478.78 C 532.93 479.94 530.47 484.99 527.24 488.85 C 528.89 491.45 534.55 491.71 532.15 496.18 C 529.37 499.57 533.46 499.90 536.09 499.15 C 535.86 503.12 530.84 503.99 528.85 507.08 C 532.52 511.47 540.64 516.31 536.82 522.72 C 531.61 520.31 531.30 525.19 529.86 528.97 C 525.66 527.48 522.76 529.13 521.03 533.07 C 520.75 533.30 520.20 533.76 519.93 533.99 C 518.88 529.22 524.66 519.66 516.29 521.08 C 518.95 517.47 514.71 510.58 521.04 515.11 C 523.43 509.33 511.32 512.39 514.83 507.91 C 518.26 506.35 518.23 501.81 521.65 500.45 C 521.54 498.07 520.96 495.63 522.45 493.53 C 524.36 490.15 520.38 487.60 519.01 484.89 C 519.40 482.40 520.66 480.17 521.44 477.80 C 517.57 471.21 515.49 460.81 519.12 453.09 C 520.50 450.38 518.19 447.08 520.71 444.77 C 523.29 441.90 524.36 437.09 519.33 436.50 C 519.28 430.96 519.87 425.42 521.77 420.18 C 516.25 418.59 519.04 411.53 515.12 408.01 C 517.77 406.86 521.94 406.72 522.21 403.02 C 516.87 400.49 514.47 404.68 511.29 407.42 C 513.80 401.73 517.72 396.08 522.35 391.80 M 528.23 412.17 C 527.05 413.63 526.01 415.22 525.11 416.88 C 527.75 420.63 532.81 411.00 528.23 412.17 M 529.26 515.16 C 525.96 516.97 532.35 521.12 533.83 517.81 C 537.22 515.78 530.70 512.94 529.26 515.16 Z" />
</g>
<g id="#9cc2c3ff">
<path fill="#9cc2c3" opacity="1.00" d=" M 678.18 299.97 C 680.19 302.11 683.29 303.53 684.74 306.10 C 685.00 309.98 691.14 310.34 690.05 314.83 C 688.62 316.22 683.32 320.25 688.17 319.70 C 690.41 320.75 692.55 322.36 694.99 323.22 C 695.99 329.11 685.25 321.41 690.38 329.86 C 691.26 334.72 687.70 339.73 690.65 344.26 C 692.26 348.55 687.69 342.18 685.97 345.05 C 687.19 348.88 695.65 348.72 691.21 354.08 C 696.31 357.88 690.64 360.28 690.24 364.82 C 693.73 366.25 697.98 369.35 696.66 373.67 C 694.71 379.11 696.78 385.04 694.42 390.38 C 692.59 394.94 698.69 397.56 699.17 401.81 C 696.41 401.64 693.61 401.20 690.91 401.06 C 690.91 403.24 691.82 405.30 693.18 406.99 C 696.01 406.32 699.19 401.58 701.90 405.27 C 703.77 409.99 698.80 410.97 696.50 413.50 C 695.05 417.82 693.23 422.63 695.67 426.91 C 693.42 431.15 687.72 426.05 685.18 429.32 C 681.40 439.61 688.12 428.79 690.08 433.57 C 686.13 433.39 687.68 437.39 686.51 439.84 C 688.35 440.68 690.31 441.27 692.15 442.16 C 690.52 444.57 683.39 444.18 686.69 448.22 C 690.20 447.92 699.46 453.33 698.27 445.98 C 703.69 447.37 697.72 452.66 696.38 455.45 C 694.07 458.99 691.60 452.94 689.01 456.04 C 690.37 459.78 694.08 462.30 694.97 466.07 C 697.70 466.87 702.45 471.30 697.99 472.94 C 693.04 474.30 693.44 483.09 698.73 483.49 C 697.70 487.16 690.59 488.08 689.94 493.02 C 685.93 499.66 681.43 506.67 675.93 512.09 C 675.50 508.94 678.51 504.83 675.45 502.56 C 670.19 498.22 686.29 505.36 682.14 500.78 C 679.01 498.75 679.33 489.51 674.78 493.90 C 674.84 489.69 679.28 485.78 676.69 481.65 C 675.47 478.41 682.16 475.67 678.76 473.13 C 676.97 472.71 675.53 474.19 673.97 474.77 C 672.10 472.10 674.48 468.47 676.14 466.17 C 678.02 459.71 668.96 458.20 669.12 452.34 C 671.41 451.12 676.49 451.59 676.06 448.00 C 676.56 445.09 670.80 443.92 673.20 441.23 C 676.26 437.80 675.90 430.40 670.17 430.89 C 671.04 434.07 671.80 438.23 667.19 438.01 C 662.68 432.63 671.23 428.12 675.72 427.88 C 675.19 425.64 675.52 423.71 677.76 422.66 C 677.05 420.20 668.46 416.79 674.16 415.24 C 680.78 413.37 678.33 405.78 682.58 401.82 C 682.08 399.40 674.38 395.72 678.94 392.90 C 682.74 389.85 673.44 387.23 676.61 383.80 C 677.65 382.50 681.91 385.51 680.28 382.68 C 678.22 377.10 681.45 368.23 672.98 367.82 C 675.01 363.83 674.61 360.95 672.01 357.43 C 676.87 357.33 673.66 351.61 675.49 348.63 C 680.21 342.33 662.73 337.41 671.56 334.18 C 671.50 339.64 680.58 341.11 680.73 335.54 C 677.82 334.60 676.89 331.51 675.88 328.95 C 677.47 329.53 678.98 330.32 680.60 330.87 C 683.59 325.31 681.81 319.21 682.75 313.24 C 676.88 311.55 678.90 304.63 678.18 299.97 Z" />
</g>
<g id="#9abdbfff">
</g>
<g id="#94b9baff">
</g>
<g id="#99bdbeff">
</g>
<g id="#7ea3a4ff">
</g>
<g id="#7ca2a3ff">
<path fill="#7ca2a3" opacity="1.00" d=" M 573.62 318.25 C 578.31 319.01 577.15 325.83 580.17 328.80 C 585.84 347.30 581.86 367.37 579.23 386.13 C 577.41 393.90 578.33 402.90 573.84 409.82 C 572.22 410.64 570.63 411.53 568.90 412.11 C 569.87 407.32 574.90 403.49 570.55 398.53 C 565.59 391.18 575.40 393.54 576.83 390.22 C 572.74 387.78 570.12 384.33 571.91 378.99 C 567.53 369.59 577.47 378.32 577.13 372.14 C 574.62 371.32 566.05 373.87 569.92 369.87 C 573.37 367.46 574.45 358.00 568.81 359.58 C 569.25 356.67 572.78 352.92 569.05 350.90 C 565.78 348.49 573.21 348.02 571.68 345.29 C 570.87 341.48 565.49 337.49 567.66 333.91 C 576.27 334.12 574.25 323.85 573.62 318.25 Z" />
</g>
<g id="#7b9fa0ff">
<path fill="#7b9fa0" opacity="1.00" d=" M 625.03 318.00 C 627.62 324.95 625.56 332.96 625.18 340.19 C 625.08 339.61 624.90 338.44 624.81 337.86 C 625.09 331.24 625.04 324.61 625.03 318.00 Z" />
</g>
<g id="#8bb1b3ff">
<path fill="#8bb1b3" opacity="1.00" d=" M 119.83 324.00 C 118.00 328.76 112.35 319.85 116.98 319.10 C 117.00 321.49 116.26 324.96 119.83 324.00 Z" />
</g>
<g id="#9fc3c5ff">
</g>
<g id="#93b6b7ff">
</g>
<g id="#d2fbfcff">
</g>
<g id="#a4c7c8ff">
</g>
<g id="#a3c6c7ff">
</g>
<g id="#9dbfc1ff">
</g>
<g id="#86acadff">
<path fill="#86acad" opacity="1.00" d=" M 555.16 345.07 C 557.09 345.44 559.01 345.86 560.95 346.24 C 560.61 350.14 553.16 350.12 555.16 345.07 Z" />
</g>
<g id="#9cc0c2ff">
</g>
<g id="#93b9b9ff">
</g>
<g id="#9dc2c3ff">
</g>
<g id="#8fb6b7ff">
<path fill="#8fb6b7" opacity="1.00" d=" M 534.97 375.05 C 537.75 370.56 541.40 366.44 545.04 362.69 C 548.46 363.37 552.12 364.59 550.57 369.54 C 550.07 374.22 556.07 378.36 551.17 381.87 C 552.95 383.87 553.39 385.35 550.08 385.37 C 550.11 390.41 556.84 394.38 552.81 399.84 C 548.11 404.57 552.98 410.67 550.32 415.56 C 556.47 418.61 547.25 421.19 548.35 425.68 C 548.26 431.44 555.16 432.33 555.82 437.95 C 552.83 437.06 548.30 435.83 550.20 440.58 C 555.37 440.60 549.54 447.77 555.95 446.29 C 558.30 452.60 546.68 453.88 550.20 459.75 C 553.70 460.40 560.27 458.65 559.03 464.13 C 556.35 463.61 555.26 460.11 552.17 460.82 C 553.15 463.21 554.73 465.90 552.41 468.06 C 556.06 475.39 550.84 481.35 554.08 488.96 C 552.18 504.36 554.52 521.94 546.87 535.85 C 541.96 532.82 535.06 532.04 530.81 529.74 C 533.77 528.55 536.82 529.88 539.83 530.02 C 541.61 524.26 540.97 517.59 544.03 512.05 C 537.73 506.76 541.15 498.01 542.16 491.04 C 543.91 487.04 538.58 483.93 540.57 479.73 C 544.09 475.96 542.30 469.84 545.98 465.82 C 542.93 465.79 540.68 467.90 538.74 469.97 C 541.42 464.11 541.07 457.24 545.42 452.37 C 549.56 446.10 543.87 445.35 542.03 442.13 C 546.62 439.81 545.32 434.09 540.30 433.59 C 542.72 428.96 543.72 423.56 541.58 418.55 C 535.61 411.69 546.35 403.97 540.55 397.49 C 543.73 392.52 536.28 387.52 540.78 383.76 C 545.60 380.43 540.13 369.37 534.97 375.05 Z" />
</g>
<g id="#a1c4c6ff">
</g>
<g id="#98bdbeff">
</g>
<g id="#97bdbfff">
<path fill="#97bdbf" opacity="1.00" d=" M 534.97 375.05 C 540.13 369.37 545.60 380.43 540.78 383.76 C 536.28 387.52 543.73 392.52 540.55 397.49 C 546.35 403.97 535.61 411.69 541.58 418.55 C 543.72 423.56 542.72 428.96 540.30 433.59 C 545.32 434.09 546.62 439.81 542.03 442.13 C 543.87 445.35 549.56 446.10 545.42 452.37 C 541.07 457.24 541.42 464.11 538.74 469.97 C 540.68 467.90 542.93 465.79 545.98 465.82 C 542.30 469.84 544.09 475.96 540.57 479.73 C 538.58 483.93 543.91 487.04 542.16 491.04 C 541.15 498.01 537.73 506.76 544.03 512.05 C 540.97 517.59 541.61 524.26 539.83 530.02 C 536.82 529.88 533.77 528.55 530.81 529.74 C 527.41 530.44 524.31 532.02 521.03 533.07 C 522.76 529.13 525.66 527.48 529.86 528.97 C 531.30 525.19 531.61 520.31 536.82 522.72 C 540.64 516.31 532.52 511.47 528.85 507.08 C 530.84 503.99 535.86 503.12 536.09 499.15 C 533.46 499.90 529.37 499.57 532.15 496.18 C 534.55 491.71 528.89 491.45 527.24 488.85 C 530.47 484.99 532.93 479.94 526.05 478.78 C 527.82 474.42 529.73 469.91 525.89 466.15 C 529.25 465.36 532.37 463.72 532.91 459.94 C 531.52 455.61 529.19 450.85 531.25 446.32 C 533.57 444.67 542.42 440.98 532.45 441.65 C 527.86 436.82 527.29 428.85 528.90 422.81 C 533.57 419.92 533.78 413.63 530.62 409.38 C 526.98 404.52 542.54 397.14 531.47 397.40 C 527.40 396.58 531.24 401.95 528.40 403.06 C 527.59 398.72 525.18 395.08 522.35 391.80 C 524.78 385.96 530.30 380.04 534.97 375.05 Z" />
</g>
<g id="#a0c3c4ff">
</g>
<g id="#96babcff">
</g>
<g id="#81a7a8ff">
<path fill="#81a7a8" opacity="1.00" d=" M 759.16 382.08 C 765.84 386.92 770.94 397.42 774.87 405.61 C 770.03 407.96 776.70 407.96 778.65 409.26 C 779.86 415.22 783.99 420.08 786.07 425.76 C 778.32 427.42 788.46 426.76 788.91 431.17 C 790.25 434.57 794.47 440.38 791.23 442.47 C 788.90 451.60 792.32 445.23 794.69 445.12 C 795.54 448.10 796.86 450.92 797.87 453.85 C 784.40 457.16 770.69 454.67 757.16 455.81 C 757.20 450.97 747.62 455.31 745.99 450.96 C 746.14 447.76 749.50 445.78 750.94 443.16 C 754.80 445.89 758.30 449.38 762.88 450.88 C 765.98 449.29 763.55 444.76 760.66 445.55 C 755.69 446.03 760.26 440.52 760.13 437.94 C 758.40 438.56 756.81 439.52 755.04 439.99 C 750.84 439.24 756.03 435.70 754.48 433.04 C 756.84 434.58 760.99 432.48 757.97 430.16 C 753.93 428.53 751.43 422.62 755.45 419.61 C 753.61 415.70 759.96 416.35 756.48 413.57 C 754.54 411.38 754.78 406.74 750.78 407.36 C 754.26 405.64 754.77 401.65 756.70 398.69 C 760.40 396.06 757.02 391.19 759.82 387.83 C 757.94 388.59 756.03 390.77 754.07 389.05 C 755.70 386.68 757.47 384.41 759.16 382.08 Z" />
</g>
<g id="#9bc0c0ff">
</g>
<g id="#98bbbcff">
</g>
<g id="#a8caccff">
</g>
<g id="#90b3b5ff">
</g>
<g id="#99c0c1ff">
<path fill="#99c0c1" opacity="1.00" d=" M 528.23 412.17 C 532.81 411.00 527.75 420.63 525.11 416.88 C 526.01 415.22 527.05 413.63 528.23 412.17 Z" />
</g>
<g id="#afd5d6ff">
<path fill="#afd5d6" opacity="1.00" d=" M 507.49 412.89 C 508.42 413.48 510.56 413.79 509.17 415.18 C 506.48 418.22 509.47 421.32 510.81 424.15 C 511.09 428.38 509.38 432.55 509.35 436.65 C 514.17 441.42 509.22 448.51 511.73 454.33 C 513.62 457.85 507.19 459.95 509.99 462.98 C 513.76 466.42 503.79 472.05 510.98 473.13 C 514.64 476.20 504.70 474.57 506.50 477.43 C 511.96 480.25 515.86 488.69 508.30 491.55 C 511.92 497.07 505.46 504.21 511.02 508.20 C 511.61 511.36 504.55 513.91 508.00 516.85 C 516.27 518.03 502.50 527.18 510.80 528.48 C 511.20 532.50 506.39 535.17 510.52 539.16 C 506.61 542.52 499.57 544.03 493.87 541.11 C 489.91 539.55 486.23 536.53 483.97 532.89 C 487.25 534.12 490.20 536.00 493.09 537.93 C 495.80 537.33 494.13 535.55 492.41 534.81 C 495.17 525.86 494.10 516.37 494.88 507.17 C 488.12 506.37 496.18 501.03 494.40 497.10 C 493.58 493.73 499.27 483.48 491.75 485.43 C 490.50 485.19 489.12 480.23 490.97 480.14 C 496.30 481.02 494.20 470.35 489.05 471.65 C 488.06 466.73 499.00 466.79 493.87 461.07 C 490.20 457.61 491.23 454.47 494.52 451.66 C 494.11 445.02 495.64 438.59 496.02 432.00 C 494.69 433.05 493.42 434.17 492.03 435.14 C 496.53 427.29 501.89 419.99 507.49 412.89 Z" />
</g>
<g id="#96b8baff">
</g>
<g id="#a8c9cbff">
</g>
<g id="#93b7b8ff">
</g>
<g id="#bbe1e2ff">
<path fill="#bbe1e2" opacity="1.00" d=" M 492.03 435.14 C 493.42 434.17 494.69 433.05 496.02 432.00 C 495.64 438.59 494.11 445.02 494.52 451.66 C 491.23 454.47 490.20 457.61 493.87 461.07 C 499.00 466.79 488.06 466.73 489.05 471.65 C 494.20 470.35 496.30 481.02 490.97 480.14 C 489.12 480.23 490.50 485.19 491.75 485.43 C 499.27 483.48 493.58 493.73 494.40 497.10 C 496.18 501.03 488.12 506.37 494.88 507.17 C 494.10 516.37 495.17 525.86 492.41 534.81 C 494.13 535.55 495.80 537.33 493.09 537.93 C 490.20 536.00 487.25 534.12 483.97 532.89 C 482.88 532.48 482.13 531.54 481.26 530.83 C 478.75 527.91 474.37 528.11 471.04 526.88 C 473.35 522.28 475.64 517.22 473.92 512.01 C 475.56 513.15 477.11 514.45 478.96 515.28 C 481.08 508.50 473.63 502.35 477.76 496.14 C 474.09 492.47 479.96 488.51 476.17 484.94 C 479.06 482.27 479.09 479.46 477.17 476.22 C 481.62 472.59 474.91 465.64 470.89 466.70 C 478.16 456.34 484.44 445.19 492.03 435.14 Z" />
</g>
<g id="#a4c7c9ff">
</g>
<g id="#d4fcfdff">
<path fill="#d4fcfd" opacity="1.00" d=" M 357.86 436.07 C 351.87 433.94 355.74 441.10 357.86 436.07 Z" />
</g>
<g id="#98bdbfff">
</g>
<g id="#a1c4c5ff">
</g>
<g id="#97babbff">
</g>
<g id="#a4c6c8ff">
<path fill="#a4c6c8" opacity="1.00" d=" M 740.00 483.12 C 739.89 479.55 740.70 475.76 743.19 473.07 C 742.71 476.58 741.49 479.93 740.00 483.12 Z" />
</g>
<g id="#91b5b7ff">
<path fill="#91b5b7" opacity="1.00" d=" M 448.18 498.27 C 447.99 495.58 450.45 493.66 452.23 492.02 C 452.09 494.73 450.07 496.57 448.18 498.27 Z" />
</g>
<g id="#94b8b9ff">
</g>
<g id="#9fc2c4ff">
</g>
<g id="#91b6b8ff">
</g>
<g id="#9fc3c4ff">
</g>
<g id="#95babcff">
<path fill="#95babc" opacity="1.00" d=" M 441.93 530.92 C 448.40 533.44 454.87 535.40 462.07 534.04 C 456.84 538.34 446.38 535.73 441.93 530.92 Z" />
</g>
<g id="#96babbff">
</g>
<g id="#99bcbdff">
</g>
</svg>
