<?xml version="1.0" encoding="UTF-8" ?>
<!DOCTYPE svg PUBLIC "-//W3C//DTD SVG 1.1//EN" "http://www.w3.org/Graphics/SVG/1.1/DTD/svg11.dtd">
<svg width="591pt" height="301pt" viewBox="0 0 591 301" version="1.1" xmlns="http://www.w3.org/2000/svg">
<g id="#fdfeebff">
</g>
<g id="#5b6321ff">
<path fill="#5b6321" opacity="1.00" d=" M 407.75 34.86 C 414.46 32.20 421.87 31.83 428.98 32.64 C 431.63 32.95 433.62 35.17 434.26 37.66 C 436.19 44.73 435.60 52.38 433.19 59.26 C 430.97 65.38 429.56 71.81 426.59 77.64 C 423.18 84.36 420.62 91.68 415.57 97.41 C 415.32 91.13 415.63 84.83 415.16 78.56 C 410.33 81.13 405.33 83.54 401.02 86.95 C 395.95 92.23 393.73 99.39 389.93 105.50 C 389.76 101.25 390.20 97.02 390.53 92.79 C 384.79 95.30 378.66 96.74 372.82 98.94 C 369.45 103.20 369.17 109.79 363.81 112.42 C 363.40 108.50 362.87 104.59 362.16 100.71 C 355.06 101.08 347.97 101.44 340.87 101.59 C 339.40 108.14 336.64 114.32 332.77 119.79 C 332.24 119.80 331.17 119.81 330.64 119.81 C 330.32 114.87 330.63 109.43 327.88 105.09 C 326.25 102.56 323.25 104.32 321.02 104.81 C 316.14 106.62 310.83 107.64 306.37 110.40 C 302.74 116.25 302.00 124.15 295.83 128.29 C 295.42 123.53 294.80 118.78 293.74 114.12 C 286.09 115.61 278.39 117.02 270.85 118.97 C 267.42 123.13 266.83 129.38 261.87 132.36 C 261.24 128.00 260.61 123.64 259.77 119.32 C 254.64 117.38 249.15 117.00 243.73 117.29 C 242.99 124.89 240.22 132.42 234.75 137.90 C 233.05 132.79 234.00 126.67 230.64 122.22 C 228.43 121.96 226.05 123.06 225.45 125.34 C 223.18 131.50 221.64 138.50 216.15 142.73 C 215.50 138.72 214.83 134.70 213.61 130.82 C 207.92 132.62 203.15 136.36 197.71 138.72 C 188.91 142.62 180.40 147.17 172.16 152.15 C 169.38 154.03 165.89 156.33 165.64 160.00 C 167.31 166.41 173.47 170.96 179.79 172.24 C 186.60 173.70 193.96 174.12 199.87 178.22 C 203.04 180.85 205.28 184.38 208.23 187.24 C 208.47 183.64 208.64 180.03 209.06 176.45 C 212.36 179.17 212.88 183.50 213.62 187.44 C 213.83 187.17 214.03 186.91 214.24 186.65 C 214.79 189.05 215.30 193.78 218.89 192.17 C 219.68 187.71 219.42 183.15 219.74 178.65 C 223.91 182.83 224.46 188.94 225.84 194.38 C 227.73 194.89 229.63 195.41 231.52 195.92 C 231.59 191.46 231.69 186.98 232.45 182.56 C 236.26 186.44 236.21 192.13 238.23 196.88 C 238.83 198.34 240.74 198.44 242.09 198.65 C 249.02 199.60 255.55 194.94 262.47 196.84 C 270.57 199.18 277.11 205.09 285.33 207.22 C 286.18 202.36 286.44 197.44 286.80 192.53 C 290.78 196.96 290.78 203.31 293.71 208.29 C 296.25 209.62 299.23 209.29 302.00 209.39 C 309.04 209.24 316.08 209.72 323.12 209.36 C 323.20 205.10 323.27 200.83 323.92 196.61 C 326.46 200.87 328.23 205.51 330.03 210.11 C 335.08 210.51 340.14 210.72 345.21 210.88 C 345.39 207.14 345.52 203.41 345.69 199.67 C 346.05 199.60 346.78 199.45 347.15 199.38 C 349.10 204.47 350.16 210.13 353.51 214.52 C 365.17 224.68 381.46 225.71 396.19 226.41 C 398.18 218.94 396.93 211.16 398.40 203.64 C 402.82 209.01 401.98 216.49 403.24 222.95 C 403.48 227.47 406.03 231.42 406.62 235.83 C 405.94 238.93 402.93 240.76 400.65 242.69 C 392.40 248.55 383.30 254.08 373.03 255.18 C 357.68 256.25 342.36 254.30 327.00 254.51 C 318.76 254.71 310.42 253.85 302.27 255.47 C 291.32 257.40 280.12 259.16 269.00 257.82 C 256.74 257.48 244.57 255.83 232.32 255.30 C 220.03 253.79 207.64 254.94 195.31 254.35 C 184.70 253.37 174.00 252.94 163.53 250.79 C 148.40 248.71 133.58 244.99 118.66 241.79 C 97.36 238.05 75.47 235.32 53.92 238.67 C 47.68 239.29 41.64 240.99 35.54 242.37 C 33.64 242.67 31.60 242.99 29.75 242.29 C 25.48 237.97 23.52 231.90 22.80 225.99 C 20.78 206.90 24.42 187.88 27.05 169.04 C 31.12 145.15 35.64 121.26 37.11 97.04 C 37.40 89.13 36.11 81.27 34.37 73.58 C 33.27 69.00 37.90 65.26 42.04 64.71 C 54.60 63.18 66.66 68.16 78.98 69.56 C 87.32 70.36 95.90 68.49 103.02 64.03 C 114.08 57.12 125.02 49.69 137.40 45.31 C 151.40 40.15 166.74 36.59 181.62 39.62 C 190.41 41.31 197.68 48.20 206.93 47.80 C 213.76 48.09 220.70 45.44 227.40 47.66 C 232.19 49.24 236.30 52.37 241.14 53.81 C 253.47 57.51 266.07 61.13 279.04 61.19 C 287.68 60.60 295.87 57.47 304.20 55.31 C 316.06 51.59 328.66 50.91 341.00 51.82 C 347.63 52.43 354.37 52.86 360.97 51.77 C 368.38 50.57 374.94 46.71 382.00 44.39 C 390.69 41.51 399.20 38.13 407.75 34.86 M 193.30 58.95 C 188.79 59.75 183.83 61.11 181.12 65.14 C 178.20 69.49 174.82 73.85 173.64 79.06 C 173.37 81.08 173.56 84.61 176.27 84.60 C 183.37 86.25 188.79 80.53 194.60 77.59 C 198.57 75.19 203.69 75.25 207.33 72.29 C 209.99 68.71 207.74 63.89 205.01 61.06 C 202.12 57.66 197.21 58.39 193.30 58.95 M 51.11 66.27 C 49.57 69.24 54.46 66.40 51.11 66.27 Z" />
<path fill="#5b6321" opacity="1.00" d=" M 183.42 71.19 C 188.51 68.13 194.43 65.98 200.44 67.17 C 195.97 71.75 189.48 73.25 183.33 73.79 C 183.35 73.14 183.39 71.84 183.42 71.19 Z" />
<path fill="#5b6321" opacity="1.00" d=" M 477.49 125.28 C 482.64 122.70 488.13 120.40 493.99 120.29 C 506.93 119.87 519.57 123.72 531.38 128.70 C 541.75 132.79 551.54 138.20 560.98 144.10 C 563.92 145.80 566.02 148.54 567.23 151.69 C 560.09 151.63 553.17 149.30 546.01 149.55 C 539.49 149.69 533.05 151.03 526.82 152.89 C 516.10 156.35 506.62 162.58 496.99 168.27 C 498.51 172.97 501.26 177.22 502.45 182.02 C 502.13 186.00 500.56 189.73 499.29 193.47 C 495.15 204.37 491.32 215.38 487.49 226.38 C 491.20 228.82 495.44 230.21 499.71 231.32 C 499.62 231.89 499.43 233.03 499.34 233.60 C 495.31 233.51 491.34 232.68 487.33 232.61 C 484.47 232.47 482.63 235.05 481.26 237.17 C 478.71 241.41 476.64 245.96 473.41 249.76 C 472.48 244.29 476.08 239.67 477.89 234.80 C 473.39 236.26 468.91 237.78 464.33 238.96 C 464.39 238.35 464.52 237.12 464.59 236.50 C 468.27 234.58 472.00 232.74 475.70 230.85 C 470.56 230.49 465.31 230.57 460.39 228.83 C 466.80 226.00 474.06 227.27 480.87 226.54 C 483.94 215.74 487.59 205.10 490.38 194.22 C 491.40 190.15 493.17 186.23 493.49 182.02 C 492.28 176.95 489.02 172.72 486.13 168.50 C 484.57 168.53 483.02 168.57 481.48 168.63 C 483.05 176.18 487.12 182.79 490.03 189.83 C 483.14 195.37 475.24 199.45 467.33 203.30 C 461.14 206.35 453.11 207.56 449.83 214.43 C 454.91 216.60 459.77 212.85 464.74 212.01 C 464.69 212.64 464.61 213.91 464.57 214.55 C 459.37 216.98 453.88 218.91 449.10 222.12 C 443.13 226.38 443.42 235.27 437.23 239.35 C 437.39 233.98 439.91 229.17 441.57 224.18 C 437.18 226.37 432.66 228.64 427.64 228.77 C 430.06 225.74 433.33 223.64 436.61 221.69 C 432.25 220.33 426.42 221.34 423.56 217.09 C 430.01 216.02 436.58 216.52 443.04 217.30 C 445.78 212.23 448.63 206.90 453.56 203.60 C 460.56 198.78 468.36 195.25 475.36 190.39 C 477.32 188.90 480.00 187.66 480.72 185.10 C 478.04 178.99 474.08 173.50 471.50 167.32 C 464.68 166.84 457.66 168.34 451.04 166.18 C 447.72 165.24 444.40 164.22 440.95 163.87 C 436.41 163.40 431.84 164.86 427.33 163.90 C 423.48 163.22 419.89 161.37 415.96 161.19 C 412.58 161.09 410.03 163.68 407.45 165.49 C 399.27 171.60 392.43 179.29 386.56 187.60 C 383.48 191.80 380.52 196.21 376.30 199.37 C 383.43 185.39 394.32 173.79 402.32 160.33 C 404.84 155.86 406.64 150.94 409.99 146.98 C 413.23 143.15 416.99 139.15 422.14 138.14 C 430.65 136.22 439.40 137.80 448.01 137.73 C 451.84 137.74 455.39 136.12 459.07 135.31 C 459.53 135.21 460.44 135.02 460.90 134.92 C 456.93 138.99 452.55 143.03 447.04 144.81 C 442.66 146.09 438.08 146.40 433.58 147.04 C 441.93 150.19 449.77 154.48 457.95 158.01 C 457.16 154.74 456.05 151.50 455.91 148.11 C 455.86 145.42 457.63 143.18 459.17 141.13 C 462.02 137.65 465.01 134.27 468.07 130.97 C 470.76 128.42 474.23 126.95 477.49 125.28 M 415.88 149.30 C 418.17 149.97 420.50 150.52 422.86 150.93 C 422.82 148.07 421.84 145.41 420.04 143.20 C 418.51 145.13 417.13 147.18 415.88 149.30 M 460.15 143.92 C 465.05 150.32 471.38 155.79 478.69 159.23 C 488.15 163.03 497.85 158.00 506.53 154.46 C 523.25 149.01 541.04 148.60 558.35 146.48 C 555.94 145.83 553.49 145.27 551.00 145.22 C 538.15 144.75 525.52 147.59 513.00 150.11 C 503.71 151.83 495.41 157.04 485.95 158.06 C 482.53 158.55 479.06 157.61 476.11 155.90 C 470.32 152.56 465.34 148.07 460.15 143.92 Z" />
</g>
<g id="#9c9d78ff">
<path fill="#9c9d78" opacity="1.00" d=" M 51.11 66.27 C 54.46 66.40 49.57 69.24 51.11 66.27 Z" />
<path fill="#9c9d78" opacity="1.00" d=" M 459.07 135.31 C 461.70 133.18 464.85 131.89 468.07 130.97 C 465.01 134.27 462.02 137.65 459.17 141.13 C 457.63 143.18 455.86 145.42 455.91 148.11 C 456.05 151.50 457.16 154.74 457.95 158.01 C 449.77 154.48 441.93 150.19 433.58 147.04 C 438.08 146.40 442.66 146.09 447.04 144.81 C 452.55 143.03 456.93 138.99 460.90 134.92 C 460.44 135.02 459.53 135.21 459.07 135.31 Z" />
</g>
</svg>
