<?xml version="1.0" encoding="UTF-8" ?>
<!DOCTYPE svg PUBLIC "-//W3C//DTD SVG 1.1//EN" "http://www.w3.org/Graphics/SVG/1.1/DTD/svg11.dtd">
<svg width="606pt" height="398pt" viewBox="0 0 606 398" version="1.1" xmlns="http://www.w3.org/2000/svg">
<g id="#7a7569ff">
<path fill="#7a7569" opacity="1.00" d=" M 0.00 0.00 L 0.26 0.00 C 0.19 0.06 0.06 0.19 0.00 0.26 L 0.00 0.00 Z" />
<path fill="#7a7569" opacity="1.00" d=" M 533.96 15.97 C 538.84 14.66 543.91 14.53 548.92 14.93 C 547.61 16.89 546.28 18.83 544.96 20.78 C 555.65 21.56 566.37 21.01 577.07 21.22 C 575.37 22.63 573.66 24.04 571.96 25.45 C 576.75 27.35 581.60 29.15 586.28 31.35 C 580.20 32.44 574.06 33.36 568.15 35.22 C 561.87 37.19 555.24 38.23 549.37 41.33 C 542.37 45.02 535.65 49.41 530.19 55.20 C 523.59 61.99 515.80 67.44 508.80 73.80 C 498.42 82.68 487.09 91.68 481.72 104.65 C 479.59 111.18 478.77 119.21 482.87 125.15 C 490.37 135.70 502.92 140.26 513.55 146.80 C 507.62 149.86 501.36 152.75 496.86 157.84 C 492.05 163.27 488.58 169.70 484.99 175.96 C 478.97 188.43 474.96 202.76 464.17 212.16 C 453.14 222.20 434.17 223.35 422.99 213.01 C 415.11 204.77 422.45 192.66 417.73 183.29 C 412.19 169.87 399.46 161.29 386.94 155.04 C 380.32 152.48 372.97 149.83 365.83 151.76 C 359.80 153.23 353.70 154.54 347.87 156.71 C 341.76 158.85 336.09 162.07 329.88 163.94 C 324.29 165.67 319.22 168.64 313.86 170.93 C 302.48 175.82 292.19 182.81 281.62 189.18 C 277.74 187.62 273.64 186.60 269.47 186.16 C 279.19 177.74 289.86 170.45 300.90 163.88 C 316.86 153.94 334.15 146.23 351.86 139.97 C 355.80 138.53 359.68 136.93 363.49 135.18 C 354.44 136.02 345.75 138.75 336.98 140.94 C 321.00 144.93 305.88 151.56 290.61 157.60 C 278.29 162.98 266.44 169.37 254.34 175.21 C 250.06 177.21 246.17 179.89 242.19 182.41 C 237.23 185.09 232.02 187.35 227.45 190.71 C 223.11 193.74 218.43 196.23 213.87 198.91 C 206.70 203.10 200.31 208.61 192.62 211.89 C 195.95 208.08 199.81 204.78 203.97 201.90 C 209.26 198.23 214.17 194.06 219.43 190.33 C 223.16 187.68 226.52 184.57 230.08 181.70 C 233.76 179.07 237.95 177.25 241.63 174.62 C 248.15 170.02 255.20 166.27 261.83 161.83 C 268.97 157.05 276.78 153.44 284.22 149.17 C 288.55 146.67 293.09 144.57 297.68 142.61 C 303.44 140.15 308.85 136.93 314.71 134.68 C 327.69 130.19 340.39 124.82 353.77 121.54 C 357.19 111.54 360.25 101.38 364.66 91.75 C 371.62 77.23 383.25 65.60 395.87 55.89 C 401.35 51.86 407.21 48.34 413.25 45.21 C 420.15 41.62 426.87 37.60 434.16 34.81 C 434.43 36.56 434.52 38.34 434.67 40.10 C 444.22 35.79 453.29 30.26 463.51 27.55 C 470.69 25.77 477.63 23.06 484.93 21.77 C 488.70 21.09 492.39 20.07 496.03 18.90 C 495.35 20.93 494.68 22.95 494.03 24.98 C 499.43 23.49 504.69 21.53 510.15 20.24 C 517.98 18.27 526.14 18.04 533.96 15.97 M 518.97 45.00 C 513.26 47.69 507.86 51.02 502.90 54.92 C 500.99 56.56 498.53 57.19 496.15 57.77 C 497.19 55.53 498.29 53.32 499.40 51.11 C 492.47 54.28 485.59 57.86 477.94 58.91 C 480.62 55.87 483.42 52.71 484.15 48.57 C 478.92 50.88 474.55 54.57 470.04 57.98 C 467.67 59.86 464.51 59.70 461.67 59.95 C 463.12 53.84 468.52 50.35 472.60 46.11 C 466.03 46.76 462.04 52.61 456.40 55.31 C 453.94 56.57 450.64 57.71 448.26 55.67 C 448.96 52.00 450.35 48.50 451.48 44.95 C 445.45 47.53 440.06 51.32 434.09 54.01 C 430.28 55.80 425.99 55.73 421.88 55.58 C 423.38 52.46 425.05 49.42 426.76 46.41 C 420.69 49.16 415.17 52.90 409.53 56.41 C 403.77 60.03 398.88 64.91 394.96 70.46 C 403.09 67.94 409.21 60.93 417.86 59.83 C 424.53 58.45 430.87 61.56 437.38 62.40 C 443.45 63.20 449.56 64.11 455.38 66.09 C 459.32 67.37 461.27 71.32 463.65 74.38 C 466.96 79.17 471.67 83.40 477.54 84.54 C 480.25 85.05 482.73 83.40 484.79 81.84 C 489.57 77.93 493.06 72.75 497.48 68.47 C 501.84 64.01 507.55 61.29 512.42 57.47 C 516.05 54.66 520.01 52.32 524.01 50.07 C 530.54 46.49 536.27 41.25 543.65 39.40 C 546.86 37.21 550.27 35.26 554.04 34.24 C 554.04 33.10 554.04 31.95 554.06 30.81 C 542.00 34.64 530.65 40.23 518.97 45.00 M 398.38 81.19 C 394.10 82.32 390.01 86.13 390.32 90.85 C 390.50 95.22 392.79 100.34 397.40 101.47 C 401.75 102.28 406.26 102.17 410.63 101.53 C 413.06 101.17 416.18 99.87 415.89 96.90 C 415.70 92.35 411.72 89.23 408.83 86.16 C 405.94 83.71 402.57 79.91 398.38 81.19 Z" />
<path fill="#7a7569" opacity="1.00" d=" M 257.11 196.10 C 261.04 197.04 265.07 197.35 269.10 197.41 C 255.24 205.55 242.94 216.01 229.98 225.43 C 230.85 223.29 231.74 221.09 233.51 219.51 C 241.50 211.83 248.65 203.30 257.11 196.10 Z" />
</g>
<g id="#fbfeeeff">
<path fill="#fbfeee" opacity="1.00" d=" M 0.26 0.00 L 606.00 0.00 L 606.00 398.00 L 0.00 398.00 L 0.00 0.26 C 0.06 0.19 0.19 0.06 0.26 0.00 M 533.96 15.97 C 526.14 18.04 517.98 18.27 510.15 20.24 C 504.69 21.53 499.43 23.49 494.03 24.98 C 494.68 22.95 495.35 20.93 496.03 18.90 C 492.39 20.07 488.70 21.09 484.93 21.77 C 477.63 23.06 470.69 25.77 463.51 27.55 C 453.29 30.26 444.22 35.79 434.67 40.10 C 434.52 38.34 434.43 36.56 434.16 34.81 C 426.87 37.60 420.15 41.62 413.25 45.21 C 407.21 48.34 401.35 51.86 395.87 55.89 C 383.25 65.60 371.62 77.23 364.66 91.75 C 360.25 101.38 357.19 111.54 353.77 121.54 C 340.39 124.82 327.69 130.19 314.71 134.68 C 308.85 136.93 303.44 140.15 297.68 142.61 C 293.09 144.57 288.55 146.67 284.22 149.17 C 276.78 153.44 268.97 157.05 261.83 161.83 C 255.20 166.27 248.15 170.02 241.63 174.62 C 237.95 177.25 233.76 179.07 230.08 181.70 C 219.75 178.37 208.68 177.59 198.68 173.18 C 185.22 167.29 172.56 159.75 160.15 151.93 C 152.44 146.34 143.88 141.85 137.14 135.01 C 138.48 141.01 138.91 147.16 139.98 153.20 C 140.33 156.35 143.71 157.45 146.03 158.92 C 153.21 162.60 159.69 167.50 166.96 171.02 C 175.57 175.12 183.92 179.81 192.95 182.96 C 201.54 186.21 210.64 187.74 219.43 190.33 C 214.17 194.06 209.26 198.23 203.97 201.90 C 199.81 204.78 195.95 208.08 192.62 211.89 C 200.31 208.61 206.70 203.10 213.87 198.91 C 218.43 196.23 223.11 193.74 227.45 190.71 C 237.10 193.75 247.40 193.32 257.11 196.10 C 248.65 203.30 241.50 211.83 233.51 219.51 C 231.74 221.09 230.85 223.29 229.98 225.43 C 242.94 216.01 255.24 205.55 269.10 197.41 C 276.18 197.45 283.01 199.47 289.87 200.98 C 302.16 203.60 314.54 205.86 326.71 209.00 C 332.48 210.44 338.35 211.66 344.33 211.64 C 337.63 207.80 330.13 205.79 322.89 203.27 C 313.32 200.18 304.03 196.24 294.27 193.76 C 289.89 192.70 285.75 190.95 281.62 189.18 C 292.19 182.81 302.48 175.82 313.86 170.93 C 319.22 168.64 324.29 165.67 329.88 163.94 C 336.09 162.07 341.76 158.85 347.87 156.71 C 353.70 154.54 359.80 153.23 365.83 151.76 C 372.97 149.83 380.32 152.48 386.94 155.04 C 399.46 161.29 412.19 169.87 417.73 183.29 C 422.45 192.66 415.11 204.77 422.99 213.01 C 434.17 223.35 453.14 222.20 464.17 212.16 C 474.96 202.76 478.97 188.43 484.99 175.96 C 488.58 169.70 492.05 163.27 496.86 157.84 C 501.36 152.75 507.62 149.86 513.55 146.80 C 502.92 140.26 490.37 135.70 482.87 125.15 C 478.77 119.21 479.59 111.18 481.72 104.65 C 487.09 91.68 498.42 82.68 508.80 73.80 C 515.80 67.44 523.59 61.99 530.19 55.20 C 535.65 49.41 542.37 45.02 549.37 41.33 C 555.24 38.23 561.87 37.19 568.15 35.22 C 574.06 33.36 580.20 32.44 586.28 31.35 C 581.60 29.15 576.75 27.35 571.96 25.45 C 573.66 24.04 575.37 22.63 577.07 21.22 C 566.37 21.01 555.65 21.56 544.96 20.78 C 546.28 18.83 547.61 16.89 548.92 14.93 C 543.91 14.53 538.84 14.66 533.96 15.97 M 152.88 225.53 C 145.91 226.25 138.92 227.23 132.33 229.72 C 135.07 232.69 138.15 235.31 141.33 237.79 C 143.95 239.84 146.51 242.99 145.73 246.55 C 144.74 249.34 142.24 251.23 139.99 252.99 C 126.38 262.46 110.52 267.68 95.39 274.11 C 88.52 277.06 81.00 278.87 73.53 277.40 C 72.57 274.12 73.35 268.90 69.24 267.69 C 66.20 266.65 60.82 266.28 60.86 270.72 C 63.46 272.40 66.48 273.29 69.07 274.98 C 69.80 276.27 70.22 277.69 70.74 279.07 C 63.26 280.22 55.59 280.22 48.13 278.88 C 38.60 277.30 28.44 276.86 19.25 280.26 C 12.67 282.94 10.64 290.31 8.62 296.43 C 10.63 296.34 13.16 297.50 14.74 295.82 C 18.62 291.98 20.80 286.43 25.69 283.64 C 30.44 281.44 35.87 282.27 40.94 282.23 C 47.31 282.74 54.26 282.34 59.80 286.06 C 48.46 290.61 36.63 295.32 28.04 304.38 C 30.09 305.15 32.27 306.94 34.52 305.84 C 39.88 303.92 43.77 299.50 48.62 296.68 C 54.15 293.45 60.13 290.46 66.67 290.33 C 63.56 293.81 59.82 296.63 55.85 299.06 C 55.85 300.95 55.86 302.85 55.89 304.75 C 61.54 303.78 64.52 298.81 68.17 295.01 C 70.49 292.41 74.17 292.33 77.38 291.99 C 78.34 294.48 79.14 297.08 80.59 299.35 C 81.85 299.49 83.12 299.52 84.39 299.57 C 84.86 296.20 84.76 292.55 86.49 289.52 C 88.74 287.41 91.95 286.90 94.70 285.69 C 99.54 283.99 102.84 279.65 107.64 277.85 C 113.51 275.67 119.84 274.96 126.08 275.07 C 130.26 275.09 135.20 275.37 137.99 278.96 C 142.00 284.34 141.01 291.54 143.48 297.54 C 146.41 304.56 153.02 308.94 159.18 312.90 C 166.89 318.10 175.46 322.04 184.45 324.42 C 190.51 326.02 196.81 325.26 202.99 325.36 C 209.29 325.48 215.60 325.15 221.90 325.44 C 225.13 325.56 228.80 326.49 230.59 329.43 C 231.63 333.51 229.35 337.66 230.07 341.71 C 232.22 345.76 235.93 348.68 239.20 351.80 C 245.52 357.16 252.01 362.68 259.90 365.61 C 259.21 369.80 258.42 373.98 257.65 378.16 C 259.54 378.22 261.43 378.27 263.33 378.31 C 263.33 375.57 263.33 372.84 263.27 370.11 C 264.70 368.87 266.15 367.65 267.62 366.46 C 269.42 370.45 269.98 374.82 271.18 379.01 C 271.75 381.83 275.09 381.18 277.22 381.63 C 276.52 376.88 276.04 372.10 276.08 367.30 C 280.99 367.09 285.93 366.74 290.83 367.37 C 294.62 367.81 296.35 371.72 299.00 373.98 C 300.16 375.39 302.09 374.39 303.61 374.48 C 302.68 370.84 302.39 366.24 298.70 364.21 C 294.87 362.16 290.33 362.79 286.15 362.60 C 286.19 362.02 286.28 360.86 286.32 360.28 C 290.15 360.38 294.17 359.95 297.79 361.47 C 301.06 362.84 304.22 364.44 307.57 365.63 C 307.30 363.21 307.53 360.25 305.30 358.65 C 301.29 355.00 295.51 355.66 290.51 355.05 C 293.26 354.52 296.02 354.06 298.77 353.52 C 297.34 352.11 296.20 349.90 293.96 349.79 C 288.61 349.30 284.04 352.80 278.91 353.63 C 276.29 354.05 274.02 352.32 271.88 351.09 C 266.21 347.20 259.72 343.72 256.51 337.31 C 262.76 333.77 269.76 332.12 276.71 330.58 C 282.78 329.38 287.49 324.29 293.84 324.21 C 303.88 323.82 313.92 324.56 323.96 324.51 C 330.38 324.56 336.49 321.99 342.92 322.15 C 349.98 322.32 356.86 320.27 363.91 320.28 C 370.35 320.15 376.72 319.00 382.85 317.04 C 380.84 316.31 378.83 315.61 376.82 314.90 C 381.17 314.26 385.61 314.07 389.87 312.95 C 394.69 312.25 394.27 305.35 391.59 302.56 C 383.03 295.12 372.71 290.10 363.71 283.23 C 355.48 277.07 346.38 271.32 335.99 269.92 C 327.60 269.22 319.14 269.85 310.82 270.97 C 300.56 273.16 290.13 274.28 279.71 275.44 C 274.81 275.86 269.87 275.56 264.98 276.16 C 259.54 276.72 254.11 277.53 248.63 277.63 C 241.49 277.74 234.39 279.03 227.24 278.60 C 217.71 277.91 208.00 279.23 198.63 276.83 C 199.43 274.73 199.23 271.71 201.67 270.73 C 215.78 265.29 231.44 263.48 246.30 266.74 C 254.70 268.11 263.07 271.61 271.68 269.85 C 278.12 268.44 284.84 270.08 291.17 268.00 C 287.70 267.02 284.12 266.53 280.54 266.22 C 281.89 264.08 283.28 261.60 285.96 260.98 C 292.11 259.04 298.59 258.08 305.03 258.15 C 308.74 258.12 312.25 259.50 315.91 259.84 C 318.63 257.91 316.09 254.14 313.59 253.60 C 301.58 252.57 290.10 257.00 278.45 259.00 C 280.26 255.45 282.98 252.44 286.46 250.47 C 295.14 245.34 303.95 239.89 313.99 237.93 C 315.86 239.50 317.72 241.08 319.57 242.68 C 320.18 240.34 320.90 238.04 321.72 235.77 C 315.23 233.31 308.36 235.41 302.53 238.55 C 294.37 242.97 286.69 248.23 278.35 252.32 C 271.93 255.44 264.54 256.72 257.48 255.55 C 254.38 254.62 254.72 250.65 253.80 248.16 C 253.68 245.69 251.47 244.46 249.72 243.13 C 247.71 248.11 251.19 253.10 249.62 258.09 C 241.66 255.24 234.22 250.86 225.87 249.21 C 219.28 247.80 212.61 249.35 206.01 249.77 C 199.16 250.65 192.24 250.89 185.35 250.65 C 181.04 244.93 176.55 239.31 173.01 233.07 C 171.07 229.89 169.44 226.43 166.76 223.80 C 162.08 223.75 157.52 225.12 152.88 225.53 Z" />
<path fill="#fbfeee" opacity="1.00" d=" M 398.38 81.19 C 402.57 79.91 405.94 83.71 408.83 86.16 C 411.72 89.23 415.70 92.35 415.89 96.90 C 416.18 99.87 413.06 101.17 410.63 101.53 C 406.26 102.17 401.75 102.28 397.40 101.47 C 392.79 100.34 390.50 95.22 390.32 90.85 C 390.01 86.13 394.10 82.32 398.38 81.19 M 395.75 89.59 C 395.32 91.59 395.20 93.64 395.02 95.67 C 398.25 97.95 401.87 99.73 405.87 100.07 C 405.60 97.85 406.17 95.22 404.62 93.37 C 402.53 90.80 399.23 88.32 395.75 89.59 Z" />
<path fill="#fbfeee" opacity="1.00" d=" M 336.98 140.94 C 345.75 138.75 354.44 136.02 363.49 135.18 C 359.68 136.93 355.80 138.53 351.86 139.97 C 334.15 146.23 316.86 153.94 300.90 163.88 C 289.86 170.45 279.19 177.74 269.47 186.16 C 260.35 185.19 251.13 184.64 242.19 182.41 C 246.17 179.89 250.06 177.21 254.34 175.21 C 266.44 169.37 278.29 162.98 290.61 157.60 C 305.88 151.56 321.00 144.93 336.98 140.94 Z" />
<path fill="#fbfeee" opacity="1.00" d=" M 329.54 295.57 C 333.57 294.89 338.04 295.13 341.44 297.65 C 345.50 300.52 349.64 303.27 353.67 306.19 C 348.46 309.34 342.14 309.17 336.32 308.38 C 331.12 307.60 327.71 303.20 324.34 299.60 C 325.92 298.12 327.32 296.12 329.54 295.57 M 331.80 300.67 C 331.80 301.56 331.80 303.34 331.80 304.23 C 333.55 305.15 335.23 306.28 337.16 306.80 C 340.30 307.15 342.67 304.63 345.02 302.96 C 342.93 301.65 340.91 300.06 338.47 299.49 C 336.19 299.22 333.99 300.17 331.80 300.67 Z" />
</g>
<g id="#8c8674ff">
<path fill="#8c8674" opacity="1.00" d=" M 518.97 45.00 C 530.65 40.23 542.00 34.64 554.06 30.81 C 554.04 31.95 554.04 33.10 554.04 34.24 C 550.27 35.26 546.86 37.21 543.65 39.40 C 536.27 41.25 530.54 46.49 524.01 50.07 C 520.01 52.32 516.05 54.66 512.42 57.47 C 507.55 61.29 501.84 64.01 497.48 68.47 C 493.06 72.75 489.57 77.93 484.79 81.84 C 482.73 83.40 480.25 85.05 477.54 84.54 C 471.67 83.40 466.96 79.17 463.65 74.38 C 461.27 71.32 459.32 67.37 455.38 66.09 C 449.56 64.11 443.45 63.20 437.38 62.40 C 430.87 61.56 424.53 58.45 417.86 59.83 C 409.21 60.93 403.09 67.94 394.96 70.46 C 398.88 64.91 403.77 60.03 409.53 56.41 C 415.17 52.90 420.69 49.16 426.76 46.41 C 425.05 49.42 423.38 52.46 421.88 55.58 C 425.99 55.73 430.28 55.80 434.09 54.01 C 440.06 51.32 445.45 47.53 451.48 44.95 C 450.35 48.50 448.96 52.00 448.26 55.67 C 450.64 57.71 453.94 56.57 456.40 55.31 C 462.04 52.61 466.03 46.76 472.60 46.11 C 468.52 50.35 463.12 53.84 461.67 59.95 C 464.51 59.70 467.67 59.86 470.04 57.98 C 474.55 54.57 478.92 50.88 484.15 48.57 C 483.42 52.71 480.62 55.87 477.94 58.91 C 485.59 57.86 492.47 54.28 499.40 51.11 C 498.29 53.32 497.19 55.53 496.15 57.77 C 498.53 57.19 500.99 56.56 502.90 54.92 C 507.86 51.02 513.26 47.69 518.97 45.00 Z" />
</g>
<g id="#556542ff">
<path fill="#556542" opacity="1.00" d=" M 395.75 89.59 C 399.23 88.32 402.53 90.80 404.62 93.37 C 406.17 95.22 405.60 97.85 405.87 100.07 C 401.87 99.73 398.25 97.95 395.02 95.67 C 395.20 93.64 395.32 91.59 395.75 89.59 Z" />
<path fill="#556542" opacity="1.00" d=" M 137.14 135.01 C 143.88 141.85 152.44 146.34 160.15 151.93 C 172.56 159.75 185.22 167.29 198.68 173.18 C 208.68 177.59 219.75 178.37 230.08 181.70 C 226.52 184.57 223.16 187.68 219.43 190.33 C 210.64 187.74 201.54 186.21 192.95 182.96 C 183.92 179.81 175.57 175.12 166.96 171.02 C 159.69 167.50 153.21 162.60 146.03 158.92 C 143.71 157.45 140.33 156.35 139.98 153.20 C 138.91 147.16 138.48 141.01 137.14 135.01 Z" />
<path fill="#556542" opacity="1.00" d=" M 227.45 190.71 C 232.02 187.35 237.23 185.09 242.19 182.41 C 251.13 184.64 260.35 185.19 269.47 186.16 C 273.64 186.60 277.74 187.62 281.62 189.18 C 285.75 190.95 289.89 192.70 294.27 193.76 C 304.03 196.24 313.32 200.18 322.89 203.27 C 330.13 205.79 337.63 207.80 344.33 211.64 C 338.35 211.66 332.48 210.44 326.71 209.00 C 314.54 205.86 302.16 203.60 289.87 200.98 C 283.01 199.47 276.18 197.45 269.10 197.41 C 265.07 197.35 261.04 197.04 257.11 196.10 C 247.40 193.32 237.10 193.75 227.45 190.71 Z" />
</g>
<g id="#3e5524ff">
<path fill="#3e5524" opacity="1.00" d=" M 152.88 225.53 C 157.52 225.12 162.08 223.75 166.76 223.80 C 169.44 226.43 171.07 229.89 173.01 233.07 C 176.55 239.31 181.04 244.93 185.35 250.65 C 192.24 250.89 199.16 250.65 206.01 249.77 C 212.61 249.35 219.28 247.80 225.87 249.21 C 234.22 250.86 241.66 255.24 249.62 258.09 C 251.19 253.10 247.71 248.11 249.72 243.13 C 251.47 244.46 253.68 245.69 253.80 248.16 C 254.72 250.65 254.38 254.62 257.48 255.55 C 264.54 256.72 271.93 255.44 278.35 252.32 C 286.69 248.23 294.37 242.97 302.53 238.55 C 308.36 235.41 315.23 233.31 321.72 235.77 C 320.90 238.04 320.18 240.34 319.57 242.68 C 317.72 241.08 315.86 239.50 313.99 237.93 C 303.95 239.89 295.14 245.34 286.46 250.47 C 282.98 252.44 280.26 255.45 278.45 259.00 C 290.10 257.00 301.58 252.57 313.59 253.60 C 316.09 254.14 318.63 257.91 315.91 259.84 C 312.25 259.50 308.74 258.12 305.03 258.15 C 298.59 258.08 292.11 259.04 285.96 260.98 C 283.28 261.60 281.89 264.08 280.54 266.22 C 284.12 266.53 287.70 267.02 291.17 268.00 C 284.84 270.08 278.12 268.44 271.68 269.85 C 263.07 271.61 254.70 268.11 246.30 266.74 C 231.44 263.48 215.78 265.29 201.67 270.73 C 199.23 271.71 199.43 274.73 198.63 276.83 C 208.00 279.23 217.71 277.91 227.24 278.60 C 234.39 279.03 241.49 277.74 248.63 277.63 C 254.11 277.53 259.54 276.72 264.98 276.16 C 269.87 275.56 274.81 275.86 279.71 275.44 C 290.13 274.28 300.56 273.16 310.82 270.97 C 319.14 269.85 327.60 269.22 335.99 269.92 C 346.38 271.32 355.48 277.07 363.71 283.23 C 372.71 290.10 383.03 295.12 391.59 302.56 C 394.27 305.35 394.69 312.25 389.87 312.95 C 385.61 314.07 381.17 314.26 376.82 314.90 C 378.83 315.61 380.84 316.31 382.85 317.04 C 376.72 319.00 370.35 320.15 363.91 320.28 C 356.86 320.27 349.98 322.32 342.92 322.15 C 336.49 321.99 330.38 324.56 323.96 324.51 C 313.92 324.56 303.88 323.82 293.84 324.21 C 287.49 324.29 282.78 329.38 276.71 330.58 C 269.76 332.12 262.76 333.77 256.51 337.31 C 259.72 343.72 266.21 347.20 271.88 351.09 C 274.02 352.32 276.29 354.05 278.91 353.63 C 284.04 352.80 288.61 349.30 293.96 349.79 C 296.20 349.90 297.34 352.11 298.77 353.52 C 296.02 354.06 293.26 354.52 290.51 355.05 C 295.51 355.66 301.29 355.00 305.30 358.65 C 307.53 360.25 307.30 363.21 307.57 365.63 C 304.22 364.44 301.06 362.84 297.79 361.47 C 294.17 359.95 290.15 360.38 286.32 360.28 C 286.28 360.86 286.19 362.02 286.15 362.60 C 290.33 362.79 294.87 362.16 298.70 364.21 C 302.39 366.24 302.68 370.84 303.61 374.48 C 302.09 374.39 300.16 375.39 299.00 373.98 C 296.35 371.72 294.62 367.81 290.83 367.37 C 285.93 366.74 280.99 367.09 276.08 367.30 C 276.04 372.10 276.52 376.88 277.22 381.63 C 275.09 381.18 271.75 381.83 271.18 379.01 C 269.98 374.82 269.42 370.45 267.62 366.46 C 266.15 367.65 264.70 368.87 263.27 370.11 C 263.33 372.84 263.33 375.57 263.33 378.31 C 261.43 378.27 259.54 378.22 257.65 378.16 C 258.42 373.98 259.21 369.80 259.90 365.61 C 252.01 362.68 245.52 357.16 239.20 351.80 C 235.93 348.68 232.22 345.76 230.07 341.71 C 229.35 337.66 231.63 333.51 230.59 329.43 C 228.80 326.49 225.13 325.56 221.90 325.44 C 215.60 325.15 209.29 325.48 202.99 325.36 C 196.81 325.26 190.51 326.02 184.45 324.42 C 175.46 322.04 166.89 318.10 159.18 312.90 C 153.02 308.94 146.41 304.56 143.48 297.54 C 141.01 291.54 142.00 284.34 137.99 278.96 C 135.20 275.37 130.26 275.09 126.08 275.07 C 119.84 274.96 113.51 275.67 107.64 277.85 C 102.84 279.65 99.54 283.99 94.70 285.69 C 91.95 286.90 88.74 287.41 86.49 289.52 C 84.76 292.55 84.86 296.20 84.39 299.57 C 83.12 299.52 81.85 299.49 80.59 299.35 C 79.14 297.08 78.34 294.48 77.38 291.99 C 74.17 292.33 70.49 292.41 68.17 295.01 C 64.52 298.81 61.54 303.78 55.89 304.75 C 55.86 302.85 55.85 300.95 55.85 299.06 C 59.82 296.63 63.56 293.81 66.67 290.33 C 60.13 290.46 54.15 293.45 48.62 296.68 C 43.77 299.50 39.88 303.92 34.52 305.84 C 32.27 306.94 30.09 305.15 28.04 304.38 C 36.63 295.32 48.46 290.61 59.80 286.06 C 54.26 282.34 47.31 282.74 40.94 282.23 C 35.87 282.27 30.44 281.44 25.69 283.64 C 20.80 286.43 18.62 291.98 14.74 295.82 C 13.16 297.50 10.63 296.34 8.62 296.43 C 10.64 290.31 12.67 282.94 19.25 280.26 C 28.44 276.86 38.60 277.30 48.13 278.88 C 55.59 280.22 63.26 280.22 70.74 279.07 C 70.22 277.69 69.80 276.27 69.07 274.98 C 66.48 273.29 63.46 272.40 60.86 270.72 C 60.82 266.28 66.20 266.65 69.24 267.69 C 73.35 268.90 72.57 274.12 73.53 277.40 C 81.00 278.87 88.52 277.06 95.39 274.11 C 110.52 267.68 126.38 262.46 139.99 252.99 C 142.24 251.23 144.74 249.34 145.73 246.55 C 146.51 242.99 143.95 239.84 141.33 237.79 C 138.15 235.31 135.07 232.69 132.33 229.72 C 138.92 227.23 145.91 226.25 152.88 225.53 M 329.54 295.57 C 327.32 296.12 325.92 298.12 324.34 299.60 C 327.71 303.20 331.12 307.60 336.32 308.38 C 342.14 309.17 348.46 309.34 353.67 306.19 C 349.64 303.27 345.50 300.52 341.44 297.65 C 338.04 295.13 333.57 294.89 329.54 295.57 Z" />
<path fill="#3e5524" opacity="1.00" d=" M 331.80 300.67 C 333.99 300.17 336.19 299.22 338.47 299.49 C 340.91 300.06 342.93 301.65 345.02 302.96 C 342.67 304.63 340.30 307.15 337.16 306.80 C 335.23 306.28 333.55 305.15 331.80 304.23 C 331.80 303.34 331.80 301.56 331.80 300.67 Z" />
</g>
</svg>
