<?xml version="1.0" encoding="UTF-8" ?>
<!DOCTYPE svg PUBLIC "-//W3C//DTD SVG 1.1//EN" "http://www.w3.org/Graphics/SVG/1.1/DTD/svg11.dtd">
<svg width="606pt" height="398pt" viewBox="0 0 606 398" version="1.1" xmlns="http://www.w3.org/2000/svg">
<g id="#fbfeeeff">
<path fill="#fbfeee" opacity="1.00" d=" M 396.37 84.12 C 395.70 80.77 400.08 81.02 402.15 81.87 C 407.32 83.86 410.83 88.56 414.34 92.61 C 416.69 94.97 416.35 99.66 412.90 100.74 C 407.93 102.18 402.44 103.41 397.45 101.38 C 392.55 99.82 390.51 94.21 390.65 89.49 C 390.76 86.07 393.57 83.84 396.01 81.90 C 396.10 82.46 396.28 83.57 396.37 84.12 M 394.90 95.76 C 398.20 98.15 402.20 101.91 406.46 99.35 C 407.63 93.40 401.10 88.59 395.66 89.32 C 394.54 91.31 394.65 93.56 394.90 95.76 Z" />
<path fill="#fbfeee" opacity="1.00" d=" M 324.90 298.23 C 328.06 295.27 332.52 296.56 336.38 295.64 C 338.85 296.20 341.55 296.97 342.93 299.32 C 345.28 301.10 347.80 302.67 350.58 303.72 C 352.32 304.24 351.61 306.21 351.21 307.43 C 350.02 307.70 348.84 308.01 347.67 308.36 C 342.30 308.90 336.51 309.21 331.69 306.35 C 328.92 304.17 325.65 301.91 324.90 298.23 M 333.54 299.60 C 332.90 300.42 332.25 301.24 331.60 302.06 C 332.19 305.17 334.98 306.68 337.62 307.85 C 339.98 306.88 342.34 305.86 344.36 304.27 C 344.05 303.11 343.75 301.96 343.45 300.80 C 341.37 299.89 339.18 299.28 336.95 298.90 C 335.81 299.15 334.68 299.38 333.54 299.60 Z" />
<path fill="#fbfeee" opacity="1.00" d=" M 290.66 354.60 C 292.15 354.44 293.63 354.30 295.13 354.17 C 295.24 354.57 295.46 355.35 295.57 355.74 C 293.93 355.40 292.29 354.99 290.66 354.60 Z" />
</g>
<g id="#716d64ff">
<path fill="#716d64" opacity="1.00" d=" M 542.62 15.01 C 545.03 14.60 547.47 14.77 549.90 14.87 C 549.62 15.06 549.06 15.44 548.78 15.63 C 547.62 17.81 545.72 19.40 543.74 20.82 C 550.18 20.47 556.67 20.80 563.05 19.73 C 567.96 19.71 572.83 20.68 577.74 20.79 C 576.84 21.53 575.95 22.28 575.07 23.03 C 573.96 23.75 572.87 24.49 571.78 25.23 C 577.99 27.69 584.16 30.34 590.58 32.18 C 583.45 33.62 576.04 32.99 569.02 35.01 C 563.54 36.43 557.99 37.73 552.74 39.87 C 545.67 43.40 538.44 47.00 532.83 52.73 C 522.50 62.82 511.17 71.79 500.31 81.30 C 493.20 87.25 486.87 94.33 482.63 102.61 C 480.35 108.01 478.64 114.18 480.69 119.93 C 481.70 124.71 485.49 128.00 488.70 131.38 C 496.14 137.97 505.76 141.27 513.69 147.15 C 509.81 148.55 506.33 150.76 502.73 152.71 C 496.13 158.26 490.51 165.11 487.03 173.06 C 479.76 185.97 475.97 201.34 464.85 211.74 C 458.32 218.33 448.70 220.38 439.72 220.05 C 433.41 219.46 426.51 217.73 422.34 212.60 C 417.43 206.50 417.83 198.09 419.20 190.83 C 418.10 184.06 415.62 177.28 410.72 172.33 C 401.37 162.01 388.70 155.09 375.24 151.81 C 371.33 150.82 367.31 151.70 363.54 152.83 C 354.25 154.72 345.48 158.42 336.35 160.84 C 333.43 163.49 329.38 163.90 325.89 165.43 C 310.56 172.33 295.43 179.91 281.42 189.23 C 276.86 187.80 272.09 187.34 267.43 186.39 C 271.19 184.73 274.16 181.83 277.43 179.43 C 291.53 169.15 306.21 159.49 322.10 152.20 C 334.51 146.10 347.38 140.96 360.43 136.39 C 350.11 137.71 339.88 139.99 330.02 143.32 C 314.57 147.67 299.81 154.01 285.03 160.17 C 270.49 167.39 255.79 174.35 241.88 182.76 C 236.69 185.64 231.81 189.08 226.38 191.53 C 218.23 196.68 209.95 201.63 202.02 207.12 C 198.93 209.19 195.80 211.59 191.98 212.01 C 199.10 205.06 207.37 199.45 214.96 193.03 C 216.25 191.98 217.64 191.04 219.08 190.22 C 223.44 187.92 226.65 184.09 230.57 181.21 C 239.13 176.80 246.39 170.30 255.01 166.02 C 264.08 159.84 273.69 154.52 283.45 149.53 C 290.18 145.19 297.87 142.81 304.91 139.06 C 311.15 135.95 317.76 133.71 324.25 131.22 C 327.62 129.81 330.96 128.27 334.55 127.48 C 340.63 124.78 347.14 122.98 353.59 121.31 C 355.63 116.82 356.10 111.79 358.40 107.40 C 361.08 99.25 364.18 91.18 368.88 83.94 C 375.90 72.30 386.35 63.43 396.63 54.79 C 407.18 47.99 418.23 42.00 429.68 36.85 C 431.26 36.04 432.87 34.93 434.76 35.34 C 433.86 37.50 433.02 39.68 432.12 41.84 C 437.37 38.66 442.79 35.72 448.38 33.21 C 463.66 26.12 480.30 22.59 496.60 18.59 C 495.91 21.53 493.97 23.87 492.07 26.12 C 495.32 24.17 499.17 23.60 502.37 21.57 C 503.30 21.52 504.27 21.66 505.18 21.30 C 517.24 17.18 530.05 16.41 542.62 15.01 M 511.13 29.09 C 501.92 34.96 492.51 40.52 483.03 45.94 C 478.99 48.13 476.36 52.00 473.31 55.30 C 471.64 57.13 469.86 59.57 467.01 58.94 C 465.43 59.33 463.61 57.94 464.11 56.25 C 465.25 54.12 467.20 52.61 468.92 50.97 C 473.52 46.91 477.58 42.22 482.72 38.79 C 485.56 36.88 488.41 34.93 490.78 32.44 C 480.92 34.67 473.93 42.43 465.57 47.50 C 460.48 50.48 455.68 54.34 449.68 55.26 C 450.08 53.35 450.10 51.15 451.74 49.81 C 455.59 45.96 459.57 42.25 463.41 38.39 C 466.89 34.83 471.25 32.28 474.60 28.58 C 471.54 29.16 468.32 29.77 465.86 31.82 C 453.30 41.96 440.35 53.63 423.79 56.10 C 423.85 52.15 425.79 48.61 426.77 44.86 C 420.76 47.87 415.70 52.40 410.17 56.16 C 404.57 60.58 398.09 63.91 393.24 69.22 C 389.49 73.30 385.29 76.97 381.83 81.32 C 388.39 78.44 394.31 74.28 400.05 70.04 C 405.27 65.39 411.06 60.74 418.04 59.24 C 424.39 59.75 430.63 61.38 437.00 61.91 C 444.52 62.47 451.67 64.89 458.74 67.32 C 461.75 73.05 465.23 78.65 470.04 83.06 C 473.19 84.37 476.65 84.85 480.03 85.25 C 485.01 81.55 487.42 75.16 492.61 71.57 C 509.37 59.92 525.30 46.89 543.60 37.64 C 546.96 36.14 550.51 34.97 553.56 32.83 C 543.73 32.44 535.43 38.25 526.66 41.74 C 517.46 45.40 509.57 51.50 500.94 56.24 C 500.47 55.87 499.53 55.15 499.06 54.79 C 509.32 45.02 522.30 38.76 533.21 29.79 C 528.81 29.66 525.45 32.77 521.85 34.80 C 509.97 41.93 498.18 49.20 486.43 56.54 C 484.21 58.15 481.41 57.83 478.84 57.85 C 479.58 56.04 480.05 53.94 481.73 52.72 C 487.18 48.32 493.69 45.49 499.30 41.31 C 507.09 35.63 514.98 30.09 523.15 24.97 C 518.87 25.35 514.66 26.58 511.13 29.09 M 396.37 84.12 C 396.28 83.57 396.10 82.46 396.01 81.90 C 393.57 83.84 390.76 86.07 390.65 89.49 C 390.51 94.21 392.55 99.82 397.45 101.38 C 402.44 103.41 407.93 102.18 412.90 100.74 C 416.35 99.66 416.69 94.97 414.34 92.61 C 410.83 88.56 407.32 83.86 402.15 81.87 C 400.08 81.02 395.70 80.77 396.37 84.12 Z" />
<path fill="#716d64" opacity="1.00" d=" M 253.83 195.23 C 258.71 195.63 263.43 197.14 268.34 197.38 C 260.66 201.78 254.13 207.85 246.79 212.74 C 243.39 215.37 239.50 217.36 236.41 220.38 C 234.07 222.63 231.72 224.88 229.04 226.72 C 231.41 221.24 236.13 217.38 239.95 212.96 C 245.04 207.00 250.77 201.64 256.11 195.92 C 255.54 195.74 254.40 195.40 253.83 195.23 Z" />
</g>
<g id="#969277ff">
<path fill="#969277" opacity="1.00" d=" M 511.13 29.09 C 514.66 26.58 518.87 25.35 523.15 24.97 C 514.98 30.09 507.09 35.63 499.30 41.31 C 493.69 45.49 487.18 48.32 481.73 52.72 C 480.05 53.94 479.58 56.04 478.84 57.85 C 481.41 57.83 484.21 58.15 486.43 56.54 C 498.18 49.20 509.97 41.93 521.85 34.80 C 525.45 32.77 528.81 29.66 533.21 29.79 C 522.30 38.76 509.32 45.02 499.06 54.79 C 499.53 55.15 500.47 55.87 500.94 56.24 C 509.57 51.50 517.46 45.40 526.66 41.74 C 535.43 38.25 543.73 32.44 553.56 32.83 C 550.51 34.97 546.96 36.14 543.60 37.64 C 525.30 46.89 509.37 59.92 492.61 71.57 C 487.42 75.16 485.01 81.55 480.03 85.25 C 476.65 84.85 473.19 84.37 470.04 83.06 C 465.23 78.65 461.75 73.05 458.74 67.32 C 451.67 64.89 444.52 62.47 437.00 61.91 C 430.63 61.38 424.39 59.75 418.04 59.24 C 411.06 60.74 405.27 65.39 400.05 70.04 C 394.31 74.28 388.39 78.44 381.83 81.32 C 385.29 76.97 389.49 73.30 393.24 69.22 C 398.09 63.91 404.57 60.58 410.17 56.16 C 415.70 52.40 420.76 47.87 426.77 44.86 C 425.79 48.61 423.85 52.15 423.79 56.10 C 440.35 53.63 453.30 41.96 465.86 31.82 C 468.32 29.77 471.54 29.16 474.60 28.58 C 471.25 32.28 466.89 34.83 463.41 38.39 C 459.57 42.25 455.59 45.96 451.74 49.81 C 450.10 51.15 450.08 53.35 449.68 55.26 C 455.68 54.34 460.48 50.48 465.57 47.50 C 473.93 42.43 480.92 34.67 490.78 32.44 C 488.41 34.93 485.56 36.88 482.72 38.79 C 477.58 42.22 473.52 46.91 468.92 50.97 C 467.20 52.61 465.25 54.12 464.11 56.25 C 463.61 57.94 465.43 59.33 467.01 58.94 C 469.86 59.57 471.64 57.13 473.31 55.30 C 476.36 52.00 478.99 48.13 483.03 45.94 C 492.51 40.52 501.92 34.96 511.13 29.09 Z" />
</g>
<g id="#435420ff">
<path fill="#435420" opacity="1.00" d=" M 394.90 95.76 C 394.65 93.56 394.54 91.31 395.66 89.32 C 401.10 88.59 407.63 93.40 406.46 99.35 C 402.20 101.91 398.20 98.15 394.90 95.76 Z" />
<path fill="#435420" opacity="1.00" d=" M 137.34 135.01 C 148.93 144.22 161.08 152.76 174.05 159.94 C 185.52 167.04 197.75 173.09 210.74 176.84 C 217.42 178.02 223.89 180.04 230.57 181.21 C 226.65 184.09 223.44 187.92 219.08 190.22 C 206.46 187.64 193.83 184.52 182.20 178.85 C 173.38 174.40 164.31 170.45 155.99 165.08 C 150.80 161.62 145.17 158.92 139.90 155.60 C 139.15 148.71 137.93 141.89 137.34 135.01 Z" />
<path fill="#435420" opacity="1.00" d=" M 226.38 191.53 C 231.81 189.08 236.69 185.64 241.88 182.76 C 250.42 183.56 259.10 184.22 267.43 186.39 C 272.09 187.34 276.86 187.80 281.42 189.23 C 284.61 190.16 287.73 191.34 290.96 192.15 C 298.63 193.96 305.77 197.46 313.40 199.43 C 323.46 203.09 333.71 206.31 343.52 210.63 C 343.50 211.09 343.45 212.01 343.43 212.47 C 330.55 210.01 317.69 207.47 304.94 204.47 C 292.74 202.07 280.70 198.84 268.34 197.38 C 263.43 197.14 258.71 195.63 253.83 195.23 C 244.64 194.33 235.57 192.34 226.38 191.53 Z" />
<path fill="#435420" opacity="1.00" d=" M 162.00 223.97 C 163.75 223.67 165.53 223.61 167.31 223.52 C 170.46 228.45 173.34 233.56 176.48 238.50 C 179.75 242.49 182.00 247.53 186.44 250.43 C 190.93 250.98 195.69 250.99 200.10 249.85 C 203.77 249.43 207.67 250.34 211.14 248.82 C 211.60 248.94 212.51 249.18 212.96 249.30 C 221.46 247.27 230.13 249.90 237.96 253.15 C 241.54 254.77 245.05 256.56 248.82 257.73 C 249.56 256.87 250.30 256.01 251.03 255.15 C 249.61 252.63 248.81 249.85 247.89 247.13 C 248.45 246.00 248.56 244.52 249.60 243.70 C 250.72 243.53 251.85 243.70 252.98 243.72 C 254.59 246.39 254.38 249.61 254.45 252.61 C 255.29 253.60 255.93 254.84 256.99 255.61 C 264.12 256.66 271.90 256.14 278.06 252.04 C 281.63 250.26 285.11 248.30 288.60 246.35 C 288.95 245.99 289.66 245.28 290.02 244.93 C 290.52 244.77 291.52 244.46 292.03 244.31 C 300.29 239.25 309.08 233.36 319.20 233.85 C 320.07 235.12 321.63 236.20 321.54 237.91 C 321.88 239.94 320.15 241.26 319.00 242.63 C 317.63 241.36 316.37 239.97 314.93 238.78 C 305.68 238.88 298.07 244.71 290.13 248.69 C 288.86 249.17 288.10 250.24 287.44 251.36 C 283.66 252.69 279.09 254.92 279.06 259.58 C 279.64 259.60 280.79 259.65 281.37 259.67 C 282.75 258.59 284.18 257.44 285.99 257.18 C 294.84 255.21 303.80 253.11 312.91 253.22 C 316.31 253.82 317.69 257.32 316.45 260.35 C 312.82 260.30 309.68 258.02 306.06 258.12 C 299.98 258.00 294.02 259.37 288.07 260.34 C 285.58 260.72 283.46 262.12 281.39 263.46 C 281.27 264.02 281.03 265.12 280.90 265.68 C 282.75 265.96 284.60 266.22 286.46 266.39 C 287.08 266.30 288.33 266.10 288.95 266.00 C 289.72 266.69 290.50 267.39 291.28 268.09 C 288.38 271.23 284.01 269.02 280.43 268.68 C 276.98 267.82 273.88 270.08 270.60 270.65 C 266.33 270.90 262.00 270.78 257.86 269.64 C 253.47 268.49 248.90 268.19 244.60 266.70 C 241.72 266.48 238.90 265.90 236.06 265.41 C 229.54 264.82 222.94 265.42 216.52 266.66 C 212.89 266.89 209.66 268.72 206.13 269.40 C 203.41 270.01 201.25 271.91 199.04 273.49 C 199.41 274.91 199.84 276.31 200.31 277.70 C 204.24 277.72 208.15 277.88 212.01 278.65 C 217.00 278.73 221.99 277.79 226.96 278.70 C 236.78 278.73 246.54 277.75 256.36 277.29 C 260.13 276.09 264.45 277.54 267.95 275.64 C 274.28 276.85 280.66 274.48 287.04 275.06 C 292.40 273.26 298.16 273.55 303.58 272.05 C 317.28 270.83 331.58 267.27 345.01 271.92 C 351.79 274.71 357.98 278.74 363.72 283.29 C 372.54 290.12 382.54 295.16 391.46 301.85 C 393.96 304.68 393.37 308.55 393.25 312.02 C 388.36 314.43 382.92 313.89 377.74 314.90 C 379.64 315.04 381.54 315.34 383.38 315.88 C 382.75 316.68 382.12 317.50 381.50 318.31 C 371.09 319.66 360.71 321.35 350.19 321.50 C 339.18 320.28 328.91 326.09 317.90 324.90 C 310.33 323.83 302.65 324.17 295.02 324.16 C 290.81 324.04 286.87 325.90 283.38 328.09 C 274.78 332.06 264.44 331.96 256.75 337.85 C 259.68 343.31 265.39 346.25 270.08 349.97 C 273.36 351.99 277.12 355.13 281.17 353.18 C 286.90 350.64 294.51 347.42 299.71 352.80 C 299.29 353.35 298.46 354.43 298.05 354.97 C 301.73 355.74 304.45 358.36 307.38 360.52 C 307.91 362.32 307.89 364.30 306.33 365.62 C 302.83 364.26 299.90 361.53 296.11 360.95 C 292.97 360.35 289.75 360.33 286.58 360.51 C 286.44 361.04 286.16 362.10 286.01 362.64 C 289.61 362.85 293.28 362.36 296.82 363.12 C 301.50 364.75 304.29 370.81 302.18 375.34 C 296.95 376.34 297.32 369.09 293.15 367.90 C 288.74 366.56 284.03 365.86 279.44 366.50 C 277.48 367.08 274.75 368.64 275.33 371.07 C 276.07 374.18 277.15 377.21 277.52 380.41 C 276.35 381.06 275.02 382.50 273.57 381.63 C 270.87 380.34 270.36 376.97 270.25 374.28 C 269.40 371.52 269.32 367.47 265.71 366.98 C 263.61 370.26 263.62 374.20 263.07 377.91 C 261.59 379.71 258.85 378.80 257.87 376.97 C 257.74 373.41 259.34 370.09 259.89 366.62 C 259.07 365.51 257.66 365.20 256.50 364.59 C 252.01 362.67 248.44 359.26 244.53 356.44 C 239.73 353.00 235.67 348.70 231.63 344.44 C 228.47 341.46 229.51 336.54 231.78 333.37 C 231.49 330.58 229.92 327.79 227.13 326.88 C 218.94 324.47 210.34 326.61 202.05 325.53 C 197.03 325.61 191.95 325.92 186.98 325.01 C 176.41 323.09 166.92 317.73 157.84 312.23 C 152.98 308.48 147.05 305.48 144.21 299.74 C 140.29 293.01 142.63 283.97 136.96 278.06 C 132.21 274.03 125.58 275.23 119.85 275.25 C 115.94 275.92 112.01 276.67 108.20 277.80 C 102.68 279.40 99.40 284.87 93.83 286.38 C 91.17 287.05 88.57 287.97 86.32 289.58 C 85.09 292.52 84.85 295.71 84.73 298.87 C 83.67 299.68 82.56 300.44 81.41 301.11 C 78.84 298.46 78.77 294.36 76.06 291.86 C 72.33 293.16 68.27 294.33 65.79 297.66 C 63.08 300.72 60.13 306.52 55.19 303.64 C 55.31 297.59 61.57 295.13 65.71 292.01 C 65.44 291.50 65.17 291.01 64.90 290.52 C 57.67 292.20 50.54 294.94 44.65 299.56 C 40.23 302.71 35.73 307.51 29.75 306.41 C 29.42 305.79 28.76 304.57 28.43 303.95 C 30.22 301.08 33.12 299.44 36.00 297.88 C 39.27 294.80 43.53 293.20 47.40 291.03 C 51.31 288.95 55.76 288.17 59.64 286.03 C 58.09 284.90 56.39 283.87 54.43 283.68 C 46.07 282.84 37.64 281.34 29.24 282.53 C 27.12 283.00 24.80 283.58 23.36 285.34 C 20.99 288.32 18.42 291.21 16.77 294.67 C 14.72 296.91 10.66 298.68 8.95 295.09 C 10.53 289.37 13.67 283.88 18.49 280.35 C 29.20 276.81 40.84 277.02 51.77 279.42 C 56.48 280.14 61.28 279.80 66.02 279.79 C 68.11 279.87 70.88 278.55 70.11 276.03 C 68.56 272.68 63.51 274.29 61.89 271.12 C 61.58 270.61 60.97 269.59 60.66 269.08 C 64.07 265.51 69.65 267.39 73.50 269.21 C 73.39 271.68 73.36 274.18 74.04 276.59 C 74.44 277.11 75.25 278.16 75.65 278.68 C 87.86 277.88 98.84 272.01 110.19 268.06 C 115.22 265.59 120.73 264.25 125.51 261.26 C 133.05 256.94 142.18 253.75 146.68 245.76 C 144.14 238.40 136.33 235.20 132.34 228.84 C 142.17 226.87 152.16 225.88 162.00 223.97 M 324.90 298.23 C 325.65 301.91 328.92 304.17 331.69 306.35 C 336.51 309.21 342.30 308.90 347.67 308.36 C 348.84 308.01 350.02 307.70 351.21 307.43 C 351.61 306.21 352.32 304.24 350.58 303.72 C 347.80 302.67 345.28 301.10 342.93 299.32 C 341.55 296.97 338.85 296.20 336.38 295.64 C 332.52 296.56 328.06 295.27 324.90 298.23 M 290.66 354.60 C 292.29 354.99 293.93 355.40 295.57 355.74 C 295.46 355.35 295.24 354.57 295.13 354.17 C 293.63 354.30 292.15 354.44 290.66 354.60 Z" />
<path fill="#435420" opacity="1.00" d=" M 333.54 299.60 C 334.68 299.38 335.81 299.15 336.95 298.90 C 339.18 299.28 341.37 299.89 343.45 300.80 C 343.75 301.96 344.05 303.11 344.36 304.27 C 342.34 305.86 339.98 306.88 337.62 307.85 C 334.98 306.68 332.19 305.17 331.60 302.06 C 332.25 301.24 332.90 300.42 333.54 299.60 Z" />
</g>
</svg>
