<?xml version="1.0" encoding="UTF-8" ?>
<!DOCTYPE svg PUBLIC "-//W3C//DTD SVG 1.1//EN" "http://www.w3.org/Graphics/SVG/1.1/DTD/svg11.dtd">
<svg width="585pt" height="337pt" viewBox="0 0 585 337" version="1.1" xmlns="http://www.w3.org/2000/svg">
<g id="#fbfdf4ff">
</g>
<g id="#a0b493ff">
<path fill="#a0b493" opacity="1.00" d=" M 129.98 33.97 C 141.59 27.60 155.29 29.62 167.98 29.55 C 179.63 30.86 191.29 32.18 202.97 33.26 C 212.69 33.39 222.32 34.92 232.02 35.45 C 243.36 35.25 254.63 36.70 265.97 36.74 C 271.99 36.63 277.98 37.37 284.00 37.37 C 307.99 37.31 331.98 37.54 355.97 37.56 C 371.94 38.84 387.99 37.90 403.99 38.21 C 416.31 39.07 428.66 38.32 441.00 38.67 C 449.33 39.00 457.69 38.35 466.01 39.14 C 475.28 39.63 484.58 39.22 493.86 39.50 C 492.86 45.43 489.08 50.45 487.35 56.17 C 482.87 73.18 484.67 91.54 491.29 107.76 C 495.21 116.22 497.86 125.66 504.09 132.77 C 503.33 134.94 504.13 137.09 505.00 139.11 C 511.93 154.38 519.70 169.26 526.53 184.57 C 531.57 194.90 535.43 205.73 540.08 216.23 C 547.30 233.95 555.25 251.34 563.41 268.64 C 565.37 272.43 567.02 276.77 570.80 279.17 C 571.07 276.04 571.04 272.90 570.85 269.78 C 571.89 272.50 572.84 275.41 572.47 278.36 C 567.49 281.62 564.64 287.04 560.17 290.90 C 561.48 286.40 559.36 281.96 556.05 278.95 C 544.65 267.77 528.23 262.55 518.83 249.20 C 510.74 236.25 510.38 220.24 503.15 206.92 C 497.44 195.46 486.40 186.36 485.06 172.99 C 484.48 157.11 491.84 142.34 492.75 126.62 C 493.04 122.32 494.01 116.88 490.08 113.86 C 486.91 110.62 481.13 110.78 478.25 114.31 C 474.72 118.44 475.24 124.25 475.44 129.30 C 476.56 140.80 478.12 152.26 479.30 163.75 C 480.17 171.30 478.89 179.02 476.02 186.02 C 471.07 197.14 467.95 209.14 467.40 221.31 C 467.11 226.53 466.21 231.73 466.73 236.97 C 468.00 251.80 466.13 267.09 470.60 281.53 C 472.13 285.68 475.44 290.03 480.19 290.37 L 480.85 290.48 C 477.03 294.77 472.30 298.77 466.39 299.51 C 468.55 296.50 470.47 292.94 469.81 289.10 C 468.73 280.84 462.12 274.99 456.52 269.46 C 448.89 263.14 440.59 257.37 434.58 249.36 C 431.83 245.61 430.24 241.13 429.20 236.64 C 427.72 230.57 429.49 224.25 427.93 218.20 C 426.51 211.04 423.06 204.58 420.01 198.03 C 417.15 191.08 414.37 183.82 414.33 176.20 C 414.46 168.63 418.27 161.88 420.92 154.99 C 423.70 147.76 427.12 140.59 427.82 132.77 C 428.73 122.49 427.80 111.61 422.50 102.53 C 420.41 98.92 417.53 94.96 413.12 94.25 C 408.02 96.16 406.11 101.85 404.41 106.53 C 398.67 122.60 401.41 139.94 403.63 156.40 C 404.36 164.47 406.50 172.66 404.67 180.74 C 403.21 186.99 402.01 193.40 399.14 199.20 C 396.02 205.52 393.33 212.23 388.40 217.41 C 383.70 222.44 378.73 227.61 372.24 230.27 C 364.00 233.42 356.05 237.42 347.37 239.26 C 329.07 243.70 310.30 245.85 291.50 246.65 C 283.60 246.91 275.79 245.27 268.09 243.70 C 256.81 240.49 245.34 237.48 234.84 232.12 C 227.73 228.45 220.52 224.83 214.17 219.90 C 205.02 213.73 194.50 207.45 190.40 196.61 C 187.64 190.03 188.60 182.79 188.34 175.86 C 188.13 168.23 189.77 160.04 186.01 152.98 C 184.41 149.87 180.31 146.86 176.86 148.86 C 168.33 155.77 165.47 166.76 161.50 176.49 C 157.07 187.20 154.09 198.50 148.70 208.81 C 144.86 216.90 139.13 223.85 134.31 231.34 C 128.42 240.42 121.58 248.93 116.78 258.67 C 114.38 264.46 112.58 270.54 109.19 275.87 C 106.19 281.60 101.84 287.31 102.52 294.14 C 100.37 294.65 98.46 293.21 96.53 292.51 C 91.36 290.38 85.88 288.21 82.05 283.96 C 80.18 281.34 78.91 278.23 76.18 276.32 C 78.28 275.12 80.33 273.68 81.58 271.56 C 85.50 265.39 87.83 258.40 91.08 251.88 C 95.73 242.67 99.65 233.11 103.57 223.57 C 105.89 217.81 112.64 215.58 115.02 209.86 C 117.36 205.11 116.95 199.65 116.72 194.52 C 116.00 186.17 114.68 177.84 114.97 169.44 C 116.01 156.51 119.13 143.89 122.37 131.37 C 123.70 124.40 127.08 117.95 127.76 110.85 C 125.88 111.72 124.96 113.57 124.43 115.47 C 118.24 135.87 112.40 156.58 110.74 177.91 C 110.27 182.46 111.82 186.97 111.29 191.50 C 109.57 193.09 106.91 193.59 105.67 195.69 C 102.70 200.40 101.00 206.00 96.84 209.88 C 92.44 213.82 86.89 216.46 83.25 221.25 C 78.54 227.22 73.41 232.88 69.29 239.30 C 65.60 245.12 61.22 250.47 56.23 255.22 C 51.08 260.66 44.26 263.97 38.24 268.29 C 34.12 271.11 30.43 274.49 26.66 277.75 C 23.78 277.93 20.61 277.64 18.43 275.54 C 15.91 273.32 12.92 271.75 10.28 269.71 C 8.51 267.45 6.94 265.02 5.49 262.54 C 4.64 260.85 5.75 259.15 6.77 257.86 C 6.54 259.64 6.37 261.44 6.29 263.24 C 12.30 260.67 15.75 254.71 20.29 250.31 C 26.18 244.49 31.57 237.92 38.82 233.73 C 51.53 225.88 59.85 212.97 67.47 200.49 C 71.55 193.04 76.10 185.87 80.53 178.63 C 92.59 155.42 106.45 132.70 113.01 107.13 C 114.02 102.59 114.72 97.54 112.73 93.16 C 111.51 92.87 110.27 92.65 109.03 92.49 C 110.41 91.84 112.69 91.96 112.97 90.05 C 115.69 79.34 118.11 68.55 119.85 57.63 C 121.82 49.39 122.04 39.02 129.98 33.97 M 260.34 50.80 C 254.82 51.46 249.48 53.13 244.02 54.09 C 235.35 55.59 227.71 60.15 219.90 63.89 C 211.76 69.12 203.35 74.79 198.19 83.18 C 195.61 86.97 192.79 90.63 190.86 94.81 C 186.93 102.84 185.57 111.80 184.54 120.60 C 184.15 130.26 184.72 140.11 187.50 149.41 C 191.15 162.87 194.95 176.57 202.47 188.47 C 206.23 195.79 213.04 200.68 219.32 205.68 C 223.50 208.92 228.71 210.27 233.27 212.82 C 243.07 218.92 254.65 220.85 265.45 224.50 C 270.41 226.06 275.66 226.30 280.69 227.57 C 286.02 229.01 291.59 228.78 297.05 229.19 C 306.02 229.88 315.13 228.08 323.23 224.17 C 333.93 219.33 346.01 220.90 357.22 218.18 C 360.88 217.24 364.72 216.73 368.14 215.03 C 374.08 211.41 377.86 205.40 382.16 200.12 C 390.49 190.55 397.81 179.03 398.41 166.00 C 399.28 158.65 395.00 151.90 395.44 144.58 C 395.29 136.42 396.65 128.19 394.81 120.12 C 393.56 110.27 387.23 102.24 381.24 94.73 C 378.26 91.04 374.53 88.08 370.79 85.21 C 351.80 70.80 329.69 60.92 306.90 54.27 C 291.78 50.11 275.90 49.25 260.34 50.80 Z" />
</g>
<g id="#6f8267ff">
<path fill="#6f8267" opacity="1.00" d=" M 260.34 50.80 C 275.90 49.25 291.78 50.11 306.90 54.27 C 329.69 60.92 351.80 70.80 370.79 85.21 C 374.53 88.08 378.26 91.04 381.24 94.73 C 387.23 102.24 393.56 110.27 394.81 120.12 C 396.65 128.19 395.29 136.42 395.44 144.58 C 395.00 151.90 399.28 158.65 398.41 166.00 C 397.81 179.03 390.49 190.55 382.16 200.12 C 377.86 205.40 374.08 211.41 368.14 215.03 C 364.72 216.73 360.88 217.24 357.22 218.18 C 346.01 220.90 333.93 219.33 323.23 224.17 C 315.13 228.08 306.02 229.88 297.05 229.19 C 291.59 228.78 286.02 229.01 280.69 227.57 C 275.66 226.30 270.41 226.06 265.45 224.50 C 254.65 220.85 243.07 218.92 233.27 212.82 C 228.71 210.27 223.50 208.92 219.32 205.68 C 213.04 200.68 206.23 195.79 202.47 188.47 C 194.95 176.57 191.15 162.87 187.50 149.41 C 184.72 140.11 184.15 130.26 184.54 120.60 C 185.57 111.80 186.93 102.84 190.86 94.81 C 192.79 90.63 195.61 86.97 198.19 83.18 C 203.35 74.79 211.76 69.12 219.90 63.89 C 227.71 60.15 235.35 55.59 244.02 54.09 C 249.48 53.13 254.82 51.46 260.34 50.80 M 257.41 60.68 C 248.23 62.89 238.99 65.37 230.47 69.54 C 226.06 72.10 221.60 74.62 217.39 77.52 C 211.18 82.87 205.30 88.81 201.08 95.90 C 196.58 103.50 195.07 112.35 193.80 120.96 C 193.38 132.33 195.41 143.72 198.82 154.54 C 202.21 166.07 205.88 177.95 213.56 187.45 C 216.14 190.18 218.87 192.78 221.62 195.34 C 231.86 203.64 244.70 207.75 257.04 211.83 C 265.67 214.10 274.20 216.89 283.12 217.75 C 291.81 219.47 300.89 220.87 309.62 218.59 C 316.09 217.29 321.69 213.37 328.23 212.35 C 338.04 210.72 347.94 209.75 357.78 208.36 C 364.32 207.10 368.95 201.90 372.94 196.95 C 377.35 192.49 380.06 186.80 383.62 181.71 C 387.14 176.51 388.64 170.18 389.09 163.99 C 388.62 158.46 386.52 153.21 386.05 147.66 C 384.91 142.14 386.41 136.62 386.49 131.10 C 385.96 124.57 385.33 117.75 381.94 111.98 C 375.36 99.91 363.69 91.84 352.31 84.71 C 333.02 73.72 312.32 64.73 290.44 60.49 C 279.48 58.42 268.40 59.94 257.41 60.68 Z" />
<path fill="#6f8267" opacity="1.00" d=" M 262.51 65.48 C 263.35 63.47 264.26 60.89 266.83 60.74 C 269.72 63.00 271.41 66.34 273.95 68.92 C 280.91 70.82 288.33 70.31 295.48 71.19 C 318.28 72.46 340.12 83.79 354.94 101.05 C 364.76 112.99 369.62 128.64 369.24 144.01 C 368.57 148.97 368.50 154.00 367.60 158.94 C 365.17 170.41 359.02 181.43 349.11 188.02 C 345.51 190.13 342.03 192.60 338.00 193.86 C 334.98 194.96 331.75 195.48 328.85 196.91 C 327.27 197.66 327.74 199.61 327.39 201.01 C 327.24 205.10 323.51 208.17 319.69 208.88 C 315.72 209.81 310.42 210.71 307.63 206.91 C 307.05 204.42 309.29 202.64 310.26 200.59 C 305.33 198.76 299.96 200.53 294.91 199.36 C 288.90 197.99 282.69 196.84 277.31 193.67 C 267.88 188.74 258.59 181.63 254.80 171.32 C 253.99 166.57 253.25 160.74 256.95 156.96 C 265.11 147.54 276.74 142.13 288.34 138.26 C 290.08 137.67 291.96 137.31 293.79 137.69 C 296.88 144.56 296.14 152.53 296.39 159.95 C 296.25 162.72 298.09 165.67 301.04 165.89 C 305.47 166.62 310.02 166.51 314.51 166.42 C 314.92 162.74 311.40 160.82 308.83 159.06 C 306.16 157.56 305.91 154.07 306.43 151.38 C 306.99 147.62 312.48 146.42 314.90 149.15 C 319.48 153.89 320.78 160.63 322.66 166.71 C 328.42 164.51 332.12 159.21 334.92 153.98 C 337.88 149.17 338.19 143.38 339.23 137.96 C 340.03 126.99 334.24 115.96 325.32 109.69 C 316.75 103.96 305.99 103.82 296.10 104.80 C 295.71 104.99 294.95 105.36 294.57 105.55 C 293.03 111.63 291.21 118.12 286.54 122.59 C 283.63 124.38 278.28 124.10 277.61 119.95 C 277.99 115.92 280.30 112.03 279.27 107.92 C 268.94 108.96 258.70 112.98 250.87 119.89 C 244.75 125.88 242.97 134.59 240.37 142.43 C 238.31 147.61 236.87 153.12 233.84 157.86 C 231.04 162.74 222.64 163.28 219.84 158.14 C 216.95 153.32 217.39 147.40 217.56 142.00 C 218.45 134.21 218.85 126.19 221.82 118.82 C 226.23 108.91 232.16 99.59 240.04 92.07 C 247.48 85.48 255.79 79.89 264.69 75.47 C 264.86 73.56 262.97 72.34 262.26 70.70 C 261.14 69.10 262.03 67.13 262.51 65.48 M 271.41 156.63 C 267.48 158.27 263.66 162.38 264.65 166.95 C 265.52 170.90 268.12 174.35 271.51 176.51 C 274.22 178.34 277.51 180.34 280.88 179.13 C 283.54 177.82 285.83 175.15 285.57 172.02 C 286.12 166.52 284.77 160.39 280.19 156.88 C 277.59 154.96 274.24 155.87 271.41 156.63 Z" />
<path fill="#6f8267" opacity="1.00" d=" M 100.31 107.31 C 102.98 102.25 105.10 96.75 109.03 92.49 C 110.27 92.65 111.51 92.87 112.73 93.16 C 114.72 97.54 114.02 102.59 113.01 107.13 C 106.45 132.70 92.59 155.42 80.53 178.63 C 76.10 185.87 71.55 193.04 67.47 200.49 C 59.85 212.97 51.53 225.88 38.82 233.73 C 31.57 237.92 26.18 244.49 20.29 250.31 C 15.75 254.71 12.30 260.67 6.29 263.24 C 6.37 261.44 6.54 259.64 6.77 257.86 C 8.91 252.42 12.85 248.00 16.92 243.93 C 23.78 236.43 31.83 230.18 39.23 223.24 C 49.84 214.58 55.96 202.00 62.01 190.03 C 75.55 162.82 87.30 134.77 100.31 107.31 Z" />
<path fill="#6f8267" opacity="1.00" d=" M 404.41 106.53 C 406.11 101.85 408.02 96.16 413.12 94.25 C 417.53 94.96 420.41 98.92 422.50 102.53 C 427.80 111.61 428.73 122.49 427.82 132.77 C 427.12 140.59 423.70 147.76 420.92 154.99 C 418.27 161.88 414.46 168.63 414.33 176.20 C 414.37 183.82 417.15 191.08 420.01 198.03 C 423.06 204.58 426.51 211.04 427.93 218.20 C 429.49 224.25 427.72 230.57 429.20 236.64 C 430.24 241.13 431.83 245.61 434.58 249.36 C 440.59 257.37 448.89 263.14 456.52 269.46 C 462.12 274.99 468.73 280.84 469.81 289.10 C 470.47 292.94 468.55 296.50 466.39 299.51 C 462.47 302.15 457.20 303.57 452.74 301.45 C 448.90 299.37 445.99 295.95 443.54 292.42 C 438.74 284.90 435.38 276.59 431.25 268.71 C 429.23 264.82 425.88 261.62 424.75 257.29 C 421.74 247.16 422.20 236.41 419.87 226.15 C 418.93 222.57 417.26 218.73 413.89 216.86 C 410.43 216.10 406.92 217.35 403.86 218.89 C 391.07 225.18 383.66 238.86 370.31 244.29 C 351.98 251.29 332.45 254.52 312.99 256.39 C 307.33 256.44 301.66 256.45 296.00 256.41 C 280.72 255.20 265.47 252.50 251.06 247.12 C 240.77 243.32 229.74 240.83 220.68 234.34 C 214.10 230.87 208.58 225.88 202.75 221.35 C 198.98 218.82 195.67 215.73 192.29 212.72 C 187.35 208.91 182.25 205.29 176.74 202.35 C 173.57 200.44 169.67 200.18 166.09 200.69 C 163.05 203.89 160.94 207.81 158.43 211.41 C 150.60 223.33 142.08 234.83 135.21 247.35 C 127.89 258.12 126.16 271.35 122.13 283.48 C 121.06 286.43 119.22 289.01 117.55 291.64 C 114.79 297.00 107.11 296.55 102.52 294.14 C 101.84 287.31 106.19 281.60 109.19 275.87 C 112.58 270.54 114.38 264.46 116.78 258.67 C 121.58 248.93 128.42 240.42 134.31 231.34 C 139.13 223.85 144.86 216.90 148.70 208.81 C 154.09 198.50 157.07 187.20 161.50 176.49 C 165.47 166.76 168.33 155.77 176.86 148.86 C 180.31 146.86 184.41 149.87 186.01 152.98 C 189.77 160.04 188.13 168.23 188.34 175.86 C 188.60 182.79 187.64 190.03 190.40 196.61 C 194.50 207.45 205.02 213.73 214.17 219.90 C 220.52 224.83 227.73 228.45 234.84 232.12 C 245.34 237.48 256.81 240.49 268.09 243.70 C 275.79 245.27 283.60 246.91 291.50 246.65 C 310.30 245.85 329.07 243.70 347.37 239.26 C 356.05 237.42 364.00 233.42 372.24 230.27 C 378.73 227.61 383.70 222.44 388.40 217.41 C 393.33 212.23 396.02 205.52 399.14 199.20 C 402.01 193.40 403.21 186.99 404.67 180.74 C 406.50 172.66 404.36 164.47 403.63 156.40 C 401.41 139.94 398.67 122.60 404.41 106.53 Z" />
<path fill="#6f8267" opacity="1.00" d=" M 124.43 115.47 C 124.96 113.57 125.88 111.72 127.76 110.85 C 127.08 117.95 123.70 124.40 122.37 131.37 C 119.13 143.89 116.01 156.51 114.97 169.44 C 114.68 177.84 116.00 186.17 116.72 194.52 C 116.95 199.65 117.36 205.11 115.02 209.86 C 112.64 215.58 105.89 217.81 103.57 223.57 C 99.65 233.11 95.73 242.67 91.08 251.88 C 87.83 258.40 85.50 265.39 81.58 271.56 C 80.33 273.68 78.28 275.12 76.18 276.32 C 76.12 274.49 76.26 272.66 76.66 270.89 C 80.86 253.45 87.78 236.87 93.83 220.03 C 87.36 228.42 80.97 236.94 73.35 244.35 C 69.40 248.43 64.65 251.62 60.72 255.71 C 51.43 264.29 41.27 271.93 30.32 278.26 C 29.25 278.94 27.23 279.20 26.66 277.75 C 30.43 274.49 34.12 271.11 38.24 268.29 C 44.26 263.97 51.08 260.66 56.23 255.22 C 61.22 250.47 65.60 245.12 69.29 239.30 C 73.41 232.88 78.54 227.22 83.25 221.25 C 86.89 216.46 92.44 213.82 96.84 209.88 C 101.00 206.00 102.70 200.40 105.67 195.69 C 106.91 193.59 109.57 193.09 111.29 191.50 C 111.82 186.97 110.27 182.46 110.74 177.91 C 112.40 156.58 118.24 135.87 124.43 115.47 Z" />
<path fill="#6f8267" opacity="1.00" d=" M 478.25 114.31 C 481.13 110.78 486.91 110.62 490.08 113.86 C 494.01 116.88 493.04 122.32 492.75 126.62 C 491.84 142.34 484.48 157.11 485.06 172.99 C 486.40 186.36 497.44 195.46 503.15 206.92 C 510.38 220.24 510.74 236.25 518.83 249.20 C 528.23 262.55 544.65 267.77 556.05 278.95 C 559.36 281.96 561.48 286.40 560.17 290.90 C 558.94 295.78 554.32 300.27 549.00 299.57 C 544.98 299.30 541.98 296.38 539.43 293.57 C 531.47 284.15 526.76 272.66 521.15 261.81 C 517.29 254.88 514.86 247.23 510.54 240.54 C 504.53 229.48 499.12 216.79 487.63 210.33 C 484.25 208.12 479.87 208.47 476.47 210.42 C 475.25 215.50 476.00 220.77 475.68 225.93 C 475.03 235.61 475.46 245.31 475.27 255.00 C 475.08 266.93 476.28 279.04 480.19 290.37 C 475.44 290.03 472.13 285.68 470.60 281.53 C 466.13 267.09 468.00 251.80 466.73 236.97 C 466.21 231.73 467.11 226.53 467.40 221.31 C 467.95 209.14 471.07 197.14 476.02 186.02 C 478.89 179.02 480.17 171.30 479.30 163.75 C 478.12 152.26 476.56 140.80 475.44 129.30 C 475.24 124.25 474.72 118.44 478.25 114.31 Z" />
<path fill="#6f8267" opacity="1.00" d=" M 505.00 139.11 C 504.13 137.09 503.33 134.94 504.09 132.77 C 507.66 134.96 509.30 139.04 511.66 142.33 C 522.84 159.42 532.21 177.59 541.07 195.97 C 549.62 213.91 559.82 231.18 565.94 250.19 C 567.82 256.64 570.19 263.04 570.85 269.78 C 571.04 272.90 571.07 276.04 570.80 279.17 C 567.02 276.77 565.37 272.43 563.41 268.64 C 555.25 251.34 547.30 233.95 540.08 216.23 C 535.43 205.73 531.57 194.90 526.53 184.57 C 519.70 169.26 511.93 154.38 505.00 139.11 Z" />
<path fill="#6f8267" opacity="1.00" d=" M 270.61 171.42 C 266.42 167.47 270.38 159.47 275.92 159.59 C 277.89 160.24 278.46 162.37 278.97 164.15 C 279.92 167.90 280.75 171.75 280.56 175.65 C 276.75 176.15 273.18 174.04 270.61 171.42 Z" />
</g>
</svg>
